<svg width="68" height="64" viewBox="0 0 68 64" fill="none" xmlns="http://www.w3.org/2000/svg">
<g id="49, Design, Eye, Search">
<g id="Group">
<path id="Vector" d="M8.1955 55.7471C9.52689 55.7471 10.7265 56.8148 10.7265 58.278C10.7265 59.6094 9.65871 60.809 8.1955 60.809C6.7323 60.809 5.66455 59.7412 5.66455 58.278C5.79637 56.8148 6.86412 55.7471 8.1955 55.7471Z" fill="#BEBEBE"/>
<path id="Vector_2" d="M63.1379 13.3037C65.4053 13.3037 67.2639 15.1624 67.2639 17.4297C67.2639 19.697 65.4053 21.5557 63.1379 21.5557C60.8706 21.5557 59.012 19.697 59.012 17.4297C59.012 15.1624 60.8706 13.3037 63.1379 13.3037Z" fill="#BEBEBE"/>
<g id="Group 35921">
<path id="Vector_3" d="M58.9948 50.2424L50.7625 41.9999L47.9776 39.2252L44.7847 36.0323C49.416 28.106 48.3857 17.8029 41.5918 11.009C33.6655 3.08275 20.6898 2.98074 12.6615 10.805C4.53125 18.7312 4.42924 32.013 12.4575 40.0515C19.2514 46.8454 29.6565 47.9777 37.4807 43.2444L40.6737 46.4374L43.4586 49.2121L51.701 57.4545C53.7617 59.5152 56.9546 59.5152 59.0152 57.4545C60.0455 56.4242 60.5556 55.0879 60.5556 53.8536C60.4536 52.6192 59.9333 51.2829 59.0152 50.2526L58.9948 50.2424Z" fill="#BEBEBE"/>
<path id="Vector_4" d="M37.0599 15.6404C31.5003 10.0808 22.5438 10.0808 17.0862 15.6404C11.5266 21.2 11.5266 30.1565 17.0862 35.6141C22.6458 41.1737 31.6023 41.1737 37.0599 35.6141C42.5175 30.0545 42.6195 21.2 37.0599 15.6404Z" fill="white"/>
<path id="Vector_5" d="M47.9774 39.3262L50.7622 41.9989L43.4481 49.313L40.7754 46.6404L47.9774 39.3262Z" fill="white"/>
</g>
<path id="Vector_6" d="M60.2115 32.4648C60.8706 32.4648 61.4111 33.0053 61.4111 33.6644C61.4111 34.3235 60.8706 34.864 60.2115 34.864C59.5524 34.864 59.012 34.3235 59.012 33.6644C59.012 33.0053 59.5524 32.4648 60.2115 32.4648Z" fill="#BEBEBE"/>
<path id="Vector_7" d="M56.8922 2.53418C57.5513 2.53418 58.0918 3.07464 58.0918 3.73375C58.0918 4.39285 57.5513 4.93331 56.8922 4.93331C56.2331 4.93331 55.6926 4.39285 55.6926 3.73375C55.6926 3.07464 56.2331 2.53418 56.8922 2.53418Z" fill="#BEBEBE"/>
<path id="Vector_8" d="M38.5309 56.5537C39.19 56.5537 39.7304 57.0942 39.7304 57.7533C39.7304 58.4124 39.19 58.9528 38.5309 58.9528C37.8718 58.9528 37.3313 58.4124 37.3313 57.7533C37.3313 57.0942 37.8718 56.5537 38.5309 56.5537Z" fill="#BEBEBE"/>
<path id="Vector_9" d="M19.5069 61.6006C20.166 61.6006 20.7065 62.141 20.7065 62.8001C20.7065 63.4592 20.166 63.9997 19.5069 63.9997C18.8478 63.9997 18.3074 63.4592 18.3074 62.8001C18.3074 62.141 18.8478 61.6006 19.5069 61.6006Z" fill="#BEBEBE"/>
<path id="Vector_10" d="M3.66758 0C4.32669 0 4.86715 0.540463 4.86715 1.19957C4.86715 1.85867 4.32669 2.39913 3.66758 2.39913C3.00848 2.39913 2.46802 1.85867 2.46802 1.19957C2.46802 0.540463 3.00848 0 3.66758 0Z" fill="#BEBEBE"/>
<path id="Vector_11" d="M1.93541 47.4961C2.59451 47.4961 3.13497 48.0366 3.13497 48.6957C3.13497 49.3548 2.59451 49.8952 1.93541 49.8952C1.2763 49.8952 0.73584 49.3548 0.73584 48.6957C0.73584 48.0366 1.2763 47.4961 1.93541 47.4961Z" fill="#BEBEBE"/>
</g>
</g>
</svg>
