<svg width="44" height="44" viewBox="0 0 44 44" fill="none" xmlns="http://www.w3.org/2000/svg">
<path d="M16 19.375C19.1066 19.375 21.625 16.8566 21.625 13.75C21.625 10.6434 19.1066 8.125 16 8.125C12.8934 8.125 10.375 10.6434 10.375 13.75C10.375 16.8566 12.8934 19.375 16 19.375Z"/>
<path d="M28 17.125C31.1066 17.125 33.625 14.6066 33.625 11.5C33.625 8.3934 31.1066 5.875 28 5.875C24.8934 5.875 22.375 8.3934 22.375 11.5C22.375 14.6066 24.8934 17.125 28 17.125Z"/>
<path fill-rule="evenodd" clip-rule="evenodd" d="M22 22.375C17.653 22.375 14.125 25.903 14.125 30.25C14.125 34.597 17.653 38.125 22 38.125C26.347 38.125 29.875 34.597 29.875 30.25C29.875 25.903 26.347 22.375 22 22.375ZM23.125 29.125V27.625C23.125 27.004 22.621 26.5 22 26.5C21.379 26.5 20.875 27.004 20.875 27.625V29.125H19.375C18.754 29.125 18.25 29.629 18.25 30.25C18.25 30.871 18.754 31.375 19.375 31.375H20.875V32.875C20.875 33.496 21.379 34 22 34C22.621 34 23.125 33.496 23.125 32.875V31.375H24.625C25.246 31.375 25.75 30.871 25.75 30.25C25.75 29.629 25.246 29.125 24.625 29.125H23.125Z"/>
<path fill-rule="evenodd" clip-rule="evenodd" d="M12.811 28.3869C13.6705 24.1254 17.425 20.9079 21.931 20.8749C20.281 20.2314 18.229 19.8369 16 19.8369C12.7555 19.8369 9.8875 20.6589 8.104 21.8754C6.6505 22.8654 5.875 24.1404 5.875 25.4619V26.3619C5.875 26.8989 6.088 27.4134 6.4675 27.7929C6.8485 28.1739 7.363 28.3869 7.9 28.3869H12.811Z"/>
<path fill-rule="evenodd" clip-rule="evenodd" d="M21.1523 19.0329C21.6158 19.1649 22.0568 19.3149 22.4768 19.4784C23.0948 19.7184 23.4743 20.3334 23.4278 20.9829C26.5103 21.4554 29.1008 23.4309 30.4253 26.1369H36.0998C36.6368 26.1369 37.1513 25.9239 37.5323 25.5429C37.9118 25.1634 38.1248 24.6489 38.1248 24.1119V23.2119C38.1248 21.8904 37.3493 20.6154 35.8958 19.6254C34.1123 18.4089 31.2443 17.5869 27.9998 17.5869C25.3373 17.5869 22.9298 18.1509 21.1523 19.0329Z"/>
<path d="M6.5 31C8.42332 31 10 32.5767 10 34.5C10 36.4233 8.42332 38 6.5 38C4.57667 38 3 36.4233 3 34.5C3 32.5767 4.57667 31 6.5 31Z"/>
<path d="M40.5 4C42.4233 4 44 5.57668 44 7.5C44 9.42333 42.4233 11 40.5 11C38.5767 11 37 9.42333 37 7.5C37 5.57668 38.5767 4 40.5 4Z"/>
<path d="M42 17C42.5494 17 43 17.4505 43 18C43 18.5495 42.5494 19 42 19C41.4505 19 41 18.5495 41 18C41 17.4505 41.4505 17 42 17Z"/>
<path d="M14 39C14.5494 39 15 39.4505 15 40C15 40.5495 14.5494 41 14 41C13.4505 41 13 40.5495 13 40C13 39.4505 13.4505 39 14 39Z"/>
<path d="M28.6494 0C29.5557 0 30.2988 0.743137 30.2988 1.6494C30.2988 2.55567 29.5557 3.29881 28.6494 3.29881C27.7431 3.29881 27 2.55567 27 1.6494C27 0.743137 27.7431 0 28.6494 0Z"/>
<path d="M37.5 34C38.3242 34 39 34.6758 39 35.5C39 36.3242 38.3242 37 37.5 37C36.6758 37 36 36.3242 36 35.5C36 34.6758 36.6758 34 37.5 34Z"/>
</svg>
