<svg width="24" height="25" viewBox="0 0 24 25" fill="#00000000" xmlns="http://www.w3.org/2000/svg">
    <path d="M4.41406 15.0858L4.80357 14.6963C4.92924 14.5706 5 14.4002 5 14.2224V10.5C5 6.63401 8.13401 3.50001 12 3.5C15.866 3.49999 19 6.634 19 10.5V14.2224C19 14.4001 19.0706 14.5706 19.1963 14.6963L19.5858 15.0858C19.7051 15.2051 19.7649 15.2648 19.8124 15.331C19.9023 15.4561 19.9619 15.6003 19.9868 15.7523C20 15.8328 20.0002 15.9171 20.0002 16.0858C20.0002 16.4714 20.0002 16.6642 19.9478 16.8197C19.848 17.1155 19.6156 17.3477 19.3198 17.4475C19.1643 17.5 18.9712 17.5 18.5856 17.5H5.41406C5.02852 17.5 4.83568 17.5 4.68018 17.4475C4.38431 17.3477 4.15225 17.1155 4.05245 16.8196C4 16.6641 4 16.4714 4 16.0858C4 15.9171 4 15.8328 4.0132 15.7523C4.03815 15.6003 4.09766 15.4561 4.1875 15.331C4.23504 15.2648 4.29476 15.2051 4.41406 15.0858ZM15 17.5V18.5C15 20.1569 13.6569 21.5 12 21.5C10.3431 21.5 9 20.1569 9 18.5V17.5H15Z" stroke="#4873FA" fill="#00000000" stroke-width="1.3" stroke-linecap="round" stroke-linejoin="round"/>
    </svg>
    