<svg viewBox="0 0 44 44" fill="none" xmlns="http://www.w3.org/2000/svg">
<g clip-path="url(#clip0_2772_9099)">
<path d="M37.7143 21.1429H35.1429V14.2857C35.1429 12.4 33.6 10.8571 31.7143 10.8571H24.8571V8.28571C24.8571 5.88571 22.9714 4 20.5714 4C18.1714 4 16.2857 5.88571 16.2857 8.28571V10.8571H9.42857C7.54286 10.8571 6 12.4 6 14.2857V20.8H8.57143C11.1429 20.8 13.2 22.8571 13.2 25.4286C13.2 28 11.1429 30.0571 8.57143 30.0571H6V36.5714C6 38.4571 7.54286 40 9.42857 40H15.9429V37.4286C15.9429 34.8571 18 32.8 20.5714 32.8C23.1429 32.8 25.2 34.8571 25.2 37.4286V40H31.7143C33.6 40 35.1429 38.4571 35.1429 36.5714V29.7143H37.7143C40.1143 29.7143 42 27.8286 42 25.4286C42 23.0286 40.1143 21.1429 37.7143 21.1429Z" />
</g>
<path d="M40.5 4C42.4233 4 44 5.57668 44 7.5C44 9.42333 42.4233 11 40.5 11C38.5767 11 37 9.42333 37 7.5C37 5.57668 38.5767 4 40.5 4Z"/>
<path d="M42 17C42.5494 17 43 17.4505 43 18C43 18.5495 42.5494 19 42 19C41.4505 19 41 18.5495 41 18C41 17.4505 41.4505 17 42 17Z"/>
<path d="M6 25C6.54945 25 7 25.4505 7 26C7 26.5495 6.54945 27 6 27C5.45055 27 5 26.5495 5 26C5 25.4505 5.45055 25 6 25Z" />
<path d="M28.6494 0C29.5557 0 30.2988 0.743137 30.2988 1.6494C30.2988 2.55567 29.5557 3.29881 28.6494 3.29881C27.7431 3.29881 27 2.55567 27 1.6494C27 0.743137 27.7431 0 28.6494 0Z" />
<path d="M1.50001 41C2.32418 41 3 41.6758 3 42.5C3 43.3242 2.32418 44 1.50001 44C0.67583 44 0 43.3242 0 42.5C0 41.6758 0.67583 41 1.50001 41Z"/>
<defs>
<clipPath id="clip0_2772_9099">
<rect width="36" height="36" fill="white" transform="translate(6 4)"/>
</clipPath>
</defs>
</svg>
