<svg width="18" height="20" viewBox="0 0 18 20" fill="none" xmlns="http://www.w3.org/2000/svg">
<path d="M17.5 9.26868V10C17.5 10.9512 16.7159 11.947 15.1404 12.7348C13.5948 13.5076 11.4245 14 9 14C6.57551 14 4.40527 13.5076 2.85965 12.7348C1.28412 11.947 0.5 10.9512 0.5 10V9.26867C1.00151 9.79655 1.66206 10.254 2.41243 10.6292C4.12417 11.4851 6.45393 12 9 12C11.5461 12 13.8758 11.4851 15.5876 10.6292C16.338 10.254 16.9985 9.79656 17.5 9.26868ZM15.5876 15.6292C16.338 15.254 16.9985 14.7966 17.5 14.2687V15C17.5 15.9512 16.7159 16.947 15.1404 17.7348C13.5948 18.5076 11.4245 19 9 19C6.57551 19 4.40527 18.5076 2.85965 17.7348C1.28412 16.947 0.5 15.9512 0.5 15V14.2687C1.00151 14.7966 1.66206 15.254 2.41243 15.6292C4.12417 16.4851 6.45393 17 9 17C11.5461 17 13.8758 16.4851 15.5876 15.6292ZM9 9C6.57551 9 4.40527 8.50758 2.85965 7.73477C1.28412 6.947 0.5 5.95123 0.5 5C0.5 4.04877 1.28412 3.053 2.85965 2.26523C4.40527 1.49242 6.57551 1 9 1C11.4245 1 13.5948 1.49242 15.1404 2.26523C16.7159 3.053 17.5 4.04877 17.5 5C17.5 5.95123 16.7159 6.947 15.1404 7.73477C13.5948 8.50758 11.4245 9 9 9Z" fill="#80FFBD" fill-opacity="0.3" stroke="#4DD68F"/>
</svg>
