<svg width="21" height="24" viewBox="0 0 21 24" fill="none" xmlns="http://www.w3.org/2000/svg">
<path d="M18.6667 22.1H19.1667V21.6V19.2V18.7H18.6667H3.5C2.56635 18.7 1.83333 19.4745 1.83333 20.4C1.83333 21.3255 2.56635 22.1 3.5 22.1H18.6667ZM6.5 14.4V14.9H7H14H14.5V14.4C14.5 12.1489 12.7224 10.3 10.5 10.3C8.27762 10.3 6.5 12.1489 6.5 14.4ZM19.8333 23.5H3.5C1.85633 23.5 0.5 22.1255 0.5 20.4V3.6C0.5 1.87455 1.85633 0.5 3.5 0.5H19.8333C20.1884 0.5 20.5 0.800029 20.5 1.2V22.8C20.5 23.2 20.1884 23.5 19.8333 23.5ZM10.5 10.1C12.078 10.1 13.3333 8.78825 13.3333 7.2C13.3333 5.61175 12.078 4.3 10.5 4.3C8.92197 4.3 7.66667 5.61175 7.66667 7.2C7.66667 8.78825 8.92197 10.1 10.5 10.1Z" fill="#F1A9FF" fill-opacity="0.27" stroke="#B063C2"/>
</svg>
