<svg width="42" height="43" viewBox="0 0 42 43" xmlns="http://www.w3.org/2000/svg">
    <path d="M12.25 4V39H5.25V4H12.25ZM15.75 4H33.2586C35.1869 4 36.75 5.57187 36.75 7.4839V35.5161C36.75 37.4402 35.188 39 33.2586 39H15.75V4ZM38.5 11H42V18H38.5V11ZM38.5 21.5H42V28.5H38.5V21.5ZM26.25 21.5C28.1831 21.5 29.75 19.9331 29.75 18C29.75 16.067 28.1831 14.5 26.25 14.5C24.3169 14.5 22.75 16.067 22.75 18C22.75 19.9331 24.3169 21.5 26.25 21.5ZM21 28.5H31.5C31.5 25.6004 29.1496 23.25 26.25 23.25C23.3504 23.25 21 25.6004 21 28.5Z"/>
    </svg>
    