<svg width="21" height="20" viewBox="0 0 21 20" fill="none" xmlns="http://www.w3.org/2000/svg">
    <mask id="mask0_727_12426" style="mask-type:alpha" maskUnits="userSpaceOnUse" x="0" y="0" width="21" height="20">
    <rect x="0.5" width="20" height="20" fill="#D9D9D9"/>
    </mask>
    <g mask="url(#mask0_727_12426)">
    <path d="M9.66699 14.166H11.3337V9.16602H9.66699V14.166ZM10.5003 7.49935C10.7364 7.49935 10.9344 7.41949 11.0941 7.25977C11.2538 7.10004 11.3337 6.90213 11.3337 6.66602C11.3337 6.4299 11.2538 6.23199 11.0941 6.07227C10.9344 5.91254 10.7364 5.83268 10.5003 5.83268C10.2642 5.83268 10.0663 5.91254 9.90658 6.07227C9.74685 6.23199 9.66699 6.4299 9.66699 6.66602C9.66699 6.90213 9.74685 7.10004 9.90658 7.25977C10.0663 7.41949 10.2642 7.49935 10.5003 7.49935ZM10.5003 18.3327C9.34755 18.3327 8.26421 18.1139 7.25033 17.6764C6.23644 17.2389 5.35449 16.6452 4.60449 15.8952C3.85449 15.1452 3.26074 14.2632 2.82324 13.2493C2.38574 12.2355 2.16699 11.1521 2.16699 9.99935C2.16699 8.84657 2.38574 7.76324 2.82324 6.74935C3.26074 5.73546 3.85449 4.85352 4.60449 4.10352C5.35449 3.35352 6.23644 2.75977 7.25033 2.32227C8.26421 1.88477 9.34755 1.66602 10.5003 1.66602C11.6531 1.66602 12.7364 1.88477 13.7503 2.32227C14.7642 2.75977 15.6462 3.35352 16.3962 4.10352C17.1462 4.85352 17.7399 5.73546 18.1774 6.74935C18.6149 7.76324 18.8337 8.84657 18.8337 9.99935C18.8337 11.1521 18.6149 12.2355 18.1774 13.2493C17.7399 14.2632 17.1462 15.1452 16.3962 15.8952C15.6462 16.6452 14.7642 17.2389 13.7503 17.6764C12.7364 18.1139 11.6531 18.3327 10.5003 18.3327Z" fill="#929292"/>
    </g>
    </svg>
    