<svg width="505" height="163" viewBox="0 0 505 163" fill="none" xmlns="http://www.w3.org/2000/svg">
    <rect x="0.5" y="0.5" width="504" height="137" rx="7.5" fill="white"/>
    <rect x="0.5" y="0.5" width="504" height="137" rx="7.5" stroke="#E8E7E7"/>
    <path d="M22.608 31V26.584C22.608 25.9227 22.4107 25.3893 22.016 24.984C21.632 24.568 21.12 24.36 20.48 24.36C20.0427 24.36 19.6587 24.456 19.328 24.648C18.9973 24.84 18.736 25.1013 18.544 25.432C18.352 25.7627 18.256 26.1413 18.256 26.568L17.744 26.28C17.744 25.7147 17.8773 25.208 18.144 24.76C18.4107 24.312 18.768 23.96 19.216 23.704C19.6747 23.448 20.1973 23.32 20.784 23.32C21.36 23.32 21.872 23.4533 22.32 23.72C22.768 23.976 23.1147 24.3333 23.36 24.792C23.616 25.2507 23.744 25.784 23.744 26.392V31H22.608ZM17.136 31V19.672H18.256V31H17.136ZM27.0071 31V20.312H28.1431V31H27.0071ZM25.1031 24.488V23.48H34.4471V24.488H25.1031ZM31.4231 31V20.312H32.5591V31H31.4231ZM39.8678 31.16C39.2918 31.16 38.7744 31.0427 38.3158 30.808C37.8571 30.5733 37.4784 30.2533 37.1798 29.848C36.8918 29.432 36.7158 28.952 36.6518 28.408V26.056C36.7158 25.5013 36.8971 25.0213 37.1957 24.616C37.4944 24.2 37.8731 23.88 38.3318 23.656C38.8011 23.432 39.3131 23.32 39.8678 23.32C40.5611 23.32 41.1851 23.496 41.7398 23.848C42.2944 24.1893 42.7318 24.6587 43.0518 25.256C43.3824 25.8427 43.5478 26.5093 43.5478 27.256C43.5478 27.992 43.3878 28.6533 43.0677 29.24C42.7478 29.8267 42.3051 30.296 41.7398 30.648C41.1851 30.9893 40.5611 31.16 39.8678 31.16ZM39.6758 30.088C40.2091 30.088 40.6784 29.9707 41.0838 29.736C41.4891 29.4907 41.8038 29.1547 42.0278 28.728C42.2624 28.2907 42.3798 27.7947 42.3798 27.24C42.3798 26.6747 42.2624 26.1787 42.0278 25.752C41.8038 25.3253 41.4891 24.9893 41.0838 24.744C40.6784 24.4987 40.2144 24.376 39.6918 24.376C39.1691 24.376 38.7051 24.4987 38.2998 24.744C37.9051 24.9893 37.5958 25.3253 37.3718 25.752C37.1478 26.1787 37.0358 26.6747 37.0358 27.24C37.0358 27.7947 37.1478 28.2907 37.3718 28.728C37.5958 29.1547 37.9051 29.4907 38.2998 29.736C38.6944 29.9707 39.1531 30.088 39.6758 30.088ZM35.9798 34.168V23.48H37.0998V25.4L36.8758 27.224L37.0998 29.064V34.168H35.9798ZM47.6431 31.16C47.2378 31.16 46.8485 31.1067 46.4751 31C46.1018 30.8827 45.7605 30.7227 45.4511 30.52C45.1525 30.3173 44.8911 30.0773 44.6671 29.8L45.3871 29.064C45.6858 29.4267 46.0218 29.6987 46.3951 29.88C46.7791 30.0507 47.2058 30.136 47.6751 30.136C48.1765 30.136 48.5658 30.04 48.8431 29.848C49.1311 29.656 49.2751 29.3893 49.2751 29.048C49.2751 28.728 49.1738 28.4773 48.9711 28.296C48.7685 28.1147 48.5071 27.9707 48.1871 27.864C47.8778 27.7573 47.5471 27.656 47.1951 27.56C46.8431 27.4533 46.5071 27.3253 46.1871 27.176C45.8671 27.016 45.6058 26.7973 45.4031 26.52C45.2111 26.2427 45.1151 25.88 45.1151 25.432C45.1151 25.0053 45.2165 24.6373 45.4191 24.328C45.6325 24.008 45.9311 23.7627 46.3151 23.592C46.7098 23.4107 47.1738 23.32 47.7071 23.32C48.2725 23.32 48.7845 23.4213 49.2431 23.624C49.7018 23.8267 50.0698 24.1253 50.3471 24.52L49.6271 25.24C49.4031 24.952 49.1205 24.7333 48.7791 24.584C48.4485 24.424 48.0751 24.344 47.6591 24.344C47.1791 24.344 46.8111 24.44 46.5551 24.632C46.3098 24.8133 46.1871 25.0533 46.1871 25.352C46.1871 25.64 46.2885 25.8693 46.4911 26.04C46.6938 26.2 46.9498 26.3333 47.2591 26.44C47.5791 26.536 47.9151 26.6373 48.2671 26.744C48.6191 26.84 48.9551 26.9733 49.2751 27.144C49.5951 27.304 49.8511 27.528 50.0431 27.816C50.2458 28.0933 50.3471 28.472 50.3471 28.952C50.3471 29.624 50.1018 30.1627 49.6111 30.568C49.1311 30.9627 48.4751 31.16 47.6431 31.16ZM53.1444 31.16C52.8777 31.16 52.659 31.0693 52.4884 30.888C52.3284 30.7067 52.2484 30.4933 52.2484 30.248C52.2484 29.9813 52.3284 29.7627 52.4884 29.592C52.659 29.4107 52.8777 29.32 53.1444 29.32C53.4004 29.32 53.6137 29.4107 53.7844 29.592C53.9657 29.7627 54.0564 29.9813 54.0564 30.248C54.0564 30.4933 53.9657 30.7067 53.7844 30.888C53.6137 31.0693 53.4004 31.16 53.1444 31.16ZM53.1444 26.12C52.8777 26.12 52.659 26.0293 52.4884 25.848C52.3284 25.6667 52.2484 25.4533 52.2484 25.208C52.2484 24.9413 52.3284 24.7227 52.4884 24.552C52.659 24.3813 52.8777 24.296 53.1444 24.296C53.4004 24.296 53.6137 24.3813 53.7844 24.552C53.9657 24.7227 54.0564 24.9413 54.0564 25.208C54.0564 25.4533 53.9657 25.6667 53.7844 25.848C53.6137 26.0293 53.4004 26.12 53.1444 26.12ZM55.6169 31.64L60.0009 19.4H61.0569L56.6729 31.64H55.6169ZM61.695 31.64L66.079 19.4H67.135L62.751 31.64H61.695ZM70.2008 31L67.3048 23.48H68.4728L70.7608 29.72L70.3448 29.736L72.6168 23.48H73.2728L75.5448 29.736L75.1288 29.72L77.4008 23.48H78.5848L75.6728 31H75.0168L72.6968 24.84H73.1768L70.8728 31H70.2008ZM81.7789 31L78.8829 23.48H80.0509L82.3389 29.72L81.9229 29.736L84.1949 23.48H84.8509L87.1229 29.736L86.7069 29.72L88.9789 23.48H90.1629L87.2509 31H86.5949L84.2749 24.84H84.7549L82.4509 31H81.7789ZM93.357 31L90.461 23.48H91.629L93.917 29.72L93.501 29.736L95.773 23.48H96.429L98.701 29.736L98.285 29.72L100.557 23.48H101.741L98.829 31H98.173L95.853 24.84H96.333L94.029 31H93.357ZM103.82 31.16C103.553 31.16 103.335 31.0693 103.164 30.888C102.993 30.7067 102.908 30.488 102.908 30.232C102.908 29.976 102.993 29.7627 103.164 29.592C103.335 29.4107 103.553 29.32 103.82 29.32C104.076 29.32 104.289 29.4107 104.46 29.592C104.631 29.7627 104.716 29.976 104.716 30.232C104.716 30.488 104.631 30.7067 104.46 30.888C104.289 31.0693 104.076 31.16 103.82 31.16ZM107.261 31V19.672H108.381V31H107.261ZM110.652 31V23.48H111.788V31H110.652ZM111.212 21.848C110.998 21.848 110.817 21.7733 110.668 21.624C110.518 21.464 110.444 21.2773 110.444 21.064C110.444 20.84 110.518 20.6533 110.668 20.504C110.817 20.3547 110.998 20.28 111.212 20.28C111.446 20.28 111.633 20.3547 111.772 20.504C111.921 20.6533 111.996 20.84 111.996 21.064C111.996 21.2773 111.921 21.464 111.772 21.624C111.633 21.7733 111.446 21.848 111.212 21.848ZM119.53 31V26.584C119.53 25.9227 119.333 25.3893 118.938 24.984C118.554 24.568 118.042 24.36 117.402 24.36C116.965 24.36 116.581 24.456 116.25 24.648C115.919 24.84 115.658 25.1013 115.466 25.432C115.274 25.7627 115.178 26.1413 115.178 26.568L114.666 26.28C114.666 25.7147 114.799 25.208 115.066 24.76C115.333 24.312 115.69 23.96 116.138 23.704C116.597 23.448 117.119 23.32 117.706 23.32C118.282 23.32 118.794 23.4587 119.242 23.736C119.69 24.0133 120.037 24.3867 120.282 24.856C120.538 25.3253 120.666 25.8373 120.666 26.392V31H119.53ZM114.058 31V23.48H115.178V31H114.058ZM127.609 31L123.769 27.144L127.545 23.48H128.937L124.825 27.432L124.857 26.792L129.097 31H127.609ZM122.761 31V19.672H123.881V31H122.761ZM133.499 31.16C132.741 31.16 132.064 30.9893 131.467 30.648C130.869 30.3067 130.395 29.8373 130.043 29.24C129.701 28.6427 129.531 27.9707 129.531 27.224C129.531 26.488 129.701 25.8267 130.043 25.24C130.384 24.6427 130.848 24.1733 131.435 23.832C132.021 23.4907 132.677 23.32 133.403 23.32C134.085 23.32 134.688 23.4747 135.211 23.784C135.744 24.0933 136.16 24.5253 136.459 25.08C136.768 25.624 136.923 26.2533 136.923 26.968C136.923 27.0533 136.917 27.1547 136.907 27.272C136.896 27.3787 136.875 27.5067 136.843 27.656H130.331V26.696H136.235L135.835 27.048C135.845 26.4933 135.749 26.0187 135.547 25.624C135.355 25.2187 135.072 24.9093 134.699 24.696C134.336 24.472 133.893 24.36 133.371 24.36C132.827 24.36 132.352 24.4773 131.947 24.712C131.541 24.9467 131.221 25.2773 130.987 25.704C130.763 26.12 130.651 26.616 130.651 27.192C130.651 27.768 130.768 28.2747 131.003 28.712C131.248 29.1493 131.584 29.4907 132.011 29.736C132.448 29.9813 132.949 30.104 133.515 30.104C133.973 30.104 134.395 30.024 134.779 29.864C135.163 29.6933 135.488 29.4427 135.755 29.112L136.475 29.848C136.123 30.264 135.685 30.5893 135.163 30.824C134.651 31.048 134.096 31.16 133.499 31.16ZM141.836 31.16C141.143 31.16 140.519 30.9893 139.964 30.648C139.409 30.3067 138.967 29.8427 138.636 29.256C138.316 28.6587 138.156 27.992 138.156 27.256C138.156 26.5093 138.316 25.8427 138.636 25.256C138.967 24.6587 139.409 24.1893 139.964 23.848C140.519 23.496 141.143 23.32 141.836 23.32C142.401 23.32 142.913 23.432 143.372 23.656C143.831 23.88 144.209 24.2 144.508 24.616C144.817 25.0213 144.999 25.5013 145.052 26.056V28.408C144.988 28.952 144.807 29.432 144.508 29.848C144.22 30.2533 143.847 30.5733 143.388 30.808C142.929 31.0427 142.412 31.16 141.836 31.16ZM142.028 30.088C142.551 30.088 143.009 29.9707 143.404 29.736C143.799 29.4907 144.108 29.1547 144.332 28.728C144.556 28.2907 144.668 27.7947 144.668 27.24C144.668 26.6747 144.551 26.1787 144.316 25.752C144.092 25.3253 143.783 24.9893 143.388 24.744C142.993 24.4987 142.535 24.376 142.012 24.376C141.489 24.376 141.025 24.4987 140.62 24.744C140.215 24.9893 139.895 25.3307 139.66 25.768C139.436 26.1947 139.324 26.6853 139.324 27.24C139.324 27.7947 139.436 28.2907 139.66 28.728C139.895 29.1547 140.215 29.4907 140.62 29.736C141.036 29.9707 141.505 30.088 142.028 30.088ZM145.724 31H144.604V28.984L144.828 27.128L144.604 25.32V19.672H145.724V31ZM147.995 31V23.48H149.131V31H147.995ZM148.555 21.848C148.342 21.848 148.161 21.7733 148.011 21.624C147.862 21.464 147.787 21.2773 147.787 21.064C147.787 20.84 147.862 20.6533 148.011 20.504C148.161 20.3547 148.342 20.28 148.555 20.28C148.79 20.28 148.977 20.3547 149.115 20.504C149.265 20.6533 149.339 20.84 149.339 21.064C149.339 21.2773 149.265 21.464 149.115 21.624C148.977 21.7733 148.79 21.848 148.555 21.848ZM156.874 31V26.584C156.874 25.9227 156.676 25.3893 156.282 24.984C155.898 24.568 155.386 24.36 154.746 24.36C154.308 24.36 153.924 24.456 153.594 24.648C153.263 24.84 153.002 25.1013 152.81 25.432C152.618 25.7627 152.522 26.1413 152.522 26.568L152.01 26.28C152.01 25.7147 152.143 25.208 152.41 24.76C152.676 24.312 153.034 23.96 153.482 23.704C153.94 23.448 154.463 23.32 155.05 23.32C155.626 23.32 156.138 23.4587 156.586 23.736C157.034 24.0133 157.38 24.3867 157.626 24.856C157.882 25.3253 158.01 25.8373 158.01 26.392V31H156.874ZM151.402 31V23.48H152.522V31H151.402ZM161.289 31.16C161.022 31.16 160.803 31.0693 160.633 30.888C160.462 30.7067 160.377 30.488 160.377 30.232C160.377 29.976 160.462 29.7627 160.633 29.592C160.803 29.4107 161.022 29.32 161.289 29.32C161.545 29.32 161.758 29.4107 161.929 29.592C162.099 29.7627 162.185 29.976 162.185 30.232C162.185 30.488 162.099 30.7067 161.929 30.888C161.758 31.0693 161.545 31.16 161.289 31.16ZM167.794 31.16C167.058 31.16 166.392 30.9893 165.794 30.648C165.208 30.296 164.738 29.8213 164.386 29.224C164.045 28.6267 163.874 27.96 163.874 27.224C163.874 26.488 164.045 25.8267 164.386 25.24C164.738 24.6427 165.208 24.1733 165.794 23.832C166.392 23.4907 167.058 23.32 167.794 23.32C168.36 23.32 168.888 23.4267 169.378 23.64C169.869 23.8533 170.285 24.152 170.626 24.536L169.89 25.288C169.634 25 169.325 24.7813 168.962 24.632C168.6 24.472 168.21 24.392 167.794 24.392C167.261 24.392 166.786 24.5147 166.37 24.76C165.954 25.0053 165.629 25.3413 165.394 25.768C165.16 26.184 165.042 26.6693 165.042 27.224C165.042 27.768 165.16 28.2587 165.394 28.696C165.629 29.1227 165.954 29.4587 166.37 29.704C166.786 29.9493 167.261 30.072 167.794 30.072C168.221 30.072 168.616 29.9973 168.978 29.848C169.341 29.688 169.65 29.464 169.906 29.176L170.658 29.928C170.306 30.3227 169.88 30.6267 169.378 30.84C168.888 31.0533 168.36 31.16 167.794 31.16ZM175.497 31.16C174.772 31.16 174.11 30.984 173.513 30.632C172.926 30.28 172.457 29.8053 172.105 29.208C171.764 28.6107 171.593 27.944 171.593 27.208C171.593 26.4827 171.764 25.8267 172.105 25.24C172.457 24.6533 172.926 24.1893 173.513 23.848C174.11 23.496 174.772 23.32 175.497 23.32C176.233 23.32 176.894 23.4907 177.481 23.832C178.068 24.1733 178.532 24.6427 178.873 25.24C179.225 25.8267 179.401 26.4827 179.401 27.208C179.401 27.9547 179.225 28.6267 178.873 29.224C178.532 29.8107 178.068 30.28 177.481 30.632C176.894 30.984 176.233 31.16 175.497 31.16ZM175.497 30.072C176.03 30.072 176.5 29.9493 176.905 29.704C177.321 29.4587 177.646 29.1173 177.881 28.68C178.126 28.2427 178.249 27.752 178.249 27.208C178.249 26.664 178.126 26.184 177.881 25.768C177.646 25.3413 177.321 25.0053 176.905 24.76C176.5 24.5147 176.03 24.392 175.497 24.392C174.974 24.392 174.505 24.5147 174.089 24.76C173.673 25.0053 173.348 25.3413 173.113 25.768C172.878 26.184 172.761 26.664 172.761 27.208C172.761 27.7627 172.878 28.2587 173.113 28.696C173.348 29.1227 173.673 29.4587 174.089 29.704C174.505 29.9493 174.974 30.072 175.497 30.072ZM181.183 31V23.48H182.303V31H181.183ZM186.351 31V26.392C186.351 25.7733 186.164 25.2827 185.791 24.92C185.418 24.5467 184.948 24.36 184.383 24.36C183.999 24.36 183.647 24.4453 183.327 24.616C183.018 24.776 182.767 25.0053 182.575 25.304C182.394 25.6027 182.303 25.96 182.303 26.376L181.791 26.168C181.791 25.592 181.919 25.0907 182.175 24.664C182.431 24.2373 182.772 23.9067 183.199 23.672C183.636 23.4373 184.127 23.32 184.671 23.32C185.204 23.32 185.679 23.4373 186.095 23.672C186.522 23.9067 186.858 24.2373 187.103 24.664C187.359 25.0907 187.487 25.5973 187.487 26.184V31H186.351ZM191.535 31V26.392C191.535 25.7733 191.348 25.2827 190.975 24.92C190.602 24.5467 190.127 24.36 189.551 24.36C189.178 24.36 188.831 24.4453 188.511 24.616C188.202 24.776 187.951 25.0053 187.759 25.304C187.578 25.6027 187.487 25.96 187.487 26.376L186.815 26.168C186.847 25.592 186.996 25.0907 187.263 24.664C187.54 24.2373 187.898 23.9067 188.335 23.672C188.783 23.4373 189.274 23.32 189.807 23.32C190.34 23.32 190.82 23.4373 191.247 23.672C191.684 23.9067 192.026 24.2373 192.271 24.664C192.527 25.0907 192.655 25.5973 192.655 26.184V31H191.535ZM193.945 31.64L198.329 19.4H199.385L195.001 31.64H193.945ZM200.839 31V23.48H201.975V31H200.839ZM201.399 21.848C201.186 21.848 201.004 21.7733 200.855 21.624C200.706 21.464 200.631 21.2773 200.631 21.064C200.631 20.84 200.706 20.6533 200.855 20.504C201.004 20.3547 201.186 20.28 201.399 20.28C201.634 20.28 201.82 20.3547 201.959 20.504C202.108 20.6533 202.183 20.84 202.183 21.064C202.183 21.2773 202.108 21.464 201.959 21.624C201.82 21.7733 201.634 21.848 201.399 21.848ZM209.717 31V26.584C209.717 25.9227 209.52 25.3893 209.125 24.984C208.741 24.568 208.229 24.36 207.589 24.36C207.152 24.36 206.768 24.456 206.437 24.648C206.107 24.84 205.845 25.1013 205.653 25.432C205.461 25.7627 205.365 26.1413 205.365 26.568L204.853 26.28C204.853 25.7147 204.987 25.208 205.253 24.76C205.52 24.312 205.877 23.96 206.325 23.704C206.784 23.448 207.307 23.32 207.893 23.32C208.469 23.32 208.981 23.4587 209.429 23.736C209.877 24.0133 210.224 24.3867 210.469 24.856C210.725 25.3253 210.853 25.8373 210.853 26.392V31H209.717ZM204.245 31V23.48H205.365V31H204.245ZM212.133 31.64L216.516 19.4H217.573L213.189 31.64H212.133ZM218.292 31V23.48H219.412V31H218.292ZM223.46 31V26.392C223.46 25.7733 223.274 25.2827 222.9 24.92C222.527 24.5467 222.058 24.36 221.492 24.36C221.108 24.36 220.756 24.4453 220.436 24.616C220.127 24.776 219.876 25.0053 219.684 25.304C219.503 25.6027 219.412 25.96 219.412 26.376L218.9 26.168C218.9 25.592 219.028 25.0907 219.284 24.664C219.54 24.2373 219.882 23.9067 220.308 23.672C220.746 23.4373 221.236 23.32 221.78 23.32C222.314 23.32 222.788 23.4373 223.204 23.672C223.631 23.9067 223.967 24.2373 224.212 24.664C224.468 25.0907 224.596 25.5973 224.596 26.184V31H223.46ZM228.644 31V26.392C228.644 25.7733 228.458 25.2827 228.084 24.92C227.711 24.5467 227.236 24.36 226.66 24.36C226.287 24.36 225.94 24.4453 225.62 24.616C225.311 24.776 225.06 25.0053 224.868 25.304C224.687 25.6027 224.596 25.96 224.596 26.376L223.924 26.168C223.956 25.592 224.106 25.0907 224.372 24.664C224.65 24.2373 225.007 23.9067 225.444 23.672C225.892 23.4373 226.383 23.32 226.916 23.32C227.45 23.32 227.93 23.4373 228.356 23.672C228.794 23.9067 229.135 24.2373 229.38 24.664C229.636 25.0907 229.764 25.5973 229.764 26.184V31H228.644ZM235.134 31.16C234.42 31.16 233.78 30.9893 233.214 30.648C232.649 30.296 232.201 29.8267 231.87 29.24C231.55 28.6533 231.39 27.992 231.39 27.256C231.39 26.5093 231.55 25.8427 231.87 25.256C232.201 24.6587 232.649 24.1893 233.214 23.848C233.78 23.496 234.414 23.32 235.118 23.32C235.694 23.32 236.206 23.4373 236.654 23.672C237.113 23.896 237.481 24.216 237.758 24.632C238.046 25.0373 238.222 25.512 238.286 26.056V28.408C238.222 28.952 238.046 29.432 237.758 29.848C237.481 30.264 237.113 30.5893 236.654 30.824C236.206 31.048 235.7 31.16 235.134 31.16ZM235.31 30.088C236.089 30.088 236.713 29.8267 237.182 29.304C237.662 28.7813 237.902 28.0933 237.902 27.24C237.902 26.6747 237.79 26.1787 237.566 25.752C237.353 25.3147 237.049 24.9787 236.654 24.744C236.27 24.4987 235.817 24.376 235.294 24.376C234.761 24.376 234.286 24.4987 233.87 24.744C233.465 24.9893 233.14 25.3307 232.894 25.768C232.66 26.1947 232.542 26.6853 232.542 27.24C232.542 27.7947 232.66 28.2853 232.894 28.712C233.14 29.1387 233.47 29.4747 233.886 29.72C234.302 29.9653 234.777 30.088 235.31 30.088ZM237.838 31V28.984L238.062 27.128L237.838 25.32V23.48H238.958V31H237.838ZM241.23 31V23.48H242.366V31H241.23ZM241.79 21.848C241.576 21.848 241.395 21.7733 241.246 21.624C241.096 21.464 241.022 21.2773 241.022 21.064C241.022 20.84 241.096 20.6533 241.246 20.504C241.395 20.3547 241.576 20.28 241.79 20.28C242.024 20.28 242.211 20.3547 242.35 20.504C242.499 20.6533 242.574 20.84 242.574 21.064C242.574 21.2773 242.499 21.464 242.35 21.624C242.211 21.7733 242.024 21.848 241.79 21.848ZM249.484 31L245.644 27.144L249.42 23.48H250.812L246.7 27.432L246.732 26.792L250.972 31H249.484ZM244.636 31V19.672H245.756V31H244.636ZM255.166 31.16C254.451 31.16 253.811 30.9893 253.246 30.648C252.68 30.296 252.232 29.8267 251.902 29.24C251.582 28.6533 251.422 27.992 251.422 27.256C251.422 26.5093 251.582 25.8427 251.902 25.256C252.232 24.6587 252.68 24.1893 253.246 23.848C253.811 23.496 254.446 23.32 255.15 23.32C255.726 23.32 256.238 23.4373 256.686 23.672C257.144 23.896 257.512 24.216 257.79 24.632C258.078 25.0373 258.254 25.512 258.318 26.056V28.408C258.254 28.952 258.078 29.432 257.79 29.848C257.512 30.264 257.144 30.5893 256.686 30.824C256.238 31.048 255.731 31.16 255.166 31.16ZM255.342 30.088C256.12 30.088 256.744 29.8267 257.214 29.304C257.694 28.7813 257.934 28.0933 257.934 27.24C257.934 26.6747 257.822 26.1787 257.598 25.752C257.384 25.3147 257.08 24.9787 256.686 24.744C256.302 24.4987 255.848 24.376 255.326 24.376C254.792 24.376 254.318 24.4987 253.902 24.744C253.496 24.9893 253.171 25.3307 252.926 25.768C252.691 26.1947 252.574 26.6853 252.574 27.24C252.574 27.7947 252.691 28.2853 252.926 28.712C253.171 29.1387 253.502 29.4747 253.918 29.72C254.334 29.9653 254.808 30.088 255.342 30.088ZM257.87 31V28.984L258.094 27.128L257.87 25.32V23.48H258.99V31H257.87ZM261.261 31V19.672H262.381V31H261.261ZM264.652 27.48V26.408H269.756V27.48H264.652ZM274.07 31.032L270.774 23.48H272.006L274.662 29.784H274.198L276.998 23.48H278.246L274.71 31.032H274.07ZM272.022 34.168L274.086 29.896L274.71 31.032L273.254 34.168H272.022ZM282.509 31.16C281.795 31.16 281.155 30.9893 280.589 30.648C280.024 30.296 279.576 29.8267 279.245 29.24C278.925 28.6533 278.765 27.992 278.765 27.256C278.765 26.5093 278.925 25.8427 279.245 25.256C279.576 24.6587 280.024 24.1893 280.589 23.848C281.155 23.496 281.789 23.32 282.493 23.32C283.069 23.32 283.581 23.4373 284.029 23.672C284.488 23.896 284.856 24.216 285.133 24.632C285.421 25.0373 285.597 25.512 285.661 26.056V28.408C285.597 28.952 285.421 29.432 285.133 29.848C284.856 30.264 284.488 30.5893 284.029 30.824C283.581 31.048 283.075 31.16 282.509 31.16ZM282.685 30.088C283.464 30.088 284.088 29.8267 284.557 29.304C285.037 28.7813 285.277 28.0933 285.277 27.24C285.277 26.6747 285.165 26.1787 284.941 25.752C284.728 25.3147 284.424 24.9787 284.029 24.744C283.645 24.4987 283.192 24.376 282.669 24.376C282.136 24.376 281.661 24.4987 281.245 24.744C280.84 24.9893 280.515 25.3307 280.269 25.768C280.035 26.1947 279.917 26.6853 279.917 27.24C279.917 27.7947 280.035 28.2853 280.269 28.712C280.515 29.1387 280.845 29.4747 281.261 29.72C281.677 29.9653 282.152 30.088 282.685 30.088ZM285.213 31V28.984L285.437 27.128L285.213 25.32V23.48H286.333V31H285.213ZM288.605 31V23.48H289.725V31H288.605ZM293.773 31V26.392C293.773 25.7733 293.586 25.2827 293.213 24.92C292.839 24.5467 292.37 24.36 291.805 24.36C291.421 24.36 291.069 24.4453 290.749 24.616C290.439 24.776 290.189 25.0053 289.997 25.304C289.815 25.6027 289.725 25.96 289.725 26.376L289.213 26.168C289.213 25.592 289.341 25.0907 289.597 24.664C289.853 24.2373 290.194 23.9067 290.621 23.672C291.058 23.4373 291.549 23.32 292.093 23.32C292.626 23.32 293.101 23.4373 293.517 23.672C293.943 23.9067 294.279 24.2373 294.525 24.664C294.781 25.0907 294.909 25.5973 294.909 26.184V31H293.773ZM298.957 31V26.392C298.957 25.7733 298.77 25.2827 298.397 24.92C298.023 24.5467 297.549 24.36 296.973 24.36C296.599 24.36 296.253 24.4453 295.933 24.616C295.623 24.776 295.373 25.0053 295.181 25.304C294.999 25.6027 294.909 25.96 294.909 26.376L294.237 26.168C294.269 25.592 294.418 25.0907 294.685 24.664C294.962 24.2373 295.319 23.9067 295.757 23.672C296.205 23.4373 296.695 23.32 297.229 23.32C297.762 23.32 298.242 23.4373 298.669 23.672C299.106 23.9067 299.447 24.2373 299.693 24.664C299.949 25.0907 300.077 25.5973 300.077 26.184V31H298.957ZM305.447 31.16C304.732 31.16 304.092 30.9893 303.527 30.648C302.962 30.296 302.514 29.8267 302.183 29.24C301.863 28.6533 301.703 27.992 301.703 27.256C301.703 26.5093 301.863 25.8427 302.183 25.256C302.514 24.6587 302.962 24.1893 303.527 23.848C304.092 23.496 304.727 23.32 305.431 23.32C306.007 23.32 306.519 23.4373 306.967 23.672C307.426 23.896 307.794 24.216 308.071 24.632C308.359 25.0373 308.535 25.512 308.599 26.056V28.408C308.535 28.952 308.359 29.432 308.071 29.848C307.794 30.264 307.426 30.5893 306.967 30.824C306.519 31.048 306.012 31.16 305.447 31.16ZM305.623 30.088C306.402 30.088 307.026 29.8267 307.495 29.304C307.975 28.7813 308.215 28.0933 308.215 27.24C308.215 26.6747 308.103 26.1787 307.879 25.752C307.666 25.3147 307.362 24.9787 306.967 24.744C306.583 24.4987 306.13 24.376 305.607 24.376C305.074 24.376 304.599 24.4987 304.183 24.744C303.778 24.9893 303.452 25.3307 303.207 25.768C302.972 26.1947 302.855 26.6853 302.855 27.24C302.855 27.7947 302.972 28.2853 303.207 28.712C303.452 29.1387 303.783 29.4747 304.199 29.72C304.615 29.9653 305.09 30.088 305.623 30.088ZM308.151 31V28.984L308.375 27.128L308.151 25.32V23.48H309.271V31H308.151ZM314.518 31.16C313.91 31.16 313.366 31.0213 312.886 30.744C312.406 30.456 312.028 30.0667 311.75 29.576C311.484 29.0853 311.35 28.5093 311.35 27.848V23.48H312.486V27.8C312.486 28.2587 312.566 28.6587 312.726 29C312.897 29.3413 313.137 29.608 313.446 29.8C313.756 29.992 314.113 30.088 314.518 30.088C315.148 30.088 315.644 29.88 316.006 29.464C316.38 29.048 316.566 28.4933 316.566 27.8V23.48H317.686V27.848C317.686 28.4987 317.553 29.0747 317.286 29.576C317.02 30.0773 316.646 30.4667 316.166 30.744C315.686 31.0213 315.137 31.16 314.518 31.16ZM323.201 31.16C322.465 31.16 321.798 30.9893 321.201 30.648C320.614 30.296 320.145 29.8213 319.793 29.224C319.451 28.6267 319.281 27.96 319.281 27.224C319.281 26.488 319.451 25.8267 319.793 25.24C320.145 24.6427 320.614 24.1733 321.201 23.832C321.798 23.4907 322.465 23.32 323.201 23.32C323.766 23.32 324.294 23.4267 324.785 23.64C325.275 23.8533 325.691 24.152 326.033 24.536L325.297 25.288C325.041 25 324.731 24.7813 324.369 24.632C324.006 24.472 323.617 24.392 323.201 24.392C322.667 24.392 322.193 24.5147 321.777 24.76C321.361 25.0053 321.035 25.3413 320.801 25.768C320.566 26.184 320.449 26.6693 320.449 27.224C320.449 27.768 320.566 28.2587 320.801 28.696C321.035 29.1227 321.361 29.4587 321.777 29.704C322.193 29.9493 322.667 30.072 323.201 30.072C323.627 30.072 324.022 29.9973 324.385 29.848C324.747 29.688 325.057 29.464 325.313 29.176L326.065 29.928C325.713 30.3227 325.286 30.6267 324.785 30.84C324.294 31.0533 323.766 31.16 323.201 31.16ZM333.108 31V26.584C333.108 25.9227 332.911 25.3893 332.516 24.984C332.132 24.568 331.62 24.36 330.98 24.36C330.543 24.36 330.159 24.456 329.828 24.648C329.497 24.84 329.236 25.1013 329.044 25.432C328.852 25.7627 328.756 26.1413 328.756 26.568L328.244 26.28C328.244 25.7147 328.377 25.208 328.644 24.76C328.911 24.312 329.268 23.96 329.716 23.704C330.175 23.448 330.697 23.32 331.284 23.32C331.86 23.32 332.372 23.4533 332.82 23.72C333.268 23.976 333.615 24.3333 333.86 24.792C334.116 25.2507 334.244 25.784 334.244 26.392V31H333.108ZM327.636 31V19.672H328.756V31H327.636ZM336.339 31V23.48H337.475V31H336.339ZM336.899 21.848C336.686 21.848 336.504 21.7733 336.355 21.624C336.206 21.464 336.131 21.2773 336.131 21.064C336.131 20.84 336.206 20.6533 336.355 20.504C336.504 20.3547 336.686 20.28 336.899 20.28C337.134 20.28 337.32 20.3547 337.459 20.504C337.608 20.6533 337.683 20.84 337.683 21.064C337.683 21.2773 337.608 21.464 337.459 21.624C337.32 21.7733 337.134 21.848 336.899 21.848ZM338.929 31.64L343.313 19.4H344.369L339.985 31.64H338.929Z" fill="#929292"/>
    <path d="M22.608 58V53.584C22.608 52.9227 22.4107 52.3893 22.016 51.984C21.632 51.568 21.12 51.36 20.48 51.36C20.0427 51.36 19.6587 51.456 19.328 51.648C18.9973 51.84 18.736 52.1013 18.544 52.432C18.352 52.7627 18.256 53.1413 18.256 53.568L17.744 53.28C17.744 52.7147 17.8773 52.208 18.144 51.76C18.4107 51.312 18.768 50.96 19.216 50.704C19.6747 50.448 20.1973 50.32 20.784 50.32C21.36 50.32 21.872 50.4533 22.32 50.72C22.768 50.976 23.1147 51.3333 23.36 51.792C23.616 52.2507 23.744 52.784 23.744 53.392V58H22.608ZM17.136 58V46.672H18.256V58H17.136ZM27.0071 58V47.312H28.1431V58H27.0071ZM25.1031 51.488V50.48H34.4471V51.488H25.1031ZM31.4231 58V47.312H32.5591V58H31.4231ZM39.8678 58.16C39.2918 58.16 38.7744 58.0427 38.3158 57.808C37.8571 57.5733 37.4784 57.2533 37.1798 56.848C36.8918 56.432 36.7158 55.952 36.6518 55.408V53.056C36.7158 52.5013 36.8971 52.0213 37.1957 51.616C37.4944 51.2 37.8731 50.88 38.3318 50.656C38.8011 50.432 39.3131 50.32 39.8678 50.32C40.5611 50.32 41.1851 50.496 41.7398 50.848C42.2944 51.1893 42.7318 51.6587 43.0518 52.256C43.3824 52.8427 43.5478 53.5093 43.5478 54.256C43.5478 54.992 43.3878 55.6533 43.0677 56.24C42.7478 56.8267 42.3051 57.296 41.7398 57.648C41.1851 57.9893 40.5611 58.16 39.8678 58.16ZM39.6758 57.088C40.2091 57.088 40.6784 56.9707 41.0838 56.736C41.4891 56.4907 41.8038 56.1547 42.0278 55.728C42.2624 55.2907 42.3798 54.7947 42.3798 54.24C42.3798 53.6747 42.2624 53.1787 42.0278 52.752C41.8038 52.3253 41.4891 51.9893 41.0838 51.744C40.6784 51.4987 40.2144 51.376 39.6918 51.376C39.1691 51.376 38.7051 51.4987 38.2998 51.744C37.9051 51.9893 37.5958 52.3253 37.3718 52.752C37.1478 53.1787 37.0358 53.6747 37.0358 54.24C37.0358 54.7947 37.1478 55.2907 37.3718 55.728C37.5958 56.1547 37.9051 56.4907 38.2998 56.736C38.6944 56.9707 39.1531 57.088 39.6758 57.088ZM35.9798 61.168V50.48H37.0998V52.4L36.8758 54.224L37.0998 56.064V61.168H35.9798ZM47.6431 58.16C47.2378 58.16 46.8485 58.1067 46.4751 58C46.1018 57.8827 45.7605 57.7227 45.4511 57.52C45.1525 57.3173 44.8911 57.0773 44.6671 56.8L45.3871 56.064C45.6858 56.4267 46.0218 56.6987 46.3951 56.88C46.7791 57.0507 47.2058 57.136 47.6751 57.136C48.1765 57.136 48.5658 57.04 48.8431 56.848C49.1311 56.656 49.2751 56.3893 49.2751 56.048C49.2751 55.728 49.1738 55.4773 48.9711 55.296C48.7685 55.1147 48.5071 54.9707 48.1871 54.864C47.8778 54.7573 47.5471 54.656 47.1951 54.56C46.8431 54.4533 46.5071 54.3253 46.1871 54.176C45.8671 54.016 45.6058 53.7973 45.4031 53.52C45.2111 53.2427 45.1151 52.88 45.1151 52.432C45.1151 52.0053 45.2165 51.6373 45.4191 51.328C45.6325 51.008 45.9311 50.7627 46.3151 50.592C46.7098 50.4107 47.1738 50.32 47.7071 50.32C48.2725 50.32 48.7845 50.4213 49.2431 50.624C49.7018 50.8267 50.0698 51.1253 50.3471 51.52L49.6271 52.24C49.4031 51.952 49.1205 51.7333 48.7791 51.584C48.4485 51.424 48.0751 51.344 47.6591 51.344C47.1791 51.344 46.8111 51.44 46.5551 51.632C46.3098 51.8133 46.1871 52.0533 46.1871 52.352C46.1871 52.64 46.2885 52.8693 46.4911 53.04C46.6938 53.2 46.9498 53.3333 47.2591 53.44C47.5791 53.536 47.9151 53.6373 48.2671 53.744C48.6191 53.84 48.9551 53.9733 49.2751 54.144C49.5951 54.304 49.8511 54.528 50.0431 54.816C50.2458 55.0933 50.3471 55.472 50.3471 55.952C50.3471 56.624 50.1018 57.1627 49.6111 57.568C49.1311 57.9627 48.4751 58.16 47.6431 58.16ZM53.1444 58.16C52.8777 58.16 52.659 58.0693 52.4884 57.888C52.3284 57.7067 52.2484 57.4933 52.2484 57.248C52.2484 56.9813 52.3284 56.7627 52.4884 56.592C52.659 56.4107 52.8777 56.32 53.1444 56.32C53.4004 56.32 53.6137 56.4107 53.7844 56.592C53.9657 56.7627 54.0564 56.9813 54.0564 57.248C54.0564 57.4933 53.9657 57.7067 53.7844 57.888C53.6137 58.0693 53.4004 58.16 53.1444 58.16ZM53.1444 53.12C52.8777 53.12 52.659 53.0293 52.4884 52.848C52.3284 52.6667 52.2484 52.4533 52.2484 52.208C52.2484 51.9413 52.3284 51.7227 52.4884 51.552C52.659 51.3813 52.8777 51.296 53.1444 51.296C53.4004 51.296 53.6137 51.3813 53.7844 51.552C53.9657 51.7227 54.0564 51.9413 54.0564 52.208C54.0564 52.4533 53.9657 52.6667 53.7844 52.848C53.6137 53.0293 53.4004 53.12 53.1444 53.12ZM55.6169 58.64L60.0009 46.4H61.0569L56.6729 58.64H55.6169ZM61.695 58.64L66.079 46.4H67.135L62.751 58.64H61.695ZM70.2008 58L67.3048 50.48H68.4728L70.7608 56.72L70.3448 56.736L72.6168 50.48H73.2728L75.5448 56.736L75.1288 56.72L77.4008 50.48H78.5848L75.6728 58H75.0168L72.6968 51.84H73.1768L70.8728 58H70.2008ZM81.7789 58L78.8829 50.48H80.0509L82.3389 56.72L81.9229 56.736L84.1949 50.48H84.8509L87.1229 56.736L86.7069 56.72L88.9789 50.48H90.1629L87.2509 58H86.5949L84.2749 51.84H84.7549L82.4509 58H81.7789ZM93.357 58L90.461 50.48H91.629L93.917 56.72L93.501 56.736L95.773 50.48H96.429L98.701 56.736L98.285 56.72L100.557 50.48H101.741L98.829 58H98.173L95.853 51.84H96.333L94.029 58H93.357ZM103.82 58.16C103.553 58.16 103.335 58.0693 103.164 57.888C102.993 57.7067 102.908 57.488 102.908 57.232C102.908 56.976 102.993 56.7627 103.164 56.592C103.335 56.4107 103.553 56.32 103.82 56.32C104.076 56.32 104.289 56.4107 104.46 56.592C104.631 56.7627 104.716 56.976 104.716 57.232C104.716 57.488 104.631 57.7067 104.46 57.888C104.289 58.0693 104.076 58.16 103.82 58.16ZM107.261 58V46.672H108.381V58H107.261ZM110.652 58V50.48H111.788V58H110.652ZM111.212 48.848C110.998 48.848 110.817 48.7733 110.668 48.624C110.518 48.464 110.444 48.2773 110.444 48.064C110.444 47.84 110.518 47.6533 110.668 47.504C110.817 47.3547 110.998 47.28 111.212 47.28C111.446 47.28 111.633 47.3547 111.772 47.504C111.921 47.6533 111.996 47.84 111.996 48.064C111.996 48.2773 111.921 48.464 111.772 48.624C111.633 48.7733 111.446 48.848 111.212 48.848ZM119.53 58V53.584C119.53 52.9227 119.333 52.3893 118.938 51.984C118.554 51.568 118.042 51.36 117.402 51.36C116.965 51.36 116.581 51.456 116.25 51.648C115.919 51.84 115.658 52.1013 115.466 52.432C115.274 52.7627 115.178 53.1413 115.178 53.568L114.666 53.28C114.666 52.7147 114.799 52.208 115.066 51.76C115.333 51.312 115.69 50.96 116.138 50.704C116.597 50.448 117.119 50.32 117.706 50.32C118.282 50.32 118.794 50.4587 119.242 50.736C119.69 51.0133 120.037 51.3867 120.282 51.856C120.538 52.3253 120.666 52.8373 120.666 53.392V58H119.53ZM114.058 58V50.48H115.178V58H114.058ZM127.609 58L123.769 54.144L127.545 50.48H128.937L124.825 54.432L124.857 53.792L129.097 58H127.609ZM122.761 58V46.672H123.881V58H122.761ZM133.499 58.16C132.741 58.16 132.064 57.9893 131.467 57.648C130.869 57.3067 130.395 56.8373 130.043 56.24C129.701 55.6427 129.531 54.9707 129.531 54.224C129.531 53.488 129.701 52.8267 130.043 52.24C130.384 51.6427 130.848 51.1733 131.435 50.832C132.021 50.4907 132.677 50.32 133.403 50.32C134.085 50.32 134.688 50.4747 135.211 50.784C135.744 51.0933 136.16 51.5253 136.459 52.08C136.768 52.624 136.923 53.2533 136.923 53.968C136.923 54.0533 136.917 54.1547 136.907 54.272C136.896 54.3787 136.875 54.5067 136.843 54.656H130.331V53.696H136.235L135.835 54.048C135.845 53.4933 135.749 53.0187 135.547 52.624C135.355 52.2187 135.072 51.9093 134.699 51.696C134.336 51.472 133.893 51.36 133.371 51.36C132.827 51.36 132.352 51.4773 131.947 51.712C131.541 51.9467 131.221 52.2773 130.987 52.704C130.763 53.12 130.651 53.616 130.651 54.192C130.651 54.768 130.768 55.2747 131.003 55.712C131.248 56.1493 131.584 56.4907 132.011 56.736C132.448 56.9813 132.949 57.104 133.515 57.104C133.973 57.104 134.395 57.024 134.779 56.864C135.163 56.6933 135.488 56.4427 135.755 56.112L136.475 56.848C136.123 57.264 135.685 57.5893 135.163 57.824C134.651 58.048 134.096 58.16 133.499 58.16ZM141.836 58.16C141.143 58.16 140.519 57.9893 139.964 57.648C139.409 57.3067 138.967 56.8427 138.636 56.256C138.316 55.6587 138.156 54.992 138.156 54.256C138.156 53.5093 138.316 52.8427 138.636 52.256C138.967 51.6587 139.409 51.1893 139.964 50.848C140.519 50.496 141.143 50.32 141.836 50.32C142.401 50.32 142.913 50.432 143.372 50.656C143.831 50.88 144.209 51.2 144.508 51.616C144.817 52.0213 144.999 52.5013 145.052 53.056V55.408C144.988 55.952 144.807 56.432 144.508 56.848C144.22 57.2533 143.847 57.5733 143.388 57.808C142.929 58.0427 142.412 58.16 141.836 58.16ZM142.028 57.088C142.551 57.088 143.009 56.9707 143.404 56.736C143.799 56.4907 144.108 56.1547 144.332 55.728C144.556 55.2907 144.668 54.7947 144.668 54.24C144.668 53.6747 144.551 53.1787 144.316 52.752C144.092 52.3253 143.783 51.9893 143.388 51.744C142.993 51.4987 142.535 51.376 142.012 51.376C141.489 51.376 141.025 51.4987 140.62 51.744C140.215 51.9893 139.895 52.3307 139.66 52.768C139.436 53.1947 139.324 53.6853 139.324 54.24C139.324 54.7947 139.436 55.2907 139.66 55.728C139.895 56.1547 140.215 56.4907 140.62 56.736C141.036 56.9707 141.505 57.088 142.028 57.088ZM145.724 58H144.604V55.984L144.828 54.128L144.604 52.32V46.672H145.724V58ZM147.995 58V50.48H149.131V58H147.995ZM148.555 48.848C148.342 48.848 148.161 48.7733 148.011 48.624C147.862 48.464 147.787 48.2773 147.787 48.064C147.787 47.84 147.862 47.6533 148.011 47.504C148.161 47.3547 148.342 47.28 148.555 47.28C148.79 47.28 148.977 47.3547 149.115 47.504C149.265 47.6533 149.339 47.84 149.339 48.064C149.339 48.2773 149.265 48.464 149.115 48.624C148.977 48.7733 148.79 48.848 148.555 48.848ZM156.874 58V53.584C156.874 52.9227 156.676 52.3893 156.282 51.984C155.898 51.568 155.386 51.36 154.746 51.36C154.308 51.36 153.924 51.456 153.594 51.648C153.263 51.84 153.002 52.1013 152.81 52.432C152.618 52.7627 152.522 53.1413 152.522 53.568L152.01 53.28C152.01 52.7147 152.143 52.208 152.41 51.76C152.676 51.312 153.034 50.96 153.482 50.704C153.94 50.448 154.463 50.32 155.05 50.32C155.626 50.32 156.138 50.4587 156.586 50.736C157.034 51.0133 157.38 51.3867 157.626 51.856C157.882 52.3253 158.01 52.8373 158.01 53.392V58H156.874ZM151.402 58V50.48H152.522V58H151.402ZM161.289 58.16C161.022 58.16 160.803 58.0693 160.633 57.888C160.462 57.7067 160.377 57.488 160.377 57.232C160.377 56.976 160.462 56.7627 160.633 56.592C160.803 56.4107 161.022 56.32 161.289 56.32C161.545 56.32 161.758 56.4107 161.929 56.592C162.099 56.7627 162.185 56.976 162.185 57.232C162.185 57.488 162.099 57.7067 161.929 57.888C161.758 58.0693 161.545 58.16 161.289 58.16ZM167.794 58.16C167.058 58.16 166.392 57.9893 165.794 57.648C165.208 57.296 164.738 56.8213 164.386 56.224C164.045 55.6267 163.874 54.96 163.874 54.224C163.874 53.488 164.045 52.8267 164.386 52.24C164.738 51.6427 165.208 51.1733 165.794 50.832C166.392 50.4907 167.058 50.32 167.794 50.32C168.36 50.32 168.888 50.4267 169.378 50.64C169.869 50.8533 170.285 51.152 170.626 51.536L169.89 52.288C169.634 52 169.325 51.7813 168.962 51.632C168.6 51.472 168.21 51.392 167.794 51.392C167.261 51.392 166.786 51.5147 166.37 51.76C165.954 52.0053 165.629 52.3413 165.394 52.768C165.16 53.184 165.042 53.6693 165.042 54.224C165.042 54.768 165.16 55.2587 165.394 55.696C165.629 56.1227 165.954 56.4587 166.37 56.704C166.786 56.9493 167.261 57.072 167.794 57.072C168.221 57.072 168.616 56.9973 168.978 56.848C169.341 56.688 169.65 56.464 169.906 56.176L170.658 56.928C170.306 57.3227 169.88 57.6267 169.378 57.84C168.888 58.0533 168.36 58.16 167.794 58.16ZM175.497 58.16C174.772 58.16 174.11 57.984 173.513 57.632C172.926 57.28 172.457 56.8053 172.105 56.208C171.764 55.6107 171.593 54.944 171.593 54.208C171.593 53.4827 171.764 52.8267 172.105 52.24C172.457 51.6533 172.926 51.1893 173.513 50.848C174.11 50.496 174.772 50.32 175.497 50.32C176.233 50.32 176.894 50.4907 177.481 50.832C178.068 51.1733 178.532 51.6427 178.873 52.24C179.225 52.8267 179.401 53.4827 179.401 54.208C179.401 54.9547 179.225 55.6267 178.873 56.224C178.532 56.8107 178.068 57.28 177.481 57.632C176.894 57.984 176.233 58.16 175.497 58.16ZM175.497 57.072C176.03 57.072 176.5 56.9493 176.905 56.704C177.321 56.4587 177.646 56.1173 177.881 55.68C178.126 55.2427 178.249 54.752 178.249 54.208C178.249 53.664 178.126 53.184 177.881 52.768C177.646 52.3413 177.321 52.0053 176.905 51.76C176.5 51.5147 176.03 51.392 175.497 51.392C174.974 51.392 174.505 51.5147 174.089 51.76C173.673 52.0053 173.348 52.3413 173.113 52.768C172.878 53.184 172.761 53.664 172.761 54.208C172.761 54.7627 172.878 55.2587 173.113 55.696C173.348 56.1227 173.673 56.4587 174.089 56.704C174.505 56.9493 174.974 57.072 175.497 57.072ZM181.183 58V50.48H182.303V58H181.183ZM186.351 58V53.392C186.351 52.7733 186.164 52.2827 185.791 51.92C185.418 51.5467 184.948 51.36 184.383 51.36C183.999 51.36 183.647 51.4453 183.327 51.616C183.018 51.776 182.767 52.0053 182.575 52.304C182.394 52.6027 182.303 52.96 182.303 53.376L181.791 53.168C181.791 52.592 181.919 52.0907 182.175 51.664C182.431 51.2373 182.772 50.9067 183.199 50.672C183.636 50.4373 184.127 50.32 184.671 50.32C185.204 50.32 185.679 50.4373 186.095 50.672C186.522 50.9067 186.858 51.2373 187.103 51.664C187.359 52.0907 187.487 52.5973 187.487 53.184V58H186.351ZM191.535 58V53.392C191.535 52.7733 191.348 52.2827 190.975 51.92C190.602 51.5467 190.127 51.36 189.551 51.36C189.178 51.36 188.831 51.4453 188.511 51.616C188.202 51.776 187.951 52.0053 187.759 52.304C187.578 52.6027 187.487 52.96 187.487 53.376L186.815 53.168C186.847 52.592 186.996 52.0907 187.263 51.664C187.54 51.2373 187.898 50.9067 188.335 50.672C188.783 50.4373 189.274 50.32 189.807 50.32C190.34 50.32 190.82 50.4373 191.247 50.672C191.684 50.9067 192.026 51.2373 192.271 51.664C192.527 52.0907 192.655 52.5973 192.655 53.184V58H191.535ZM193.945 58.64L198.329 46.4H199.385L195.001 58.64H193.945ZM200.839 58V50.48H201.975V58H200.839ZM201.399 48.848C201.186 48.848 201.004 48.7733 200.855 48.624C200.706 48.464 200.631 48.2773 200.631 48.064C200.631 47.84 200.706 47.6533 200.855 47.504C201.004 47.3547 201.186 47.28 201.399 47.28C201.634 47.28 201.82 47.3547 201.959 47.504C202.108 47.6533 202.183 47.84 202.183 48.064C202.183 48.2773 202.108 48.464 201.959 48.624C201.82 48.7733 201.634 48.848 201.399 48.848ZM209.717 58V53.584C209.717 52.9227 209.52 52.3893 209.125 51.984C208.741 51.568 208.229 51.36 207.589 51.36C207.152 51.36 206.768 51.456 206.437 51.648C206.107 51.84 205.845 52.1013 205.653 52.432C205.461 52.7627 205.365 53.1413 205.365 53.568L204.853 53.28C204.853 52.7147 204.987 52.208 205.253 51.76C205.52 51.312 205.877 50.96 206.325 50.704C206.784 50.448 207.307 50.32 207.893 50.32C208.469 50.32 208.981 50.4587 209.429 50.736C209.877 51.0133 210.224 51.3867 210.469 51.856C210.725 52.3253 210.853 52.8373 210.853 53.392V58H209.717ZM204.245 58V50.48H205.365V58H204.245ZM212.133 58.64L216.516 46.4H217.573L213.189 58.64H212.133ZM218.292 58V50.48H219.412V58H218.292ZM223.46 58V53.392C223.46 52.7733 223.274 52.2827 222.9 51.92C222.527 51.5467 222.058 51.36 221.492 51.36C221.108 51.36 220.756 51.4453 220.436 51.616C220.127 51.776 219.876 52.0053 219.684 52.304C219.503 52.6027 219.412 52.96 219.412 53.376L218.9 53.168C218.9 52.592 219.028 52.0907 219.284 51.664C219.54 51.2373 219.882 50.9067 220.308 50.672C220.746 50.4373 221.236 50.32 221.78 50.32C222.314 50.32 222.788 50.4373 223.204 50.672C223.631 50.9067 223.967 51.2373 224.212 51.664C224.468 52.0907 224.596 52.5973 224.596 53.184V58H223.46ZM228.644 58V53.392C228.644 52.7733 228.458 52.2827 228.084 51.92C227.711 51.5467 227.236 51.36 226.66 51.36C226.287 51.36 225.94 51.4453 225.62 51.616C225.311 51.776 225.06 52.0053 224.868 52.304C224.687 52.6027 224.596 52.96 224.596 53.376L223.924 53.168C223.956 52.592 224.106 52.0907 224.372 51.664C224.65 51.2373 225.007 50.9067 225.444 50.672C225.892 50.4373 226.383 50.32 226.916 50.32C227.45 50.32 227.93 50.4373 228.356 50.672C228.794 50.9067 229.135 51.2373 229.38 51.664C229.636 52.0907 229.764 52.5973 229.764 53.184V58H228.644ZM235.134 58.16C234.42 58.16 233.78 57.9893 233.214 57.648C232.649 57.296 232.201 56.8267 231.87 56.24C231.55 55.6533 231.39 54.992 231.39 54.256C231.39 53.5093 231.55 52.8427 231.87 52.256C232.201 51.6587 232.649 51.1893 233.214 50.848C233.78 50.496 234.414 50.32 235.118 50.32C235.694 50.32 236.206 50.4373 236.654 50.672C237.113 50.896 237.481 51.216 237.758 51.632C238.046 52.0373 238.222 52.512 238.286 53.056V55.408C238.222 55.952 238.046 56.432 237.758 56.848C237.481 57.264 237.113 57.5893 236.654 57.824C236.206 58.048 235.7 58.16 235.134 58.16ZM235.31 57.088C236.089 57.088 236.713 56.8267 237.182 56.304C237.662 55.7813 237.902 55.0933 237.902 54.24C237.902 53.6747 237.79 53.1787 237.566 52.752C237.353 52.3147 237.049 51.9787 236.654 51.744C236.27 51.4987 235.817 51.376 235.294 51.376C234.761 51.376 234.286 51.4987 233.87 51.744C233.465 51.9893 233.14 52.3307 232.894 52.768C232.66 53.1947 232.542 53.6853 232.542 54.24C232.542 54.7947 232.66 55.2853 232.894 55.712C233.14 56.1387 233.47 56.4747 233.886 56.72C234.302 56.9653 234.777 57.088 235.31 57.088ZM237.838 58V55.984L238.062 54.128L237.838 52.32V50.48H238.958V58H237.838ZM241.23 58V50.48H242.366V58H241.23ZM241.79 48.848C241.576 48.848 241.395 48.7733 241.246 48.624C241.096 48.464 241.022 48.2773 241.022 48.064C241.022 47.84 241.096 47.6533 241.246 47.504C241.395 47.3547 241.576 47.28 241.79 47.28C242.024 47.28 242.211 47.3547 242.35 47.504C242.499 47.6533 242.574 47.84 242.574 48.064C242.574 48.2773 242.499 48.464 242.35 48.624C242.211 48.7733 242.024 48.848 241.79 48.848ZM249.484 58L245.644 54.144L249.42 50.48H250.812L246.7 54.432L246.732 53.792L250.972 58H249.484ZM244.636 58V46.672H245.756V58H244.636ZM255.166 58.16C254.451 58.16 253.811 57.9893 253.246 57.648C252.68 57.296 252.232 56.8267 251.902 56.24C251.582 55.6533 251.422 54.992 251.422 54.256C251.422 53.5093 251.582 52.8427 251.902 52.256C252.232 51.6587 252.68 51.1893 253.246 50.848C253.811 50.496 254.446 50.32 255.15 50.32C255.726 50.32 256.238 50.4373 256.686 50.672C257.144 50.896 257.512 51.216 257.79 51.632C258.078 52.0373 258.254 52.512 258.318 53.056V55.408C258.254 55.952 258.078 56.432 257.79 56.848C257.512 57.264 257.144 57.5893 256.686 57.824C256.238 58.048 255.731 58.16 255.166 58.16ZM255.342 57.088C256.12 57.088 256.744 56.8267 257.214 56.304C257.694 55.7813 257.934 55.0933 257.934 54.24C257.934 53.6747 257.822 53.1787 257.598 52.752C257.384 52.3147 257.08 51.9787 256.686 51.744C256.302 51.4987 255.848 51.376 255.326 51.376C254.792 51.376 254.318 51.4987 253.902 51.744C253.496 51.9893 253.171 52.3307 252.926 52.768C252.691 53.1947 252.574 53.6853 252.574 54.24C252.574 54.7947 252.691 55.2853 252.926 55.712C253.171 56.1387 253.502 56.4747 253.918 56.72C254.334 56.9653 254.808 57.088 255.342 57.088ZM257.87 58V55.984L258.094 54.128L257.87 52.32V50.48H258.99V58H257.87ZM261.261 58V46.672H262.381V58H261.261ZM264.652 54.48V53.408H269.756V54.48H264.652ZM274.07 58.032L270.774 50.48H272.006L274.662 56.784H274.198L276.998 50.48H278.246L274.71 58.032H274.07ZM272.022 61.168L274.086 56.896L274.71 58.032L273.254 61.168H272.022ZM282.509 58.16C281.795 58.16 281.155 57.9893 280.589 57.648C280.024 57.296 279.576 56.8267 279.245 56.24C278.925 55.6533 278.765 54.992 278.765 54.256C278.765 53.5093 278.925 52.8427 279.245 52.256C279.576 51.6587 280.024 51.1893 280.589 50.848C281.155 50.496 281.789 50.32 282.493 50.32C283.069 50.32 283.581 50.4373 284.029 50.672C284.488 50.896 284.856 51.216 285.133 51.632C285.421 52.0373 285.597 52.512 285.661 53.056V55.408C285.597 55.952 285.421 56.432 285.133 56.848C284.856 57.264 284.488 57.5893 284.029 57.824C283.581 58.048 283.075 58.16 282.509 58.16ZM282.685 57.088C283.464 57.088 284.088 56.8267 284.557 56.304C285.037 55.7813 285.277 55.0933 285.277 54.24C285.277 53.6747 285.165 53.1787 284.941 52.752C284.728 52.3147 284.424 51.9787 284.029 51.744C283.645 51.4987 283.192 51.376 282.669 51.376C282.136 51.376 281.661 51.4987 281.245 51.744C280.84 51.9893 280.515 52.3307 280.269 52.768C280.035 53.1947 279.917 53.6853 279.917 54.24C279.917 54.7947 280.035 55.2853 280.269 55.712C280.515 56.1387 280.845 56.4747 281.261 56.72C281.677 56.9653 282.152 57.088 282.685 57.088ZM285.213 58V55.984L285.437 54.128L285.213 52.32V50.48H286.333V58H285.213ZM288.605 58V50.48H289.725V58H288.605ZM293.773 58V53.392C293.773 52.7733 293.586 52.2827 293.213 51.92C292.839 51.5467 292.37 51.36 291.805 51.36C291.421 51.36 291.069 51.4453 290.749 51.616C290.439 51.776 290.189 52.0053 289.997 52.304C289.815 52.6027 289.725 52.96 289.725 53.376L289.213 53.168C289.213 52.592 289.341 52.0907 289.597 51.664C289.853 51.2373 290.194 50.9067 290.621 50.672C291.058 50.4373 291.549 50.32 292.093 50.32C292.626 50.32 293.101 50.4373 293.517 50.672C293.943 50.9067 294.279 51.2373 294.525 51.664C294.781 52.0907 294.909 52.5973 294.909 53.184V58H293.773ZM298.957 58V53.392C298.957 52.7733 298.77 52.2827 298.397 51.92C298.023 51.5467 297.549 51.36 296.973 51.36C296.599 51.36 296.253 51.4453 295.933 51.616C295.623 51.776 295.373 52.0053 295.181 52.304C294.999 52.6027 294.909 52.96 294.909 53.376L294.237 53.168C294.269 52.592 294.418 52.0907 294.685 51.664C294.962 51.2373 295.319 50.9067 295.757 50.672C296.205 50.4373 296.695 50.32 297.229 50.32C297.762 50.32 298.242 50.4373 298.669 50.672C299.106 50.9067 299.447 51.2373 299.693 51.664C299.949 52.0907 300.077 52.5973 300.077 53.184V58H298.957ZM305.447 58.16C304.732 58.16 304.092 57.9893 303.527 57.648C302.962 57.296 302.514 56.8267 302.183 56.24C301.863 55.6533 301.703 54.992 301.703 54.256C301.703 53.5093 301.863 52.8427 302.183 52.256C302.514 51.6587 302.962 51.1893 303.527 50.848C304.092 50.496 304.727 50.32 305.431 50.32C306.007 50.32 306.519 50.4373 306.967 50.672C307.426 50.896 307.794 51.216 308.071 51.632C308.359 52.0373 308.535 52.512 308.599 53.056V55.408C308.535 55.952 308.359 56.432 308.071 56.848C307.794 57.264 307.426 57.5893 306.967 57.824C306.519 58.048 306.012 58.16 305.447 58.16ZM305.623 57.088C306.402 57.088 307.026 56.8267 307.495 56.304C307.975 55.7813 308.215 55.0933 308.215 54.24C308.215 53.6747 308.103 53.1787 307.879 52.752C307.666 52.3147 307.362 51.9787 306.967 51.744C306.583 51.4987 306.13 51.376 305.607 51.376C305.074 51.376 304.599 51.4987 304.183 51.744C303.778 51.9893 303.452 52.3307 303.207 52.768C302.972 53.1947 302.855 53.6853 302.855 54.24C302.855 54.7947 302.972 55.2853 303.207 55.712C303.452 56.1387 303.783 56.4747 304.199 56.72C304.615 56.9653 305.09 57.088 305.623 57.088ZM308.151 58V55.984L308.375 54.128L308.151 52.32V50.48H309.271V58H308.151ZM314.518 58.16C313.91 58.16 313.366 58.0213 312.886 57.744C312.406 57.456 312.028 57.0667 311.75 56.576C311.484 56.0853 311.35 55.5093 311.35 54.848V50.48H312.486V54.8C312.486 55.2587 312.566 55.6587 312.726 56C312.897 56.3413 313.137 56.608 313.446 56.8C313.756 56.992 314.113 57.088 314.518 57.088C315.148 57.088 315.644 56.88 316.006 56.464C316.38 56.048 316.566 55.4933 316.566 54.8V50.48H317.686V54.848C317.686 55.4987 317.553 56.0747 317.286 56.576C317.02 57.0773 316.646 57.4667 316.166 57.744C315.686 58.0213 315.137 58.16 314.518 58.16ZM323.201 58.16C322.465 58.16 321.798 57.9893 321.201 57.648C320.614 57.296 320.145 56.8213 319.793 56.224C319.451 55.6267 319.281 54.96 319.281 54.224C319.281 53.488 319.451 52.8267 319.793 52.24C320.145 51.6427 320.614 51.1733 321.201 50.832C321.798 50.4907 322.465 50.32 323.201 50.32C323.766 50.32 324.294 50.4267 324.785 50.64C325.275 50.8533 325.691 51.152 326.033 51.536L325.297 52.288C325.041 52 324.731 51.7813 324.369 51.632C324.006 51.472 323.617 51.392 323.201 51.392C322.667 51.392 322.193 51.5147 321.777 51.76C321.361 52.0053 321.035 52.3413 320.801 52.768C320.566 53.184 320.449 53.6693 320.449 54.224C320.449 54.768 320.566 55.2587 320.801 55.696C321.035 56.1227 321.361 56.4587 321.777 56.704C322.193 56.9493 322.667 57.072 323.201 57.072C323.627 57.072 324.022 56.9973 324.385 56.848C324.747 56.688 325.057 56.464 325.313 56.176L326.065 56.928C325.713 57.3227 325.286 57.6267 324.785 57.84C324.294 58.0533 323.766 58.16 323.201 58.16ZM333.108 58V53.584C333.108 52.9227 332.911 52.3893 332.516 51.984C332.132 51.568 331.62 51.36 330.98 51.36C330.543 51.36 330.159 51.456 329.828 51.648C329.497 51.84 329.236 52.1013 329.044 52.432C328.852 52.7627 328.756 53.1413 328.756 53.568L328.244 53.28C328.244 52.7147 328.377 52.208 328.644 51.76C328.911 51.312 329.268 50.96 329.716 50.704C330.175 50.448 330.697 50.32 331.284 50.32C331.86 50.32 332.372 50.4533 332.82 50.72C333.268 50.976 333.615 51.3333 333.86 51.792C334.116 52.2507 334.244 52.784 334.244 53.392V58H333.108ZM327.636 58V46.672H328.756V58H327.636ZM336.339 58V50.48H337.475V58H336.339ZM336.899 48.848C336.686 48.848 336.504 48.7733 336.355 48.624C336.206 48.464 336.131 48.2773 336.131 48.064C336.131 47.84 336.206 47.6533 336.355 47.504C336.504 47.3547 336.686 47.28 336.899 47.28C337.134 47.28 337.32 47.3547 337.459 47.504C337.608 47.6533 337.683 47.84 337.683 48.064C337.683 48.2773 337.608 48.464 337.459 48.624C337.32 48.7733 337.134 48.848 336.899 48.848ZM338.929 58.64L343.313 46.4H344.369L339.985 58.64H338.929Z" fill="#929292"/>
    <path d="M3.276 154.988L3.122 152.762L1.218 153.938L0.784 153.112L2.884 152.286L1.162 150.858L1.82 150.2L3.276 151.894L4.116 149.836L4.956 150.256L3.752 152.146L6.02 152.286L5.88 153.21L3.668 152.678L4.214 154.848L3.276 154.988ZM8.06794 160V150.368H8.79594L9.08994 151.586V160H8.06794ZM14.7319 160L8.64194 151.74L8.79594 150.368L14.8719 158.628L14.7319 160ZM14.7319 160L14.4239 158.838V150.368H15.4599V160H14.7319ZM20.6557 160.14C20.021 160.14 19.4424 159.986 18.9197 159.678C18.4064 159.37 17.9957 158.955 17.6877 158.432C17.389 157.909 17.2397 157.326 17.2397 156.682C17.2397 156.047 17.389 155.473 17.6877 154.96C17.9957 154.447 18.4064 154.041 18.9197 153.742C19.4424 153.434 20.021 153.28 20.6557 153.28C21.2997 153.28 21.8784 153.429 22.3917 153.728C22.905 154.027 23.311 154.437 23.6097 154.96C23.9177 155.473 24.0717 156.047 24.0717 156.682C24.0717 157.335 23.9177 157.923 23.6097 158.446C23.311 158.959 22.905 159.37 22.3917 159.678C21.8784 159.986 21.2997 160.14 20.6557 160.14ZM20.6557 159.188C21.1224 159.188 21.533 159.081 21.8877 158.866C22.2517 158.651 22.5364 158.353 22.7417 157.97C22.9564 157.587 23.0637 157.158 23.0637 156.682C23.0637 156.206 22.9564 155.786 22.7417 155.422C22.5364 155.049 22.2517 154.755 21.8877 154.54C21.533 154.325 21.1224 154.218 20.6557 154.218C20.1984 154.218 19.7877 154.325 19.4237 154.54C19.0597 154.755 18.775 155.049 18.5697 155.422C18.3644 155.786 18.2617 156.206 18.2617 156.682C18.2617 157.167 18.3644 157.601 18.5697 157.984C18.775 158.357 19.0597 158.651 19.4237 158.866C19.7877 159.081 20.1984 159.188 20.6557 159.188ZM32.0405 160.14C31.5365 160.14 31.0839 160.037 30.6825 159.832C30.2812 159.627 29.9499 159.347 29.6885 158.992C29.4365 158.628 29.2825 158.208 29.2265 157.732V155.674C29.2825 155.189 29.4412 154.769 29.7025 154.414C29.9639 154.05 30.2952 153.77 30.6965 153.574C31.1072 153.378 31.5552 153.28 32.0405 153.28C32.6472 153.28 33.1932 153.434 33.6785 153.742C34.1639 154.041 34.5465 154.451 34.8265 154.974C35.1159 155.487 35.2605 156.071 35.2605 156.724C35.2605 157.368 35.1205 157.947 34.8405 158.46C34.5605 158.973 34.1732 159.384 33.6785 159.692C33.1932 159.991 32.6472 160.14 32.0405 160.14ZM31.8725 159.202C32.3392 159.202 32.7499 159.099 33.1045 158.894C33.4592 158.679 33.7345 158.385 33.9305 158.012C34.1359 157.629 34.2385 157.195 34.2385 156.71C34.2385 156.215 34.1359 155.781 33.9305 155.408C33.7345 155.035 33.4592 154.741 33.1045 154.526C32.7499 154.311 32.3439 154.204 31.8865 154.204C31.4292 154.204 31.0232 154.311 30.6685 154.526C30.3232 154.741 30.0525 155.035 29.8565 155.408C29.6605 155.781 29.5625 156.215 29.5625 156.71C29.5625 157.195 29.6605 157.629 29.8565 158.012C30.0525 158.385 30.3232 158.679 30.6685 158.894C31.0139 159.099 31.4152 159.202 31.8725 159.202ZM28.6385 162.772V153.42H29.6185V155.1L29.4225 156.696L29.6185 158.306V162.772H28.6385ZM36.828 160V153.42H37.808V160H36.828ZM37.808 156.164L37.402 155.982C37.402 155.151 37.6027 154.493 38.004 154.008C38.4147 153.523 38.9747 153.28 39.684 153.28C40.0107 153.28 40.3093 153.341 40.58 153.462C40.8507 153.574 41.1027 153.756 41.336 154.008L40.692 154.694C40.5333 154.517 40.356 154.391 40.16 154.316C39.9733 154.241 39.7587 154.204 39.516 154.204C39.012 154.204 38.6013 154.372 38.284 154.708C37.9667 155.035 37.808 155.52 37.808 156.164ZM45.1283 160.14C44.4937 160.14 43.915 159.986 43.3923 159.678C42.879 159.37 42.4683 158.955 42.1603 158.432C41.8617 157.909 41.7123 157.326 41.7123 156.682C41.7123 156.047 41.8617 155.473 42.1603 154.96C42.4683 154.447 42.879 154.041 43.3923 153.742C43.915 153.434 44.4937 153.28 45.1283 153.28C45.7723 153.28 46.351 153.429 46.8643 153.728C47.3777 154.027 47.7837 154.437 48.0823 154.96C48.3903 155.473 48.5443 156.047 48.5443 156.682C48.5443 157.335 48.3903 157.923 48.0823 158.446C47.7837 158.959 47.3777 159.37 46.8643 159.678C46.351 159.986 45.7723 160.14 45.1283 160.14ZM45.1283 159.188C45.595 159.188 46.0057 159.081 46.3603 158.866C46.7243 158.651 47.009 158.353 47.2143 157.97C47.429 157.587 47.5363 157.158 47.5363 156.682C47.5363 156.206 47.429 155.786 47.2143 155.422C47.009 155.049 46.7243 154.755 46.3603 154.54C46.0057 154.325 45.595 154.218 45.1283 154.218C44.671 154.218 44.2603 154.325 43.8963 154.54C43.5323 154.755 43.2477 155.049 43.0423 155.422C42.837 155.786 42.7343 156.206 42.7343 156.682C42.7343 157.167 42.837 157.601 43.0423 157.984C43.2477 158.357 43.5323 158.651 43.8963 158.866C44.2603 159.081 44.671 159.188 45.1283 159.188ZM50.837 160V152.16C50.837 151.731 50.9303 151.353 51.117 151.026C51.3036 150.69 51.5603 150.429 51.887 150.242C52.223 150.046 52.6103 149.948 53.049 149.948C53.3756 149.948 53.665 150.004 53.917 150.116C54.1783 150.228 54.4163 150.387 54.631 150.592L53.973 151.25C53.8423 151.119 53.6976 151.026 53.539 150.97C53.3896 150.905 53.2216 150.872 53.035 150.872C52.6523 150.872 52.3536 150.993 52.139 151.236C51.9336 151.469 51.831 151.787 51.831 152.188V160H50.837ZM49.185 154.302V153.42H55.247V154.302H49.185ZM54.701 160V153.42H55.695V160H54.701ZM55.191 152.608C54.995 152.608 54.8316 152.543 54.701 152.412C54.5796 152.272 54.519 152.109 54.519 151.922C54.519 151.726 54.5796 151.563 54.701 151.432C54.8316 151.301 54.995 151.236 55.191 151.236C55.387 151.236 55.5503 151.301 55.681 151.432C55.8116 151.563 55.877 151.726 55.877 151.922C55.877 152.109 55.8116 152.272 55.681 152.412C55.5503 152.543 55.387 152.608 55.191 152.608ZM57.6776 160V150.088H58.6576V160H57.6776ZM63.6824 160.14C63.0197 160.14 62.4271 159.991 61.9044 159.692C61.3817 159.393 60.9664 158.983 60.6584 158.46C60.3597 157.937 60.2104 157.349 60.2104 156.696C60.2104 156.052 60.3597 155.473 60.6584 154.96C60.9571 154.437 61.3631 154.027 61.8764 153.728C62.3897 153.429 62.9637 153.28 63.5984 153.28C64.1957 153.28 64.7231 153.415 65.1804 153.686C65.6471 153.957 66.0111 154.335 66.2724 154.82C66.5431 155.296 66.6784 155.847 66.6784 156.472C66.6784 156.547 66.6737 156.635 66.6644 156.738C66.6551 156.831 66.6364 156.943 66.6084 157.074H60.9104V156.234H66.0764L65.7264 156.542C65.7357 156.057 65.6517 155.641 65.4744 155.296C65.3064 154.941 65.0591 154.671 64.7324 154.484C64.4151 154.288 64.0277 154.19 63.5704 154.19C63.0944 154.19 62.6791 154.293 62.3244 154.498C61.9697 154.703 61.6897 154.993 61.4844 155.366C61.2884 155.73 61.1904 156.164 61.1904 156.668C61.1904 157.172 61.2931 157.615 61.4984 157.998C61.7131 158.381 62.0071 158.679 62.3804 158.894C62.7631 159.109 63.2017 159.216 63.6964 159.216C64.0977 159.216 64.4664 159.146 64.8024 159.006C65.1384 158.857 65.4231 158.637 65.6564 158.348L66.2864 158.992C65.9784 159.356 65.5957 159.641 65.1384 159.846C64.6904 160.042 64.2051 160.14 63.6824 160.14ZM72.1514 160V152.3C72.1514 151.843 72.2494 151.437 72.4454 151.082C72.6507 150.727 72.9307 150.452 73.2854 150.256C73.6494 150.051 74.0601 149.948 74.5174 149.948C74.8721 149.948 75.1847 150.013 75.4554 150.144C75.7261 150.265 75.9734 150.438 76.1974 150.662L75.5534 151.306C75.4041 151.157 75.2454 151.049 75.0774 150.984C74.9187 150.909 74.7321 150.872 74.5174 150.872C74.0787 150.872 73.7381 151.003 73.4954 151.264C73.2621 151.516 73.1454 151.871 73.1454 152.328V160H72.1514ZM70.4994 154.302V153.42H75.3434V154.302H70.4994ZM79.2533 160.14C78.6187 160.14 78.04 159.986 77.5173 159.678C77.004 159.37 76.5933 158.955 76.2853 158.432C75.9867 157.909 75.8373 157.326 75.8373 156.682C75.8373 156.047 75.9867 155.473 76.2853 154.96C76.5933 154.447 77.004 154.041 77.5173 153.742C78.04 153.434 78.6187 153.28 79.2533 153.28C79.8973 153.28 80.476 153.429 80.9893 153.728C81.5027 154.027 81.9087 154.437 82.2073 154.96C82.5153 155.473 82.6693 156.047 82.6693 156.682C82.6693 157.335 82.5153 157.923 82.2073 158.446C81.9087 158.959 81.5027 159.37 80.9893 159.678C80.476 159.986 79.8973 160.14 79.2533 160.14ZM79.2533 159.188C79.72 159.188 80.1307 159.081 80.4853 158.866C80.8493 158.651 81.134 158.353 81.3393 157.97C81.554 157.587 81.6613 157.158 81.6613 156.682C81.6613 156.206 81.554 155.786 81.3393 155.422C81.134 155.049 80.8493 154.755 80.4853 154.54C80.1307 154.325 79.72 154.218 79.2533 154.218C78.796 154.218 78.3853 154.325 78.0213 154.54C77.6573 154.755 77.3727 155.049 77.1673 155.422C76.962 155.786 76.8593 156.206 76.8593 156.682C76.8593 157.167 76.962 157.601 77.1673 157.984C77.3727 158.357 77.6573 158.651 78.0213 158.866C78.3853 159.081 78.796 159.188 79.2533 159.188ZM84.2284 160V153.42H85.2084V160H84.2284ZM85.2084 156.164L84.8024 155.982C84.8024 155.151 85.003 154.493 85.4044 154.008C85.815 153.523 86.375 153.28 87.0844 153.28C87.411 153.28 87.7097 153.341 87.9804 153.462C88.251 153.574 88.503 153.756 88.7364 154.008L88.0924 154.694C87.9337 154.517 87.7564 154.391 87.5604 154.316C87.3737 154.241 87.159 154.204 86.9164 154.204C86.4124 154.204 86.0017 154.372 85.6844 154.708C85.367 155.035 85.2084 155.52 85.2084 156.164ZM97.8211 160V156.136C97.8211 155.557 97.6484 155.091 97.3031 154.736C96.9671 154.372 96.5191 154.19 95.9591 154.19C95.5764 154.19 95.2404 154.274 94.9511 154.442C94.6617 154.61 94.4331 154.839 94.2651 155.128C94.0971 155.417 94.0131 155.749 94.0131 156.122L93.5651 155.87C93.5651 155.375 93.6817 154.932 93.9151 154.54C94.1484 154.148 94.4611 153.84 94.8531 153.616C95.2544 153.392 95.7117 153.28 96.2251 153.28C96.7291 153.28 97.1771 153.401 97.5691 153.644C97.9611 153.887 98.2644 154.213 98.4791 154.624C98.7031 155.035 98.8151 155.483 98.8151 155.968V160H97.8211ZM93.0331 160V153.42H94.0131V160H93.0331ZM103.63 160.14C102.996 160.14 102.417 159.986 101.894 159.678C101.381 159.37 100.97 158.955 100.662 158.432C100.364 157.909 100.214 157.326 100.214 156.682C100.214 156.047 100.364 155.473 100.662 154.96C100.97 154.447 101.381 154.041 101.894 153.742C102.417 153.434 102.996 153.28 103.63 153.28C104.274 153.28 104.853 153.429 105.366 153.728C105.88 154.027 106.286 154.437 106.584 154.96C106.892 155.473 107.046 156.047 107.046 156.682C107.046 157.335 106.892 157.923 106.584 158.446C106.286 158.959 105.88 159.37 105.366 159.678C104.853 159.986 104.274 160.14 103.63 160.14ZM103.63 159.188C104.097 159.188 104.508 159.081 104.862 158.866C105.226 158.651 105.511 158.353 105.716 157.97C105.931 157.587 106.038 157.158 106.038 156.682C106.038 156.206 105.931 155.786 105.716 155.422C105.511 155.049 105.226 154.755 104.862 154.54C104.508 154.325 104.097 154.218 103.63 154.218C103.173 154.218 102.762 154.325 102.398 154.54C102.034 154.755 101.75 155.049 101.544 155.422C101.339 155.786 101.236 156.206 101.236 156.682C101.236 157.167 101.339 157.601 101.544 157.984C101.75 158.357 102.034 158.651 102.398 158.866C102.762 159.081 103.173 159.188 103.63 159.188ZM110.221 160L107.687 153.42H108.709L110.711 158.88L110.347 158.894L112.335 153.42H112.909L114.897 158.894L114.533 158.88L116.521 153.42H117.557L115.009 160H114.435L112.405 154.61H112.825L110.809 160H110.221Z" fill="#262028"/>
    </svg>
    