<svg width="390" height="119" viewBox="0 0 390 119" fill="none" xmlns="http://www.w3.org/2000/svg">
    <rect x="0.5" y="1" width="389" height="117" rx="7.5" fill="white"/>
    <rect x="0.5" y="1" width="389" height="117" rx="7.5" stroke="#E8E7E7"/>
    <path d="M17.64 35.5V21.62H19.52V35.5H17.64ZM18.92 35.5V33.78H26.36V35.5H18.92ZM28.3752 35.5V26H30.1752V35.5H28.3752ZM29.2752 24.1C28.9418 24.1 28.6685 23.9933 28.4552 23.78C28.2418 23.5533 28.1352 23.2733 28.1352 22.94C28.1352 22.62 28.2418 22.3533 28.4552 22.14C28.6685 21.9133 28.9418 21.8 29.2752 21.8C29.6085 21.8 29.8818 21.9133 30.0952 22.14C30.3085 22.3533 30.4152 22.62 30.4152 22.94C30.4152 23.2733 30.3085 23.5533 30.0952 23.78C29.8818 23.9933 29.6085 24.1 29.2752 24.1ZM39.5478 35.5V29.96C39.5478 29.24 39.3211 28.6467 38.8678 28.18C38.4145 27.7133 37.8278 27.48 37.1078 27.48C36.6278 27.48 36.2011 27.5867 35.8278 27.8C35.4545 28.0133 35.1611 28.3067 34.9478 28.68C34.7345 29.0533 34.6278 29.48 34.6278 29.96L33.8878 29.54C33.8878 28.82 34.0478 28.18 34.3678 27.62C34.6878 27.06 35.1345 26.62 35.7078 26.3C36.2811 25.9667 36.9278 25.8 37.6478 25.8C38.3678 25.8 39.0011 25.98 39.5478 26.34C40.1078 26.7 40.5478 27.1733 40.8678 27.76C41.1878 28.3333 41.3478 28.9467 41.3478 29.6V35.5H39.5478ZM32.8278 35.5V26H34.6278V35.5H32.8278ZM49.8648 35.5L45.4248 30.64L49.8248 26H52.0048L47.1048 31.12L47.1848 30.08L52.1848 35.5H49.8648ZM43.7848 35.5V21.22H45.5848V35.5H43.7848ZM57.5989 35.7C56.6522 35.7 55.7989 35.4867 55.0389 35.06C54.2789 34.62 53.6789 34.0267 53.2389 33.28C52.7989 32.5333 52.5789 31.6867 52.5789 30.74C52.5789 29.8067 52.7922 28.9667 53.2189 28.22C53.6589 27.4733 54.2456 26.8867 54.9789 26.46C55.7256 26.02 56.5589 25.8 57.4789 25.8C58.3589 25.8 59.1322 26 59.7989 26.4C60.4789 26.8 61.0056 27.3533 61.3789 28.06C61.7656 28.7667 61.9589 29.5667 61.9589 30.46C61.9589 30.5933 61.9522 30.74 61.9389 30.9C61.9256 31.0467 61.8989 31.22 61.8589 31.42H53.8389V29.92H60.8989L60.2389 30.5C60.2389 29.86 60.1256 29.32 59.8989 28.88C59.6722 28.4267 59.3522 28.08 58.9389 27.84C58.5256 27.5867 58.0256 27.46 57.4389 27.46C56.8256 27.46 56.2856 27.5933 55.8189 27.86C55.3522 28.1267 54.9922 28.5 54.7389 28.98C54.4856 29.46 54.3589 30.0267 54.3589 30.68C54.3589 31.3467 54.4922 31.9333 54.7589 32.44C55.0256 32.9333 55.4056 33.32 55.8989 33.6C56.3922 33.8667 56.9589 34 57.5989 34C58.1322 34 58.6189 33.9067 59.0589 33.72C59.5122 33.5333 59.8989 33.2533 60.2189 32.88L61.3789 34.06C60.9256 34.5933 60.3656 35 59.6989 35.28C59.0456 35.56 58.3456 35.7 57.5989 35.7ZM67.9416 35.7C67.0616 35.7 66.2749 35.4867 65.5816 35.06C64.8882 34.62 64.3349 34.0267 63.9216 33.28C63.5216 32.5333 63.3216 31.6933 63.3216 30.76C63.3216 29.8267 63.5216 28.9867 63.9216 28.24C64.3349 27.4933 64.8882 26.9 65.5816 26.46C66.2749 26.02 67.0616 25.8 67.9416 25.8C68.6482 25.8 69.2882 25.9533 69.8616 26.26C70.4349 26.5533 70.8949 26.9667 71.2416 27.5C71.6016 28.02 71.8016 28.6267 71.8416 29.32V32.18C71.8016 32.86 71.6082 33.4667 71.2616 34C70.9149 34.5333 70.4549 34.9533 69.8816 35.26C69.3082 35.5533 68.6616 35.7 67.9416 35.7ZM68.2416 34C68.8416 34 69.3616 33.86 69.8016 33.58C70.2549 33.3 70.6082 32.92 70.8616 32.44C71.1149 31.9467 71.2416 31.3867 71.2416 30.76C71.2416 30.1067 71.1082 29.54 70.8416 29.06C70.5882 28.58 70.2349 28.2 69.7816 27.92C69.3416 27.64 68.8216 27.5 68.2216 27.5C67.6216 27.5 67.0949 27.64 66.6416 27.92C66.1882 28.2 65.8282 28.5867 65.5616 29.08C65.3082 29.56 65.1816 30.1133 65.1816 30.74C65.1816 31.38 65.3082 31.9467 65.5616 32.44C65.8282 32.92 66.1882 33.3 66.6416 33.58C67.1082 33.86 67.6416 34 68.2416 34ZM72.9416 35.5H71.1216V32.94L71.4616 30.62L71.1216 28.32V21.22H72.9416V35.5ZM75.8822 35.5V21.62H77.7622V35.5H75.8822ZM87.4384 35.5V29.96C87.4384 29.24 87.2118 28.6467 86.7584 28.18C86.3051 27.7133 85.7184 27.48 84.9984 27.48C84.5184 27.48 84.0918 27.5867 83.7184 27.8C83.3451 28.0133 83.0518 28.3067 82.8384 28.68C82.6251 29.0533 82.5184 29.48 82.5184 29.96L81.7784 29.54C81.7784 28.82 81.9384 28.18 82.2584 27.62C82.5784 27.06 83.0251 26.62 83.5984 26.3C84.1718 25.9667 84.8184 25.8 85.5384 25.8C86.2584 25.8 86.8918 25.98 87.4384 26.34C87.9984 26.7 88.4384 27.1733 88.7584 27.76C89.0784 28.3333 89.2384 28.9467 89.2384 29.6V35.5H87.4384ZM80.7184 35.5V26H82.5184V35.5H80.7184ZM101.356 35.7C100.329 35.7 99.409 35.4733 98.5956 35.02C97.7956 34.5533 97.1623 33.92 96.6956 33.12C96.229 32.3067 95.9956 31.3867 95.9956 30.36V21.62H97.8756V30.32C97.8756 31.0533 98.029 31.6867 98.3356 32.22C98.6423 32.7533 99.0556 33.1667 99.5756 33.46C100.109 33.7533 100.702 33.9 101.356 33.9C102.036 33.9 102.629 33.7533 103.136 33.46C103.656 33.1667 104.062 32.7533 104.356 32.22C104.662 31.6867 104.816 31.06 104.816 30.34V21.62H106.716V30.38C106.716 31.4067 106.482 32.32 106.016 33.12C105.549 33.92 104.916 34.5533 104.116 35.02C103.316 35.4733 102.396 35.7 101.356 35.7ZM111.068 29.46V27.88H114.828C115.641 27.88 116.268 27.6733 116.708 27.26C117.148 26.8467 117.368 26.2867 117.368 25.58C117.368 24.9133 117.148 24.36 116.708 23.92C116.281 23.48 115.661 23.26 114.848 23.26H111.068V21.62H114.908C115.788 21.62 116.555 21.7933 117.208 22.14C117.861 22.4733 118.361 22.9333 118.708 23.52C119.068 24.1067 119.248 24.78 119.248 25.54C119.248 26.3267 119.068 27.0133 118.708 27.6C118.361 28.1867 117.861 28.6467 117.208 28.98C116.555 29.3 115.788 29.46 114.908 29.46H111.068ZM109.808 35.5V21.62H111.688V35.5H109.808ZM117.808 35.5L112.768 29.28L114.548 28.66L120.188 35.5H117.808ZM122.132 35.5V21.62H124.012V35.5H122.132ZM123.412 35.5V33.78H130.852V35.5H123.412Z" fill="black"/>
    <line x1="16" y1="48" x2="374" y2="48" stroke="#E0E0E0"/>
    <path d="M22.608 71.5V67.084C22.608 66.4227 22.4107 65.8893 22.016 65.484C21.632 65.068 21.12 64.86 20.48 64.86C20.0427 64.86 19.6587 64.956 19.328 65.148C18.9973 65.34 18.736 65.6013 18.544 65.932C18.352 66.2627 18.256 66.6413 18.256 67.068L17.744 66.78C17.744 66.2147 17.8773 65.708 18.144 65.26C18.4107 64.812 18.768 64.46 19.216 64.204C19.6747 63.948 20.1973 63.82 20.784 63.82C21.36 63.82 21.872 63.9533 22.32 64.22C22.768 64.476 23.1147 64.8333 23.36 65.292C23.616 65.7507 23.744 66.284 23.744 66.892V71.5H22.608ZM17.136 71.5V60.172H18.256V71.5H17.136ZM27.0071 71.5V60.812H28.1431V71.5H27.0071ZM25.1031 64.988V63.98H34.4471V64.988H25.1031ZM31.4231 71.5V60.812H32.5591V71.5H31.4231ZM39.8678 71.66C39.2918 71.66 38.7744 71.5427 38.3158 71.308C37.8571 71.0733 37.4784 70.7533 37.1798 70.348C36.8918 69.932 36.7158 69.452 36.6518 68.908V66.556C36.7158 66.0013 36.8971 65.5213 37.1957 65.116C37.4944 64.7 37.8731 64.38 38.3318 64.156C38.8011 63.932 39.3131 63.82 39.8678 63.82C40.5611 63.82 41.1851 63.996 41.7398 64.348C42.2944 64.6893 42.7318 65.1587 43.0518 65.756C43.3824 66.3427 43.5478 67.0093 43.5478 67.756C43.5478 68.492 43.3878 69.1533 43.0677 69.74C42.7478 70.3267 42.3051 70.796 41.7398 71.148C41.1851 71.4893 40.5611 71.66 39.8678 71.66ZM39.6758 70.588C40.2091 70.588 40.6784 70.4707 41.0838 70.236C41.4891 69.9907 41.8038 69.6547 42.0278 69.228C42.2624 68.7907 42.3798 68.2947 42.3798 67.74C42.3798 67.1747 42.2624 66.6787 42.0278 66.252C41.8038 65.8253 41.4891 65.4893 41.0838 65.244C40.6784 64.9987 40.2144 64.876 39.6918 64.876C39.1691 64.876 38.7051 64.9987 38.2998 65.244C37.9051 65.4893 37.5958 65.8253 37.3718 66.252C37.1478 66.6787 37.0358 67.1747 37.0358 67.74C37.0358 68.2947 37.1478 68.7907 37.3718 69.228C37.5958 69.6547 37.9051 69.9907 38.2998 70.236C38.6944 70.4707 39.1531 70.588 39.6758 70.588ZM35.9798 74.668V63.98H37.0998V65.9L36.8758 67.724L37.0998 69.564V74.668H35.9798ZM47.6431 71.66C47.2378 71.66 46.8485 71.6067 46.4751 71.5C46.1018 71.3827 45.7605 71.2227 45.4511 71.02C45.1525 70.8173 44.8911 70.5773 44.6671 70.3L45.3871 69.564C45.6858 69.9267 46.0218 70.1987 46.3951 70.38C46.7791 70.5507 47.2058 70.636 47.6751 70.636C48.1765 70.636 48.5658 70.54 48.8431 70.348C49.1311 70.156 49.2751 69.8893 49.2751 69.548C49.2751 69.228 49.1738 68.9773 48.9711 68.796C48.7685 68.6147 48.5071 68.4707 48.1871 68.364C47.8778 68.2573 47.5471 68.156 47.1951 68.06C46.8431 67.9533 46.5071 67.8253 46.1871 67.676C45.8671 67.516 45.6058 67.2973 45.4031 67.02C45.2111 66.7427 45.1151 66.38 45.1151 65.932C45.1151 65.5053 45.2165 65.1373 45.4191 64.828C45.6325 64.508 45.9311 64.2627 46.3151 64.092C46.7098 63.9107 47.1738 63.82 47.7071 63.82C48.2725 63.82 48.7845 63.9213 49.2431 64.124C49.7018 64.3267 50.0698 64.6253 50.3471 65.02L49.6271 65.74C49.4031 65.452 49.1205 65.2333 48.7791 65.084C48.4485 64.924 48.0751 64.844 47.6591 64.844C47.1791 64.844 46.8111 64.94 46.5551 65.132C46.3098 65.3133 46.1871 65.5533 46.1871 65.852C46.1871 66.14 46.2885 66.3693 46.4911 66.54C46.6938 66.7 46.9498 66.8333 47.2591 66.94C47.5791 67.036 47.9151 67.1373 48.2671 67.244C48.6191 67.34 48.9551 67.4733 49.2751 67.644C49.5951 67.804 49.8511 68.028 50.0431 68.316C50.2458 68.5933 50.3471 68.972 50.3471 69.452C50.3471 70.124 50.1018 70.6627 49.6111 71.068C49.1311 71.4627 48.4751 71.66 47.6431 71.66ZM53.1444 71.66C52.8777 71.66 52.659 71.5693 52.4884 71.388C52.3284 71.2067 52.2484 70.9933 52.2484 70.748C52.2484 70.4813 52.3284 70.2627 52.4884 70.092C52.659 69.9107 52.8777 69.82 53.1444 69.82C53.4004 69.82 53.6137 69.9107 53.7844 70.092C53.9657 70.2627 54.0564 70.4813 54.0564 70.748C54.0564 70.9933 53.9657 71.2067 53.7844 71.388C53.6137 71.5693 53.4004 71.66 53.1444 71.66ZM53.1444 66.62C52.8777 66.62 52.659 66.5293 52.4884 66.348C52.3284 66.1667 52.2484 65.9533 52.2484 65.708C52.2484 65.4413 52.3284 65.2227 52.4884 65.052C52.659 64.8813 52.8777 64.796 53.1444 64.796C53.4004 64.796 53.6137 64.8813 53.7844 65.052C53.9657 65.2227 54.0564 65.4413 54.0564 65.708C54.0564 65.9533 53.9657 66.1667 53.7844 66.348C53.6137 66.5293 53.4004 66.62 53.1444 66.62ZM55.6169 72.14L60.0009 59.9H61.0569L56.6729 72.14H55.6169ZM61.695 72.14L66.079 59.9H67.135L62.751 72.14H61.695ZM70.2008 71.5L67.3048 63.98H68.4728L70.7608 70.22L70.3448 70.236L72.6168 63.98H73.2728L75.5448 70.236L75.1288 70.22L77.4008 63.98H78.5848L75.6728 71.5H75.0168L72.6968 65.34H73.1768L70.8728 71.5H70.2008ZM81.7789 71.5L78.8829 63.98H80.0509L82.3389 70.22L81.9229 70.236L84.1949 63.98H84.8509L87.1229 70.236L86.7069 70.22L88.9789 63.98H90.1629L87.2509 71.5H86.5949L84.2749 65.34H84.7549L82.4509 71.5H81.7789ZM93.357 71.5L90.461 63.98H91.629L93.917 70.22L93.501 70.236L95.773 63.98H96.429L98.701 70.236L98.285 70.22L100.557 63.98H101.741L98.829 71.5H98.173L95.853 65.34H96.333L94.029 71.5H93.357ZM103.82 71.66C103.553 71.66 103.335 71.5693 103.164 71.388C102.993 71.2067 102.908 70.988 102.908 70.732C102.908 70.476 102.993 70.2627 103.164 70.092C103.335 69.9107 103.553 69.82 103.82 69.82C104.076 69.82 104.289 69.9107 104.46 70.092C104.631 70.2627 104.716 70.476 104.716 70.732C104.716 70.988 104.631 71.2067 104.46 71.388C104.289 71.5693 104.076 71.66 103.82 71.66ZM107.261 71.5V60.172H108.381V71.5H107.261ZM110.652 71.5V63.98H111.788V71.5H110.652ZM111.212 62.348C110.998 62.348 110.817 62.2733 110.668 62.124C110.518 61.964 110.444 61.7773 110.444 61.564C110.444 61.34 110.518 61.1533 110.668 61.004C110.817 60.8547 110.998 60.78 111.212 60.78C111.446 60.78 111.633 60.8547 111.772 61.004C111.921 61.1533 111.996 61.34 111.996 61.564C111.996 61.7773 111.921 61.964 111.772 62.124C111.633 62.2733 111.446 62.348 111.212 62.348ZM119.53 71.5V67.084C119.53 66.4227 119.333 65.8893 118.938 65.484C118.554 65.068 118.042 64.86 117.402 64.86C116.965 64.86 116.581 64.956 116.25 65.148C115.919 65.34 115.658 65.6013 115.466 65.932C115.274 66.2627 115.178 66.6413 115.178 67.068L114.666 66.78C114.666 66.2147 114.799 65.708 115.066 65.26C115.333 64.812 115.69 64.46 116.138 64.204C116.597 63.948 117.119 63.82 117.706 63.82C118.282 63.82 118.794 63.9587 119.242 64.236C119.69 64.5133 120.037 64.8867 120.282 65.356C120.538 65.8253 120.666 66.3373 120.666 66.892V71.5H119.53ZM114.058 71.5V63.98H115.178V71.5H114.058ZM127.609 71.5L123.769 67.644L127.545 63.98H128.937L124.825 67.932L124.857 67.292L129.097 71.5H127.609ZM122.761 71.5V60.172H123.881V71.5H122.761ZM133.499 71.66C132.741 71.66 132.064 71.4893 131.467 71.148C130.869 70.8067 130.395 70.3373 130.043 69.74C129.701 69.1427 129.531 68.4707 129.531 67.724C129.531 66.988 129.701 66.3267 130.043 65.74C130.384 65.1427 130.848 64.6733 131.435 64.332C132.021 63.9907 132.677 63.82 133.403 63.82C134.085 63.82 134.688 63.9747 135.211 64.284C135.744 64.5933 136.16 65.0253 136.459 65.58C136.768 66.124 136.923 66.7533 136.923 67.468C136.923 67.5533 136.917 67.6547 136.907 67.772C136.896 67.8787 136.875 68.0067 136.843 68.156H130.331V67.196H136.235L135.835 67.548C135.845 66.9933 135.749 66.5187 135.547 66.124C135.355 65.7187 135.072 65.4093 134.699 65.196C134.336 64.972 133.893 64.86 133.371 64.86C132.827 64.86 132.352 64.9773 131.947 65.212C131.541 65.4467 131.221 65.7773 130.987 66.204C130.763 66.62 130.651 67.116 130.651 67.692C130.651 68.268 130.768 68.7747 131.003 69.212C131.248 69.6493 131.584 69.9907 132.011 70.236C132.448 70.4813 132.949 70.604 133.515 70.604C133.973 70.604 134.395 70.524 134.779 70.364C135.163 70.1933 135.488 69.9427 135.755 69.612L136.475 70.348C136.123 70.764 135.685 71.0893 135.163 71.324C134.651 71.548 134.096 71.66 133.499 71.66ZM141.836 71.66C141.143 71.66 140.519 71.4893 139.964 71.148C139.409 70.8067 138.967 70.3427 138.636 69.756C138.316 69.1587 138.156 68.492 138.156 67.756C138.156 67.0093 138.316 66.3427 138.636 65.756C138.967 65.1587 139.409 64.6893 139.964 64.348C140.519 63.996 141.143 63.82 141.836 63.82C142.401 63.82 142.913 63.932 143.372 64.156C143.831 64.38 144.209 64.7 144.508 65.116C144.817 65.5213 144.999 66.0013 145.052 66.556V68.908C144.988 69.452 144.807 69.932 144.508 70.348C144.22 70.7533 143.847 71.0733 143.388 71.308C142.929 71.5427 142.412 71.66 141.836 71.66ZM142.028 70.588C142.551 70.588 143.009 70.4707 143.404 70.236C143.799 69.9907 144.108 69.6547 144.332 69.228C144.556 68.7907 144.668 68.2947 144.668 67.74C144.668 67.1747 144.551 66.6787 144.316 66.252C144.092 65.8253 143.783 65.4893 143.388 65.244C142.993 64.9987 142.535 64.876 142.012 64.876C141.489 64.876 141.025 64.9987 140.62 65.244C140.215 65.4893 139.895 65.8307 139.66 66.268C139.436 66.6947 139.324 67.1853 139.324 67.74C139.324 68.2947 139.436 68.7907 139.66 69.228C139.895 69.6547 140.215 69.9907 140.62 70.236C141.036 70.4707 141.505 70.588 142.028 70.588ZM145.724 71.5H144.604V69.484L144.828 67.628L144.604 65.82V60.172H145.724V71.5ZM147.995 71.5V63.98H149.131V71.5H147.995ZM148.555 62.348C148.342 62.348 148.161 62.2733 148.011 62.124C147.862 61.964 147.787 61.7773 147.787 61.564C147.787 61.34 147.862 61.1533 148.011 61.004C148.161 60.8547 148.342 60.78 148.555 60.78C148.79 60.78 148.977 60.8547 149.115 61.004C149.265 61.1533 149.339 61.34 149.339 61.564C149.339 61.7773 149.265 61.964 149.115 62.124C148.977 62.2733 148.79 62.348 148.555 62.348ZM156.874 71.5V67.084C156.874 66.4227 156.676 65.8893 156.282 65.484C155.898 65.068 155.386 64.86 154.746 64.86C154.308 64.86 153.924 64.956 153.594 65.148C153.263 65.34 153.002 65.6013 152.81 65.932C152.618 66.2627 152.522 66.6413 152.522 67.068L152.01 66.78C152.01 66.2147 152.143 65.708 152.41 65.26C152.676 64.812 153.034 64.46 153.482 64.204C153.94 63.948 154.463 63.82 155.05 63.82C155.626 63.82 156.138 63.9587 156.586 64.236C157.034 64.5133 157.38 64.8867 157.626 65.356C157.882 65.8253 158.01 66.3373 158.01 66.892V71.5H156.874ZM151.402 71.5V63.98H152.522V71.5H151.402ZM161.289 71.66C161.022 71.66 160.803 71.5693 160.633 71.388C160.462 71.2067 160.377 70.988 160.377 70.732C160.377 70.476 160.462 70.2627 160.633 70.092C160.803 69.9107 161.022 69.82 161.289 69.82C161.545 69.82 161.758 69.9107 161.929 70.092C162.099 70.2627 162.185 70.476 162.185 70.732C162.185 70.988 162.099 71.2067 161.929 71.388C161.758 71.5693 161.545 71.66 161.289 71.66ZM167.794 71.66C167.058 71.66 166.392 71.4893 165.794 71.148C165.208 70.796 164.738 70.3213 164.386 69.724C164.045 69.1267 163.874 68.46 163.874 67.724C163.874 66.988 164.045 66.3267 164.386 65.74C164.738 65.1427 165.208 64.6733 165.794 64.332C166.392 63.9907 167.058 63.82 167.794 63.82C168.36 63.82 168.888 63.9267 169.378 64.14C169.869 64.3533 170.285 64.652 170.626 65.036L169.89 65.788C169.634 65.5 169.325 65.2813 168.962 65.132C168.6 64.972 168.21 64.892 167.794 64.892C167.261 64.892 166.786 65.0147 166.37 65.26C165.954 65.5053 165.629 65.8413 165.394 66.268C165.16 66.684 165.042 67.1693 165.042 67.724C165.042 68.268 165.16 68.7587 165.394 69.196C165.629 69.6227 165.954 69.9587 166.37 70.204C166.786 70.4493 167.261 70.572 167.794 70.572C168.221 70.572 168.616 70.4973 168.978 70.348C169.341 70.188 169.65 69.964 169.906 69.676L170.658 70.428C170.306 70.8227 169.88 71.1267 169.378 71.34C168.888 71.5533 168.36 71.66 167.794 71.66ZM175.497 71.66C174.772 71.66 174.11 71.484 173.513 71.132C172.926 70.78 172.457 70.3053 172.105 69.708C171.764 69.1107 171.593 68.444 171.593 67.708C171.593 66.9827 171.764 66.3267 172.105 65.74C172.457 65.1533 172.926 64.6893 173.513 64.348C174.11 63.996 174.772 63.82 175.497 63.82C176.233 63.82 176.894 63.9907 177.481 64.332C178.068 64.6733 178.532 65.1427 178.873 65.74C179.225 66.3267 179.401 66.9827 179.401 67.708C179.401 68.4547 179.225 69.1267 178.873 69.724C178.532 70.3107 178.068 70.78 177.481 71.132C176.894 71.484 176.233 71.66 175.497 71.66ZM175.497 70.572C176.03 70.572 176.5 70.4493 176.905 70.204C177.321 69.9587 177.646 69.6173 177.881 69.18C178.126 68.7427 178.249 68.252 178.249 67.708C178.249 67.164 178.126 66.684 177.881 66.268C177.646 65.8413 177.321 65.5053 176.905 65.26C176.5 65.0147 176.03 64.892 175.497 64.892C174.974 64.892 174.505 65.0147 174.089 65.26C173.673 65.5053 173.348 65.8413 173.113 66.268C172.878 66.684 172.761 67.164 172.761 67.708C172.761 68.2627 172.878 68.7587 173.113 69.196C173.348 69.6227 173.673 69.9587 174.089 70.204C174.505 70.4493 174.974 70.572 175.497 70.572ZM181.183 71.5V63.98H182.303V71.5H181.183ZM186.351 71.5V66.892C186.351 66.2733 186.164 65.7827 185.791 65.42C185.418 65.0467 184.948 64.86 184.383 64.86C183.999 64.86 183.647 64.9453 183.327 65.116C183.018 65.276 182.767 65.5053 182.575 65.804C182.394 66.1027 182.303 66.46 182.303 66.876L181.791 66.668C181.791 66.092 181.919 65.5907 182.175 65.164C182.431 64.7373 182.772 64.4067 183.199 64.172C183.636 63.9373 184.127 63.82 184.671 63.82C185.204 63.82 185.679 63.9373 186.095 64.172C186.522 64.4067 186.858 64.7373 187.103 65.164C187.359 65.5907 187.487 66.0973 187.487 66.684V71.5H186.351ZM191.535 71.5V66.892C191.535 66.2733 191.348 65.7827 190.975 65.42C190.602 65.0467 190.127 64.86 189.551 64.86C189.178 64.86 188.831 64.9453 188.511 65.116C188.202 65.276 187.951 65.5053 187.759 65.804C187.578 66.1027 187.487 66.46 187.487 66.876L186.815 66.668C186.847 66.092 186.996 65.5907 187.263 65.164C187.54 64.7373 187.898 64.4067 188.335 64.172C188.783 63.9373 189.274 63.82 189.807 63.82C190.34 63.82 190.82 63.9373 191.247 64.172C191.684 64.4067 192.026 64.7373 192.271 65.164C192.527 65.5907 192.655 66.0973 192.655 66.684V71.5H191.535ZM193.945 72.14L198.329 59.9H199.385L195.001 72.14H193.945ZM200.839 71.5V63.98H201.975V71.5H200.839ZM201.399 62.348C201.186 62.348 201.004 62.2733 200.855 62.124C200.706 61.964 200.631 61.7773 200.631 61.564C200.631 61.34 200.706 61.1533 200.855 61.004C201.004 60.8547 201.186 60.78 201.399 60.78C201.634 60.78 201.82 60.8547 201.959 61.004C202.108 61.1533 202.183 61.34 202.183 61.564C202.183 61.7773 202.108 61.964 201.959 62.124C201.82 62.2733 201.634 62.348 201.399 62.348ZM209.717 71.5V67.084C209.717 66.4227 209.52 65.8893 209.125 65.484C208.741 65.068 208.229 64.86 207.589 64.86C207.152 64.86 206.768 64.956 206.437 65.148C206.107 65.34 205.845 65.6013 205.653 65.932C205.461 66.2627 205.365 66.6413 205.365 67.068L204.853 66.78C204.853 66.2147 204.987 65.708 205.253 65.26C205.52 64.812 205.877 64.46 206.325 64.204C206.784 63.948 207.307 63.82 207.893 63.82C208.469 63.82 208.981 63.9587 209.429 64.236C209.877 64.5133 210.224 64.8867 210.469 65.356C210.725 65.8253 210.853 66.3373 210.853 66.892V71.5H209.717ZM204.245 71.5V63.98H205.365V71.5H204.245ZM212.133 72.14L216.516 59.9H217.573L213.189 72.14H212.133ZM218.292 71.5V63.98H219.412V71.5H218.292ZM223.46 71.5V66.892C223.46 66.2733 223.274 65.7827 222.9 65.42C222.527 65.0467 222.058 64.86 221.492 64.86C221.108 64.86 220.756 64.9453 220.436 65.116C220.127 65.276 219.876 65.5053 219.684 65.804C219.503 66.1027 219.412 66.46 219.412 66.876L218.9 66.668C218.9 66.092 219.028 65.5907 219.284 65.164C219.54 64.7373 219.882 64.4067 220.308 64.172C220.746 63.9373 221.236 63.82 221.78 63.82C222.314 63.82 222.788 63.9373 223.204 64.172C223.631 64.4067 223.967 64.7373 224.212 65.164C224.468 65.5907 224.596 66.0973 224.596 66.684V71.5H223.46ZM228.644 71.5V66.892C228.644 66.2733 228.458 65.7827 228.084 65.42C227.711 65.0467 227.236 64.86 226.66 64.86C226.287 64.86 225.94 64.9453 225.62 65.116C225.311 65.276 225.06 65.5053 224.868 65.804C224.687 66.1027 224.596 66.46 224.596 66.876L223.924 66.668C223.956 66.092 224.106 65.5907 224.372 65.164C224.65 64.7373 225.007 64.4067 225.444 64.172C225.892 63.9373 226.383 63.82 226.916 63.82C227.45 63.82 227.93 63.9373 228.356 64.172C228.794 64.4067 229.135 64.7373 229.38 65.164C229.636 65.5907 229.764 66.0973 229.764 66.684V71.5H228.644ZM235.134 71.66C234.42 71.66 233.78 71.4893 233.214 71.148C232.649 70.796 232.201 70.3267 231.87 69.74C231.55 69.1533 231.39 68.492 231.39 67.756C231.39 67.0093 231.55 66.3427 231.87 65.756C232.201 65.1587 232.649 64.6893 233.214 64.348C233.78 63.996 234.414 63.82 235.118 63.82C235.694 63.82 236.206 63.9373 236.654 64.172C237.113 64.396 237.481 64.716 237.758 65.132C238.046 65.5373 238.222 66.012 238.286 66.556V68.908C238.222 69.452 238.046 69.932 237.758 70.348C237.481 70.764 237.113 71.0893 236.654 71.324C236.206 71.548 235.7 71.66 235.134 71.66ZM235.31 70.588C236.089 70.588 236.713 70.3267 237.182 69.804C237.662 69.2813 237.902 68.5933 237.902 67.74C237.902 67.1747 237.79 66.6787 237.566 66.252C237.353 65.8147 237.049 65.4787 236.654 65.244C236.27 64.9987 235.817 64.876 235.294 64.876C234.761 64.876 234.286 64.9987 233.87 65.244C233.465 65.4893 233.14 65.8307 232.894 66.268C232.66 66.6947 232.542 67.1853 232.542 67.74C232.542 68.2947 232.66 68.7853 232.894 69.212C233.14 69.6387 233.47 69.9747 233.886 70.22C234.302 70.4653 234.777 70.588 235.31 70.588ZM237.838 71.5V69.484L238.062 67.628L237.838 65.82V63.98H238.958V71.5H237.838ZM241.23 71.5V63.98H242.366V71.5H241.23ZM241.79 62.348C241.576 62.348 241.395 62.2733 241.246 62.124C241.096 61.964 241.022 61.7773 241.022 61.564C241.022 61.34 241.096 61.1533 241.246 61.004C241.395 60.8547 241.576 60.78 241.79 60.78C242.024 60.78 242.211 60.8547 242.35 61.004C242.499 61.1533 242.574 61.34 242.574 61.564C242.574 61.7773 242.499 61.964 242.35 62.124C242.211 62.2733 242.024 62.348 241.79 62.348ZM249.484 71.5L245.644 67.644L249.42 63.98H250.812L246.7 67.932L246.732 67.292L250.972 71.5H249.484ZM244.636 71.5V60.172H245.756V71.5H244.636ZM255.166 71.66C254.451 71.66 253.811 71.4893 253.246 71.148C252.68 70.796 252.232 70.3267 251.902 69.74C251.582 69.1533 251.422 68.492 251.422 67.756C251.422 67.0093 251.582 66.3427 251.902 65.756C252.232 65.1587 252.68 64.6893 253.246 64.348C253.811 63.996 254.446 63.82 255.15 63.82C255.726 63.82 256.238 63.9373 256.686 64.172C257.144 64.396 257.512 64.716 257.79 65.132C258.078 65.5373 258.254 66.012 258.318 66.556V68.908C258.254 69.452 258.078 69.932 257.79 70.348C257.512 70.764 257.144 71.0893 256.686 71.324C256.238 71.548 255.731 71.66 255.166 71.66ZM255.342 70.588C256.12 70.588 256.744 70.3267 257.214 69.804C257.694 69.2813 257.934 68.5933 257.934 67.74C257.934 67.1747 257.822 66.6787 257.598 66.252C257.384 65.8147 257.08 65.4787 256.686 65.244C256.302 64.9987 255.848 64.876 255.326 64.876C254.792 64.876 254.318 64.9987 253.902 65.244C253.496 65.4893 253.171 65.8307 252.926 66.268C252.691 66.6947 252.574 67.1853 252.574 67.74C252.574 68.2947 252.691 68.7853 252.926 69.212C253.171 69.6387 253.502 69.9747 253.918 70.22C254.334 70.4653 254.808 70.588 255.342 70.588ZM257.87 71.5V69.484L258.094 67.628L257.87 65.82V63.98H258.99V71.5H257.87ZM261.261 71.5V60.172H262.381V71.5H261.261ZM264.652 67.98V66.908H269.756V67.98H264.652ZM274.07 71.532L270.774 63.98H272.006L274.662 70.284H274.198L276.998 63.98H278.246L274.71 71.532H274.07ZM272.022 74.668L274.086 70.396L274.71 71.532L273.254 74.668H272.022ZM282.509 71.66C281.795 71.66 281.155 71.4893 280.589 71.148C280.024 70.796 279.576 70.3267 279.245 69.74C278.925 69.1533 278.765 68.492 278.765 67.756C278.765 67.0093 278.925 66.3427 279.245 65.756C279.576 65.1587 280.024 64.6893 280.589 64.348C281.155 63.996 281.789 63.82 282.493 63.82C283.069 63.82 283.581 63.9373 284.029 64.172C284.488 64.396 284.856 64.716 285.133 65.132C285.421 65.5373 285.597 66.012 285.661 66.556V68.908C285.597 69.452 285.421 69.932 285.133 70.348C284.856 70.764 284.488 71.0893 284.029 71.324C283.581 71.548 283.075 71.66 282.509 71.66ZM282.685 70.588C283.464 70.588 284.088 70.3267 284.557 69.804C285.037 69.2813 285.277 68.5933 285.277 67.74C285.277 67.1747 285.165 66.6787 284.941 66.252C284.728 65.8147 284.424 65.4787 284.029 65.244C283.645 64.9987 283.192 64.876 282.669 64.876C282.136 64.876 281.661 64.9987 281.245 65.244C280.84 65.4893 280.515 65.8307 280.269 66.268C280.035 66.6947 279.917 67.1853 279.917 67.74C279.917 68.2947 280.035 68.7853 280.269 69.212C280.515 69.6387 280.845 69.9747 281.261 70.22C281.677 70.4653 282.152 70.588 282.685 70.588ZM285.213 71.5V69.484L285.437 67.628L285.213 65.82V63.98H286.333V71.5H285.213ZM288.605 71.5V63.98H289.725V71.5H288.605ZM293.773 71.5V66.892C293.773 66.2733 293.586 65.7827 293.213 65.42C292.839 65.0467 292.37 64.86 291.805 64.86C291.421 64.86 291.069 64.9453 290.749 65.116C290.439 65.276 290.189 65.5053 289.997 65.804C289.815 66.1027 289.725 66.46 289.725 66.876L289.213 66.668C289.213 66.092 289.341 65.5907 289.597 65.164C289.853 64.7373 290.194 64.4067 290.621 64.172C291.058 63.9373 291.549 63.82 292.093 63.82C292.626 63.82 293.101 63.9373 293.517 64.172C293.943 64.4067 294.279 64.7373 294.525 65.164C294.781 65.5907 294.909 66.0973 294.909 66.684V71.5H293.773ZM298.957 71.5V66.892C298.957 66.2733 298.77 65.7827 298.397 65.42C298.023 65.0467 297.549 64.86 296.973 64.86C296.599 64.86 296.253 64.9453 295.933 65.116C295.623 65.276 295.373 65.5053 295.181 65.804C294.999 66.1027 294.909 66.46 294.909 66.876L294.237 66.668C294.269 66.092 294.418 65.5907 294.685 65.164C294.962 64.7373 295.319 64.4067 295.757 64.172C296.205 63.9373 296.695 63.82 297.229 63.82C297.762 63.82 298.242 63.9373 298.669 64.172C299.106 64.4067 299.447 64.7373 299.693 65.164C299.949 65.5907 300.077 66.0973 300.077 66.684V71.5H298.957ZM305.447 71.66C304.732 71.66 304.092 71.4893 303.527 71.148C302.962 70.796 302.514 70.3267 302.183 69.74C301.863 69.1533 301.703 68.492 301.703 67.756C301.703 67.0093 301.863 66.3427 302.183 65.756C302.514 65.1587 302.962 64.6893 303.527 64.348C304.092 63.996 304.727 63.82 305.431 63.82C306.007 63.82 306.519 63.9373 306.967 64.172C307.426 64.396 307.794 64.716 308.071 65.132C308.359 65.5373 308.535 66.012 308.599 66.556V68.908C308.535 69.452 308.359 69.932 308.071 70.348C307.794 70.764 307.426 71.0893 306.967 71.324C306.519 71.548 306.012 71.66 305.447 71.66ZM305.623 70.588C306.402 70.588 307.026 70.3267 307.495 69.804C307.975 69.2813 308.215 68.5933 308.215 67.74C308.215 67.1747 308.103 66.6787 307.879 66.252C307.666 65.8147 307.362 65.4787 306.967 65.244C306.583 64.9987 306.13 64.876 305.607 64.876C305.074 64.876 304.599 64.9987 304.183 65.244C303.778 65.4893 303.452 65.8307 303.207 66.268C302.972 66.6947 302.855 67.1853 302.855 67.74C302.855 68.2947 302.972 68.7853 303.207 69.212C303.452 69.6387 303.783 69.9747 304.199 70.22C304.615 70.4653 305.09 70.588 305.623 70.588ZM308.151 71.5V69.484L308.375 67.628L308.151 65.82V63.98H309.271V71.5H308.151ZM314.518 71.66C313.91 71.66 313.366 71.5213 312.886 71.244C312.406 70.956 312.028 70.5667 311.75 70.076C311.484 69.5853 311.35 69.0093 311.35 68.348V63.98H312.486V68.3C312.486 68.7587 312.566 69.1587 312.726 69.5C312.897 69.8413 313.137 70.108 313.446 70.3C313.756 70.492 314.113 70.588 314.518 70.588C315.148 70.588 315.644 70.38 316.006 69.964C316.38 69.548 316.566 68.9933 316.566 68.3V63.98H317.686V68.348C317.686 68.9987 317.553 69.5747 317.286 70.076C317.02 70.5773 316.646 70.9667 316.166 71.244C315.686 71.5213 315.137 71.66 314.518 71.66ZM323.201 71.66C322.465 71.66 321.798 71.4893 321.201 71.148C320.614 70.796 320.145 70.3213 319.793 69.724C319.451 69.1267 319.281 68.46 319.281 67.724C319.281 66.988 319.451 66.3267 319.793 65.74C320.145 65.1427 320.614 64.6733 321.201 64.332C321.798 63.9907 322.465 63.82 323.201 63.82C323.766 63.82 324.294 63.9267 324.785 64.14C325.275 64.3533 325.691 64.652 326.033 65.036L325.297 65.788C325.041 65.5 324.731 65.2813 324.369 65.132C324.006 64.972 323.617 64.892 323.201 64.892C322.667 64.892 322.193 65.0147 321.777 65.26C321.361 65.5053 321.035 65.8413 320.801 66.268C320.566 66.684 320.449 67.1693 320.449 67.724C320.449 68.268 320.566 68.7587 320.801 69.196C321.035 69.6227 321.361 69.9587 321.777 70.204C322.193 70.4493 322.667 70.572 323.201 70.572C323.627 70.572 324.022 70.4973 324.385 70.348C324.747 70.188 325.057 69.964 325.313 69.676L326.065 70.428C325.713 70.8227 325.286 71.1267 324.785 71.34C324.294 71.5533 323.766 71.66 323.201 71.66ZM333.108 71.5V67.084C333.108 66.4227 332.911 65.8893 332.516 65.484C332.132 65.068 331.62 64.86 330.98 64.86C330.543 64.86 330.159 64.956 329.828 65.148C329.497 65.34 329.236 65.6013 329.044 65.932C328.852 66.2627 328.756 66.6413 328.756 67.068L328.244 66.78C328.244 66.2147 328.377 65.708 328.644 65.26C328.911 64.812 329.268 64.46 329.716 64.204C330.175 63.948 330.697 63.82 331.284 63.82C331.86 63.82 332.372 63.9533 332.82 64.22C333.268 64.476 333.615 64.8333 333.86 65.292C334.116 65.7507 334.244 66.284 334.244 66.892V71.5H333.108ZM327.636 71.5V60.172H328.756V71.5H327.636ZM336.339 71.5V63.98H337.475V71.5H336.339ZM336.899 62.348C336.686 62.348 336.504 62.2733 336.355 62.124C336.206 61.964 336.131 61.7773 336.131 61.564C336.131 61.34 336.206 61.1533 336.355 61.004C336.504 60.8547 336.686 60.78 336.899 60.78C337.134 60.78 337.32 60.8547 337.459 61.004C337.608 61.1533 337.683 61.34 337.683 61.564C337.683 61.7773 337.608 61.964 337.459 62.124C337.32 62.2733 337.134 62.348 336.899 62.348ZM338.929 72.14L343.313 59.9H344.369L339.985 72.14H338.929Z" fill="black"/>
    <path d="M22.608 98.5V94.084C22.608 93.4227 22.4107 92.8893 22.016 92.484C21.632 92.068 21.12 91.86 20.48 91.86C20.0427 91.86 19.6587 91.956 19.328 92.148C18.9973 92.34 18.736 92.6013 18.544 92.932C18.352 93.2627 18.256 93.6413 18.256 94.068L17.744 93.78C17.744 93.2147 17.8773 92.708 18.144 92.26C18.4107 91.812 18.768 91.46 19.216 91.204C19.6747 90.948 20.1973 90.82 20.784 90.82C21.36 90.82 21.872 90.9533 22.32 91.22C22.768 91.476 23.1147 91.8333 23.36 92.292C23.616 92.7507 23.744 93.284 23.744 93.892V98.5H22.608ZM17.136 98.5V87.172H18.256V98.5H17.136ZM27.0071 98.5V87.812H28.1431V98.5H27.0071ZM25.1031 91.988V90.98H34.4471V91.988H25.1031ZM31.4231 98.5V87.812H32.5591V98.5H31.4231ZM39.8678 98.66C39.2918 98.66 38.7744 98.5427 38.3158 98.308C37.8571 98.0733 37.4784 97.7533 37.1798 97.348C36.8918 96.932 36.7158 96.452 36.6518 95.908V93.556C36.7158 93.0013 36.8971 92.5213 37.1957 92.116C37.4944 91.7 37.8731 91.38 38.3318 91.156C38.8011 90.932 39.3131 90.82 39.8678 90.82C40.5611 90.82 41.1851 90.996 41.7398 91.348C42.2944 91.6893 42.7318 92.1587 43.0518 92.756C43.3824 93.3427 43.5478 94.0093 43.5478 94.756C43.5478 95.492 43.3878 96.1533 43.0677 96.74C42.7478 97.3267 42.3051 97.796 41.7398 98.148C41.1851 98.4893 40.5611 98.66 39.8678 98.66ZM39.6758 97.588C40.2091 97.588 40.6784 97.4707 41.0838 97.236C41.4891 96.9907 41.8038 96.6547 42.0278 96.228C42.2624 95.7907 42.3798 95.2947 42.3798 94.74C42.3798 94.1747 42.2624 93.6787 42.0278 93.252C41.8038 92.8253 41.4891 92.4893 41.0838 92.244C40.6784 91.9987 40.2144 91.876 39.6918 91.876C39.1691 91.876 38.7051 91.9987 38.2998 92.244C37.9051 92.4893 37.5958 92.8253 37.3718 93.252C37.1478 93.6787 37.0358 94.1747 37.0358 94.74C37.0358 95.2947 37.1478 95.7907 37.3718 96.228C37.5958 96.6547 37.9051 96.9907 38.2998 97.236C38.6944 97.4707 39.1531 97.588 39.6758 97.588ZM35.9798 101.668V90.98H37.0998V92.9L36.8758 94.724L37.0998 96.564V101.668H35.9798ZM47.6431 98.66C47.2378 98.66 46.8485 98.6067 46.4751 98.5C46.1018 98.3827 45.7605 98.2227 45.4511 98.02C45.1525 97.8173 44.8911 97.5773 44.6671 97.3L45.3871 96.564C45.6858 96.9267 46.0218 97.1987 46.3951 97.38C46.7791 97.5507 47.2058 97.636 47.6751 97.636C48.1765 97.636 48.5658 97.54 48.8431 97.348C49.1311 97.156 49.2751 96.8893 49.2751 96.548C49.2751 96.228 49.1738 95.9773 48.9711 95.796C48.7685 95.6147 48.5071 95.4707 48.1871 95.364C47.8778 95.2573 47.5471 95.156 47.1951 95.06C46.8431 94.9533 46.5071 94.8253 46.1871 94.676C45.8671 94.516 45.6058 94.2973 45.4031 94.02C45.2111 93.7427 45.1151 93.38 45.1151 92.932C45.1151 92.5053 45.2165 92.1373 45.4191 91.828C45.6325 91.508 45.9311 91.2627 46.3151 91.092C46.7098 90.9107 47.1738 90.82 47.7071 90.82C48.2725 90.82 48.7845 90.9213 49.2431 91.124C49.7018 91.3267 50.0698 91.6253 50.3471 92.02L49.6271 92.74C49.4031 92.452 49.1205 92.2333 48.7791 92.084C48.4485 91.924 48.0751 91.844 47.6591 91.844C47.1791 91.844 46.8111 91.94 46.5551 92.132C46.3098 92.3133 46.1871 92.5533 46.1871 92.852C46.1871 93.14 46.2885 93.3693 46.4911 93.54C46.6938 93.7 46.9498 93.8333 47.2591 93.94C47.5791 94.036 47.9151 94.1373 48.2671 94.244C48.6191 94.34 48.9551 94.4733 49.2751 94.644C49.5951 94.804 49.8511 95.028 50.0431 95.316C50.2458 95.5933 50.3471 95.972 50.3471 96.452C50.3471 97.124 50.1018 97.6627 49.6111 98.068C49.1311 98.4627 48.4751 98.66 47.6431 98.66ZM53.1444 98.66C52.8777 98.66 52.659 98.5693 52.4884 98.388C52.3284 98.2067 52.2484 97.9933 52.2484 97.748C52.2484 97.4813 52.3284 97.2627 52.4884 97.092C52.659 96.9107 52.8777 96.82 53.1444 96.82C53.4004 96.82 53.6137 96.9107 53.7844 97.092C53.9657 97.2627 54.0564 97.4813 54.0564 97.748C54.0564 97.9933 53.9657 98.2067 53.7844 98.388C53.6137 98.5693 53.4004 98.66 53.1444 98.66ZM53.1444 93.62C52.8777 93.62 52.659 93.5293 52.4884 93.348C52.3284 93.1667 52.2484 92.9533 52.2484 92.708C52.2484 92.4413 52.3284 92.2227 52.4884 92.052C52.659 91.8813 52.8777 91.796 53.1444 91.796C53.4004 91.796 53.6137 91.8813 53.7844 92.052C53.9657 92.2227 54.0564 92.4413 54.0564 92.708C54.0564 92.9533 53.9657 93.1667 53.7844 93.348C53.6137 93.5293 53.4004 93.62 53.1444 93.62ZM55.6169 99.14L60.0009 86.9H61.0569L56.6729 99.14H55.6169ZM61.695 99.14L66.079 86.9H67.135L62.751 99.14H61.695ZM70.2008 98.5L67.3048 90.98H68.4728L70.7608 97.22L70.3448 97.236L72.6168 90.98H73.2728L75.5448 97.236L75.1288 97.22L77.4008 90.98H78.5848L75.6728 98.5H75.0168L72.6968 92.34H73.1768L70.8728 98.5H70.2008ZM81.7789 98.5L78.8829 90.98H80.0509L82.3389 97.22L81.9229 97.236L84.1949 90.98H84.8509L87.1229 97.236L86.7069 97.22L88.9789 90.98H90.1629L87.2509 98.5H86.5949L84.2749 92.34H84.7549L82.4509 98.5H81.7789ZM93.357 98.5L90.461 90.98H91.629L93.917 97.22L93.501 97.236L95.773 90.98H96.429L98.701 97.236L98.285 97.22L100.557 90.98H101.741L98.829 98.5H98.173L95.853 92.34H96.333L94.029 98.5H93.357ZM103.82 98.66C103.553 98.66 103.335 98.5693 103.164 98.388C102.993 98.2067 102.908 97.988 102.908 97.732C102.908 97.476 102.993 97.2627 103.164 97.092C103.335 96.9107 103.553 96.82 103.82 96.82C104.076 96.82 104.289 96.9107 104.46 97.092C104.631 97.2627 104.716 97.476 104.716 97.732C104.716 97.988 104.631 98.2067 104.46 98.388C104.289 98.5693 104.076 98.66 103.82 98.66ZM107.261 98.5V87.172H108.381V98.5H107.261ZM110.652 98.5V90.98H111.788V98.5H110.652ZM111.212 89.348C110.998 89.348 110.817 89.2733 110.668 89.124C110.518 88.964 110.444 88.7773 110.444 88.564C110.444 88.34 110.518 88.1533 110.668 88.004C110.817 87.8547 110.998 87.78 111.212 87.78C111.446 87.78 111.633 87.8547 111.772 88.004C111.921 88.1533 111.996 88.34 111.996 88.564C111.996 88.7773 111.921 88.964 111.772 89.124C111.633 89.2733 111.446 89.348 111.212 89.348ZM119.53 98.5V94.084C119.53 93.4227 119.333 92.8893 118.938 92.484C118.554 92.068 118.042 91.86 117.402 91.86C116.965 91.86 116.581 91.956 116.25 92.148C115.919 92.34 115.658 92.6013 115.466 92.932C115.274 93.2627 115.178 93.6413 115.178 94.068L114.666 93.78C114.666 93.2147 114.799 92.708 115.066 92.26C115.333 91.812 115.69 91.46 116.138 91.204C116.597 90.948 117.119 90.82 117.706 90.82C118.282 90.82 118.794 90.9587 119.242 91.236C119.69 91.5133 120.037 91.8867 120.282 92.356C120.538 92.8253 120.666 93.3373 120.666 93.892V98.5H119.53ZM114.058 98.5V90.98H115.178V98.5H114.058ZM127.609 98.5L123.769 94.644L127.545 90.98H128.937L124.825 94.932L124.857 94.292L129.097 98.5H127.609ZM122.761 98.5V87.172H123.881V98.5H122.761ZM133.499 98.66C132.741 98.66 132.064 98.4893 131.467 98.148C130.869 97.8067 130.395 97.3373 130.043 96.74C129.701 96.1427 129.531 95.4707 129.531 94.724C129.531 93.988 129.701 93.3267 130.043 92.74C130.384 92.1427 130.848 91.6733 131.435 91.332C132.021 90.9907 132.677 90.82 133.403 90.82C134.085 90.82 134.688 90.9747 135.211 91.284C135.744 91.5933 136.16 92.0253 136.459 92.58C136.768 93.124 136.923 93.7533 136.923 94.468C136.923 94.5533 136.917 94.6547 136.907 94.772C136.896 94.8787 136.875 95.0067 136.843 95.156H130.331V94.196H136.235L135.835 94.548C135.845 93.9933 135.749 93.5187 135.547 93.124C135.355 92.7187 135.072 92.4093 134.699 92.196C134.336 91.972 133.893 91.86 133.371 91.86C132.827 91.86 132.352 91.9773 131.947 92.212C131.541 92.4467 131.221 92.7773 130.987 93.204C130.763 93.62 130.651 94.116 130.651 94.692C130.651 95.268 130.768 95.7747 131.003 96.212C131.248 96.6493 131.584 96.9907 132.011 97.236C132.448 97.4813 132.949 97.604 133.515 97.604C133.973 97.604 134.395 97.524 134.779 97.364C135.163 97.1933 135.488 96.9427 135.755 96.612L136.475 97.348C136.123 97.764 135.685 98.0893 135.163 98.324C134.651 98.548 134.096 98.66 133.499 98.66ZM141.836 98.66C141.143 98.66 140.519 98.4893 139.964 98.148C139.409 97.8067 138.967 97.3427 138.636 96.756C138.316 96.1587 138.156 95.492 138.156 94.756C138.156 94.0093 138.316 93.3427 138.636 92.756C138.967 92.1587 139.409 91.6893 139.964 91.348C140.519 90.996 141.143 90.82 141.836 90.82C142.401 90.82 142.913 90.932 143.372 91.156C143.831 91.38 144.209 91.7 144.508 92.116C144.817 92.5213 144.999 93.0013 145.052 93.556V95.908C144.988 96.452 144.807 96.932 144.508 97.348C144.22 97.7533 143.847 98.0733 143.388 98.308C142.929 98.5427 142.412 98.66 141.836 98.66ZM142.028 97.588C142.551 97.588 143.009 97.4707 143.404 97.236C143.799 96.9907 144.108 96.6547 144.332 96.228C144.556 95.7907 144.668 95.2947 144.668 94.74C144.668 94.1747 144.551 93.6787 144.316 93.252C144.092 92.8253 143.783 92.4893 143.388 92.244C142.993 91.9987 142.535 91.876 142.012 91.876C141.489 91.876 141.025 91.9987 140.62 92.244C140.215 92.4893 139.895 92.8307 139.66 93.268C139.436 93.6947 139.324 94.1853 139.324 94.74C139.324 95.2947 139.436 95.7907 139.66 96.228C139.895 96.6547 140.215 96.9907 140.62 97.236C141.036 97.4707 141.505 97.588 142.028 97.588ZM145.724 98.5H144.604V96.484L144.828 94.628L144.604 92.82V87.172H145.724V98.5ZM147.995 98.5V90.98H149.131V98.5H147.995ZM148.555 89.348C148.342 89.348 148.161 89.2733 148.011 89.124C147.862 88.964 147.787 88.7773 147.787 88.564C147.787 88.34 147.862 88.1533 148.011 88.004C148.161 87.8547 148.342 87.78 148.555 87.78C148.79 87.78 148.977 87.8547 149.115 88.004C149.265 88.1533 149.339 88.34 149.339 88.564C149.339 88.7773 149.265 88.964 149.115 89.124C148.977 89.2733 148.79 89.348 148.555 89.348ZM156.874 98.5V94.084C156.874 93.4227 156.676 92.8893 156.282 92.484C155.898 92.068 155.386 91.86 154.746 91.86C154.308 91.86 153.924 91.956 153.594 92.148C153.263 92.34 153.002 92.6013 152.81 92.932C152.618 93.2627 152.522 93.6413 152.522 94.068L152.01 93.78C152.01 93.2147 152.143 92.708 152.41 92.26C152.676 91.812 153.034 91.46 153.482 91.204C153.94 90.948 154.463 90.82 155.05 90.82C155.626 90.82 156.138 90.9587 156.586 91.236C157.034 91.5133 157.38 91.8867 157.626 92.356C157.882 92.8253 158.01 93.3373 158.01 93.892V98.5H156.874ZM151.402 98.5V90.98H152.522V98.5H151.402ZM161.289 98.66C161.022 98.66 160.803 98.5693 160.633 98.388C160.462 98.2067 160.377 97.988 160.377 97.732C160.377 97.476 160.462 97.2627 160.633 97.092C160.803 96.9107 161.022 96.82 161.289 96.82C161.545 96.82 161.758 96.9107 161.929 97.092C162.099 97.2627 162.185 97.476 162.185 97.732C162.185 97.988 162.099 98.2067 161.929 98.388C161.758 98.5693 161.545 98.66 161.289 98.66ZM167.794 98.66C167.058 98.66 166.392 98.4893 165.794 98.148C165.208 97.796 164.738 97.3213 164.386 96.724C164.045 96.1267 163.874 95.46 163.874 94.724C163.874 93.988 164.045 93.3267 164.386 92.74C164.738 92.1427 165.208 91.6733 165.794 91.332C166.392 90.9907 167.058 90.82 167.794 90.82C168.36 90.82 168.888 90.9267 169.378 91.14C169.869 91.3533 170.285 91.652 170.626 92.036L169.89 92.788C169.634 92.5 169.325 92.2813 168.962 92.132C168.6 91.972 168.21 91.892 167.794 91.892C167.261 91.892 166.786 92.0147 166.37 92.26C165.954 92.5053 165.629 92.8413 165.394 93.268C165.16 93.684 165.042 94.1693 165.042 94.724C165.042 95.268 165.16 95.7587 165.394 96.196C165.629 96.6227 165.954 96.9587 166.37 97.204C166.786 97.4493 167.261 97.572 167.794 97.572C168.221 97.572 168.616 97.4973 168.978 97.348C169.341 97.188 169.65 96.964 169.906 96.676L170.658 97.428C170.306 97.8227 169.88 98.1267 169.378 98.34C168.888 98.5533 168.36 98.66 167.794 98.66ZM175.497 98.66C174.772 98.66 174.11 98.484 173.513 98.132C172.926 97.78 172.457 97.3053 172.105 96.708C171.764 96.1107 171.593 95.444 171.593 94.708C171.593 93.9827 171.764 93.3267 172.105 92.74C172.457 92.1533 172.926 91.6893 173.513 91.348C174.11 90.996 174.772 90.82 175.497 90.82C176.233 90.82 176.894 90.9907 177.481 91.332C178.068 91.6733 178.532 92.1427 178.873 92.74C179.225 93.3267 179.401 93.9827 179.401 94.708C179.401 95.4547 179.225 96.1267 178.873 96.724C178.532 97.3107 178.068 97.78 177.481 98.132C176.894 98.484 176.233 98.66 175.497 98.66ZM175.497 97.572C176.03 97.572 176.5 97.4493 176.905 97.204C177.321 96.9587 177.646 96.6173 177.881 96.18C178.126 95.7427 178.249 95.252 178.249 94.708C178.249 94.164 178.126 93.684 177.881 93.268C177.646 92.8413 177.321 92.5053 176.905 92.26C176.5 92.0147 176.03 91.892 175.497 91.892C174.974 91.892 174.505 92.0147 174.089 92.26C173.673 92.5053 173.348 92.8413 173.113 93.268C172.878 93.684 172.761 94.164 172.761 94.708C172.761 95.2627 172.878 95.7587 173.113 96.196C173.348 96.6227 173.673 96.9587 174.089 97.204C174.505 97.4493 174.974 97.572 175.497 97.572ZM181.183 98.5V90.98H182.303V98.5H181.183ZM186.351 98.5V93.892C186.351 93.2733 186.164 92.7827 185.791 92.42C185.418 92.0467 184.948 91.86 184.383 91.86C183.999 91.86 183.647 91.9453 183.327 92.116C183.018 92.276 182.767 92.5053 182.575 92.804C182.394 93.1027 182.303 93.46 182.303 93.876L181.791 93.668C181.791 93.092 181.919 92.5907 182.175 92.164C182.431 91.7373 182.772 91.4067 183.199 91.172C183.636 90.9373 184.127 90.82 184.671 90.82C185.204 90.82 185.679 90.9373 186.095 91.172C186.522 91.4067 186.858 91.7373 187.103 92.164C187.359 92.5907 187.487 93.0973 187.487 93.684V98.5H186.351ZM191.535 98.5V93.892C191.535 93.2733 191.348 92.7827 190.975 92.42C190.602 92.0467 190.127 91.86 189.551 91.86C189.178 91.86 188.831 91.9453 188.511 92.116C188.202 92.276 187.951 92.5053 187.759 92.804C187.578 93.1027 187.487 93.46 187.487 93.876L186.815 93.668C186.847 93.092 186.996 92.5907 187.263 92.164C187.54 91.7373 187.898 91.4067 188.335 91.172C188.783 90.9373 189.274 90.82 189.807 90.82C190.34 90.82 190.82 90.9373 191.247 91.172C191.684 91.4067 192.026 91.7373 192.271 92.164C192.527 92.5907 192.655 93.0973 192.655 93.684V98.5H191.535ZM193.945 99.14L198.329 86.9H199.385L195.001 99.14H193.945ZM200.839 98.5V90.98H201.975V98.5H200.839ZM201.399 89.348C201.186 89.348 201.004 89.2733 200.855 89.124C200.706 88.964 200.631 88.7773 200.631 88.564C200.631 88.34 200.706 88.1533 200.855 88.004C201.004 87.8547 201.186 87.78 201.399 87.78C201.634 87.78 201.82 87.8547 201.959 88.004C202.108 88.1533 202.183 88.34 202.183 88.564C202.183 88.7773 202.108 88.964 201.959 89.124C201.82 89.2733 201.634 89.348 201.399 89.348ZM209.717 98.5V94.084C209.717 93.4227 209.52 92.8893 209.125 92.484C208.741 92.068 208.229 91.86 207.589 91.86C207.152 91.86 206.768 91.956 206.437 92.148C206.107 92.34 205.845 92.6013 205.653 92.932C205.461 93.2627 205.365 93.6413 205.365 94.068L204.853 93.78C204.853 93.2147 204.987 92.708 205.253 92.26C205.52 91.812 205.877 91.46 206.325 91.204C206.784 90.948 207.307 90.82 207.893 90.82C208.469 90.82 208.981 90.9587 209.429 91.236C209.877 91.5133 210.224 91.8867 210.469 92.356C210.725 92.8253 210.853 93.3373 210.853 93.892V98.5H209.717ZM204.245 98.5V90.98H205.365V98.5H204.245ZM212.133 99.14L216.516 86.9H217.573L213.189 99.14H212.133ZM218.292 98.5V90.98H219.412V98.5H218.292ZM223.46 98.5V93.892C223.46 93.2733 223.274 92.7827 222.9 92.42C222.527 92.0467 222.058 91.86 221.492 91.86C221.108 91.86 220.756 91.9453 220.436 92.116C220.127 92.276 219.876 92.5053 219.684 92.804C219.503 93.1027 219.412 93.46 219.412 93.876L218.9 93.668C218.9 93.092 219.028 92.5907 219.284 92.164C219.54 91.7373 219.882 91.4067 220.308 91.172C220.746 90.9373 221.236 90.82 221.78 90.82C222.314 90.82 222.788 90.9373 223.204 91.172C223.631 91.4067 223.967 91.7373 224.212 92.164C224.468 92.5907 224.596 93.0973 224.596 93.684V98.5H223.46ZM228.644 98.5V93.892C228.644 93.2733 228.458 92.7827 228.084 92.42C227.711 92.0467 227.236 91.86 226.66 91.86C226.287 91.86 225.94 91.9453 225.62 92.116C225.311 92.276 225.06 92.5053 224.868 92.804C224.687 93.1027 224.596 93.46 224.596 93.876L223.924 93.668C223.956 93.092 224.106 92.5907 224.372 92.164C224.65 91.7373 225.007 91.4067 225.444 91.172C225.892 90.9373 226.383 90.82 226.916 90.82C227.45 90.82 227.93 90.9373 228.356 91.172C228.794 91.4067 229.135 91.7373 229.38 92.164C229.636 92.5907 229.764 93.0973 229.764 93.684V98.5H228.644ZM235.134 98.66C234.42 98.66 233.78 98.4893 233.214 98.148C232.649 97.796 232.201 97.3267 231.87 96.74C231.55 96.1533 231.39 95.492 231.39 94.756C231.39 94.0093 231.55 93.3427 231.87 92.756C232.201 92.1587 232.649 91.6893 233.214 91.348C233.78 90.996 234.414 90.82 235.118 90.82C235.694 90.82 236.206 90.9373 236.654 91.172C237.113 91.396 237.481 91.716 237.758 92.132C238.046 92.5373 238.222 93.012 238.286 93.556V95.908C238.222 96.452 238.046 96.932 237.758 97.348C237.481 97.764 237.113 98.0893 236.654 98.324C236.206 98.548 235.7 98.66 235.134 98.66ZM235.31 97.588C236.089 97.588 236.713 97.3267 237.182 96.804C237.662 96.2813 237.902 95.5933 237.902 94.74C237.902 94.1747 237.79 93.6787 237.566 93.252C237.353 92.8147 237.049 92.4787 236.654 92.244C236.27 91.9987 235.817 91.876 235.294 91.876C234.761 91.876 234.286 91.9987 233.87 92.244C233.465 92.4893 233.14 92.8307 232.894 93.268C232.66 93.6947 232.542 94.1853 232.542 94.74C232.542 95.2947 232.66 95.7853 232.894 96.212C233.14 96.6387 233.47 96.9747 233.886 97.22C234.302 97.4653 234.777 97.588 235.31 97.588ZM237.838 98.5V96.484L238.062 94.628L237.838 92.82V90.98H238.958V98.5H237.838ZM241.23 98.5V90.98H242.366V98.5H241.23ZM241.79 89.348C241.576 89.348 241.395 89.2733 241.246 89.124C241.096 88.964 241.022 88.7773 241.022 88.564C241.022 88.34 241.096 88.1533 241.246 88.004C241.395 87.8547 241.576 87.78 241.79 87.78C242.024 87.78 242.211 87.8547 242.35 88.004C242.499 88.1533 242.574 88.34 242.574 88.564C242.574 88.7773 242.499 88.964 242.35 89.124C242.211 89.2733 242.024 89.348 241.79 89.348ZM249.484 98.5L245.644 94.644L249.42 90.98H250.812L246.7 94.932L246.732 94.292L250.972 98.5H249.484ZM244.636 98.5V87.172H245.756V98.5H244.636ZM255.166 98.66C254.451 98.66 253.811 98.4893 253.246 98.148C252.68 97.796 252.232 97.3267 251.902 96.74C251.582 96.1533 251.422 95.492 251.422 94.756C251.422 94.0093 251.582 93.3427 251.902 92.756C252.232 92.1587 252.68 91.6893 253.246 91.348C253.811 90.996 254.446 90.82 255.15 90.82C255.726 90.82 256.238 90.9373 256.686 91.172C257.144 91.396 257.512 91.716 257.79 92.132C258.078 92.5373 258.254 93.012 258.318 93.556V95.908C258.254 96.452 258.078 96.932 257.79 97.348C257.512 97.764 257.144 98.0893 256.686 98.324C256.238 98.548 255.731 98.66 255.166 98.66ZM255.342 97.588C256.12 97.588 256.744 97.3267 257.214 96.804C257.694 96.2813 257.934 95.5933 257.934 94.74C257.934 94.1747 257.822 93.6787 257.598 93.252C257.384 92.8147 257.08 92.4787 256.686 92.244C256.302 91.9987 255.848 91.876 255.326 91.876C254.792 91.876 254.318 91.9987 253.902 92.244C253.496 92.4893 253.171 92.8307 252.926 93.268C252.691 93.6947 252.574 94.1853 252.574 94.74C252.574 95.2947 252.691 95.7853 252.926 96.212C253.171 96.6387 253.502 96.9747 253.918 97.22C254.334 97.4653 254.808 97.588 255.342 97.588ZM257.87 98.5V96.484L258.094 94.628L257.87 92.82V90.98H258.99V98.5H257.87ZM261.261 98.5V87.172H262.381V98.5H261.261ZM264.652 94.98V93.908H269.756V94.98H264.652ZM274.07 98.532L270.774 90.98H272.006L274.662 97.284H274.198L276.998 90.98H278.246L274.71 98.532H274.07ZM272.022 101.668L274.086 97.396L274.71 98.532L273.254 101.668H272.022ZM282.509 98.66C281.795 98.66 281.155 98.4893 280.589 98.148C280.024 97.796 279.576 97.3267 279.245 96.74C278.925 96.1533 278.765 95.492 278.765 94.756C278.765 94.0093 278.925 93.3427 279.245 92.756C279.576 92.1587 280.024 91.6893 280.589 91.348C281.155 90.996 281.789 90.82 282.493 90.82C283.069 90.82 283.581 90.9373 284.029 91.172C284.488 91.396 284.856 91.716 285.133 92.132C285.421 92.5373 285.597 93.012 285.661 93.556V95.908C285.597 96.452 285.421 96.932 285.133 97.348C284.856 97.764 284.488 98.0893 284.029 98.324C283.581 98.548 283.075 98.66 282.509 98.66ZM282.685 97.588C283.464 97.588 284.088 97.3267 284.557 96.804C285.037 96.2813 285.277 95.5933 285.277 94.74C285.277 94.1747 285.165 93.6787 284.941 93.252C284.728 92.8147 284.424 92.4787 284.029 92.244C283.645 91.9987 283.192 91.876 282.669 91.876C282.136 91.876 281.661 91.9987 281.245 92.244C280.84 92.4893 280.515 92.8307 280.269 93.268C280.035 93.6947 279.917 94.1853 279.917 94.74C279.917 95.2947 280.035 95.7853 280.269 96.212C280.515 96.6387 280.845 96.9747 281.261 97.22C281.677 97.4653 282.152 97.588 282.685 97.588ZM285.213 98.5V96.484L285.437 94.628L285.213 92.82V90.98H286.333V98.5H285.213ZM288.605 98.5V90.98H289.725V98.5H288.605ZM293.773 98.5V93.892C293.773 93.2733 293.586 92.7827 293.213 92.42C292.839 92.0467 292.37 91.86 291.805 91.86C291.421 91.86 291.069 91.9453 290.749 92.116C290.439 92.276 290.189 92.5053 289.997 92.804C289.815 93.1027 289.725 93.46 289.725 93.876L289.213 93.668C289.213 93.092 289.341 92.5907 289.597 92.164C289.853 91.7373 290.194 91.4067 290.621 91.172C291.058 90.9373 291.549 90.82 292.093 90.82C292.626 90.82 293.101 90.9373 293.517 91.172C293.943 91.4067 294.279 91.7373 294.525 92.164C294.781 92.5907 294.909 93.0973 294.909 93.684V98.5H293.773ZM298.957 98.5V93.892C298.957 93.2733 298.77 92.7827 298.397 92.42C298.023 92.0467 297.549 91.86 296.973 91.86C296.599 91.86 296.253 91.9453 295.933 92.116C295.623 92.276 295.373 92.5053 295.181 92.804C294.999 93.1027 294.909 93.46 294.909 93.876L294.237 93.668C294.269 93.092 294.418 92.5907 294.685 92.164C294.962 91.7373 295.319 91.4067 295.757 91.172C296.205 90.9373 296.695 90.82 297.229 90.82C297.762 90.82 298.242 90.9373 298.669 91.172C299.106 91.4067 299.447 91.7373 299.693 92.164C299.949 92.5907 300.077 93.0973 300.077 93.684V98.5H298.957ZM305.447 98.66C304.732 98.66 304.092 98.4893 303.527 98.148C302.962 97.796 302.514 97.3267 302.183 96.74C301.863 96.1533 301.703 95.492 301.703 94.756C301.703 94.0093 301.863 93.3427 302.183 92.756C302.514 92.1587 302.962 91.6893 303.527 91.348C304.092 90.996 304.727 90.82 305.431 90.82C306.007 90.82 306.519 90.9373 306.967 91.172C307.426 91.396 307.794 91.716 308.071 92.132C308.359 92.5373 308.535 93.012 308.599 93.556V95.908C308.535 96.452 308.359 96.932 308.071 97.348C307.794 97.764 307.426 98.0893 306.967 98.324C306.519 98.548 306.012 98.66 305.447 98.66ZM305.623 97.588C306.402 97.588 307.026 97.3267 307.495 96.804C307.975 96.2813 308.215 95.5933 308.215 94.74C308.215 94.1747 308.103 93.6787 307.879 93.252C307.666 92.8147 307.362 92.4787 306.967 92.244C306.583 91.9987 306.13 91.876 305.607 91.876C305.074 91.876 304.599 91.9987 304.183 92.244C303.778 92.4893 303.452 92.8307 303.207 93.268C302.972 93.6947 302.855 94.1853 302.855 94.74C302.855 95.2947 302.972 95.7853 303.207 96.212C303.452 96.6387 303.783 96.9747 304.199 97.22C304.615 97.4653 305.09 97.588 305.623 97.588ZM308.151 98.5V96.484L308.375 94.628L308.151 92.82V90.98H309.271V98.5H308.151ZM314.518 98.66C313.91 98.66 313.366 98.5213 312.886 98.244C312.406 97.956 312.028 97.5667 311.75 97.076C311.484 96.5853 311.35 96.0093 311.35 95.348V90.98H312.486V95.3C312.486 95.7587 312.566 96.1587 312.726 96.5C312.897 96.8413 313.137 97.108 313.446 97.3C313.756 97.492 314.113 97.588 314.518 97.588C315.148 97.588 315.644 97.38 316.006 96.964C316.38 96.548 316.566 95.9933 316.566 95.3V90.98H317.686V95.348C317.686 95.9987 317.553 96.5747 317.286 97.076C317.02 97.5773 316.646 97.9667 316.166 98.244C315.686 98.5213 315.137 98.66 314.518 98.66ZM323.201 98.66C322.465 98.66 321.798 98.4893 321.201 98.148C320.614 97.796 320.145 97.3213 319.793 96.724C319.451 96.1267 319.281 95.46 319.281 94.724C319.281 93.988 319.451 93.3267 319.793 92.74C320.145 92.1427 320.614 91.6733 321.201 91.332C321.798 90.9907 322.465 90.82 323.201 90.82C323.766 90.82 324.294 90.9267 324.785 91.14C325.275 91.3533 325.691 91.652 326.033 92.036L325.297 92.788C325.041 92.5 324.731 92.2813 324.369 92.132C324.006 91.972 323.617 91.892 323.201 91.892C322.667 91.892 322.193 92.0147 321.777 92.26C321.361 92.5053 321.035 92.8413 320.801 93.268C320.566 93.684 320.449 94.1693 320.449 94.724C320.449 95.268 320.566 95.7587 320.801 96.196C321.035 96.6227 321.361 96.9587 321.777 97.204C322.193 97.4493 322.667 97.572 323.201 97.572C323.627 97.572 324.022 97.4973 324.385 97.348C324.747 97.188 325.057 96.964 325.313 96.676L326.065 97.428C325.713 97.8227 325.286 98.1267 324.785 98.34C324.294 98.5533 323.766 98.66 323.201 98.66ZM333.108 98.5V94.084C333.108 93.4227 332.911 92.8893 332.516 92.484C332.132 92.068 331.62 91.86 330.98 91.86C330.543 91.86 330.159 91.956 329.828 92.148C329.497 92.34 329.236 92.6013 329.044 92.932C328.852 93.2627 328.756 93.6413 328.756 94.068L328.244 93.78C328.244 93.2147 328.377 92.708 328.644 92.26C328.911 91.812 329.268 91.46 329.716 91.204C330.175 90.948 330.697 90.82 331.284 90.82C331.86 90.82 332.372 90.9533 332.82 91.22C333.268 91.476 333.615 91.8333 333.86 92.292C334.116 92.7507 334.244 93.284 334.244 93.892V98.5H333.108ZM327.636 98.5V87.172H328.756V98.5H327.636ZM336.339 98.5V90.98H337.475V98.5H336.339ZM336.899 89.348C336.686 89.348 336.504 89.2733 336.355 89.124C336.206 88.964 336.131 88.7773 336.131 88.564C336.131 88.34 336.206 88.1533 336.355 88.004C336.504 87.8547 336.686 87.78 336.899 87.78C337.134 87.78 337.32 87.8547 337.459 88.004C337.608 88.1533 337.683 88.34 337.683 88.564C337.683 88.7773 337.608 88.964 337.459 89.124C337.32 89.2733 337.134 89.348 336.899 89.348ZM338.929 99.14L343.313 86.9H344.369L339.985 99.14H338.929Z" fill="black"/>
    </svg>
    