<svg width="390" height="119" viewBox="0 0 390 119" fill="none" xmlns="http://www.w3.org/2000/svg">
    <rect x="0.5" y="1" width="389" height="117" rx="7.5" fill="white"/>
    <rect x="0.5" y="1" width="389" height="117" rx="7.5" stroke="#E8E7E7"/>
    <path d="M17.64 35.5V21.62H18.96L19.52 23.8V35.5H17.64ZM27.24 35.5L18.72 24.12L18.96 21.62L27.5 32.98L27.24 35.5ZM27.24 35.5L26.68 33.44V21.62H28.56V35.5H27.24ZM35.5592 35.7C34.6926 35.7 33.9059 35.4867 33.1992 35.06C32.4926 34.62 31.9326 34.0267 31.5192 33.28C31.1192 32.5333 30.9192 31.6933 30.9192 30.76C30.9192 29.8267 31.1192 28.9867 31.5192 28.24C31.9326 27.4933 32.4859 26.9 33.1792 26.46C33.8859 26.02 34.6792 25.8 35.5592 25.8C36.2792 25.8 36.9192 25.9533 37.4792 26.26C38.0526 26.5533 38.5126 26.9667 38.8592 27.5C39.2059 28.02 39.3992 28.6267 39.4392 29.32V32.18C39.3992 32.86 39.2059 33.4667 38.8592 34C38.5259 34.5333 38.0726 34.9533 37.4992 35.26C36.9392 35.5533 36.2926 35.7 35.5592 35.7ZM35.8592 34C36.7526 34 37.4726 33.7 38.0192 33.1C38.5659 32.4867 38.8392 31.7067 38.8392 30.76C38.8392 30.1067 38.7126 29.54 38.4592 29.06C38.2192 28.5667 37.8726 28.1867 37.4192 27.92C36.9659 27.64 36.4392 27.5 35.8392 27.5C35.2392 27.5 34.7059 27.64 34.2392 27.92C33.7859 28.2 33.4259 28.5867 33.1592 29.08C32.9059 29.56 32.7792 30.1133 32.7792 30.74C32.7792 31.38 32.9059 31.9467 33.1592 32.44C33.4259 32.92 33.7926 33.3 34.2592 33.58C34.7259 33.86 35.2592 34 35.8592 34ZM38.7192 35.5V32.94L39.0592 30.62L38.7192 28.32V26H40.5392V35.5H38.7192ZM43.1598 35.5V26H44.9598V35.5H43.1598ZM49.5798 35.5V29.76C49.5798 29.0533 49.3598 28.5 48.9198 28.1C48.4932 27.6867 47.9532 27.48 47.2998 27.48C46.8598 27.48 46.4665 27.5733 46.1198 27.76C45.7732 27.9467 45.4932 28.2067 45.2798 28.54C45.0665 28.8733 44.9598 29.2733 44.9598 29.74L44.2198 29.38C44.2198 28.66 44.3732 28.0333 44.6798 27.5C44.9998 26.9667 45.4332 26.5533 45.9798 26.26C46.5265 25.9533 47.1398 25.8 47.8198 25.8C48.4865 25.8 49.0865 25.9467 49.6198 26.24C50.1665 26.5333 50.5932 26.9467 50.8998 27.48C51.2198 28.0133 51.3798 28.6467 51.3798 29.38V35.5H49.5798ZM55.9998 35.5V29.76C55.9998 29.0533 55.7798 28.5 55.3398 28.1C54.9132 27.6867 54.3798 27.48 53.7398 27.48C53.2998 27.48 52.8998 27.5733 52.5398 27.76C52.1932 27.9467 51.9132 28.2067 51.6998 28.54C51.4865 28.8733 51.3798 29.2733 51.3798 29.74L50.3598 29.38C50.3998 28.6467 50.5932 28.02 50.9398 27.5C51.2998 26.9667 51.7598 26.5533 52.3198 26.26C52.8798 25.9533 53.4932 25.8 54.1598 25.8C54.8532 25.8 55.4732 25.9467 56.0198 26.24C56.5665 26.5333 56.9998 26.9467 57.3198 27.48C57.6532 28.0133 57.8198 28.6533 57.8198 29.4V35.5H55.9998ZM64.6692 35.7C63.7226 35.7 62.8692 35.4867 62.1092 35.06C61.3492 34.62 60.7492 34.0267 60.3092 33.28C59.8692 32.5333 59.6492 31.6867 59.6492 30.74C59.6492 29.8067 59.8626 28.9667 60.2892 28.22C60.7292 27.4733 61.3159 26.8867 62.0492 26.46C62.7959 26.02 63.6292 25.8 64.5492 25.8C65.4292 25.8 66.2026 26 66.8692 26.4C67.5492 26.8 68.0759 27.3533 68.4492 28.06C68.8359 28.7667 69.0292 29.5667 69.0292 30.46C69.0292 30.5933 69.0226 30.74 69.0092 30.9C68.9959 31.0467 68.9692 31.22 68.9292 31.42H60.9092V29.92H67.9692L67.3092 30.5C67.3092 29.86 67.1959 29.32 66.9692 28.88C66.7426 28.4267 66.4226 28.08 66.0092 27.84C65.5959 27.5867 65.0959 27.46 64.5092 27.46C63.8959 27.46 63.3559 27.5933 62.8892 27.86C62.4226 28.1267 62.0626 28.5 61.8092 28.98C61.5559 29.46 61.4292 30.0267 61.4292 30.68C61.4292 31.3467 61.5626 31.9333 61.8292 32.44C62.0959 32.9333 62.4759 33.32 62.9692 33.6C63.4626 33.8667 64.0292 34 64.6692 34C65.2026 34 65.6892 33.9067 66.1292 33.72C66.5826 33.5333 66.9692 33.2533 67.2892 32.88L68.4492 34.06C67.9959 34.5933 67.4359 35 66.7692 35.28C66.1159 35.56 65.4159 35.7 64.6692 35.7Z" fill="black"/>
    <path d="M223.94 35.7C222.94 35.7 222.013 35.52 221.16 35.16C220.307 34.7867 219.56 34.2733 218.92 33.62C218.293 32.9667 217.807 32.2067 217.46 31.34C217.113 30.4733 216.94 29.5467 216.94 28.56C216.94 27.56 217.113 26.6267 217.46 25.76C217.807 24.8933 218.293 24.14 218.92 23.5C219.56 22.8467 220.3 22.34 221.14 21.98C221.993 21.6067 222.92 21.42 223.92 21.42C225.013 21.42 225.973 21.6067 226.8 21.98C227.627 22.3533 228.36 22.86 229 23.5L227.7 24.8C227.26 24.3067 226.72 23.92 226.08 23.64C225.453 23.36 224.733 23.22 223.92 23.22C223.187 23.22 222.513 23.3533 221.9 23.62C221.287 23.8733 220.753 24.24 220.3 24.72C219.847 25.2 219.493 25.7667 219.24 26.42C219 27.0733 218.88 27.7867 218.88 28.56C218.88 29.3333 219 30.0467 219.24 30.7C219.493 31.3533 219.847 31.92 220.3 32.4C220.753 32.88 221.287 33.2533 221.9 33.52C222.513 33.7733 223.187 33.9 223.92 33.9C224.787 33.9 225.54 33.76 226.18 33.48C226.82 33.1867 227.36 32.7933 227.8 32.3L229.1 33.58C228.46 34.2467 227.707 34.7667 226.84 35.14C225.987 35.5133 225.02 35.7 223.94 35.7ZM234.91 35.7C234.136 35.7 233.436 35.5267 232.81 35.18C232.196 34.82 231.716 34.3267 231.37 33.7C231.023 33.0733 230.85 32.3467 230.85 31.52V26H232.65V31.44C232.65 31.96 232.736 32.4133 232.91 32.8C233.096 33.1733 233.363 33.46 233.71 33.66C234.056 33.86 234.463 33.96 234.93 33.96C235.636 33.96 236.19 33.74 236.59 33.3C236.99 32.8467 237.19 32.2267 237.19 31.44V26H238.99V31.52C238.99 32.3467 238.816 33.0733 238.47 33.7C238.123 34.3267 237.643 34.82 237.03 35.18C236.43 35.5267 235.723 35.7 234.91 35.7ZM241.402 35.5V26H243.202V35.5H241.402ZM243.202 30.08L242.522 29.78C242.522 28.5667 242.802 27.6 243.362 26.88C243.922 26.16 244.729 25.8 245.782 25.8C246.262 25.8 246.695 25.8867 247.082 26.06C247.469 26.22 247.829 26.4933 248.162 26.88L246.982 28.1C246.782 27.8867 246.562 27.7333 246.322 27.64C246.082 27.5467 245.802 27.5 245.482 27.5C244.815 27.5 244.269 27.7133 243.842 28.14C243.415 28.5667 243.202 29.2133 243.202 30.08ZM249.468 35.5V26H251.268V35.5H249.468ZM251.268 30.08L250.588 29.78C250.588 28.5667 250.868 27.6 251.428 26.88C251.988 26.16 252.795 25.8 253.848 25.8C254.328 25.8 254.762 25.8867 255.148 26.06C255.535 26.22 255.895 26.4933 256.228 26.88L255.048 28.1C254.848 27.8867 254.628 27.7333 254.388 27.64C254.148 27.5467 253.868 27.5 253.548 27.5C252.882 27.5 252.335 27.7133 251.908 28.14C251.482 28.5667 251.268 29.2133 251.268 30.08ZM261.583 35.7C260.637 35.7 259.783 35.4867 259.023 35.06C258.263 34.62 257.663 34.0267 257.223 33.28C256.783 32.5333 256.563 31.6867 256.563 30.74C256.563 29.8067 256.777 28.9667 257.203 28.22C257.643 27.4733 258.23 26.8867 258.963 26.46C259.71 26.02 260.543 25.8 261.463 25.8C262.343 25.8 263.117 26 263.783 26.4C264.463 26.8 264.99 27.3533 265.363 28.06C265.75 28.7667 265.943 29.5667 265.943 30.46C265.943 30.5933 265.937 30.74 265.923 30.9C265.91 31.0467 265.883 31.22 265.843 31.42H257.823V29.92H264.883L264.223 30.5C264.223 29.86 264.11 29.32 263.883 28.88C263.657 28.4267 263.337 28.08 262.923 27.84C262.51 27.5867 262.01 27.46 261.423 27.46C260.81 27.46 260.27 27.5933 259.803 27.86C259.337 28.1267 258.977 28.5 258.723 28.98C258.47 29.46 258.343 30.0267 258.343 30.68C258.343 31.3467 258.477 31.9333 258.743 32.44C259.01 32.9333 259.39 33.32 259.883 33.6C260.377 33.8667 260.943 34 261.583 34C262.117 34 262.603 33.9067 263.043 33.72C263.497 33.5333 263.883 33.2533 264.203 32.88L265.363 34.06C264.91 34.5933 264.35 35 263.683 35.28C263.03 35.56 262.33 35.7 261.583 35.7ZM274.626 35.5V29.96C274.626 29.24 274.399 28.6467 273.946 28.18C273.493 27.7133 272.906 27.48 272.186 27.48C271.706 27.48 271.279 27.5867 270.906 27.8C270.533 28.0133 270.239 28.3067 270.026 28.68C269.813 29.0533 269.706 29.48 269.706 29.96L268.966 29.54C268.966 28.82 269.126 28.18 269.446 27.62C269.766 27.06 270.213 26.62 270.786 26.3C271.359 25.9667 272.006 25.8 272.726 25.8C273.446 25.8 274.079 25.98 274.626 26.34C275.186 26.7 275.626 27.1733 275.946 27.76C276.266 28.3333 276.426 28.9467 276.426 29.6V35.5H274.626ZM267.906 35.5V26H269.706V35.5H267.906ZM280.206 35.5V22.02H282.006V35.5H280.206ZM277.866 27.64V26H284.346V27.64H277.866ZM290.589 35.5V21.62H292.469V35.5H290.589ZM291.869 35.5V33.78H299.829V35.5H291.869ZM291.869 29.22V27.58H299.169V29.22H291.869ZM291.869 23.34V21.62H299.729V23.34H291.869ZM302.066 35.5V26H303.866V35.5H302.066ZM308.486 35.5V29.76C308.486 29.0533 308.266 28.5 307.826 28.1C307.399 27.6867 306.859 27.48 306.206 27.48C305.766 27.48 305.373 27.5733 305.026 27.76C304.679 27.9467 304.399 28.2067 304.186 28.54C303.973 28.8733 303.866 29.2733 303.866 29.74L303.126 29.38C303.126 28.66 303.279 28.0333 303.586 27.5C303.906 26.9667 304.339 26.5533 304.886 26.26C305.433 25.9533 306.046 25.8 306.726 25.8C307.393 25.8 307.993 25.9467 308.526 26.24C309.073 26.5333 309.499 26.9467 309.806 27.48C310.126 28.0133 310.286 28.6467 310.286 29.38V35.5H308.486ZM314.906 35.5V29.76C314.906 29.0533 314.686 28.5 314.246 28.1C313.819 27.6867 313.286 27.48 312.646 27.48C312.206 27.48 311.806 27.5733 311.446 27.76C311.099 27.9467 310.819 28.2067 310.606 28.54C310.393 28.8733 310.286 29.2733 310.286 29.74L309.266 29.38C309.306 28.6467 309.499 28.02 309.846 27.5C310.206 26.9667 310.666 26.5533 311.226 26.26C311.786 25.9533 312.399 25.8 313.066 25.8C313.759 25.8 314.379 25.9467 314.926 26.24C315.473 26.5333 315.906 26.9467 316.226 27.48C316.559 28.0133 316.726 28.6533 316.726 29.4V35.5H314.906ZM324.175 35.7C323.455 35.7 322.802 35.5533 322.215 35.26C321.642 34.9533 321.182 34.5333 320.835 34C320.489 33.4667 320.295 32.86 320.255 32.18V29.32C320.295 28.6267 320.489 28.02 320.835 27.5C321.195 26.9667 321.662 26.5533 322.235 26.26C322.822 25.9533 323.469 25.8 324.175 25.8C325.042 25.8 325.822 26.02 326.515 26.46C327.222 26.9 327.775 27.4933 328.175 28.24C328.575 28.9867 328.775 29.8267 328.775 30.76C328.775 31.6933 328.575 32.5333 328.175 33.28C327.775 34.0267 327.222 34.62 326.515 35.06C325.822 35.4867 325.042 35.7 324.175 35.7ZM323.875 34C324.475 34 325.002 33.86 325.455 33.58C325.909 33.3 326.269 32.92 326.535 32.44C326.802 31.9467 326.935 31.38 326.935 30.74C326.935 30.1133 326.802 29.5533 326.535 29.06C326.269 28.5667 325.909 28.1867 325.455 27.92C325.002 27.64 324.482 27.5 323.895 27.5C323.295 27.5 322.769 27.64 322.315 27.92C321.862 28.1867 321.509 28.5667 321.255 29.06C321.002 29.5533 320.875 30.12 320.875 30.76C320.875 31.3867 320.995 31.9467 321.235 32.44C321.489 32.92 321.842 33.3 322.295 33.58C322.762 33.86 323.289 34 323.875 34ZM319.175 39.48V26H320.975V28.5L320.635 30.8L320.975 33.12V39.48H319.175ZM330.816 35.5V21.22H332.616V35.5H330.816ZM339.59 35.7C338.656 35.7 337.816 35.48 337.07 35.04C336.323 34.6 335.73 34.0067 335.29 33.26C334.85 32.5 334.63 31.6533 334.63 30.72C334.63 29.8 334.85 28.9733 335.29 28.24C335.73 27.4933 336.323 26.9 337.07 26.46C337.816 26.02 338.656 25.8 339.59 25.8C340.51 25.8 341.343 26.02 342.09 26.46C342.85 26.8867 343.45 27.4733 343.89 28.22C344.33 28.9667 344.55 29.8 344.55 30.72C344.55 31.6533 344.33 32.5 343.89 33.26C343.45 34.0067 342.85 34.6 342.09 35.04C341.343 35.48 340.51 35.7 339.59 35.7ZM339.59 33.96C340.19 33.96 340.723 33.82 341.19 33.54C341.656 33.26 342.023 32.88 342.29 32.4C342.556 31.9067 342.69 31.3467 342.69 30.72C342.69 30.1067 342.55 29.56 342.27 29.08C342.003 28.6 341.636 28.2267 341.17 27.96C340.716 27.68 340.19 27.54 339.59 27.54C338.99 27.54 338.456 27.68 337.99 27.96C337.523 28.2267 337.156 28.6 336.89 29.08C336.623 29.56 336.49 30.1067 336.49 30.72C336.49 31.3467 336.623 31.9067 336.89 32.4C337.156 32.88 337.523 33.26 337.99 33.54C338.456 33.82 338.99 33.96 339.59 33.96ZM349.327 35.58L345.207 26H347.207L350.267 33.5H349.627L352.847 26H354.847L350.407 35.58H349.327ZM346.607 39.48L349.407 33.74L350.407 35.58L348.607 39.48H346.607ZM360.353 35.7C359.406 35.7 358.553 35.4867 357.793 35.06C357.033 34.62 356.433 34.0267 355.993 33.28C355.553 32.5333 355.333 31.6867 355.333 30.74C355.333 29.8067 355.546 28.9667 355.973 28.22C356.413 27.4733 356.999 26.8867 357.733 26.46C358.479 26.02 359.313 25.8 360.233 25.8C361.113 25.8 361.886 26 362.553 26.4C363.233 26.8 363.759 27.3533 364.133 28.06C364.519 28.7667 364.713 29.5667 364.713 30.46C364.713 30.5933 364.706 30.74 364.693 30.9C364.679 31.0467 364.653 31.22 364.613 31.42H356.593V29.92H363.653L362.993 30.5C362.993 29.86 362.879 29.32 362.653 28.88C362.426 28.4267 362.106 28.08 361.693 27.84C361.279 27.5867 360.779 27.46 360.193 27.46C359.579 27.46 359.039 27.5933 358.573 27.86C358.106 28.1267 357.746 28.5 357.493 28.98C357.239 29.46 357.113 30.0267 357.113 30.68C357.113 31.3467 357.246 31.9333 357.513 32.44C357.779 32.9333 358.159 33.32 358.653 33.6C359.146 33.8667 359.713 34 360.353 34C360.886 34 361.373 33.9067 361.813 33.72C362.266 33.5333 362.653 33.2533 362.973 32.88L364.133 34.06C363.679 34.5933 363.119 35 362.453 35.28C361.799 35.56 361.099 35.7 360.353 35.7ZM366.675 35.5V26H368.475V35.5H366.675ZM368.475 30.08L367.795 29.78C367.795 28.5667 368.075 27.6 368.635 26.88C369.195 26.16 370.002 25.8 371.055 25.8C371.535 25.8 371.969 25.8867 372.355 26.06C372.742 26.22 373.102 26.4933 373.435 26.88L372.255 28.1C372.055 27.8867 371.835 27.7333 371.595 27.64C371.355 27.5467 371.075 27.5 370.755 27.5C370.089 27.5 369.542 27.7133 369.115 28.14C368.689 28.5667 368.475 29.2133 368.475 30.08Z" fill="black"/>
    <line x1="16" y1="48" x2="374" y2="48" stroke="#E0E0E0"/>
    <path d="M20.464 71.5V60.796H21.648V71.5H20.464ZM16.592 61.564V60.492H25.52V61.564H16.592ZM28.419 71.66C27.6937 71.66 27.0323 71.484 26.435 71.132C25.8483 70.78 25.379 70.3053 25.027 69.708C24.6857 69.1107 24.515 68.444 24.515 67.708C24.515 66.9827 24.6857 66.3267 25.027 65.74C25.379 65.1533 25.8483 64.6893 26.435 64.348C27.0323 63.996 27.6937 63.82 28.419 63.82C29.155 63.82 29.8163 63.9907 30.403 64.332C30.9897 64.6733 31.4537 65.1427 31.795 65.74C32.147 66.3267 32.323 66.9827 32.323 67.708C32.323 68.4547 32.147 69.1267 31.795 69.724C31.4537 70.3107 30.9897 70.78 30.403 71.132C29.8163 71.484 29.155 71.66 28.419 71.66ZM28.419 70.572C28.9523 70.572 29.4217 70.4493 29.827 70.204C30.243 69.9587 30.5683 69.6173 30.803 69.18C31.0483 68.7427 31.171 68.252 31.171 67.708C31.171 67.164 31.0483 66.684 30.803 66.268C30.5683 65.8413 30.243 65.5053 29.827 65.26C29.4217 65.0147 28.9523 64.892 28.419 64.892C27.8963 64.892 27.427 65.0147 27.011 65.26C26.595 65.5053 26.2697 65.8413 26.035 66.268C25.8003 66.684 25.683 67.164 25.683 67.708C25.683 68.2627 25.8003 68.7587 26.035 69.196C26.2697 69.6227 26.595 69.9587 27.011 70.204C27.427 70.4493 27.8963 70.572 28.419 70.572ZM34.1048 71.5V63.98H35.2248V71.5H34.1048ZM39.2728 71.5V66.892C39.2728 66.2733 39.0861 65.7827 38.7128 65.42C38.3394 65.0467 37.8701 64.86 37.3048 64.86C36.9208 64.86 36.5688 64.9453 36.2488 65.116C35.9394 65.276 35.6888 65.5053 35.4968 65.804C35.3154 66.1027 35.2248 66.46 35.2248 66.876L34.7128 66.668C34.7128 66.092 34.8408 65.5907 35.0968 65.164C35.3528 64.7373 35.6941 64.4067 36.1208 64.172C36.5581 63.9373 37.0488 63.82 37.5928 63.82C38.1261 63.82 38.6008 63.9373 39.0168 64.172C39.4434 64.4067 39.7794 64.7373 40.0248 65.164C40.2808 65.5907 40.4088 66.0973 40.4088 66.684V71.5H39.2728ZM44.4568 71.5V66.892C44.4568 66.2733 44.2701 65.7827 43.8968 65.42C43.5234 65.0467 43.0488 64.86 42.4728 64.86C42.0994 64.86 41.7528 64.9453 41.4328 65.116C41.1234 65.276 40.8728 65.5053 40.6808 65.804C40.4994 66.1027 40.4088 66.46 40.4088 66.876L39.7368 66.668C39.7688 66.092 39.9181 65.5907 40.1848 65.164C40.4621 64.7373 40.8194 64.4067 41.2568 64.172C41.7048 63.9373 42.1954 63.82 42.7288 63.82C43.2621 63.82 43.7421 63.9373 44.1688 64.172C44.6061 64.4067 44.9474 64.7373 45.1928 65.164C45.4488 65.5907 45.5768 66.0973 45.5768 66.684V71.5H44.4568ZM56.3684 71.644C55.5897 71.644 54.8644 71.5 54.1924 71.212C53.5204 70.924 52.9337 70.524 52.4324 70.012C51.931 69.5 51.5417 68.9027 51.2644 68.22C50.987 67.5267 50.8484 66.78 50.8484 65.98C50.8484 65.18 50.987 64.4387 51.2644 63.756C51.5524 63.0733 51.947 62.476 52.4484 61.964C52.9497 61.4413 53.5417 61.036 54.2244 60.748C54.907 60.46 55.6484 60.316 56.4484 60.316C57.3337 60.316 58.1444 60.492 58.8804 60.844C59.627 61.196 60.2404 61.692 60.7204 62.332L59.9044 63.148C59.5204 62.604 59.0297 62.188 58.4324 61.9C57.835 61.6013 57.1737 61.452 56.4484 61.452C55.5844 61.452 54.8217 61.6493 54.1604 62.044C53.499 62.428 52.9817 62.9613 52.6084 63.644C52.2457 64.3267 52.0644 65.1107 52.0644 65.996C52.0644 66.8707 52.2457 67.6493 52.6084 68.332C52.9817 69.0147 53.4884 69.5533 54.1284 69.948C54.779 70.332 55.515 70.524 56.3364 70.524C57.1577 70.524 57.867 70.3587 58.4644 70.028C59.0724 69.6973 59.5364 69.2173 59.8564 68.588C60.187 67.9587 60.3577 67.2013 60.3684 66.316L61.0404 66.812H56.2244V65.74H61.5844V65.916C61.5844 67.1533 61.3604 68.1987 60.9124 69.052C60.475 69.9053 59.867 70.5507 59.0884 70.988C58.3097 71.4253 57.403 71.644 56.3684 71.644ZM63.4954 71.5V63.98H64.6154V71.5H63.4954ZM64.6154 67.116L64.1514 66.908C64.1514 65.9587 64.3807 65.2067 64.8394 64.652C65.3087 64.0973 65.9487 63.82 66.7594 63.82C67.1327 63.82 67.474 63.8893 67.7834 64.028C68.0927 64.156 68.3807 64.364 68.6474 64.652L67.9114 65.436C67.73 65.2333 67.5274 65.0893 67.3034 65.004C67.09 64.9187 66.8447 64.876 66.5674 64.876C65.9914 64.876 65.522 65.068 65.1594 65.452C64.7967 65.8253 64.6154 66.38 64.6154 67.116ZM73.0455 71.66C72.2882 71.66 71.6108 71.4893 71.0135 71.148C70.4162 70.8067 69.9415 70.3373 69.5895 69.74C69.2482 69.1427 69.0775 68.4707 69.0775 67.724C69.0775 66.988 69.2482 66.3267 69.5895 65.74C69.9308 65.1427 70.3948 64.6733 70.9815 64.332C71.5682 63.9907 72.2242 63.82 72.9495 63.82C73.6322 63.82 74.2348 63.9747 74.7575 64.284C75.2908 64.5933 75.7068 65.0253 76.0055 65.58C76.3148 66.124 76.4695 66.7533 76.4695 67.468C76.4695 67.5533 76.4642 67.6547 76.4535 67.772C76.4428 67.8787 76.4215 68.0067 76.3895 68.156H69.8775V67.196H75.7815L75.3815 67.548C75.3922 66.9933 75.2962 66.5187 75.0935 66.124C74.9015 65.7187 74.6188 65.4093 74.2455 65.196C73.8828 64.972 73.4402 64.86 72.9175 64.86C72.3735 64.86 71.8988 64.9773 71.4935 65.212C71.0882 65.4467 70.7682 65.7773 70.5335 66.204C70.3095 66.62 70.1975 67.116 70.1975 67.692C70.1975 68.268 70.3148 68.7747 70.5495 69.212C70.7948 69.6493 71.1308 69.9907 71.5575 70.236C71.9948 70.4813 72.4962 70.604 73.0615 70.604C73.5202 70.604 73.9415 70.524 74.3255 70.364C74.7095 70.1933 75.0348 69.9427 75.3015 69.612L76.0215 70.348C75.6695 70.764 75.2322 71.0893 74.7095 71.324C74.1975 71.548 73.6428 71.66 73.0455 71.66ZM81.6549 71.66C80.8975 71.66 80.2202 71.4893 79.6229 71.148C79.0255 70.8067 78.5509 70.3373 78.1989 69.74C77.8575 69.1427 77.6869 68.4707 77.6869 67.724C77.6869 66.988 77.8575 66.3267 78.1989 65.74C78.5402 65.1427 79.0042 64.6733 79.5909 64.332C80.1775 63.9907 80.8335 63.82 81.5589 63.82C82.2415 63.82 82.8442 63.9747 83.3669 64.284C83.9002 64.5933 84.3162 65.0253 84.6149 65.58C84.9242 66.124 85.0789 66.7533 85.0789 67.468C85.0789 67.5533 85.0735 67.6547 85.0629 67.772C85.0522 67.8787 85.0309 68.0067 84.9989 68.156H78.4869V67.196H84.3909L83.9909 67.548C84.0015 66.9933 83.9055 66.5187 83.7029 66.124C83.5109 65.7187 83.2282 65.4093 82.8549 65.196C82.4922 64.972 82.0495 64.86 81.5269 64.86C80.9829 64.86 80.5082 64.9773 80.1029 65.212C79.6975 65.4467 79.3775 65.7773 79.1429 66.204C78.9189 66.62 78.8069 67.116 78.8069 67.692C78.8069 68.268 78.9242 68.7747 79.1589 69.212C79.4042 69.6493 79.7402 69.9907 80.1669 70.236C80.6042 70.4813 81.1055 70.604 81.6709 70.604C82.1295 70.604 82.5509 70.524 82.9349 70.364C83.3189 70.1933 83.6442 69.9427 83.9109 69.612L84.6309 70.348C84.2789 70.764 83.8415 71.0893 83.3189 71.324C82.8069 71.548 82.2522 71.66 81.6549 71.66ZM92.2643 71.5V67.084C92.2643 66.4227 92.0669 65.8893 91.6723 65.484C91.2883 65.068 90.7763 64.86 90.1363 64.86C89.6989 64.86 89.3149 64.956 88.9843 65.148C88.6536 65.34 88.3923 65.6013 88.2003 65.932C88.0083 66.2627 87.9123 66.6413 87.9123 67.068L87.4003 66.78C87.4003 66.2147 87.5336 65.708 87.8003 65.26C88.0669 64.812 88.4243 64.46 88.8723 64.204C89.3309 63.948 89.8536 63.82 90.4403 63.82C91.0163 63.82 91.5283 63.9587 91.9763 64.236C92.4243 64.5133 92.7709 64.8867 93.0163 65.356C93.2723 65.8253 93.4003 66.3373 93.4003 66.892V71.5H92.2643ZM86.7923 71.5V63.98H87.9123V71.5H86.7923Z" fill="black"/>
    <path d="M217.592 71.5L222.104 60.492H222.984L227.448 71.5H226.184L222.296 61.772H222.76L218.84 71.5H217.592ZM219.656 68.636V67.596H225.416V68.636H219.656ZM233.071 71.66C232.495 71.66 231.978 71.5427 231.519 71.308C231.06 71.0733 230.682 70.7533 230.383 70.348C230.095 69.932 229.919 69.452 229.855 68.908V66.556C229.919 66.0013 230.1 65.5213 230.399 65.116C230.698 64.7 231.076 64.38 231.535 64.156C232.004 63.932 232.516 63.82 233.071 63.82C233.764 63.82 234.388 63.996 234.943 64.348C235.498 64.6893 235.935 65.1587 236.255 65.756C236.586 66.3427 236.751 67.0093 236.751 67.756C236.751 68.492 236.591 69.1533 236.271 69.74C235.951 70.3267 235.508 70.796 234.943 71.148C234.388 71.4893 233.764 71.66 233.071 71.66ZM232.879 70.588C233.412 70.588 233.882 70.4707 234.287 70.236C234.692 69.9907 235.007 69.6547 235.231 69.228C235.466 68.7907 235.583 68.2947 235.583 67.74C235.583 67.1747 235.466 66.6787 235.231 66.252C235.007 65.8253 234.692 65.4893 234.287 65.244C233.882 64.9987 233.418 64.876 232.895 64.876C232.372 64.876 231.908 64.9987 231.503 65.244C231.108 65.4893 230.799 65.8253 230.575 66.252C230.351 66.6787 230.239 67.1747 230.239 67.74C230.239 68.2947 230.351 68.7907 230.575 69.228C230.799 69.6547 231.108 69.9907 231.503 70.236C231.898 70.4707 232.356 70.588 232.879 70.588ZM229.183 74.668V63.98H230.303V65.9L230.079 67.724L230.303 69.564V74.668H229.183ZM242.43 71.66C241.854 71.66 241.337 71.5427 240.878 71.308C240.42 71.0733 240.041 70.7533 239.742 70.348C239.454 69.932 239.278 69.452 239.214 68.908V66.556C239.278 66.0013 239.46 65.5213 239.758 65.116C240.057 64.7 240.436 64.38 240.894 64.156C241.364 63.932 241.876 63.82 242.43 63.82C243.124 63.82 243.748 63.996 244.302 64.348C244.857 64.6893 245.294 65.1587 245.614 65.756C245.945 66.3427 246.11 67.0093 246.11 67.756C246.11 68.492 245.95 69.1533 245.63 69.74C245.31 70.3267 244.868 70.796 244.302 71.148C243.748 71.4893 243.124 71.66 242.43 71.66ZM242.238 70.588C242.772 70.588 243.241 70.4707 243.646 70.236C244.052 69.9907 244.366 69.6547 244.59 69.228C244.825 68.7907 244.942 68.2947 244.942 67.74C244.942 67.1747 244.825 66.6787 244.59 66.252C244.366 65.8253 244.052 65.4893 243.646 65.244C243.241 64.9987 242.777 64.876 242.254 64.876C241.732 64.876 241.268 64.9987 240.862 65.244C240.468 65.4893 240.158 65.8253 239.934 66.252C239.71 66.6787 239.598 67.1747 239.598 67.74C239.598 68.2947 239.71 68.7907 239.934 69.228C240.158 69.6547 240.468 69.9907 240.862 70.236C241.257 70.4707 241.716 70.588 242.238 70.588ZM238.542 74.668V63.98H239.662V65.9L239.438 67.724L239.662 69.564V74.668H238.542ZM247.902 71.5V60.172H249.022V71.5H247.902ZM254.764 71.66C254.007 71.66 253.33 71.4893 252.732 71.148C252.135 70.8067 251.66 70.3373 251.308 69.74C250.967 69.1427 250.796 68.4707 250.796 67.724C250.796 66.988 250.967 66.3267 251.308 65.74C251.65 65.1427 252.114 64.6733 252.7 64.332C253.287 63.9907 253.943 63.82 254.668 63.82C255.351 63.82 255.954 63.9747 256.476 64.284C257.01 64.5933 257.426 65.0253 257.724 65.58C258.034 66.124 258.188 66.7533 258.188 67.468C258.188 67.5533 258.183 67.6547 258.172 67.772C258.162 67.8787 258.14 68.0067 258.108 68.156H251.596V67.196H257.5L257.1 67.548C257.111 66.9933 257.015 66.5187 256.812 66.124C256.62 65.7187 256.338 65.4093 255.964 65.196C255.602 64.972 255.159 64.86 254.636 64.86C254.092 64.86 253.618 64.9773 253.212 65.212C252.807 65.4467 252.487 65.7773 252.252 66.204C252.028 66.62 251.916 67.116 251.916 67.692C251.916 68.268 252.034 68.7747 252.268 69.212C252.514 69.6493 252.85 69.9907 253.276 70.236C253.714 70.4813 254.215 70.604 254.78 70.604C255.239 70.604 255.66 70.524 256.044 70.364C256.428 70.1933 256.754 69.9427 257.02 69.612L257.74 70.348C257.388 70.764 256.951 71.0893 256.428 71.324C255.916 71.548 255.362 71.66 254.764 71.66Z" fill="black"/>
    <path d="M20.464 98.5V87.796H21.648V98.5H20.464ZM16.592 88.564V87.492H25.52V88.564H16.592ZM28.419 98.66C27.6937 98.66 27.0323 98.484 26.435 98.132C25.8483 97.78 25.379 97.3053 25.027 96.708C24.6857 96.1107 24.515 95.444 24.515 94.708C24.515 93.9827 24.6857 93.3267 25.027 92.74C25.379 92.1533 25.8483 91.6893 26.435 91.348C27.0323 90.996 27.6937 90.82 28.419 90.82C29.155 90.82 29.8163 90.9907 30.403 91.332C30.9897 91.6733 31.4537 92.1427 31.795 92.74C32.147 93.3267 32.323 93.9827 32.323 94.708C32.323 95.4547 32.147 96.1267 31.795 96.724C31.4537 97.3107 30.9897 97.78 30.403 98.132C29.8163 98.484 29.155 98.66 28.419 98.66ZM28.419 97.572C28.9523 97.572 29.4217 97.4493 29.827 97.204C30.243 96.9587 30.5683 96.6173 30.803 96.18C31.0483 95.7427 31.171 95.252 31.171 94.708C31.171 94.164 31.0483 93.684 30.803 93.268C30.5683 92.8413 30.243 92.5053 29.827 92.26C29.4217 92.0147 28.9523 91.892 28.419 91.892C27.8963 91.892 27.427 92.0147 27.011 92.26C26.595 92.5053 26.2697 92.8413 26.035 93.268C25.8003 93.684 25.683 94.164 25.683 94.708C25.683 95.2627 25.8003 95.7587 26.035 96.196C26.2697 96.6227 26.595 96.9587 27.011 97.204C27.427 97.4493 27.8963 97.572 28.419 97.572ZM34.1048 98.5V90.98H35.2248V98.5H34.1048ZM39.2728 98.5V93.892C39.2728 93.2733 39.0861 92.7827 38.7128 92.42C38.3394 92.0467 37.8701 91.86 37.3048 91.86C36.9208 91.86 36.5688 91.9453 36.2488 92.116C35.9394 92.276 35.6888 92.5053 35.4968 92.804C35.3154 93.1027 35.2248 93.46 35.2248 93.876L34.7128 93.668C34.7128 93.092 34.8408 92.5907 35.0968 92.164C35.3528 91.7373 35.6941 91.4067 36.1208 91.172C36.5581 90.9373 37.0488 90.82 37.5928 90.82C38.1261 90.82 38.6008 90.9373 39.0168 91.172C39.4434 91.4067 39.7794 91.7373 40.0248 92.164C40.2808 92.5907 40.4088 93.0973 40.4088 93.684V98.5H39.2728ZM44.4568 98.5V93.892C44.4568 93.2733 44.2701 92.7827 43.8968 92.42C43.5234 92.0467 43.0488 91.86 42.4728 91.86C42.0994 91.86 41.7528 91.9453 41.4328 92.116C41.1234 92.276 40.8728 92.5053 40.6808 92.804C40.4994 93.1027 40.4088 93.46 40.4088 93.876L39.7368 93.668C39.7688 93.092 39.9181 92.5907 40.1848 92.164C40.4621 91.7373 40.8194 91.4067 41.2568 91.172C41.7048 90.9373 42.1954 90.82 42.7288 90.82C43.2621 90.82 43.7421 90.9373 44.1688 91.172C44.6061 91.4067 44.9474 91.7373 45.1928 92.164C45.4488 92.5907 45.5768 93.0973 45.5768 93.684V98.5H44.4568ZM52.1124 98.5V97.412H55.3444C56.2084 97.412 56.971 97.2253 57.6324 96.852C58.2937 96.468 58.811 95.9453 59.1844 95.284C59.5577 94.612 59.7444 93.844 59.7444 92.98C59.7444 92.116 59.5577 91.3533 59.1844 90.692C58.811 90.0307 58.2937 89.5133 57.6324 89.14C56.971 88.756 56.2084 88.564 55.3444 88.564H52.1444V87.492H55.3764C56.1764 87.492 56.9124 87.6307 57.5844 87.908C58.267 88.1747 58.859 88.5587 59.3604 89.06C59.8724 89.5507 60.267 90.132 60.5444 90.804C60.8217 91.4653 60.9604 92.196 60.9604 92.996C60.9604 93.7747 60.8217 94.5 60.5444 95.172C60.267 95.844 59.8777 96.4307 59.3764 96.932C58.875 97.4227 58.283 97.8067 57.6004 98.084C56.9284 98.3613 56.1977 98.5 55.4084 98.5H52.1124ZM51.3924 98.5V87.492H52.5604V98.5H51.3924ZM66.2125 98.66C65.4978 98.66 64.8578 98.4893 64.2925 98.148C63.7272 97.796 63.2792 97.3267 62.9485 96.74C62.6285 96.1533 62.4685 95.492 62.4685 94.756C62.4685 94.0093 62.6285 93.3427 62.9485 92.756C63.2792 92.1587 63.7272 91.6893 64.2925 91.348C64.8578 90.996 65.4925 90.82 66.1965 90.82C66.7725 90.82 67.2845 90.9373 67.7325 91.172C68.1912 91.396 68.5592 91.716 68.8365 92.132C69.1245 92.5373 69.3005 93.012 69.3645 93.556V95.908C69.3005 96.452 69.1245 96.932 68.8365 97.348C68.5592 97.764 68.1912 98.0893 67.7325 98.324C67.2845 98.548 66.7778 98.66 66.2125 98.66ZM66.3885 97.588C67.1672 97.588 67.7912 97.3267 68.2605 96.804C68.7405 96.2813 68.9805 95.5933 68.9805 94.74C68.9805 94.1747 68.8685 93.6787 68.6445 93.252C68.4312 92.8147 68.1272 92.4787 67.7325 92.244C67.3485 91.9987 66.8952 91.876 66.3725 91.876C65.8392 91.876 65.3645 91.9987 64.9485 92.244C64.5432 92.4893 64.2178 92.8307 63.9725 93.268C63.7378 93.6947 63.6205 94.1853 63.6205 94.74C63.6205 95.2947 63.7378 95.7853 63.9725 96.212C64.2178 96.6387 64.5485 96.9747 64.9645 97.22C65.3805 97.4653 65.8552 97.588 66.3885 97.588ZM68.9165 98.5V96.484L69.1405 94.628L68.9165 92.82V90.98H70.0365V98.5H68.9165ZM74.9319 98.5L71.4599 90.98H72.7079L75.6359 97.556H74.9319L77.8759 90.98H79.0919L75.5879 98.5H74.9319ZM83.6393 98.66C82.8819 98.66 82.2046 98.4893 81.6073 98.148C81.0099 97.8067 80.5353 97.3373 80.1833 96.74C79.8419 96.1427 79.6713 95.4707 79.6713 94.724C79.6713 93.988 79.8419 93.3267 80.1833 92.74C80.5246 92.1427 80.9886 91.6733 81.5753 91.332C82.1619 90.9907 82.8179 90.82 83.5433 90.82C84.2259 90.82 84.8286 90.9747 85.3513 91.284C85.8846 91.5933 86.3006 92.0253 86.5993 92.58C86.9086 93.124 87.0633 93.7533 87.0633 94.468C87.0633 94.5533 87.0579 94.6547 87.0473 94.772C87.0366 94.8787 87.0153 95.0067 86.9833 95.156H80.4713V94.196H86.3753L85.9753 94.548C85.9859 93.9933 85.8899 93.5187 85.6873 93.124C85.4953 92.7187 85.2126 92.4093 84.8393 92.196C84.4766 91.972 84.0339 91.86 83.5113 91.86C82.9673 91.86 82.4926 91.9773 82.0873 92.212C81.6819 92.4467 81.3619 92.7773 81.1273 93.204C80.9033 93.62 80.7913 94.116 80.7913 94.692C80.7913 95.268 80.9086 95.7747 81.1432 96.212C81.3886 96.6493 81.7246 96.9907 82.1513 97.236C82.5886 97.4813 83.0899 97.604 83.6553 97.604C84.1139 97.604 84.5353 97.524 84.9193 97.364C85.3033 97.1933 85.6286 96.9427 85.8953 96.612L86.6153 97.348C86.2633 97.764 85.8259 98.0893 85.3033 98.324C84.7913 98.548 84.2366 98.66 83.6393 98.66Z" fill="black"/>
    <path d="M222.384 98.644C221.605 98.644 220.88 98.5 220.208 98.212C219.536 97.924 218.949 97.524 218.448 97.012C217.947 96.5 217.557 95.9027 217.28 95.22C217.003 94.5267 216.864 93.78 216.864 92.98C216.864 92.18 217.003 91.4387 217.28 90.756C217.568 90.0733 217.963 89.476 218.464 88.964C218.965 88.4413 219.557 88.036 220.24 87.748C220.923 87.46 221.664 87.316 222.464 87.316C223.349 87.316 224.16 87.492 224.896 87.844C225.643 88.196 226.256 88.692 226.736 89.332L225.92 90.148C225.536 89.604 225.045 89.188 224.448 88.9C223.851 88.6013 223.189 88.452 222.464 88.452C221.6 88.452 220.837 88.6493 220.176 89.044C219.515 89.428 218.997 89.9613 218.624 90.644C218.261 91.3267 218.08 92.1107 218.08 92.996C218.08 93.8707 218.261 94.6493 218.624 95.332C218.997 96.0147 219.504 96.5533 220.144 96.948C220.795 97.332 221.531 97.524 222.352 97.524C223.173 97.524 223.883 97.3587 224.48 97.028C225.088 96.6973 225.552 96.2173 225.872 95.588C226.203 94.9587 226.373 94.2013 226.384 93.316L227.056 93.812H222.24V92.74H227.6V92.916C227.6 94.1533 227.376 95.1987 226.928 96.052C226.491 96.9053 225.883 97.5507 225.104 97.988C224.325 98.4253 223.419 98.644 222.384 98.644ZM232.919 98.66C232.194 98.66 231.532 98.484 230.935 98.132C230.348 97.78 229.879 97.3053 229.527 96.708C229.186 96.1107 229.015 95.444 229.015 94.708C229.015 93.9827 229.186 93.3267 229.527 92.74C229.879 92.1533 230.348 91.6893 230.935 91.348C231.532 90.996 232.194 90.82 232.919 90.82C233.655 90.82 234.316 90.9907 234.903 91.332C235.49 91.6733 235.954 92.1427 236.295 92.74C236.647 93.3267 236.823 93.9827 236.823 94.708C236.823 95.4547 236.647 96.1267 236.295 96.724C235.954 97.3107 235.49 97.78 234.903 98.132C234.316 98.484 233.655 98.66 232.919 98.66ZM232.919 97.572C233.452 97.572 233.922 97.4493 234.327 97.204C234.743 96.9587 235.068 96.6173 235.303 96.18C235.548 95.7427 235.671 95.252 235.671 94.708C235.671 94.164 235.548 93.684 235.303 93.268C235.068 92.8413 234.743 92.5053 234.327 92.26C233.922 92.0147 233.452 91.892 232.919 91.892C232.396 91.892 231.927 92.0147 231.511 92.26C231.095 92.5053 230.77 92.8413 230.535 93.268C230.3 93.684 230.183 94.164 230.183 94.708C230.183 95.2627 230.3 95.7587 230.535 96.196C230.77 96.6227 231.095 96.9587 231.511 97.204C231.927 97.4493 232.396 97.572 232.919 97.572ZM242.013 98.66C241.287 98.66 240.626 98.484 240.029 98.132C239.442 97.78 238.973 97.3053 238.621 96.708C238.279 96.1107 238.109 95.444 238.109 94.708C238.109 93.9827 238.279 93.3267 238.621 92.74C238.973 92.1533 239.442 91.6893 240.029 91.348C240.626 90.996 241.287 90.82 242.013 90.82C242.749 90.82 243.41 90.9907 243.997 91.332C244.583 91.6733 245.047 92.1427 245.389 92.74C245.741 93.3267 245.917 93.9827 245.917 94.708C245.917 95.4547 245.741 96.1267 245.389 96.724C245.047 97.3107 244.583 97.78 243.997 98.132C243.41 98.484 242.749 98.66 242.013 98.66ZM242.013 97.572C242.546 97.572 243.015 97.4493 243.421 97.204C243.837 96.9587 244.162 96.6173 244.397 96.18C244.642 95.7427 244.765 95.252 244.765 94.708C244.765 94.164 244.642 93.684 244.397 93.268C244.162 92.8413 243.837 92.5053 243.421 92.26C243.015 92.0147 242.546 91.892 242.013 91.892C241.49 91.892 241.021 92.0147 240.605 92.26C240.189 92.5053 239.863 92.8413 239.629 93.268C239.394 93.684 239.277 94.164 239.277 94.708C239.277 95.2627 239.394 95.7587 239.629 96.196C239.863 96.6227 240.189 96.9587 240.605 97.204C241.021 97.4493 241.49 97.572 242.013 97.572ZM250.803 101.828C250.045 101.828 249.368 101.684 248.771 101.396C248.184 101.119 247.709 100.724 247.347 100.212L248.083 99.476C248.381 99.8813 248.76 100.196 249.219 100.42C249.677 100.644 250.216 100.756 250.835 100.756C251.688 100.756 252.365 100.527 252.867 100.068C253.379 99.6093 253.635 98.9853 253.635 98.196V96.324L253.859 94.612L253.635 92.916V90.98H254.755V98.196C254.755 98.9213 254.589 99.556 254.259 100.1C253.928 100.644 253.464 101.065 252.867 101.364C252.28 101.673 251.592 101.828 250.803 101.828ZM250.883 98.42C250.189 98.42 249.565 98.2547 249.011 97.924C248.456 97.5933 248.019 97.14 247.699 96.564C247.379 95.988 247.219 95.3373 247.219 94.612C247.219 93.8867 247.373 93.2413 247.683 92.676C248.003 92.1 248.44 91.6467 248.995 91.316C249.549 90.9853 250.173 90.82 250.867 90.82C251.453 90.82 251.976 90.932 252.435 91.156C252.904 91.38 253.277 91.7 253.555 92.116C253.843 92.5213 254.019 93.0013 254.083 93.556V95.684C254.019 96.228 253.843 96.708 253.555 97.124C253.267 97.5293 252.893 97.8493 252.435 98.084C251.976 98.308 251.459 98.42 250.883 98.42ZM251.091 97.348C251.613 97.348 252.067 97.236 252.451 97.012C252.845 96.788 253.149 96.4733 253.363 96.068C253.587 95.652 253.699 95.1667 253.699 94.612C253.699 94.068 253.587 93.5933 253.363 93.188C253.149 92.7827 252.845 92.4627 252.451 92.228C252.056 91.9933 251.597 91.876 251.075 91.876C250.552 91.876 250.083 91.9933 249.667 92.228C249.261 92.4627 248.941 92.7827 248.707 93.188C248.483 93.5933 248.371 94.068 248.371 94.612C248.371 95.1453 248.488 95.62 248.723 96.036C248.957 96.452 249.277 96.7773 249.683 97.012C250.088 97.236 250.557 97.348 251.091 97.348ZM257.011 98.5V87.172H258.131V98.5H257.011ZM263.874 98.66C263.116 98.66 262.439 98.4893 261.842 98.148C261.244 97.8067 260.77 97.3373 260.418 96.74C260.076 96.1427 259.906 95.4707 259.906 94.724C259.906 93.988 260.076 93.3267 260.418 92.74C260.759 92.1427 261.223 91.6733 261.81 91.332C262.396 90.9907 263.052 90.82 263.778 90.82C264.46 90.82 265.063 90.9747 265.586 91.284C266.119 91.5933 266.535 92.0253 266.834 92.58C267.143 93.124 267.298 93.7533 267.298 94.468C267.298 94.5533 267.292 94.6547 267.282 94.772C267.271 94.8787 267.25 95.0067 267.218 95.156H260.706V94.196H266.61L266.21 94.548C266.22 93.9933 266.124 93.5187 265.922 93.124C265.73 92.7187 265.447 92.4093 265.074 92.196C264.711 91.972 264.268 91.86 263.746 91.86C263.202 91.86 262.727 91.9773 262.322 92.212C261.916 92.4467 261.596 92.7773 261.362 93.204C261.138 93.62 261.026 94.116 261.026 94.692C261.026 95.268 261.143 95.7747 261.378 96.212C261.623 96.6493 261.959 96.9907 262.386 97.236C262.823 97.4813 263.324 97.604 263.89 97.604C264.348 97.604 264.77 97.524 265.154 97.364C265.538 97.1933 265.863 96.9427 266.13 96.612L266.85 97.348C266.498 97.764 266.06 98.0893 265.538 98.324C265.026 98.548 264.471 98.66 263.874 98.66Z" fill="black"/>
    </svg>
    