<svg width="20" height="20" viewBox="0 0 20 20" fill="none" xmlns="http://www.w3.org/2000/svg">
<path d="M10 10.2083C11.0333 10.2083 11.875 9.36667 11.875 8.33333C11.875 7.3 11.0333 6.45833 10 6.45833C8.96667 6.45833 8.125 7.3 8.125 8.33333C8.125 9.36667 8.96667 10.2083 10 10.2083ZM13.75 13.5417C13.75 12.2917 11.25 11.6667 10 11.6667C8.75 11.6667 6.25 12.2917 6.25 13.5417V14.1667H13.75V13.5417ZM15.8333 2.5H4.16667C3.25 2.5 2.5 3.25 2.5 4.16667V15.8333C2.5 16.75 3.25 17.5 4.16667 17.5H15.8333C16.75 17.5 17.5 16.75 17.5 15.8333V4.16667C17.5 3.25 16.75 2.5 15.8333 2.5ZM15.8333 15.8333H4.16667V4.16667H15.8333V15.8333Z" fill="#090C05"/>
</svg>
