<svg width="20" height="20" viewBox="0 0 20 20" fill="none" xmlns="http://www.w3.org/2000/svg">
<path d="M3.33268 5.00033H1.66602V16.667C1.66602 17.5837 2.41602 18.3337 3.33268 18.3337H14.9993V16.667H3.33268V5.00033ZM16.666 1.66699H6.66602C5.74935 1.66699 4.99935 2.41699 4.99935 3.33366V13.3337C4.99935 14.2503 5.74935 15.0003 6.66602 15.0003H16.666C17.5827 15.0003 18.3327 14.2503 18.3327 13.3337V3.33366C18.3327 2.41699 17.5827 1.66699 16.666 1.66699ZM15.8327 9.16699H12.4993V12.5003H10.8327V9.16699H7.49935V7.50033H10.8327V4.16699H12.4993V7.50033H15.8327V9.16699Z"/>
</svg>
