<svg xmlns="http://www.w3.org/2000/svg" width="14" height="14" viewBox="0 0 14 14" fill="none">
    <path d="M9.91602 4.08301H7.58268V5.24967H9.91602C10.8785 5.24967 11.666 6.03717 11.666 6.99967C11.666 7.96217 10.8785 8.74967 9.91602 8.74967H7.58268V9.91634H9.91602C11.526 9.91634 12.8327 8.60967 12.8327 6.99967C12.8327 5.38967 11.526 4.08301 9.91602 4.08301ZM6.41602 8.74967H4.08268C3.12018 8.74967 2.33268 7.96217 2.33268 6.99967C2.33268 6.03717 3.12018 5.24967 4.08268 5.24967H6.41602V4.08301H4.08268C2.47268 4.08301 1.16602 5.38967 1.16602 6.99967C1.16602 8.60967 2.47268 9.91634 4.08268 9.91634H6.41602V8.74967ZM4.66602 6.41634H9.33268V7.58301H4.66602V6.41634Z" fill="#090C05"/>
  </svg>