<svg width="14" height="14" viewBox="0 0 14 14" fill="none" xmlns="http://www.w3.org/2000/svg">
<path d="M7.22792 6.35833C5.90375 6.01417 5.47792 5.65833 5.47792 5.10417C5.47792 4.46833 6.06708 4.025 7.05292 4.025C8.09125 4.025 8.47625 4.52083 8.51125 5.25H9.80042C9.75958 4.24667 9.14708 3.325 7.92792 3.0275V1.75H6.17792V3.01C5.04625 3.255 4.13625 3.99 4.13625 5.11583C4.13625 6.46333 5.25042 7.13417 6.87792 7.525C8.33625 7.875 8.62792 8.38833 8.62792 8.93083C8.62792 9.33333 8.34208 9.975 7.05292 9.975C5.85125 9.975 5.37875 9.43833 5.31458 8.75H4.03125C4.10125 10.0275 5.05792 10.745 6.17792 10.9842V12.25H7.92792V10.9958C9.06542 10.78 9.96958 10.1208 9.96958 8.925C9.96958 7.26833 8.55208 6.7025 7.22792 6.35833Z" fill="#090C05"/>
</svg>
