<svg width="24" height="24" viewBox="0 0 24 24" fill="none" xmlns="http://www.w3.org/2000/svg">
<g clip-path="url(#clip0_3147_16235)">
<path d="M12 15.9844C14.2005 15.9844 15.9844 14.2005 15.9844 12C15.9844 9.79949 14.2005 8.01562 12 8.01562C9.79949 8.01562 8.01562 9.79949 8.01562 12C8.01562 14.2005 9.79949 15.9844 12 15.9844Z" fill="#0A2E31"/>
<path d="M6.73298 10.8474C7.2623 8.42705 9.42225 6.60937 11.9992 6.60937H22.727C22.1578 5.47936 21.4051 4.43541 20.4845 3.51469C18.2179 1.24823 15.2045 0 11.9992 0C8.79384 0 5.78039 1.24823 3.51384 3.51469C3.29587 3.73266 3.08756 3.95766 2.88867 4.18894L6.73298 10.8474Z" fill="#0A2E31"/>
<path d="M13.635 17.1366C13.1191 17.3012 12.5698 17.3903 12 17.3903C9.99759 17.3903 8.24681 16.2928 7.31728 14.6678C7.31062 14.6575 7.30401 14.6473 7.29783 14.6366L1.96927 5.40723C0.688172 7.34785 0 9.62082 0 11.9997C0 15.205 1.24823 18.2185 3.51469 20.485C5.25108 22.2214 7.42608 23.3592 9.78965 23.7969L13.635 17.1366Z" fill="#0A2E31"/>
<path d="M15.6257 8.01562C16.7086 9.00225 17.3892 10.4231 17.3892 12C17.3892 12.9918 17.1197 13.9216 16.6504 14.7208C16.6457 14.73 16.6415 14.7393 16.6363 14.7484L11.3066 23.9797C11.5362 23.9927 11.7668 24 11.9986 24C15.2039 24 18.2173 22.7518 20.4839 20.4853C22.7503 18.2188 23.9986 15.2053 23.9986 12C23.9986 10.6216 23.7671 9.27891 23.3237 8.01562H15.6257Z" fill="#0A2E31"/>
</g>
<defs>
<clipPath id="clip0_3147_16235">
<rect width="24" height="24" fill="white"/>
</clipPath>
</defs>
</svg>
