<svg width="20" height="20" viewBox="0 0 20 20" fill="none" xmlns="http://www.w3.org/2000/svg">
<path d="M12.5 9.58301V4.58301L10 2.08301L7.5 4.58301V6.24967H2.5V17.9163H17.5V9.58301H12.5ZM5.83333 16.2497H4.16667V14.583H5.83333V16.2497ZM5.83333 12.9163H4.16667V11.2497H5.83333V12.9163ZM5.83333 9.58301H4.16667V7.91634H5.83333V9.58301ZM10.8333 16.2497H9.16667V14.583H10.8333V16.2497ZM10.8333 12.9163H9.16667V11.2497H10.8333V12.9163ZM10.8333 9.58301H9.16667V7.91634H10.8333V9.58301ZM10.8333 6.24967H9.16667V4.58301H10.8333V6.24967ZM15.8333 16.2497H14.1667V14.583H15.8333V16.2497ZM15.8333 12.9163H14.1667V11.2497H15.8333V12.9163Z" fill="#090C05"/>
</svg>
