<svg width="20" height="20" viewBox="0 0 20 20" fill="none" xmlns="http://www.w3.org/2000/svg">
<path d="M13.5333 11.375C12.5583 10.9417 11.3583 10.625 10 10.625C8.64167 10.625 7.44167 10.95 6.46667 11.375C5.56667 11.775 5 12.675 5 13.6583V15H15V13.6583C15 12.675 14.4333 11.775 13.5333 11.375Z" fill="black"/>
<path d="M1.01667 12.15C0.4 12.4167 0 13.0167 0 13.6917V15H3.75V13.6583C3.75 12.9667 3.94167 12.3167 4.275 11.75C3.96667 11.7 3.65833 11.6667 3.33333 11.6667C2.50833 11.6667 1.725 11.8417 1.01667 12.15Z" fill="black"/>
<path d="M18.9833 12.15C18.275 11.8417 17.4917 11.6667 16.6667 11.6667C16.3417 11.6667 16.0333 11.7 15.725 11.75C16.0583 12.3167 16.25 12.9667 16.25 13.6583V15H20V13.6917C20 13.0167 19.6 12.4167 18.9833 12.15Z" fill="black"/>
<path d="M10 10C11.3833 10 12.5 8.88333 12.5 7.5C12.5 6.11667 11.3833 5 10 5C8.61667 5 7.5 6.11667 7.5 7.5C7.5 8.88333 8.61667 10 10 10Z" fill="black"/>
<path d="M3.33325 7.08072L1.2473 9.16667L3.33325 11.2526L5.4192 9.16667L3.33325 7.08072Z" fill="black"/>
<path d="M16.6667 7.5L14.5833 10.8333H18.75L16.6667 7.5Z" fill="black"/>
</svg>
