<svg width="20" height="20" viewBox="0 0 20 20" fill="none" xmlns="http://www.w3.org/2000/svg">
<path d="M7.50033 11.4587C5.55033 11.4587 1.66699 12.4337 1.66699 14.3753V15.8337H13.3337V14.3753C13.3337 12.4337 9.45033 11.4587 7.50033 11.4587ZM3.61699 14.167C4.31699 13.6837 6.00866 13.1253 7.50033 13.1253C8.99199 13.1253 10.6837 13.6837 11.3837 14.167H3.61699ZM7.50033 10.0003C9.10866 10.0003 10.417 8.69199 10.417 7.08366C10.417 5.47533 9.10866 4.16699 7.50033 4.16699C5.89199 4.16699 4.58366 5.47533 4.58366 7.08366C4.58366 8.69199 5.89199 10.0003 7.50033 10.0003ZM7.50033 5.83366C8.19199 5.83366 8.75033 6.39199 8.75033 7.08366C8.75033 7.77533 8.19199 8.33366 7.50033 8.33366C6.80866 8.33366 6.25033 7.77533 6.25033 7.08366C6.25033 6.39199 6.80866 5.83366 7.50033 5.83366ZM13.367 11.5087C14.3337 12.2087 15.0003 13.142 15.0003 14.3753V15.8337H18.3337V14.3753C18.3337 12.692 15.417 11.7337 13.367 11.5087ZM12.5003 10.0003C14.1087 10.0003 15.417 8.69199 15.417 7.08366C15.417 5.47533 14.1087 4.16699 12.5003 4.16699C12.0503 4.16699 11.6337 4.27533 11.2503 4.45866C11.7753 5.20033 12.0837 6.10866 12.0837 7.08366C12.0837 8.05866 11.7753 8.96699 11.2503 9.70866C11.6337 9.89199 12.0503 10.0003 12.5003 10.0003Z" fill="#090C05"/>
</svg>
