<svg width="64" height="64" viewBox="0 0 64 64" fill="none" xmlns="http://www.w3.org/2000/svg">
<g clip-path="url(#clip0_1793_48042)">
<path d="M62 25.25H57.891C57.272 22.8702 56.3246 20.5883 55.076 18.47L57.986 15.56C58.1486 15.3976 58.2777 15.2047 58.3657 14.9923C58.4537 14.78 58.499 14.5524 58.499 14.3225C58.499 14.0926 58.4537 13.865 58.3657 13.6527C58.2777 13.4403 58.1486 13.2474 57.986 13.085L50.915 6.014C50.7526 5.85136 50.5597 5.72233 50.3473 5.6343C50.135 5.54627 49.9074 5.50096 49.6775 5.50096C49.4476 5.50096 49.22 5.54627 49.0077 5.6343C48.7953 5.72233 48.6024 5.85136 48.44 6.014L45.53 8.924C43.4118 7.67521 41.1298 6.72777 38.75 6.109V2C38.7497 1.53595 38.5653 1.09099 38.2371 0.762856C37.909 0.434725 37.464 0.250265 37 0.25H27C26.536 0.250265 26.091 0.434725 25.7629 0.762856C25.4347 1.09099 25.2503 1.53595 25.25 2V6.109C22.8702 6.72777 20.5882 7.67521 18.47 8.924L15.56 6.014C15.3976 5.85136 15.2047 5.72233 14.9923 5.6343C14.78 5.54627 14.5524 5.50096 14.3225 5.50096C14.0926 5.50096 13.865 5.54627 13.6527 5.6343C13.4403 5.72233 13.2474 5.85136 13.085 6.014L6.014 13.085C5.85136 13.2474 5.72233 13.4403 5.6343 13.6527C5.54627 13.865 5.50096 14.0926 5.50096 14.3225C5.50096 14.5524 5.54627 14.78 5.6343 14.9923C5.72233 15.2047 5.85136 15.3976 6.014 15.56L8.924 18.47C7.67539 20.5883 6.72795 22.8702 6.109 25.25H2C1.53595 25.2503 1.09099 25.4347 0.762856 25.7629C0.434725 26.091 0.250265 26.536 0.25 27V37C0.250265 37.464 0.434725 37.909 0.762856 38.2371C1.09099 38.5653 1.53595 38.7497 2 38.75H6.109C6.72795 41.1297 7.67539 43.4117 8.924 45.53L6.014 48.44C5.85136 48.6024 5.72233 48.7953 5.6343 49.0077C5.54627 49.22 5.50096 49.4476 5.50096 49.6775C5.50096 49.9074 5.54627 50.135 5.6343 50.3473C5.72233 50.5597 5.85136 50.7526 6.014 50.915L13.085 57.986C13.2474 58.1486 13.4403 58.2777 13.6527 58.3657C13.865 58.4537 14.0926 58.499 14.3225 58.499C14.5524 58.499 14.78 58.4537 14.9923 58.3657C15.2047 58.2777 15.3976 58.1486 15.56 57.986L18.47 55.076C20.5883 56.3246 22.8702 57.272 25.25 57.891V62C25.2503 62.464 25.4347 62.909 25.7629 63.2371C26.091 63.5653 26.536 63.7497 27 63.75H37C37.464 63.7497 37.909 63.5653 38.2371 63.2371C38.5653 62.909 38.7497 62.464 38.75 62V57.891C41.1297 57.272 43.4117 56.3246 45.53 55.076L48.44 57.986C48.6024 58.1486 48.7953 58.2777 49.0077 58.3657C49.22 58.4537 49.4476 58.499 49.6775 58.499C49.9074 58.499 50.135 58.4537 50.3473 58.3657C50.5597 58.2777 50.7526 58.1486 50.915 57.986L57.986 50.915C58.1486 50.7526 58.2777 50.5597 58.3657 50.3473C58.4537 50.135 58.499 49.9074 58.499 49.6775C58.499 49.4476 58.4537 49.22 58.3657 49.0077C58.2777 48.7953 58.1486 48.6024 57.986 48.44L55.076 45.53C56.3246 43.4117 57.272 41.1297 57.891 38.75H62C62.464 38.7497 62.909 38.5653 63.2371 38.2371C63.5653 37.909 63.7497 37.464 63.75 37V27C63.7497 26.536 63.5653 26.091 63.2371 25.7629C62.909 25.4347 62.464 25.2503 62 25.25ZM32 50.75C28.2916 50.75 24.6665 49.6503 21.5831 47.5901C18.4996 45.5298 16.0964 42.6014 14.6773 39.1753C13.2581 35.7492 12.8868 31.9792 13.6103 28.3421C14.3337 24.7049 16.1195 21.364 18.7417 18.7417C21.364 16.1195 24.7049 14.3337 28.3421 13.6103C31.9792 12.8868 35.7492 13.2581 39.1753 14.6773C42.6014 16.0964 45.5298 18.4996 47.5901 21.5831C49.6503 24.6665 50.75 28.2916 50.75 32C50.7444 36.9711 48.7672 41.737 45.2521 45.2521C41.737 48.7672 36.9711 50.7444 32 50.75Z" fill="#090C05"/>
<path d="M32.0003 16.7504C29.8019 16.7348 27.6265 17.1981 25.6251 18.1081C23.6238 19.018 21.8447 20.3529 20.4113 22.0198C18.9779 23.6867 17.9246 25.6457 17.3247 27.7608C16.7248 29.8758 16.5926 32.0961 16.9373 34.2674L20.8183 30.7104C20.9928 30.5504 21.1979 30.4275 21.4213 30.3492C21.6446 30.2708 21.8815 30.2386 22.1177 30.2545C22.3539 30.2704 22.5844 30.3341 22.7952 30.4416C23.006 30.5492 23.1928 30.6985 23.3443 30.8804L27.1173 35.4074L34.7753 27.7504H33.0003C32.5362 27.7504 32.0911 27.566 31.7629 27.2378C31.4347 26.9096 31.2503 26.4645 31.2503 26.0004C31.2503 25.5363 31.4347 25.0911 31.7629 24.7629C32.0911 24.4348 32.5362 24.2504 33.0003 24.2504H39.0003C39.2302 24.2502 39.4578 24.2954 39.6702 24.3833C39.8825 24.4712 40.0755 24.6001 40.238 24.7627C40.4006 24.9252 40.5295 25.1181 40.6174 25.3305C40.7053 25.5429 40.7504 25.7705 40.7503 26.0004V32.0004C40.7503 32.4645 40.5659 32.9096 40.2377 33.2378C39.9096 33.566 39.4644 33.7504 39.0003 33.7504C38.5362 33.7504 38.0911 33.566 37.7629 33.2378C37.4347 32.9096 37.2503 32.4645 37.2503 32.0004V30.2254L28.2383 39.2384C28.0663 39.4102 27.8604 39.5444 27.6337 39.6322C27.4069 39.7201 27.1644 39.7598 26.9215 39.7488C26.6786 39.7378 26.4407 39.6763 26.2229 39.5683C26.005 39.4603 25.8121 39.3081 25.6563 39.1214L21.8303 34.5294L18.0003 38.0384C19.0904 40.5651 20.8439 42.7498 23.0749 44.3607C25.3059 45.9716 27.9313 46.9487 30.6727 47.1884C33.4141 47.4281 36.1692 46.9215 38.646 45.7223C41.1228 44.5231 43.2288 42.6759 44.7409 40.3767C46.253 38.0775 47.1146 35.412 47.2345 32.6628C47.3544 29.9136 46.7281 27.1832 45.422 24.7611C44.1159 22.339 42.1786 20.3155 39.8157 18.9051C37.4527 17.4948 34.7521 16.7503 32.0003 16.7504Z" fill="#F1A9FF"/>
</g>
<defs>
<clipPath id="clip0_1793_48042">
<rect width="64" height="64" fill="white"/>
</clipPath>
</defs>
</svg>
