<svg width="39" height="41" viewBox="0 0 39 41" fill="none" xmlns="http://www.w3.org/2000/svg">
<path d="M29.0645 21.3H33.7869C35.005 21.2971 36.1724 20.8116 37.0333 19.9497C37.8942 19.0878 38.3783 17.9199 38.3798 16.7017V5.75657C38.3783 4.23638 37.7742 2.77879 36.6997 1.70335C35.6253 0.627913 34.1683 0.0223881 32.6481 0.0195312H8.25357C6.22425 0.0238135 4.27936 0.832223 2.84492 2.26767C1.41048 3.70313 0.603438 5.64859 0.600586 7.67791V39.3423C0.600586 39.3423 0.600586 39.3746 0.600586 39.3908C0.600586 39.407 0.600586 39.4232 0.600586 39.4394C0.600586 39.7257 0.714309 40.0002 0.916737 40.2027C1.11916 40.4051 1.39371 40.5188 1.67999 40.5188C3.07857 40.54 4.44487 40.0979 5.56585 39.2613C6.33218 38.6544 7.28711 38.3354 8.26436 38.36C9.24141 38.3368 10.1959 38.6556 10.9629 39.2613C12.0917 40.0786 13.4497 40.5186 14.8433 40.5186C16.237 40.5186 17.595 40.0786 18.7238 39.2613C19.5015 38.6755 20.4487 38.3586 21.4223 38.3586C22.3959 38.3586 23.3431 38.6755 24.1208 39.2613C25.2401 40.0971 26.6045 40.5392 28.0013 40.5188C28.2876 40.5188 28.5621 40.4051 28.7645 40.2027C28.967 40.0002 29.0807 39.7257 29.0807 39.4394C29.0735 39.4074 29.0735 39.3742 29.0807 39.3423L29.0645 21.3ZM36.2209 5.75657V16.7017C36.2195 17.3473 35.9628 17.9662 35.5068 18.4232C35.0508 18.8802 34.4325 19.1383 33.7869 19.1412H29.0645V5.75657C29.1148 4.84155 29.5137 3.98055 30.1792 3.35058C30.8447 2.72062 31.7263 2.36955 32.6427 2.36955C33.5591 2.36955 34.4407 2.72062 35.1062 3.35058C35.7718 3.98055 36.1707 4.84155 36.2209 5.75657ZM21.4115 36.2012C20.0146 36.1799 18.65 36.6221 17.531 37.4587C16.7534 38.0445 15.8062 38.3614 14.8325 38.3614C13.8589 38.3614 12.9117 38.0445 12.134 37.4587C11.013 36.6221 9.64675 36.1799 8.24817 36.2012C6.8561 36.1844 5.49686 36.6242 4.3785 37.4533C3.89316 37.8154 3.34385 38.0828 2.7594 38.2413V7.67791C2.76082 6.22071 3.33996 4.82351 4.36985 3.79261C5.39974 2.7617 6.79636 2.1812 8.25357 2.17834H28.1686C27.3513 3.19182 26.9056 4.45459 26.9057 5.75657V38.2413C26.3225 38.0819 25.7737 37.8167 25.2866 37.4587C24.1687 36.624 22.8065 36.1819 21.4115 36.2012Z" fill="#F1A9FF"/>
<path d="M21.1587 8.52441H8.50812C8.22184 8.52441 7.94729 8.63814 7.74486 8.84056C7.54243 9.04299 7.42871 9.31754 7.42871 9.60382C7.42871 9.89009 7.54243 10.1646 7.74486 10.3671C7.94729 10.5695 8.22184 10.6832 8.50812 10.6832H21.1587C21.445 10.6832 21.7196 10.5695 21.922 10.3671C22.1244 10.1646 22.2381 9.89009 22.2381 9.60382C22.2381 9.31754 22.1244 9.04299 21.922 8.84056C21.7196 8.63814 21.445 8.52441 21.1587 8.52441Z" fill="#F1A9FF"/>
<path d="M21.1587 14.8232H8.50812C8.22184 14.8232 7.94729 14.937 7.74486 15.1394C7.54243 15.3418 7.42871 15.6164 7.42871 15.9026C7.42871 16.1889 7.54243 16.4635 7.74486 16.6659C7.94729 16.8683 8.22184 16.9821 8.50812 16.9821H21.1587C21.445 16.9821 21.7196 16.8683 21.922 16.6659C22.1244 16.4635 22.2381 16.1889 22.2381 15.9026C22.2381 15.6164 22.1244 15.3418 21.922 15.1394C21.7196 14.937 21.445 14.8232 21.1587 14.8232Z" fill="#F1A9FF"/>
<path d="M21.1587 21.1104H8.50812C8.22184 21.1104 7.94729 21.2241 7.74486 21.4265C7.54243 21.6289 7.42871 21.9035 7.42871 22.1898C7.42871 22.476 7.54243 22.7506 7.74486 22.953C7.94729 23.1554 8.22184 23.2692 8.50812 23.2692H21.1587C21.445 23.2692 21.7196 23.1554 21.922 22.953C22.1244 22.7506 22.2381 22.476 22.2381 22.1898C22.2381 21.9035 22.1244 21.6289 21.922 21.4265C21.7196 21.2241 21.445 21.1104 21.1587 21.1104Z" fill="#F1A9FF"/>
<path d="M14.8334 27.4033H8.50812C8.22184 27.4033 7.94729 27.517 7.74486 27.7195C7.54243 27.9219 7.42871 28.1964 7.42871 28.4827C7.42871 28.769 7.54243 29.0436 7.74486 29.246C7.94729 29.4484 8.22184 29.5621 8.50812 29.5621H14.8334C15.1197 29.5621 15.3943 29.4484 15.5967 29.246C15.7991 29.0436 15.9128 28.769 15.9128 28.4827C15.9128 28.1964 15.7991 27.9219 15.5967 27.7195C15.3943 27.517 15.1197 27.4033 14.8334 27.4033Z" fill="#F1A9FF"/>
</svg>
