<svg width="31" height="41" viewBox="0 0 31 41" fill="none" xmlns="http://www.w3.org/2000/svg">
<path d="M28.2567 0.480469H2.96861C1.83878 0.480469 0.918945 1.39967 0.918945 2.5295V36.7111C0.918945 37.841 1.83878 38.7602 2.96861 38.7602H3.84455L4.31495 40.5776C4.37663 40.8152 4.59052 40.9805 4.83592 40.9805H7.67825C7.92365 40.9805 8.13753 40.8151 8.19922 40.5776L8.66962 38.7602H22.5567L23.0261 40.5776C23.0878 40.8152 23.3017 40.9805 23.5471 40.9805H26.3894C26.6348 40.9805 26.8487 40.8151 26.9104 40.5776L27.3808 38.7602H28.2567C29.3866 38.7602 30.3064 37.841 30.3064 36.7111V2.5295C30.3063 1.39967 29.3865 0.480469 28.2567 0.480469ZM7.26223 39.9057H5.25185L4.95532 38.7602H7.55875L7.26223 39.9057ZM25.9733 39.9057H23.9629L23.6677 38.7602H26.2699L25.9733 39.9057ZM29.2303 36.7111C29.2303 37.2485 28.7933 37.6854 28.2567 37.6854H26.9642H22.9737H8.25305H4.26129H2.9687C2.43201 37.6854 1.99504 37.2485 1.99504 36.7111V2.5295C1.99504 1.99218 2.43201 1.5552 2.9687 1.5552H28.2567C28.7933 1.5552 29.2303 1.99218 29.2303 2.5295V36.7111Z" fill="#F1A9FF"/>
<path d="M27.9307 6.83056H27.5016V3.89963C27.5016 3.6031 27.2602 3.3623 26.9636 3.3623H4.2607C3.96418 3.3623 3.72266 3.6031 3.72266 3.89963V35.3426C3.72266 35.6392 3.96409 35.88 4.2607 35.88H26.9636C27.2601 35.88 27.5016 35.6392 27.5016 35.3426V32.274H27.9307C28.2273 32.274 28.4688 32.0332 28.4688 31.7366V24.6014C28.4688 24.3049 28.2273 24.0641 27.9307 24.0641H27.5016V15.0405H27.9307C28.2273 15.0405 28.4688 14.7997 28.4688 14.5032V7.36797C28.4687 7.07136 28.2273 6.83056 27.9307 6.83056ZM26.4255 6.83056H25.9964C25.6999 6.83056 25.4584 7.07136 25.4584 7.36788V14.5031C25.4584 14.7996 25.6998 15.0404 25.9964 15.0404H26.4255V24.064H25.9964C25.6999 24.064 25.4584 24.3048 25.4584 24.6013V31.7365C25.4584 32.0331 25.6998 32.2739 25.9964 32.2739H26.4255V34.8051H4.79866V4.43704H26.4255V6.83056ZM27.3927 31.1993H26.5344V25.1387H27.3927V31.1993ZM27.3927 13.9658H26.5344V7.90521H27.3927V13.9658Z" fill="#F1A9FF"/>
<path d="M15.4355 20.3988C19.0493 20.3988 21.99 17.4588 21.99 13.8449C21.99 10.2311 19.0493 7.29102 15.4355 7.29102C11.8216 7.29102 8.88086 10.2311 8.88086 13.8449C8.88086 17.4588 11.8216 20.3988 15.4355 20.3988ZM14.8975 19.2696C13.2922 19.11 11.8904 18.2738 10.9952 17.029L13.2814 15.7087C13.6945 16.1854 14.2538 16.5294 14.8975 16.6526V19.2696ZM15.9735 19.2696V16.6525C16.617 16.5294 17.1764 16.1857 17.5893 15.7092L19.8759 17.0291C18.9806 18.2738 17.5789 19.11 15.9735 19.2696ZM20.4156 11.5901C20.7291 12.2797 20.9141 13.0393 20.9141 13.8448C20.9141 14.6505 20.7291 15.41 20.4156 16.0995L18.1279 14.779C18.2304 14.4847 18.2975 14.1737 18.2975 13.8448C18.2975 13.516 18.2304 13.205 18.1279 12.9106L20.4156 11.5901ZM15.9735 8.42013C17.5789 8.57972 18.9806 9.41592 19.8759 10.6606L17.5893 11.9806C17.1764 11.5041 16.617 11.1604 15.9735 11.0373V8.42013ZM16.9538 13.8449C16.9538 14.6821 16.2728 15.3631 15.4356 15.3631C14.5984 15.3631 13.9174 14.6821 13.9174 13.8449C13.9174 13.0077 14.5984 12.3267 15.4356 12.3267C16.2728 12.3267 16.9538 13.0077 16.9538 13.8449ZM14.8975 8.42013V11.0373C14.2539 11.1605 13.6945 11.5043 13.2814 11.9811L10.9952 10.6608C11.8904 9.41601 13.2922 8.57972 14.8975 8.42013ZM9.95695 13.8449C9.95695 13.0393 10.142 12.2797 10.4555 11.5902L12.743 12.9113C12.6406 13.2055 12.5736 13.5163 12.5736 13.8449C12.5736 14.1735 12.6406 14.4844 12.743 14.7786L10.4555 16.0996C10.142 15.41 9.95695 14.6505 9.95695 13.8449Z" fill="#F1A9FF"/>
<path d="M10.8621 25.4869C11.1586 25.4869 11.4001 25.2461 11.4001 24.9495V24.6392H12.013V24.9495C12.013 25.2461 12.2544 25.4869 12.551 25.4869C12.8475 25.4869 13.0891 25.2461 13.0891 24.9495V24.5001C13.0891 23.9844 12.6678 23.5645 12.1521 23.5645H11.2599C10.7441 23.5645 10.3242 23.9844 10.3242 24.5001V24.9495C10.3241 25.2461 10.5656 25.4869 10.8621 25.4869Z" fill="#F1A9FF"/>
<path d="M11.26 27.583H12.1523C12.6681 27.583 13.0892 27.1631 13.0892 26.6474V26.051C13.0892 25.7545 12.8478 25.5137 12.5512 25.5137C12.2547 25.5137 12.0131 25.7545 12.0131 26.051V26.5083H11.4003V26.051C11.4003 25.7545 11.1589 25.5137 10.8623 25.5137C10.5657 25.5137 10.3242 25.7545 10.3242 26.051V26.6474C10.3245 27.1631 10.7444 27.583 11.26 27.583Z" fill="#F1A9FF"/>
<path d="M14.5886 25.4869C14.8852 25.4869 15.1267 25.2461 15.1267 24.9495V24.6392H15.7395V24.9495C15.7395 25.2461 15.981 25.4869 16.2776 25.4869C16.5741 25.4869 16.8156 25.2461 16.8156 24.9495V24.5001C16.8156 23.9844 16.3957 23.5645 15.88 23.5645H14.9877C14.472 23.5645 14.0508 23.9844 14.0508 24.5001V24.9495C14.0506 25.2461 14.2921 25.4869 14.5886 25.4869Z" fill="#F1A9FF"/>
<path d="M14.9879 27.583H15.8802C16.3959 27.583 16.8158 27.1631 16.8158 26.6474V26.051C16.8158 25.7545 16.5744 25.5137 16.2777 25.5137C15.9812 25.5137 15.7397 25.7545 15.7397 26.051V26.5083H15.1269V26.051C15.1269 25.7545 14.8854 25.5137 14.5888 25.5137C14.2923 25.5137 14.0508 25.7545 14.0508 26.051V26.6474C14.0509 27.1631 14.4721 27.583 14.9879 27.583Z" fill="#F1A9FF"/>
<path d="M18.3173 25.4869C18.6138 25.4869 18.8553 25.2461 18.8553 24.9495V24.6392H19.4681V24.9495C19.4681 25.2461 19.7096 25.4869 20.0062 25.4869C20.3028 25.4869 20.5442 25.2461 20.5442 24.9495V24.5001C20.5442 23.9844 20.1243 23.5645 19.6086 23.5645H18.7149C18.1992 23.5645 17.7793 23.9844 17.7793 24.5001V24.9495C17.7793 25.2461 18.0207 25.4869 18.3173 25.4869Z" fill="#F1A9FF"/>
<path d="M18.715 27.583H19.6087C20.1244 27.583 20.5443 27.1631 20.5443 26.6474V26.051C20.5443 25.7545 20.3029 25.5137 20.0063 25.5137C19.7096 25.5137 19.4682 25.7545 19.4682 26.051V26.5083H18.8554V26.051C18.8554 25.7545 18.614 25.5137 18.3173 25.5137C18.0207 25.5137 17.7793 25.7545 17.7793 26.051V26.6474C17.7795 27.1631 18.1994 27.583 18.715 27.583Z" fill="#F1A9FF"/>
<path d="M8.29862 29.6745H22.5692C23.1098 29.6745 23.5507 29.2343 23.5507 28.6936V22.5668C23.5507 22.0262 23.1097 21.5859 22.5692 21.5859H8.29862C7.75795 21.5859 7.31836 22.0262 7.31836 22.5668V28.6936C7.31836 29.2343 7.75795 29.6745 8.29862 29.6745ZM22.4746 22.5668V28.6005L8.39436 28.6937L8.29853 22.6608L22.4746 22.5668Z" fill="#F1A9FF"/>
</svg>
