<svg width="65" height="64" viewBox="0 0 65 64" fill="none" xmlns="http://www.w3.org/2000/svg">
<path fill-rule="evenodd" clip-rule="evenodd" d="M16.3346 54.4007C16.3346 56.1671 14.901 57.6007 13.1346 57.6007C11.3682 57.6007 9.93457 56.1671 9.93457 54.4007C9.93457 52.6343 11.3682 51.2007 13.1346 51.2007C14.901 51.2007 16.3346 52.6343 16.3346 54.4007ZM48.3346 25.6007H51.5346C53.301 25.6007 54.7346 24.1671 54.7346 22.4007C54.7346 20.6343 53.301 19.2007 51.5346 19.2007H48.3346C46.5682 19.2007 45.1346 20.6343 45.1346 22.4007C45.1346 24.1671 46.5682 25.6007 48.3346 25.6007ZM50.597 15.0631L53.797 11.8631C55.045 10.6151 55.045 8.58634 53.797 7.33834C52.549 6.09034 50.5202 6.09034 49.2722 7.33834L46.0722 10.5383C44.8242 11.7863 44.8242 13.8151 46.0722 15.0631C47.3202 16.3111 49.349 16.3111 50.597 15.0631Z" fill="#F1A9FF"/>
<path fill-rule="evenodd" clip-rule="evenodd" d="M16.401 25.728V18.8C16.401 11.7312 22.1322 6 29.201 6C36.2698 6 42.001 11.7312 42.001 18.8C42.001 20.5664 40.5674 22 38.801 22C37.0346 22 35.601 20.5664 35.601 18.8C35.601 15.264 32.737 12.4 29.201 12.4C25.665 12.4 22.801 15.264 22.801 18.8V25.2H38.8586C44.129 25.2 48.401 29.472 48.401 34.7424V47.6576C48.401 50.1888 47.3962 52.6176 45.6074 54.4064C43.8186 56.1952 41.3898 57.2 38.8586 57.2H22.801C21.0346 57.2 19.601 55.7664 19.601 54C19.601 50.4672 16.7338 47.6 13.201 47.6C11.4346 47.6 10.001 46.1664 10.001 44.4V34.7424C10.001 30.5728 12.673 27.0272 16.401 25.728ZM26.001 38.2V44.6C26.001 46.3664 27.4346 47.8 29.201 47.8C30.9674 47.8 32.401 46.3664 32.401 44.6V38.2C32.401 36.4336 30.9674 35 29.201 35C27.4346 35 26.001 36.4336 26.001 38.2Z" fill="#090C05"/>
</svg>
