<svg width="46" height="41" viewBox="0 0 46 41" fill="none" xmlns="http://www.w3.org/2000/svg">
<path d="M26.8326 36.0664H26.8232V34.1875L26.8326 36.0664Z" fill="#F1A9FF"/>
<path d="M23.1601 39.6648H22.7843L22.5025 39.3923L6.12819 23.2153C2.6523 19.7488 0.820406 15.8596 0.820406 11.9421C0.814245 10.4203 1.11374 8.91268 1.70114 7.50874C2.28853 6.1048 3.15186 4.83311 4.23994 3.76907C6.56762 1.4503 9.71929 0.148377 13.0048 0.148377C16.2904 0.148377 19.442 1.4503 21.7697 3.76907L23.1601 5.197L24.5504 3.79725C25.695 2.61438 27.0635 1.67119 28.5763 1.02267C30.0891 0.374149 31.7158 0.0332816 33.3617 0.0199387C35.0076 0.0065959 36.6397 0.321045 38.1628 0.944952C39.6859 1.56886 41.0695 2.48974 42.2331 3.6539C43.3966 4.81807 44.3167 6.20222 44.9398 7.72565C45.5629 9.24909 45.8765 10.8813 45.8623 12.5272C45.8481 14.1731 45.5063 15.7996 44.857 17.3121C44.2077 18.8245 43.2637 20.1926 42.0802 21.3364L38.4916 24.8781L37.1764 23.5441L40.7556 20.0024C42.7277 18.0304 43.8356 15.3557 43.8356 12.5668C43.8356 9.77796 42.7277 7.10329 40.7556 5.13125C38.7836 3.1592 36.1089 2.05132 33.32 2.05132C30.5312 2.05132 27.8565 3.1592 25.8844 5.13125L23.1601 7.8462L20.4357 5.13125C19.4603 4.15469 18.3019 3.37997 17.0269 2.8514C15.7518 2.32282 14.3851 2.05076 13.0048 2.05076C11.6246 2.05076 10.2578 2.32282 8.98278 2.8514C7.70773 3.37997 6.54937 4.15469 5.57393 5.13125C4.66083 6.02033 3.93582 7.08393 3.44198 8.25881C2.94814 9.43369 2.69557 10.6959 2.69927 11.9703C2.69927 15.3523 4.34327 18.7718 7.45279 21.8813L23.8177 38.0959L23.1601 38.7253V39.6648Z" fill="#F1A9FF"/>
<path d="M25.039 40.5201C24.5765 40.5202 24.1185 40.429 23.6912 40.2517C23.264 40.0743 22.876 39.8144 22.5495 39.4868L12.6104 29.5382L13.935 28.2136L23.8835 38.1622C24.0365 38.3151 24.2181 38.4365 24.418 38.5193C24.6179 38.6021 24.8321 38.6447 25.0484 38.6447C25.2648 38.6447 25.479 38.6021 25.6789 38.5193C25.8787 38.4365 26.0603 38.3151 26.2133 38.1622C26.3663 38.0092 26.4876 37.8276 26.5704 37.6277C26.6532 37.4278 26.6958 37.2136 26.6958 36.9973C26.6958 36.7809 26.6532 36.5667 26.5704 36.3668C26.4876 36.1669 26.3663 35.9853 26.2133 35.8324L16.2835 25.9026L17.6081 24.578L27.5567 34.5266C27.7856 34.7601 28.0789 34.9201 28.3991 34.9862C28.7194 35.0522 29.0521 35.0212 29.3547 34.8971C29.6572 34.7731 29.9159 34.5616 30.0977 34.2898C30.2794 34.0179 30.376 33.6981 30.375 33.371C30.3762 33.1548 30.3344 32.9406 30.2522 32.7406C30.1699 32.5406 30.0488 32.359 29.8959 32.2062L19.9567 22.2764L21.2813 20.9424L31.2299 30.891C31.4587 31.1245 31.7521 31.2845 32.0723 31.3506C32.3926 31.4166 32.7253 31.3856 33.0278 31.2615C33.3304 31.1375 33.5891 30.926 33.7709 30.6542C33.9526 30.3823 34.0492 30.0625 34.0482 29.7355C34.0515 29.3077 33.8861 28.8959 33.5879 28.5893L23.6299 18.6408L24.9545 17.3068L34.8843 27.2366C35.1943 27.5362 35.6086 27.7037 36.0398 27.7037C36.4709 27.7037 36.8852 27.5362 37.1953 27.2366C37.3495 27.0842 37.472 26.9028 37.5559 26.7029C37.6397 26.503 37.6832 26.2885 37.6838 26.0717C37.6943 25.6508 37.5391 25.2426 37.2516 24.935L25.7812 14.0469C21.7416 17.7013 18.0591 18.3683 13.9068 16.2358L12.7701 15.644L22.4932 5.8457L23.8272 7.1703L15.9641 15.0897C18.3503 16.0291 21.1592 15.9164 25.0578 12.1493L25.7624 11.4259L38.5387 23.5822C39.0429 24.0821 39.3843 24.7227 39.5181 25.42C39.6519 26.1173 39.5718 26.8388 39.2885 27.4898C39.0051 28.1409 38.5316 28.6911 37.9301 29.0683C37.3286 29.4456 36.6271 29.6323 35.9177 29.6039V29.7355C35.9143 30.209 35.8156 30.6771 35.6277 31.1118C35.4398 31.5465 35.1663 31.939 34.8236 32.2659C34.481 32.5928 34.076 32.8475 33.633 33.0147C33.1899 33.182 32.7177 33.2584 32.2445 33.2395V33.3617C32.2425 33.8348 32.1447 34.3027 31.957 34.737C31.7693 35.1714 31.4956 35.5632 31.1523 35.8889C30.8091 36.2146 30.4034 36.4673 29.9598 36.632C29.5163 36.7967 29.0439 36.8698 28.5713 36.8469V36.9785C28.5725 37.4431 28.4821 37.9035 28.3051 38.3331C28.1282 38.7627 27.8682 39.1532 27.54 39.4822C27.2119 39.8112 26.8221 40.0723 26.3929 40.2504C25.9638 40.4285 25.5037 40.5201 25.039 40.5201Z" fill="#F1A9FF"/>
</svg>
