<svg width="35" height="41" viewBox="0 0 35 41" fill="none" xmlns="http://www.w3.org/2000/svg">
<path d="M7.08014 24.3896H5.68359V34.8638H7.08014V24.3896Z" fill="#F1A9FF"/>
<path d="M5.68433 20.9678H7.08088V16.7782C7.08088 11.0174 11.7593 6.33893 17.5201 6.33893C20.3132 6.33893 22.9317 7.42126 24.8869 9.37643C26.8421 11.3316 27.9244 13.9501 27.9244 16.7432V34.8286H29.321V16.7782C29.321 13.6359 28.099 10.6333 25.8645 8.39885C23.63 6.16437 20.6623 4.94238 17.4852 4.94238C10.9563 4.94238 5.64941 10.2493 5.64941 16.7782V20.9678H5.68433Z" fill="#F1A9FF"/>
<path d="M17.519 8.25977C12.8056 8.25977 9 12.1003 9 16.7787V34.8641H10.3966V16.7787C10.3966 12.8335 13.6086 9.65632 17.519 9.65632C21.4293 9.65632 24.6414 12.8684 24.6414 16.7787V28.6494H26.0379V16.7787C26.0379 12.1003 22.2323 8.25977 17.519 8.25977Z" fill="#F1A9FF"/>
<path d="M26.0382 32.1055H24.6416V34.8986H26.0382V32.1055Z" fill="#F1A9FF"/>
<path d="M17.5193 11.541C14.6215 11.541 12.2822 13.8802 12.2822 16.7781V26.938H13.6788V16.7781C13.6788 14.6483 15.3896 12.9376 17.5193 12.9376C19.649 12.9376 21.3598 14.6833 21.3598 16.7781V34.8634H22.7564V16.7781C22.7564 13.9152 20.4171 11.541 17.5193 11.541Z" fill="#F1A9FF"/>
<path d="M13.6788 30.3945H12.2822V34.8984H13.6788V30.3945Z" fill="#F1A9FF"/>
<path d="M19.4737 24.3896H18.0771V34.8638H19.4737V24.3896Z" fill="#F1A9FF"/>
<path d="M17.5196 14.8574C16.4373 14.8574 15.5645 15.7303 15.5645 16.8126V34.8979H16.961V16.7777C16.961 16.4635 17.2054 16.2191 17.5196 16.2191C17.8338 16.2191 18.0782 16.4635 18.0782 16.7777V20.9673H19.4748V16.7777C19.4748 15.7303 18.602 14.8574 17.5196 14.8574Z" fill="#F1A9FF"/>
<path d="M2.15729 1.41608H8.05773V0.0195312H1.45902C1.07497 0.0195312 0.760742 0.333755 0.760742 0.717807V7.31651H2.15729V1.41608Z" fill="#F1A9FF"/>
<path d="M2.15729 33.2227H0.760742V39.8214C0.760742 40.2054 1.07497 40.5196 1.45902 40.5196H8.05773V39.1231H2.15729V33.2227Z" fill="#F1A9FF"/>
<path d="M32.8811 39.1231H27.0156V40.5196H33.5794C33.9635 40.5196 34.2777 40.2054 34.2777 39.8214V33.2227H32.8811V39.1231Z" fill="#F1A9FF"/>
<path d="M33.5794 0.0195312H27.0156V1.41608H32.8811V7.31651H34.2777V0.717807C34.2777 0.333755 33.9635 0.0195312 33.5794 0.0195312Z" fill="#F1A9FF"/>
</svg>
