<svg width="65" height="64" viewBox="0 0 65 64" fill="none" xmlns="http://www.w3.org/2000/svg">
<g clip-path="url(#clip0_1793_48058)">
<path fill-rule="evenodd" clip-rule="evenodd" d="M32.9937 0.000276839C30.4549 -0.0256239 28.6228 1.77061 27.0034 3.40896C25.384 5.04732 23.8452 6.66709 22.6663 7.14138C21.4874 7.61567 19.2552 7.51285 16.9524 7.45242C14.6496 7.39199 12.0843 7.36503 10.2708 9.14187C8.45731 10.9187 8.43192 13.484 8.44534 15.7876C8.45875 18.0912 8.51586 20.3249 8.0176 21.4939C7.51935 22.6629 5.86858 24.1686 4.19754 25.7542C2.52649 27.3398 0.693256 29.1346 0.667269 31.6733C0.641368 34.2121 2.43761 36.0439 4.07596 37.6633C5.71431 39.2827 7.33409 40.8218 7.80837 42.0007C8.28266 43.1796 8.18008 45.4118 8.11965 47.7146C8.05923 50.0174 8.03203 52.583 9.80886 54.3965C11.5857 56.2099 14.1513 56.2351 16.4548 56.2217C18.7584 56.2082 20.9919 56.1511 22.1609 56.6494C23.3299 57.1476 24.8356 58.7986 26.4211 60.4697C28.0067 62.1407 29.8016 63.9737 32.3403 63.9997C34.8791 64.0256 36.7112 62.2294 38.3306 60.591C39.9499 58.9527 41.4888 57.3329 42.6677 56.8586C43.8466 56.3843 46.0788 56.4872 48.3816 56.5476C50.6844 56.608 53.2497 56.6352 55.0632 54.8584C56.8767 53.0815 56.9021 50.516 56.8886 48.2124C56.8752 45.9088 56.8181 43.6749 57.3164 42.5059C57.8146 41.3368 59.4654 39.8314 61.1364 38.2458C62.8075 36.6602 64.6407 34.8654 64.6667 32.3267C64.6667 32.3266 64.6667 32.3265 64.6667 32.3264C64.6926 29.7877 62.8964 27.9558 61.258 26.3364C59.6197 24.717 57.9999 23.178 57.5256 21.999C57.0513 20.8201 57.1539 18.5882 57.2143 16.2854C57.2748 13.9826 57.302 11.417 55.5251 9.60353C53.7483 7.79008 51.1827 7.76493 48.8791 7.77835C46.5756 7.79176 44.3421 7.84887 43.1731 7.35061C42.0041 6.85236 40.4984 5.2016 38.9128 3.53055C37.3272 1.8595 35.5324 0.0262638 32.9937 0.000276839ZM32.6658 12.25C43.5568 12.25 52.4153 21.1085 52.4153 31.9995C52.4153 42.8905 43.5568 51.749 32.6658 51.749C21.7748 51.749 12.9163 42.8905 12.9163 31.9995C12.9163 21.1085 21.7748 12.25 32.6658 12.25Z" fill="#090C05"/>
<path fill-rule="evenodd" clip-rule="evenodd" d="M32.6658 18.375C31.6265 18.375 30.7532 18.973 30.2113 19.614C29.6693 20.255 29.3174 20.9725 28.9901 21.6738C28.3353 23.0766 27.6567 24.4002 27.3214 24.6438C26.986 24.8874 25.5175 25.1238 23.981 25.313C23.2128 25.4076 22.422 25.5206 21.6449 25.8379C20.8678 26.1552 20.0291 26.8008 19.7079 27.7893C19.3866 28.7778 19.6856 29.7931 20.1278 30.5066C20.5699 31.2201 21.1434 31.7766 21.7093 32.3047C22.8411 33.3609 23.8901 34.4152 24.0182 34.8094C24.1462 35.2036 23.9172 36.6732 23.6224 38.1929C23.475 38.9527 23.3381 39.7401 23.3997 40.5772C23.4614 41.4143 23.8162 42.4115 24.6571 43.0225C25.4979 43.6335 26.556 43.6627 27.3712 43.4627C28.1864 43.2627 28.8928 42.8892 29.5699 42.5142C30.9241 41.7642 32.2511 41.0923 32.6656 41.0923C33.0801 41.0923 34.4071 41.7644 35.7613 42.5144C36.4384 42.8895 37.1446 43.2629 37.9598 43.4629C38.775 43.663 39.833 43.6337 40.6739 43.0227C41.5148 42.4118 41.8698 41.4148 41.9314 40.5777C41.9931 39.7406 41.8562 38.9532 41.7088 38.1934C41.414 36.6737 41.1849 35.2041 41.313 34.8098C41.4411 34.4156 42.4903 33.3611 43.6221 32.305C44.188 31.7769 44.7617 31.2206 45.2039 30.5071C45.6461 29.7936 45.945 28.7783 45.6238 27.7898C45.3027 26.8013 44.4639 26.1557 43.6868 25.8384C42.9097 25.5211 42.1188 25.4079 41.3506 25.3132C39.8142 25.124 38.3456 24.8877 38.0103 24.6441C37.675 24.4004 36.9966 23.0768 36.3419 21.6741C36.0145 20.9727 35.6626 20.2553 35.1207 19.6143C34.5788 18.9733 33.7052 18.375 32.6658 18.375Z" fill="#F1A9FF"/>
</g>
<defs>
<clipPath id="clip0_1793_48058">
<rect width="64" height="64" fill="white" transform="translate(0.666992)"/>
</clipPath>
</defs>
</svg>
