<svg width="1680" height="458" viewBox="0 0 1680 458" fill="none" xmlns="http://www.w3.org/2000/svg">
<g clip-path="url(#clip0_1788_3155)">
<rect width="1680" height="458" fill="#0A2E31"/>
<g clip-path="url(#clip1_1788_3155)">
<g opacity="0.1">
<path fill-rule="evenodd" clip-rule="evenodd" d="M1694.19 335.599C1723.71 378.438 1741.33 433.995 1728.11 489.722L1728.11 489.725C1716.14 540.142 1678.77 589.36 1625.52 612.223C1580.22 631.675 1543.48 623.207 1509.23 612.35C1503.59 610.564 1497.98 608.704 1492.29 606.82C1464.07 597.476 1434.07 587.542 1391.18 583.064C1371.25 580.983 1327.84 578.023 1281.41 585.441C1234.42 592.948 1189.76 610.193 1160.84 643.869L1160.84 643.875C1151.59 654.643 1131.79 679.668 1132.8 711.05C1133.44 730.848 1142.35 750.445 1157.06 767.635C1171.91 784.985 1190.6 797.391 1205.91 803.054C1232.4 812.846 1269.74 809.675 1311.11 786.86C1352 764.312 1393.74 723.957 1425.62 666.368L1492.83 703.588C1454.76 772.368 1403.16 823.846 1348.2 854.15C1293.73 884.188 1232.73 894.889 1179.28 875.128L1179.28 875.127C1150.94 864.649 1121.53 844.29 1098.69 817.595C1075.71 790.738 1057.36 755.007 1056.01 713.536L1056.01 713.534C1054.85 677.629 1066.82 647.617 1079.21 626.255C1051.02 633.42 1024.5 634.317 998.846 629.547L1004.14 601.075C998.845 629.547 998.835 629.546 998.826 629.544L998.648 629.51C998.572 629.496 998.486 629.479 998.39 629.461C998.199 629.423 997.969 629.377 997.701 629.322C997.167 629.213 996.482 629.067 995.658 628.881C994.012 628.509 991.803 627.976 989.122 627.246C983.776 625.791 976.471 623.537 967.964 620.201C951.106 613.592 928.609 602.383 907.269 583.967C858.092 541.529 838.48 483.153 831.654 431.657C820.982 435.287 810.572 440.279 799.325 447.461L799.324 447.462C760.037 472.549 736.683 509.499 722.371 540.138L652.766 507.613C670.195 470.301 701.484 418.773 757.981 382.696C782.306 367.162 805.928 358.252 829.361 352.715C831.223 323.332 835.495 299.739 838.045 287.493C856.678 198.021 908.466 112.313 974.556 50.9C1040.16 -10.0609 1125.2 -51.7093 1211.28 -41.8221C1241.27 -38.378 1275.99 -28.0658 1306.44 -10.2099C1336.72 7.54606 1366.38 34.9947 1379.07 74.2622C1379.07 74.2631 1379.07 74.264 1379.07 74.2649C1397.6 131.625 1371.48 186.733 1347.25 222.817C1321.93 260.518 1291.26 288.548 1282.5 296.336C1177.56 389.652 1027.07 406.598 946.588 415.661C945.548 415.778 944.519 415.894 943.502 416.009C943.502 416.009 943.501 416.009 943.5 416.009C930.202 417.51 918.332 418.633 907.561 419.626C912.722 461.043 927.2 499.68 957.456 525.79C970.431 536.986 984.686 544.225 996 548.661C1001.58 550.848 1006.22 552.265 1009.29 553.101C1010.82 553.517 1011.94 553.784 1012.57 553.926C1012.82 553.982 1012.99 554.018 1013.08 554.037C1032.41 557.593 1055.29 555.957 1085.98 542.999C1132.13 523.512 1159.05 496.881 1190.74 460.901C1194.75 456.347 1198.84 451.636 1203.05 446.786C1232.43 412.945 1267.7 372.324 1323.11 330.626L1323.11 330.625L1324.38 329.675C1353 308.134 1389.37 280.762 1429.35 261.929C1470.38 242.599 1519.22 230.294 1571.22 244.487M907.297 342.316C916.427 341.525 925.615 340.7 934.887 339.653L934.89 339.653C1018.7 330.2 1146.21 314.708 1231.45 238.908L1231.46 238.907C1238.61 232.542 1263.57 209.602 1283.47 179.97C1304.46 148.722 1313.15 120.135 1305.96 97.8918L1305.96 97.8892C1301.03 82.6255 1288.1 68.1059 1267.59 56.0783C1247.24 44.1503 1222.96 36.8639 1202.52 34.5163C1146.71 28.1064 1082.97 55.0429 1026.85 107.194C971.212 158.894 928.322 230.825 913.258 303.164L913.258 303.165C911.591 311.165 909.061 325.012 907.297 342.316ZM1246.44 513.897C1254.19 512.184 1261.84 510.754 1269.29 509.563C1325.15 500.638 1376.08 504.231 1399.15 506.639C1450.98 512.05 1489.22 524.784 1517.7 534.267C1522.94 536.01 1527.84 537.643 1532.44 539.101C1561.39 548.279 1575.8 549.951 1595.22 541.615C1624.56 529.015 1646.6 500.434 1653.36 471.973C1653.36 471.972 1653.36 471.971 1653.36 471.97C1660.22 443.048 1651.84 409.55 1630.93 379.201C1609.96 348.763 1579.63 326.432 1551 318.617L1551 318.617C1523.09 310.999 1493.84 316.484 1462.09 331.444C1429.86 346.624 1399.22 369.514 1369.3 392.028C1320.74 428.575 1290.63 463.19 1261.33 496.877C1257.01 501.834 1252.72 506.772 1248.39 511.692C1247.74 512.428 1247.09 513.163 1246.44 513.897ZM1694.19 335.599C1664.73 292.848 1620.2 257.855 1571.22 244.488L1694.19 335.599Z" fill="#BDDBD7"/>
<path fill-rule="evenodd" clip-rule="evenodd" d="M-318.683 711.816C-348.2 668.977 -365.825 613.42 -352.599 557.693L-352.598 557.69C-340.627 507.273 -303.263 458.055 -250.017 435.192C-204.716 415.74 -167.969 424.208 -133.72 435.065C-128.085 436.851 -122.468 438.711 -116.779 440.595C-88.5621 449.939 -58.561 459.873 -15.671 464.351C4.25784 466.432 47.67 469.392 94.0989 461.974C141.088 454.467 185.752 437.222 214.664 403.546L214.669 403.54C223.919 392.772 243.721 367.747 242.708 336.365C242.067 316.568 233.154 296.97 218.446 279.78C203.602 262.43 184.907 250.024 169.593 244.361C143.106 234.569 105.771 237.74 64.4003 260.555C23.5121 283.103 -18.23 323.458 -50.109 381.047L-117.322 343.827C-79.2482 275.047 -27.6471 223.569 27.3044 193.265C81.7733 163.227 142.775 152.526 196.228 172.287L196.23 172.288C224.569 182.766 253.977 203.125 276.818 229.821C299.796 256.677 318.152 292.408 319.494 333.879L319.495 333.881C320.655 369.786 308.686 399.798 296.296 421.16C324.49 413.995 351.007 413.098 376.662 417.868L371.371 446.34C376.663 417.868 376.672 417.87 376.682 417.871L376.86 417.905C376.936 417.919 377.022 417.936 377.118 417.955C377.309 417.992 377.539 418.038 377.806 418.093C378.341 418.202 379.026 418.348 379.85 418.534C381.496 418.906 383.705 419.44 386.386 420.169C391.732 421.624 399.037 423.879 407.544 427.214C424.402 433.823 446.898 445.032 468.239 463.448C517.416 505.886 537.027 564.262 543.854 615.758C554.525 612.129 564.936 607.136 576.183 599.954L576.184 599.953C615.47 574.866 638.825 537.916 653.136 507.277L722.742 539.802C705.313 577.114 674.024 628.642 617.527 664.719C593.202 680.253 569.58 689.163 546.147 694.7C544.284 724.083 540.013 747.676 537.463 759.922C518.83 849.395 467.042 935.102 400.952 996.515C335.349 1057.48 250.311 1099.12 164.225 1089.24C134.235 1085.79 99.5194 1075.48 69.0671 1057.63C38.7851 1039.87 9.12726 1012.42 -3.55935 973.153C-3.55963 973.152 -3.5599 973.151 -3.56019 973.15C-22.0939 915.791 4.02515 860.682 28.2589 824.598C53.579 786.897 84.2502 758.867 93.0094 751.079C197.95 657.763 348.44 640.817 428.92 631.754C429.96 631.637 430.989 631.521 432.005 631.406C432.006 631.406 432.007 631.406 432.008 631.406C445.305 629.905 457.176 628.782 467.947 627.789C462.786 586.373 448.308 547.736 418.052 521.626C405.077 510.429 390.822 503.19 379.508 498.754C373.929 496.567 369.292 495.15 366.219 494.314C364.689 493.898 363.568 493.631 362.938 493.489C362.692 493.434 362.522 493.397 362.432 493.378C343.094 489.822 320.215 491.458 289.529 504.416C243.38 523.903 216.459 550.534 184.772 586.514C180.761 591.068 176.671 595.779 172.46 600.629C143.076 634.47 107.806 675.091 52.395 716.789L52.3938 716.79L51.1312 717.74C22.5065 739.281 -13.8652 766.653 -53.8415 785.486C-94.8745 804.816 -143.714 817.121 -195.713 802.928M468.211 705.099C459.08 705.89 449.893 706.715 440.621 707.762L440.618 707.762C356.81 717.215 229.297 732.707 144.055 808.507L144.053 808.509C136.894 814.873 111.935 837.813 92.034 867.445C71.0476 898.693 62.3567 927.28 69.5443 949.523L69.5452 949.526C74.4762 964.79 87.4091 979.309 107.921 991.337C128.264 1003.26 152.547 1010.55 172.988 1012.9C228.798 1019.31 292.537 992.372 348.66 940.221C404.296 888.522 447.185 816.59 462.25 744.251L462.25 744.251C463.916 736.25 466.447 722.404 468.211 705.099ZM129.067 533.518C121.314 535.231 113.673 536.662 106.219 537.852C50.3576 546.777 -0.576546 543.184 -23.6463 540.776C-75.4713 535.365 -113.715 522.631 -142.194 513.148C-147.428 511.405 -152.332 509.772 -156.93 508.314C-185.883 499.137 -200.294 497.464 -219.708 505.8C-249.052 518.4 -271.09 546.981 -277.849 575.442C-277.849 575.443 -277.85 575.444 -277.85 575.445C-284.713 604.367 -276.334 637.865 -255.423 668.214C-234.45 698.652 -204.125 720.983 -175.49 728.798L-175.489 728.798C-147.579 736.416 -118.336 730.931 -86.5797 715.971C-54.357 700.791 -23.7159 677.901 6.20453 655.387C54.7707 618.84 84.8799 584.225 114.181 550.538C118.493 545.581 122.788 540.644 127.121 535.723C127.769 534.987 128.418 534.252 129.067 533.518ZM-318.683 711.816C-289.226 754.567 -244.695 789.56 -195.715 802.927L-318.683 711.816Z" fill="#BDDBD7"/>
</g>
</g>
</g>
<defs>
<clipPath id="clip0_1788_3155">
<rect width="1680" height="458" fill="white"/>
</clipPath>
<clipPath id="clip1_1788_3155">
<rect width="2090" height="1135" fill="white" transform="translate(-357 -44)"/>
</clipPath>
</defs>
</svg>