<svg width="65" height="64" viewBox="0 0 65 64" fill="none" xmlns="http://www.w3.org/2000/svg">
<g id="fi_6948656" clip-path="url(#clip0_2057_7065)">
<g id="g1547">
<path id="path1513" fill-rule="evenodd" clip-rule="evenodd" d="M32.9937 0.000765121C30.4549 -0.0251356 28.6228 1.7711 27.0034 3.40945C25.384 5.04781 23.8452 6.66758 22.6663 7.14187C21.4874 7.61616 19.2552 7.51333 16.9524 7.45291C14.6496 7.39248 12.0843 7.36552 10.2708 9.14236C8.45731 10.9192 8.43192 13.4845 8.44534 15.7881C8.45875 18.0917 8.51586 20.3254 8.0176 21.4944C7.51935 22.6634 5.86858 24.169 4.19754 25.7546C2.52649 27.3402 0.693256 29.1351 0.667269 31.6738C0.641368 34.2126 2.43761 36.0444 4.07596 37.6638C5.71431 39.2832 7.33409 40.8223 7.80837 42.0012C8.28266 43.1801 8.18008 45.4123 8.11965 47.7151C8.05923 50.0179 8.03203 52.5835 9.80886 54.3969C11.5857 56.2104 14.1513 56.2356 16.4548 56.2221C18.7584 56.2087 20.9919 56.1516 22.1609 56.6499C23.3299 57.1481 24.8356 58.7991 26.4211 60.4702C28.0067 62.1412 29.8016 63.9742 32.3403 64.0002C34.8791 64.0261 36.7112 62.2299 38.3306 60.5915C39.9499 58.9532 41.4888 57.3334 42.6677 56.8591C43.8466 56.3848 46.0788 56.4876 48.3816 56.5481C50.6844 56.6085 53.2497 56.6357 55.0632 54.8589C56.8767 53.082 56.9021 50.5164 56.8886 48.2129C56.8752 45.9093 56.8181 43.6754 57.3164 42.5063C57.8146 41.3373 59.4654 39.8319 61.1364 38.2463C62.8075 36.6607 64.6407 34.8659 64.6667 32.3271C64.6667 32.3271 64.6667 32.327 64.6667 32.3269C64.6926 29.7881 62.8964 27.9563 61.258 26.3369C59.6197 24.7175 57.9999 23.1784 57.5256 21.9995C57.0513 20.8206 57.1539 18.5887 57.2143 16.2859C57.2748 13.9831 57.302 11.4175 55.5251 9.60402C53.7483 7.79057 51.1827 7.76542 48.8791 7.77883C46.5756 7.79225 44.3421 7.84935 43.1731 7.3511C42.0041 6.85285 40.4984 5.20209 38.9128 3.53103C37.3272 1.85998 35.5324 0.0267521 32.9937 0.000765121ZM32.6658 12.2505C43.5568 12.2505 52.4153 21.109 52.4153 32C52.4153 42.891 43.5568 51.7495 32.6658 51.7495C21.7748 51.7495 12.9163 42.891 12.9163 32C12.9163 21.109 21.7748 12.2505 32.6658 12.2505Z" fill="#0A2E31"/>
<path id="path1501" fill-rule="evenodd" clip-rule="evenodd" d="M32.6658 18.375C31.6265 18.375 30.7532 18.973 30.2113 19.614C29.6693 20.255 29.3174 20.9725 28.9901 21.6738C28.3353 23.0766 27.6567 24.4002 27.3214 24.6438C26.986 24.8874 25.5175 25.1238 23.981 25.313C23.2128 25.4076 22.422 25.5206 21.6449 25.8379C20.8678 26.1552 20.0291 26.8008 19.7079 27.7893C19.3866 28.7778 19.6856 29.7931 20.1278 30.5066C20.5699 31.2201 21.1434 31.7766 21.7093 32.3047C22.8411 33.3609 23.8901 34.4152 24.0182 34.8094C24.1462 35.2036 23.9172 36.6732 23.6224 38.1929C23.475 38.9527 23.3381 39.7401 23.3997 40.5772C23.4614 41.4143 23.8162 42.4115 24.6571 43.0225C25.4979 43.6335 26.556 43.6627 27.3712 43.4627C28.1864 43.2627 28.8928 42.8892 29.5699 42.5142C30.9241 41.7642 32.2511 41.0923 32.6656 41.0923C33.0801 41.0923 34.4071 41.7644 35.7613 42.5144C36.4384 42.8895 37.1446 43.2629 37.9598 43.4629C38.775 43.663 39.833 43.6337 40.6739 43.0227C41.5148 42.4118 41.8698 41.4148 41.9314 40.5777C41.9931 39.7406 41.8562 38.9532 41.7088 38.1934C41.414 36.6737 41.1849 35.2041 41.313 34.8098C41.4411 34.4156 42.4903 33.3611 43.6221 32.305C44.188 31.7769 44.7617 31.2206 45.2039 30.5071C45.6461 29.7936 45.945 28.7783 45.6238 27.7898C45.3027 26.8013 44.4639 26.1557 43.6868 25.8384C42.9097 25.5211 42.1188 25.4079 41.3506 25.3132C39.8142 25.124 38.3456 24.8877 38.0103 24.6441C37.675 24.4004 36.9966 23.0768 36.3419 21.6741C36.0145 20.9727 35.6626 20.2553 35.1207 19.6143C34.5788 18.9733 33.7055 18.375 32.6661 18.375H32.6658Z" fill="#E7436A"/>
</g>
</g>
<defs>
<clipPath id="clip0_2057_7065">
<rect width="64" height="64" fill="white" transform="translate(0.666992)"/>
</clipPath>
</defs>
</svg>
