<svg width="24" height="24" viewBox="0 0 24 24" fill="none" xmlns="http://www.w3.org/2000/svg">
<g clip-path="url(#clip0_12_1047)">
<path d="M12 15.9844C14.2005 15.9844 15.9844 14.2005 15.9844 12C15.9844 9.79949 14.2005 8.01562 12 8.01562C9.79949 8.01562 8.01562 9.79949 8.01562 12C8.01562 14.2005 9.79949 15.9844 12 15.9844Z" fill="white"/>
<path d="M6.73396 10.8474C7.26327 8.42705 9.42323 6.60937 12.0001 6.60937H22.728C22.1588 5.47936 21.4061 4.43541 20.4854 3.51469C18.2189 1.24823 15.2054 0 12.0001 0C8.79482 0 5.78137 1.24823 3.51482 3.51469C3.29685 3.73266 3.08854 3.95766 2.88965 4.18894L6.73396 10.8474Z" fill="white"/>
<path d="M13.635 17.1369C13.1191 17.3014 12.5698 17.3906 12 17.3906C9.99759 17.3906 8.24681 16.2931 7.31728 14.668C7.31062 14.6577 7.30401 14.6475 7.29783 14.6368L1.96927 5.40747C0.688172 7.3481 0 9.62106 0 12C0 15.2053 1.24823 18.2187 3.51469 20.4853C5.25108 22.2216 7.42608 23.3595 9.78965 23.7972L13.635 17.1369Z" fill="white"/>
<path d="M15.6267 8.01562C16.7095 9.00225 17.3902 10.4231 17.3902 12C17.3902 12.9918 17.1206 13.9216 16.6514 14.7208C16.6466 14.73 16.6425 14.7393 16.6373 14.7484L11.3076 23.9797C11.5372 23.9927 11.7678 24 11.9995 24C15.2049 24 18.2183 22.7518 20.4848 20.4853C22.7513 18.2188 23.9995 15.2053 23.9995 12C23.9995 10.6216 23.7681 9.27891 23.3247 8.01562H15.6267Z" fill="white"/>
</g>
<defs>
<clipPath id="clip0_12_1047">
<rect width="24" height="24" fill="white"/>
</clipPath>
</defs>
</svg>
