<svg width="80" height="80" viewBox="0 0 80 80" fill="none" xmlns="http://www.w3.org/2000/svg">
<g clip-path="url(#clip0_1872_20473)">
<rect width="80" height="80" fill="white"/>
<path d="M67.19 14.3813L59.8516 21.7197L63.3916 25.2597L70.73 17.9213L67.19 14.3813Z" fill="#042628"/>
<path d="M69.9495 20.6794L64.4327 15.1626C63.512 14.242 63.512 12.7493 64.4327 11.8287L64.6597 11.6016C65.5803 10.681 67.073 10.681 67.9937 11.6016L73.5105 17.1184C74.4311 18.0391 74.4311 19.5318 73.5105 20.4524L73.2835 20.6794C72.3628 21.6001 70.8701 21.6001 69.9495 20.6794Z" fill="#E7436A"/>
<path d="M42.3364 5.00586H37.3301V14.6014H42.3364V5.00586Z" fill="#042628"/>
<path d="M43.7474 7.51015H35.918C34.6236 7.51015 33.5742 6.46075 33.5742 5.16635V2.3438C33.5742 1.0494 34.6236 0 35.918 0H43.7474C45.0418 0 46.0912 1.0494 46.0912 2.3438V5.16635C46.0912 6.46075 45.0419 7.51015 43.7474 7.51015Z" fill="#E7436A"/>
<path d="M64.486 69.8336C78.0281 56.2916 78.0429 34.3504 64.5192 20.8267C50.9955 7.30294 29.0543 7.31778 15.5122 20.8598C1.97019 34.4019 1.95535 56.343 15.4791 69.8668C29.0028 83.3905 50.944 83.3757 64.486 69.8336Z" fill="#397277"/>
<path d="M40.1427 73.2796C55.582 73.2796 68.098 60.7636 68.098 45.3244C68.098 29.8851 55.582 17.3691 40.1427 17.3691C24.7035 17.3691 12.1875 29.8851 12.1875 45.3244C12.1875 60.7636 24.7035 73.2796 40.1427 73.2796Z" fill="#104347"/>
<path d="M39.8318 43.5489C39.1406 43.5489 38.5801 42.9886 38.5801 42.2971V28.2781C38.5801 27.5867 39.1406 27.0264 39.8318 27.0264C40.5231 27.0264 41.0836 27.5867 41.0836 28.2781V42.2971C41.0836 42.9886 40.5231 43.5489 39.8318 43.5489Z" fill="#E7436A"/>
<path d="M40.0009 49.1033C42.0746 49.1033 43.7556 47.4222 43.7556 45.3485C43.7556 43.2748 42.0746 41.5938 40.0009 41.5938C37.9272 41.5938 36.2461 43.2748 36.2461 45.3485C36.2461 47.4222 37.9272 49.1033 40.0009 49.1033Z" fill="white"/>
<path d="M57.3042 27.9276C57.5486 28.1722 57.8689 28.2944 58.1892 28.2944C58.5095 28.2944 58.8299 28.1722 59.0742 27.9278L60.6615 26.3406C60.0943 25.7279 59.501 25.1401 58.8814 24.5801L57.3041 26.1575C56.8153 26.6464 56.8153 27.4389 57.3042 27.9276Z" fill="white"/>
<path d="M64.5098 45.158C64.5098 45.8494 65.0702 46.4097 65.7615 46.4097H68.0751C68.0889 46.0496 68.0981 45.6883 68.0981 45.3249C68.0981 44.8491 68.0859 44.3763 68.0625 43.9062H65.7615C65.0702 43.9064 64.5098 44.4667 64.5098 45.158Z" fill="white"/>
<path d="M40.1443 20.9583C40.8356 20.9583 41.3961 20.398 41.3961 19.7066V17.3993C40.9809 17.3811 40.564 17.3701 40.1443 17.3701C39.7246 17.3701 39.3077 17.3811 38.8926 17.3993V19.7066C38.8926 20.398 39.4531 20.9583 40.1443 20.9583Z" fill="white"/>
<path d="M14.8597 46.4097C15.5509 46.4097 16.1114 45.8494 16.1114 45.158C16.1114 44.4666 15.5509 43.9062 14.8597 43.9062H12.3563C12.312 43.9062 12.268 43.9088 12.2248 43.9133C12.2015 44.3809 12.1895 44.8514 12.1895 45.3249C12.1895 45.6853 12.1985 46.0436 12.2121 46.4007C12.2595 46.4061 12.3076 46.4096 12.3565 46.4096L14.8597 46.4097Z" fill="white"/>
<path d="M21.1467 65.8295C21.2045 65.7887 21.2601 65.7439 21.3117 65.6921L23.0819 63.922C23.5708 63.433 23.5708 62.6405 23.0819 62.1516C22.5931 61.663 21.8004 61.663 21.3117 62.1516L19.5415 63.9218C19.493 63.9702 19.4509 64.0223 19.4121 64.076C19.9643 64.686 20.5435 65.2704 21.1467 65.8295Z" fill="white"/>
<path d="M60.933 64.0102L59.1916 62.2688C58.7028 61.7802 57.9101 61.7802 57.4214 62.2688C56.9325 62.7577 56.9325 63.5502 57.4214 64.0391L59.177 65.7948C59.7886 65.2262 60.3747 64.631 60.933 64.0102Z" fill="white"/>
<path d="M19.6738 26.291L21.4296 28.0468C21.674 28.2912 21.9943 28.4134 22.3147 28.4134C22.635 28.4134 22.9553 28.2912 23.1997 28.0468C23.6886 27.5579 23.6886 26.7654 23.1997 26.2764L21.4584 24.5352C20.8376 25.0934 20.2424 25.6797 19.6738 26.291Z" fill="white"/>
<path d="M41.3881 73.2505C41.3931 73.2051 41.3961 73.1592 41.3961 73.1125V70.6092C41.3961 69.9177 40.8356 69.3574 40.1443 69.3574C39.4531 69.3574 38.8926 69.9177 38.8926 70.6092V73.1125C38.8926 73.1592 38.8955 73.205 38.9005 73.2505C39.3131 73.2686 39.7273 73.2794 40.1443 73.2794C40.5614 73.2794 40.9757 73.2684 41.3881 73.2505Z" fill="white"/>
<path d="M8.15752 0C10.9917 0 13.3151 2.32336 13.3151 5.15753C13.3151 7.99169 10.9917 10.315 8.15752 10.315C5.32335 10.315 3 7.99169 3 5.15753C3 2.32336 5.32335 0 8.15752 0Z" fill="#104347"/>
<path d="M1.49947 18.5C2.32335 18.5 2.99894 19.1756 2.99894 19.9995C2.99894 20.8234 2.32335 21.4989 1.49947 21.4989C0.67558 21.4989 0 20.8234 0 19.9995C0 19.1756 0.67558 18.5 1.49947 18.5Z" fill="#104347"/>
<path d="M17.9995 5C18.8234 5 19.4989 5.67559 19.4989 6.49947C19.4989 7.32336 18.8234 7.99894 17.9995 7.99894C17.1756 7.99894 16.5 7.32336 16.5 6.49947C16.5 5.67559 17.1756 5 17.9995 5Z" fill="#104347"/>
<path d="M75.4995 8.5C76.3234 8.5 76.9989 9.17559 76.9989 9.99947C76.9989 10.8234 76.3234 11.4989 75.4995 11.4989C74.6756 11.4989 74 10.8234 74 9.99947C74 9.17559 74.6756 8.5 75.4995 8.5Z" fill="#104347"/>
<path d="M9.49947 71.5C10.3234 71.5 10.9989 72.1756 10.9989 72.9995C10.9989 73.8234 10.3234 74.4989 9.49947 74.4989C8.67558 74.4989 8 73.8234 8 72.9995C8 72.1756 8.67558 71.5 9.49947 71.5Z" fill="#104347"/>
<path d="M78.4995 64.5C79.3234 64.5 79.9989 65.1756 79.9989 65.9995C79.9989 66.8234 79.3234 67.4989 78.4995 67.4989C77.6756 67.4989 77 66.8234 77 65.9995C77 65.1756 77.6756 64.5 78.4995 64.5Z" fill="#104347"/>
<path d="M66.6637 73.5C68.328 73.5 69.8274 74.8347 69.8274 76.6637C69.8274 78.328 68.4927 79.8274 66.6637 79.8274C64.8347 79.8274 63.5 78.4927 63.5 76.6637C63.6648 74.8347 64.9995 73.5 66.6637 73.5Z" fill="#104347"/>
</g>
<defs>
<clipPath id="clip0_1872_20473">
<rect width="80" height="80" fill="white"/>
</clipPath>
</defs>
</svg>
