<svg width="25" height="24" viewBox="0 0 25 24" fill="none" xmlns="http://www.w3.org/2000/svg">
<g clip-path="url(#clip0_2057_7193)">
<path d="M13.53 1.86998L2.54 0.19998C2.03 0.11998 1.51 0.25998 1.12 0.58998C0.73 0.92998 0.5 1.41998 0.5 1.92998V23C0.5 23.55 0.95 24 1.5 24H4.75V18.75C4.75 17.78 5.53 17 6.5 17H9C9.97 17 10.75 17.78 10.75 18.75V24H15V3.59998C15 2.73998 14.38 2.00998 13.53 1.86998ZM6 14.75H4.5C4.086 14.75 3.75 14.414 3.75 14C3.75 13.586 4.086 13.25 4.5 13.25H6C6.414 13.25 6.75 13.586 6.75 14C6.75 14.414 6.414 14.75 6 14.75ZM6 11.75H4.5C4.086 11.75 3.75 11.414 3.75 11C3.75 10.586 4.086 10.25 4.5 10.25H6C6.414 10.25 6.75 10.586 6.75 11C6.75 11.414 6.414 11.75 6 11.75ZM6 8.74998H4.5C4.086 8.74998 3.75 8.41398 3.75 7.99998C3.75 7.58598 4.086 7.24998 4.5 7.24998H6C6.414 7.24998 6.75 7.58598 6.75 7.99998C6.75 8.41398 6.414 8.74998 6 8.74998ZM6 5.74998H4.5C4.086 5.74998 3.75 5.41398 3.75 4.99998C3.75 4.58598 4.086 4.24998 4.5 4.24998H6C6.414 4.24998 6.75 4.58598 6.75 4.99998C6.75 5.41398 6.414 5.74998 6 5.74998ZM11 14.75H9.5C9.086 14.75 8.75 14.414 8.75 14C8.75 13.586 9.086 13.25 9.5 13.25H11C11.414 13.25 11.75 13.586 11.75 14C11.75 14.414 11.414 14.75 11 14.75ZM11 11.75H9.5C9.086 11.75 8.75 11.414 8.75 11C8.75 10.586 9.086 10.25 9.5 10.25H11C11.414 10.25 11.75 10.586 11.75 11C11.75 11.414 11.414 11.75 11 11.75ZM11 8.74998H9.5C9.086 8.74998 8.75 8.41398 8.75 7.99998C8.75 7.58598 9.086 7.24998 9.5 7.24998H11C11.414 7.24998 11.75 7.58598 11.75 7.99998C11.75 8.41398 11.414 8.74998 11 8.74998ZM11 5.74998H9.5C9.086 5.74998 8.75 5.41398 8.75 4.99998C8.75 4.58598 9.086 4.24998 9.5 4.24998H11C11.414 4.24998 11.75 4.58598 11.75 4.99998C11.75 5.41398 11.414 5.74998 11 5.74998Z" fill="white"/>
<path d="M23.12 10.842L16 9.35101V24H22.75C23.715 24 24.5 23.215 24.5 22.25V12.552C24.5 11.726 23.937 11.023 23.12 10.842ZM20.75 21H19.25C18.836 21 18.5 20.664 18.5 20.25C18.5 19.836 18.836 19.5 19.25 19.5H20.75C21.164 19.5 21.5 19.836 21.5 20.25C21.5 20.664 21.164 21 20.75 21ZM20.75 18H19.25C18.836 18 18.5 17.664 18.5 17.25C18.5 16.836 18.836 16.5 19.25 16.5H20.75C21.164 16.5 21.5 16.836 21.5 17.25C21.5 17.664 21.164 18 20.75 18ZM20.75 15H19.25C18.836 15 18.5 14.664 18.5 14.25C18.5 13.836 18.836 13.5 19.25 13.5H20.75C21.164 13.5 21.5 13.836 21.5 14.25C21.5 14.664 21.164 15 20.75 15Z" fill="white"/>
</g>
<defs>
<clipPath id="clip0_2057_7193">
<rect width="24" height="24" fill="white" transform="translate(0.5)"/>
</clipPath>
</defs>
</svg>
