<svg xmlns="http://www.w3.org/2000/svg" width="41" height="36" viewBox="0 0 41 36" fill="none">
    <g clip-path="url(#clip0_2047_7565)">
        <path d="M16.2095 2.84653C10.3506 6.00108 5.76002 11.4425 3.63072 17.739C2.77038 20.2744 2.30491 23.0237 2.84109 25.6568C3.39051 28.2783 5.06689 30.7676 7.55488 31.7736C10.2363 32.8553 13.5785 31.9464 15.3413 29.648C17.0917 27.3487 17.098 23.8843 15.3468 21.5761C14.4828 20.4352 13.2502 19.5915 12.439 18.4046C11.0086 16.3051 11.1217 13.4443 12.0927 11.1029C13.0645 8.74916 14.7775 6.8074 16.1839 2.85716L16.2095 2.84653Z" fill="#E7436A"/>
        <path d="M16.2095 2.84653C10.3506 6.00108 5.76002 11.4425 3.63072 17.739C2.77038 20.2744 2.30491 23.0237 2.84109 25.6568C3.39051 28.2783 5.06689 30.7676 7.55488 31.7736C10.2363 32.8553 13.5785 31.9464 15.3413 29.648C17.0917 27.3487 17.098 23.8843 15.3468 21.5761C14.4828 20.4352 13.2502 19.5915 12.439 18.4046C11.0086 16.3051 11.1217 13.4443 12.0927 11.1029C13.0645 8.74916 14.7775 6.8074 16.1839 2.85716L16.2095 2.84653Z" stroke="white" stroke-width="2" stroke-linecap="round" stroke-linejoin="round"/>
        <path d="M36.6344 4.87083C30.7816 7.93887 26.4076 13.6562 24.9626 20.1124C24.3638 22.8151 24.2728 25.7147 25.3226 28.2844C26.3733 30.8416 28.7456 32.9697 31.5131 33.1756C33.5893 33.3208 35.7195 32.3397 36.9439 30.6369C38.1674 28.9466 38.4304 26.6054 37.6208 24.6859C36.8431 22.8432 35.2249 21.4758 34.2936 19.6968C33.1118 17.416 33.2057 14.6532 33.9726 12.2106C34.7395 9.76801 36.1353 7.5681 36.6335 4.88319L36.6344 4.87083Z" fill="#E7436A"/>
        <path d="M36.6344 4.87083C30.7816 7.93887 26.4076 13.6562 24.9626 20.1124C24.3638 22.8151 24.2728 25.7147 25.3226 28.2844C26.3733 30.8416 28.7456 32.9697 31.5131 33.1756C33.5893 33.3208 35.7195 32.3397 36.9439 30.6369C38.1674 28.9466 38.4304 26.6054 37.6208 24.6859C36.8431 22.8432 35.2249 21.4758 34.2936 19.6968C33.1118 17.416 33.2057 14.6532 33.9726 12.2106C34.7395 9.76801 36.1353 7.5681 36.6335 4.88319L36.6344 4.87083Z" stroke="white" stroke-width="2" stroke-linecap="round" stroke-linejoin="round"/>
    </g>
    <defs>
        <clipPath id="clip0_2047_7565">
            <rect width="37.9099" height="32" fill="white" transform="translate(3.03906 0.807861) rotate(4)"/>
        </clipPath>
    </defs>
</svg>