<svg width="80" height="80" viewBox="0 0 80 80" fill="none" xmlns="http://www.w3.org/2000/svg">
<g clip-path="url(#clip0_1872_20418)">
<circle cx="39.9996" cy="49.5238" r="30.4762" fill="#397277"/>
<path d="M22.7855 0C15.4337 0 9.52344 5.94857 9.52344 13.2598C9.52344 16.8023 10.9032 20.1325 13.4083 22.6373L14.3178 23.5468L31.2533 23.5467L32.1626 22.6373C34.6678 20.1324 36.0476 16.802 36.0476 13.2596C36.0477 5.93702 30.1251 0 22.7855 0Z" fill="#E7436A"/>
<path d="M22.7855 18.2759C20.0198 18.2759 17.7695 16.0258 17.7695 13.26C17.7695 10.4941 20.0196 8.24414 22.7855 8.24414C25.5513 8.24414 27.8013 10.4943 27.8013 13.26C27.8013 16.0257 25.5513 18.2759 22.7855 18.2759Z" fill="#ECF4F3"/>
<path d="M14.3184 23.5466L21.5235 30.7519C21.8582 31.0868 22.3125 31.275 22.7861 31.275C23.2597 31.275 23.714 31.0869 24.0487 30.7519L31.2538 23.5466C29.6828 20.3515 26.4144 18.2754 22.7861 18.2754C19.1576 18.2753 15.8893 20.3515 14.3184 23.5466Z" fill="#ECF4F3"/>
<path d="M69.9332 43.8652C67.2413 29.7945 54.8446 19.1271 40.0013 19.1271C32.2732 19.1271 25.2092 22.0201 19.8313 26.7779L9.6543 52.4089C9.88394 54.9216 10.4213 57.3854 11.2631 59.7628C11.5156 60.4759 12.19 60.9524 12.9464 60.9524H50.681C59.3223 60.9524 71.7221 53.2156 69.9332 43.8652Z" fill="#397277"/>
<path d="M68.7382 59.7627C69.8914 56.5062 70.4761 53.0881 70.4761 49.6032C70.4761 47.642 70.2876 45.7242 69.9319 43.8651H44.2718C41.9127 43.8651 40 45.7777 40 48.1369C40 50.4961 41.9127 52.4087 44.2718 52.4087H50.6795C53.0386 52.4087 54.9513 54.3213 54.9513 56.6805C54.9513 59.0396 53.0386 60.9523 50.6795 60.9523H67.055C67.8114 60.9524 68.4857 60.4758 68.7382 59.7627Z" fill="#104347"/>
<path fill-rule="evenodd" clip-rule="evenodd" d="M70.3627 52.1904C69.8 58.6824 67.202 64.592 63.2101 69.2776H49.2249C46.8659 69.2776 44.9531 67.365 44.9531 65.0058C44.9531 62.6466 46.8659 60.734 49.2249 60.734H55.6326C57.9917 60.734 59.9044 58.8214 59.9044 56.4622C59.9044 54.103 57.9917 52.1904 55.6326 52.1904H70.3627Z" fill="#104347"/>
<path fill-rule="evenodd" clip-rule="evenodd" d="M26.4486 76.8284C21.6092 74.4221 17.5002 70.7672 14.543 66.2852H30.0668C32.4258 66.2852 34.3386 68.1977 34.3386 70.5569C34.3386 72.8978 32.4557 74.7988 30.1223 74.8285L30.0112 74.8291C28.5101 74.8482 27.1955 75.6416 26.4486 76.8284Z" fill="#104347"/>
<path d="M29.7664 48.1374C29.7664 45.7965 27.8836 43.8955 25.5501 43.8658L25.439 43.8652C23.1056 43.8356 21.2227 41.9346 21.2227 39.5937C21.2227 37.2345 23.1355 35.3219 25.4945 35.3219H31.9022C34.2613 35.3219 36.174 33.4093 36.174 31.0501C36.174 28.6909 34.2613 26.7783 31.9022 26.7783H19.8295C13.5132 32.3662 9.52344 40.5271 9.52344 49.6037C9.52344 50.5444 9.56749 51.4801 9.65237 52.4092H25.4946C27.8537 52.4092 29.7664 50.4967 29.7664 48.1374Z" fill="#104347"/>
<path d="M55.3011 14.376C47.9493 14.376 42.0391 20.3245 42.0391 27.6357C42.0391 31.1782 43.4188 34.5085 45.9239 37.0132L46.8335 37.9228L63.7689 37.9226L64.6782 37.0132C67.1835 34.5084 68.5632 31.178 68.5632 27.6356C68.5633 20.313 62.6406 14.376 55.3011 14.376Z" fill="#E7436A"/>
<path d="M55.3011 32.6509C52.5354 32.6509 50.2852 30.4008 50.2852 27.635C50.2852 24.8691 52.5353 22.6191 55.3011 22.6191C58.0668 22.6191 60.3169 24.8693 60.3169 27.635C60.3169 30.4007 58.0668 32.6509 55.3011 32.6509Z" fill="#ECF4F3"/>
<path d="M46.834 37.9224L54.0391 45.1278C54.3739 45.4627 54.8282 45.6509 55.3017 45.6509C55.7753 45.6509 56.2296 45.4628 56.5643 45.1278L63.7695 37.9224C62.1984 34.7273 58.9301 32.6512 55.3017 32.6512C51.6733 32.6511 48.4049 34.7273 46.834 37.9224Z" fill="#ECF4F3"/>
<path d="M8.3671 74.2539C9.85991 74.2539 11.2049 75.4511 11.2049 77.0917C11.2049 78.5845 10.0077 79.9295 8.3671 79.9295C6.7265 79.9295 5.5293 78.7323 5.5293 77.0917C5.6771 75.4511 6.8743 74.2539 8.3671 74.2539Z" fill="#0A2E31"/>
<path d="M1.345 65C2.08401 65 2.69 65.606 2.69 66.345C2.69 67.084 2.08401 67.69 1.345 67.69C0.605989 67.69 0 67.084 0 66.345C0 65.606 0.605989 65 1.345 65Z" fill="#0A2E31"/>
<path d="M67.3157 0C69.8579 0 71.9419 2.08402 71.9419 4.62622C71.9419 7.16842 69.8579 9.25243 67.3157 9.25243C64.7735 9.25243 62.6895 7.16842 62.6895 4.62622C62.6895 2.08402 64.7735 0 67.3157 0Z" fill="#0A2E31"/>
<path d="M53.3378 0C54.8306 0 56.1756 1.1972 56.1756 2.8378C56.1756 4.33061 54.9784 5.6756 53.3378 5.6756C51.6972 5.6756 50.5 4.47841 50.5 2.8378C50.6478 1.1972 51.845 0 53.3378 0Z" fill="#0A2E31"/>
<path d="M78.345 18.5C79.084 18.5 79.69 19.106 79.69 19.845C79.69 20.584 79.084 21.19 78.345 21.19C77.606 21.19 77 20.584 77 19.845C77 19.106 77.606 18.5 78.345 18.5Z" fill="#0A2E31"/>
</g>
<defs>
<clipPath id="clip0_1872_20418">
<rect width="80" height="80" fill="white"/>
</clipPath>
</defs>
</svg>
