<svg width="42" height="42" viewBox="0 0 42 42" fill="none" xmlns="http://www.w3.org/2000/svg">
<path d="M0 8C0 3.58172 3.58172 0 8 0H34C38.4183 0 42 3.58172 42 8V34C42 38.4183 38.4183 42 34 42H8C3.58172 42 0 38.4183 0 34V8Z" fill="#0A2E31"/>
<path d="M24.7079 13.6698L22.8564 13.6667C20.7763 13.6667 19.432 15.0835 19.432 17.2762V18.9404H17.5704C17.4096 18.9404 17.2793 19.0744 17.2793 19.2397V21.6509C17.2793 21.8162 17.4097 21.95 17.5704 21.95H19.432V28.0344C19.432 28.1996 19.5623 28.3334 19.7232 28.3334H22.152C22.3129 28.3334 22.4432 28.1994 22.4432 28.0344V21.95H24.6198C24.7807 21.95 24.911 21.8162 24.911 21.6509L24.9118 19.2397C24.9118 19.1603 24.8811 19.0843 24.8266 19.0282C24.7721 18.972 24.6978 18.9404 24.6206 18.9404H22.4432V17.5297C22.4432 16.8516 22.6005 16.5074 23.4604 16.5074L24.7076 16.5069C24.8683 16.5069 24.9986 16.3729 24.9986 16.2079V13.9689C24.9986 13.8039 24.8685 13.6701 24.7079 13.6698Z" fill="white"/>
</svg>
