<svg width="62" height="62" viewBox="0 0 62 62" fill="none" xmlns="http://www.w3.org/2000/svg">
<g id="fi_2780225">
<g id="Group">
<path id="Vector" d="M51.94 0C48.3938 0 45.519 2.87477 45.519 6.421V25.5798H56.5446C57.5478 25.5798 58.361 24.7666 58.361 23.7634V6.421C58.361 2.87477 55.4863 0 51.94 0Z" fill="#104347"/>
<path id="Vector_2" d="M21.9615 45.6523C21.9615 34.6798 30.8874 25.6425 42.007 25.6727V7.20338C42.007 4.44039 43.0471 1.91607 44.7555 0H12.7183C7.71227 0 3.63867 4.07359 3.63867 9.07961V60.1509C3.63867 61.7849 5.63757 62.5877 6.76773 61.4066L9.09152 58.9799L11.5461 61.4357C12.2545 62.1441 13.4049 62.1441 14.1145 61.4357L16.4407 59.1107L18.7899 61.4405C19.4983 62.1429 20.6402 62.1429 21.3486 61.4405L23.7354 59.0744L26.1234 61.4405C26.8305 62.1429 27.9712 62.1429 28.6796 61.4418L29.1422 60.984C24.6385 57.2186 21.9615 51.6508 21.9615 45.6523ZM18.3329 14.6523H21.9178V11.0675C21.9178 10.0643 22.731 9.25108 23.7342 9.25108C24.7373 9.25108 25.5506 10.0643 25.5506 11.0675V14.6523H29.1354C30.1386 14.6523 30.9519 15.4656 30.9519 16.4688C30.9519 17.4719 30.1386 18.2852 29.1354 18.2852H25.5506V21.87C25.5506 22.8732 24.7373 23.6864 23.7342 23.6864C22.731 23.6864 21.9178 22.8732 21.9178 21.87V18.2852H18.3329C17.3298 18.2852 16.5165 17.4719 16.5165 16.4688C16.5165 15.4656 17.3298 14.6523 18.3329 14.6523ZM12.8356 27.3732H25.0662C26.0694 27.3732 26.8826 28.1865 26.8826 29.1896C26.8826 30.1928 26.0694 31.0061 25.0662 31.0061H12.8356C11.8325 31.0061 11.0192 30.1928 11.0192 29.1896C11.0192 28.1865 11.8325 27.3732 12.8356 27.3732ZM18.8964 45.5252H12.8235C11.8204 45.5252 11.0071 44.7119 11.0071 43.7088C11.0071 42.7057 11.8204 41.8924 12.8235 41.8924H18.8964C19.8995 41.8924 20.7128 42.7057 20.7128 43.7088C20.7128 44.7119 19.8995 45.5252 18.8964 45.5252ZM20.1074 38.2717H12.8294C11.8263 38.2717 11.013 37.4584 11.013 36.4553C11.013 35.4521 11.8263 34.6389 12.8294 34.6389H20.1074C21.1106 34.6389 21.9238 35.4521 21.9238 36.4553C21.9238 37.4584 21.1106 38.2717 20.1074 38.2717Z" fill="#397277"/>
<path id="Vector_3" d="M41.9419 29.3047C32.9278 29.3047 25.5942 36.6382 25.5942 45.6523C25.5942 54.6664 32.9278 62 41.9419 62C50.956 62 58.2896 54.6664 58.2896 45.6523C58.2896 36.6382 50.956 29.3047 41.9419 29.3047ZM43.764 52.6478V52.8205C43.764 53.8236 42.9507 54.6369 41.9476 54.6369C40.9444 54.6369 40.1312 53.8236 40.1312 52.8205V52.7897C39.3176 52.5959 38.5627 52.2753 37.9641 51.8837C37.1245 51.3344 36.8893 50.2087 37.4384 49.3692C37.9877 48.5295 39.1134 48.2944 39.9529 48.8435C40.6963 49.33 41.9218 49.5146 42.5241 49.2313C42.9144 49.0476 43.2164 48.6556 43.2584 48.278C43.3484 47.4737 42.0883 47.0251 41.3359 46.7279C40.1974 46.2783 38.7804 45.7186 37.9578 44.2335C36.7852 42.1169 37.8122 39.326 40.1312 38.3716V38.2802C40.1312 37.277 40.9444 36.4637 41.9476 36.4637C42.9408 36.4637 43.7467 37.2613 43.7625 38.2507C44.4163 38.455 45.0186 38.782 45.5008 39.2267C46.2383 39.9069 46.2847 41.056 45.6045 41.7934C44.9243 42.531 43.7751 42.5772 43.0378 41.8971C42.7391 41.6214 41.8181 41.5102 41.4179 41.7789C41.1489 41.9598 41.0434 42.3065 41.1355 42.4729C41.5192 43.1654 43.5281 43.4028 45.0484 44.5876C48.1542 47.0077 47.0736 51.3783 43.764 52.6478Z" fill="#E7436A"/>
</g>
</g>
</svg>
