<svg width="86" height="80" viewBox="0 0 86 80" fill="none" xmlns="http://www.w3.org/2000/svg">
<path d="M78.531 12.5663C76.9976 12.1799 75.9456 10.6754 76.3971 9.09072C76.808 7.64878 78.4079 6.65947 80.093 7.08409C81.7782 7.50871 82.6784 8.97497 82.2268 10.5597C81.6235 12.1061 80.0643 12.9527 78.531 12.5663Z" fill="#104347"/>
<path d="M80.4302 64C81.2161 64 81.8605 64.606 81.8605 65.345C81.8605 66.084 81.2161 66.69 80.4302 66.69C79.6444 66.69 79 66.084 79 65.345C79 64.606 79.6444 64 80.4302 64Z" fill="#104347"/>
<path d="M14.3597 79.2105C13.6006 79.0192 13.145 78.277 13.3484 77.5632C13.5518 76.8494 14.341 76.4209 15.1 76.6121C15.8591 76.8034 16.3148 77.5456 16.1114 78.2594C15.908 78.9733 15.1188 79.4018 14.3597 79.2105Z" fill="#104347"/>
<path d="M67.3109 2.94486C66.5518 2.75359 66.0961 2.01141 66.2995 1.29758C66.5029 0.583748 67.2921 0.155243 68.0512 0.346514C68.8103 0.537784 69.2659 1.27997 69.0626 1.9938C68.8592 2.70763 68.0699 3.13613 67.3109 2.94486Z" fill="#104347"/>
<path d="M6.27595 3.59375C7.0618 3.59375 7.7062 4.19974 7.7062 4.93875C7.7062 5.67776 7.0618 6.28375 6.27595 6.28375C5.4901 6.28375 4.8457 5.67776 4.8457 4.93875C4.8457 4.19974 5.4901 3.59375 6.27595 3.59375Z" fill="#104347"/>
<path d="M83.1961 23.3218C82.437 23.1305 81.9814 22.3884 82.1848 21.6745C82.3882 20.9607 83.1774 20.5322 83.9365 20.7235C84.6955 20.9147 85.1512 21.6569 84.9478 22.3708C84.7444 23.0846 83.9552 23.5131 83.1961 23.3218Z" fill="#104347"/>
<g clip-path="url(#clip0_81_8614)">
<path d="M12.0141 36.0113C11.8795 37.0949 12.7246 38.0517 13.8166 38.0517H21.2065C22.0935 38.0517 22.8508 37.411 22.9977 36.5361C24.4199 28.0662 31.066 21.4199 39.536 19.9978C40.4109 19.8509 41.0516 19.0936 41.0516 18.2065V10.8166C41.0516 9.72458 40.0949 8.87947 39.0111 9.01413C32.1972 9.86094 25.7601 13.0117 20.8858 17.8858C16.0117 22.7601 12.8609 29.1972 12.0141 36.0113Z" fill="#E7436A"/>
<path d="M54.5736 56.3093C51.1261 58.7709 47.0836 60.0719 42.8832 60.0719C32.9994 60.0719 24.6365 52.9892 22.9978 43.2305C22.8509 42.3557 22.0936 41.7148 21.2066 41.7148H13.8166C12.7246 41.7148 11.8795 42.6715 12.0141 43.7552V43.7553C13.9445 59.2875 27.2153 71.0004 42.8832 71.0004C49.8631 71.0004 56.4639 68.7349 61.9722 64.4487C62.8344 63.7779 62.9136 62.5033 62.1411 61.7308L56.9135 56.5032C56.2856 55.8754 55.2961 55.7934 54.5736 56.3093Z" fill="#104347"/>
<path d="M46.2301 19.9978C55.9887 21.6365 63.0717 29.9994 63.0717 39.8832C63.0717 44.0836 61.7705 48.126 59.3091 51.5736C58.7932 52.2961 58.8752 53.2856 59.5029 53.9134L64.7308 59.1413C65.5032 59.9137 66.7778 59.8344 67.4486 58.9723L67.4487 58.9722C71.7346 53.4641 74 46.8632 74 39.8832C74 24.2153 62.2871 10.9445 46.7549 9.01413H46.7548C45.6711 8.87947 44.7144 9.72458 44.7144 10.8166V18.2065C44.7145 19.0936 45.3552 19.8509 46.2301 19.9978Z" fill="#397277"/>
<path d="M44.0928 27.4023H41.6694C40.6663 27.4023 39.853 28.2156 39.853 29.2188V50.4099H45.9092V29.2188C45.9092 28.2156 45.0959 27.4023 44.0928 27.4023Z" fill="#104347"/>
<path d="M49.542 50.41H53.7817C54.7849 50.41 55.5981 49.5968 55.5981 48.5936V34.0625C55.5981 33.0594 54.7849 32.2461 53.7817 32.2461H49.542V50.41Z" fill="#104347"/>
<path d="M36.22 37.0898H31.9849C30.9817 37.0898 30.1685 37.9031 30.1685 38.9062V48.5936C30.1685 49.5968 30.9817 50.41 31.9849 50.41H36.22V37.0898Z" fill="#104347"/>
</g>
<path d="M4.75211 74.1347C2.1409 73.4767 0.573874 70.9243 1.27355 68.4687C1.97322 66.0132 4.68738 64.5396 7.29859 65.1975C9.90981 65.8555 11.4768 68.4079 10.7771 70.8634C10.0775 73.319 7.36332 74.7926 4.75211 74.1347Z" fill="#104347"/>
<defs>
<clipPath id="clip0_81_8614">
<rect width="62" height="62" fill="white" transform="translate(12 9)"/>
</clipPath>
</defs>
</svg>
