<svg width="78" height="80" viewBox="0 0 78 80" fill="none" xmlns="http://www.w3.org/2000/svg">
<path d="M9.32778 69.6846C10.992 69.6846 12.4915 71.0193 12.4915 72.8483C12.4915 74.5125 11.1568 76.012 9.32778 76.012C7.49876 76.012 6.16406 74.6773 6.16406 72.8483C6.32884 71.0193 7.66353 69.6846 9.32778 69.6846Z" fill="#104347"/>
<path d="M56.1575 23C58.9917 23 61.3151 25.3234 61.3151 28.1575C61.3151 30.9917 58.9917 33.315 56.1575 33.315C53.3234 33.315 51 30.9917 51 28.1575C51 25.3234 53.3234 23 56.1575 23Z" fill="#104347"/>
<path d="M74.3442 36.5859C75.1681 36.5859 75.8437 37.2615 75.8437 38.0854C75.8437 38.9093 75.1681 39.5849 74.3442 39.5849C73.5203 39.5849 72.8447 38.9093 72.8447 38.0854C72.8447 37.2615 73.5203 36.5859 74.3442 36.5859Z" fill="#104347"/>
<path d="M62.4995 9C63.3234 9 63.9989 9.67559 63.9989 10.4995C63.9989 11.3234 63.3234 11.9989 62.4995 11.9989C61.6756 11.9989 61 11.3234 61 10.4995C61 9.67559 61.6756 9 62.4995 9Z" fill="#104347"/>
<path d="M34.2738 29.6088C34.2738 30.4327 33.6147 31.1083 32.7744 31.1083C31.934 31.1083 31.2749 30.4492 31.2749 29.6088C31.2749 28.7685 31.934 28.1094 32.6096 28.1094C33.1039 28.1094 33.6147 28.2742 33.9443 28.6037C34.1091 28.7685 34.2738 29.098 34.2738 29.6088Z" fill="white"/>
<path d="M23.4653 77.001C24.2892 77.001 24.9648 77.6766 24.9648 78.5004C24.9648 79.3243 24.2892 79.9999 23.4653 79.9999C22.6414 79.9999 21.9658 79.3243 21.9658 78.5004C21.9658 77.6766 22.6414 77.001 23.4653 77.001Z" fill="#104347"/>
<path d="M3.65865 0C4.48254 0 5.15812 0.675586 5.15812 1.49947C5.15812 2.32336 4.48254 2.99894 3.65865 2.99894C2.83477 2.99894 2.15918 2.32336 2.15918 1.49947C2.15918 0.675586 2.83477 0 3.65865 0Z" fill="#104347"/>
<path d="M1.49947 59.3691C2.32336 59.3691 2.99894 60.0447 2.99894 60.8686C2.99894 61.6925 2.32336 62.3681 1.49947 62.3681C0.675586 62.3681 0 61.6925 0 60.8686C0 60.0447 0.675586 59.3691 1.49947 59.3691Z" fill="#104347"/>
<path fill-rule="evenodd" clip-rule="evenodd" d="M51.6699 51.3201C53.1174 49.8132 55.1321 48.8801 57.3579 48.8801C60.3255 48.8801 62.8975 50.5288 64.2824 52.9853C65.5117 52.4358 66.8433 52.152 68.1898 52.1527C73.5316 52.1527 77.8677 56.5218 77.8677 61.913C77.8677 67.3043 73.5316 71.6733 68.1898 71.6733C67.5369 71.6733 66.9006 71.6077 66.2773 71.4837C65.0655 73.6435 62.7491 75.1109 60.1112 75.1109C59.0372 75.113 57.977 74.8693 57.0117 74.3986C55.7834 77.2838 52.9229 79.3117 49.5925 79.3117C46.1138 79.3117 43.1626 77.119 42.025 74.0359C41.5187 74.1428 41.0026 74.1965 40.4851 74.1962C36.3469 74.1962 33 70.7998 33 66.6286C33 63.8258 34.5069 61.3858 36.7425 60.0668C36.2683 58.9742 36.0241 57.7956 36.0254 56.6045C36.0254 51.7903 39.9328 47.8994 44.747 47.8994C47.5663 47.8994 50.0888 49.2431 51.6715 51.3287" fill="#397277"/>
<path fill-rule="evenodd" clip-rule="evenodd" d="M39.5356 64.1804C39.5074 64.2539 39.5456 64.2692 39.5547 64.2823C39.639 64.3433 39.7245 64.3874 39.8103 64.4371C40.2686 64.6794 40.7006 64.7503 41.1523 64.7503C42.0723 64.7503 42.6444 64.2607 42.6444 63.4726V63.4571C42.6444 62.7284 41.9981 62.4629 41.3947 62.2733L41.3157 62.2478C40.859 62.0997 40.465 61.9708 40.465 61.6707V61.6554C40.465 61.3982 40.6958 61.2086 41.0519 61.2086C41.4476 61.2086 41.9191 61.3403 42.2208 61.507C42.2208 61.507 42.3102 61.5647 42.3427 61.4785C42.3603 61.4318 42.5141 61.0201 42.5306 60.974C42.5481 60.9257 42.5174 60.8892 42.4859 60.8704C42.1397 60.6594 41.6616 60.516 41.167 60.516L41.0751 60.5163C40.2327 60.5163 39.6441 61.0257 39.6441 61.7545V61.7701C39.6441 62.5384 40.2937 62.789 40.9004 62.9621L40.998 62.9925C41.4398 63.1283 41.8223 63.2464 41.8223 63.5563V63.5718C41.8223 63.8571 41.5734 64.0697 41.1744 64.0697C41.0193 64.0697 40.5248 64.0671 39.989 63.7285C39.9242 63.6907 39.8873 63.6635 39.8373 63.633C39.8109 63.617 39.745 63.5882 39.7163 63.6745L39.5349 64.179M53.0048 64.179C52.9766 64.2526 53.0149 64.2679 53.0243 64.2809C53.1082 64.3419 53.1941 64.3861 53.2798 64.4357C53.7381 64.6781 54.1701 64.749 54.6218 64.749C55.5418 64.749 56.1139 64.2593 56.1139 63.4713V63.4558C56.1139 62.727 55.4693 62.4616 54.8642 62.272L54.7852 62.2464C54.3285 62.0984 53.9345 61.9695 53.9345 61.6694V61.6541C53.9345 61.3969 54.1653 61.2073 54.5214 61.2073C54.9171 61.2073 55.387 61.339 55.6904 61.5057C55.6904 61.5057 55.7797 61.5634 55.8124 61.4772C55.8298 61.4305 55.9838 61.0188 55.9987 60.9727C56.0163 60.9243 55.9855 60.8879 55.9542 60.8691C55.6079 60.6581 55.1298 60.5146 54.6352 60.5146L54.5432 60.515C53.7007 60.515 53.1121 61.0244 53.1121 61.7532V61.7688C53.1121 62.5371 53.7617 62.7877 54.3684 62.9608L54.4659 62.9912C54.9094 63.127 55.2902 63.2451 55.2902 63.555V63.5705C55.2902 63.8557 55.0413 64.0684 54.6423 64.0684C54.4868 64.0684 53.991 64.0658 53.4569 63.7271C53.3921 63.6894 53.3542 63.6633 53.305 63.6317C53.2884 63.6211 53.2107 63.5908 53.1842 63.6732L53.0028 64.1777M62.2026 62.6345C62.2026 63.0797 62.1195 63.4309 61.9569 63.6798C61.7947 63.9255 61.5497 64.0458 61.2084 64.0458C60.8671 64.0458 60.6231 63.9265 60.4632 63.6815C60.3021 63.4342 60.2208 63.0813 60.2208 62.6362C60.2208 62.191 60.3026 61.8415 60.4632 61.5959C60.6228 61.3519 60.8655 61.2348 61.2084 61.2348C61.5513 61.2348 61.7953 61.353 61.9569 61.5959C62.1205 61.8415 62.2026 62.191 62.2026 62.6362M62.9709 61.8102C62.8952 61.5546 62.778 61.3304 62.6213 61.1425C62.4645 60.9545 62.2669 60.8028 62.0311 60.694C61.797 60.5844 61.52 60.5292 61.2067 60.5292C60.8935 60.5292 60.6182 60.5847 60.3824 60.694C60.1483 60.8035 59.9488 60.9545 59.7922 61.1425C59.6359 61.3304 59.5185 61.5546 59.4426 61.8102C59.3676 62.0641 59.3295 62.3411 59.3295 62.6362C59.3295 62.9313 59.3676 63.2083 59.4426 63.4622C59.518 63.7177 59.6355 63.942 59.7922 64.1299C59.949 64.3179 60.1483 64.4679 60.3824 64.5751C60.6182 64.6819 60.8951 64.7363 61.2067 64.7363C61.5183 64.7363 61.7953 64.6819 62.0294 64.5751C62.2636 64.4682 62.4631 64.3179 62.6197 64.1299C62.7761 63.942 62.8934 63.7177 62.9692 63.4622C63.0441 63.2083 63.0821 62.9313 63.0821 62.6362C63.0821 62.3427 63.0441 62.0641 62.9692 61.8102M69.2837 63.9205C69.2585 63.8458 69.1856 63.874 69.1856 63.874C69.074 63.9167 68.9548 63.9563 68.8279 63.9761C68.6999 63.9962 68.5575 64.0063 68.4074 64.0063C68.0365 64.0063 67.7397 63.8956 67.5287 63.6765C67.316 63.4572 67.1973 63.1044 67.1989 62.6263C67.2001 62.191 67.3053 61.8646 67.4941 61.614C67.6804 61.3667 67.9672 61.2381 68.3464 61.2381C68.663 61.2381 68.9053 61.2749 69.1592 61.3543C69.1592 61.3543 69.2194 61.3805 69.2483 61.3012C69.3157 61.1149 69.3655 60.9814 69.4379 60.777C69.4583 60.7184 69.4082 60.6937 69.3899 60.6866C69.2903 60.6477 69.0552 60.5839 68.8772 60.557C68.7106 60.5316 68.5177 60.5184 68.3001 60.5184C67.977 60.5184 67.6901 60.5737 67.4444 60.6831C67.1988 60.7925 66.991 60.9436 66.8262 61.1316C66.6613 61.3195 66.536 61.5438 66.4519 61.7993C66.3687 62.0532 66.3266 62.3318 66.3266 62.627C66.3266 63.2634 66.4981 63.7794 66.8377 64.157C67.1773 64.5362 67.6884 64.7274 68.3545 64.7274C68.7486 64.7274 69.1525 64.6478 69.4427 64.5329C69.4427 64.5329 69.4981 64.5061 69.474 64.4415L69.2844 63.9205M70.6281 62.2059C70.6648 61.9586 70.7326 61.7525 70.8391 61.5926C70.9985 61.3486 71.2414 61.215 71.5827 61.215C71.9239 61.215 72.1498 61.3492 72.3114 61.5926C72.4186 61.7533 72.4654 61.9668 72.4829 62.2059L70.6198 62.2056L70.6281 62.2059ZM73.2165 61.6618C73.1511 61.4162 72.989 61.1672 72.8835 61.0534C72.7153 60.8737 72.5521 60.7468 72.3889 60.6775C72.1532 60.5773 71.8997 60.5259 71.6437 60.5264C71.3189 60.5264 71.0238 60.5813 70.7847 60.6929C70.5456 60.8053 70.3445 60.9583 70.1862 61.1496C70.0281 61.3408 69.9092 61.5667 69.8334 61.8255C69.7576 62.0811 69.7193 62.3614 69.7193 62.6548C69.7193 62.9549 69.759 63.2335 69.8372 63.4858C69.9162 63.7397 70.0433 63.9622 70.2147 64.1469C70.3862 64.3332 70.6055 64.4783 70.8693 64.5805C71.1314 64.6819 71.4496 64.7345 71.814 64.7333C72.5658 64.7309 72.9615 64.5635 73.123 64.4728C73.1519 64.4567 73.1791 64.4288 73.1451 64.3485L72.9753 63.8721C72.9493 63.801 72.8774 63.8267 72.8774 63.8267C72.6911 63.8963 72.4273 64.0213 71.809 64.0196C71.4051 64.019 71.1067 63.8998 70.9187 63.713C70.7275 63.5217 70.6319 63.2431 70.617 62.8474L73.222 62.8494C73.222 62.8494 73.2906 62.8487 73.2976 62.7818C73.3004 62.7541 73.3868 62.2476 73.22 61.6623L73.2165 61.6618ZM49.805 62.2059C49.8418 61.9586 49.9097 61.7525 50.016 61.5926C50.1756 61.3486 50.4183 61.215 50.7596 61.215C51.1009 61.215 51.3268 61.3492 51.4883 61.5926C51.5953 61.7533 51.6421 61.9668 51.6598 62.2059L49.7968 62.2056L49.805 62.2059ZM52.3935 61.6618C52.3282 61.4162 52.1659 61.1672 52.0604 61.0534C51.8923 60.8737 51.729 60.7468 51.5658 60.6775C51.3302 60.5773 51.0767 60.5259 50.8206 60.5264C50.4958 60.5264 50.2007 60.5813 49.9616 60.6929C49.7226 60.8053 49.5214 60.9583 49.3632 61.1496C49.2054 61.3408 49.0862 61.5667 49.0103 61.8255C48.9347 62.0811 48.8966 62.3614 48.8966 62.6548C48.8966 62.9549 48.936 63.2335 49.0146 63.4858C49.0934 63.7397 49.2207 63.9622 49.3905 64.1469C49.562 64.3332 49.7813 64.4783 50.0451 64.5805C50.3072 64.6819 50.6237 64.7345 50.9898 64.7333C51.7416 64.7309 52.1373 64.5635 52.2988 64.4728C52.3275 64.4567 52.3549 64.4288 52.3208 64.3485L52.1509 63.8721C52.1247 63.801 52.0528 63.8267 52.0528 63.8267C51.8665 63.8963 51.6027 64.0213 50.9845 64.0196C50.5822 64.019 50.2821 63.8998 50.0942 63.713C49.9029 63.5217 49.8073 63.2431 49.7925 62.8474L52.3974 62.8494C52.3974 62.8494 52.466 62.8487 52.4731 62.7818C52.4759 62.7541 52.5623 62.2476 52.3953 61.6623L52.3935 61.6618ZM44.1829 63.904C44.0809 63.8226 44.0667 63.8026 44.0329 63.7497C43.9813 63.6701 43.9549 63.5568 43.9549 63.4117C43.9549 63.1842 44.0308 63.0194 44.1874 62.9089C44.1857 62.9092 44.4116 62.7143 44.9425 62.7209C45.1788 62.7252 45.4145 62.7453 45.6481 62.7811V63.9632H45.6485C45.6485 63.9632 45.3187 64.0343 44.9461 64.0567C44.4169 64.0885 44.1828 63.9044 44.1844 63.9049L44.1829 63.904ZM45.2183 62.074C45.1128 62.0662 44.976 62.0624 44.8127 62.0624C44.5902 62.0624 44.3742 62.0901 44.173 62.1446C43.9703 62.1993 43.7873 62.284 43.6306 62.3968C43.4736 62.5088 43.3444 62.6555 43.2531 62.8255C43.1609 62.9969 43.1139 63.1981 43.1139 63.4256C43.1139 63.6564 43.154 63.8559 43.2331 64.0191C43.3107 64.181 43.4274 64.321 43.5728 64.4263C43.7173 64.5315 43.8959 64.6094 44.102 64.6555C44.3064 64.7022 44.5372 64.7258 44.7911 64.7258C45.0582 64.7258 45.3237 64.7033 45.5809 64.66C45.7999 64.6222 46.0182 64.5798 46.2354 64.5327C46.3221 64.5127 46.4184 64.4865 46.4184 64.4865C46.4827 64.4702 46.4778 64.4015 46.4778 64.4015L46.4763 62.0273C46.4763 61.5063 46.3371 61.1189 46.0625 60.8798C45.7888 60.6408 45.3881 60.5204 44.8688 60.5204C44.6743 60.5204 44.3594 60.5468 44.1714 60.5846C44.1714 60.5846 43.6042 60.6947 43.3701 60.878C43.3701 60.878 43.3187 60.9097 43.3467 60.9814L43.5314 61.476C43.5543 61.5401 43.6168 61.5182 43.6168 61.5182C43.6168 61.5182 43.6364 61.5105 43.6595 61.4968C44.159 61.2247 44.7921 61.233 44.7921 61.233C45.0724 61.233 45.29 61.2899 45.4351 61.4012C45.5771 61.5101 45.6495 61.6748 45.6495 62.0211V62.131C45.4269 62.0987 45.2208 62.0801 45.2208 62.0801L45.2183 62.074ZM66.1568 60.7336C66.1605 60.7249 66.1625 60.7155 66.1626 60.7061C66.1626 60.6966 66.1608 60.6872 66.1571 60.6785C66.1535 60.6697 66.1481 60.6618 66.1413 60.6552C66.1346 60.6486 66.1265 60.6434 66.1177 60.6399C66.0734 60.6231 65.8523 60.5765 65.6825 60.5659C65.356 60.5455 65.1747 60.6005 65.0114 60.6737C64.8502 60.7465 64.6718 60.8633 64.5729 60.9985L64.5726 60.682C64.5726 60.6385 64.5417 60.6033 64.4979 60.6033H63.8318C63.7886 60.6033 63.7573 60.6385 63.7573 60.682V64.5564C63.7573 64.5774 63.7657 64.5974 63.7805 64.6122C63.7953 64.627 63.8153 64.6354 63.8363 64.6354H64.5188C64.5397 64.6354 64.5598 64.627 64.5746 64.6122C64.5893 64.5974 64.5976 64.5773 64.5976 64.5564V62.611C64.5976 62.3505 64.6263 62.0916 64.6835 61.9284C64.7399 61.767 64.8166 61.6382 64.911 61.5459C65.0012 61.4567 65.1114 61.3906 65.2325 61.353C65.3462 61.3204 65.4638 61.3039 65.5821 61.3039C65.7181 61.3039 65.8673 61.3388 65.8673 61.3388C65.9174 61.3444 65.9453 61.3138 65.9623 61.2686C66.0069 61.1497 66.1337 60.7938 66.1584 60.7229" fill="#FFFFFE"/>
<path fill-rule="evenodd" clip-rule="evenodd" d="M59.7816 58.9449C59.6973 58.9194 59.6114 58.8991 59.5246 58.8839C59.4078 58.8644 59.2895 58.8553 59.1711 58.8566C58.7007 58.8566 58.33 58.9894 58.0696 59.2519C57.8111 59.5124 57.6352 59.9093 57.547 60.4314L57.5152 60.6076H56.9248C56.9248 60.6076 56.8527 60.6047 56.8375 60.6833L56.7406 61.2241C56.7338 61.2759 56.7561 61.3082 56.8253 61.3078H57.4001L56.8169 64.5629C56.7713 64.825 56.719 65.0407 56.6611 65.2041C56.6041 65.3653 56.5484 65.4861 56.4798 65.5739C56.4133 65.6588 56.3504 65.7213 56.2417 65.7577C56.152 65.7879 56.0488 65.8017 55.9357 65.8017C55.8727 65.8017 55.789 65.7912 55.7271 65.7788C55.6653 65.7666 55.6332 65.7527 55.5868 65.7333C55.5868 65.7333 55.5194 65.7076 55.4929 65.7752C55.4713 65.8304 55.3181 66.2516 55.3 66.3037C55.2815 66.3552 55.3074 66.3957 55.34 66.4074C55.4165 66.4348 55.4734 66.4523 55.5776 66.4768C55.7224 66.511 55.8444 66.5131 55.9586 66.5131C56.198 66.5131 56.4161 66.4795 56.597 66.4142C56.779 66.3484 56.9375 66.2338 57.0776 66.0787C57.2291 65.9113 57.3244 65.7361 57.4156 65.497C57.5058 65.2601 57.5826 64.966 57.6441 64.6232L58.23 61.3078H59.0867C59.0867 61.3078 59.1589 61.3105 59.1739 61.2322L59.2709 60.6914C59.2776 60.6396 59.2555 60.6073 59.186 60.6076H58.3545C58.3586 60.5889 58.3964 60.2964 58.4919 60.021C58.5326 59.9035 58.6092 59.8087 58.6742 59.7436C58.7348 59.6815 58.8096 59.6351 58.892 59.608C58.9824 59.5801 59.0765 59.5665 59.1711 59.5678C59.2494 59.5678 59.3263 59.5772 59.3848 59.5894C59.4654 59.6066 59.4967 59.6156 59.5178 59.6219C59.6026 59.6478 59.614 59.6227 59.6306 59.5817L59.8294 59.0356C59.8499 58.9769 59.8001 58.9522 59.7816 58.9449ZM48.1626 64.5698C48.1626 64.6133 48.1316 64.6488 48.0881 64.6488H47.3984C47.3547 64.6488 47.3237 64.6133 47.3237 64.5698V59.019C47.3237 58.9756 47.3547 58.9405 47.3984 58.9405H48.0881C48.1316 58.9405 48.1626 58.9756 48.1626 59.019V64.5698Z" fill="#FFFFFE"/>
<path d="M7 11.4252C7 8.98124 8.98123 7 11.4252 7H39.4515C41.8954 7 43.8767 8.98123 43.8767 11.4252V39.5748C43.8767 42.0188 41.8954 44 39.4515 44H11.4252C8.98123 44 7 42.0188 7 39.5748V11.4252Z" fill="#E7436A"/>
<path d="M11.8823 37.5518L11.8768 37.5348L15.2013 34.4908V33.0244H9.86732V34.4908H13.0535L13.0589 34.5047L9.76611 37.5518V39.0182H15.2554V37.5518H11.8823Z" fill="#FFFDF9"/>
<path d="M18.5295 32.8855C17.9145 32.8855 17.4131 32.9782 17.0252 33.1637C16.6644 33.3251 16.36 33.5917 16.1522 33.9285C15.9536 34.2677 15.8285 34.6447 15.786 35.0349L17.4046 35.262C17.4633 34.9175 17.5799 34.6726 17.7561 34.5289C17.9554 34.3782 18.2019 34.3025 18.4514 34.3133C18.7798 34.3133 19.0185 34.4014 19.1661 34.5768C19.3129 34.7521 19.3878 34.9955 19.3878 35.3161V35.4761H17.8318C17.0399 35.4761 16.4705 35.6514 16.1244 36.003C15.7782 36.3545 15.606 36.8181 15.606 37.3944C15.606 37.9847 15.779 38.4235 16.1244 38.7117C16.4697 38.9999 16.9039 39.1428 17.4277 39.1412C18.0775 39.1412 18.5766 38.918 18.9258 38.4714C19.1321 38.1971 19.2797 37.8827 19.3585 37.5482H19.4172L19.6405 39.0145H21.1068V35.3007C21.1068 34.5335 20.9044 33.9386 20.5004 33.5167C20.0955 33.0949 19.4388 32.8848 18.5295 32.8848M19.0425 37.4632C18.8099 37.6571 18.5047 37.7537 18.1254 37.7537C17.8125 37.7537 17.5954 37.6988 17.4741 37.5891C17.4146 37.5373 17.3675 37.4732 17.3358 37.4014C17.3041 37.3295 17.2887 37.2507 17.2902 37.1727C17.2871 37.0985 17.2987 37.0243 17.325 36.9548C17.3513 36.8853 17.3914 36.8219 17.4424 36.7678C17.498 36.7153 17.5637 36.6751 17.6356 36.6489C17.7074 36.6226 17.7839 36.6118 17.8596 36.6156H19.3901V36.7168C19.3932 36.8598 19.3631 37.0012 19.3036 37.1302C19.2441 37.2592 19.1545 37.3736 19.0425 37.4632Z" fill="#FFFDF9"/>
<path d="M29.9761 33.0244H28.2432V39.019H29.9761V33.0244Z" fill="#FFFDF9"/>
<path d="M40.2063 33.0252C39.7165 33.0252 39.331 33.1982 39.049 33.5436C38.8466 33.7916 38.6928 34.1586 38.587 34.6438H38.536L38.3096 33.0252H36.8301V39.019H38.563V35.9448C38.563 35.557 38.6534 35.2603 38.835 35.0533C39.0165 34.8462 39.3511 34.7434 39.8393 34.7434H40.4968V33.0244H40.2063V33.0252Z" fill="#FFFDF9"/>
<path d="M35.1101 33.2214C34.706 32.9803 34.1954 32.8606 33.5796 32.8613C32.61 32.8613 31.8513 33.1371 31.3035 33.6896C30.755 34.242 30.4815 35.003 30.4815 35.9734C30.4676 36.5598 30.5958 37.1407 30.8547 37.6677C31.0918 38.1366 31.4611 38.526 31.917 38.7871C32.3759 39.0521 32.9221 39.185 33.5549 39.1858C34.1019 39.1858 34.5593 39.1016 34.927 38.9332C35.2724 38.7817 35.5729 38.5445 35.8 38.244C36.0164 37.9489 36.1771 37.6167 36.2744 37.2636L34.7818 36.8456C34.7192 37.0751 34.5979 37.2844 34.4302 37.4529C34.2618 37.6213 33.979 37.7063 33.5827 37.7063C33.1114 37.7063 32.7599 37.5711 32.5289 37.3014C32.3612 37.1067 32.2554 36.8278 32.209 36.467H36.2968C36.3138 36.2986 36.3223 36.1572 36.3223 36.0429V35.6697C36.3324 35.1683 36.2288 34.6708 36.0195 34.2157C35.8232 33.8008 35.5065 33.4547 35.1101 33.2229M33.5294 34.2914C34.2317 34.2914 34.6303 34.6375 34.7246 35.329H32.2391C32.2785 35.098 32.3744 34.8809 32.5173 34.6955C32.7452 34.4258 33.082 34.2906 33.5294 34.2914Z" fill="#FFFDF9"/>
<path d="M29.1291 30.609C28.9985 30.6044 28.8687 30.6268 28.7474 30.6731C28.6254 30.7203 28.5149 30.7906 28.4206 30.881C28.3279 30.9721 28.2553 31.0818 28.2074 31.2031C28.1595 31.3244 28.1371 31.4534 28.1417 31.584C28.1371 31.7146 28.1595 31.8452 28.2074 31.9672C28.2553 32.0893 28.3279 32.1998 28.4206 32.2925C28.5133 32.3852 28.6238 32.457 28.7459 32.5057C28.868 32.5536 28.9977 32.576 29.1291 32.5714C29.2589 32.576 29.3887 32.5544 29.51 32.5065C29.6313 32.4586 29.7402 32.386 29.8322 32.2933C29.9225 32.1998 29.9936 32.0885 30.04 31.9672C30.0871 31.8452 30.108 31.7154 30.1033 31.5856C30.1095 31.4558 30.0879 31.3267 30.0415 31.2062C29.9944 31.0857 29.9233 30.9752 29.8322 30.884C29.7402 30.7921 29.6305 30.721 29.51 30.6739C29.3895 30.6268 29.2597 30.6059 29.1306 30.6121H29.1299L29.1291 30.609Z" fill="#FFFDF9"/>
<path d="M25.5487 32.8613C24.9585 32.8613 24.4841 33.0468 24.1256 33.4176C23.8606 33.6919 23.6659 34.1021 23.5415 34.6468H23.4867L23.2603 33.0282H21.7808V40.7426H23.5137V37.5649H23.577C23.6296 37.7766 23.7038 37.9829 23.7988 38.1799C23.9456 38.5005 24.1859 38.7694 24.4879 38.9509C24.8016 39.1217 25.1547 39.2074 25.5116 39.1974C26.2371 39.1974 26.7895 38.9146 27.1688 38.3499C27.5482 37.7851 27.7383 36.9963 27.7383 35.9849C27.7383 34.9736 27.5544 34.2427 27.1874 33.6903C26.8204 33.1379 26.2742 32.8613 25.5495 32.8613M25.7249 37.2049C25.5224 37.4977 25.2065 37.6437 24.7761 37.6437C24.5984 37.6522 24.4223 37.6174 24.26 37.544C24.0986 37.4699 23.9564 37.3586 23.8467 37.2195C23.6226 36.9375 23.5106 36.5528 23.5114 36.063V35.9486C23.5114 35.4518 23.6234 35.071 23.8467 34.8067C24.07 34.5425 24.3798 34.4119 24.7761 34.415C25.2142 34.415 25.5325 34.5541 25.731 34.8322C25.9296 35.1104 26.0285 35.4982 26.0285 35.9958C26.03 36.5103 25.9288 36.9136 25.7264 37.2041H25.7249V37.2049Z" fill="#FFFDF9"/>
</svg>
