<svg width="64" height="64" viewBox="0 0 64 64" fill="none" xmlns="http://www.w3.org/2000/svg">
<path d="M23.2736 28.181C27.7923 28.181 31.4554 24.5179 31.4554 19.9992C31.4554 15.4805 27.7923 11.8174 23.2736 11.8174C18.7549 11.8174 15.0918 15.4805 15.0918 19.9992C15.0918 24.5179 18.7549 28.181 23.2736 28.181Z" fill="#E7436A"/>
<path d="M40.7287 24.9086C45.2474 24.9086 48.9105 21.2454 48.9105 16.7267C48.9105 12.208 45.2474 8.54492 40.7287 8.54492C36.21 8.54492 32.5469 12.208 32.5469 16.7267C32.5469 21.2454 36.21 24.9086 40.7287 24.9086Z" fill="#E7436A"/>
<path fill-rule="evenodd" clip-rule="evenodd" d="M32.0014 32.5449C25.6785 32.5449 20.5469 37.6766 20.5469 43.9995C20.5469 50.3224 25.6785 55.454 32.0014 55.454C38.3243 55.454 43.456 50.3224 43.456 43.9995C43.456 37.6766 38.3243 32.5449 32.0014 32.5449ZM33.6378 42.3631V40.1813C33.6378 39.278 32.9047 38.5449 32.0014 38.5449C31.0981 38.5449 30.3651 39.278 30.3651 40.1813V42.3631H28.1832C27.28 42.3631 26.5469 43.0962 26.5469 43.9995C26.5469 44.9027 27.28 45.6358 28.1832 45.6358H30.3651V47.8176C30.3651 48.7209 31.0981 49.454 32.0014 49.454C32.9047 49.454 33.6378 48.7209 33.6378 47.8176V45.6358H35.8196C36.7229 45.6358 37.456 44.9027 37.456 43.9995C37.456 43.0962 36.7229 42.3631 35.8196 42.3631H33.6378Z" fill="#0A2E31"/>
<path fill-rule="evenodd" clip-rule="evenodd" d="M18.6356 41.2899C19.8858 35.0913 25.3469 30.4113 31.9011 30.3633C29.5011 29.4273 26.5163 28.8535 23.2741 28.8535C18.5549 28.8535 14.3832 30.0492 11.7891 31.8186C9.67488 33.2586 8.54688 35.1132 8.54688 37.0353V38.3444C8.54688 39.1255 8.85669 39.8739 9.40869 40.4259C9.96288 40.9801 10.7112 41.2899 11.4923 41.2899H18.6356Z" fill="#E7436A"/>
<path fill-rule="evenodd" clip-rule="evenodd" d="M30.7676 27.6834C31.4418 27.8754 32.0832 28.0935 32.6941 28.3314C33.593 28.6804 34.145 29.575 34.0774 30.5197C38.561 31.207 42.329 34.0804 44.2556 38.0164H52.5094C53.2905 38.0164 54.0388 37.7066 54.593 37.1524C55.145 36.6004 55.4549 35.8521 55.4549 35.071V33.7619C55.4549 31.8397 54.3269 29.9852 52.2127 28.5452C49.6185 26.7757 45.4469 25.5801 40.7276 25.5801C36.8549 25.5801 33.353 26.4004 30.7676 27.6834Z" fill="#E7436A"/>
<path d="M9.45418 45.0908C12.2517 45.0908 14.5451 47.3842 14.5451 50.1817C14.5451 52.9793 12.2517 55.2726 9.45418 55.2726C6.65662 55.2726 4.36328 52.9793 4.36328 50.1817C4.36328 47.3842 6.65662 45.0908 9.45418 45.0908Z" fill="#0A2E31"/>
<path d="M58.9093 5.81836C61.7068 5.81836 64.0002 8.11171 64.0002 10.9093C64.0002 13.7068 61.7068 16.0002 58.9093 16.0002C56.1117 16.0002 53.8184 13.7068 53.8184 10.9093C53.8184 8.11171 56.1117 5.81836 58.9093 5.81836Z" fill="#0A2E31"/>
<path d="M61.0913 24.7275C61.8905 24.7275 62.5458 25.3829 62.5458 26.1821C62.5458 26.9813 61.8905 27.6366 61.0913 27.6366C60.2921 27.6366 59.6367 26.9813 59.6367 26.1821C59.6367 25.3829 60.2921 24.7275 61.0913 24.7275Z" fill="#0A2E31"/>
<path d="M20.3627 56.7275C21.1619 56.7275 21.8173 57.3829 21.8173 58.1821C21.8173 58.9813 21.1619 59.6366 20.3627 59.6366C19.5635 59.6366 18.9082 58.9813 18.9082 58.1821C18.9082 57.3829 19.5635 56.7275 20.3627 56.7275Z" fill="#0A2E31"/>
<path d="M41.6726 0C42.9908 0 44.0717 1.08093 44.0717 2.39913C44.0717 3.71733 42.9908 4.79826 41.6726 4.79826C40.3544 4.79826 39.2734 3.71733 39.2734 2.39913C39.2734 1.08093 40.3544 0 41.6726 0Z" fill="#0A2E31"/>
<path d="M54.5451 49.4541C55.7439 49.4541 56.7269 50.4371 56.7269 51.6359C56.7269 52.8347 55.7439 53.8177 54.5451 53.8177C53.3463 53.8177 52.3633 52.8347 52.3633 51.6359C52.3633 50.4371 53.3463 49.4541 54.5451 49.4541Z" fill="#0A2E31"/>
</svg>
