<svg width="80" height="80" viewBox="0 0 80 80" fill="none" xmlns="http://www.w3.org/2000/svg">
<g clip-path="url(#clip0_1872_20447)">
<path d="M24.2509 67.5381L22.3686 63.6103C22.2823 63.4303 22.1471 63.2785 21.9781 63.1721L21.9542 63.157C21.6282 62.9514 21.2161 62.9395 20.8783 63.1258C19.4264 63.9267 18.3703 64.6953 17.6673 65.2752L14.0367 58.3404C13.8973 58.0742 13.6513 57.8796 13.36 57.8053C13.0691 57.7312 12.7596 57.7843 12.5098 57.9515L4.46986 63.3324C4.1627 63.5382 3.98491 63.8891 4.00101 64.2584C4.01711 64.6277 4.22456 64.9618 4.54866 65.1402L10.4722 68.3981V74.9416C10.4722 75.3216 10.6759 75.6725 11.006 75.8611C11.1688 75.954 11.3498 76.0005 11.531 76.0005C11.7172 76.0005 11.9034 75.9513 12.0694 75.8533L23.8344 68.9077C24.3074 68.6282 24.4883 68.0336 24.2509 67.5381Z" fill="#C93B5C"/>
<path d="M75.8344 63.3323L67.7944 57.9514C67.5446 57.784 67.2353 57.7311 66.9443 57.8052C66.6529 57.8794 66.4068 58.0738 66.2675 58.3403L62.6369 65.2751C61.9339 64.6952 60.8777 63.9266 59.4258 63.1257C59.0883 62.9393 58.6762 62.9513 58.3499 63.1569L58.326 63.172C58.1571 63.2785 58.022 63.4303 57.9355 63.6102L56.0533 67.538C55.816 68.0334 55.9969 68.6281 56.4699 68.9074L68.2349 75.8531C68.4008 75.9511 68.5868 76.0002 68.7732 76.0002C68.9543 76.0002 69.1355 75.9538 69.2983 75.8608C69.6283 75.6723 69.8321 75.3214 69.8321 74.9413V68.3979L75.7556 65.1399C76.0795 64.9617 76.2871 64.6276 76.3032 64.2582C76.3193 63.8889 76.1417 63.5379 75.8344 63.3323Z" fill="#C93B5C"/>
<path d="M24.2505 67.5375L22.3682 63.6097C22.1984 63.2557 21.8416 63.0243 21.4491 63.0091C21.4491 63.0091 21.4175 63.0078 21.3635 63.0078C21.184 63.0078 21.0079 63.0534 20.8509 63.1403C17.9372 64.7522 16.627 66.2299 16.5725 66.292C16.3201 66.5805 16.2433 66.983 16.3718 67.3444C16.5003 67.7057 16.8141 67.9692 17.1922 68.0331L23.1182 69.0391C23.1774 69.0491 23.2367 69.054 23.2956 69.054C23.6243 69.054 23.939 68.9005 24.1408 68.6326C24.3793 68.3166 24.4214 67.8943 24.2505 67.5375Z" fill="#A22F4A"/>
<path d="M63.7311 66.292C63.6766 66.2299 62.3663 64.7523 59.4527 63.1403C59.2958 63.0534 59.1195 63.0078 58.9401 63.0078C58.8865 63.0078 58.8548 63.0091 58.8548 63.0091C58.4623 63.0241 58.1052 63.2554 57.9354 63.6097L56.0532 67.5375C55.8822 67.8942 55.9244 68.3166 56.1627 68.6325C56.3648 68.9004 56.6791 69.0539 57.0079 69.0539C57.0668 69.0539 57.1261 69.0489 57.1852 69.0389L63.1111 68.033C63.4892 67.9689 63.8028 67.7054 63.9315 67.3443C64.0603 66.983 63.9835 66.5804 63.7311 66.292Z" fill="#A22F4A"/>
<path d="M19.6009 50.5217C19.3475 49.9985 18.7195 49.7773 18.194 50.0264C13.0499 52.4659 10.8184 55.0402 10.726 55.1483C10.4454 55.4772 10.393 55.9437 10.5933 56.3267L16.4323 67.48C16.5937 67.7881 16.8975 67.9957 17.2426 68.0382C17.2856 68.0435 17.3282 68.046 17.3709 68.046C17.6717 68.046 17.9622 67.9168 18.1645 67.6893C18.1706 67.6825 18.7846 66.9989 20.1098 66.0833C21.3345 65.2373 23.4342 64.0149 26.4827 62.9951C26.8257 62.8803 27.0863 62.5986 27.174 62.2479C27.2617 61.8971 27.1644 61.5259 26.9158 61.2632C24.0428 58.227 21.5815 54.6131 19.6009 50.5217Z" fill="#E7436A"/>
<path d="M69.5794 55.1481C69.487 55.0397 67.2553 52.4656 62.1115 50.0262C61.5858 49.7771 60.9583 49.9981 60.7048 50.5215C58.7237 54.6132 56.2624 58.2272 53.3894 61.2628C53.1409 61.5254 53.0436 61.8968 53.1313 62.2476C53.2191 62.5984 53.4796 62.8802 53.8225 62.9948C56.8711 64.0147 58.9707 65.2371 60.1954 66.083C61.5207 66.9985 62.1346 67.6822 62.1379 67.6855C62.3402 67.917 62.6314 68.0475 62.9349 68.0475C62.9764 68.0475 63.0181 68.0451 63.0598 68.0401C63.4067 67.9989 63.7112 67.7895 63.8732 67.4798L69.7122 56.3265C69.9123 55.9436 69.86 55.4772 69.5794 55.1481Z" fill="#E93234"/>
<path d="M69.5794 55.1481C69.487 55.0397 67.2553 52.4656 62.1115 50.0262C61.5858 49.7771 60.9583 49.9981 60.7048 50.5215C58.7237 54.6132 56.2624 58.2272 53.3894 61.2628C53.1409 61.5254 53.0436 61.8968 53.1313 62.2476C53.2191 62.5984 53.4796 62.8802 53.8225 62.9948C56.8711 64.0147 58.9707 65.2371 60.1954 66.083C61.5207 66.9985 62.1346 67.6822 62.1379 67.6855C62.3402 67.917 62.6314 68.0475 62.9349 68.0475C62.9764 68.0475 63.0181 68.0451 63.0598 68.0401C63.4067 67.9989 63.7112 67.7895 63.8732 67.4798L69.7122 56.3265C69.9123 55.9436 69.86 55.4772 69.5794 55.1481Z" fill="#E7436A"/>
<path d="M68.7116 15.7142C68.6602 15.2152 68.2659 14.8208 67.767 14.7694C59.3395 13.9001 52.4707 11.0895 48.1927 8.88503C43.5423 6.48866 40.8575 4.26797 40.8315 4.24636C40.4384 3.91788 39.8664 3.91788 39.4733 4.24636C39.3677 4.33476 28.7171 13.1005 12.5379 14.7696C12.0389 14.8211 11.6446 15.2154 11.5932 15.7143C11.5475 16.1594 10.504 26.7589 13.3972 39.1031C15.1038 46.3843 17.8367 52.7381 21.5201 57.9876C26.1471 64.5824 32.2845 69.4343 39.761 72.4084C39.8868 72.4584 40.0194 72.4834 40.1523 72.4834C40.2852 72.4834 40.4179 72.4584 40.5436 72.4084C48.0201 69.4343 54.1574 64.5824 58.7845 57.9876C62.468 52.738 65.2007 46.3845 66.9074 39.1031C69.8008 26.7588 68.7572 16.1593 68.7116 15.7142Z" fill="#397277"/>
<path d="M62.1587 21.0545C62.1073 20.5555 61.713 20.1611 61.214 20.1097C48.9989 18.8496 40.9106 12.2169 40.8311 12.1507C40.438 11.8222 39.866 11.8222 39.4729 12.1507C39.3931 12.2175 31.339 18.8461 19.0899 20.1097C18.591 20.1613 18.1967 20.5555 18.1453 21.0545C18.1103 21.3952 17.3112 29.5108 19.5249 38.955C20.8323 44.5332 22.9275 49.4027 25.7517 53.4283C29.3054 58.4929 34.0188 62.2193 39.7605 64.5034C39.8863 64.5534 40.019 64.5784 40.1518 64.5784C40.2847 64.5784 40.4175 64.5534 40.5432 64.5034C46.2852 62.2193 50.9984 58.493 54.552 53.4283C57.3765 49.4027 59.4715 44.5332 60.7788 38.955C62.9927 29.5105 62.1937 21.3952 62.1587 21.0545Z" fill="#0A2E31"/>
<path d="M37.0905 47.3246C36.335 47.3246 35.6103 47.0245 35.076 46.4903L28.5961 40.0104C27.4836 38.8979 27.4836 37.0939 28.5961 35.9812C29.7087 34.8687 31.5125 34.8687 32.6251 35.9812L37.0905 40.4466L48.0357 29.5015C49.1482 28.3889 50.952 28.3888 52.0647 29.5013C53.1772 30.6139 53.1772 32.4178 52.0647 33.5305L39.105 46.49C38.571 47.0244 37.8461 47.3246 37.0905 47.3246Z" fill="white"/>
<path d="M16.7521 5.90392C15.92 7.34521 14.0144 7.97644 12.4304 7.06193C10.9891 6.2298 10.3579 4.32419 11.2724 2.74021C12.1869 1.15622 14.0101 0.66769 15.5941 1.5822C17.0957 2.63942 17.5842 4.46264 16.7521 5.90392Z" fill="#104347"/>
<path d="M3.34597 14.489C2.93402 15.2025 2.01116 15.4498 1.29766 15.0379C0.584151 14.6259 0.336864 13.703 0.748807 12.9895C1.16075 12.276 2.08362 12.0288 2.79713 12.4407C3.51063 12.8526 3.75791 13.7755 3.34597 14.489Z" fill="#104347"/>
<path d="M54.346 78.7976C53.934 79.5111 53.0112 79.7584 52.2977 79.3465C51.5842 78.9345 51.3369 78.0116 51.7488 77.2981C52.1607 76.5846 53.0836 76.3373 53.7971 76.7493C54.5106 77.1612 54.7579 78.0841 54.346 78.7976Z" fill="#104347"/>
<path d="M75.846 27.2976C75.434 28.0111 74.5112 28.2584 73.7977 27.8465C73.0842 27.4345 72.8369 26.5116 73.2488 25.7981C73.6607 25.0846 74.5836 24.8373 75.2971 25.2493C76.0106 25.6612 76.2579 26.5841 75.846 27.2976Z" fill="#104347"/>
<path d="M69.346 6.7976C68.934 7.51111 68.0112 7.75839 67.2977 7.34645C66.5841 6.93451 66.3369 6.01164 66.7488 5.29813C67.1607 4.58463 68.0836 4.33734 68.7971 4.74929C69.5106 5.16123 69.7579 6.0841 69.346 6.7976Z" fill="#104347"/>
</g>
<defs>
<clipPath id="clip0_1872_20447">
<rect width="80" height="80" fill="white"/>
</clipPath>
</defs>
</svg>
