<svg width="70" height="70" viewBox="0 0 70 70" fill="none" xmlns="http://www.w3.org/2000/svg">
<path fill-rule="evenodd" clip-rule="evenodd" d="M33.0011 6.36537C34.103 6.28832 35.0587 7.11911 35.1358 8.22098L35.5078 13.5413C35.5849 14.6432 34.754 15.5989 33.6522 15.676C32.5504 15.753 31.5946 14.9222 31.5176 13.8203L31.1455 8.50001C31.0685 7.39814 31.8993 6.44241 33.0011 6.36537ZM16.4143 18.8052C17.1389 17.9715 18.4022 17.8832 19.2358 18.6079L20.2128 19.4571C21.0464 20.1818 21.1347 21.4451 20.4101 22.2787C19.6854 23.1123 18.4222 23.2006 17.5886 22.476L16.6116 21.6267C15.778 20.902 15.6896 19.6388 16.4143 18.8052ZM51.1578 16.3757C51.9914 17.1003 52.0798 18.3636 51.3551 19.1972L50.506 20.1742C49.7813 21.0078 48.518 21.0961 47.6843 20.3715C46.8507 19.6468 46.7623 18.3836 47.487 17.5499L48.3364 16.5729C49.0611 15.7393 50.3241 15.651 51.1578 16.3757ZM6.40398 36.9619C6.32693 35.86 7.15773 34.9043 8.2596 34.8272L13.5799 34.4552C14.6818 34.3782 15.6375 35.209 15.7146 36.3108C15.7916 37.4127 14.9608 38.3684 13.859 38.4455L8.53862 38.8175C7.43675 38.8946 6.48103 38.0637 6.40398 36.9619ZM54.2871 33.6136C54.21 32.5117 55.0408 31.556 56.1427 31.4789L61.463 31.1069C62.5649 31.0299 63.5206 31.8607 63.5977 32.9625C63.6747 34.0644 62.8439 35.0201 61.742 35.0972L56.4217 35.4692C55.3199 35.5462 54.3641 34.7154 54.2871 33.6136ZM22.3168 49.5535C23.1504 50.2782 23.2387 51.5415 22.5141 52.3751L21.6653 53.3514C20.9407 54.185 19.6774 54.2734 18.8438 53.5487C18.0102 52.824 17.9218 51.5609 18.6465 50.7273L19.4952 49.7508C20.2199 48.9171 21.4831 48.8288 22.3168 49.5535ZM49.5921 47.6462C50.3168 46.8125 51.5801 46.7242 52.4137 47.4489L53.39 48.2978C54.2236 49.0225 54.312 50.2855 53.5873 51.1192C52.8626 51.9528 51.5996 52.0411 50.7659 51.3165L49.7894 50.4678C48.9557 49.7432 48.8674 48.4798 49.5921 47.6462ZM36.3494 54.2484C37.4513 54.1714 38.407 55.0022 38.4841 56.1041L38.8561 61.4244C38.9332 62.5262 38.1023 63.482 37.0005 63.559C35.8987 63.6361 34.9429 62.8053 34.8659 61.7034L34.4938 56.3831C34.4168 55.2812 35.2476 54.3255 36.3494 54.2484Z" fill="white"/>
<path d="M21.5242 33.3906C21.9971 40.1535 27.5953 43.3837 31.7345 46.3357C33.195 47.3775 34.6 48.3562 35.9301 48.2632C37.2602 48.1702 38.5153 47.0054 39.8166 45.7706C43.5047 42.2712 48.5988 38.2933 48.1259 31.5304C47.653 24.7674 40.0019 20.4827 34.4714 27.4031C28.0316 21.3198 21.0513 26.6276 21.5242 33.3906Z" fill="white"/>
</svg>
