<svg viewBox="0 0 20 20" fill="none" xmlns="http://www.w3.org/2000/svg">
<g id="Icon / Contacts">
<mask id="mask0_81_9061" style="mask-type:alpha" maskUnits="userSpaceOnUse" x="0" y="0" width="20" height="20">
<rect id="Bounding box" width="20" height="20"/>
</mask>
<g mask="url(#mask0_81_9061)">
<path id="contacts" d="M3.33317 19.1673V17.5006H16.6665V19.1673H3.33317ZM3.33317 2.50065V0.833984H16.6665V2.50065H3.33317ZM9.99984 10.834C10.6943 10.834 11.2846 10.5909 11.7707 10.1048C12.2568 9.61871 12.4998 9.02843 12.4998 8.33398C12.4998 7.63954 12.2568 7.04926 11.7707 6.56315C11.2846 6.07704 10.6943 5.83398 9.99984 5.83398C9.30539 5.83398 8.71512 6.07704 8.229 6.56315C7.74289 7.04926 7.49984 7.63954 7.49984 8.33398C7.49984 9.02843 7.74289 9.61871 8.229 10.1048C8.71512 10.5909 9.30539 10.834 9.99984 10.834ZM3.33317 16.6673C2.87484 16.6673 2.48248 16.5041 2.15609 16.1777C1.8297 15.8513 1.6665 15.459 1.6665 15.0006V5.00065C1.6665 4.54232 1.8297 4.14996 2.15609 3.82357C2.48248 3.49718 2.87484 3.33398 3.33317 3.33398H16.6665C17.1248 3.33398 17.5172 3.49718 17.8436 3.82357C18.17 4.14996 18.3332 4.54232 18.3332 5.00065V15.0006C18.3332 15.459 18.17 15.8513 17.8436 16.1777C17.5172 16.5041 17.1248 16.6673 16.6665 16.6673H3.33317ZM4.7915 15.0006H15.2082C14.5832 14.2229 13.8262 13.6118 12.9373 13.1673C12.0484 12.7229 11.0693 12.5007 9.99984 12.5007C8.93039 12.5007 7.95123 12.7229 7.06234 13.1673C6.17345 13.6118 5.4165 14.2229 4.7915 15.0006Z"/>
</g>
</g>
</svg>
