<svg width="20" height="20" viewBox="0 0 20 20" fill="none" xmlns="http://www.w3.org/2000/svg">
<g id="Icon / Credit_card">
<mask id="mask0_81_8461" style="mask-type:alpha" maskUnits="userSpaceOnUse" x="0" y="0" width="20" height="20">
<rect id="Bounding box" width="20" height="20" fill="#D9D9D9"/>
</mask>
<g mask="url(#mask0_81_8461)">
<path id="credit_card" d="M3.33317 16.6663C2.87484 16.6663 2.48248 16.5031 2.15609 16.1768C1.8297 15.8504 1.6665 15.458 1.6665 14.9997V4.99967C1.6665 4.54134 1.8297 4.14898 2.15609 3.82259C2.48248 3.4962 2.87484 3.33301 3.33317 3.33301H16.6665C17.1248 3.33301 17.5172 3.4962 17.8436 3.82259C18.17 4.14898 18.3332 4.54134 18.3332 4.99967V14.9997C18.3332 15.458 18.17 15.8504 17.8436 16.1768C17.5172 16.5031 17.1248 16.6663 16.6665 16.6663H3.33317ZM3.33317 9.99967H16.6665V6.66634H3.33317V9.99967Z" fill="#929292"/>
</g>
</g>
</svg>
