<svg width="20" height="20" viewBox="0 0 20 20" fill="none" xmlns="http://www.w3.org/2000/svg">
<g id="Icon / Key">
<mask id="mask0_81_8377" style="mask-type:alpha" maskUnits="userSpaceOnUse" x="0" y="0" width="20" height="20">
<rect id="Bounding box" width="20" height="20" fill="#D9D9D9"/>
</mask>
<g mask="url(#mask0_81_8377)">
<path id="key" d="M5.8335 12.5C6.52794 12.5 7.11822 12.2569 7.60433 11.7708C8.09044 11.2847 8.3335 10.6944 8.3335 10C8.3335 9.30556 8.09044 8.71528 7.60433 8.22917C7.11822 7.74306 6.52794 7.5 5.8335 7.5C5.13905 7.5 4.54877 7.74306 4.06266 8.22917C3.57655 8.71528 3.3335 9.30556 3.3335 10C3.3335 10.6944 3.57655 11.2847 4.06266 11.7708C4.54877 12.2569 5.13905 12.5 5.8335 12.5ZM5.8335 15C4.44461 15 3.26405 14.5139 2.29183 13.5417C1.31961 12.5694 0.833496 11.3889 0.833496 10C0.833496 8.61111 1.31961 7.43056 2.29183 6.45833C3.26405 5.48611 4.44461 5 5.8335 5C6.9585 5 7.94113 5.31944 8.78141 5.95833C9.62169 6.59722 10.2085 7.38889 10.5418 8.33333H17.521L19.1668 9.97917L16.2502 13.3125L14.1668 11.6667L12.5002 13.3333L10.8335 11.6667H10.5418C10.1946 12.6667 9.59044 13.4722 8.72933 14.0833C7.86822 14.6944 6.90294 15 5.8335 15Z" fill="#E7436A"/>
</g>
</g>
</svg>
