<svg viewBox="0 0 20 20" fill="none" xmlns="http://www.w3.org/2000/svg">
<g id="Icon / Notifications">
<mask id="mask0_81_8290" style="mask-type:alpha" maskUnits="userSpaceOnUse" x="0" y="0" width="20" height="20">
<rect id="Bounding box" width="20" height="20"/>
</mask>
<g mask="url(#mask0_81_8290)">
<path id="notifications" d="M3.3335 15.8337V14.167H5.00016V8.33366C5.00016 7.18088 5.34738 6.15658 6.04183 5.26074C6.73627 4.36491 7.63905 3.7781 8.75016 3.50033V2.91699C8.75016 2.56977 8.87169 2.27463 9.11475 2.03158C9.3578 1.78852 9.65294 1.66699 10.0002 1.66699C10.3474 1.66699 10.6425 1.78852 10.8856 2.03158C11.1286 2.27463 11.2502 2.56977 11.2502 2.91699V3.50033C12.3613 3.7781 13.2641 4.36491 13.9585 5.26074C14.6529 6.15658 15.0002 7.18088 15.0002 8.33366V14.167H16.6668V15.8337H3.3335ZM10.0002 18.3337C9.54183 18.3337 9.14947 18.1705 8.82308 17.8441C8.49669 17.5177 8.3335 17.1253 8.3335 16.667H11.6668C11.6668 17.1253 11.5036 17.5177 11.1772 17.8441C10.8509 18.1705 10.4585 18.3337 10.0002 18.3337Z"/>
</g>
</g>
</svg>
