<svg viewBox="0 0 16 16" fill="none" xmlns="http://www.w3.org/2000/svg">
<g id="Icon / Lock outlined">
<mask id="mask0_81_8457" style="mask-type:alpha" maskUnits="userSpaceOnUse" x="0" y="0" width="16" height="16">
<rect id="Bounding box" width="16" height="16"/>
</mask>
<g mask="url(#mask0_81_8457)">
<path id="lock" d="M3.99984 14.667C3.63317 14.667 3.31928 14.5364 3.05817 14.2753C2.79706 14.0142 2.6665 13.7003 2.6665 13.3337V6.66699C2.6665 6.30033 2.79706 5.98644 3.05817 5.72533C3.31928 5.46421 3.63317 5.33366 3.99984 5.33366H4.6665V4.00033C4.6665 3.0781 4.9915 2.29199 5.6415 1.64199C6.2915 0.991992 7.07761 0.666992 7.99984 0.666992C8.92206 0.666992 9.70817 0.991992 10.3582 1.64199C11.0082 2.29199 11.3332 3.0781 11.3332 4.00033V5.33366H11.9998C12.3665 5.33366 12.6804 5.46421 12.9415 5.72533C13.2026 5.98644 13.3332 6.30033 13.3332 6.66699V13.3337C13.3332 13.7003 13.2026 14.0142 12.9415 14.2753C12.6804 14.5364 12.3665 14.667 11.9998 14.667H3.99984ZM3.99984 13.3337H11.9998V6.66699H3.99984V13.3337ZM7.99984 11.3337C8.3665 11.3337 8.68039 11.2031 8.9415 10.942C9.20261 10.6809 9.33317 10.367 9.33317 10.0003C9.33317 9.63366 9.20261 9.31977 8.9415 9.05866C8.68039 8.79755 8.3665 8.66699 7.99984 8.66699C7.63317 8.66699 7.31928 8.79755 7.05817 9.05866C6.79706 9.31977 6.6665 9.63366 6.6665 10.0003C6.6665 10.367 6.79706 10.6809 7.05817 10.942C7.31928 11.2031 7.63317 11.3337 7.99984 11.3337ZM5.99984 5.33366H9.99984V4.00033C9.99984 3.44477 9.80539 2.97255 9.4165 2.58366C9.02761 2.19477 8.55539 2.00033 7.99984 2.00033C7.44428 2.00033 6.97206 2.19477 6.58317 2.58366C6.19428 2.97255 5.99984 3.44477 5.99984 4.00033V5.33366Z"/>
</g>
</g>
</svg>
