<svg viewBox="0 0 20 20" fill="none" xmlns="http://www.w3.org/2000/svg">
<g id="Icon / Find_in_page">
<mask id="mask0_81_9094" style="mask-type:alpha" maskUnits="userSpaceOnUse" x="0" y="0" width="20" height="20">
<rect id="Bounding box" width="20" height="20"/>
</mask>
<g mask="url(#mask0_81_9094)">
<path id="find_in_page" d="M10.0002 12.4993C9.54183 12.4993 9.14947 12.3362 8.82308 12.0098C8.49669 11.6834 8.3335 11.291 8.3335 10.8327C8.3335 10.3743 8.49669 9.98199 8.82308 9.6556C9.14947 9.32921 9.54183 9.16602 10.0002 9.16602C10.4585 9.16602 10.8509 9.32921 11.1772 9.6556C11.5036 9.98199 11.6668 10.3743 11.6668 10.8327C11.6668 11.291 11.5036 11.6834 11.1772 12.0098C10.8509 12.3362 10.4585 12.4993 10.0002 12.4993ZM5.00016 1.66602H11.6668L16.6668 6.66602V16.666C16.6668 17.1243 16.5036 17.5167 16.1772 17.8431C15.8509 18.1695 15.4585 18.3327 15.0002 18.3327H5.00016C4.54183 18.3327 4.14947 18.1695 3.82308 17.8431C3.49669 17.5167 3.3335 17.1243 3.3335 16.666V3.33268C3.3335 2.87435 3.49669 2.48199 3.82308 2.1556C4.14947 1.82921 4.54183 1.66602 5.00016 1.66602ZM10.0002 14.166C10.3196 14.166 10.6182 14.1278 10.896 14.0514C11.1738 13.975 11.4307 13.8605 11.6668 13.7077L14.646 16.666H15.0002V14.666L12.8752 12.4993C13.0279 12.2632 13.1425 12.0063 13.2189 11.7285C13.2953 11.4507 13.3335 11.1521 13.3335 10.8327C13.3335 9.91602 13.0071 9.13129 12.3543 8.47852C11.7016 7.82574 10.9168 7.49935 10.0002 7.49935C9.0835 7.49935 8.29877 7.82574 7.646 8.47852C6.99322 9.13129 6.66683 9.91602 6.66683 10.8327C6.66683 11.7493 6.99322 12.5341 7.646 13.1868C8.29877 13.8396 9.0835 14.166 10.0002 14.166Z"/>
</g>
</g>
</svg>
