<svg width="42" height="42" viewBox="0 0 42 42" fill="none" xmlns="http://www.w3.org/2000/svg">
<path d="M0 8C0 3.58172 3.58172 0 8 0H34C38.4183 0 42 3.58172 42 8V34C42 38.4183 38.4183 42 34 42H8C3.58172 42 0 38.4183 0 34V8Z" fill="#0A2E31"/>
<g clip-path="url(#clip0_2047_7645)">
<path d="M28.9968 29L29.0008 28.9993V23.1313C29.0008 20.2606 28.3828 18.0493 25.0268 18.0493C23.4135 18.0493 22.3308 18.9347 21.8888 19.774H21.8422V18.3173H18.6602V28.9993H21.9735V23.71C21.9735 22.3173 22.2375 20.9707 23.9622 20.9707C25.6615 20.9707 25.6868 22.56 25.6868 23.7993V29H28.9968Z" fill="white"/>
<path d="M13.2637 18.3181H16.581V29.0001H13.2637V18.3181Z" fill="white"/>
<path d="M14.9213 13C13.8607 13 13 13.8607 13 14.9213C13 15.982 13.8607 16.8607 14.9213 16.8607C15.982 16.8607 16.8427 15.982 16.8427 14.9213C16.842 13.8607 15.9813 13 14.9213 13Z" fill="white"/>
</g>
<defs>
<clipPath id="clip0_2047_7645">
<rect width="16" height="16" fill="white" transform="translate(13 13)"/>
</clipPath>
</defs>
</svg>
