<svg width="16" height="16" viewBox="0 0 16 16" fill="none" xmlns="http://www.w3.org/2000/svg">
<g clip-path="url(#clip0_12_1035)">
<path d="M15.9958 16L15.9998 15.9993V10.1313C15.9998 7.26065 15.3818 5.04932 12.0258 5.04932C10.4125 5.04932 9.32985 5.93465 8.88785 6.77398H8.84118V5.31732H5.65918V15.9993H8.97251V10.71C8.97251 9.31732 9.23651 7.97065 10.9612 7.97065C12.6605 7.97065 12.6858 9.55998 12.6858 10.7993V16H15.9958Z" fill="#0A2E31"/>
<path d="M0.264648 5.31812H3.58198V16.0001H0.264648V5.31812Z" fill="#0A2E31"/>
<path d="M1.92133 0C0.860667 0 0 0.860667 0 1.92133C0 2.982 0.860667 3.86067 1.92133 3.86067C2.982 3.86067 3.84267 2.982 3.84267 1.92133C3.842 0.860667 2.98133 0 1.92133 0Z" fill="#0A2E31"/>
</g>
<defs>
<clipPath id="clip0_12_1035">
<rect width="16" height="16" fill="white"/>
</clipPath>
</defs>
</svg>
