<svg width="24" height="24" viewBox="0 0 24 24" fill="none" xmlns="http://www.w3.org/2000/svg">
<path d="M11.0579 4.8177L11.3706 4.70613C11.559 4.18166 11.7487 3.65719 11.9371 3.13272L11.9973 2.96474L12.0575 3.13272L13.1175 6.10387L13.625 7.52212L14.3325 9.51101L14.84 10.928L15.2001 11.9359C15.2091 11.9577 15.2168 11.9782 15.2245 12H17.4558C17.4648 11.8525 17.4417 11.7205 17.3956 11.5576V11.555C17.3879 11.5255 17.3776 11.4922 17.3674 11.4601C17.3597 11.4371 17.3507 11.4114 17.3405 11.3845L16.8573 10.0316L16.7202 9.64565L16.1485 8.04018L15.6423 6.62449L13.707 1.2041C13.6096 0.932251 13.4584 0.696303 13.2572 0.502672C13.2443 0.489848 13.229 0.475743 13.2136 0.460355H13.2123L13.2072 0.456508C12.8791 0.161573 12.4497 0 11.9999 0C11.2245 0 10.5542 0.471896 10.294 1.20282L8.68555 5.65634L9.07132 5.51913L11.0579 4.8177Z" fill="white"/>
<path d="M12.9936 19.1515L12.6847 19.2605C12.6745 19.2887 12.6642 19.3144 12.654 19.34L12.0695 20.8839L12.008 21.0468L11.949 20.8827L10.8827 17.8948L10.3752 16.4779L9.66645 14.489L9.1602 13.0707C9.03203 12.7143 8.90515 12.3565 8.77699 12H6.50977C6.51489 12.1667 6.56103 12.3103 6.61102 12.4668L6.63152 12.5309L6.63408 12.5399C6.64306 12.5642 6.64946 12.5886 6.65844 12.6117L6.76609 12.9143L6.77507 12.9387L6.79173 12.9861L7.14161 13.9684L7.85292 15.9585L8.35789 17.3742L10.2945 22.7959C10.4213 23.1537 10.6495 23.4563 10.9545 23.6717C11.2595 23.8872 11.6209 24 12.0003 24C12.7757 24 13.4473 23.5268 13.7075 22.7959L15.3749 18.309L14.9865 18.4463L12.9936 19.1515Z" fill="white"/>
<path d="M6.1083 10.8806L7.52451 10.3753L9.51362 9.66366L10.9285 9.15842L11.9359 8.79809V8.79296C11.959 8.78911 11.9795 8.78142 12 8.77372V6.54761C11.8142 6.54761 11.6322 6.57582 11.4591 6.63224L11.4425 6.63609C11.4245 6.6425 11.4066 6.64891 11.3874 6.65532L10.8555 6.84511L10.7709 6.87588L10.034 7.13876L8.04358 7.84917L6.62736 8.35697L1.2009 10.2946C0.471644 10.5549 0 11.2242 0 11.9988C0 12.7733 0.471644 13.444 1.2009 13.7043L5.64435 15.2777L5.50849 14.8955L4.80743 12.9079L4.7049 12.6181C4.68055 12.6015 4.65364 12.5886 4.62288 12.5797V12.5771L3.15155 12.0578L2.98238 11.9975L3.15155 11.9372L6.1083 10.8806Z" fill="white"/>
<path d="M22.8008 10.2945L18.306 8.59668L18.4432 8.98651L19.1481 10.9818L19.2583 11.296C19.803 11.5076 20.3464 11.7179 20.8898 11.9282L21.05 11.991L20.8885 12.0487L17.8921 13.1194L16.4771 13.6247L14.488 14.3351L13.0718 14.8403C12.7155 14.9686 12.3592 15.0955 12.0029 15.2225V17.4511C12.1349 17.4511 12.2669 17.437 12.3938 17.4075C12.399 17.4075 12.4028 17.4075 12.4079 17.405H12.4143C12.4566 17.3921 12.4989 17.3819 12.5399 17.3678L12.5771 17.3562C12.5874 17.3537 12.5976 17.3498 12.6079 17.346L12.9552 17.2229L12.9949 17.2075L13.9677 16.86L15.3083 16.3817L15.3519 16.365L15.9568 16.1496L16.3157 16.0213L16.3951 15.9931L17.373 15.6431L22.8008 13.7042C23.5287 13.4439 24.0004 12.7745 24.0004 12C24.0004 11.2254 23.5287 10.5561 22.8008 10.2945Z" fill="white"/>
</svg>
