<svg width="175" height="30" viewBox="0 0 175 30" fill="none" xmlns="http://www.w3.org/2000/svg">
<g clip-path="url(#clip0_12_1020)">
<path d="M154.329 0.00756836L145.221 22.2006H149.487L151.37 17.4684H161.894L163.759 22.2006H168.095L159.047 0.00756836H154.327H154.329ZM152.761 13.9638L156.652 4.17986L160.509 13.9638H152.761Z" fill="white"/>
<path d="M174.6 0.00756836H170.579V22.2006H174.6V0.00756836Z" fill="white"/>
<path d="M34.5267 5.3979C33.1321 4.5884 31.5678 4.18555 29.8318 4.18555C28.0957 4.18555 26.5672 4.59597 25.1746 5.41681C23.7801 6.23765 22.6724 7.33463 21.8534 8.70774C21.0345 10.0809 20.625 11.6242 20.625 13.3396C20.625 15.0551 21.0326 16.6117 21.8534 18.0075C22.6724 19.4052 23.7801 20.5154 25.1746 21.3343C26.5691 22.1552 28.1221 22.5656 29.8318 22.5656C31.5414 22.5656 33.1321 22.1571 34.5267 21.3343C35.9212 20.5135 37.0269 19.4033 37.8478 18.0075C38.6668 16.6098 39.0762 15.0532 39.0762 13.3396C39.0762 11.6261 38.6668 10.0752 37.8478 8.68883C37.0288 7.30437 35.9212 6.20739 34.5267 5.3979ZM34.287 16.0972C33.8586 16.9067 33.2605 17.5384 32.4887 17.9904C31.7169 18.4425 30.8319 18.6694 29.828 18.6694C28.8241 18.6694 27.9749 18.4425 27.205 17.9904C26.4332 17.5384 25.8351 16.9067 25.4067 16.0972C24.9783 15.2877 24.7632 14.3685 24.7632 13.3396C24.7632 12.3107 24.9765 11.4048 25.4067 10.6199C25.8351 9.83687 26.4332 9.21651 27.205 8.76259C27.9768 8.31056 28.8486 8.0836 29.828 8.0836C30.8073 8.0836 31.7112 8.31056 32.4679 8.76259C33.2265 9.2184 33.8247 9.83498 34.2662 10.6199C34.7078 11.4048 34.9267 12.3107 34.9267 13.3396C34.9267 14.3685 34.7116 15.2877 34.2832 16.0972H34.2851H34.287Z" fill="white"/>
<path d="M66.1015 4.99498C65.0749 4.45595 63.9257 4.18548 62.6539 4.18548C61.382 4.18548 60.263 4.46162 59.2252 5.012C58.2496 5.53023 57.4438 6.23759 56.8041 7.1303C56.2267 6.22057 55.4643 5.50753 54.5114 4.99309C53.5075 4.45406 52.3828 4.18359 51.1374 4.18359C49.892 4.18359 48.7654 4.45973 47.7634 5.01011C47.1124 5.36757 46.552 5.81771 46.0764 6.35485V4.55051H42.042V22.1967H46.0764V11.6828C46.0764 10.8997 46.2482 10.2302 46.5897 9.67794C46.9331 9.12756 47.3917 8.702 47.9634 8.40885C48.5371 8.11569 49.1919 7.96627 49.9259 7.96627C51.0015 7.96627 51.9054 8.28969 52.6395 8.9422C53.3735 9.59283 53.7396 10.5045 53.7396 11.6809V22.1948H57.7741V11.6809C57.7741 10.8979 57.9458 10.2283 58.2873 9.67604C58.6308 9.12566 59.095 8.70011 59.6818 8.40696C60.2687 8.1138 60.9178 7.96438 61.6255 7.96438C62.7011 7.96438 63.6049 8.2878 64.339 8.94031C65.073 9.59093 65.4391 10.5026 65.4391 11.679V22.1929H69.4736V10.7976C69.4736 9.4245 69.1679 8.24808 68.5565 7.26648C67.9432 6.28676 67.1261 5.52834 66.0977 4.98741V4.99309L66.1015 4.99498Z" fill="white"/>
<path d="M86.801 5.41681C85.5178 4.59597 84.0799 4.18555 82.491 4.18555C81.1701 4.18555 79.9851 4.47492 78.9321 5.04989C78.2169 5.4414 77.6093 5.93315 77.0979 6.52135V4.55436H73.0635V29.5541H77.0979V20.2676C77.598 20.8426 78.1943 21.3211 78.8962 21.7069C79.9473 22.2819 81.1456 22.5713 82.4891 22.5713C84.078 22.5713 85.5159 22.1665 86.7991 21.3589C88.0822 20.5494 89.0956 19.4543 89.8428 18.068C90.5882 16.6835 90.9618 15.1345 90.9618 13.4172C90.9618 11.6998 90.5882 10.1149 89.8428 8.72855C89.0956 7.34408 88.0822 6.24143 86.7991 5.42059H86.801V5.41681ZM86.1782 16.171C85.7499 16.9805 85.1649 17.6122 84.4177 18.0642C83.6704 18.52 82.808 18.7451 81.8306 18.7451C80.8531 18.7451 79.9851 18.5181 79.2265 18.0642C78.4679 17.6122 77.881 16.9805 77.4659 16.171C77.0489 15.3615 76.8432 14.4328 76.8432 13.3756C76.8432 12.3183 77.0507 11.3916 77.4659 10.5802C77.881 9.77067 78.4698 9.14086 79.2265 8.68694C79.9851 8.23491 80.8531 8.00605 81.8306 8.00605C82.808 8.00605 83.6704 8.23301 84.4177 8.68694C85.163 9.13897 85.7518 9.77067 86.1782 10.5802C86.6066 11.3897 86.8217 12.3221 86.8217 13.3756C86.8217 14.429 86.6066 15.3596 86.1782 16.171Z" fill="white"/>
<path d="M107.105 6.51946C106.598 5.93125 105.994 5.43951 105.29 5.04989C104.25 4.47492 103.057 4.18555 101.714 4.18555C100.125 4.18555 98.689 4.59597 97.404 5.41681C96.1208 6.23765 95.1037 7.3403 94.3602 8.72476C93.613 10.1092 93.2412 11.6715 93.2412 13.4134C93.2412 15.1553 93.613 16.6797 94.3602 18.0642C95.1056 19.4487 96.1208 20.5456 97.404 21.3551C98.6871 22.1646 100.125 22.5675 101.714 22.5675C103.057 22.5675 104.258 22.2781 105.307 21.7031C106.007 21.3192 106.603 20.8388 107.105 20.2638V22.1987H111.14V4.55436H107.105V6.51946ZM105.986 17.2377C105.069 18.2439 103.865 18.7451 102.372 18.7451C101.393 18.7451 100.533 18.5181 99.7854 18.0642C99.0381 17.6122 98.4513 16.9805 98.0248 16.171C97.5964 15.3615 97.3813 14.4328 97.3813 13.3756C97.3813 12.3183 97.5946 11.3916 98.0248 10.5802C98.4531 9.77067 99.0381 9.14086 99.7854 8.68694C100.531 8.23491 101.393 8.00605 102.372 8.00605C103.352 8.00605 104.248 8.23301 104.995 8.68694C105.741 9.13897 106.322 9.77067 106.737 10.5802C107.152 11.3897 107.36 12.3221 107.36 13.3756C107.36 14.9454 106.901 16.2315 105.986 17.2358V17.2377Z" fill="white"/>
<path d="M119.016 8.22929C119.458 7.98531 120.081 7.86237 120.888 7.86237C121.743 7.86237 122.502 8.02125 123.162 8.34088C123.823 8.66052 124.409 9.13714 124.923 9.77452L127.489 7.2023C126.755 6.1961 125.844 5.44335 124.757 4.94025C123.668 4.43716 122.415 4.1875 120.998 4.1875C119.654 4.1875 118.496 4.4069 117.531 4.84947C116.565 5.29204 115.82 5.91619 115.295 6.72568C114.771 7.53517 114.506 8.50354 114.506 9.62888C114.506 10.6824 114.725 11.5391 115.167 12.2011C115.608 12.8631 116.176 13.3832 116.873 13.7634C117.569 14.1435 118.303 14.4442 119.073 14.6636C119.845 14.883 120.577 15.0986 121.275 15.3086C121.971 15.5166 122.541 15.7682 122.979 16.0613C123.421 16.3545 123.64 16.7725 123.64 17.3115C123.64 17.8505 123.407 18.2194 122.943 18.4898C122.479 18.7603 121.794 18.8946 120.888 18.8946C119.884 18.8946 118.986 18.7168 118.192 18.3612C117.397 18.0056 116.693 17.4723 116.084 16.7611L113.518 19.3334C114.08 20.018 114.74 20.6024 115.497 21.0791C116.256 21.5576 117.086 21.9264 117.992 22.1817C118.897 22.4389 119.837 22.5675 120.817 22.5675C122.872 22.5675 124.498 22.0644 125.696 21.0601C126.895 20.054 127.495 18.6941 127.495 16.9786C127.495 15.9006 127.276 15.0249 126.834 14.3497C126.393 13.6745 125.825 13.1373 125.13 12.7326C124.434 12.3278 123.7 12.0101 122.928 11.7774C122.156 11.5448 121.424 11.3311 120.728 11.1325C120.032 10.9358 119.462 10.7032 119.022 10.4346C118.58 10.1641 118.362 9.78587 118.362 9.29412C118.362 8.82885 118.58 8.47328 119.022 8.2274H119.016V8.22929Z" fill="white"/>
<path d="M134.796 8.22929C135.237 7.98531 135.86 7.86237 136.668 7.86237C137.522 7.86237 138.281 8.02125 138.941 8.34088C139.602 8.66052 140.189 9.13714 140.702 9.77452L143.268 7.2023C142.534 6.1961 141.623 5.44335 140.536 4.94025C139.447 4.43716 138.194 4.1875 136.777 4.1875C135.434 4.1875 134.275 4.4069 133.311 4.84947C132.344 5.29204 131.599 5.91619 131.075 6.72568C130.55 7.53517 130.286 8.50354 130.286 9.62888C130.286 10.6824 130.505 11.5391 130.946 12.2011C131.388 12.8631 131.956 13.3832 132.652 13.7634C133.348 14.1435 134.082 14.4442 134.852 14.6636C135.624 14.883 136.356 15.0986 137.054 15.3086C137.751 15.5166 138.321 15.7682 138.76 16.0613C139.202 16.3545 139.421 16.7725 139.421 17.3115C139.421 17.8505 139.189 18.2194 138.724 18.4898C138.26 18.7603 137.575 18.8946 136.67 18.8946C135.666 18.8946 134.767 18.7168 133.973 18.3612C133.179 18.0056 132.475 17.4723 131.865 16.7611L129.299 19.3334C129.861 20.018 130.522 20.6024 131.278 21.0791C132.037 21.5576 132.867 21.9264 133.773 22.1817C134.679 22.4389 135.618 22.5675 136.598 22.5675C138.653 22.5675 140.279 22.0644 141.478 21.0601C142.676 20.054 143.276 18.6941 143.276 16.9786C143.276 15.9006 143.057 15.0249 142.616 14.3497C142.174 13.6745 141.606 13.1373 140.912 12.7326C140.215 12.3278 139.481 12.0101 138.709 11.7774C137.938 11.5448 137.205 11.3311 136.509 11.1325C135.813 10.9358 135.243 10.7032 134.803 10.4346C134.362 10.1641 134.143 9.78587 134.143 9.29412C134.143 8.82885 134.362 8.47328 134.803 8.2274H134.794L134.796 8.22929Z" fill="white"/>
<path d="M18.8264 5.65132L6.65141 20.8312C5.62676 22.0719 3.98882 22.5126 2.48299 21.9603C1.60741 21.6426 0.886569 21.0204 0.458217 20.2146L0.450669 20.2052H0.448781C0.428024 20.1617 0.411041 20.122 0.392171 20.0898C0.0128806 19.3825 0.0147676 18.4027 0.0147676 18.4027C0.00910658 17.7162 -0.0154246 10.6161 0.0147676 0C1.53948 0.00189134 3.06419 0.00378268 4.5889 0.00756536V16.188L4.82477 15.9062C5.5626 15.0172 13.3673 5.48678 14.1051 4.59785L19.7209 4.53732L18.8283 5.65132H18.8264Z" fill="white"/>
<path d="M20.54 22.1986H14.1373L11.186 19.1989L10.8369 18.8453L13.7108 15.2593L14.1901 15.7454L16.3734 17.9639C17.7623 19.3729 19.1511 20.7858 20.54 22.1986Z" fill="white"/>
</g>
<defs>
<clipPath id="clip0_12_1020">
<rect width="174.6" height="30" fill="white"/>
</clipPath>
</defs>
</svg>
