<svg width="64" height="64" viewBox="0 0 64 64" fill="none" xmlns="http://www.w3.org/2000/svg">
<path d="M53.6082 29.8867H41.0571C40.2909 29.8867 39.666 30.5116 39.666 31.2778V54.9965H53.6082C54.3744 54.9965 54.9993 54.3716 54.9993 53.6053V31.2778C54.9993 30.5116 54.3744 29.8867 53.6082 29.8867Z" fill="#0A2E31"/>
<path d="M25.7251 35.2832H38.1835V54.9975H24.334V36.6743C24.334 35.9081 24.959 35.2832 25.7251 35.2832Z" fill="#0A2E31"/>
<path d="M22.8495 40.3262H10.3911C9.62489 40.3262 9 40.9512 9 41.7173V53.6052C9 54.3714 9.62489 54.9963 10.3911 54.9963H22.8495V40.3262Z" fill="#E7436A"/>
<path d="M19.2759 23.2387C19.2759 21.3454 18.1081 20.5243 16.6675 20.5243C15.227 20.5243 14.0592 21.3454 14.0592 23.2387C14.0592 25.132 15.227 26.6669 16.6675 26.6669C18.1081 26.6669 19.2759 25.132 19.2759 23.2387Z" fill="#0A2E31"/>
<path d="M12.7917 35.2827H11.7015C11.2442 35.2827 10.8712 34.9098 10.8711 34.4524V30.0173C10.8711 28.7266 12.0231 28.0059 13.3272 27.6707C15.5878 27.0894 17.8129 27.1262 20.0077 27.6707C21.3149 27.9949 22.4638 28.7274 22.4638 30.0173V34.4524C22.4638 34.9097 22.0908 35.2827 21.6335 35.2827H20.5432V31.261C20.5432 30.867 20.2238 30.5476 19.8299 30.5476C19.4359 30.5476 19.1165 30.867 19.1165 31.261V35.2827H14.2184V31.261C14.2184 30.867 13.899 30.5476 13.5051 30.5476C13.1111 30.5476 12.7917 30.867 12.7917 31.261V35.2827Z" fill="#0A2E31"/>
<path d="M34.6092 17.8433C34.6092 15.9499 33.4414 15.1289 32.0008 15.1289C30.5603 15.1289 29.3925 15.9499 29.3925 17.8433C29.3925 19.7366 30.5603 21.2715 32.0008 21.2715C33.4414 21.2715 34.6092 19.7366 34.6092 17.8433Z" fill="#0A2E31"/>
<path d="M28.125 29.8873H27.0348C26.5775 29.8873 26.2045 29.5143 26.2044 29.057V24.6219C26.2044 23.3313 27.3564 22.6105 28.6604 22.2752C30.9209 21.694 33.1461 21.7307 35.341 22.2752C36.6482 22.5994 37.7971 23.332 37.7971 24.6219V29.057C37.7971 29.5143 37.4241 29.8873 36.9668 29.8873H35.8766V25.9127C35.8766 25.5188 35.5572 25.1994 35.1632 25.1994C34.7693 25.1994 34.4499 25.5188 34.4499 25.9127V29.8873H29.5517V25.9127C29.5517 25.5188 29.2323 25.1994 28.8383 25.1994C28.4444 25.1994 28.125 25.5188 28.125 25.9127V29.8873Z" fill="#0A2E31"/>
<path d="M39.4412 16.7994H44.7022V9.03266L37.7757 9.00196C37.5847 9.00112 37.421 9.10907 37.3466 9.28501C37.2721 9.46103 37.3087 9.65356 37.4423 9.79008L40.2384 12.6455L39.0033 16.1829C38.9523 16.3292 38.9733 16.4778 39.0631 16.6042C39.1528 16.7306 39.2862 16.7994 39.4412 16.7994Z" fill="#E7436A"/>
<path d="M48.0169 9.04425H46.1861V28.4034H48.4806V9.50796C48.4806 9.25255 48.2723 9.04425 48.0169 9.04425Z" fill="#E7436A"/>
<path d="M5.81641 5.54582C5.81641 2.74826 8.10976 0.454901 10.9073 0.454901C13.7049 0.4549 15.9982 2.74826 15.9982 5.54582C15.9982 8.34337 13.7049 10.6367 10.9073 10.6367C8.10976 10.6367 5.81641 8.34338 5.81641 5.54582Z" fill="#0A2E31"/>
<path d="M24.7266 3.36187C24.7266 2.56267 25.3819 1.90731 26.1811 1.90731C26.9803 1.90731 27.6357 2.56267 27.6357 3.36187C27.6357 4.16107 26.9803 4.81641 26.1811 4.81641C25.3819 4.81641 24.7266 4.16107 24.7266 3.36187Z" fill="#0A2E31"/>
<path d="M44.4545 58C45.2537 58 45.9091 58.6553 45.9091 59.4545C45.9091 60.2537 45.2537 60.9091 44.4545 60.9091C43.6553 60.9091 43 60.2537 43 59.4545C43 58.6553 43.6553 58 44.4545 58Z" fill="#0A2E31"/>
<path d="M-1.0487e-07 22.7805C-1.6249e-07 21.4623 1.08093 20.3814 2.39913 20.3814C3.71733 20.3814 4.79826 21.4623 4.79826 22.7805C4.79826 24.0988 3.71733 25.1797 2.39913 25.1797C1.08093 25.1797 -4.72493e-08 24.0988 -1.0487e-07 22.7805Z" fill="#0A2E31"/>
<path d="M60.1818 57C61.3806 57 62.3636 57.983 62.3636 59.1818C62.3636 60.3806 61.3806 61.3636 60.1818 61.3636C58.983 61.3636 58 60.3806 58 59.1818C58 57.983 58.983 57 60.1818 57Z" fill="#0A2E31"/>
</svg>
