<svg width="21" height="20" viewBox="0 0 21 20" fill="none" xmlns="http://www.w3.org/2000/svg">
<path d="M9.61555 0.67634C9.99076 -0.0348065 11.0092 -0.0348074 11.3844 0.676339L13.9383 5.51685C14.083 5.79109 14.3468 5.9827 14.6523 6.03557L20.0451 6.96865C20.8374 7.10574 21.1521 8.07437 20.5917 8.65097L16.7773 12.5757C16.5612 12.798 16.4604 13.108 16.5046 13.415L17.2836 18.8322C17.3981 19.628 16.5741 20.2267 15.8526 19.8719L10.9412 17.457C10.663 17.3201 10.337 17.3201 10.0588 17.457L5.14744 19.8719C4.42589 20.2267 3.60192 19.628 3.71637 18.8322L4.49542 13.415C4.53955 13.108 4.43882 12.798 4.22271 12.5757L0.408307 8.65097C-0.152089 8.07438 0.162639 7.10574 0.954925 6.96865L6.34771 6.03557C6.65325 5.9827 6.91698 5.79109 7.06167 5.51685L9.61555 0.67634Z" fill="#E7436A"/>
</svg>
