<svg width="30" height="28" viewBox="0 0 30 28" fill="none" xmlns="http://www.w3.org/2000/svg">
<path fill-rule="evenodd" clip-rule="evenodd" d="M2.0039 9.36841C2.73762 6.69482 3.10775 3.89565 3.44684 1.18028C3.51792 0.595434 3.12124 0.052442 2.56237 0.0106671C2.00308 -0.0728828 1.4916 0.345111 1.42052 0.888185C1.0941 3.52001 0.744805 6.23513 0.0384508 8.7834C-0.114749 9.32647 0.200635 9.91157 0.743167 10.0787C1.28529 10.2458 1.85029 9.91149 2.0039 9.36841Z" fill="#090C05"/>
<path fill-rule="evenodd" clip-rule="evenodd" d="M12.4071 17.4736C16.7012 13.1708 20.4426 8.32488 24.8519 4.10561C25.2637 3.72964 25.2857 3.06124 24.9013 2.64349C24.5165 2.22574 23.8694 2.18413 23.4576 2.60188C19.0356 6.82114 15.282 11.667 10.9752 15.9699C10.5732 16.3876 10.5675 17.0558 10.963 17.4736C11.358 17.8496 12.0051 17.8913 12.4071 17.4736Z" fill="#090C05"/>
<path fill-rule="evenodd" clip-rule="evenodd" d="M28.9232 25.5361C26.4655 25.6614 24.0077 25.7865 21.5496 25.9118C20.9866 25.9118 20.552 26.4134 20.5793 26.9982C20.6071 27.5831 21.0863 28.0006 21.6497 28.0006C24.1115 27.8752 26.5729 27.7502 29.0343 27.6248C29.5973 27.5831 30.0291 27.0817 29.9985 26.4968C29.9678 25.9538 29.4858 25.4943 28.9232 25.5361Z" fill="#090C05"/>
</svg>
