<svg width="85" height="79" viewBox="0 0 85 79" fill="none" xmlns="http://www.w3.org/2000/svg">
<g filter="url(#filter0_d_1788_3215)">
<path d="M5.79015 18.961C6.40655 10.146 14.0522 3.4997 22.8673 4.1161L52.7043 6.20251C61.5194 6.81892 68.1657 14.4646 67.5493 23.2796L65.8751 47.2212C65.2587 56.0362 57.613 62.6825 48.798 62.0661L18.9609 59.9797C10.1459 59.3633 3.49958 51.7176 4.11599 42.9026L5.79015 18.961Z" fill="#E7436A" shape-rendering="crispEdges"/>
<g clip-path="url(#clip0_1788_3215)">
<path d="M31.2104 17.8465C25.3516 21.001 20.761 26.4424 18.6317 32.739C17.7714 35.2744 17.3059 38.0237 17.8421 40.6567C18.3915 43.2783 20.0679 45.7675 22.5559 46.7736C25.2373 47.8552 28.5795 46.9464 30.3422 44.648C32.0927 42.3487 32.099 38.8842 30.3478 36.576C29.4837 35.4352 28.2512 34.5914 27.44 33.4046C26.0096 31.3051 26.1227 28.4442 27.0936 26.1029C28.0655 23.7491 29.7785 21.8074 31.1849 17.8571L31.2104 17.8465Z" fill="#E7436A"/>
<path d="M31.2104 17.8465C25.3516 21.001 20.761 26.4424 18.6317 32.739C17.7714 35.2744 17.3059 38.0237 17.8421 40.6567C18.3915 43.2783 20.0679 45.7675 22.5559 46.7736C25.2373 47.8552 28.5795 46.9464 30.3422 44.648C32.0927 42.3487 32.099 38.8842 30.3478 36.576C29.4838 35.4352 28.2512 34.5914 27.44 33.4046C26.0096 31.3051 26.1227 28.4442 27.0936 26.1029C28.0655 23.7491 29.7785 21.8074 31.1849 17.8571L31.2104 17.8465Z" stroke="white" stroke-width="2" stroke-linecap="round" stroke-linejoin="round"/>
<path d="M51.6353 19.8709C45.7825 22.9389 41.4086 28.6562 39.9636 35.1124C39.3648 37.8151 39.2738 40.7148 40.3236 43.2844C41.3743 45.8417 43.7466 47.9697 46.514 48.1757C48.5903 48.3209 50.7205 47.3397 51.9449 45.637C53.1684 43.9466 53.4314 41.6054 52.6218 39.686C51.844 37.8433 50.2258 36.4758 49.2946 34.6968C48.1128 32.4161 48.2067 29.6532 48.9736 27.2106C49.7405 24.768 51.1363 22.5681 51.6345 19.8832L51.6353 19.8709Z" fill="#E7436A"/>
<path d="M51.6353 19.8709C45.7825 22.9389 41.4086 28.6562 39.9636 35.1124C39.3648 37.8151 39.2738 40.7148 40.3236 43.2844C41.3743 45.8417 43.7466 47.9697 46.514 48.1757C48.5903 48.3209 50.7205 47.3397 51.9449 45.637C53.1684 43.9466 53.4314 41.6054 52.6218 39.686C51.844 37.8433 50.2258 36.4758 49.2946 34.6968C48.1128 32.4161 48.2067 29.6532 48.9736 27.2106C49.7405 24.768 51.1363 22.5681 51.6345 19.8832L51.6353 19.8709Z" stroke="white" stroke-width="2" stroke-linecap="round" stroke-linejoin="round"/>
</g>
</g>
<defs>
<filter id="filter0_d_1788_3215" x="-1" y="-1" width="86.205" height="80.7222" filterUnits="userSpaceOnUse" color-interpolation-filters="sRGB">
<feFlood flood-opacity="0" result="BackgroundImageFix"/>
<feColorMatrix in="SourceAlpha" type="matrix" values="0 0 0 0 0 0 0 0 0 0 0 0 0 0 0 0 0 0 127 0" result="hardAlpha"/>
<feOffset dx="6.27" dy="6.27"/>
<feGaussianBlur stdDeviation="5.135"/>
<feComposite in2="hardAlpha" operator="out"/>
<feColorMatrix type="matrix" values="0 0 0 0 0.0117647 0 0 0 0 0.133333 0 0 0 0 0.145098 0 0 0 0.24 0"/>
<feBlend mode="normal" in2="BackgroundImageFix" result="effect1_dropShadow_1788_3215"/>
<feBlend mode="normal" in="SourceGraphic" in2="effect1_dropShadow_1788_3215" result="shape"/>
</filter>
<clipPath id="clip0_1788_3215">
<rect width="37.9099" height="32" fill="white" transform="translate(18.04 15.8078) rotate(4)"/>
</clipPath>
</defs>
</svg>
