<svg width="28" height="30" viewBox="0 0 28 30" fill="none" xmlns="http://www.w3.org/2000/svg">
<path fill-rule="evenodd" clip-rule="evenodd" d="M18.6316 2.0039C21.3052 2.73762 24.1043 3.10775 26.8197 3.44684C27.4046 3.51792 27.9476 3.12124 27.9893 2.56237C28.0729 2.00308 27.6549 1.4916 27.1118 1.42052C24.48 1.0941 21.7649 0.744804 19.2166 0.03845C18.6735 -0.11475 18.0884 0.200634 17.9213 0.743166C17.7542 1.28529 18.0885 1.85029 18.6316 2.0039Z" fill="#090C05"/>
<path fill-rule="evenodd" clip-rule="evenodd" d="M10.5264 12.4071C14.8292 16.7012 19.6751 20.4426 23.8944 24.8519C24.2704 25.2637 24.9388 25.2857 25.3565 24.9013C25.7743 24.5165 25.8159 23.8694 25.3981 23.4576C21.1789 19.0356 16.333 15.282 12.0302 10.9752C11.6124 10.5732 10.9442 10.5675 10.5264 10.963C10.1504 11.358 10.1087 12.0051 10.5264 12.4071Z" fill="#090C05"/>
<path fill-rule="evenodd" clip-rule="evenodd" d="M2.46391 28.9232C2.33859 26.4655 2.21351 24.0077 2.08818 21.5496C2.08818 20.9866 1.58664 20.552 1.00179 20.5793C0.41694 20.6071 -0.000564511 21.0863 -0.00056456 21.6497C0.12476 24.1115 0.24984 26.5729 0.375164 29.0343C0.416939 29.5973 0.91832 30.0291 1.50317 29.9985C2.04624 29.9678 2.50569 29.4858 2.46391 28.9232Z" fill="#090C05"/>
</svg>
