<svg width="42" height="42" viewBox="0 0 42 42" fill="none" xmlns="http://www.w3.org/2000/svg">
<path d="M0 8C0 3.58172 3.58172 0 8 0H34C38.4183 0 42 3.58172 42 8V34C42 38.4183 38.4183 42 34 42H8C3.58172 42 0 38.4183 0 34V8Z" fill="#0A2E31"/>
<g clip-path="url(#clip0_2047_7649)">
<path d="M22.5222 19.7714L28.4785 13H27.0671L21.8952 18.8795L17.7644 13H13L19.2466 21.8909L13 28.9918H14.4115L19.8732 22.7828L24.2356 28.9918H29L22.5218 19.7714H22.5222ZM20.5889 21.9692L19.956 21.0839L14.9201 14.0392H17.0882L21.1522 19.7245L21.7851 20.6098L27.0677 27.9998H24.8997L20.5889 21.9696V21.9692Z" fill="white"/>
</g>
<defs>
<clipPath id="clip0_2047_7649">
<rect width="16" height="16" fill="white" transform="translate(13 13)"/>
</clipPath>
</defs>
</svg>
