<svg width="25" height="24" viewBox="0 0 25 24" fill="none" xmlns="http://www.w3.org/2000/svg">
<g id="american-express-1 1" clip-path="url(#clip0_209_9351)">
<g id="Group">
<path id="Vector" fill-rule="evenodd" clip-rule="evenodd" d="M-0.604953 23.8626H-0.684987C-0.684987 23.8227 -0.705031 23.7625 -0.705031 23.7423C-0.705031 23.7224 -0.705031 23.6825 -0.765165 23.6825H-0.885434V23.8626H-0.945568V23.442H-0.765165C-0.684987 23.442 -0.624998 23.4621 -0.624998 23.542C-0.624998 23.6022 -0.645042 23.6224 -0.664942 23.6421C-0.644897 23.6623 -0.624998 23.6823 -0.624998 23.7224V23.8025C-0.624998 23.8227 -0.624998 23.8227 -0.604953 23.8227V23.8626ZM-0.684987 23.5622C-0.684987 23.5021 -0.725076 23.5021 -0.745121 23.5021H-0.885434V23.6224H-0.765165C-0.725076 23.6224 -0.684987 23.6022 -0.684987 23.5622ZM-0.344371 23.6423C-0.344371 23.402 -0.544673 23.2014 -0.805255 23.2014C-1.04565 23.2014 -1.24609 23.402 -1.24609 23.6423C-1.24609 23.9027 -1.04565 24.1033 -0.805255 24.1033C-0.544819 24.1031 -0.344371 23.9027 -0.344371 23.6423ZM-0.404505 23.6423C-0.404505 23.8628 -0.584763 24.023 -0.805255 24.023C-1.02575 24.023 -1.18596 23.8626 -1.18596 23.6423C-1.18596 23.442 -1.0256 23.2616 -0.805255 23.2616C-0.584908 23.2616 -0.404505 23.442 -0.404505 23.6423ZM24.2816 15.5472C24.2816 16.1484 23.9009 16.4286 23.2195 16.4286H21.9173V15.8274H23.2195C23.3398 15.8274 23.44 15.8075 23.4802 15.7676C23.5202 15.7274 23.5603 15.6672 23.5603 15.5872C23.5603 15.5069 23.5203 15.4268 23.4802 15.3869C23.44 15.3466 23.36 15.3267 23.2397 15.3267C22.6188 15.3066 21.8372 15.3466 21.8372 14.4651C21.8372 14.0642 22.0976 13.6234 22.7989 13.6234H24.1413V14.2246H22.8989C22.779 14.2246 22.6986 14.2246 22.6385 14.2645C22.5784 14.3247 22.5384 14.3848 22.5384 14.485C22.5384 14.5852 22.5986 14.6454 22.6786 14.6856C22.7589 14.7055 22.8391 14.7255 22.9393 14.7255H23.2998C23.6805 14.7255 23.9211 14.8056 24.0814 14.946C24.2014 15.0862 24.2816 15.2668 24.2816 15.5472ZM21.4563 14.946C21.2959 14.8056 21.0554 14.7255 20.6747 14.7255H20.3142C20.2141 14.7255 20.1338 14.7054 20.0538 14.6856C19.9734 14.6454 19.9136 14.5852 19.9136 14.485C19.9136 14.3848 19.9335 14.3247 20.0137 14.2645C20.0738 14.2246 20.1538 14.2246 20.2741 14.2246H21.5164V13.6234H20.174C19.4526 13.6234 19.212 14.0642 19.212 14.4651C19.212 15.3465 19.9936 15.3066 20.6149 15.3267C20.7348 15.3267 20.8152 15.3466 20.8551 15.3869C20.8951 15.4268 20.9354 15.5069 20.9354 15.5872C20.9354 15.6672 20.8952 15.7274 20.8551 15.7676C20.795 15.8075 20.7149 15.8274 20.5947 15.8274H19.2922V16.4286H20.5947C21.2758 16.4286 21.6566 16.1483 21.6566 15.5472C21.6566 15.2668 21.5766 15.0862 21.4563 14.946ZM18.8915 15.8478H17.3088V15.2867H18.8515V14.7258H17.3088V14.2047H18.8915V13.6237H16.6475V16.4288H18.8915V15.8478ZM15.926 13.764C15.7055 13.6437 15.4451 13.6235 15.1045 13.6235H13.5617V16.4286H14.2428V15.4068H14.9643C15.2045 15.4068 15.345 15.427 15.4452 15.527C15.5655 15.6672 15.5655 15.9078 15.5655 16.0882V16.4286H16.2265V15.8876C16.2265 15.6271 16.2066 15.5069 16.1264 15.3667C16.0663 15.2864 15.9463 15.1863 15.786 15.1262C15.9661 15.0663 16.2669 14.8258 16.2669 14.3848C16.2668 14.0644 16.1465 13.884 15.926 13.764ZM12.1189 13.6235H9.97489L9.11326 14.5453L8.29171 13.6235H5.58669V16.4286H8.25177L9.1134 15.5069L9.93494 16.4286H11.2374V15.4871H12.079C12.66 15.4871 13.2413 15.3267 13.2413 14.5453C13.2412 13.7839 12.64 13.6235 12.1189 13.6235ZM15.3849 14.7858C15.2849 14.8258 15.1846 14.8258 15.0644 14.8258L14.2428 14.846V14.2045H15.0644C15.1846 14.2045 15.3049 14.2045 15.3849 14.2647C15.4653 14.3049 15.5251 14.3849 15.5251 14.5052C15.5251 14.6255 15.4653 14.7257 15.3849 14.7858ZM12.1189 14.926H11.2373V14.2045H12.1189C12.3595 14.2045 12.5197 14.3049 12.5197 14.5453C12.5197 14.7858 12.3593 14.926 12.1189 14.926ZM9.53405 15.0261L10.5759 13.9242V16.1884L9.53405 15.0261ZM7.91101 15.8478H6.24788V15.2867H7.73061V14.7258H6.24788V14.2047H7.93105L8.67242 15.0262L7.91101 15.8478ZM22.418 11.5997H21.4563L20.1939 9.49576V11.5997H18.8316L18.5709 10.9785H17.1683L16.9079 11.5997H16.1263C15.8057 11.5997 15.3849 11.5196 15.1447 11.279C14.9242 11.0386 14.8039 10.7181 14.8039 10.2171C14.8039 9.79629 14.8641 9.41558 15.1644 9.11506C15.3647 8.89457 15.7255 8.79449 16.1863 8.79449H16.8274V9.39569H16.1863C15.946 9.39569 15.8056 9.43577 15.6654 9.55604C15.5451 9.67631 15.485 9.89666 15.485 10.1972C15.485 10.4977 15.5451 10.7182 15.6654 10.8585C15.7655 10.9586 15.946 10.9987 16.1262 10.9987H16.4268L17.3885 8.79463H18.3905L19.5125 11.4395V8.79449H20.5546L21.7368 10.7381V8.79449H22.4179V11.5997H22.418ZM14.4633 8.79449H13.7822V11.5997H14.4633V8.79449ZM13.0406 8.91476C12.8201 8.79449 12.5798 8.79449 12.2392 8.79449H10.6962V11.5997H11.3574V10.5777H12.0787C12.3193 10.5777 12.4796 10.5978 12.5797 10.698C12.7 10.8383 12.6798 11.0789 12.6798 11.2391V11.5997H13.3609V11.0386C13.3609 10.7982 13.341 10.678 13.2409 10.5377C13.1807 10.4575 13.0605 10.3573 12.9203 10.2973C13.1004 10.2171 13.4012 9.99674 13.4012 9.5559C13.4014 9.23533 13.2609 9.05492 13.0406 8.91476ZM10.2153 11.0187H8.65237V10.4576H10.1952V9.87661H8.65237V9.37564H10.2153V8.79463H7.97114V11.5999H10.2153V11.0187ZM7.47017 8.79449H6.36814L5.5466 10.698L4.66492 8.79449H3.58294V11.4394L2.44083 8.79449H1.43903L0.236781 11.5997H0.958101L1.21854 10.9785H2.62109L2.88152 11.5997H4.24413V9.39569L5.22588 11.5997H5.80689L6.78879 9.39569V11.5997H7.47002L7.47017 8.79449ZM18.3306 10.3774L17.8696 9.27542L17.4089 10.3774H18.3306ZM12.5197 9.93675C12.4196 9.99688 12.3194 9.99688 12.1791 9.99688H11.3574V9.37578H12.1789C12.2992 9.37578 12.4392 9.37578 12.5196 9.41587C12.5996 9.47601 12.6398 9.55619 12.6398 9.67631C12.6398 9.79643 12.5997 9.89651 12.5197 9.93675ZM1.45893 10.3774L1.91981 9.27542L2.3807 10.3774H1.45893ZM24.1214 -0.00195312H0.216591V10.097L1.03813 8.23353H2.7813L3.02184 8.69441V8.23353H5.06567L5.52656 9.23533L5.96739 8.23353H12.4796C12.78 8.23353 13.0404 8.29366 13.241 8.45387V8.23353H15.0243V8.45387C15.3247 8.29352 15.7054 8.23353 16.1463 8.23353H18.7311L18.9716 8.69441V8.23353H20.8752L21.1558 8.69441V8.23353H23.0191V12.1608H21.1357L20.7752 11.5598V12.1608H18.4307L18.1703 11.5197H17.589L17.3285 12.1608H16.1064C15.6255 12.1608 15.2647 12.0406 15.0244 11.9205V12.1608H12.1189V11.2591C12.1189 11.1389 12.0989 11.1188 12.0187 11.1188H11.9186V12.1607H6.30801V11.6597L6.10771 12.1607H4.9255L4.7252 11.6798V12.1607H2.46087L2.22048 11.5196H1.63933L1.37889 12.1607H0.216591V24.0029H24.1214V16.8093C23.8609 16.9296 23.5001 16.9897 23.1395 16.9897H21.3962V16.7492C21.1959 16.9097 20.8351 16.9897 20.4946 16.9897H15.0042V16.0882C15.0042 15.9679 14.9843 15.9679 14.884 15.9679H14.7839V16.9897H12.9804V15.9278C12.6801 16.068 12.3393 16.068 12.0388 16.068H11.8383V16.9897H9.63427L9.1134 16.3885L8.53239 16.9897H4.98549V13.0626H8.59224L9.11326 13.6635L9.67436 13.0626H12.0989C12.3792 13.0626 12.8403 13.1025 13.0406 13.3028V13.0626H15.2045C15.425 13.0626 15.846 13.1025 16.1263 13.3028V13.0626H19.3924V13.303C19.5728 13.1426 19.9136 13.0627 20.214 13.0627H22.0373V13.303C22.2379 13.1628 22.5182 13.0627 22.879 13.0627H24.1214V-0.00195312Z" fill="#0077A6"/>
</g>
</g>
<defs>
<clipPath id="clip0_209_9351">
<rect width="23.9104" height="24" fill="white" transform="translate(0.212402)"/>
</clipPath>
</defs>
</svg>
