<svg width="96" height="24" viewBox="0 0 96 24" fill="none" xmlns="http://www.w3.org/2000/svg">
<g id="discover-4 1" clip-path="url(#clip0_209_9217)">
<g id="Group">
<path id="Vector" fill-rule="evenodd" clip-rule="evenodd" d="M4.82544 0.32554H0.553223V15.1951H4.76997C7.04529 15.1951 8.6539 14.6953 10.0966 13.475C11.7613 12.0883 12.8152 9.97935 12.8152 7.76004C12.8152 3.37743 9.5414 0.32554 4.82544 0.32554ZM8.21014 11.533C7.26716 12.3101 6.10123 12.6984 4.21527 12.6984H3.4387V2.87767H4.21527C6.10123 2.87767 7.21116 3.21048 8.21014 4.04252C9.20859 4.93003 9.81929 6.31784 9.81929 7.76004C9.81875 9.20278 9.20859 10.6455 8.21014 11.533ZM14.147 15.1956H17.0319V0.32554H14.147V15.1956ZM24.1336 6.04049C22.358 5.37486 21.8588 4.98658 21.8588 4.154C21.8588 3.21102 22.8018 2.54539 24.0227 2.54539C24.9102 2.54539 25.6318 2.87821 26.3529 3.71025L27.9066 1.76882C26.6303 0.658894 25.1326 0.104203 23.5234 0.104203C20.8604 0.104203 18.8629 1.93523 18.8629 4.37642C18.8629 6.42932 19.8059 7.4283 22.525 8.42675C23.6904 8.81504 24.2451 9.09239 24.5224 9.25879C25.1326 9.64762 25.4099 10.2018 25.4099 10.8125C25.4099 12.0333 24.467 12.9208 23.1352 12.9208C21.8034 12.9208 20.6385 12.1997 19.9723 10.9234L18.1418 12.7544C19.4736 14.6959 21.0823 15.5839 23.3016 15.5839C26.2974 15.5839 28.4064 13.5865 28.4064 10.7015C28.4058 8.31528 27.4074 7.26082 24.1336 6.04049ZM29.2939 7.76004C29.2939 12.1432 32.734 15.5279 37.1721 15.5279C38.393 15.5279 39.5024 15.3055 40.7787 14.6953V11.2552C39.6133 12.42 38.6149 12.9198 37.2831 12.9198C34.3981 12.9198 32.2897 10.7559 32.2897 7.7595C32.2897 4.93003 34.4536 2.65525 37.1721 2.65525C38.5594 2.65525 39.6133 3.15447 40.7787 4.31987V0.935165C39.5578 0.268995 38.5039 -0.0078125 37.2276 -0.0078125C32.8444 -0.00727396 29.2939 3.48837 29.2939 7.76004Z" fill="black"/>
<path id="Vector_2" fill-rule="evenodd" clip-rule="evenodd" d="M49.823 -0.0078125C45.4393 -0.0078125 41.8882 3.43236 41.8882 7.64857C41.8882 12.1987 45.2729 15.5274 49.823 15.5274C54.2605 15.5274 57.7567 12.1427 57.7567 7.7595C57.7572 3.43236 54.3165 -0.0078125 49.823 -0.0078125Z" fill="#DB8135"/>
<path id="Vector_3" fill-rule="evenodd" clip-rule="evenodd" d="M49.823 -0.0078125C45.4393 -0.0078125 41.8882 3.43236 41.8882 7.64857C41.8882 12.1987 45.2729 15.5274 49.823 15.5274C54.2605 15.5274 57.7567 12.1427 57.7567 7.7595C57.7572 3.43236 54.3165 -0.0078125 49.823 -0.0078125Z" fill="#DB8135"/>
<path id="Vector_4" fill-rule="evenodd" clip-rule="evenodd" d="M57.7567 7.7595C57.7567 3.43182 54.316 -0.0078125 49.823 -0.0078125C45.4393 -0.0078125 41.8882 3.43236 41.8882 7.64857C41.8882 12.1987 45.2729 15.5274 49.823 15.5274C54.2605 15.5274 57.7567 12.1427 57.7567 7.7595Z" fill="#DB8135"/>
<path id="Vector_5" fill-rule="evenodd" clip-rule="evenodd" d="M57.7567 7.7595C57.7567 3.43182 54.316 -0.0078125 49.823 -0.0078125C45.4393 -0.0078125 41.8882 3.43236 41.8882 7.64857C41.8882 12.1987 45.2729 15.5274 49.823 15.5274C54.2605 15.5274 57.7567 12.1427 57.7567 7.7595Z" fill="#DB8137"/>
<path id="Vector_6" fill-rule="evenodd" clip-rule="evenodd" d="M57.7567 7.7595C57.7567 3.43182 54.316 -0.0078125 49.823 -0.0078125C45.4393 -0.0078125 41.8882 3.43236 41.8882 7.64857C41.8882 12.1987 45.2729 15.5274 49.823 15.5274C54.2605 15.5274 57.7567 12.1427 57.7567 7.7595Z" fill="#DC8337"/>
<path id="Vector_7" fill-rule="evenodd" clip-rule="evenodd" d="M57.7567 7.7595C57.7567 3.43182 54.316 -0.0078125 49.823 -0.0078125C45.4393 -0.0078125 41.8882 3.43236 41.8882 7.64857C41.8882 12.1987 45.2729 15.5274 49.823 15.5274C54.2605 15.5274 57.7567 12.1427 57.7567 7.7595Z" fill="#DC8539"/>
<path id="Vector_8" fill-rule="evenodd" clip-rule="evenodd" d="M57.7567 7.7595C57.7567 3.43182 54.316 -0.0078125 49.823 -0.0078125C45.4393 -0.0078125 41.8882 3.43236 41.8882 7.64857C41.8882 12.1987 45.2729 15.5274 49.823 15.5274C54.2605 15.5274 57.7567 12.1427 57.7567 7.7595Z" fill="#DC853A"/>
<path id="Vector_9" fill-rule="evenodd" clip-rule="evenodd" d="M57.7567 7.7595C57.7567 3.43182 54.316 -0.0078125 49.823 -0.0078125C45.4393 -0.0078125 41.8882 3.43236 41.8882 7.64857C41.8882 12.1987 45.2729 15.5274 49.823 15.5274C54.2605 15.5274 57.7567 12.1427 57.7567 7.7595Z" fill="#DC853C"/>
<path id="Vector_10" fill-rule="evenodd" clip-rule="evenodd" d="M57.7567 7.7595C57.7567 3.43182 54.316 -0.0078125 49.823 -0.0078125C45.4393 -0.0078125 41.8882 3.43236 41.8882 7.64857C41.8882 12.1987 45.2729 15.5274 49.823 15.5274C54.2605 15.5274 57.7567 12.1427 57.7567 7.7595Z" fill="#DD873E"/>
<path id="Vector_11" fill-rule="evenodd" clip-rule="evenodd" d="M57.7567 7.7595C57.7567 3.43182 54.316 -0.0078125 49.823 -0.0078125C45.4393 -0.0078125 41.8882 3.43236 41.8882 7.64857C41.8882 12.1987 45.2729 15.5274 49.823 15.5274C54.2605 15.5274 57.7567 12.1427 57.7567 7.7595Z" fill="#DD873E"/>
<path id="Vector_12" fill-rule="evenodd" clip-rule="evenodd" d="M57.7567 7.7595C57.7567 3.43182 54.316 -0.0078125 49.823 -0.0078125C45.4393 -0.0078125 41.8882 3.43236 41.8882 7.64857C41.8882 12.1987 45.2729 15.5274 49.823 15.5274C54.2605 15.5274 57.7567 12.1427 57.7567 7.7595Z" fill="#DD883F"/>
<path id="Vector_13" fill-rule="evenodd" clip-rule="evenodd" d="M57.7567 7.7595C57.7567 3.43182 54.316 -0.0078125 49.823 -0.0078125C45.4393 -0.0078125 41.8882 3.43236 41.8882 7.64857C41.8882 12.1987 45.2729 15.5274 49.823 15.5274C54.2605 15.5274 57.7567 12.1427 57.7567 7.7595Z" fill="#DD8841"/>
<path id="Vector_14" fill-rule="evenodd" clip-rule="evenodd" d="M57.7567 7.7595C57.7567 3.43182 54.316 -0.0078125 49.823 -0.0078125C45.4393 -0.0078125 41.8882 3.43236 41.8882 7.64857C41.8882 12.1987 45.2729 15.5274 49.823 15.5274C54.2605 15.5274 57.7567 12.1427 57.7567 7.7595Z" fill="#DE8A41"/>
<path id="Vector_15" fill-rule="evenodd" clip-rule="evenodd" d="M57.7567 7.7595C57.7567 3.43182 54.316 -0.0078125 49.823 -0.0078125C45.4393 -0.0078125 41.8882 3.43236 41.8882 7.64857C41.8882 12.1987 45.2729 15.5274 49.823 15.5274C54.2605 15.5274 57.7567 12.1427 57.7567 7.7595Z" fill="#DE8A43"/>
<path id="Vector_16" fill-rule="evenodd" clip-rule="evenodd" d="M57.7567 7.7595C57.7567 3.43182 54.316 -0.0078125 49.823 -0.0078125C45.4393 -0.0078125 41.8882 3.43236 41.8882 7.64857C41.8882 12.1987 45.2729 15.5274 49.823 15.5274C54.2605 15.5274 57.7567 12.1427 57.7567 7.7595Z" fill="#DE8A44"/>
<path id="Vector_17" fill-rule="evenodd" clip-rule="evenodd" d="M57.7567 7.7595C57.7567 3.43182 54.316 -0.0078125 49.823 -0.0078125C45.4393 -0.0078125 41.8882 3.43236 41.8882 7.64857C41.8882 12.1987 45.2729 15.5274 49.823 15.5274C54.2605 15.5274 57.7567 12.1427 57.7567 7.7595Z" fill="#DE8C46"/>
<path id="Vector_18" fill-rule="evenodd" clip-rule="evenodd" d="M57.7566 7.76004C57.7566 7.69272 57.7561 7.62541 57.7539 7.55809V7.5554C57.7525 7.4893 57.75 7.42323 57.7464 7.35722V7.35183C57.7431 7.28716 57.739 7.22253 57.734 7.15796C57.734 7.15527 57.734 7.15257 57.7329 7.14988C57.7285 7.08645 57.7233 7.02307 57.7173 6.95978C57.7162 6.95601 57.7162 6.95278 57.7162 6.94901C57.7099 6.88696 57.7025 6.82502 57.6941 6.76321V6.7616C57.6866 6.70264 57.6785 6.64376 57.6699 6.58495C57.6688 6.57903 57.6678 6.57311 57.6678 6.56718C57.6581 6.50902 57.6489 6.4514 57.6381 6.39324L57.6349 6.37385L57.6182 6.2796L57.5961 6.16813L57.5848 6.11481C57.5751 6.06957 57.566 6.02434 57.5552 5.97964C57.5509 5.95864 57.5444 5.93817 57.5407 5.91717L57.5089 5.79115L57.4771 5.67267L57.4615 5.61451C57.4502 5.57305 57.4373 5.53212 57.426 5.49119L57.4071 5.4271C56.4248 2.25889 53.4709 -0.0078125 49.8234 -0.0078125C46.6127 -0.0078125 43.8494 1.83829 42.6 4.48251C42.1373 5.49416 41.895 6.59266 41.8892 7.70511C41.8951 8.6664 42.0529 9.57276 42.3399 10.4037L42.3647 10.4732L42.3755 10.5023C42.6816 11.3328 43.1249 12.1061 43.6868 12.79C45.1139 14.4928 47.2875 15.5274 49.8234 15.5274C53.4289 15.5274 56.4119 13.2935 57.4049 10.1043L57.4556 9.93304C57.6004 9.42328 57.6935 8.8997 57.7335 8.37128L57.7345 8.37021C57.7388 8.30343 57.7442 8.23611 57.7469 8.16879C57.7536 8.03282 57.7564 7.89617 57.7566 7.76004Z" fill="#DF8E47"/>
<path id="Vector_19" fill-rule="evenodd" clip-rule="evenodd" d="M57.701 7.7595C57.701 4.74154 55.9728 2.1291 53.46 0.823688C52.3786 0.291613 51.147 -0.0078125 49.8227 -0.0078125C48.1182 -0.0078125 46.5419 0.51295 45.2489 1.39507C43.2525 2.81304 41.9434 5.13252 41.9434 7.7595C41.9434 10.6493 43.5277 13.1928 45.8682 14.5639C47.0169 15.1827 48.3584 15.5274 49.8227 15.5274C51.6688 15.5274 53.3506 14.9414 54.6862 13.943C56.5172 12.4954 57.701 10.2567 57.701 7.7595Z" fill="#DF8E48"/>
<path id="Vector_20" fill-rule="evenodd" clip-rule="evenodd" d="M49.8231 7.7595H57.5899C57.5899 3.48729 54.0948 -0.0078125 49.8231 -0.0078125C49.7558 -0.0078125 49.6895 -0.00673691 49.6233 -0.00512129H49.6179C45.4399 0.104202 42.0547 3.55622 42.0547 7.7595C42.0527 9.386 42.5575 10.9727 43.4988 12.2992C44.44 13.6256 45.7711 14.626 47.307 15.1612C48.0901 15.3997 48.934 15.5279 49.8225 15.5279C50.9072 15.5279 51.9347 15.3249 52.8696 14.956C54.273 14.3484 55.4678 13.3432 56.3065 12.0644C57.1453 10.7857 57.5912 9.28932 57.5893 7.76004L49.8231 7.7595Z" fill="#DF8E4A"/>
<path id="Vector_21" fill-rule="evenodd" clip-rule="evenodd" d="M57.5347 7.75926C57.5347 3.54252 54.0939 0.046875 49.8228 0.046875C45.5501 0.046875 42.1099 3.54252 42.1099 7.75926C42.1077 8.77273 42.3057 9.77665 42.6925 10.7134C43.0794 11.6501 43.6474 12.5012 44.3641 13.2178C45.0807 13.9345 45.9319 14.5024 46.8686 14.8892C47.8054 15.276 48.8093 15.4739 49.8228 15.4716C50.8362 15.4738 51.84 15.2757 52.7766 14.8889C53.7133 14.5021 54.5643 13.9341 55.2809 13.2175C55.9974 12.5009 56.5654 11.6498 56.9521 10.7131C57.3389 9.77647 57.5369 8.77264 57.5347 7.75926Z" fill="#DF904A"/>
<path id="Vector_22" fill-rule="evenodd" clip-rule="evenodd" d="M57.4794 7.75965C57.4794 3.54291 54.0386 0.158203 49.823 0.158203C45.6057 0.158203 42.1655 3.54291 42.1655 7.75965C42.1655 11.9769 45.6057 15.4166 49.823 15.4166C54.0386 15.4166 57.4794 11.9764 57.4794 7.75965Z" fill="#E0914C"/>
<path id="Vector_23" fill-rule="evenodd" clip-rule="evenodd" d="M57.4231 7.76028C57.4231 3.59901 53.9834 0.214844 49.8227 0.214844C45.6609 0.214844 42.2207 3.59901 42.2207 7.76028C42.2207 11.9776 45.6609 15.3617 49.8227 15.3617C53.984 15.3617 57.4231 11.9776 57.4231 7.76028Z" fill="#E0914E"/>
<path id="Vector_24" fill-rule="evenodd" clip-rule="evenodd" d="M57.3131 7.76004C57.3131 3.65423 53.9838 0.269531 49.8231 0.269531C45.6613 0.269531 42.332 3.65423 42.332 7.76004C42.332 11.9213 45.6613 15.3055 49.8231 15.3055C53.9844 15.3055 57.3131 11.9213 57.3131 7.76004Z" fill="#DF924F"/>
<path id="Vector_25" fill-rule="evenodd" clip-rule="evenodd" d="M57.2573 7.76067C57.2573 3.65487 53.9281 0.326172 49.8228 0.326172C45.7164 0.326172 42.3872 3.65541 42.3872 7.76067C42.3872 11.8659 45.7164 15.1957 49.8228 15.1957C53.9281 15.1957 57.2573 11.8659 57.2573 7.76067Z" fill="#E09351"/>
<path id="Vector_26" fill-rule="evenodd" clip-rule="evenodd" d="M57.2015 7.75911C57.2015 3.70877 53.8722 0.435547 49.823 0.435547C45.7721 0.435547 42.4429 3.70877 42.4429 7.75911C42.4429 11.8649 45.7721 15.1387 49.823 15.1387C53.8728 15.1387 57.2015 11.8649 57.2015 7.75911Z" fill="#E09552"/>
<path id="Vector_27" fill-rule="evenodd" clip-rule="evenodd" d="M57.0908 7.76028C57.0908 3.76595 53.8719 0.492188 49.8227 0.492188C45.7718 0.492188 42.498 3.76595 42.498 7.76028C42.498 11.8106 45.7718 15.0838 49.8227 15.0838C53.8725 15.0838 57.0908 11.8106 57.0908 7.76028Z" fill="#E09554"/>
<path id="Vector_28" fill-rule="evenodd" clip-rule="evenodd" d="M57.0357 7.75951C57.0374 6.81184 56.8521 5.87314 56.4903 4.99726C56.1284 4.12139 55.5972 3.32557 54.9271 2.65546C54.257 1.98536 53.4612 1.45414 52.5853 1.0923C51.7094 0.730465 50.7707 0.545116 49.823 0.54689C48.8753 0.544974 47.9365 0.730222 47.0605 1.092C46.1846 1.45379 45.3887 1.98499 44.7185 2.65511C44.0483 3.32524 43.517 4.12111 43.1552 4.99706C42.7933 5.873 42.608 6.81178 42.6099 7.75951C42.6099 11.7544 45.8276 15.0281 49.823 15.0281C53.8168 15.0281 57.0357 11.7544 57.0357 7.75951Z" fill="#E09555"/>
<path id="Vector_29" fill-rule="evenodd" clip-rule="evenodd" d="M56.9794 7.76067C56.9794 3.82127 53.7616 0.603516 49.8228 0.603516C45.8828 0.603516 42.6646 3.82127 42.6646 7.76067C42.6646 11.7555 45.8828 14.9184 49.8228 14.9184C50.7633 14.9206 51.6951 14.737 52.5644 14.3781C53.4338 14.0192 54.2237 13.4921 54.8887 12.8269C55.5538 12.1618 56.0808 11.3718 56.4396 10.5024C56.7984 9.63298 56.9818 8.70122 56.9794 7.76067Z" fill="#E19756"/>
<path id="Vector_30" fill-rule="evenodd" clip-rule="evenodd" d="M56.9241 7.75911C56.9241 3.87572 53.7624 0.712891 49.823 0.712891C45.883 0.712891 42.7207 3.87572 42.7207 7.75911C42.7178 8.69258 42.8995 9.61741 43.2554 10.4804C43.6113 11.3433 44.1344 12.1274 44.7945 12.7875C45.4546 13.4475 46.2387 13.9705 47.1017 14.3263C47.9646 14.6821 48.8895 14.8638 49.823 14.8608C50.7563 14.8636 51.6811 14.6819 52.5439 14.326C53.4068 13.9701 54.1908 13.4471 54.8508 12.7871C55.5107 12.127 56.0337 11.343 56.3895 10.4801C56.7453 9.61723 56.927 8.69249 56.9241 7.75911Z" fill="#E19757"/>
<path id="Vector_31" fill-rule="evenodd" clip-rule="evenodd" d="M56.8133 7.76028C56.8133 3.87689 53.706 0.769531 49.8231 0.769531C45.9387 0.769531 42.7764 3.87689 42.7764 7.76028C42.7764 11.6442 45.9392 14.8065 49.8231 14.8065C53.7065 14.8065 56.8133 11.6437 56.8133 7.76028Z" fill="#E29959"/>
<path id="Vector_32" fill-rule="evenodd" clip-rule="evenodd" d="M56.7578 7.7595C56.7578 3.93104 53.6504 0.824219 49.823 0.824219C45.994 0.824219 42.8872 3.93104 42.8872 7.7595C42.8872 11.588 45.9946 14.7502 49.823 14.7502C53.6504 14.7502 56.7578 11.588 56.7578 7.7595Z" fill="#E2995B"/>
<path id="Vector_33" fill-rule="evenodd" clip-rule="evenodd" d="M56.7015 7.76067C56.7015 3.98821 53.5941 0.880859 49.8227 0.880859C46.0492 0.880859 42.9424 3.98821 42.9424 7.76067C42.9424 11.5891 46.0497 14.6405 49.8227 14.6405C53.5946 14.6405 56.7015 11.5891 56.7015 7.76067Z" fill="#E29B5B"/>
<path id="Vector_34" fill-rule="evenodd" clip-rule="evenodd" d="M56.6473 7.75911C56.6473 4.04158 53.5948 0.990234 49.8229 0.990234C46.0494 0.990234 42.998 4.04158 42.998 7.75911C42.998 11.5321 46.0499 14.5834 49.8229 14.5834C53.5948 14.5834 56.6473 11.5316 56.6473 7.75911Z" fill="#E29B5D"/>
<path id="Vector_35" fill-rule="evenodd" clip-rule="evenodd" d="M56.5357 7.76028C56.5374 6.87824 56.3649 6.00453 56.0282 5.18929C55.6914 4.37405 55.197 3.63332 54.5734 3.00959C53.9497 2.38586 53.209 1.89141 52.3938 1.5546C51.5786 1.21779 50.7049 1.04525 49.8228 1.04689C46.1048 1.04689 43.1089 4.04276 43.1089 7.76028C43.1089 11.4778 46.1048 14.5297 49.8228 14.5297C53.5398 14.5297 56.5357 11.4778 56.5357 7.76028Z" fill="#E39D5F"/>
<path id="Vector_36" fill-rule="evenodd" clip-rule="evenodd" d="M56.4799 7.75949C56.4799 4.09744 53.4845 1.10156 49.823 1.10156C46.1604 1.10156 43.1646 4.09744 43.1646 7.75949C43.1646 11.477 46.1604 14.4729 49.823 14.4729C53.4845 14.4729 56.4799 11.477 56.4799 7.75949Z" fill="#E39D61"/>
<path id="Vector_37" fill-rule="evenodd" clip-rule="evenodd" d="M56.4252 7.76066C56.4252 4.15408 53.4842 1.1582 49.8227 1.1582C46.1601 1.1582 43.2197 4.15408 43.2197 7.76066C43.2197 11.4227 46.1601 14.3631 49.8227 14.3631C53.4842 14.3631 56.4252 11.4227 56.4252 7.76066Z" fill="#E39F63"/>
<path id="Vector_38" fill-rule="evenodd" clip-rule="evenodd" d="M56.3694 7.7591C56.3694 4.15252 53.4284 1.26758 49.8229 1.26758C46.2158 1.26758 43.2754 4.15252 43.2754 7.7591C43.2754 11.3657 46.2158 14.3066 49.8229 14.3066C53.4284 14.3066 56.3694 11.3657 56.3694 7.7591Z" fill="#E39F63"/>
<path id="Vector_39" fill-rule="evenodd" clip-rule="evenodd" d="M56.2578 7.76027C56.2578 4.2097 53.3739 1.32422 49.8228 1.32422C46.2712 1.32422 43.3862 4.20916 43.3862 7.76027C43.3862 11.3669 46.2712 14.2518 49.8228 14.2518C53.3739 14.2518 56.2578 11.3669 56.2578 7.76027Z" fill="#E39F64"/>
<path id="Vector_40" fill-rule="evenodd" clip-rule="evenodd" d="M56.2036 7.75949C56.2036 4.26439 53.3741 1.37891 49.823 1.37891C46.2714 1.37891 43.4419 4.26439 43.4419 7.75949C43.4419 11.3106 46.2714 14.1961 49.823 14.1961C53.3741 14.1961 56.2036 11.3106 56.2036 7.75949Z" fill="#E4A166"/>
<path id="Vector_41" fill-rule="evenodd" clip-rule="evenodd" d="M56.1473 7.76066C56.1473 4.26556 53.3178 1.43555 49.8227 1.43555C46.3265 1.43555 43.4971 4.26502 43.4971 7.76066C43.4971 11.2563 46.3265 14.0863 49.8227 14.0863C53.3178 14.0863 56.1473 11.2563 56.1473 7.76066Z" fill="#E4A367"/>
<path id="Vector_42" fill-rule="evenodd" clip-rule="evenodd" d="M56.092 7.7591C56.092 4.31946 53.2626 1.54492 49.8229 1.54492C46.3822 1.54492 43.5527 4.31892 43.5527 7.7591C43.5527 11.2547 46.3822 14.0287 49.8229 14.0287C53.2626 14.0287 56.092 11.2547 56.092 7.7591Z" fill="#E4A369"/>
<path id="Vector_43" fill-rule="evenodd" clip-rule="evenodd" d="M55.9815 7.76027C55.9815 4.3761 53.2625 1.60156 49.8228 1.60156C46.3821 1.60156 43.6636 4.3761 43.6636 7.76027C43.6636 11.2004 46.3821 13.9744 49.8228 13.9744C53.2625 13.9744 55.9815 11.2004 55.9815 7.76027Z" fill="#E4A36A"/>
<path id="Vector_44" fill-rule="evenodd" clip-rule="evenodd" d="M55.9257 7.75952C55.928 6.95744 55.7717 6.16282 55.4658 5.42135C55.16 4.67988 54.7105 4.00618 54.1434 3.439C53.5763 2.87181 52.9026 2.42233 52.1612 2.11638C51.4197 1.81044 50.6251 1.65407 49.823 1.65628C49.0208 1.65386 48.2261 1.81007 47.4845 2.11593C46.7429 2.42178 46.0691 2.87124 45.5018 3.43846C44.9346 4.00567 44.485 4.67944 44.1791 5.42101C43.8732 6.16259 43.7169 6.95732 43.7193 7.75952C43.7193 11.1442 46.4378 13.9182 49.823 13.9182C53.2067 13.9182 55.9257 11.1442 55.9257 7.75952Z" fill="#E5A56C"/>
<path id="Vector_45" fill-rule="evenodd" clip-rule="evenodd" d="M55.87 7.76012C55.87 4.43142 53.1509 1.71289 49.8227 1.71289C46.4929 1.71289 43.7744 4.43142 43.7744 7.76012C43.7744 11.0894 46.4929 13.8079 49.8227 13.8079C53.1509 13.8079 55.87 11.0894 55.87 7.76012Z" fill="#E5A56C"/>
<path id="Vector_46" fill-rule="evenodd" clip-rule="evenodd" d="M55.8141 7.76051C55.8141 4.48728 53.0961 1.82422 49.8229 1.82422C46.5486 1.82422 43.8301 4.48728 43.8301 7.76051C43.8301 11.0897 46.5486 13.7523 49.8229 13.7523C53.0961 13.7523 55.8141 11.0897 55.8141 7.76051Z" fill="#E5A76E"/>
<path id="Vector_47" fill-rule="evenodd" clip-rule="evenodd" d="M55.7036 7.75973C55.7036 4.54197 53.096 1.87891 49.8228 1.87891C46.5485 1.87891 43.9414 4.54197 43.9414 7.75973C43.9414 11.0335 46.549 13.6966 49.8228 13.6966C53.096 13.6966 55.7036 11.0335 55.7036 7.75973Z" fill="#E5A770"/>
<path id="Vector_48" fill-rule="evenodd" clip-rule="evenodd" d="M55.6478 7.7609C55.6478 4.54314 53.0402 1.93555 49.823 1.93555C46.6042 1.93555 43.9966 4.54314 43.9966 7.7609C43.9966 10.9792 46.6042 13.5868 49.823 13.5868C53.0408 13.5868 55.6478 10.9792 55.6478 7.7609Z" fill="#E6A970"/>
<path id="Vector_49" fill-rule="evenodd" clip-rule="evenodd" d="M55.5921 7.76012C55.5921 4.59783 52.9845 1.99023 49.8227 1.99023C46.6594 1.99023 44.0518 4.59783 44.0518 7.76012C44.0518 10.9784 46.6594 13.53 49.8227 13.53C52.9845 13.53 55.5921 10.9784 55.5921 7.76012Z" fill="#E6A972"/>
<path id="Vector_50" fill-rule="evenodd" clip-rule="evenodd" d="M55.5373 7.76051C55.5373 4.65369 52.9847 2.10156 49.8229 2.10156C46.6596 2.10156 44.1074 4.65369 44.1074 7.76051C44.1064 8.51135 44.2535 9.25502 44.5403 9.94891C44.8272 10.6428 45.2482 11.2732 45.7791 11.8042C46.3101 12.3351 46.9406 12.756 47.6345 13.0428C48.3284 13.3296 49.0721 13.4766 49.8229 13.4755C50.5737 13.4765 51.3172 13.3293 52.011 13.0424C52.7048 12.7556 53.3352 12.3347 53.866 11.8038C54.3969 11.2729 54.8177 10.6425 55.1045 9.94866C55.3913 9.25484 55.5384 8.51126 55.5373 7.76051Z" fill="#E6AB74"/>
<path id="Vector_51" fill-rule="evenodd" clip-rule="evenodd" d="M55.4258 7.75975C55.4278 7.02338 55.2842 6.29387 55.0033 5.61317C54.7225 4.93246 54.3099 4.31397 53.7892 3.79325C53.2685 3.27253 52.6501 2.85984 51.9694 2.57892C51.2887 2.29799 50.5592 2.15435 49.8228 2.15627C49.0863 2.15414 48.3567 2.29762 47.6758 2.57845C46.9949 2.85928 46.3763 3.27193 45.8554 3.79267C45.3346 4.31342 44.9218 4.93198 44.6409 5.61279C44.3599 6.29361 44.2163 7.02324 44.2183 7.75975C44.2183 10.8671 46.7149 13.4192 49.8228 13.4192C52.9291 13.4192 55.4258 10.8671 55.4258 7.75975Z" fill="#E6AB75"/>
<path id="Vector_52" fill-rule="evenodd" clip-rule="evenodd" d="M55.3705 7.7609C55.3705 4.70901 52.8744 2.21289 49.823 2.21289C46.7711 2.21289 44.2739 4.70954 44.2739 7.7609C44.2739 10.8683 46.7706 13.3094 49.823 13.3094C50.5523 13.3119 51.2749 13.1701 51.9491 12.8921C52.6234 12.6142 53.236 12.2055 53.7516 11.6898C54.2672 11.1741 54.6757 10.5614 54.9536 9.8871C55.2314 9.2128 55.3731 8.49019 55.3705 7.7609Z" fill="#E7AD77"/>
<path id="Vector_53" fill-rule="evenodd" clip-rule="evenodd" d="M55.3153 7.76011C55.3153 4.76423 52.8741 2.26758 49.8227 2.26758C46.7708 2.26758 44.3291 4.76423 44.3291 7.76011C44.3291 10.812 46.7703 13.2532 49.8227 13.2532C50.5449 13.2562 51.2605 13.1161 51.9283 12.8411C52.5961 12.5661 53.2028 12.1616 53.7134 11.6509C54.224 11.1403 54.6285 10.5335 54.9034 9.86572C55.1783 9.19792 55.3183 8.48229 55.3153 7.76011Z" fill="#E7AD77"/>
<path id="Vector_54" fill-rule="evenodd" clip-rule="evenodd" d="M55.26 7.76104C55.26 4.76516 52.8188 2.37891 49.8229 2.37891C46.8265 2.37891 44.3848 4.76516 44.3848 7.76104C44.3848 10.7575 46.826 13.1987 49.8229 13.1987C52.8183 13.1987 55.26 10.7575 55.26 7.76104Z" fill="#E8AF79"/>
<path id="Vector_55" fill-rule="evenodd" clip-rule="evenodd" d="M55.1484 7.75972C55.1484 4.81931 52.7627 2.43359 49.8228 2.43359C46.8819 2.43359 44.4956 4.81931 44.4956 7.75972C44.4956 10.7561 46.8813 13.1419 49.8228 13.1419C52.7627 13.1419 55.1484 10.7561 55.1484 7.75972Z" fill="#E8AF7B"/>
<path id="Vector_56" fill-rule="evenodd" clip-rule="evenodd" d="M55.0937 7.75948C55.0937 4.87454 52.7629 2.48828 49.823 2.48828C46.8821 2.48828 44.5513 4.87454 44.5513 7.75948C44.5513 10.6999 46.8815 13.0307 49.823 13.0307C52.7629 13.0307 55.0937 10.7004 55.0937 7.75948Z" fill="#E8B17B"/>
<path id="Vector_57" fill-rule="evenodd" clip-rule="evenodd" d="M55.0379 7.76012C55.0386 7.07505 54.9042 6.39657 54.6424 5.76351C54.3805 5.13046 53.9964 4.55526 53.512 4.07084C53.0276 3.58642 52.4524 3.2023 51.8193 2.94047C51.1863 2.67863 50.5078 2.54422 49.8227 2.54493C49.1376 2.54408 48.459 2.67838 47.8258 2.94016C47.1926 3.20193 46.6173 3.58603 46.1327 4.07046C45.6482 4.55489 45.264 5.13014 45.0021 5.76326C44.7402 6.39639 44.6057 7.07496 44.6064 7.76012C44.6057 8.44532 44.7401 9.12395 45.0019 9.75714C45.2638 10.3903 45.648 10.9656 46.1326 11.4501C46.6171 11.9346 47.1924 12.3188 47.8257 12.5806C48.4589 12.8424 49.1375 12.9767 49.8227 12.9759C50.5078 12.9765 51.1863 12.842 51.8194 12.5801C52.4524 12.3182 53.0276 11.934 53.512 11.4496C53.9964 10.9651 54.3806 10.3899 54.6424 9.75681C54.9042 9.12372 55.0386 8.44521 55.0379 7.76012Z" fill="#E8B17D"/>
<path id="Vector_58" fill-rule="evenodd" clip-rule="evenodd" d="M54.9821 7.7605C54.9821 4.93103 52.6524 2.65625 49.8229 2.65625C46.9929 2.65625 44.6621 4.93103 44.6621 7.7605C44.6621 10.59 46.9924 12.9208 49.8229 12.9208C52.6524 12.9208 54.9821 10.5905 54.9821 7.7605Z" fill="#E8B17E"/>
<path id="Vector_59" fill-rule="evenodd" clip-rule="evenodd" d="M54.8716 7.75975C54.8716 4.98575 52.5963 2.71097 49.8228 2.71097C49.1591 2.70869 48.5015 2.83772 47.8879 3.09064C47.2743 3.34355 46.7168 3.71534 46.2475 4.18461C45.7782 4.65388 45.4063 5.21136 45.1533 5.82493C44.9004 6.43851 44.7713 7.09607 44.7735 7.75975C44.7735 10.5892 46.9928 12.864 49.8228 12.864C52.5963 12.864 54.8716 10.5892 54.8716 7.75975Z" fill="#E9B381"/>
<path id="Vector_60" fill-rule="evenodd" clip-rule="evenodd" d="M54.8158 7.76094C54.8186 7.10447 54.6913 6.45396 54.4414 5.84692C54.1915 5.23988 53.8238 4.68834 53.3596 4.22412C52.8955 3.7599 52.344 3.39219 51.737 3.14221C51.13 2.89222 50.4795 2.76491 49.823 2.76762C49.1665 2.76484 48.5159 2.8921 47.9088 3.14205C47.3017 3.39199 46.7501 3.75968 46.2858 4.2239C45.8215 4.68812 45.4538 5.23968 45.2038 5.84675C44.9538 6.45383 44.8264 7.1044 44.8291 7.76094C44.8264 8.4175 44.9538 9.0681 45.2038 9.6752C45.4538 10.2823 45.8215 10.8339 46.2858 11.2982C46.75 11.7624 47.3016 12.1302 47.9087 12.3802C48.5158 12.6302 49.1664 12.7575 49.823 12.7548C50.4795 12.7574 51.13 12.63 51.737 12.38C52.344 12.13 52.8955 11.7622 53.3597 11.2979C53.8238 10.8337 54.1915 10.2821 54.4414 9.67504C54.6913 9.06797 54.8185 8.41742 54.8158 7.76094Z" fill="#E9B381"/>
<path id="Vector_61" fill-rule="evenodd" clip-rule="evenodd" d="M54.76 7.76011C54.76 5.04158 52.5407 2.82227 49.8227 2.82227C47.1036 2.82227 44.8843 5.04158 44.8843 7.76011C44.8843 10.4786 47.1036 12.698 49.8227 12.698C52.5407 12.698 54.76 10.4786 54.76 7.76011Z" fill="#E9B583"/>
<path id="Vector_62" fill-rule="evenodd" clip-rule="evenodd" d="M54.7052 7.7605C54.7052 5.09743 52.4848 2.93359 49.8229 2.93359C47.1592 2.93359 44.9399 5.09743 44.9399 7.7605C44.9399 10.479 47.1592 12.6429 49.8229 12.6429C52.4848 12.6429 54.7052 10.479 54.7052 7.7605Z" fill="#E9B584"/>
<path id="Vector_63" fill-rule="evenodd" clip-rule="evenodd" d="M54.5937 7.75972C54.5937 5.15212 52.4847 2.98828 49.8228 2.98828C47.1592 2.98828 45.0508 5.15212 45.0508 7.75972C45.0508 10.4228 47.1592 12.5866 49.8228 12.5866C52.4847 12.5866 54.5937 10.4228 54.5937 7.75972Z" fill="#EAB786"/>
<path id="Vector_64" fill-rule="evenodd" clip-rule="evenodd" d="M54.5384 7.76089C54.5389 7.14147 54.4174 6.52801 54.1806 5.95562C53.9438 5.38323 53.5965 4.86315 53.1586 4.42513C52.7206 3.9871 52.2005 3.63974 51.6282 3.40291C51.0558 3.16608 50.4424 3.04443 49.8229 3.04492C47.2148 3.04492 45.1064 5.15329 45.1064 7.76089C45.1064 10.3685 47.2148 12.4769 49.8229 12.4769C50.4424 12.4774 51.0558 12.3557 51.6282 12.1189C52.2005 11.882 52.7206 11.5347 53.1586 11.0967C53.5965 10.6586 53.9438 10.1385 54.1806 9.56616C54.4174 8.99377 54.5389 8.38031 54.5384 7.76089Z" fill="#EAB788"/>
<path id="Vector_65" fill-rule="evenodd" clip-rule="evenodd" d="M54.4821 7.76011C54.4821 5.20798 52.3742 3.09961 49.8227 3.09961C47.27 3.09961 45.1616 5.20798 45.1616 7.76011C45.1616 10.3677 47.27 12.4206 49.8227 12.4206C52.3742 12.4206 54.4821 10.3677 54.4821 7.76011Z" fill="#EBB989"/>
<path id="Vector_66" fill-rule="evenodd" clip-rule="evenodd" d="M54.4279 7.7605C54.4279 5.26384 52.375 3.21094 49.8229 3.21094C47.2702 3.21094 45.2173 5.26384 45.2173 7.7605C45.2158 8.3657 45.3339 8.96524 45.5648 9.52465C45.7958 10.0841 46.135 10.5923 46.5629 11.0203C46.9909 11.4482 47.4992 11.7873 48.0587 12.0182C48.6181 12.249 49.2177 12.3671 49.8229 12.3655C50.428 12.367 51.0275 12.2489 51.5869 12.018C52.1463 11.7871 52.6545 11.448 53.0824 11.0201C53.5104 10.5922 53.8495 10.0839 54.0804 9.52453C54.3113 8.96515 54.4294 8.36566 54.4279 7.7605Z" fill="#EBB98A"/>
<path id="Vector_67" fill-rule="evenodd" clip-rule="evenodd" d="M54.3163 7.75975C54.3188 7.16892 54.2043 6.58345 53.9793 6.03712C53.7544 5.49078 53.4235 4.99439 53.0058 4.57658C52.588 4.15877 52.0917 3.82783 51.5453 3.60283C50.999 3.37783 50.4136 3.26324 49.8228 3.26566C47.3256 3.26566 45.3281 5.26255 45.3281 7.75975C45.3281 10.2569 47.3256 12.3099 49.8228 12.3099C52.3189 12.3099 54.3163 10.2569 54.3163 7.75975Z" fill="#EBBB8C"/>
<path id="Vector_68" fill-rule="evenodd" clip-rule="evenodd" d="M54.2605 7.76089C54.2605 5.3197 52.2641 3.32227 49.8229 3.32227C47.3812 3.32227 45.3838 5.31916 45.3838 7.76089C45.3838 10.2575 47.3812 12.2 49.8229 12.2C52.2641 12.2 54.2605 10.2581 54.2605 7.76089Z" fill="#EBBB8C"/>
<path id="Vector_69" fill-rule="evenodd" clip-rule="evenodd" d="M54.2059 7.76011C54.2059 5.37439 52.2645 3.37695 49.8227 3.37695C47.381 3.37695 45.439 5.37385 45.439 7.76011C45.4356 8.33671 45.5467 8.90827 45.7658 9.44164C45.9848 9.97502 46.3076 10.4596 46.7154 10.8673C47.1231 11.275 47.6078 11.5977 48.1412 11.8168C48.6746 12.0358 49.2461 12.1468 49.8227 12.1433C50.3993 12.1468 50.9709 12.0358 51.5042 11.8167C52.0376 11.5977 52.5222 11.275 52.9299 10.8673C53.3376 10.4596 53.6603 9.97497 53.8794 9.4416C54.0984 8.90823 54.2094 8.33669 54.2059 7.76011Z" fill="#ECBD8F"/>
<path id="Vector_70" fill-rule="evenodd" clip-rule="evenodd" d="M54.15 7.76049C54.15 5.37478 52.2086 3.48828 49.8228 3.48828C47.4366 3.48828 45.4946 5.37424 45.4946 7.76049C45.4946 10.1468 47.4366 12.0887 49.8228 12.0887C52.2086 12.0887 54.15 10.1468 54.15 7.76049Z" fill="#ECBD90"/>
<path id="Vector_71" fill-rule="evenodd" clip-rule="evenodd" d="M54.0384 7.75971C54.0387 7.20597 53.9299 6.6576 53.7181 6.14595C53.5064 5.63429 53.1959 5.16938 52.8044 4.77777C52.4129 4.38617 51.948 4.07556 51.4364 3.86368C50.9248 3.65181 50.3765 3.54283 49.8227 3.54297C49.2689 3.54269 48.7204 3.65156 48.2087 3.86336C47.6969 4.07517 47.2319 4.38575 46.8402 4.77736C46.4486 5.16897 46.1379 5.63393 45.9261 6.14566C45.7142 6.65739 45.6053 7.20585 45.6055 7.75971C45.6055 10.09 47.492 12.0319 49.8227 12.0319C52.1525 12.0319 54.0384 10.09 54.0384 7.75971Z" fill="#ECBF93"/>
<path id="Vector_72" fill-rule="evenodd" clip-rule="evenodd" d="M53.9842 7.76088C53.9842 5.4861 52.0972 3.59961 49.8229 3.59961C47.4922 3.59961 45.6611 5.4861 45.6611 7.76088C45.6611 10.0911 47.4922 11.9222 49.8229 11.9222C52.0972 11.9222 53.9842 10.0911 53.9842 7.76088Z" fill="#ECBF93"/>
<path id="Vector_73" fill-rule="evenodd" clip-rule="evenodd" d="M53.9279 7.7601C53.9279 5.48532 52.0969 3.6543 49.8227 3.6543C47.5473 3.6543 45.7163 5.48478 45.7163 7.7601C45.7163 10.0354 47.5473 11.8659 49.8227 11.8659C50.3621 11.8671 50.8966 11.7617 51.3952 11.5558C51.8939 11.3499 52.3469 11.0475 52.7284 10.666C53.1099 10.2845 53.4122 9.8314 53.618 9.33272C53.8239 8.83403 53.9292 8.2996 53.9279 7.7601Z" fill="#EDC195"/>
<path id="Vector_74" fill-rule="evenodd" clip-rule="evenodd" d="M53.8726 7.75995C53.8726 5.54064 52.0427 3.76562 49.8228 3.76562C47.603 3.76562 45.772 5.54118 45.772 7.75995C45.772 9.97926 47.603 11.8103 49.8228 11.8103C52.0422 11.8103 53.8726 9.97926 53.8726 7.75995Z" fill="#EDC196"/>
<path id="Vector_75" fill-rule="evenodd" clip-rule="evenodd" d="M53.7616 7.75971C53.7616 5.59587 51.986 3.82031 49.8227 3.82031C47.6584 3.82031 45.8828 5.59587 45.8828 7.75971C45.8828 9.97902 47.6584 11.7546 49.8227 11.7546C51.9866 11.7546 53.7616 9.97902 53.7616 7.75971Z" fill="#EEC397"/>
<path id="Vector_76" fill-rule="evenodd" clip-rule="evenodd" d="M53.7064 7.76034C53.7064 5.65197 51.9869 3.87695 49.823 3.87695C47.6586 3.87695 45.9385 5.65251 45.9385 7.76034C45.9354 8.27131 46.0337 8.77782 46.2278 9.2505C46.4219 9.72317 46.708 10.1526 47.0693 10.5139C47.4306 10.8752 47.8601 11.1611 48.3328 11.3552C48.8055 11.5492 49.312 11.6475 49.823 11.6443C50.3339 11.6474 50.8404 11.5491 51.313 11.355C51.7856 11.1609 52.215 10.875 52.5762 10.5137C52.9374 10.1524 53.2234 9.72297 53.4174 9.25033C53.6114 8.7777 53.7096 8.27124 53.7064 7.76034Z" fill="#EEC399"/>
<path id="Vector_77" fill-rule="evenodd" clip-rule="evenodd" d="M53.65 7.7601C53.65 5.65172 51.9305 3.93164 49.8226 3.93164C47.7137 3.93164 45.9937 5.65172 45.9937 7.7601C45.9937 9.86901 47.7137 11.5886 49.8226 11.5886C51.9305 11.5886 53.65 9.86901 53.65 7.7601Z" fill="#EEC59B"/>
<path id="Vector_78" fill-rule="evenodd" clip-rule="evenodd" d="M53.5948 7.76049C53.5948 5.70759 51.8752 4.04297 49.8228 4.04297C47.7694 4.04297 46.0493 5.70759 46.0493 7.76049C46.0493 9.8694 47.7694 11.5335 49.8228 11.5335C51.8752 11.5335 53.5948 9.8694 53.5948 7.76049Z" fill="#EEC69D"/>
<path id="Vector_79" fill-rule="evenodd" clip-rule="evenodd" d="M53.4843 7.7597C53.4843 5.76281 51.8751 4.09766 49.8227 4.09766C47.7693 4.09766 46.1602 5.76227 46.1602 7.7597C46.1602 9.81261 47.7693 11.4772 49.8227 11.4772C51.8751 11.4772 53.4843 9.81261 53.4843 7.7597Z" fill="#EEC69F"/>
<path id="Vector_80" fill-rule="evenodd" clip-rule="evenodd" d="M53.4285 7.76089C53.4294 7.28709 53.3368 6.81778 53.1559 6.37987C52.975 5.94195 52.7095 5.54405 52.3745 5.20897C52.0396 4.8739 51.6418 4.60826 51.2039 4.42727C50.766 4.24629 50.2967 4.15352 49.8229 4.1543C49.349 4.15331 48.8796 4.24592 48.4415 4.42681C48.0035 4.6077 47.6054 4.87331 47.2703 5.2084C46.9352 5.54349 46.6695 5.94147 46.4885 6.37949C46.3076 6.81751 46.2149 7.28696 46.2158 7.76089C46.2149 8.23481 46.3076 8.70426 46.4885 9.14228C46.6695 9.58031 46.9352 9.97828 47.2703 10.3134C47.6054 10.6485 48.0035 10.9141 48.4415 11.095C48.8796 11.2759 49.349 11.3685 49.8229 11.3675C50.2968 11.3683 50.7661 11.2756 51.204 11.0946C51.6419 10.9137 52.0397 10.648 52.3747 10.313C52.7097 9.97787 52.9752 9.57994 53.156 9.14199C53.3369 8.70404 53.4294 8.2347 53.4285 7.76089Z" fill="#EFC89F"/>
<path id="Vector_81" fill-rule="evenodd" clip-rule="evenodd" d="M53.3738 7.75956C53.3738 5.81813 51.7646 4.20898 49.8227 4.20898C47.8802 4.20898 46.271 5.81813 46.271 7.75956C46.2696 8.22634 46.3605 8.6888 46.5385 9.12032C46.7165 9.55183 46.978 9.94389 47.3081 10.2739C47.6382 10.604 48.0303 10.8655 48.4619 11.0434C48.8934 11.2213 49.3559 11.3122 49.8227 11.3107C50.2894 11.3121 50.7518 11.2212 51.1833 11.0433C51.6148 10.8653 52.0068 10.6038 52.3369 10.2737C52.6669 9.94371 52.9284 9.55167 53.1064 9.12019C53.2843 8.68871 53.3752 8.22629 53.3738 7.75956Z" fill="#EFC8A1"/>
<path id="Vector_82" fill-rule="evenodd" clip-rule="evenodd" d="M53.318 7.75995C53.318 5.87399 51.7643 4.32031 49.8229 4.32031C47.8804 4.32031 46.3267 5.87399 46.3267 7.75995C46.3248 8.21959 46.4139 8.67506 46.5889 9.10007C46.7639 9.52509 47.0214 9.91123 47.3464 10.2362C47.6715 10.5612 48.0577 10.8186 48.4827 10.9936C48.9077 11.1685 49.3632 11.2576 49.8229 11.2556C50.2824 11.2574 50.7378 11.1683 51.1627 10.9933C51.5876 10.8182 51.9737 10.5608 52.2986 10.2358C52.6235 9.91086 52.8809 9.52477 53.0559 9.09982C53.2308 8.67488 53.3199 8.2195 53.318 7.75995Z" fill="#EFCAA3"/>
<path id="Vector_83" fill-rule="evenodd" clip-rule="evenodd" d="M53.2064 7.75924C53.2094 7.31405 53.1239 6.87271 52.9549 6.46084C52.7859 6.04896 52.5367 5.67475 52.222 5.35992C51.9072 5.0451 51.533 4.79592 51.1212 4.62686C50.7093 4.4578 50.268 4.37221 49.8228 4.37507C49.3775 4.37214 48.9361 4.45766 48.5241 4.62668C48.1122 4.7957 47.7378 5.04485 47.4229 5.35967C47.108 5.67449 46.8587 6.04871 46.6896 6.46063C46.5204 6.87255 46.4348 7.31395 46.4376 7.75924C46.4376 9.64573 47.9358 11.1994 49.8228 11.1994C51.7088 11.1994 53.2064 9.64627 53.2064 7.75924Z" fill="#EFCAA3"/>
<path id="Vector_84" fill-rule="evenodd" clip-rule="evenodd" d="M53.1511 7.76034C53.1511 5.92931 51.6534 4.43164 49.8229 4.43164C47.9914 4.43164 46.4932 5.92931 46.4932 7.76034C46.4932 9.59136 47.9914 11.0896 49.8229 11.0896C51.6529 11.0896 53.1511 9.59136 53.1511 7.76034Z" fill="#F0CCA6"/>
<path id="Vector_85" fill-rule="evenodd" clip-rule="evenodd" d="M53.0964 7.75955C53.0964 5.98454 51.5976 4.48633 49.8231 4.48633C47.9916 4.48633 46.5488 5.98454 46.5488 7.75955C46.5488 9.59058 47.9916 11.0333 49.8231 11.0333C51.5976 11.0333 53.0964 9.59058 53.0964 7.75955Z" fill="#F0CCA8"/>
<path id="Vector_86" fill-rule="evenodd" clip-rule="evenodd" d="M53.0406 7.75994C53.0406 5.98492 51.5973 4.59766 49.8228 4.59766C48.0473 4.59766 46.604 5.98492 46.604 7.75994C46.6046 8.61341 46.9439 9.43174 47.5474 10.0352C48.151 10.6386 48.9694 10.9778 49.8228 10.9782C50.6761 10.9775 51.4942 10.6382 52.0975 10.0348C52.7008 9.4314 53.04 8.61322 53.0406 7.75994Z" fill="#F1CEAA"/>
<path id="Vector_87" fill-rule="evenodd" clip-rule="evenodd" d="M52.929 7.75917C52.9298 7.351 52.85 6.94669 52.6942 6.56944C52.5383 6.19219 52.3096 5.84941 52.021 5.56076C51.7324 5.27212 51.3897 5.0433 51.0124 4.88741C50.6352 4.73152 50.2309 4.65164 49.8227 4.65235C48.1021 4.65235 46.7148 6.03908 46.7148 7.75917C46.7148 9.47925 48.1021 10.922 49.8227 10.922C51.5423 10.922 52.929 9.47925 52.929 7.75917Z" fill="#F1CEAA"/>
<path id="Vector_88" fill-rule="evenodd" clip-rule="evenodd" d="M52.8742 7.76087C52.8742 6.09679 51.487 4.70898 49.8229 4.70898C48.1577 4.70898 46.771 6.09626 46.771 7.76087C46.7698 8.16199 46.8479 8.55939 47.0009 8.93021C47.1538 9.30103 47.3786 9.63795 47.6622 9.92158C47.9458 10.2052 48.2827 10.43 48.6536 10.5829C49.0244 10.7359 49.4218 10.814 49.8229 10.8128C50.224 10.8139 50.6213 10.7357 50.9921 10.5828C51.3628 10.4298 51.6997 10.205 51.9833 9.92139C52.2668 9.63776 52.4915 9.30087 52.6445 8.93009C52.7974 8.5593 52.8755 8.16195 52.8742 7.76087Z" fill="#F1D0AD"/>
<path id="Vector_89" fill-rule="evenodd" clip-rule="evenodd" d="M52.8185 7.75955C52.8185 6.1504 51.4866 4.76367 49.8231 4.76367C48.1579 4.76367 46.8267 6.1504 46.8267 7.75955C46.825 8.15353 46.9013 8.54394 47.0513 8.90825C47.2013 9.27257 47.4219 9.60357 47.7005 9.88216C47.9791 10.1607 48.3101 10.3814 48.6744 10.5314C49.0387 10.6813 49.4291 10.7577 49.8231 10.756C50.217 10.7575 50.6073 10.6811 50.9715 10.5311C51.3357 10.381 51.6665 10.1603 51.945 9.88177C52.2235 9.6032 52.444 9.27224 52.5939 8.908C52.7439 8.54376 52.8202 8.15343 52.8185 7.75955Z" fill="#F1D0AE"/>
<path id="Vector_90" fill-rule="evenodd" clip-rule="evenodd" d="M52.7627 7.75994C52.7627 6.15079 51.4309 4.875 49.8228 4.875C48.2136 4.875 46.8818 6.15079 46.8818 7.75994C46.8818 9.36909 48.2136 10.7004 49.8228 10.7004C51.4309 10.7004 52.7627 9.36855 52.7627 7.75994Z" fill="#F2D2B1"/>
<path id="Vector_91" fill-rule="evenodd" clip-rule="evenodd" d="M52.6522 7.75916C52.6522 6.20602 51.3753 4.92969 49.8227 4.92969C48.269 4.92969 46.9927 6.20602 46.9927 7.75916C46.9927 9.36831 48.2695 10.6441 49.8227 10.6441C51.3753 10.6441 52.6522 9.36777 52.6522 7.75916Z" fill="#F2D2B3"/>
<path id="Vector_92" fill-rule="evenodd" clip-rule="evenodd" d="M52.5963 7.76033C52.5963 6.26212 51.3749 4.98633 49.8229 4.98633C48.2692 4.98633 47.0483 6.26212 47.0483 7.76033C47.0483 9.31401 48.2697 10.5343 49.8229 10.5343C51.3755 10.5343 52.5963 9.31347 52.5963 7.76033Z" fill="#F3D4B4"/>
<path id="Vector_93" fill-rule="evenodd" clip-rule="evenodd" d="M52.5411 7.75955C52.5401 7.03895 52.2534 6.34814 51.7439 5.83855C51.2344 5.32895 50.5437 5.04216 49.8231 5.04102C48.3243 5.04102 47.104 6.26188 47.104 7.75955C47.104 9.25722 48.3243 10.4781 49.8231 10.4781C50.5436 10.4768 51.2343 10.19 51.7438 9.68039C52.2532 9.17083 52.5399 8.48011 52.5411 7.75955Z" fill="#F3D4B5"/>
<path id="Vector_94" fill-rule="evenodd" clip-rule="evenodd" d="M52.4848 7.75994C52.4848 6.31774 51.2644 5.15234 49.8228 5.15234C48.3795 5.15234 47.1592 6.31774 47.1592 7.75994C47.1592 9.25815 48.38 10.423 49.8228 10.423C51.265 10.423 52.4848 9.25761 52.4848 7.75994Z" fill="#F3D4B7"/>
<path id="Vector_95" fill-rule="evenodd" clip-rule="evenodd" d="M52.3743 7.75917C52.3752 7.4238 52.3098 7.09157 52.1819 6.78155C52.0541 6.47153 51.8661 6.18984 51.629 5.95267C51.3919 5.71551 51.1103 5.52755 50.8003 5.39958C50.4903 5.27162 50.1581 5.20619 49.8227 5.20704C49.4872 5.20605 49.1549 5.27138 48.8448 5.39928C48.5347 5.52717 48.2529 5.71511 48.0157 5.95229C47.7784 6.18947 47.5904 6.4712 47.4625 6.78129C47.3345 7.09139 47.2691 7.42371 47.27 7.75917C47.27 9.20191 48.38 10.3668 49.8227 10.3668C51.2649 10.3668 52.3743 9.20137 52.3743 7.75917Z" fill="#F3D6B8"/>
<path id="Vector_96" fill-rule="evenodd" clip-rule="evenodd" d="M52.319 7.76034C52.3203 7.43215 52.2567 7.10693 52.1318 6.80344C52.0068 6.49996 51.823 6.22421 51.5909 5.99212C51.3589 5.76002 51.0832 5.57616 50.7797 5.45113C50.4763 5.32611 50.1511 5.26241 49.8229 5.26369C48.4356 5.26369 47.3257 6.37361 47.3257 7.76034C47.3257 9.14708 48.4356 10.257 49.8229 10.257C50.1511 10.2583 50.4763 10.1946 50.7797 10.0696C51.0832 9.94454 51.3589 9.76068 51.5909 9.52858C51.823 9.29648 52.0068 9.02074 52.1318 8.71725C52.2567 8.41377 52.3203 8.08854 52.319 7.76034Z" fill="#F4D8BA"/>
<path id="Vector_97" fill-rule="evenodd" clip-rule="evenodd" d="M52.2643 7.75955C52.2643 6.42774 51.1543 5.31836 49.8231 5.31836C48.4918 5.31836 47.3813 6.42828 47.3813 7.75955C47.3813 9.14682 48.4918 10.2007 49.8231 10.2007C51.1543 10.2007 52.2643 9.14628 52.2643 7.75955Z" fill="#F4D9BC"/>
<path id="Vector_98" fill-rule="evenodd" clip-rule="evenodd" d="M52.2085 7.75993C52.2085 6.4836 51.1546 5.42969 49.8228 5.42969C48.491 5.42969 47.4365 6.4836 47.4365 7.75993C47.4365 9.09174 48.491 10.1457 49.8228 10.1457C51.1546 10.1457 52.2085 9.0912 52.2085 7.75993Z" fill="#F4D9BE"/>
<path id="Vector_99" fill-rule="evenodd" clip-rule="evenodd" d="M52.0969 7.75915C52.0969 6.48282 51.0985 5.48438 49.8227 5.48438C48.5458 5.48438 47.5474 6.48282 47.5474 7.75915C47.5474 9.03549 48.5458 10.0894 49.8227 10.0894C51.0985 10.0894 52.0969 9.03495 52.0969 7.75915Z" fill="#F4DBBF"/>
<path id="Vector_100" fill-rule="evenodd" clip-rule="evenodd" d="M52.0422 7.76032C52.0405 7.17225 51.8061 6.60875 51.3903 6.19292C50.9744 5.77709 50.4109 5.54272 49.8229 5.54102C48.6015 5.54102 47.603 6.53946 47.603 7.76032C47.603 8.98119 48.6015 9.97964 49.8229 9.97964C50.4109 9.97793 50.9744 9.74356 51.3903 9.32773C51.8061 8.9119 52.0405 8.3484 52.0422 7.76032Z" fill="#F4DBC0"/>
<path id="Vector_101" fill-rule="evenodd" clip-rule="evenodd" d="M51.9869 7.75954C51.9869 6.59415 50.9879 5.5957 49.8231 5.5957C48.6577 5.5957 47.6587 6.59415 47.6587 7.75954C47.6587 8.98041 48.6577 9.92339 49.8231 9.92339C50.9874 9.92339 51.9869 8.98041 51.9869 7.75954Z" fill="#F5DDC3"/>
<path id="Vector_102" fill-rule="evenodd" clip-rule="evenodd" d="M51.9306 7.75993C51.9306 6.65001 50.9871 5.70703 49.8228 5.70703C48.6574 5.70703 47.7139 6.65001 47.7139 7.75993C47.7139 8.31911 47.936 8.85538 48.3314 9.25078C48.7268 9.64617 49.2631 9.8683 49.8222 9.8683C50.3814 9.8683 50.9177 9.64617 51.3131 9.25078C51.7085 8.85538 51.9306 8.31911 51.9306 7.75993Z" fill="#F5DDC3"/>
<path id="Vector_103" fill-rule="evenodd" clip-rule="evenodd" d="M51.819 7.76057C51.819 6.65064 50.9326 5.76367 49.8227 5.76367C48.7128 5.76367 47.8247 6.65118 47.8247 7.76057C47.8247 8.86995 48.7128 9.81347 49.8227 9.81347C50.9326 9.81347 51.819 8.87049 51.819 7.76057Z" fill="#F6DFC6"/>
<path id="Vector_104" fill-rule="evenodd" clip-rule="evenodd" d="M51.7643 7.75978C51.7643 6.70533 50.8768 5.81836 49.8229 5.81836C48.7679 5.81836 47.8804 6.70587 47.8804 7.75978C47.8804 8.86971 48.7679 9.70175 49.8229 9.70175C50.8768 9.70175 51.7643 8.86971 51.7643 7.75978Z" fill="#F6DFC7"/>
<path id="Vector_105" fill-rule="evenodd" clip-rule="evenodd" d="M51.7086 7.76096C51.7086 6.76251 50.8766 5.875 49.8226 5.875C48.7677 5.875 47.9356 6.76251 47.9356 7.76096C47.9335 8.00932 47.9809 8.25561 48.075 8.48547C48.1691 8.71533 48.3081 8.92414 48.4837 9.09974C48.6594 9.27534 48.8682 9.41421 49.0981 9.50825C49.328 9.60228 49.5743 9.64961 49.8226 9.64745C50.0709 9.64946 50.3171 9.60203 50.5469 9.50793C50.7766 9.41383 50.9854 9.27494 51.1609 9.09936C51.3364 8.92377 51.4753 8.715 51.5693 8.48522C51.6633 8.25543 51.7107 8.00923 51.7086 7.76096Z" fill="#F6E1CA"/>
<path id="Vector_106" fill-rule="evenodd" clip-rule="evenodd" d="M51.6527 7.75939C51.6527 6.76094 50.8207 5.98438 49.8228 5.98438C48.8238 5.98438 47.9912 6.76094 47.9912 7.75939C47.9912 8.75838 48.8232 9.59042 49.8228 9.59042C50.8212 9.59042 51.6527 8.75838 51.6527 7.75939Z" fill="#F6E1CC"/>
<path id="Vector_107" fill-rule="evenodd" clip-rule="evenodd" d="M51.5422 7.75915C51.54 7.30375 51.3581 6.86763 51.0361 6.54556C50.7141 6.22348 50.2781 6.04147 49.8227 6.03906C49.3671 6.04119 48.9308 6.22307 48.6085 6.54518C48.2863 6.86728 48.1043 7.30356 48.1021 7.75915C48.1021 8.75814 48.8792 9.53471 49.8227 9.53471C50.7651 9.53471 51.5422 8.75814 51.5422 7.75915Z" fill="#F7E3CD"/>
<path id="Vector_108" fill-rule="evenodd" clip-rule="evenodd" d="M51.4869 7.75978C51.4869 6.87227 50.7653 6.0957 49.8229 6.0957C48.8794 6.0957 48.1577 6.87227 48.1577 7.75978C48.1577 8.70276 48.8794 9.4244 49.8229 9.4244C50.7653 9.4244 51.4869 8.70276 51.4869 7.75978Z" fill="#F7E3CF"/>
<path id="Vector_109" fill-rule="evenodd" clip-rule="evenodd" d="M51.431 7.75954C51.4307 7.33304 51.2612 6.92408 50.9598 6.6224C50.6583 6.32071 50.2494 6.15096 49.8229 6.15039C49.4034 6.16125 49.0046 6.33554 48.7117 6.63613C48.4188 6.93672 48.2549 7.33983 48.2549 7.75954C48.2549 8.17924 48.4188 8.58235 48.7117 8.88294C49.0046 9.18353 49.4034 9.35783 49.8229 9.36869C50.2495 9.36826 50.6584 9.19855 50.9599 8.89684C51.2614 8.59513 51.4309 8.18608 51.431 7.75954Z" fill="#F7E3D0"/>
<path id="Vector_110" fill-rule="evenodd" clip-rule="evenodd" d="M51.3753 7.75993C51.3753 6.92789 50.6548 6.26172 49.8227 6.26172C48.9896 6.26172 48.269 6.92789 48.269 7.75993C48.2686 7.96408 48.3085 8.16631 48.3864 8.355C48.4644 8.54369 48.5788 8.71514 48.7232 8.8595C48.8675 9.00385 49.039 9.11828 49.2277 9.19621C49.4163 9.27414 49.6186 9.31403 49.8227 9.31361C50.0268 9.31396 50.2289 9.27401 50.4175 9.19604C50.6061 9.11808 50.7775 9.00363 50.9218 8.85927C51.066 8.71491 51.1803 8.54349 51.2582 8.35484C51.336 8.16618 51.3758 7.96401 51.3753 7.75993Z" fill="#F8E5D1"/>
<path id="Vector_111" fill-rule="evenodd" clip-rule="evenodd" d="M51.2649 7.7606C51.2649 6.98403 50.6547 6.3184 49.8227 6.3184C49.6329 6.31697 49.4446 6.35329 49.269 6.42524C49.0933 6.4972 48.9336 6.60336 48.7993 6.73755C48.6651 6.87174 48.5588 7.03129 48.4867 7.20692C48.4146 7.38255 48.3781 7.57076 48.3794 7.7606C48.3794 8.59264 48.9896 9.25881 49.8227 9.25881C50.6547 9.25881 51.2649 8.59318 51.2649 7.7606Z" fill="#F8E8D4"/>
<path id="Vector_112" fill-rule="evenodd" clip-rule="evenodd" d="M51.2091 7.76038C51.211 7.57777 51.1764 7.39663 51.1074 7.22754C51.0384 7.05846 50.9364 6.90483 50.8073 6.77565C50.6782 6.64647 50.5247 6.54433 50.3557 6.47521C50.1866 6.4061 50.0055 6.37139 49.8229 6.37311C49.6402 6.37131 49.459 6.40597 49.2899 6.47505C49.1208 6.54413 48.9671 6.64625 48.8379 6.77543C48.7088 6.90461 48.6066 7.05825 48.5376 7.22738C48.4685 7.3965 48.4338 7.5777 48.4356 7.76038C48.4337 7.94308 48.4684 8.12432 48.5374 8.29348C48.6065 8.46263 48.7086 8.61631 48.8378 8.74551C48.967 8.8747 49.1206 8.97682 49.2898 9.04587C49.459 9.11492 49.6402 9.14953 49.8229 9.14766C50.0055 9.14938 50.1866 9.11467 50.3557 9.04555C50.5247 8.97644 50.6782 8.8743 50.8073 8.74512C50.9364 8.61594 51.0384 8.46231 51.1074 8.29322C51.1764 8.12414 51.211 7.94299 51.2091 7.76038Z" fill="#F8E8D6"/>
<path id="Vector_113" fill-rule="evenodd" clip-rule="evenodd" d="M51.1548 7.7607C51.1548 7.0396 50.5436 6.48438 49.823 6.48438C49.1014 6.48438 48.4912 7.03907 48.4912 7.7607C48.4912 8.48234 49.1014 9.09251 49.823 9.09251C50.5436 9.09251 51.1548 8.48234 51.1548 7.7607Z" fill="#F8E8D8"/>
<path id="Vector_114" fill-rule="evenodd" clip-rule="evenodd" d="M51.0986 7.75992C51.0986 7.09429 50.4873 6.53906 49.8228 6.53906C49.1561 6.53906 48.5459 7.09429 48.5459 7.75992C48.5459 8.48103 49.1561 9.03626 49.8228 9.03626C50.4873 9.03626 51.0986 8.48156 51.0986 7.75992Z" fill="#F9EAD9"/>
<path id="Vector_115" fill-rule="evenodd" clip-rule="evenodd" d="M50.9874 7.75914C50.9874 7.14898 50.4877 6.59375 49.8231 6.59375C49.1564 6.59375 48.6577 7.14844 48.6577 7.75914C48.6577 8.42531 49.1564 8.98001 49.8231 8.98001C50.4877 8.98001 50.9874 8.42531 50.9874 7.75914Z" fill="#FAECDC"/>
<path id="Vector_116" fill-rule="evenodd" clip-rule="evenodd" d="M50.9327 7.76031C50.9317 7.46625 50.8145 7.18451 50.6066 6.97658C50.3986 6.76864 50.1169 6.65138 49.8228 6.65039C49.2116 6.65039 48.7129 7.14961 48.7129 7.76031C48.7129 8.37101 49.2116 8.87024 49.8228 8.87024C50.1169 8.86939 50.3987 8.75218 50.6067 8.54421C50.8147 8.33624 50.9319 8.05442 50.9327 7.76031Z" fill="#FAECDD"/>
<path id="Vector_117" fill-rule="evenodd" clip-rule="evenodd" d="M50.877 7.76016C50.877 7.20547 50.3772 6.76172 49.8231 6.76172C49.2678 6.76172 48.7681 7.20547 48.7681 7.76016C48.7681 8.37033 49.2678 8.81462 49.8231 8.81462C49.9615 8.81462 50.0986 8.78734 50.2265 8.73434C50.3544 8.68135 50.4706 8.60367 50.5685 8.50575C50.6664 8.40782 50.744 8.29158 50.7969 8.16365C50.8498 8.03572 50.877 7.89861 50.877 7.76016Z" fill="#FAECDF"/>
<path id="Vector_118" fill-rule="evenodd" clip-rule="evenodd" d="M50.8212 7.75938C50.8212 7.26016 50.3774 6.81641 49.8227 6.81641C49.2675 6.81641 48.8237 7.26016 48.8237 7.75938C48.8237 8.31462 49.2675 8.75837 49.8227 8.75837C49.954 8.75887 50.0841 8.73337 50.2055 8.68333C50.3269 8.6333 50.4372 8.55973 50.53 8.46685C50.6228 8.37398 50.6964 8.26365 50.7463 8.14223C50.7963 8.02081 50.8217 7.89069 50.8212 7.75938Z" fill="#FAEEE0"/>
<path id="Vector_119" fill-rule="evenodd" clip-rule="evenodd" d="M50.7102 7.76055C50.7102 7.26133 50.3208 6.87305 49.8227 6.87305C49.3229 6.87305 48.9341 7.26133 48.9341 7.76055C48.9341 8.25978 49.3234 8.70353 49.8227 8.70353C50.3213 8.70353 50.7102 8.25978 50.7102 7.76055Z" fill="#FBF0E3"/>
<path id="Vector_120" fill-rule="evenodd" clip-rule="evenodd" d="M50.6549 7.75977C50.6549 7.31602 50.2655 6.92773 49.8229 6.92773C49.3791 6.92773 48.9897 7.31602 48.9897 7.75977C48.9897 8.259 49.3791 8.59182 49.8229 8.59182C50.2655 8.59182 50.6549 8.259 50.6549 7.75977Z" fill="#FBF1E5"/>
<path id="Vector_121" fill-rule="evenodd" clip-rule="evenodd" d="M50.599 7.76016C50.599 7.37188 50.2657 7.03906 49.823 7.03906C49.3792 7.03906 49.0459 7.37188 49.0459 7.76016C49.0459 8.20445 49.3792 8.53727 49.823 8.53727C50.2657 8.53727 50.599 8.20445 50.599 7.76016Z" fill="#FBF1E7"/>
<path id="Vector_122" fill-rule="evenodd" clip-rule="evenodd" d="M50.5433 7.75938C50.5433 7.3711 50.211 7.09375 49.8227 7.09375C49.4333 7.09375 49.1011 7.3711 49.1011 7.75938C49.1011 8.14821 49.4333 8.48049 49.8227 8.48049C50.211 8.48049 50.5433 8.14767 50.5433 7.75938Z" fill="#FCF3E8"/>
<path id="Vector_123" fill-rule="evenodd" clip-rule="evenodd" d="M50.4328 7.76055C50.4328 7.42773 50.1549 7.15039 49.8227 7.15039C49.4893 7.15039 49.2114 7.42827 49.2114 7.76055C49.2114 8.14937 49.4893 8.42672 49.8227 8.42672C50.1549 8.42672 50.4328 8.14937 50.4328 7.76055Z" fill="#FCF3EA"/>
<path id="Vector_124" fill-rule="evenodd" clip-rule="evenodd" d="M50.377 7.75977C50.377 7.48242 50.1551 7.20508 49.8228 7.20508C49.4895 7.20508 49.2676 7.48242 49.2676 7.75977C49.2676 8.09312 49.4895 8.31501 49.8228 8.31501C50.1551 8.31501 50.377 8.09312 50.377 7.75977Z" fill="#FCF5ED"/>
<path id="Vector_125" fill-rule="evenodd" clip-rule="evenodd" d="M50.3217 7.76016C50.3217 7.48281 50.0998 7.31641 49.823 7.31641C49.5451 7.31641 49.3232 7.48281 49.3232 7.76016C49.3232 8.03751 49.5451 8.25938 49.823 8.25938C49.8886 8.2596 49.9536 8.24683 50.0142 8.22181C50.0749 8.19679 50.1299 8.16002 50.1763 8.11361C50.2226 8.0672 50.2594 8.01208 50.2843 7.95142C50.3093 7.89075 50.322 7.82575 50.3217 7.76016Z" fill="#FCF5EF"/>
<path id="Vector_126" fill-rule="evenodd" clip-rule="evenodd" d="M50.2653 7.75938C50.2653 7.5375 50.0435 7.37109 49.8227 7.37109C49.6008 7.37109 49.3789 7.53804 49.3789 7.75938C49.3789 7.98126 49.6008 8.20367 49.8227 8.20367C50.0435 8.20367 50.2653 7.98126 50.2653 7.75938Z" fill="#FDF8F1"/>
<path id="Vector_127" fill-rule="evenodd" clip-rule="evenodd" d="M50.1554 7.76055C50.1554 7.59414 49.989 7.42773 49.8231 7.42773C49.6556 7.42773 49.4897 7.59414 49.4897 7.76055C49.4897 7.98243 49.6562 8.14937 49.8231 8.14937C49.9895 8.14937 50.1554 7.98243 50.1554 7.76055Z" fill="#FDF8F3"/>
<path id="Vector_128" fill-rule="evenodd" clip-rule="evenodd" d="M50.0996 7.75977C50.0996 7.64883 49.9892 7.48242 49.8228 7.48242C49.6553 7.48242 49.5449 7.64883 49.5449 7.75977C49.5449 7.92618 49.6553 8.03711 49.8228 8.03711C49.9892 8.03711 50.0996 7.92618 50.0996 7.75977Z" fill="#FDF8F5"/>
<path id="Vector_129" fill-rule="evenodd" clip-rule="evenodd" d="M50.0438 7.76016C50.0438 7.64922 49.9333 7.59375 49.8229 7.59375C49.7115 7.59375 49.6011 7.64922 49.6011 7.76016C49.6011 7.8711 49.7115 7.98204 49.8229 7.98204C49.9333 7.98204 50.0438 7.8711 50.0438 7.76016Z" fill="#FEFBF6"/>
<path id="Vector_130" fill-rule="evenodd" clip-rule="evenodd" d="M49.9332 7.75937C49.9332 7.7039 49.8771 7.64844 49.8228 7.64844C49.7667 7.64844 49.6553 7.7039 49.6553 7.75937C49.6553 7.87031 49.7667 7.92578 49.8228 7.92578C49.8777 7.92578 49.9332 7.87031 49.9332 7.75937Z" fill="#FFFFFB"/>
<path id="Vector_131" fill-rule="evenodd" clip-rule="evenodd" d="M49.878 7.76055C49.878 7.76055 49.878 7.70508 49.8231 7.70508C49.7671 7.70508 49.7671 7.76055 49.7671 7.76055C49.7671 7.81602 49.7671 7.87149 49.8231 7.87149C49.878 7.87149 49.878 7.81602 49.878 7.76055Z" fill="white"/>
<path id="Vector_132" fill-rule="evenodd" clip-rule="evenodd" d="M64.3035 10.3133L60.3641 0.326172H57.1458L63.4714 15.584H65.0251L71.4612 0.326172H68.2983L64.3035 10.3133ZM72.793 15.1963H81.0046V12.6991H75.6779V8.7042H80.7822V6.15207H75.6779V2.8783H81.0046V0.326172H72.793V15.1963ZM92.4894 4.70932C92.4894 1.93532 90.6024 0.326172 87.2188 0.326172H82.946V15.1957H85.8309V9.25889H86.2192L90.2141 15.1957H93.7652L89.1047 8.92553C91.268 8.48232 92.4894 6.9841 92.4894 4.70932ZM86.663 7.20652H85.8309V2.65696H86.7185C88.5495 2.65696 89.4919 3.43353 89.4919 4.87627C89.4925 6.37394 88.55 7.20652 86.663 7.20652ZM1.21387 19.5622V20.8945H2.8591V21.4336H1.21387V23.7547H0.622559V19.0226H2.91296V19.5622H1.21387ZM5.61372 19.0226H6.20557V23.7547H5.61372V19.0226ZM9.06251 18.7953L12.6115 22.5193V19.0226H13.2028V23.9496L9.65005 20.2278V23.7547H9.06251V18.7953ZM18.6738 22.0298H16.9882L17.8304 20.1136L18.6738 22.0298ZM18.9161 22.5694L19.4557 23.7547H20.0923L17.831 18.8217L15.5707 23.7547H16.2046L16.7458 22.5694H18.9161ZM22.4592 18.7953L26.0119 22.5193V19.0226H26.6037V23.9496L23.0467 20.2278V23.7547H22.4592V18.7953ZM32.9154 19.9273C32.5788 19.6246 32.1124 19.4625 31.666 19.4625C30.6078 19.4625 29.7978 20.3474 29.7978 21.3959C29.7978 22.4315 30.5997 23.3158 31.6552 23.3158C32.1205 23.3158 32.5643 23.1413 32.9148 22.8263V23.5242C32.536 23.7388 32.1084 23.8529 31.673 23.8554C30.3207 23.8554 29.2049 22.7826 29.2049 21.4137C29.2049 20.0135 30.3283 18.9202 31.7247 18.9202C32.1399 18.9202 32.5594 19.0226 32.9143 19.2417V19.9273H32.9154ZM35.6312 19.0226H36.2193V23.7547H35.6312V19.0226ZM41.7323 22.0298H40.0472L40.8938 20.1136L41.7323 22.0298ZM41.9752 22.5694L42.5164 23.7547H43.1503L40.8938 18.8217L38.6325 23.7547H39.2647L39.8043 22.5694H41.9752ZM46.1639 23.2178H47.6024V23.7547H45.5759V19.0226H46.1639V23.2178ZM55.9637 19.9208C55.7924 19.6241 55.5652 19.4739 55.2043 19.4739C54.8268 19.4739 54.4111 19.7307 54.4111 20.1465C54.4111 20.5154 54.7805 20.7114 55.0735 20.824L55.4101 20.957C56.0843 21.2193 56.5862 21.5908 56.5862 22.3809C56.5862 23.242 55.9195 23.8554 55.0735 23.8554C54.3066 23.8554 53.7104 23.2915 53.6124 22.5317L54.2075 22.4073C54.2 22.927 54.6147 23.3039 55.1203 23.3039C55.6303 23.3039 55.9933 22.8785 55.9933 22.3809C55.9933 21.8736 55.5862 21.6528 55.179 21.4821L54.8538 21.3458C54.312 21.1132 53.823 20.8062 53.823 20.1465C53.823 19.3796 54.5005 18.9202 55.2178 18.9202C55.7429 18.9202 56.1769 19.1793 56.4328 19.6365L55.9637 19.9208ZM59.2579 19.0226H61.802V19.5622H59.8498V20.8886H61.7486V21.4277H59.8498V23.2178H61.802V23.7547H59.2579V19.0226ZM65.1522 19.5498H65.3035C65.8927 19.5498 66.5939 19.6564 66.5939 20.3985C66.5939 21.1509 65.9374 21.2629 65.3358 21.2629H65.1517V19.5498H65.1522ZM66.0106 21.6975C66.6946 21.6145 67.1464 21.0512 67.1464 20.3721C67.1464 19.9208 66.9191 19.4739 66.5228 19.2412C66.1474 19.0285 65.6951 19.0226 65.2766 19.0226H64.5614V23.7547H65.1527V21.7551H65.3956L66.7894 23.7547H67.5035L66.0106 21.6975ZM71.5581 22.5252L72.9642 19.0226H73.6121L71.5581 24.0083L69.5004 19.0226H70.1471L71.5581 22.5252ZM76.022 19.0226H76.6128V23.7547H76.022V19.0226ZM82.9767 19.9273C82.6358 19.6246 82.1689 19.4625 81.7208 19.4625C80.6637 19.4625 79.8537 20.3474 79.8537 21.3959C79.8537 22.4315 80.6551 23.3158 81.7101 23.3158C82.1759 23.3158 82.624 23.1413 82.9767 22.8263V23.5242C82.5965 23.7385 82.168 23.8525 81.7316 23.8554C80.3831 23.8554 79.2619 22.7826 79.2619 21.4137C79.2619 20.0135 80.3906 18.9202 81.7812 18.9202C82.1964 18.9202 82.6164 19.0226 82.9772 19.2417V19.9273H82.9767ZM85.7028 19.0226H88.2463V19.5622H86.2952V20.8886H88.1903V21.4277H86.2952V23.2178H88.2463V23.7547H85.7028V19.0226ZM93.1033 19.9208C92.931 19.6241 92.7048 19.4739 92.3472 19.4739C91.9719 19.4739 91.5561 19.7307 91.5561 20.1465C91.5561 20.5154 91.9223 20.7114 92.2148 20.824L92.5567 20.957C93.2256 21.2193 93.7275 21.5908 93.7275 22.3809C93.7275 23.242 93.0619 23.8554 92.2148 23.8554C91.4511 23.8554 90.8506 23.2915 90.7548 22.5317L91.3483 22.4073C91.3407 22.927 91.7586 23.3039 92.2654 23.3039C92.7743 23.3039 93.1394 22.8785 93.1394 22.3809C93.1394 21.8736 92.728 21.6528 92.3219 21.4821L91.9961 21.3458C91.4543 21.1132 90.9654 20.8062 90.9654 20.1465C90.9654 19.3796 91.6439 18.9202 92.3602 18.9202C92.8852 18.9202 93.3204 19.1793 93.5794 19.6365L93.1033 19.9208ZM94.1847 1.64505C94.1847 1.75922 94.1066 1.81954 93.9483 1.81954H93.8945V1.47864H93.9521C94.1093 1.47918 94.1847 1.53304 94.1847 1.64505ZM94.649 2.54602L94.2176 2.00426C94.4018 1.95686 94.5079 1.82223 94.5079 1.63697C94.5079 1.38063 94.328 1.23576 94.0081 1.23576H93.5907V2.54602H93.8998V2.03872L94.2671 2.54602H94.649ZM95.1999 1.88847C95.1999 1.26269 94.691 0.746772 94.0733 0.746772C93.9229 0.745774 93.7739 0.774604 93.6348 0.831593C93.4956 0.888581 93.3692 0.972597 93.2628 1.07878C93.1563 1.18496 93.072 1.31119 93.0147 1.45018C92.9574 1.58916 92.9282 1.73813 92.9289 1.88847C92.9289 2.52448 93.4399 3.03178 94.0733 3.03178C94.691 3.03124 95.1999 2.51586 95.1999 1.88847ZM94.9694 1.8917C94.9694 2.40547 94.5655 2.8266 94.0679 2.8266C93.567 2.8266 93.1551 2.40762 93.1551 1.8917C93.1551 1.36986 93.5633 0.955183 94.0679 0.955183C94.5655 0.955183 94.9694 1.37632 94.9694 1.8917Z" fill="black"/>
</g>
</g>
<defs>
<clipPath id="clip0_209_9217">
<rect width="94.6713" height="24" fill="white" transform="translate(0.541016)"/>
</clipPath>
</defs>
</svg>
