<svg width="32" height="24" viewBox="0 0 32 24" fill="none" xmlns="http://www.w3.org/2000/svg">
<g id="mastercard-2 1" clip-path="url(#clip0_209_9211)">
<path id="Vector" d="M30.9332 23.6738V23.7355H30.9907C31.0015 23.7357 31.0122 23.733 31.0216 23.7277C31.0253 23.725 31.0283 23.7215 31.0303 23.7173C31.0324 23.7132 31.0333 23.7087 31.0331 23.7041C31.0333 23.6996 31.0324 23.6951 31.0303 23.6911C31.0283 23.687 31.0253 23.6836 31.0216 23.6811C31.0123 23.6755 31.0015 23.6728 30.9907 23.6732H30.9332V23.6738ZM30.9913 23.6302C31.016 23.6287 31.0404 23.6358 31.0604 23.6502C31.0685 23.6568 31.0748 23.6652 31.079 23.6747C31.0832 23.6841 31.0852 23.6945 31.0846 23.7048C31.085 23.7138 31.0835 23.7227 31.0801 23.7309C31.0768 23.7392 31.0717 23.7467 31.0652 23.7528C31.0498 23.7662 31.0304 23.7743 31.01 23.7758L31.0871 23.8637H31.0277L30.9568 23.7764H30.9338V23.8637H30.8841V23.6303H30.9921L30.9913 23.6302ZM30.9759 23.9442C31.0019 23.9445 31.0278 23.9392 31.0516 23.9288C31.0747 23.9189 31.0956 23.9047 31.1133 23.887C31.1311 23.8693 31.1453 23.8484 31.1551 23.8253C31.1754 23.7764 31.1754 23.7215 31.1551 23.6726C31.1452 23.6496 31.131 23.6287 31.1133 23.6109C31.0956 23.5932 31.0746 23.579 31.0516 23.5691C31.0276 23.5593 31.0019 23.5543 30.9759 23.5546C30.9495 23.5544 30.9233 23.5593 30.8988 23.5691C30.8752 23.5788 30.8538 23.593 30.8357 23.6109C30.8084 23.6389 30.79 23.6743 30.7826 23.7127C30.7753 23.7511 30.7794 23.7908 30.7945 23.8268C30.8039 23.85 30.8179 23.871 30.8357 23.8885C30.8538 23.9064 30.8753 23.9206 30.8988 23.9303C30.9231 23.9407 30.9494 23.946 30.9759 23.9458M30.9759 23.4985C31.0437 23.4984 31.1088 23.525 31.1571 23.5725C31.1804 23.5953 31.199 23.6225 31.2117 23.6526C31.2249 23.6834 31.2317 23.7166 31.2317 23.7501C31.2317 23.7836 31.2249 23.8168 31.2117 23.8477C31.1987 23.8775 31.1802 23.9047 31.1571 23.9277C31.1335 23.9504 31.1059 23.9687 31.0758 23.9817C31.0442 23.9951 31.0102 24.002 30.9759 24.0018C30.9412 24.002 30.9067 23.9952 30.8747 23.9817C30.8443 23.969 30.8165 23.9507 30.7928 23.9277C30.7698 23.9038 30.7515 23.8758 30.739 23.845C30.7258 23.8142 30.719 23.781 30.719 23.7475C30.719 23.714 30.7258 23.6808 30.739 23.6499C30.7517 23.6199 30.7703 23.5927 30.7936 23.5699C30.8169 23.5465 30.8448 23.5282 30.8755 23.5159C30.9075 23.5024 30.9419 23.4956 30.9767 23.4958M7.35842 22.5972C7.35842 22.1522 7.64994 21.7867 8.12639 21.7867C8.58171 21.7867 8.88896 22.1365 8.88896 22.5972C8.88896 23.0579 8.58171 23.4078 8.12639 23.4078C7.64994 23.4078 7.35842 23.0422 7.35842 22.5972ZM9.40798 22.5972V21.3309H8.85749V21.6394C8.68289 21.4114 8.41806 21.2684 8.05791 21.2684C7.34839 21.2684 6.79158 21.8249 6.79158 22.5978C6.79158 23.3708 7.34809 23.9273 8.05791 23.9273C8.41791 23.9273 8.68289 23.7841 8.85749 23.5563V23.8637H9.40737V22.5972H9.40798ZM28.0083 22.5972C28.0083 22.1522 28.2998 21.7867 28.7764 21.7867C29.2322 21.7867 29.539 22.1365 29.539 22.5972C29.539 23.0579 29.2322 23.4078 28.7764 23.4078C28.3 23.4078 28.0083 23.0422 28.0083 22.5972ZM30.0585 22.5972V20.3145H29.5075V21.6394C29.3329 21.4114 29.0681 21.2684 28.7079 21.2684C27.9984 21.2684 27.4416 21.8249 27.4416 22.5978C27.4416 23.3708 27.9981 23.9273 28.7079 23.9273C29.0681 23.9273 29.3329 23.7841 29.5075 23.5563V23.8637H30.0585V22.5972ZM16.2403 21.7606C16.595 21.7606 16.8228 21.983 16.881 22.3747H15.5675C15.6262 22.0091 15.8482 21.7606 16.2404 21.7606M16.2514 21.267C15.5095 21.267 14.9904 21.8069 14.9904 22.5965C14.9904 23.4014 15.5303 23.9259 16.2882 23.9259C16.6695 23.9259 17.0187 23.8307 17.326 23.5711L17.0562 23.1631C16.844 23.3328 16.5737 23.428 16.3197 23.428C15.9649 23.428 15.642 23.2637 15.5625 22.8079H17.4423C17.4477 22.7394 17.4532 22.6703 17.4532 22.5963C17.4477 21.8071 16.9597 21.2669 16.2511 21.2669M22.8973 22.5963C22.8973 22.1513 23.1889 21.7858 23.6653 21.7858C24.1206 21.7858 24.4279 22.1356 24.4279 22.5963C24.4279 23.057 24.1206 23.4068 23.6653 23.4068C23.1889 23.4068 22.8972 23.0413 22.8972 22.5963M24.9467 22.5963V21.3309H24.3966V21.6394C24.2213 21.4114 23.9571 21.2684 23.597 21.2684C22.8875 21.2684 22.3307 21.8249 22.3307 22.5978C22.3307 23.3708 22.8872 23.9273 23.597 23.9273C23.9571 23.9273 24.2213 23.7841 24.3966 23.5563V23.8637H24.9469V22.5972L24.9467 22.5963ZM19.7886 22.5963C19.7886 23.3643 20.3232 23.9257 21.1391 23.9257C21.5204 23.9257 21.7745 23.8409 22.0492 23.6239L21.7848 23.1789C21.5781 23.3274 21.3611 23.4068 21.1216 23.4068C20.6821 23.4014 20.359 23.0837 20.359 22.5963C20.359 22.1089 20.6821 21.7913 21.1216 21.7858C21.3605 21.7858 21.5775 21.8652 21.7848 22.0137L22.0492 21.5687C21.774 21.3517 21.52 21.2669 21.1391 21.2669C20.3232 21.2669 19.7886 21.8282 19.7886 22.5963ZM26.8853 21.2669C26.5677 21.2669 26.3608 21.4154 26.2179 21.6378V21.3309H25.6723V23.8623H26.2234V22.4433C26.2234 22.0244 26.4034 21.7916 26.7633 21.7916C26.8811 21.7899 26.9981 21.8116 27.1075 21.8553L27.2772 21.3365C27.1553 21.2885 26.9965 21.2674 26.885 21.2674M12.1296 21.5322C11.8647 21.3576 11.4998 21.2674 11.0972 21.2674C10.4559 21.2674 10.043 21.5748 10.043 22.0777C10.043 22.4905 10.3504 22.7451 10.9165 22.8246L11.1765 22.8616C11.4784 22.904 11.6209 22.9835 11.6209 23.1264C11.6209 23.3222 11.4204 23.4338 11.0439 23.4338C10.6626 23.4338 10.3874 23.312 10.2019 23.169L9.9432 23.5983C10.2451 23.8207 10.6263 23.9268 11.0392 23.9268C11.7703 23.9268 12.194 23.5825 12.194 23.1005C12.194 22.6555 11.8606 22.4228 11.3096 22.3433L11.0502 22.3057C10.8119 22.2749 10.6209 22.2269 10.6209 22.0572C10.6209 21.8721 10.8009 21.7608 11.1029 21.7608C11.4261 21.7608 11.7389 21.8826 11.8922 21.9778L12.1305 21.5328L12.1296 21.5322ZM19.2326 21.2678C18.915 21.2678 18.7081 21.4164 18.5658 21.6388V21.3309H18.0202V23.8623H18.5707V22.4433C18.5707 22.0244 18.7507 21.7916 19.1106 21.7916C19.2284 21.7899 19.3454 21.8116 19.4548 21.8553L19.6245 21.3365C19.5026 21.2885 19.3438 21.2674 19.2322 21.2674M14.535 21.3309H13.6348V20.5629H13.0783V21.3309H12.5648V21.834H13.0783V22.9888C13.0783 23.5762 13.3063 23.926 13.9575 23.926C14.1964 23.926 14.4716 23.852 14.6462 23.7303L14.4872 23.2589C14.3229 23.3541 14.1429 23.4021 13.9998 23.4021C13.7246 23.4021 13.6348 23.2324 13.6348 22.9784V21.8345H14.535V21.3309ZM6.3048 23.8629V22.2742C6.3048 21.6759 5.92351 21.2734 5.30886 21.268C4.98572 21.2626 4.6524 21.3631 4.41904 21.7184C4.24443 21.4376 3.96927 21.268 3.58243 21.268C3.31204 21.268 3.04783 21.3474 2.84099 21.6439V21.3309H2.29004V23.8623H2.84531V22.4587C2.84531 22.0193 3.08901 21.7858 3.46536 21.7858C3.83091 21.7858 4.01585 22.0241 4.01585 22.4532V23.862H4.57235V22.4584C4.57235 22.019 4.82639 21.7855 5.19179 21.7855C5.56767 21.7855 5.74706 22.0238 5.74706 22.4529V23.8617L6.3048 23.8629Z" fill="#231F20"/>
<path id="Vector_2" d="M31.2473 15.4424V15.0723H31.1509L31.0394 15.3263L30.9285 15.0723H30.8318V15.4424H30.9002V15.1636L31.0045 15.4042H31.0755L31.1797 15.163V15.4424H31.2476H31.2473ZM30.6357 15.4424V15.1357H30.7591V15.0732H30.4438V15.1357H30.5672V15.4424H30.6351H30.6357Z" fill="#F79410"/>
<path id="Vector_3" d="M20.2906 17.0314H11.9482V2.03906H20.2907L20.2906 17.0314Z" fill="#FF5F00"/>
<path id="Vector_4" d="M12.4769 9.53477C12.4769 6.49358 13.9009 3.78448 16.1183 2.03862C14.4398 0.715147 12.3639 -0.00314787 10.2264 1.03704e-05C4.96105 1.03704e-05 0.692871 4.2688 0.692871 9.53477C0.692871 14.8007 4.96105 19.0695 10.2264 19.0695C12.3639 19.0727 14.4399 18.3544 16.1184 17.0309C13.9012 15.2854 12.4769 12.5761 12.4769 9.53477Z" fill="#EB001B"/>
<path id="Vector_5" d="M31.545 9.53477C31.545 14.8007 27.2768 19.0695 22.0115 19.0695C19.8737 19.0727 17.7975 18.3544 16.1187 17.0309C18.3366 15.285 19.7606 12.5761 19.7606 9.53477C19.7606 6.49343 18.3366 3.78448 16.1187 2.03862C17.7974 0.715187 19.8736 -0.00309251 22.0113 1.00087e-05C27.2766 1.00087e-05 31.5448 4.2688 31.5448 9.53477" fill="#F79E1B"/>
</g>
<defs>
<clipPath id="clip0_209_9211">
<rect width="30.8483" height="24" fill="white" transform="translate(0.692871)"/>
</clipPath>
</defs>
</svg>
