<svg width="91" height="24" viewBox="0 0 91 24" fill="none" xmlns="http://www.w3.org/2000/svg">
<g id="paypal-3 1" clip-path="url(#clip0_209_9354)">
<path id="Vector" d="M33.8669 5.91406H28.8759C28.7106 5.91396 28.5508 5.97287 28.4252 6.08018C28.2995 6.18749 28.2163 6.33614 28.1906 6.49936L26.172 19.2977C26.1627 19.3571 26.1664 19.4178 26.1828 19.4756C26.1993 19.5335 26.228 19.587 26.2671 19.6327C26.3063 19.6783 26.3548 19.7149 26.4094 19.74C26.4641 19.7651 26.5235 19.778 26.5836 19.7779H28.9664C29.1317 19.778 29.2916 19.719 29.4173 19.6115C29.5429 19.5041 29.626 19.3553 29.6516 19.1919L30.1961 15.74C30.2216 15.5768 30.3046 15.428 30.4301 15.3206C30.5556 15.2132 30.7154 15.1541 30.8806 15.154H32.4606C35.7483 15.154 37.6458 13.563 38.1413 10.4103C38.3646 9.03101 38.1508 7.94726 37.5049 7.18828C36.7956 6.35486 35.5374 5.91406 33.8669 5.91406ZM34.4427 10.5884C34.1698 12.3793 32.8014 12.3793 31.4783 12.3793H30.7252L31.2535 9.03465C31.269 8.9368 31.3189 8.84768 31.3942 8.78333C31.4695 8.71898 31.5653 8.68363 31.6644 8.68362H32.0096C32.9109 8.68362 33.7611 8.68362 34.2004 9.1974C34.4624 9.50391 34.5427 9.9593 34.4427 10.5884ZM48.7861 10.5307H46.396C46.2969 10.5307 46.2011 10.5661 46.1258 10.6304C46.0505 10.6948 46.0006 10.7839 45.9851 10.8818L45.8793 11.5502L45.7122 11.308C45.1947 10.557 44.0409 10.306 42.8893 10.306C40.2482 10.306 37.9924 12.3063 37.5531 15.1124C37.3247 16.5121 37.6494 17.8505 38.4434 18.7839C39.1718 19.6422 40.2139 19.9998 41.4538 19.9998C43.5819 19.9998 44.762 18.6314 44.762 18.6314L44.6554 19.2955C44.6459 19.3549 44.6494 19.4156 44.6657 19.4735C44.6819 19.5314 44.7105 19.5851 44.7495 19.6309C44.7885 19.6767 44.8369 19.7135 44.8915 19.7387C44.946 19.764 45.0054 19.7771 45.0656 19.7772H47.2185C47.3838 19.7773 47.5437 19.7183 47.6694 19.6108C47.795 19.5033 47.8782 19.3545 47.9037 19.1912L49.1955 11.0109C49.205 10.9517 49.2015 10.8911 49.1853 10.8333C49.1691 10.7755 49.1405 10.722 49.1016 10.6763C49.0627 10.6307 49.0143 10.594 48.9598 10.5689C48.9053 10.5437 48.8461 10.5307 48.7861 10.5307ZM45.4546 15.1824C45.2239 16.5479 44.1402 17.4645 42.758 17.4645C42.0639 17.4645 41.5093 17.2419 41.1532 16.8201C40.7999 16.4012 40.6657 15.8049 40.778 15.1408C40.9933 13.7871 42.0953 12.8405 43.4564 12.8405C44.1351 12.8405 44.6868 13.066 45.0502 13.4915C45.4144 13.9213 45.5589 14.5212 45.4546 15.1824ZM61.5151 10.5307H59.1133C59.0001 10.5309 58.8886 10.5587 58.7885 10.6118C58.6884 10.6648 58.6028 10.7414 58.539 10.8351L55.2265 15.7144L53.8223 11.0255C53.7792 10.8825 53.6913 10.7572 53.5714 10.6681C53.4515 10.579 53.3061 10.5308 53.1568 10.5307H50.7966C50.7304 10.5306 50.665 10.5462 50.6061 10.5764C50.5471 10.6066 50.4962 10.6504 50.4575 10.7042C50.4189 10.758 50.3937 10.8203 50.384 10.8858C50.3743 10.9514 50.3804 11.0183 50.4018 11.081L53.0473 18.8445L50.5602 22.3556C50.516 22.4178 50.4898 22.491 50.4844 22.5672C50.479 22.6433 50.4947 22.7195 50.5298 22.7873C50.5648 22.8552 50.6179 22.912 50.6831 22.9517C50.7483 22.9914 50.8232 23.0124 50.8995 23.0124H53.2984C53.4104 23.0125 53.5207 22.9855 53.62 22.9336C53.7193 22.8818 53.8045 22.8066 53.8683 22.7146L61.8566 11.1839C61.8999 11.1215 61.9253 11.0485 61.9301 10.9727C61.9348 10.8969 61.9187 10.8212 61.8835 10.754C61.8483 10.6867 61.7954 10.6303 61.7304 10.5909C61.6655 10.5516 61.591 10.5308 61.5151 10.5307Z" fill="#253B80"/>
<path id="Vector_2" d="M69.4671 5.91284H64.4754C64.3102 5.91291 64.1506 5.9719 64.0251 6.07919C63.8996 6.18649 63.8165 6.33504 63.7908 6.49813L61.7722 19.2965C61.7628 19.3558 61.7664 19.4164 61.7827 19.4742C61.799 19.5319 61.8276 19.5855 61.8666 19.6311C61.9056 19.6768 61.954 19.7134 62.0085 19.7386C62.063 19.7637 62.1223 19.7767 62.1823 19.7767H64.7439C64.8595 19.7765 64.9712 19.7351 65.0589 19.6599C65.1467 19.5848 65.2048 19.4807 65.2227 19.3666L65.7955 15.7388C65.8211 15.5755 65.9041 15.4268 66.0296 15.3194C66.1551 15.2119 66.3149 15.1528 66.4801 15.1527H68.0594C71.3478 15.1527 73.2445 13.5618 73.7408 10.4091C73.9648 9.02978 73.7496 7.94604 73.1037 7.18706C72.3951 6.35363 71.1376 5.91284 69.4671 5.91284ZM70.0429 10.5872C69.7707 12.3781 68.4024 12.3781 67.0785 12.3781H66.3261L66.8552 9.03343C66.8704 8.93558 66.9201 8.84638 66.9953 8.782C67.0705 8.71761 67.1663 8.68228 67.2653 8.6824H67.6105C68.5111 8.6824 69.362 8.6824 69.8014 9.19617C70.0634 9.50269 70.1429 9.95808 70.0429 10.5872ZM84.3855 10.5295H81.9969C81.8979 10.5292 81.802 10.5645 81.7267 10.6289C81.6515 10.6933 81.6018 10.7826 81.5868 10.8805L81.481 11.549L81.3131 11.3067C80.7957 10.5558 79.6426 10.3047 78.491 10.3047C75.8499 10.3047 73.5948 12.3051 73.1555 15.1111C72.9278 16.5109 73.2511 17.8493 74.0451 18.7827C74.7749 19.641 75.8156 19.9986 77.0555 19.9986C79.1836 19.9986 80.3637 18.6302 80.3637 18.6302L80.2571 19.2943C80.2476 19.3538 80.2511 19.4147 80.2674 19.4727C80.2838 19.5307 80.3125 19.5844 80.3516 19.6302C80.3908 19.676 80.4394 19.7128 80.4942 19.738C80.5489 19.7631 80.6085 19.7761 80.6687 19.776H82.8209C82.9861 19.7759 83.1458 19.7168 83.2713 19.6093C83.3968 19.5019 83.4798 19.3532 83.5054 19.19L84.7979 11.0097C84.807 10.9503 84.8032 10.8896 84.7867 10.8317C84.7702 10.7739 84.7414 10.7204 84.7022 10.6747C84.663 10.6291 84.6144 10.5925 84.5598 10.5675C84.5051 10.5424 84.4457 10.5294 84.3855 10.5295ZM81.054 15.1812C80.8249 16.5466 79.7397 17.4633 78.3575 17.4633C77.6649 17.4633 77.1088 17.2407 76.7526 16.8189C76.3994 16.4 76.2666 15.8037 76.3775 15.1396C76.5943 13.7858 77.6948 12.8393 79.0559 12.8393C79.7346 12.8393 80.2863 13.0648 80.6497 13.4903C81.0154 13.9201 81.1599 14.52 81.054 15.1812ZM87.2033 6.26387L85.1547 19.2965C85.1454 19.3558 85.1489 19.4164 85.1652 19.4742C85.1815 19.5319 85.2101 19.5855 85.2491 19.6311C85.2881 19.6768 85.3365 19.7134 85.391 19.7386C85.4456 19.7637 85.5049 19.7767 85.5649 19.7767H87.6244C87.9666 19.7767 88.2571 19.5286 88.3096 19.1907L90.3297 6.39304C90.3391 6.33372 90.3355 6.27307 90.3192 6.21526C90.3029 6.15746 90.2743 6.10386 90.2353 6.05816C90.1964 6.01247 90.148 5.97575 90.0935 5.95054C90.0389 5.92533 89.9796 5.91222 89.9196 5.91211H87.6134C87.5144 5.91246 87.4188 5.94805 87.3436 6.01251C87.2685 6.07696 87.2187 6.16607 87.2033 6.26387Z" fill="#179BD7"/>
<path id="Vector_3" d="M5.44535 22.2634L5.82703 19.8391L4.97683 19.8194H0.916992L3.73837 1.92996C3.74677 1.8753 3.77453 1.82548 3.81659 1.78958C3.85866 1.75368 3.91222 1.73409 3.96752 1.73438H10.813C13.0855 1.73438 14.6539 2.20728 15.4727 3.14069C15.8566 3.57856 16.101 4.03614 16.2193 4.5397C16.3433 5.06807 16.3455 5.69934 16.2244 6.46927L16.2156 6.52547V7.0188L16.5995 7.23628C16.8926 7.38475 17.156 7.58559 17.3767 7.82887C17.7051 8.20326 17.9175 8.67908 18.0073 9.24321C18.1 9.8234 18.0693 10.5138 17.9175 11.2954C17.7424 12.1945 17.4592 12.9776 17.0768 13.6183C16.7394 14.1923 16.2857 14.6895 15.7449 15.0779C15.237 15.4384 14.6334 15.7121 13.9511 15.8872C13.2899 16.0595 12.536 16.1463 11.7092 16.1463H11.1764C10.7955 16.1463 10.4255 16.2835 10.135 16.5295C9.84495 16.778 9.65254 17.1215 9.59203 17.4986L9.55189 17.7168L8.87757 21.9898L8.84692 22.1467C8.83889 22.1963 8.82502 22.2211 8.80459 22.2379C8.78479 22.2541 8.7601 22.2631 8.73453 22.2634H5.44535Z" fill="#253B80"/>
<path id="Vector_4" d="M16.9627 6.58398C16.9423 6.71462 16.9189 6.84817 16.8927 6.98537C15.9899 11.6203 12.9014 13.2214 8.95691 13.2214H6.94852C6.46613 13.2214 6.05963 13.5717 5.98447 14.0476L4.95619 20.569L4.665 22.4176C4.6534 22.4909 4.65783 22.5659 4.67798 22.6373C4.69814 22.7088 4.73353 22.775 4.78174 22.8314C4.82994 22.8879 4.88981 22.9332 4.95721 22.9643C5.02462 22.9954 5.09797 23.0116 5.17221 23.0116H8.73432C9.15614 23.0116 9.51447 22.7051 9.58088 22.2891L9.61591 22.1081L10.2866 17.852L10.3296 17.6184C10.3953 17.201 10.7544 16.8945 11.1762 16.8945H11.709C15.1601 16.8945 17.8618 15.4933 18.6515 11.4386C18.9813 9.74472 18.8106 8.33038 17.9377 7.33567C17.6611 7.02796 17.3307 6.77324 16.9627 6.58398Z" fill="#179BD7"/>
<path id="Vector_5" d="M16.0183 6.2071C15.73 6.12372 15.4368 6.05863 15.1403 6.01225C14.5546 5.92222 13.9625 5.87903 13.3699 5.88307H8.00444C7.80025 5.88291 7.60274 5.95581 7.44761 6.08859C7.29248 6.22136 7.18997 6.40526 7.15861 6.60703L6.01722 13.8363L5.98438 14.0473C6.01993 13.8171 6.13669 13.6073 6.31351 13.4558C6.49034 13.3043 6.71556 13.221 6.94843 13.2211H8.95682C12.9013 13.2211 15.9898 11.6192 16.8926 6.98506C16.9196 6.84786 16.9422 6.71431 16.9626 6.58367C16.7244 6.45875 16.4762 6.35403 16.2204 6.27059C16.1534 6.24835 16.086 6.22718 16.0183 6.2071Z" fill="#222D65"/>
<path id="Vector_6" d="M7.15874 6.60695C7.18983 6.40513 7.29228 6.22115 7.44749 6.08844C7.6027 5.95573 7.80036 5.88309 8.00456 5.88373H13.37C14.0056 5.88373 14.599 5.92533 15.1405 6.0129C15.5069 6.07049 15.8683 6.15663 16.2213 6.27052C16.4877 6.35882 16.7351 6.46318 16.9635 6.5836C17.2321 4.87078 16.9613 3.70457 16.0352 2.64856C15.0142 1.486 13.1715 0.988281 10.8135 0.988281H3.96808C3.48642 0.988281 3.07555 1.33858 3.00111 1.81514L0.14981 19.8884C0.136529 19.9724 0.141582 20.0581 0.164621 20.1399C0.18766 20.2217 0.228139 20.2975 0.283273 20.3621C0.338406 20.4268 0.406886 20.4787 0.484002 20.5143C0.561118 20.55 0.64504 20.5685 0.729995 20.5686H4.95622L6.01734 13.8363L7.15874 6.60695Z" fill="#253B80"/>
</g>
<defs>
<clipPath id="clip0_209_9354">
<rect width="90.2256" height="24" fill="white" transform="translate(0.123047)"/>
</clipPath>
</defs>
</svg>
