<svg width="80" height="24" viewBox="0 0 80 24" fill="none" xmlns="http://www.w3.org/2000/svg">
<mask id="mask0_209_9362" style="mask-type:alpha" maskUnits="userSpaceOnUse" x="0" y="0" width="25" height="24">
<rect x="0.521973" width="24" height="24" fill="#D9D9D9"/>
</mask>
<g mask="url(#mask0_209_9362)">
<path d="M6.52197 22C5.97197 22 5.50114 21.8042 5.10947 21.4125C4.71781 21.0208 4.52197 20.55 4.52197 20V10C4.52197 9.45 4.71781 8.97917 5.10947 8.5875C5.50114 8.19583 5.97197 8 6.52197 8H7.52197V6C7.52197 4.61667 8.00947 3.4375 8.98447 2.4625C9.95947 1.4875 11.1386 1 12.522 1C13.9053 1 15.0845 1.4875 16.0595 2.4625C17.0345 3.4375 17.522 4.61667 17.522 6V8H18.522C19.072 8 19.5428 8.19583 19.9345 8.5875C20.3261 8.97917 20.522 9.45 20.522 10V20C20.522 20.55 20.3261 21.0208 19.9345 21.4125C19.5428 21.8042 19.072 22 18.522 22H6.52197ZM12.522 17C13.072 17 13.5428 16.8042 13.9345 16.4125C14.3261 16.0208 14.522 15.55 14.522 15C14.522 14.45 14.3261 13.9792 13.9345 13.5875C13.5428 13.1958 13.072 13 12.522 13C11.972 13 11.5011 13.1958 11.1095 13.5875C10.7178 13.9792 10.522 14.45 10.522 15C10.522 15.55 10.7178 16.0208 11.1095 16.4125C11.5011 16.8042 11.972 17 12.522 17ZM9.52197 8H15.522V6C15.522 5.16667 15.2303 4.45833 14.647 3.875C14.0636 3.29167 13.3553 3 12.522 3C11.6886 3 10.9803 3.29167 10.397 3.875C9.81364 4.45833 9.52197 5.16667 9.52197 6V8Z" fill="#0A2E31"/>
</g>
<path d="M72.0298 12.7069V2.29688H73.4398V12.7069H72.0298ZM72.9898 12.7069V11.4169H78.9598V12.7069H72.9898ZM72.9898 7.99687V6.76687H78.4648V7.99687H72.9898ZM72.9898 3.58687V2.29688H78.8848V3.58687H72.9898Z" fill="#0A2E31"/>
<path d="M63.7316 8.17687V6.99187H66.5516C67.1616 6.99187 67.6316 6.83687 67.9616 6.52687C68.2916 6.21687 68.4566 5.79687 68.4566 5.26687C68.4566 4.76687 68.2916 4.35187 67.9616 4.02187C67.6416 3.69187 67.1766 3.52687 66.5666 3.52687H63.7316V2.29688H66.6116C67.2716 2.29688 67.8466 2.42687 68.3366 2.68687C68.8266 2.93687 69.2016 3.28187 69.4616 3.72187C69.7316 4.16187 69.8666 4.66687 69.8666 5.23687C69.8666 5.82687 69.7316 6.34187 69.4616 6.78187C69.2016 7.22187 68.8266 7.56687 68.3366 7.81687C67.8466 8.05687 67.2716 8.17687 66.6116 8.17687H63.7316ZM62.7866 12.7069V2.29688H64.1966V12.7069H62.7866ZM68.7866 12.7069L65.0066 8.04187L66.3416 7.57687L70.5716 12.7069H68.7866Z" fill="#0A2E31"/>
<path d="M56.4472 12.8569C55.6772 12.8569 54.9872 12.6869 54.3772 12.3469C53.7772 11.9969 53.3022 11.5219 52.9522 10.9219C52.6022 10.3119 52.4272 9.62188 52.4272 8.85188V2.29688H53.8372V8.82187C53.8372 9.37187 53.9522 9.84687 54.1822 10.2469C54.4122 10.6469 54.7222 10.9569 55.1122 11.1769C55.5122 11.3969 55.9572 11.5069 56.4472 11.5069C56.9572 11.5069 57.4022 11.3969 57.7822 11.1769C58.1722 10.9569 58.4772 10.6469 58.6972 10.2469C58.9272 9.84687 59.0422 9.37687 59.0422 8.83687V2.29688H60.4672V8.86687C60.4672 9.63687 60.2922 10.3219 59.9422 10.9219C59.5922 11.5219 59.1172 11.9969 58.5172 12.3469C57.9172 12.6869 57.2272 12.8569 56.4472 12.8569Z" fill="#0A2E31"/>
<path d="M46.9453 12.8565C46.1953 12.8565 45.5003 12.7215 44.8603 12.4515C44.2203 12.1715 43.6603 11.7865 43.1803 11.2965C42.7103 10.8065 42.3453 10.2365 42.0853 9.58649C41.8253 8.93649 41.6953 8.24149 41.6953 7.50149C41.6953 6.75149 41.8253 6.05149 42.0853 5.40148C42.3453 4.75148 42.7103 4.18648 43.1803 3.70648C43.6603 3.21648 44.2153 2.83648 44.8453 2.56648C45.4853 2.28648 46.1803 2.14648 46.9303 2.14648C47.7503 2.14648 48.4703 2.28648 49.0903 2.56648C49.7103 2.84649 50.2603 3.22649 50.7403 3.70648L49.7653 4.68148C49.4353 4.31148 49.0303 4.02148 48.5503 3.81148C48.0803 3.60148 47.5403 3.49648 46.9303 3.49648C46.3803 3.49648 45.8753 3.59648 45.4153 3.79648C44.9553 3.98648 44.5553 4.26148 44.2153 4.62148C43.8753 4.98148 43.6103 5.40648 43.4203 5.89648C43.2403 6.38648 43.1503 6.92148 43.1503 7.50149C43.1503 8.08149 43.2403 8.61649 43.4203 9.10648C43.6103 9.59648 43.8753 10.0215 44.2153 10.3815C44.5553 10.7415 44.9553 11.0215 45.4153 11.2215C45.8753 11.4115 46.3803 11.5065 46.9303 11.5065C47.5803 11.5065 48.1453 11.4015 48.6253 11.1915C49.1053 10.9715 49.5103 10.6765 49.8403 10.3065L50.8153 11.2665C50.3353 11.7665 49.7703 12.1565 49.1203 12.4365C48.4803 12.7165 47.7553 12.8565 46.9453 12.8565Z" fill="#0A2E31"/>
<path d="M33.5923 12.7069V2.29688H35.0023V12.7069H33.5923ZM34.5523 12.7069V11.4169H40.5223V12.7069H34.5523ZM34.5523 7.99687V6.76687H40.0273V7.99687H34.5523ZM34.5523 3.58687V2.29688H40.4473V3.58687H34.5523Z" fill="#0A2E31"/>
<path d="M28.167 12.8565C27.347 12.8565 26.647 12.7065 26.067 12.4065C25.487 12.1065 24.972 11.6715 24.522 11.1015L25.482 10.1415C25.812 10.6015 26.192 10.9515 26.622 11.1915C27.052 11.4215 27.582 11.5365 28.212 11.5365C28.832 11.5365 29.327 11.4015 29.697 11.1315C30.077 10.8615 30.267 10.4915 30.267 10.0215C30.267 9.63148 30.177 9.31649 29.997 9.07649C29.817 8.83649 29.572 8.64149 29.262 8.49149C28.962 8.33149 28.632 8.19148 28.272 8.07149C27.912 7.94148 27.552 7.80649 27.192 7.66649C26.832 7.51649 26.502 7.33649 26.202 7.12649C25.902 6.90649 25.657 6.62148 25.467 6.27148C25.287 5.92148 25.197 5.48149 25.197 4.95149C25.197 4.36149 25.337 3.86148 25.617 3.45148C25.907 3.03148 26.297 2.71148 26.787 2.49148C27.287 2.26148 27.847 2.14648 28.467 2.14648C29.147 2.14648 29.757 2.28148 30.297 2.55148C30.837 2.81148 31.277 3.15648 31.617 3.58648L30.657 4.54648C30.347 4.18648 30.012 3.91648 29.652 3.73648C29.302 3.55648 28.897 3.46648 28.437 3.46648C27.877 3.46648 27.432 3.59148 27.102 3.84149C26.772 4.08148 26.607 4.42148 26.607 4.86149C26.607 5.21148 26.697 5.49648 26.877 5.71648C27.067 5.92648 27.312 6.10649 27.612 6.25649C27.912 6.40649 28.242 6.54649 28.602 6.67649C28.972 6.79649 29.337 6.93149 29.697 7.08149C30.057 7.23149 30.387 7.42148 30.687 7.65148C30.987 7.88148 31.227 8.18149 31.407 8.55149C31.597 8.91149 31.692 9.36649 31.692 9.91649C31.692 10.8365 31.372 11.5565 30.732 12.0765C30.102 12.5965 29.247 12.8565 28.167 12.8565Z" fill="#0A2E31"/>
<path d="M76.0186 21.7848V16.9268H76.4806L76.6766 17.6898V21.7848H76.0186ZM79.3786 21.7848L76.3966 17.8018L76.4806 16.9268L79.4696 20.9028L79.3786 21.7848ZM79.3786 21.7848L79.1826 21.0638V16.9268H79.8406V21.7848H79.3786Z" fill="#0A2E31"/>
<path d="M72.6728 21.8544C72.3275 21.8544 72.0055 21.7914 71.7068 21.6654C71.4082 21.5348 71.1468 21.3551 70.9228 21.1264C70.6988 20.8931 70.5238 20.6248 70.3978 20.3214C70.2765 20.0181 70.2158 19.6938 70.2158 19.3484C70.2158 18.9984 70.2765 18.6741 70.3978 18.3754C70.5238 18.0721 70.6965 17.8061 70.9158 17.5774C71.1398 17.3488 71.3988 17.1714 71.6928 17.0454C71.9915 16.9194 72.3135 16.8564 72.6588 16.8564C73.0042 16.8564 73.3238 16.9194 73.6178 17.0454C73.9165 17.1714 74.1778 17.3488 74.4018 17.5774C74.6258 17.8061 74.8008 18.0721 74.9268 18.3754C75.0528 18.6788 75.1158 19.0054 75.1158 19.3554C75.1158 19.7008 75.0528 20.0251 74.9268 20.3284C74.8008 20.6318 74.6258 20.8978 74.4018 21.1264C74.1825 21.3551 73.9235 21.5348 73.6248 21.6654C73.3308 21.7914 73.0135 21.8544 72.6728 21.8544ZM72.6588 21.2244C73.0088 21.2244 73.3145 21.1451 73.5758 20.9864C73.8418 20.8231 74.0518 20.6014 74.2058 20.3214C74.3598 20.0368 74.4368 19.7124 74.4368 19.3484C74.4368 19.0778 74.3925 18.8304 74.3038 18.6064C74.2152 18.3778 74.0915 18.1794 73.9328 18.0114C73.7742 17.8434 73.5875 17.7151 73.3728 17.6264C73.1582 17.5331 72.9202 17.4864 72.6588 17.4864C72.3135 17.4864 72.0078 17.5658 71.7418 17.7244C71.4805 17.8831 71.2728 18.1024 71.1188 18.3824C70.9695 18.6624 70.8948 18.9844 70.8948 19.3484C70.8948 19.6191 70.9368 19.8711 71.0208 20.1044C71.1095 20.3331 71.2308 20.5314 71.3848 20.6994C71.5435 20.8628 71.7302 20.9911 71.9448 21.0844C72.1642 21.1778 72.4022 21.2244 72.6588 21.2244Z" fill="#0A2E31"/>
<path d="M68.6562 21.7848V16.9268H69.3142V21.7848H68.6562Z" fill="#0A2E31"/>
<path d="M65.569 21.7848V17.0668H66.227V21.7848H65.569ZM63.917 17.5288V16.9268H67.872V17.5288H63.917Z" fill="#0A2E31"/>
<path d="M60.6275 19.8948V19.3208H61.9505C62.1325 19.3208 62.2935 19.2834 62.4335 19.2088C62.5782 19.1341 62.6902 19.0291 62.7695 18.8938C62.8535 18.7584 62.8955 18.5974 62.8955 18.4108C62.8955 18.2241 62.8535 18.0631 62.7695 17.9278C62.6902 17.7924 62.5782 17.6874 62.4335 17.6128C62.2935 17.5381 62.1325 17.5008 61.9505 17.5008H60.6275V16.9268H61.9925C62.2912 16.9268 62.5572 16.9874 62.7905 17.1088C63.0285 17.2301 63.2152 17.4028 63.3505 17.6268C63.4905 17.8461 63.5605 18.1074 63.5605 18.4108C63.5605 18.7094 63.4905 18.9708 63.3505 19.1948C63.2152 19.4141 63.0285 19.5868 62.7905 19.7128C62.5572 19.8341 62.2912 19.8948 61.9925 19.8948H60.6275ZM60.1865 21.7848V16.9268H60.8445V21.7848H60.1865Z" fill="#0A2E31"/>
<path d="M57.2421 19.8108L55.3311 16.9268H56.0941L57.6341 19.2858H57.2911L58.8381 16.9268H59.5871L57.6621 19.8108H57.2421ZM57.1301 21.7848V19.3768H57.7881V21.7848H57.1301Z" fill="#0A2E31"/>
<path d="M52.1373 19.6708V19.1178H53.4533C53.738 19.1178 53.9573 19.0454 54.1113 18.9008C54.2653 18.7561 54.3423 18.5601 54.3423 18.3128C54.3423 18.0794 54.2653 17.8858 54.1113 17.7318C53.962 17.5778 53.745 17.5008 53.4603 17.5008H52.1373V16.9268H53.4813C53.7893 16.9268 54.0576 16.9874 54.2863 17.1088C54.515 17.2254 54.69 17.3864 54.8113 17.5918C54.9373 17.7971 55.0003 18.0328 55.0003 18.2988C55.0003 18.5741 54.9373 18.8144 54.8113 19.0198C54.69 19.2251 54.515 19.3861 54.2863 19.5028C54.0576 19.6148 53.7893 19.6708 53.4813 19.6708H52.1373ZM51.6963 21.7848V16.9268H52.3543V21.7848H51.6963ZM54.4963 21.7848L52.7323 19.6078L53.3553 19.3908L55.3293 21.7848H54.4963Z" fill="#0A2E31"/>
<path d="M49.0818 21.8544C48.7318 21.8544 48.4075 21.7914 48.1088 21.6654C47.8102 21.5348 47.5488 21.3551 47.3248 21.1264C47.1055 20.8978 46.9352 20.6318 46.8138 20.3284C46.6925 20.0251 46.6318 19.7008 46.6318 19.3554C46.6318 19.0054 46.6925 18.6788 46.8138 18.3754C46.9352 18.0721 47.1055 17.8084 47.3248 17.5844C47.5488 17.3558 47.8078 17.1784 48.1018 17.0524C48.4005 16.9218 48.7248 16.8564 49.0748 16.8564C49.4575 16.8564 49.7935 16.9218 50.0828 17.0524C50.3722 17.1831 50.6288 17.3604 50.8528 17.5844L50.3978 18.0394C50.2438 17.8668 50.0548 17.7314 49.8308 17.6334C49.6115 17.5354 49.3595 17.4864 49.0748 17.4864C48.8182 17.4864 48.5825 17.5331 48.3678 17.6264C48.1532 17.7151 47.9665 17.8434 47.8078 18.0114C47.6492 18.1794 47.5255 18.3778 47.4368 18.6064C47.3528 18.8351 47.3108 19.0848 47.3108 19.3554C47.3108 19.6261 47.3528 19.8758 47.4368 20.1044C47.5255 20.3331 47.6492 20.5314 47.8078 20.6994C47.9665 20.8674 48.1532 20.9981 48.3678 21.0914C48.5825 21.1801 48.8182 21.2244 49.0748 21.2244C49.3782 21.2244 49.6418 21.1754 49.8658 21.0774C50.0898 20.9748 50.2788 20.8371 50.4328 20.6644L50.8878 21.1124C50.6638 21.3458 50.4002 21.5278 50.0968 21.6584C49.7982 21.7891 49.4598 21.8544 49.0818 21.8544Z" fill="#0A2E31"/>
<path d="M41.9072 21.7848V16.9268H42.3692L42.5652 17.6898V21.7848H41.9072ZM45.2672 21.7848L42.2852 17.8018L42.3692 16.9268L45.3582 20.9028L45.2672 21.7848ZM45.2672 21.7848L45.0712 21.0638V16.9268H45.7292V21.7848H45.2672Z" fill="#0A2E31"/>
<path d="M37.7783 21.7848V16.9268H38.4363V21.7848H37.7783ZM38.2263 21.7848V21.1828H41.0123V21.7848H38.2263ZM38.2263 19.5868V19.0128H40.7813V19.5868H38.2263ZM38.2263 17.5288V16.9268H40.9773V17.5288H38.2263Z" fill="#0A2E31"/>
<path d="M32.5146 21.7848V16.9268H33.1726V21.7848H32.5146ZM32.9626 21.7848V21.1828H35.5666V21.7848H32.9626Z" fill="#0A2E31"/>
<path d="M29.9827 21.8544C29.6001 21.8544 29.2734 21.7844 29.0027 21.6444C28.7321 21.5044 28.4917 21.3014 28.2817 21.0354L28.7297 20.5874C28.8837 20.8021 29.0611 20.9654 29.2617 21.0774C29.4624 21.1848 29.7097 21.2384 30.0037 21.2384C30.2931 21.2384 30.5241 21.1754 30.6967 21.0494C30.8741 20.9234 30.9627 20.7508 30.9627 20.5314C30.9627 20.3494 30.9207 20.2024 30.8367 20.0904C30.7527 19.9784 30.6384 19.8874 30.4937 19.8174C30.3537 19.7428 30.1997 19.6774 30.0317 19.6214C29.8637 19.5608 29.6957 19.4978 29.5277 19.4324C29.3597 19.3624 29.2057 19.2784 29.0657 19.1804C28.9257 19.0778 28.8114 18.9448 28.7227 18.7814C28.6387 18.6181 28.5967 18.4128 28.5967 18.1654C28.5967 17.8901 28.6621 17.6568 28.7927 17.4654C28.9281 17.2694 29.1101 17.1201 29.3387 17.0174C29.5721 16.9101 29.8334 16.8564 30.1227 16.8564C30.4401 16.8564 30.7247 16.9194 30.9767 17.0454C31.2287 17.1668 31.4341 17.3278 31.5927 17.5284L31.1447 17.9764C31.0001 17.8084 30.8437 17.6824 30.6757 17.5984C30.5124 17.5144 30.3234 17.4724 30.1087 17.4724C29.8474 17.4724 29.6397 17.5308 29.4857 17.6474C29.3317 17.7594 29.2547 17.9181 29.2547 18.1234C29.2547 18.2868 29.2967 18.4198 29.3807 18.5224C29.4694 18.6204 29.5837 18.7044 29.7237 18.7744C29.8637 18.8444 30.0177 18.9098 30.1857 18.9704C30.3584 19.0264 30.5287 19.0894 30.6967 19.1594C30.8647 19.2294 31.0187 19.3181 31.1587 19.4254C31.2987 19.5328 31.4107 19.6728 31.4947 19.8454C31.5834 20.0134 31.6277 20.2258 31.6277 20.4824C31.6277 20.9118 31.4784 21.2478 31.1797 21.4904C30.8857 21.7331 30.4867 21.8544 29.9827 21.8544Z" fill="#0A2E31"/>
<path d="M26.223 21.8544C25.8403 21.8544 25.5136 21.7844 25.243 21.6444C24.9723 21.5044 24.732 21.3014 24.522 21.0354L24.97 20.5874C25.124 20.8021 25.3013 20.9654 25.502 21.0774C25.7026 21.1848 25.95 21.2384 26.244 21.2384C26.5333 21.2384 26.7643 21.1754 26.937 21.0494C27.1143 20.9234 27.203 20.7508 27.203 20.5314C27.203 20.3494 27.161 20.2024 27.077 20.0904C26.993 19.9784 26.8786 19.8874 26.734 19.8174C26.594 19.7428 26.44 19.6774 26.272 19.6214C26.104 19.5608 25.936 19.4978 25.768 19.4324C25.6 19.3624 25.446 19.2784 25.306 19.1804C25.166 19.0778 25.0516 18.9448 24.963 18.7814C24.879 18.6181 24.837 18.4128 24.837 18.1654C24.837 17.8901 24.9023 17.6568 25.033 17.4654C25.1683 17.2694 25.3503 17.1201 25.579 17.0174C25.8123 16.9101 26.0736 16.8564 26.363 16.8564C26.6803 16.8564 26.965 16.9194 27.217 17.0454C27.469 17.1668 27.6743 17.3278 27.833 17.5284L27.385 17.9764C27.2403 17.8084 27.084 17.6824 26.916 17.5984C26.7526 17.5144 26.5636 17.4724 26.349 17.4724C26.0876 17.4724 25.88 17.5308 25.726 17.6474C25.572 17.7594 25.495 17.9181 25.495 18.1234C25.495 18.2868 25.537 18.4198 25.621 18.5224C25.7096 18.6204 25.824 18.7044 25.964 18.7744C26.104 18.8444 26.258 18.9098 26.426 18.9704C26.5986 19.0264 26.769 19.0894 26.937 19.1594C27.105 19.2294 27.259 19.3181 27.399 19.4254C27.539 19.5328 27.651 19.6728 27.735 19.8454C27.8236 20.0134 27.868 20.2258 27.868 20.4824C27.868 20.9118 27.7186 21.2478 27.42 21.4904C27.126 21.7331 26.727 21.8544 26.223 21.8544Z" fill="#0A2E31"/>
</svg>
