<svg width="75" height="24" viewBox="0 0 75 24" fill="none" xmlns="http://www.w3.org/2000/svg">
<g clip-path="url(#clip0_209_9206)">
<path d="M32.7494 23.61H26.7079L30.4837 0.404878H36.5259L32.7494 23.61ZM21.6254 0.404878L15.8657 16.3656L15.1841 12.9286L15.1847 12.9299L13.1519 2.49424C13.1519 2.49424 12.9061 0.404878 10.286 0.404878H0.764074L0.652344 0.797796C0.652344 0.797796 3.56416 1.40362 6.97194 3.45015L12.2208 23.6107H18.5156L28.1275 0.404878H21.6254ZM69.145 23.61H74.6924L69.8557 0.404258H64.9991C62.7565 0.404258 62.2102 2.1336 62.2102 2.1336L53.1998 23.61H59.4977L60.7571 20.1632H68.4373L69.145 23.61ZM62.497 15.4016L65.6714 6.71765L67.4572 15.4016H62.497ZM53.6722 5.98519L54.5343 1.00201C54.5343 1.00201 51.8739 -0.00976562 49.1005 -0.00976562C46.1024 -0.00976562 38.9827 1.30058 38.9827 7.67232C38.9827 13.6673 47.3389 13.7418 47.3389 16.8907C47.3389 20.0396 39.8437 19.4754 37.3701 17.4897L36.4719 22.7001C36.4719 22.7001 39.1695 24.0104 43.2912 24.0104C47.414 24.0104 53.6337 21.8757 53.6337 16.0658C53.6337 10.0323 45.2024 9.47056 45.2024 6.84738C45.203 4.22358 51.0868 4.56063 53.6722 5.98519Z" fill="#2566AF"/>
<path d="M15.1847 12.9293L13.1519 2.49365C13.1519 2.49365 12.9061 0.404297 10.286 0.404297H0.764074L0.652344 0.797215C0.652344 0.797215 5.22895 1.74568 9.61871 5.29933C13.816 8.69593 15.1847 12.9293 15.1847 12.9293Z" fill="#E6A540"/>
</g>
<defs>
<clipPath id="clip0_209_9206">
<rect width="74.0411" height="24" fill="white" transform="translate(0.651855)"/>
</clipPath>
</defs>
</svg>
