<svg width="20" height="20" viewBox="0 0 20 20" fill="none" xmlns="http://www.w3.org/2000/svg">
<mask id="mask0_81_8214" style="mask-type:alpha" maskUnits="userSpaceOnUse" x="0" y="0" width="20" height="20">
<rect width="20" height="20" fill="#D9D9D9"/>
</mask>
<g mask="url(#mask0_81_8214)">
<path d="M14.7916 16.875C13.9166 16.875 13.177 16.5729 12.5728 15.9688C11.9687 15.3646 11.6666 14.625 11.6666 13.75C11.6666 12.875 11.9687 12.1354 12.5728 11.5313C13.177 10.9271 13.9166 10.625 14.7916 10.625C15.6666 10.625 16.4062 10.9271 17.0103 11.5313C17.6145 12.1354 17.9166 12.875 17.9166 13.75C17.9166 14.625 17.6145 15.3646 17.0103 15.9688C16.4062 16.5729 15.6666 16.875 14.7916 16.875ZM3.33325 14.5833V12.9167H9.99992V14.5833H3.33325ZM5.20825 9.375C4.33325 9.375 3.59367 9.07292 2.9895 8.46875C2.38534 7.86458 2.08325 7.125 2.08325 6.25C2.08325 5.375 2.38534 4.63542 2.9895 4.03125C3.59367 3.42708 4.33325 3.125 5.20825 3.125C6.08325 3.125 6.82284 3.42708 7.427 4.03125C8.03117 4.63542 8.33325 5.375 8.33325 6.25C8.33325 7.125 8.03117 7.86458 7.427 8.46875C6.82284 9.07292 6.08325 9.375 5.20825 9.375ZM9.99992 7.08333V5.41667H16.6666V7.08333H9.99992Z" fill="#1C1B1F"/>
</g>
</svg>
