<svg width="20" height="20" viewBox="0 0 20 20" fill="none" xmlns="http://www.w3.org/2000/svg">
<mask id="mask0_81_8218" style="mask-type:alpha" maskUnits="userSpaceOnUse" x="0" y="0" width="20" height="20">
<rect width="20" height="20" fill="#D9D9D9"/>
</mask>
<g mask="url(#mask0_81_8218)">
<path d="M5 18.3337C4.30556 18.3337 3.71528 18.0906 3.22917 17.6045C2.74306 17.1184 2.5 16.5281 2.5 15.8337V13.3337H5V1.66699L6.25 2.91699L7.5 1.66699L8.75 2.91699L10 1.66699L11.25 2.91699L12.5 1.66699L13.75 2.91699L15 1.66699L16.25 2.91699L17.5 1.66699V15.8337C17.5 16.5281 17.2569 17.1184 16.7708 17.6045C16.2847 18.0906 15.6944 18.3337 15 18.3337H5ZM15 16.667C15.2361 16.667 15.434 16.5871 15.5938 16.4274C15.7535 16.2677 15.8333 16.0698 15.8333 15.8337V4.16699H6.66667V13.3337H14.1667V15.8337C14.1667 16.0698 14.2465 16.2677 14.4063 16.4274C14.566 16.5871 14.7639 16.667 15 16.667ZM7.5 7.50033V5.83366H12.5V7.50033H7.5ZM7.5 10.0003V8.33366H12.5V10.0003H7.5ZM14.1667 7.50033C13.9306 7.50033 13.7326 7.42046 13.5729 7.26074C13.4132 7.10102 13.3333 6.9031 13.3333 6.66699C13.3333 6.43088 13.4132 6.23296 13.5729 6.07324C13.7326 5.91352 13.9306 5.83366 14.1667 5.83366C14.4028 5.83366 14.6007 5.91352 14.7604 6.07324C14.9201 6.23296 15 6.43088 15 6.66699C15 6.9031 14.9201 7.10102 14.7604 7.26074C14.6007 7.42046 14.4028 7.50033 14.1667 7.50033ZM14.1667 10.0003C13.9306 10.0003 13.7326 9.92047 13.5729 9.76074C13.4132 9.60102 13.3333 9.4031 13.3333 9.16699C13.3333 8.93088 13.4132 8.73297 13.5729 8.57324C13.7326 8.41352 13.9306 8.33366 14.1667 8.33366C14.4028 8.33366 14.6007 8.41352 14.7604 8.57324C14.9201 8.73297 15 8.93088 15 9.16699C15 9.4031 14.9201 9.60102 14.7604 9.76074C14.6007 9.92047 14.4028 10.0003 14.1667 10.0003Z" fill="#1C1B1F"/>
</g>
</svg>
