<svg width="20" height="20" viewBox="0 0 20 20" fill="none" xmlns="http://www.w3.org/2000/svg">
<mask id="mask0_81_8226" style="mask-type:alpha" maskUnits="userSpaceOnUse" x="0" y="0" width="20" height="20">
<rect width="20" height="20" fill="#D9D9D9"/>
</mask>
<g mask="url(#mask0_81_8226)">
<path d="M5.83341 11.2503C6.18064 11.2503 6.47578 11.1288 6.71883 10.8857C6.96189 10.6427 7.08341 10.3475 7.08341 10.0003C7.08341 9.6531 6.96189 9.35796 6.71883 9.11491C6.47578 8.87185 6.18064 8.75033 5.83341 8.75033C5.48619 8.75033 5.19105 8.87185 4.948 9.11491C4.70494 9.35796 4.58341 9.6531 4.58341 10.0003C4.58341 10.3475 4.70494 10.6427 4.948 10.8857C5.19105 11.1288 5.48619 11.2503 5.83341 11.2503ZM10.0001 11.2503C10.3473 11.2503 10.6424 11.1288 10.8855 10.8857C11.1286 10.6427 11.2501 10.3475 11.2501 10.0003C11.2501 9.6531 11.1286 9.35796 10.8855 9.11491C10.6424 8.87185 10.3473 8.75033 10.0001 8.75033C9.65286 8.75033 9.35772 8.87185 9.11467 9.11491C8.87161 9.35796 8.75008 9.6531 8.75008 10.0003C8.75008 10.3475 8.87161 10.6427 9.11467 10.8857C9.35772 11.1288 9.65286 11.2503 10.0001 11.2503ZM14.1667 11.2503C14.514 11.2503 14.8091 11.1288 15.0522 10.8857C15.2952 10.6427 15.4167 10.3475 15.4167 10.0003C15.4167 9.6531 15.2952 9.35796 15.0522 9.11491C14.8091 8.87185 14.514 8.75033 14.1667 8.75033C13.8195 8.75033 13.5244 8.87185 13.2813 9.11491C13.0383 9.35796 12.9167 9.6531 12.9167 10.0003C12.9167 10.3475 13.0383 10.6427 13.2813 10.8857C13.5244 11.1288 13.8195 11.2503 14.1667 11.2503ZM10.0001 18.3337C8.8473 18.3337 7.76397 18.1149 6.75008 17.6774C5.73619 17.2399 4.85425 16.6462 4.10425 15.8962C3.35425 15.1462 2.7605 14.2642 2.323 13.2503C1.8855 12.2364 1.66675 11.1531 1.66675 10.0003C1.66675 8.84755 1.8855 7.76421 2.323 6.75033C2.7605 5.73644 3.35425 4.85449 4.10425 4.10449C4.85425 3.35449 5.73619 2.76074 6.75008 2.32324C7.76397 1.88574 8.8473 1.66699 10.0001 1.66699C11.1529 1.66699 12.2362 1.88574 13.2501 2.32324C14.264 2.76074 15.1459 3.35449 15.8959 4.10449C16.6459 4.85449 17.2397 5.73644 17.6772 6.75033C18.1147 7.76421 18.3334 8.84755 18.3334 10.0003C18.3334 11.1531 18.1147 12.2364 17.6772 13.2503C17.2397 14.2642 16.6459 15.1462 15.8959 15.8962C15.1459 16.6462 14.264 17.2399 13.2501 17.6774C12.2362 18.1149 11.1529 18.3337 10.0001 18.3337Z" fill="#090C05"/>
</g>
</svg>
