<svg width="20" height="20" viewBox="0 0 20 20" fill="none" xmlns="http://www.w3.org/2000/svg">
<mask id="mask0_81_8222" style="mask-type:alpha" maskUnits="userSpaceOnUse" x="0" y="0" width="20" height="20">
<rect width="20" height="20" fill="#D9D9D9"/>
</mask>
<g mask="url(#mask0_81_8222)">
<path d="M0.833252 16.6663V13.333C0.833252 12.8608 0.996446 12.465 1.32284 12.1455C1.64922 11.8261 2.04159 11.6663 2.49992 11.6663H5.22908C5.50686 11.6663 5.77075 11.7358 6.02075 11.8747C6.27075 12.0136 6.47214 12.2011 6.62492 12.4372C7.0277 12.9788 7.52422 13.4025 8.1145 13.708C8.70478 14.0136 9.33325 14.1663 9.99992 14.1663C10.6805 14.1663 11.3159 14.0136 11.9062 13.708C12.4964 13.4025 12.986 12.9788 13.3749 12.4372C13.5555 12.2011 13.7673 12.0136 14.0103 11.8747C14.2534 11.7358 14.5069 11.6663 14.7708 11.6663H17.4999C17.9721 11.6663 18.368 11.8261 18.6874 12.1455C19.0069 12.465 19.1666 12.8608 19.1666 13.333V16.6663H13.3333V14.7705C12.8471 15.1177 12.3228 15.3816 11.7603 15.5622C11.1978 15.7427 10.611 15.833 9.99992 15.833C9.4027 15.833 8.81936 15.7393 8.24992 15.5518C7.68047 15.3643 7.1527 15.0969 6.66658 14.7497V16.6663H0.833252ZM9.99992 13.333C9.47214 13.333 8.97214 13.2115 8.49992 12.9684C8.0277 12.7254 7.63186 12.3886 7.31242 11.958C7.07631 11.6108 6.78117 11.3365 6.427 11.1351C6.07283 10.9337 5.68742 10.833 5.27075 10.833C5.57631 10.3191 6.22214 9.91287 7.20825 9.61426C8.19436 9.31565 9.12492 9.16634 9.99992 9.16634C10.8749 9.16634 11.8055 9.31565 12.7916 9.61426C13.7777 9.91287 14.4235 10.3191 14.7291 10.833C14.3263 10.833 13.9444 10.9337 13.5833 11.1351C13.2221 11.3365 12.9235 11.6108 12.6874 11.958C12.3819 12.4025 11.993 12.7427 11.5208 12.9788C11.0485 13.215 10.5416 13.333 9.99992 13.333ZM3.33325 10.833C2.63881 10.833 2.04853 10.59 1.56242 10.1038C1.07631 9.61773 0.833252 9.02745 0.833252 8.33301C0.833252 7.62467 1.07631 7.03092 1.56242 6.55176C2.04853 6.07259 2.63881 5.83301 3.33325 5.83301C4.04159 5.83301 4.63534 6.07259 5.1145 6.55176C5.59367 7.03092 5.83325 7.62467 5.83325 8.33301C5.83325 9.02745 5.59367 9.61773 5.1145 10.1038C4.63534 10.59 4.04159 10.833 3.33325 10.833ZM16.6666 10.833C15.9721 10.833 15.3819 10.59 14.8958 10.1038C14.4096 9.61773 14.1666 9.02745 14.1666 8.33301C14.1666 7.62467 14.4096 7.03092 14.8958 6.55176C15.3819 6.07259 15.9721 5.83301 16.6666 5.83301C17.3749 5.83301 17.9687 6.07259 18.4478 6.55176C18.927 7.03092 19.1666 7.62467 19.1666 8.33301C19.1666 9.02745 18.927 9.61773 18.4478 10.1038C17.9687 10.59 17.3749 10.833 16.6666 10.833ZM9.99992 8.33301C9.30547 8.33301 8.7152 8.08995 8.22908 7.60384C7.74297 7.11773 7.49992 6.52745 7.49992 5.83301C7.49992 5.12467 7.74297 4.53092 8.22908 4.05176C8.7152 3.57259 9.30547 3.33301 9.99992 3.33301C10.7083 3.33301 11.302 3.57259 11.7812 4.05176C12.2603 4.53092 12.4999 5.12467 12.4999 5.83301C12.4999 6.52745 12.2603 7.11773 11.7812 7.60384C11.302 8.08995 10.7083 8.33301 9.99992 8.33301Z" fill="#090C05"/>
</g>
</svg>
