<svg width="20" height="20" viewBox="0 0 20 20" fill="none" xmlns="http://www.w3.org/2000/svg">
<mask id="mask0_2772_9323" style="mask-type:alpha" maskUnits="userSpaceOnUse" x="0" y="0" width="20" height="20">
<rect width="20" height="20" fill="#D9D9D9"/>
</mask>
<g mask="url(#mask0_2772_9323)">
<path d="M9.95817 15.0003C10.2498 15.0003 10.4964 14.8996 10.6978 14.6982C10.8991 14.4969 10.9998 14.2503 10.9998 13.9587C10.9998 13.667 10.8991 13.4205 10.6978 13.2191C10.4964 13.0177 10.2498 12.917 9.95817 12.917C9.6665 12.917 9.41998 13.0177 9.21859 13.2191C9.0172 13.4205 8.9165 13.667 8.9165 13.9587C8.9165 14.2503 9.0172 14.4969 9.21859 14.6982C9.41998 14.8996 9.6665 15.0003 9.95817 15.0003ZM9.20817 11.792H10.7498C10.7498 11.3337 10.8019 10.9725 10.9061 10.7087C11.0103 10.4448 11.3054 10.0837 11.7915 9.62533C12.1526 9.26421 12.4373 8.92046 12.6457 8.59408C12.854 8.26769 12.9582 7.87533 12.9582 7.41699C12.9582 6.63921 12.6734 6.04199 12.104 5.62533C11.5346 5.20866 10.8609 5.00033 10.0832 5.00033C9.2915 5.00033 8.64914 5.20866 8.15609 5.62533C7.66303 6.04199 7.31928 6.54199 7.12484 7.12533L8.49984 7.66699C8.56928 7.41699 8.72553 7.14616 8.96859 6.85449C9.21164 6.56283 9.58317 6.41699 10.0832 6.41699C10.5276 6.41699 10.8609 6.53852 11.0832 6.78158C11.3054 7.02463 11.4165 7.29199 11.4165 7.58366C11.4165 7.86144 11.3332 8.12185 11.1665 8.36491C10.9998 8.60796 10.7915 8.83366 10.5415 9.04199C9.93039 9.58366 9.55539 9.99338 9.4165 10.2712C9.27762 10.5489 9.20817 11.0559 9.20817 11.792ZM9.99984 18.3337C8.84706 18.3337 7.76373 18.1149 6.74984 17.6774C5.73595 17.2399 4.854 16.6462 4.104 15.8962C3.354 15.1462 2.76025 14.2642 2.32275 13.2503C1.88525 12.2364 1.6665 11.1531 1.6665 10.0003C1.6665 8.84755 1.88525 7.76421 2.32275 6.75033C2.76025 5.73644 3.354 4.85449 4.104 4.10449C4.854 3.35449 5.73595 2.76074 6.74984 2.32324C7.76373 1.88574 8.84706 1.66699 9.99984 1.66699C11.1526 1.66699 12.2359 1.88574 13.2498 2.32324C14.2637 2.76074 15.1457 3.35449 15.8957 4.10449C16.6457 4.85449 17.2394 5.73644 17.6769 6.75033C18.1144 7.76421 18.3332 8.84755 18.3332 10.0003C18.3332 11.1531 18.1144 12.2364 17.6769 13.2503C17.2394 14.2642 16.6457 15.1462 15.8957 15.8962C15.1457 16.6462 14.2637 17.2399 13.2498 17.6774C12.2359 18.1149 11.1526 18.3337 9.99984 18.3337Z" fill="#1C1B1F"/>
</g>
</svg>
