<svg width="20" height="20" viewBox="0 0 20 20" fill="none" xmlns="http://www.w3.org/2000/svg">
<mask id="mask0_2772_9315" style="mask-type:alpha" maskUnits="userSpaceOnUse" x="0" y="0" width="20" height="20">
<rect width="20" height="20" fill="#D9D9D9"/>
</mask>
<g mask="url(#mask0_2772_9315)">
<path d="M6.6665 18.3337V15.8337L4.1665 10.8337V5.83366H4.99984V3.33366C4.99984 2.87533 5.16303 2.48296 5.48942 2.15658C5.81581 1.83019 6.20817 1.66699 6.6665 1.66699H13.3332C13.7915 1.66699 14.1839 1.83019 14.5103 2.15658C14.8366 2.48296 14.9998 2.87533 14.9998 3.33366V5.83366H15.8332V10.8337L13.3332 15.8337V18.3337H6.6665ZM6.6665 5.83366H8.33317V4.16699H9.1665V5.83366H10.8332V4.16699H11.6665V5.83366H13.3332V3.33366H6.6665V5.83366Z" fill="#1C1B1F"/>
</g>
</svg>
