<svg width="20" height="20" viewBox="0 0 20 20" fill="none" xmlns="http://www.w3.org/2000/svg">
<mask id="mask0_2772_9312" style="mask-type:alpha" maskUnits="userSpaceOnUse" x="0" y="0" width="20" height="20">
<rect width="20" height="20" fill="#D9D9D9"/>
</mask>
<g mask="url(#mask0_2772_9312)">
<path d="M15.0002 11.6663V9.16634H12.5002V7.49967H15.0002V4.99967H16.6668V7.49967H19.1668V9.16634H16.6668V11.6663H15.0002ZM7.50016 9.99967C6.5835 9.99967 5.79877 9.67329 5.146 9.02051C4.49322 8.36773 4.16683 7.58301 4.16683 6.66634C4.16683 5.74967 4.49322 4.96495 5.146 4.31217C5.79877 3.6594 6.5835 3.33301 7.50016 3.33301C8.41683 3.33301 9.20155 3.6594 9.85433 4.31217C10.5071 4.96495 10.8335 5.74967 10.8335 6.66634C10.8335 7.58301 10.5071 8.36773 9.85433 9.02051C9.20155 9.67329 8.41683 9.99967 7.50016 9.99967ZM0.833496 16.6663V14.333C0.833496 13.8608 0.955024 13.4268 1.19808 13.0309C1.44113 12.6351 1.76405 12.333 2.16683 12.1247C3.02794 11.6941 3.90294 11.3712 4.79183 11.1559C5.68072 10.9406 6.5835 10.833 7.50016 10.833C8.41683 10.833 9.31961 10.9406 10.2085 11.1559C11.0974 11.3712 11.9724 11.6941 12.8335 12.1247C13.2363 12.333 13.5592 12.6351 13.8022 13.0309C14.0453 13.4268 14.1668 13.8608 14.1668 14.333V16.6663H0.833496Z" fill="#1C1B1F"/>
</g>
</svg>
