<svg width="20" height="20" viewBox="0 0 20 20" fill="none" xmlns="http://www.w3.org/2000/svg">
<mask id="mask0_2772_9306" style="mask-type:alpha" maskUnits="userSpaceOnUse" x="0" y="0" width="20" height="20">
<rect width="20" height="20" fill="#D9D9D9"/>
</mask>
<g mask="url(#mask0_2772_9306)">
<path d="M7.70833 18.3337L7.375 15.667C7.19444 15.5975 7.02431 15.5142 6.86458 15.417C6.70486 15.3198 6.54861 15.2156 6.39583 15.1045L3.91667 16.1462L1.625 12.1878L3.77083 10.5628C3.75694 10.4656 3.75 10.3719 3.75 10.2816V9.71908C3.75 9.6288 3.75694 9.53505 3.77083 9.43783L1.625 7.81283L3.91667 3.85449L6.39583 4.89616C6.54861 4.78505 6.70833 4.68088 6.875 4.58366C7.04167 4.48644 7.20833 4.4031 7.375 4.33366L7.70833 1.66699H12.2917L12.625 4.33366C12.8056 4.4031 12.9757 4.48644 13.1354 4.58366C13.2951 4.68088 13.4514 4.78505 13.6042 4.89616L16.0833 3.85449L18.375 7.81283L16.2292 9.43783C16.2431 9.53505 16.25 9.6288 16.25 9.71908V10.2816C16.25 10.3719 16.2361 10.4656 16.2083 10.5628L18.3542 12.1878L16.0625 16.1462L13.6042 15.1045C13.4514 15.2156 13.2917 15.3198 13.125 15.417C12.9583 15.5142 12.7917 15.5975 12.625 15.667L12.2917 18.3337H7.70833ZM10.0417 12.917C10.8472 12.917 11.5347 12.6323 12.1042 12.0628C12.6736 11.4934 12.9583 10.8059 12.9583 10.0003C12.9583 9.19477 12.6736 8.50727 12.1042 7.93783C11.5347 7.36838 10.8472 7.08366 10.0417 7.08366C9.22222 7.08366 8.53125 7.36838 7.96875 7.93783C7.40625 8.50727 7.125 9.19477 7.125 10.0003C7.125 10.8059 7.40625 11.4934 7.96875 12.0628C8.53125 12.6323 9.22222 12.917 10.0417 12.917Z" fill="#090C05"/>
</g>
</svg>
