<svg width="20" height="20" viewBox="0 0 20 20" fill="none" xmlns="http://www.w3.org/2000/svg">
<mask id="mask0_2772_9309" style="mask-type:alpha" maskUnits="userSpaceOnUse" x="0" y="0" width="20" height="20">
<rect width="20" height="20" fill="#D9D9D9"/>
</mask>
<g mask="url(#mask0_2772_9309)">
<path d="M0.833496 16.6663V13.333C0.833496 12.8608 0.996691 12.465 1.32308 12.1455C1.64947 11.8261 2.04183 11.6663 2.50016 11.6663H5.22933C5.50711 11.6663 5.771 11.7358 6.021 11.8747C6.271 12.0136 6.47238 12.2011 6.62516 12.4372C7.02794 12.9788 7.52447 13.4025 8.11475 13.708C8.70502 14.0136 9.3335 14.1663 10.0002 14.1663C10.6807 14.1663 11.3161 14.0136 11.9064 13.708C12.4967 13.4025 12.9863 12.9788 13.3752 12.4372C13.5557 12.2011 13.7675 12.0136 14.0106 11.8747C14.2536 11.7358 14.5071 11.6663 14.771 11.6663H17.5002C17.9724 11.6663 18.3682 11.8261 18.6877 12.1455C19.0071 12.465 19.1668 12.8608 19.1668 13.333V16.6663H13.3335V14.7705C12.8474 15.1177 12.3231 15.3816 11.7606 15.5622C11.1981 15.7427 10.6113 15.833 10.0002 15.833C9.40294 15.833 8.81961 15.7393 8.25016 15.5518C7.68072 15.3643 7.15294 15.0969 6.66683 14.7497V16.6663H0.833496ZM10.0002 13.333C9.47238 13.333 8.97238 13.2115 8.50016 12.9684C8.02794 12.7254 7.63211 12.3886 7.31266 11.958C7.07655 11.6108 6.78141 11.3365 6.42725 11.1351C6.07308 10.9337 5.68766 10.833 5.271 10.833C5.57655 10.3191 6.22238 9.91287 7.2085 9.61426C8.19461 9.31565 9.12516 9.16634 10.0002 9.16634C10.8752 9.16634 11.8057 9.31565 12.7918 9.61426C13.7779 9.91287 14.4238 10.3191 14.7293 10.833C14.3266 10.833 13.9446 10.9337 13.5835 11.1351C13.2224 11.3365 12.9238 11.6108 12.6877 11.958C12.3821 12.4025 11.9932 12.7427 11.521 12.9788C11.0488 13.215 10.5418 13.333 10.0002 13.333ZM3.3335 10.833C2.63905 10.833 2.04877 10.59 1.56266 10.1038C1.07655 9.61773 0.833496 9.02745 0.833496 8.33301C0.833496 7.62467 1.07655 7.03092 1.56266 6.55176C2.04877 6.07259 2.63905 5.83301 3.3335 5.83301C4.04183 5.83301 4.63558 6.07259 5.11475 6.55176C5.59391 7.03092 5.8335 7.62467 5.8335 8.33301C5.8335 9.02745 5.59391 9.61773 5.11475 10.1038C4.63558 10.59 4.04183 10.833 3.3335 10.833ZM16.6668 10.833C15.9724 10.833 15.3821 10.59 14.896 10.1038C14.4099 9.61773 14.1668 9.02745 14.1668 8.33301C14.1668 7.62467 14.4099 7.03092 14.896 6.55176C15.3821 6.07259 15.9724 5.83301 16.6668 5.83301C17.3752 5.83301 17.9689 6.07259 18.4481 6.55176C18.9272 7.03092 19.1668 7.62467 19.1668 8.33301C19.1668 9.02745 18.9272 9.61773 18.4481 10.1038C17.9689 10.59 17.3752 10.833 16.6668 10.833ZM10.0002 8.33301C9.30572 8.33301 8.71544 8.08995 8.22933 7.60384C7.74322 7.11773 7.50016 6.52745 7.50016 5.83301C7.50016 5.12467 7.74322 4.53092 8.22933 4.05176C8.71544 3.57259 9.30572 3.33301 10.0002 3.33301C10.7085 3.33301 11.3022 3.57259 11.7814 4.05176C12.2606 4.53092 12.5002 5.12467 12.5002 5.83301C12.5002 6.52745 12.2606 7.11773 11.7814 7.60384C11.3022 8.08995 10.7085 8.33301 10.0002 8.33301Z" fill="#1C1B1F"/>
</g>
</svg>
