<svg width="298" height="425" viewBox="0 0 298 425" fill="none" xmlns="http://www.w3.org/2000/svg">
<rect x="0.5" y="0.5" width="297" height="424" rx="9.5" fill="white"/>
<rect x="0.5" y="0.5" width="297" height="424" rx="9.5" stroke="#9AB2FF"/>
<g clip-path="url(#clip0_2267_9091)">
<path fill-rule="evenodd" clip-rule="evenodd" d="M147.389 48.1298C146.558 48.3439 144.224 49.7803 143.148 50.7395C142.701 51.1382 141.781 52.3085 141.103 53.3401L139.871 55.2156L139.783 128.448C139.734 168.725 139.629 201.68 139.55 201.68C139.47 201.68 138.986 201.521 138.475 201.326C135.3 200.119 126.685 201.91 123.908 204.355C123.375 204.825 122.401 204.893 117.261 204.817C110.312 204.715 107.371 205.184 101.694 207.304C98.0465 208.666 93.3565 211.295 92.0053 212.734C91.2128 213.579 91.0233 213.615 87.3896 213.615C84.1146 213.615 83.1758 213.753 80.4707 214.63C74.2376 216.651 68.2325 220.141 63.1843 224.677C59.2005 228.257 58.483 229.035 56.718 231.689C51.635 239.333 50.6972 247.714 54.2566 253.684C56.7661 257.893 61.5161 261.446 67.4369 263.541C68.843 264.038 70.2017 264.52 70.4563 264.61C70.8425 264.746 70.8381 264.901 70.4301 265.538C69.3768 267.181 68.8004 269.837 68.8072 273.015C68.8157 277.051 69.9846 280.578 72.6539 284.623C77.3214 291.695 84.2751 296.121 94.8768 298.769C98.4491 299.662 110.222 299.638 113.795 298.731C115.201 298.373 116.505 297.973 116.692 297.84C116.88 297.707 117.493 297.489 118.056 297.355C119.843 296.93 126.48 293.421 129.21 291.457C134.505 287.649 139.401 282.656 143.233 277.155C145.033 274.571 148.879 267.527 149.345 265.96C149.457 265.585 149.876 264.358 150.277 263.232C151.3 260.361 152.313 256.717 152.313 255.909C152.313 255.231 152.574 255.227 202.165 255.138L252.017 255.048L253.38 254.228C255.293 253.077 257.176 251.221 258.255 249.421L259.175 247.887V151.551C259.175 56.1793 259.168 55.2037 258.501 54.0221C257.505 52.2604 254.937 49.6387 253.38 48.794L252.017 48.0544L200.035 48.0067C171.444 47.9801 147.754 48.0356 147.389 48.1298ZM250.678 49.3799C254.023 50.2628 256.566 52.5493 257.749 55.7384C258.18 56.8992 258.323 58.4075 258.323 61.7913V66.2985L224.151 66.3565C205.356 66.3882 189.059 66.4069 187.934 66.3977C186.809 66.3885 175.727 66.3626 163.306 66.3397L140.724 66.2985V62.3574C140.724 58.0007 141.128 55.8397 142.293 53.9774C143.867 51.4597 145.542 50.1994 148.393 49.3884C150.532 48.7801 248.374 48.7719 250.678 49.3799ZM228.857 54.0981C228.471 54.6495 228.328 55.6934 228.332 57.9345C228.335 59.6276 228.45 61.1816 228.587 61.3879C229.135 62.2084 230.452 62.5474 233.092 62.5474C235.573 62.5474 235.943 62.4614 236.693 61.7102C237.458 60.9456 237.53 60.6084 237.53 57.8019C237.53 53.5931 237.257 53.3401 232.713 53.3401C229.663 53.3401 229.344 53.4028 228.857 54.0981ZM242.111 53.7148C241.982 53.9232 242.74 54.9599 243.814 56.0456L245.748 58.0013L243.855 59.926C242.814 60.9845 241.961 62.0075 241.961 62.1992C241.961 62.5978 243.206 62.6787 243.388 62.2916C243.454 62.1508 244.235 61.3511 245.122 60.5143L246.736 58.9927L248.582 60.8167C249.929 62.147 250.591 62.5787 251.029 62.4106C251.532 62.2179 251.304 61.8517 249.63 60.1589L247.63 58.1374L249.59 56.0825C251.319 54.2683 251.743 53.3401 250.841 53.3401C250.685 53.3401 249.688 54.2093 248.626 55.2716L246.696 57.203L244.745 55.2716C242.689 53.2364 242.482 53.114 242.111 53.7148ZM235.631 54.8988C236.294 55.5618 236.392 60.1391 235.758 60.7741C235.252 61.2798 230.927 61.3221 230.008 60.8304C229.448 60.5303 229.349 60.0996 229.349 57.956C229.349 54.6809 229.651 54.3631 232.758 54.3631C234.428 54.3631 235.248 54.5159 235.631 54.8988ZM214.692 61.8653C214.692 62.5122 214.919 62.5474 219.123 62.5474C223.327 62.5474 223.554 62.5122 223.554 61.8653C223.554 61.2184 223.327 61.1833 219.123 61.1833C214.919 61.1833 214.692 61.2184 214.692 61.8653ZM258.323 156.964V246.266L257.611 247.876C256.794 249.723 254.88 251.974 253.532 252.671C250.478 254.25 252.719 254.185 201.351 254.19L153.071 254.196L153.245 248.484C153.353 244.929 153.264 241.613 153.008 239.703C152.293 234.356 152.219 233.394 152.525 233.391C153.711 233.381 157.802 232.517 160.577 231.692C166.361 229.97 171.033 227.146 176.097 222.311C180.447 218.158 184.788 211.647 186.554 206.625C186.884 205.687 187.29 204.613 187.457 204.237C187.624 203.862 187.953 202.57 188.188 201.364C188.554 199.49 188.763 199.092 189.638 198.61C190.888 197.923 191.112 196.798 190.298 195.287C189.803 194.367 189.77 194.034 190.111 193.397C191.075 191.595 195.74 189.378 199.775 188.803C201.168 188.604 201.643 188.376 201.905 187.782L202.241 187.016H221.09C241.484 187.016 241.25 187.036 242.984 185.158C243.813 184.26 243.839 184.078 243.944 178.42C244.065 171.969 243.882 171.093 242.172 169.872L241.109 169.113L218.441 168.883C205.974 168.757 195.314 168.621 194.751 168.58C194.189 168.54 192.885 168.747 191.854 169.041C190.823 169.334 189.289 169.76 188.445 169.987C186.684 170.459 184.983 171.945 183.143 174.619C181.943 176.361 181.504 177.622 180.427 182.413C180.174 183.538 179.72 185.456 179.418 186.675C179.116 187.894 178.781 189.315 178.675 189.833C178.547 190.456 178.205 190.844 177.663 190.98C177.213 191.093 176.538 191.576 176.163 192.053C175.54 192.845 175.526 192.983 176.002 193.634C176.936 194.91 176.932 195.152 175.95 197.103C174.004 200.971 169.072 204.95 164.607 206.254C161.281 207.226 159.407 207.009 151.631 204.753C150.225 204.344 148.768 203.932 148.393 203.836C147.595 203.632 145.432 203.011 142.696 202.201L140.749 201.624L140.747 134.934C140.746 98.2543 140.826 68.113 140.925 67.9531C141.024 67.7931 167.479 67.6625 199.714 67.6625H258.323V156.964ZM156.403 78.1493C155.623 78.5391 154.975 79.2422 154.529 80.1824C154.068 81.1536 153.626 81.6228 153.165 81.6303C152.12 81.6474 150.362 80.4283 149.764 79.2719C149.469 78.7011 149.085 78.2339 148.911 78.2339C148.43 78.2339 148.111 80.4818 148.33 82.3338C148.694 85.4074 150.295 87.5956 152.857 88.5225L154.017 88.9423V94.0217C154.017 98.6185 154.085 99.1955 154.726 100.096C156.221 102.197 154.865 102.105 184.082 102.103C209.952 102.102 210.805 102.082 211.863 101.436C213.917 100.183 214.01 99.6807 214.01 89.8003C214.01 81.4438 213.966 80.8007 213.323 79.7596C211.9 77.4564 213.169 77.5518 183.962 77.5525C159.544 77.5529 157.509 77.5969 156.403 78.1493ZM203.102 85.3951C203.102 85.6185 196.512 85.7361 184.014 85.7361C171.515 85.7361 164.925 85.6185 164.925 85.3951C164.925 85.1717 171.515 85.0541 184.014 85.0541C196.512 85.0541 203.102 85.1717 203.102 85.3951ZM202.762 94.3674C202.762 94.5591 168.22 94.7842 165.076 94.6126C164.971 94.6072 164.98 94.4476 165.097 94.2587C165.356 93.8402 202.762 93.9483 202.762 94.3674ZM169.371 114.669L167.993 115.98L168.005 135.045C168.014 149.347 168.12 154.293 168.431 154.847C168.659 155.254 169.302 155.944 169.859 156.382L170.874 157.178L205.419 157.268C243.583 157.368 241.167 157.5 242.984 155.211L243.836 154.137L243.941 139.394L244.046 124.651L245.214 124.266C247.656 123.459 249.46 120.221 249.46 116.645C249.46 113.985 248.599 113.106 247.874 115.027C247.442 116.171 246.304 117.007 244.756 117.317C243.867 117.495 243.666 117.427 243.666 116.949C243.666 116.626 243.347 115.914 242.957 115.366C241.445 113.242 243.607 113.358 205.52 113.358H170.749L169.371 114.669ZM241.586 115.203C241.981 115.561 242.464 116.443 242.658 117.163C242.964 118.3 243.141 118.473 243.997 118.473C245.302 118.473 246.726 117.913 247.671 117.027L248.438 116.308V117.565C248.438 120.267 246.406 122.989 244.035 123.463L242.984 123.674L242.982 137.868C242.981 146.211 242.841 152.565 242.642 153.282C242.456 153.952 241.907 154.873 241.423 155.328L240.543 156.155H205.809H171.074L169.959 155.04L168.845 153.926L168.756 135.773C168.673 119.008 168.712 117.53 169.267 116.432C169.597 115.778 170.251 115.05 170.72 114.814C171.391 114.477 178.946 114.404 206.22 114.469C239.775 114.549 240.89 114.572 241.586 115.203ZM178.986 121.628C179.098 121.964 184.771 122.054 205.829 122.054C226.887 122.054 232.561 121.964 232.673 121.628C232.786 121.289 227.266 121.201 205.829 121.201C184.393 121.201 178.873 121.289 178.986 121.628ZM178.901 130.579C178.901 131.03 182.12 131.091 205.829 131.091C229.539 131.091 232.758 131.03 232.758 130.579C232.758 130.129 229.539 130.068 205.829 130.068C182.12 130.068 178.901 130.129 178.901 130.579ZM68.1187 138.472C64.652 139.603 61.9295 141.54 60.3608 143.993C59.1136 145.944 58.2444 148.572 58.2376 150.414C58.2342 151.305 57.9506 151.702 56.6144 152.686C54.9901 153.883 50.0285 158.877 48.2508 161.104C47.7286 161.758 46.6978 163.292 45.9602 164.512C45.2226 165.733 43.8315 167.651 42.8685 168.775C41.9059 169.899 40.6549 171.816 40.0884 173.035C39.1589 175.036 39.0423 175.675 38.8855 179.617C38.7464 183.121 38.8313 184.433 39.316 186.266C41.6128 194.956 48.1891 201.568 55.3184 202.354C56.6406 202.5 58.5658 202.951 59.597 203.355C63.6363 204.941 67.7713 205.512 75.2769 205.523C83.304 205.534 86.8057 205.071 93.002 203.18C105.34 199.415 116.784 191.807 123.456 182.935C125.639 180.033 128.518 174.444 129.258 171.671C130.434 167.267 130.623 164.564 130.004 160.957C129.355 157.171 128.815 155.619 127.231 152.975C124.717 148.781 120.682 145.215 115.578 142.675C106.869 138.342 94.736 137.562 81.4988 140.483C79.0772 141.017 79.008 141.013 77.9977 140.293C76.2497 139.048 73.4512 138.249 70.9393 138.279C69.6693 138.293 68.3999 138.381 68.1187 138.472ZM179.059 139.295C178.934 139.496 178.905 139.734 178.994 139.823C179.083 139.911 191.177 139.997 205.872 140.013C228.337 140.038 232.587 139.968 232.587 139.574C232.587 139.18 228.29 139.09 205.936 139.017C187.245 138.956 179.217 139.039 179.059 139.295ZM72.9593 139.658C75.1181 140.115 77.4244 141.221 77.1493 141.666C77.0409 141.841 76.307 142.151 75.5182 142.355C74.7295 142.558 73.6005 142.946 73.0098 143.217C72.4191 143.487 71.8341 143.708 71.71 143.708C71.0222 143.708 64.9333 146.969 61.755 149.039C60.7856 149.671 59.9037 150.187 59.795 150.187C59.2984 150.187 59.6839 148.277 60.5708 146.343C62.223 142.74 64.591 140.809 68.63 139.771C70.8255 139.207 70.8306 139.207 72.9593 139.658ZM102.376 140.289C110.301 141.603 113.75 142.797 117.434 145.503C120.541 147.784 124.359 153.121 124.361 155.183C124.362 156.494 122.127 159.574 119.637 161.693L117.938 163.138L117.721 162.034C117.602 161.426 117.381 160.622 117.23 160.247C116.381 158.14 115.306 156.024 114.599 155.069C114.157 154.472 113.795 153.884 113.795 153.763C113.795 153.431 110.006 149.774 108.845 148.987C108.287 148.608 107.216 148.01 106.466 147.658C105.716 147.306 104.807 146.868 104.444 146.685C104.082 146.503 102.512 146.273 100.954 146.176C97.9133 145.986 95.8752 146.49 94.3573 147.807C93.6163 148.45 93.5743 148.451 92.7031 147.838C89.426 145.531 82.307 143.056 78.8731 143.029C77.9984 143.022 79.4242 142.351 81.4125 141.834C87.4977 140.253 97.6433 139.505 102.376 140.289ZM80.5603 144.578C83.4308 145.07 85.5299 145.659 87.5481 146.538C88.9764 147.161 92.3206 149.199 92.3166 149.444C92.3145 149.572 91.7388 150.289 91.0373 151.04C88.3505 153.913 87.2397 157.821 87.875 162.167C88.5479 166.771 89.4846 169.239 91.8755 172.711C92.4502 173.546 93.348 174.655 93.8709 175.177C94.9331 176.238 94.7895 176.55 93.002 177.069C92.3459 177.259 90.4285 177.9 88.7412 178.493C85.6901 179.564 82.4518 180.468 79.1962 181.156C78.2585 181.355 77.2376 181.614 76.9277 181.733C76.4962 181.899 76.307 181.684 76.1195 180.817C75.5632 178.244 73.8551 173.829 72.598 171.714C70.9949 169.016 67.6329 165.266 65.2434 163.51C61.8153 160.991 58.482 159.784 53.9883 159.435L51.2774 159.224L54.4996 156.242C59.5377 151.581 65.2639 147.922 71.8682 145.146C74.8075 143.91 76.1557 143.822 80.5603 144.578ZM102.643 147.655C105.815 148.477 107.953 149.727 110.41 152.196C114.646 156.452 116.863 161.562 116.863 167.068C116.863 170.641 116.394 172.322 114.766 174.59C113.226 176.736 110.861 177.809 107.676 177.809C106.349 177.809 104.998 177.677 104.672 177.515C104.346 177.353 103.16 176.781 102.035 176.243C100.695 175.603 99.1404 174.409 97.5257 172.781C91.6911 166.897 89.6421 157.721 92.7996 151.613C93.6176 150.03 96.0658 148.218 98.1399 147.661C100.495 147.027 100.223 147.027 102.643 147.655ZM178.986 148.908C179.098 149.245 184.771 149.335 205.829 149.335C226.887 149.335 232.561 149.245 232.673 148.908C232.786 148.57 227.266 148.482 205.829 148.482C184.393 148.482 178.873 148.57 178.986 148.908ZM125.041 152.287C125.04 152.539 124.734 152.284 124.362 151.722C123.481 150.391 123.481 149.842 124.362 150.962C124.737 151.439 125.043 152.035 125.041 152.287ZM103.906 154.222C101.934 154.747 100.16 157.076 100.16 159.141C100.16 160.048 100.229 160.095 101.277 159.898C102.927 159.588 104.251 160.718 104.251 162.436C104.251 163.867 103.598 164.663 102.12 165.031C100.995 165.312 100.992 165.35 101.898 167.072C104.415 171.855 109.736 174.079 113 171.714C114.141 170.887 114.444 170.393 114.941 168.559C115.427 166.759 115.464 166.062 115.154 164.51C113.836 157.901 108.481 153.004 103.906 154.222ZM121.635 154.927C121.635 155.735 122.666 156.4 123.306 156.005C124.065 155.536 123.588 154.46 122.569 154.342C121.822 154.255 121.635 154.373 121.635 154.927ZM127.285 155.899C127.586 156.603 128.05 157.868 128.316 158.712C128.877 160.488 129.337 167.128 128.823 166.044C128.646 165.669 128.489 164.683 128.476 163.852C128.463 163.021 128.307 161.87 128.131 161.294C127.953 160.718 127.493 159.239 127.108 158.007C126.084 154.734 126.2 153.36 127.285 155.899ZM125.926 158.286C126.044 158.802 126.385 160.068 126.685 161.1C127.079 162.46 127.229 164.427 127.228 168.261C127.227 172.928 127.137 173.772 126.465 175.472C124.33 180.868 118.191 187.96 111.661 192.574C108.109 195.084 107.872 195.194 108.322 194.123C109.003 192.503 109.705 187.375 109.705 184.024V180.574L111.575 179.332C116.188 176.268 118.256 172.543 118.396 167.04L118.458 164.626L121.224 161.852C122.745 160.326 124.244 158.689 124.556 158.213C125.285 157.1 125.66 157.12 125.926 158.286ZM124.229 160.954C123.946 161.693 124.607 162.82 125.193 162.595C126.268 162.183 126.147 160.418 125.044 160.418C124.709 160.418 124.342 160.659 124.229 160.954ZM58.0876 161.299C63.1498 162.929 67.5296 166.45 70.9901 171.671C73.0749 174.816 75.4272 181.182 74.754 181.856C74.4629 182.147 70.8794 182.876 69.611 182.902C68.6334 182.923 68.5294 182.816 68.3355 181.602C68.2192 180.875 67.6428 179.149 67.0545 177.766C63.7198 169.925 57.7699 165.192 51.2484 165.192C49.932 165.192 48.362 165.333 47.759 165.506L46.6631 165.82L47.2337 164.909C48.0565 163.595 49.8059 161.312 50.2142 161.019C50.8711 160.549 56.3625 160.744 58.0876 161.299ZM56.6802 167.739C59.4681 169.11 60.9921 170.434 63.3131 173.502C65.1061 175.872 66.1191 178.191 67.1308 182.242C67.9401 185.481 67.9383 188.229 67.1254 191.359C66.0813 195.381 63.8704 198.423 60.79 200.077C59.6689 200.679 58.8511 200.809 56.1883 200.808C53.2244 200.807 52.7765 200.716 50.9048 199.739C45.726 197.037 41.9373 191.859 40.4712 185.482C39.7574 182.376 39.6446 178.602 40.2125 176.81C41.5252 172.668 42.0794 171.514 43.5315 169.898C45.7635 167.414 47.7685 166.563 51.3967 166.559C53.9955 166.556 54.5085 166.671 56.6802 167.739ZM195.603 170.083C195.603 170.804 194.64 171.487 191.439 173.035C189.804 173.826 188.29 174.687 188.073 174.948C187.567 175.558 186.408 181.284 186.403 183.197C186.397 185.754 187.91 187.698 189.906 187.698C190.439 187.698 191.594 187.401 192.472 187.039C195.39 185.833 197.474 185.581 199.379 186.205C201.473 186.89 201.182 187.508 198.622 187.811C195.425 188.19 192.138 189.76 189.74 192.054L188.478 193.261L186.08 192.188C184.762 191.598 182.837 191.016 181.803 190.895C180.529 190.745 179.923 190.521 179.923 190.199C179.923 189.937 180.392 187.848 180.965 185.557C181.538 183.265 182.256 180.392 182.56 179.173C183.115 176.953 184.896 173.884 186.447 172.474C186.89 172.071 188.096 171.496 189.127 171.195C195.195 169.425 195.603 169.355 195.603 170.083ZM241.307 170.548C243.076 171.593 243.388 172.83 243.264 178.315C243.167 182.656 243.073 183.328 242.441 184.18C241.146 185.923 240.825 185.95 220.726 185.97C203.843 185.986 201.965 185.933 201.18 185.419C200.586 185.03 199.436 184.824 197.532 184.766C194.76 184.682 194.749 184.678 194.155 183.547C193.676 182.635 193.559 181.538 193.559 177.944L193.558 173.475L195.105 172.497C195.955 171.959 196.739 171.17 196.846 170.742L197.041 169.966H218.681C238.467 169.966 240.407 170.016 241.307 170.548ZM218.101 177.809C218.101 180.992 218.229 182.924 218.441 182.924C218.653 182.924 218.782 180.992 218.782 177.809C218.782 174.626 218.653 172.694 218.441 172.694C218.229 172.694 218.101 174.626 218.101 177.809ZM193.348 184.476C193.565 185.071 193.35 185.292 191.893 185.975C190.276 186.733 190.137 186.746 189.326 186.214C187.925 185.295 187.651 184.422 187.878 181.582C188.064 179.247 188.454 177.52 189.116 176.104C189.247 175.823 190.109 175.178 191.031 174.672L192.706 173.751L192.9 178.764C193.007 181.521 193.209 184.091 193.348 184.476ZM97.0495 178.119C100.246 180.397 103.583 181.421 106.665 181.073L108.682 180.844L108.674 182.651C108.66 186.087 107.243 194.539 106.483 195.722C105.714 196.918 97.9545 200.428 92.8316 201.896C88.7845 203.057 87.1023 203.413 82.4351 204.094C78.4667 204.674 76.6881 204.771 73.4127 204.587C68.4793 204.31 68.0457 204.141 69.3673 203.006C71.9504 200.788 74.6892 196.277 75.7712 192.458C76.1741 191.036 76.4086 189.014 76.4324 186.75L76.4699 183.245L77.663 182.932C78.3191 182.761 80.0044 182.343 81.4081 182.005C82.8114 181.667 86.4928 180.522 89.5889 179.461C92.6847 178.4 95.4242 177.518 95.6765 177.5C95.9287 177.482 96.5467 177.761 97.0495 178.119ZM201.824 177.894C201.931 178.215 203.519 178.321 208.215 178.321C212.912 178.321 214.5 178.215 214.607 177.894C214.717 177.563 213.291 177.468 208.215 177.468C203.14 177.468 201.714 177.563 201.824 177.894ZM222.191 177.987C222.191 178.437 223.044 178.494 228.554 178.413C233.274 178.344 234.954 178.21 235.059 177.894C235.169 177.563 233.748 177.468 228.696 177.468C223.099 177.468 222.191 177.54 222.191 177.987ZM71.345 179.534C71.2226 179.732 71.2189 180.279 71.3368 180.749C71.4946 181.378 71.7424 181.576 72.2715 181.497C73.1564 181.365 73.7546 180.481 73.4672 179.731C73.2293 179.111 71.694 178.968 71.345 179.534ZM75.4286 184.885C75.8489 187.422 74.4428 193.44 72.6297 196.866C71.0771 199.801 67.4475 203.697 66.2439 203.721C65.2666 203.741 59.9378 202.304 59.9378 202.021C59.9378 201.89 60.5896 201.496 61.3865 201.145C63.0728 200.401 65.9957 197.551 66.8046 195.86C67.8947 193.583 68.1095 192.958 68.6637 190.45C69.0008 188.925 69.1512 187.211 69.0414 186.145L68.8587 184.375L70.6189 184.035C71.5873 183.849 73.018 183.676 73.7982 183.651C75.1835 183.607 75.222 183.637 75.4286 184.885ZM72.008 185.439C71.5993 186.504 72.0127 187.187 73.066 187.187C73.9697 187.187 74.0839 187.072 74.0839 186.164C74.0839 185.301 73.9369 185.124 73.1444 185.033C72.5452 184.964 72.1338 185.111 72.008 185.439ZM91.1068 187.731C90.1943 189.208 97.0635 191.748 100.653 191.262C103.431 190.885 105.955 189.815 105.955 189.015C105.955 188.261 105.331 188.339 103.399 189.334C102.7 189.694 101.395 189.862 99.2801 189.864C96.3916 189.868 96.0211 189.785 93.7499 188.631C92.3189 187.904 91.2292 187.533 91.1068 187.731ZM185.449 193.141C187.284 193.959 189.468 195.877 189.468 196.67C189.468 197.646 188.81 197.637 187.34 196.641C184.765 194.897 182.665 194.089 179.97 193.806C178.538 193.656 177.329 193.524 177.282 193.514C176.994 193.452 177.27 192.495 177.623 192.334C178.588 191.891 183.864 192.435 185.449 193.141ZM183.85 196.118C184.601 196.457 185.723 197.098 186.342 197.542C187.392 198.294 187.454 198.446 187.248 199.759C186.851 202.289 185.709 205.702 184.176 208.936L183.081 211.247L182.866 209.904C182.313 206.438 179.754 202.733 176.943 201.323L175.273 200.486L176.512 198.44C177.194 197.315 177.861 196.104 177.993 195.749C178.206 195.179 178.484 195.127 180.359 195.302C181.528 195.411 183.099 195.778 183.85 196.118ZM176.723 202.566C178.453 203.724 179.45 204.875 180.531 206.966C181.256 208.366 181.417 209.158 181.435 211.399L181.457 214.127L179.541 216.693C177.074 219.996 170.675 225.961 170.156 225.441C170.043 225.329 170.201 224.472 170.506 223.539C171.284 221.158 171.231 216.389 170.397 213.898C169.539 211.334 169.178 210.67 167.61 208.778L166.286 207.18L168.475 206.102C169.679 205.509 171.482 204.279 172.481 203.368C173.481 202.456 174.546 201.704 174.848 201.695C175.15 201.687 175.993 202.079 176.723 202.566ZM135.574 204.06C137.024 206.419 138.906 211.114 138.545 211.475C138.485 211.535 137.018 210.746 135.285 209.721C132.234 207.917 127.042 205.772 125.728 205.772C124.417 205.772 124.7 205.052 126.297 204.325C129.018 203.084 131.26 202.434 132.939 202.397C134.492 202.363 134.554 202.402 135.574 204.06ZM141.576 203.18C142.701 203.462 144.388 203.923 145.325 204.204C146.263 204.486 147.797 204.936 148.734 205.205C152.118 206.175 152.288 206.305 153.402 208.755C155.306 212.943 156.139 218.979 155.404 223.264C154.607 227.914 152.855 232.267 151.906 231.951C151.721 231.889 151.212 230.814 150.774 229.562C148.506 223.073 146.377 219.565 141.702 214.615C140.556 213.402 139.969 212.124 139.52 209.864C139.389 209.208 138.648 207.366 137.874 205.772C137.1 204.178 136.407 202.737 136.335 202.57C136.17 202.189 138.878 202.504 141.576 203.18ZM125.044 206.961C132.769 209.098 136.733 211.31 141.166 215.959L143.116 218.005L142.108 219.499C140.92 221.26 135.809 226.233 135.188 226.232C134.952 226.231 134.316 225.383 133.774 224.347C131.522 220.035 126.735 214.513 122.712 211.586C120.596 210.045 120.285 209.69 120.507 209.061C120.649 208.659 120.745 207.863 120.718 207.292L120.671 206.254L122.431 206.49C123.399 206.619 124.575 206.832 125.044 206.961ZM158.852 207.85C160.882 208.187 161.84 208.195 163.113 207.888L164.755 207.492L166.216 209.104C167.02 209.991 168.094 211.561 168.602 212.592C169.473 214.358 169.526 214.738 169.513 219.071C169.499 223.516 169.464 223.739 168.49 225.519C167.683 226.995 167.114 227.557 165.638 228.336C163.312 229.564 158.158 231.235 155.78 231.533L153.963 231.76L154.489 230.742C155.361 229.054 156.073 226.859 156.446 224.698C157.171 220.51 156.55 213.074 155.192 209.678C154.151 207.075 154.153 207.011 155.296 207.233C155.811 207.333 157.411 207.61 158.852 207.85ZM98.5752 210.886C98.1345 213.092 100.536 214.281 105.444 214.286C109.414 214.29 112.757 213.564 116.469 211.894C118.928 210.787 118.992 210.777 120.048 211.349C123.687 213.319 129.24 219.14 132.218 224.108L133.971 227.033L133.172 227.64C131.96 228.56 127.177 230.865 124.873 231.64C119.435 233.469 113.857 234.413 108.512 234.41L104.421 234.407L103.143 231.854C102.232 230.033 101.865 228.858 101.865 227.761C101.865 222.606 98.4181 217.004 93.9282 214.86C92.3929 214.127 92.3333 214.05 92.9056 213.537C93.4516 213.047 98.4617 209.864 98.6874 209.864C98.7382 209.864 98.6877 210.324 98.5752 210.886ZM90.5621 215.145C92.2859 215.37 93.9987 216.188 95.867 217.678C99.0766 220.238 100.678 224.042 100.41 228.467C100.203 231.889 99.1915 234.169 96.6193 237.013C95.0452 238.753 90.9671 241.919 90.2993 241.919C90.1837 241.919 89.8916 241.068 89.6499 240.029C88.675 235.833 85.9297 231.096 82.733 228.092C79.3175 224.883 76.2538 223.122 72.1014 221.983L69.4375 221.253L72.9488 219.395C81.0168 215.126 84.3154 214.33 90.5621 215.145ZM87.3688 220.256C85.8704 221.755 85.6243 222.427 85.8131 224.502C85.9365 225.858 86.7938 227.182 88.1423 228.098C90.0303 229.382 92.1062 229.241 94.0073 227.699C94.0918 227.63 92.5606 225.968 90.6047 224.005C88.6492 222.042 87.2028 220.435 87.3907 220.435C87.5785 220.435 89.1833 221.893 90.9568 223.675C92.7304 225.457 94.3577 226.915 94.5731 226.915C94.9463 226.915 95.4212 225.966 95.9062 224.251C96.2321 223.098 94.6447 220.07 93.3255 219.327C92.7126 218.982 91.5537 218.73 90.5795 218.73C89.0374 218.73 88.7637 218.861 87.3688 220.256ZM145.774 221.714C149.185 227.41 150.902 232.734 151.697 240.079C152.056 243.401 152.041 243.582 151.263 245.142C150.818 246.031 149.497 247.655 148.327 248.751C146.339 250.611 141.983 253.514 141.179 253.514C140.957 253.514 140.732 251.609 140.585 248.484C140.455 245.717 140.208 242.993 140.037 242.431C139.865 241.868 139.396 239.873 138.994 237.998C138.139 234.012 137.698 232.575 136.494 229.852C135.441 227.469 135.431 227.359 136.241 227.102C137.029 226.851 141.706 222.23 142.805 220.617C143.253 219.957 143.795 219.416 144.008 219.415C144.221 219.413 145.015 220.448 145.774 221.714ZM134.929 223.266C134.929 224.219 135.525 224.88 136.163 224.635C137.111 224.271 136.453 222.482 135.372 222.482C135.128 222.482 134.929 222.834 134.929 223.266ZM72.8871 223.53C79.5463 225.836 84.24 230.151 87.1391 236.633C88.2132 239.035 88.9859 242.308 88.6052 242.842C88.4924 243 87.6542 243.509 86.742 243.973C85.8298 244.438 84.3385 245.48 83.4281 246.29L81.7725 247.762L80.3142 246.771C76.3636 244.086 72.9409 243.106 67.6074 243.135C64.0225 243.154 63.201 243.273 60.9604 244.096C58.3167 245.067 55.5628 246.588 54.2283 247.813L53.4613 248.517V245.263C53.4613 237.844 57.2099 231.291 65.4977 224.221C66.9805 222.957 67.3149 222.823 68.9903 222.823C70.0091 222.823 71.7625 223.141 72.8871 223.53ZM130.28 225.721C129.953 226.572 130.434 227.312 131.236 227.194C132.193 227.053 132.378 226.458 131.681 225.761C130.994 225.073 130.534 225.06 130.28 225.721ZM230.28 225.914C227.833 226.311 225.804 227.448 223.992 229.434C222.045 231.569 221.137 233.888 221.123 236.757C221.109 239.75 221.947 241.938 223.944 244.124C226.37 246.78 228.761 247.878 232.117 247.878C234.417 247.878 234.989 247.74 237.045 246.689C245.343 242.446 245.37 230.901 237.09 226.959C234.725 225.833 232.697 225.521 230.28 225.914ZM231.735 228.407C231.735 230.138 231.683 230.25 230.789 230.429C228.696 230.848 226.948 233.123 226.458 236.065C226.187 237.694 226.436 237.639 223.173 236.784L221.939 236.461L222.223 234.938C222.944 231.076 226.024 227.832 229.861 226.894C231.712 226.441 231.735 226.459 231.735 228.407ZM236.354 227.582C239.282 228.85 241.66 231.902 242.161 235.032C242.369 236.338 242.337 236.398 241.232 236.741C240.602 236.936 239.588 237.196 238.979 237.318C237.907 237.533 237.871 237.503 237.863 236.405C237.848 234.013 235.157 230.325 233.428 230.325C232.842 230.325 232.758 230.086 232.758 228.422V226.519L233.866 226.752C234.475 226.879 235.595 227.253 236.354 227.582ZM135.121 229.898C136.173 232.377 137.587 237.011 138.269 240.214C139.528 246.132 140.11 253.903 139.33 254.385C138.936 254.628 137.028 255.189 132.936 256.262C131.559 256.623 128.261 257.077 125.607 257.272C122.954 257.466 120.518 257.682 120.194 257.752C119.871 257.822 117.417 257.667 114.741 257.409C112.064 257.15 109.703 256.935 109.493 256.931C109.237 256.926 109.054 255.365 108.94 252.235C108.846 249.656 108.582 246.779 108.354 245.841C107.976 244.294 105.805 237.238 105.388 236.207C105.258 235.883 106.052 235.781 108.718 235.781C110.644 235.781 113.073 235.63 114.115 235.445C115.158 235.261 116.931 234.965 118.056 234.789C122.66 234.065 129.043 231.794 132.399 229.686C133.322 229.107 134.189 228.63 134.328 228.626C134.466 228.623 134.823 229.195 135.121 229.898ZM233.996 231.563C236.582 232.79 237.663 236.939 236.162 239.882C235.343 241.489 234.262 242.262 232.515 242.491C230.81 242.714 229.109 241.586 228.047 239.529C226.672 236.865 227.541 233.443 230.015 231.775C231.367 230.864 232.407 230.808 233.996 231.563ZM102.657 233.479C103.225 234.387 103.221 234.417 102.554 234.417C102.007 234.417 101.865 234.194 101.865 233.337C101.865 232.743 101.911 232.321 101.968 232.399C102.024 232.478 102.335 232.963 102.657 233.479ZM179.007 233.081C177.392 233.559 176.515 234.876 176.515 236.824C176.515 238.192 176.684 238.626 177.564 239.506L178.612 240.555H195.152H211.692L212.851 239.396C213.734 238.512 214.01 237.948 214.01 237.025C214.01 235.445 213.437 234.23 212.339 233.484C211.528 232.933 210.132 232.877 195.774 232.821C186.769 232.786 179.631 232.897 179.007 233.081ZM230.94 233.423C230.342 233.785 230.345 233.823 231.025 234.299C231.922 234.927 231.924 235.504 231.034 236.31C230.455 236.834 230.219 236.873 229.671 236.53C229.08 236.161 229.008 236.21 229.008 236.988C229.008 238.868 230.606 240.555 232.387 240.555C233.36 240.555 234.716 239.295 235.146 237.992C235.598 236.621 235.173 234.857 234.171 233.951C233.367 233.223 231.718 232.953 230.94 233.423ZM100.842 234.758C100.842 234.945 100.775 235.099 100.692 235.099C100.609 235.099 100.447 234.945 100.331 234.758C100.215 234.57 100.283 234.417 100.481 234.417C100.679 234.417 100.842 234.57 100.842 234.758ZM103.091 235.641C103.557 235.767 104.051 236.447 104.51 237.598C106.663 242.995 107.585 247.357 107.733 252.831L107.83 256.412L106.807 256.311C104.512 256.083 96.3538 253.502 93.5818 252.126C92.427 251.552 91.445 251.046 91.3993 251.001C91.3539 250.955 92.5088 249.699 93.9657 248.209C97.0229 245.082 99.4209 241.321 100.558 237.869C101.363 235.425 101.579 235.235 103.091 235.641ZM224.859 238.125C226.579 238.502 226.359 238.324 227.226 240.044C228.062 241.704 228.813 242.412 230.47 243.104C231.695 243.617 231.735 243.688 231.735 245.372V247.11L230.457 246.88C228.565 246.538 226.364 245.389 225.012 244.037C222.869 241.893 221.223 237.147 222.788 237.621C223.115 237.72 224.048 237.947 224.859 238.125ZM242.141 238.749C241.402 242.692 237.961 246.134 234.017 246.874L232.758 247.11V245.239C232.758 243.444 232.798 243.36 233.756 243.169C235.038 242.912 237.061 240.89 237.35 239.577C237.552 238.657 237.776 238.511 239.682 238.062C240.842 237.789 241.923 237.548 242.084 237.526C242.246 237.504 242.272 238.054 242.141 238.749ZM72.2776 244.678C74.3548 245.106 79.1117 247.314 80.4393 248.468C80.9353 248.898 81.4323 249.656 81.5441 250.15C81.7329 250.987 81.6215 251.091 79.9608 251.63C77.5348 252.418 76.2497 253.257 74.8529 254.968C73.1877 257.006 72.6921 258.11 72.174 260.932L71.7196 263.406L70.5156 263.194C67.4362 262.654 61.3436 259.52 58.635 257.084C56.762 255.399 54.6953 252.28 54.3398 250.601C54.0889 249.416 54.5453 248.903 57.3813 247.182C59.5189 245.885 62.041 244.914 64.0282 244.622C66.5347 244.255 70.3459 244.28 72.2776 244.678ZM151.664 251.873C150.751 259.329 148.195 266.712 144.333 273.049C143.867 273.815 138.814 276.267 136.564 276.821L135.643 277.048L136.16 275.767C136.443 275.062 136.873 274.025 137.114 273.463C138.654 269.874 140.219 262.916 140.604 257.947L140.828 255.048L143.231 253.855C146.347 252.307 149.211 250.149 150.652 248.263L151.802 246.759L151.906 247.899C151.964 248.527 151.855 250.315 151.664 251.873ZM86.7399 248.546C86.952 248.746 87.8723 249.355 88.7852 249.898C89.6983 250.442 90.2645 250.95 90.0436 251.027C89.6578 251.162 84.4803 247.555 84.4803 247.152C84.4803 246.942 86.0998 247.941 86.7399 248.546ZM142.11 249.905C141.512 250.627 141.799 251.638 142.603 251.638C143.124 251.638 143.28 251.408 143.28 250.643C143.28 249.508 142.728 249.16 142.11 249.905ZM136.872 251.683C136.527 252.028 136.578 253.439 136.943 253.665C137.609 254.077 138.374 253.426 138.271 252.535C138.171 251.677 137.367 251.187 136.872 251.683ZM91.6808 252.634C94.4534 254.17 98.9475 255.825 102.887 256.762C105.043 257.275 107.02 257.754 107.28 257.827C108.834 258.267 105.043 273.974 103.382 273.974C102.709 273.974 96.6319 270.165 94.914 268.667L93.5873 267.51L94.0236 265.454C94.7677 261.946 93.9268 258.557 92.0657 257.561C91.6433 257.335 91.2977 256.875 91.2977 256.538C91.2977 255.521 89.938 254.537 88.5343 254.537C87.8352 254.537 87.0205 254.443 86.7239 254.33C86.0821 254.083 86.0061 253.522 86.6108 253.494C86.8453 253.483 87.5737 253.108 88.2299 252.661C89.7352 251.635 89.8739 251.634 91.6808 252.634ZM82.6737 252.942C82.8858 253.293 84.9807 254.922 85.4184 255.076C85.4654 255.093 84.8901 255.752 84.1391 256.542C82.2981 258.478 81.4449 260.263 81.1886 262.717L80.9745 264.767H79.2729C78.3369 264.767 76.5947 264.587 75.4013 264.367L73.2317 263.967V262.351C73.2317 258.645 75.553 255.104 79.113 253.381C81.1143 252.412 82.2681 252.27 82.6737 252.942ZM89.2273 255.878C89.6022 256.115 89.3605 256.399 88.1716 257.117C85.96 258.454 84.5928 260.641 84.0791 263.664C83.6462 266.21 83.274 266.55 82.5258 265.081C82.0138 264.076 82.263 262.473 83.2904 260.163C84.4943 257.457 86.0531 256.112 88.5707 255.604C88.6645 255.585 88.96 255.709 89.2273 255.878ZM139.359 256.497C139.354 259.492 137.103 271.031 136.314 272.099C136.176 272.286 135.723 273.36 135.308 274.486C134.254 277.344 133.902 277.707 131.813 278.088C123.896 279.533 118.253 279.315 111.238 277.293C109.173 276.697 105.37 275.208 105.019 274.857C104.955 274.792 105.276 273.915 105.734 272.907C106.192 271.9 106.803 270.306 107.093 269.366C107.586 267.767 107.816 266.592 108.826 260.504C109.121 258.727 109.348 258.146 109.715 258.23C109.986 258.291 111.98 258.509 114.145 258.713C120.885 259.347 131.551 258.36 136.292 256.662C138.73 255.79 139.36 255.756 139.359 256.497ZM91.0046 258.373C92.3009 259.327 93.3463 261.312 93.3317 262.792C93.3211 263.88 92.306 267.282 91.8591 267.729C91.7378 267.85 91.6386 268.168 91.6386 268.434C91.6386 269.134 88.7562 275.029 87.978 275.922C87.0055 277.037 85.6587 277.429 83.6909 277.167C81.2966 276.85 80.3841 275.895 80.4083 273.734C80.4298 271.862 81.3559 269.161 82.0571 268.928C82.4303 268.804 82.4699 268.979 82.2432 269.752C82.0847 270.293 81.948 271.502 81.9395 272.44C81.9248 274.051 81.9753 274.15 82.8629 274.253C84.0365 274.388 84.5727 273.859 85.4198 271.732C86.7959 268.275 86.9564 267.512 86.5255 266.472C86.3036 265.936 85.9062 265.415 85.642 265.314C84.4459 264.855 85.9242 260.616 87.9047 258.826C88.6471 258.155 89.4137 257.606 89.608 257.606C89.8026 257.606 90.4312 257.951 91.0046 258.373ZM73.4021 265.369C73.5896 265.507 73.7583 267.154 73.7771 269.03C73.7962 270.905 73.8487 273.207 73.8943 274.145C73.94 275.082 73.8381 277.614 73.6677 279.771L73.3578 283.693L71.963 280.794C70.1639 277.056 69.5704 273.66 70.1424 270.374C70.8146 266.511 72.1552 264.452 73.4021 265.369ZM78.4698 266.088C79.0442 266.314 78.9757 266.489 77.7656 267.888C77.0283 268.74 76.2248 269.921 75.9801 270.512C75.7354 271.104 75.418 271.587 75.2752 271.587C74.5975 271.587 74.3426 267.582 74.948 266.449C75.3171 265.76 77.1544 265.571 78.4698 266.088ZM82.2159 266.983C82.8898 267.658 84.1033 267.633 84.8795 266.931C85.4671 266.399 85.5029 266.413 85.5029 267.186C85.5033 267.922 85.3649 268.001 84.1647 267.957C83.4284 267.93 82.6601 267.805 82.4573 267.679C81.1933 266.897 79.9529 268.71 79.3762 272.18C79.0077 274.398 79.0299 274.776 79.593 275.914C80.3909 277.528 81.8277 278.351 83.8992 278.382L85.534 278.407L85.3628 279.516C85.2691 280.125 85.0993 281.353 84.9858 282.244C84.8723 283.134 84.6593 283.863 84.5124 283.863C84.1006 283.863 80.3245 281.335 79.3659 280.418C78.0328 279.142 76.2862 276.202 76.0701 274.871C75.8434 273.474 77.2727 270.387 79.2876 267.921C80.5317 266.399 81.3648 266.132 82.2159 266.983ZM96.1285 271.099C97.3791 272.065 99.4114 273.446 100.645 274.168C101.878 274.889 102.887 275.621 102.887 275.793C102.887 276.38 99.5443 280.62 98.4068 281.476C94.9808 284.057 91.9338 285.054 88.5196 284.711L86.1847 284.476V282.345C86.1847 279.698 86.6615 278.269 87.7043 277.794C88.9985 277.204 90.7264 274.415 92.4618 270.113C93.0586 268.634 92.8711 268.584 96.1285 271.099ZM83.9141 271.868C83.3013 273.107 83.2931 273.111 83.185 272.206C83.125 271.703 83.3493 270.782 83.683 270.16C84.2547 269.096 84.2976 269.076 84.4125 269.822C84.4793 270.257 84.2554 271.178 83.9141 271.868ZM138.075 273.691C137.524 274.242 137.544 274.821 138.131 275.308C138.72 275.797 139.793 274.875 139.629 274.022C139.495 273.326 138.625 273.141 138.075 273.691ZM132.1 275.213C131.78 275.533 131.795 276.962 132.12 277.163C132.589 277.453 133.628 276.426 133.506 275.794C133.383 275.152 132.518 274.795 132.1 275.213ZM142.087 276.223C142.087 277.123 136.001 284.138 132.813 286.911C128.964 290.261 122.042 294.776 120.757 294.776C120.611 294.776 121.568 293.97 122.882 292.986C127.292 289.682 131.337 285.102 133.605 280.844C134.239 279.653 134.988 278.603 135.27 278.512C135.551 278.42 136.088 278.224 136.463 278.076C141.511 276.078 142.087 275.888 142.087 276.223ZM106.074 276.841C112.87 279.88 122.268 281.169 128.678 279.942C130.147 279.661 131.704 279.43 132.136 279.43C132.922 279.43 132.922 279.431 132.307 280.539C131.129 282.657 127.821 286.775 125.501 289.009C122.424 291.973 119.678 293.873 115.158 296.166C114.005 296.752 110.421 297.844 108.433 298.216C105.624 298.741 96.2883 298.082 93.6838 297.173C93.2151 297.01 91.9822 296.623 90.9442 296.314C88.9788 295.728 89.0394 295.798 87.7701 292.667C87.2424 291.365 86.3595 286.303 86.6155 286.047C86.6953 285.967 88.296 285.853 90.1721 285.793C93.2338 285.695 93.8123 285.569 95.8156 284.562C98.2548 283.336 102.112 279.775 103.315 277.64C104.106 276.235 104.477 276.128 106.074 276.841ZM79.5224 282.298C80.3558 282.981 81.9467 283.991 83.0572 284.543C85.1392 285.576 85.4791 286.073 85.5081 288.126C85.522 289.085 86.4676 292.85 87.0283 294.179C87.3903 295.037 86.8265 294.931 84.5877 293.719C82.0885 292.366 78.1719 289.419 76.6503 287.745C75.7163 286.718 75.417 286.046 75.2302 284.557C74.9268 282.139 74.873 277.561 75.1446 277.289C75.2595 277.174 75.9505 277.975 76.6802 279.068C77.41 280.161 78.6893 281.615 79.5224 282.298Z" fill="#4873FA"/>
</g>
<path d="M102.789 384.16C101.904 384.16 101.152 384 100.533 383.68C99.9145 383.36 99.3598 382.891 98.8691 382.272L100.117 381.024C100.426 381.472 100.794 381.824 101.221 382.08C101.648 382.325 102.192 382.448 102.853 382.448C103.472 382.448 103.962 382.32 104.325 382.064C104.698 381.808 104.885 381.456 104.885 381.008C104.885 380.635 104.789 380.331 104.597 380.096C104.405 379.861 104.149 379.669 103.829 379.52C103.52 379.36 103.173 379.221 102.789 379.104C102.416 378.976 102.037 378.837 101.653 378.688C101.28 378.528 100.933 378.331 100.613 378.096C100.304 377.861 100.053 377.557 99.8611 377.184C99.6691 376.811 99.5731 376.336 99.5731 375.76C99.5731 375.099 99.7331 374.539 100.053 374.08C100.384 373.611 100.826 373.253 101.381 373.008C101.936 372.763 102.554 372.64 103.237 372.64C103.973 372.64 104.629 372.784 105.205 373.072C105.792 373.36 106.266 373.728 106.629 374.176L105.381 375.424C105.061 375.061 104.725 374.795 104.373 374.624C104.032 374.443 103.637 374.352 103.189 374.352C102.634 374.352 102.197 374.464 101.877 374.688C101.568 374.912 101.413 375.227 101.413 375.632C101.413 375.973 101.509 376.251 101.701 376.464C101.893 376.667 102.144 376.843 102.453 376.992C102.773 377.131 103.12 377.264 103.493 377.392C103.877 377.52 104.256 377.664 104.629 377.824C105.013 377.984 105.36 378.192 105.669 378.448C105.989 378.693 106.245 379.013 106.437 379.408C106.629 379.803 106.725 380.299 106.725 380.896C106.725 381.899 106.368 382.693 105.653 383.28C104.949 383.867 103.994 384.16 102.789 384.16ZM108.336 384V376.32H110.096V384H108.336ZM109.216 374.912C108.917 374.912 108.666 374.811 108.464 374.608C108.272 374.405 108.176 374.155 108.176 373.856C108.176 373.557 108.272 373.307 108.464 373.104C108.666 372.901 108.917 372.8 109.216 372.8C109.525 372.8 109.776 372.901 109.968 373.104C110.16 373.307 110.256 373.557 110.256 373.856C110.256 374.155 110.16 374.405 109.968 374.608C109.776 374.811 109.525 374.912 109.216 374.912ZM112.07 384V376.32H113.83V384H112.07ZM117.174 384V379.424C117.174 378.912 117.014 378.517 116.694 378.24C116.374 377.952 115.979 377.808 115.51 377.808C115.19 377.808 114.902 377.872 114.646 378C114.4 378.128 114.203 378.315 114.054 378.56C113.904 378.795 113.83 379.083 113.83 379.424L113.142 379.04C113.142 378.453 113.27 377.947 113.526 377.52C113.782 377.093 114.128 376.763 114.566 376.528C115.003 376.283 115.494 376.16 116.038 376.16C116.582 376.16 117.072 376.277 117.51 376.512C117.947 376.747 118.294 377.077 118.55 377.504C118.806 377.931 118.934 378.443 118.934 379.04V384H117.174ZM122.278 384V379.424C122.278 378.912 122.118 378.517 121.798 378.24C121.478 377.952 121.083 377.808 120.614 377.808C120.304 377.808 120.022 377.872 119.766 378C119.51 378.128 119.307 378.315 119.158 378.56C119.008 378.795 118.934 379.083 118.934 379.424L117.942 379.04C117.995 378.453 118.166 377.947 118.454 377.52C118.742 377.093 119.11 376.763 119.558 376.528C120.016 376.283 120.518 376.16 121.062 376.16C121.616 376.16 122.118 376.277 122.566 376.512C123.014 376.747 123.371 377.077 123.638 377.504C123.904 377.931 124.038 378.443 124.038 379.04V384H122.278ZM129.963 384.16C129.376 384.16 128.854 384.037 128.395 383.792C127.936 383.536 127.574 383.189 127.307 382.752C127.051 382.315 126.923 381.819 126.923 381.264V379.056C126.923 378.501 127.056 378.005 127.323 377.568C127.59 377.131 127.952 376.789 128.411 376.544C128.87 376.288 129.387 376.16 129.963 376.16C130.656 376.16 131.28 376.341 131.835 376.704C132.4 377.056 132.843 377.536 133.163 378.144C133.494 378.741 133.659 379.419 133.659 380.176C133.659 380.923 133.494 381.6 133.163 382.208C132.843 382.805 132.4 383.28 131.835 383.632C131.28 383.984 130.656 384.16 129.963 384.16ZM129.675 382.496C130.102 382.496 130.475 382.4 130.795 382.208C131.126 382.005 131.382 381.728 131.563 381.376C131.755 381.024 131.851 380.619 131.851 380.16C131.851 379.701 131.755 379.296 131.563 378.944C131.382 378.592 131.126 378.32 130.795 378.128C130.475 377.925 130.102 377.824 129.675 377.824C129.248 377.824 128.87 377.925 128.539 378.128C128.208 378.32 127.952 378.592 127.771 378.944C127.59 379.296 127.499 379.701 127.499 380.16C127.499 380.619 127.59 381.024 127.771 381.376C127.952 381.728 128.208 382.005 128.539 382.208C128.87 382.4 129.248 382.496 129.675 382.496ZM125.851 387.2V376.32H127.611V378.384L127.307 380.256L127.611 382.112V387.2H125.851ZM135.132 384V372.48H136.892V384H135.132ZM138.867 384V376.32H140.627V384H138.867ZM139.747 374.912C139.448 374.912 139.198 374.811 138.995 374.608C138.803 374.405 138.707 374.155 138.707 373.856C138.707 373.557 138.803 373.307 138.995 373.104C139.198 372.901 139.448 372.8 139.747 372.8C140.056 372.8 140.307 372.901 140.499 373.104C140.691 373.307 140.787 373.557 140.787 373.856C140.787 374.155 140.691 374.405 140.499 374.608C140.307 374.811 140.056 374.912 139.747 374.912ZM143.657 384V374.992C143.657 374.48 143.769 374.027 143.993 373.632C144.228 373.227 144.548 372.907 144.953 372.672C145.358 372.437 145.833 372.32 146.377 372.32C146.782 372.32 147.134 372.389 147.433 372.528C147.742 372.656 148.03 372.843 148.297 373.088L147.145 374.24C147.038 374.155 146.921 374.091 146.793 374.048C146.676 373.995 146.537 373.968 146.377 373.968C146.068 373.968 145.828 374.059 145.657 374.24C145.497 374.421 145.417 374.667 145.417 374.976V384H143.657ZM141.817 377.92V376.32H149.305V377.92H141.817ZM148.297 384V376.32H150.057V384H148.297ZM149.177 375.648C148.878 375.648 148.628 375.547 148.425 375.344C148.233 375.141 148.137 374.891 148.137 374.592C148.137 374.293 148.233 374.043 148.425 373.84C148.628 373.637 148.878 373.536 149.177 373.536C149.486 373.536 149.737 373.637 149.929 373.84C150.121 374.043 150.217 374.293 150.217 374.592C150.217 374.891 150.121 375.141 149.929 375.344C149.737 375.547 149.486 375.648 149.177 375.648ZM155.591 384.16C154.823 384.16 154.13 383.989 153.511 383.648C152.903 383.296 152.418 382.816 152.055 382.208C151.703 381.6 151.527 380.917 151.527 380.16C151.527 379.403 151.703 378.725 152.055 378.128C152.407 377.52 152.882 377.04 153.479 376.688C154.087 376.336 154.759 376.16 155.495 376.16C156.21 376.16 156.839 376.325 157.383 376.656C157.938 376.987 158.37 377.44 158.679 378.016C158.999 378.592 159.159 379.248 159.159 379.984C159.159 380.112 159.148 380.245 159.127 380.384C159.116 380.512 159.095 380.656 159.063 380.816H152.759V379.376H158.151L157.495 379.952C157.474 379.483 157.383 379.088 157.223 378.768C157.063 378.448 156.834 378.203 156.535 378.032C156.247 377.861 155.89 377.776 155.463 377.776C155.015 377.776 154.626 377.872 154.295 378.064C153.964 378.256 153.708 378.528 153.527 378.88C153.346 379.221 153.255 379.632 153.255 380.112C153.255 380.592 153.351 381.013 153.543 381.376C153.735 381.739 154.007 382.021 154.359 382.224C154.711 382.416 155.116 382.512 155.575 382.512C155.97 382.512 156.332 382.443 156.663 382.304C157.004 382.165 157.292 381.963 157.527 381.696L158.647 382.832C158.274 383.269 157.82 383.6 157.287 383.824C156.754 384.048 156.188 384.16 155.591 384.16ZM163.786 384.16C163.092 384.16 162.463 383.984 161.898 383.632C161.343 383.28 160.9 382.805 160.57 382.208C160.25 381.6 160.09 380.923 160.09 380.176C160.09 379.419 160.25 378.741 160.57 378.144C160.9 377.536 161.343 377.056 161.898 376.704C162.463 376.341 163.092 376.16 163.786 376.16C164.372 376.16 164.89 376.288 165.338 376.544C165.796 376.789 166.159 377.131 166.426 377.568C166.692 378.005 166.826 378.501 166.826 379.056V381.264C166.826 381.819 166.692 382.315 166.426 382.752C166.17 383.189 165.812 383.536 165.354 383.792C164.895 384.037 164.372 384.16 163.786 384.16ZM164.074 382.496C164.511 382.496 164.89 382.4 165.21 382.208C165.54 382.005 165.796 381.728 165.978 381.376C166.159 381.024 166.25 380.619 166.25 380.16C166.25 379.701 166.159 379.296 165.978 378.944C165.796 378.592 165.54 378.32 165.21 378.128C164.89 377.925 164.511 377.824 164.074 377.824C163.647 377.824 163.268 377.925 162.938 378.128C162.618 378.32 162.362 378.592 162.17 378.944C161.988 379.296 161.898 379.701 161.898 380.16C161.898 380.619 161.988 381.024 162.17 381.376C162.362 381.728 162.618 382.005 162.938 382.208C163.268 382.4 163.647 382.496 164.074 382.496ZM167.898 384H166.138V381.936L166.442 380.064L166.138 378.208V372.48H167.898V384ZM177.614 384.16C176.771 384.16 176.014 383.968 175.342 383.584C174.67 383.2 174.137 382.677 173.742 382.016C173.358 381.344 173.166 380.587 173.166 379.744V372.8H175.006V379.728C175.006 380.272 175.118 380.747 175.342 381.152C175.577 381.547 175.891 381.856 176.286 382.08C176.681 382.293 177.123 382.4 177.614 382.4C178.115 382.4 178.558 382.293 178.942 382.08C179.326 381.856 179.63 381.547 179.854 381.152C180.078 380.747 180.19 380.277 180.19 379.744V372.8H182.03V379.76C182.03 380.603 181.838 381.355 181.454 382.016C181.07 382.677 180.547 383.2 179.886 383.584C179.225 383.968 178.467 384.16 177.614 384.16ZM186.613 384.16C186.186 384.16 185.776 384.107 185.381 384C184.986 383.883 184.624 383.723 184.293 383.52C183.962 383.307 183.674 383.051 183.429 382.752L184.549 381.632C184.816 381.941 185.12 382.176 185.461 382.336C185.813 382.485 186.208 382.56 186.645 382.56C187.04 382.56 187.338 382.501 187.541 382.384C187.744 382.267 187.845 382.096 187.845 381.872C187.845 381.637 187.749 381.456 187.557 381.328C187.365 381.2 187.114 381.093 186.805 381.008C186.506 380.912 186.186 380.816 185.845 380.72C185.514 380.624 185.194 380.496 184.885 380.336C184.586 380.165 184.341 379.936 184.149 379.648C183.957 379.36 183.861 378.987 183.861 378.528C183.861 378.037 183.973 377.616 184.197 377.264C184.432 376.912 184.757 376.64 185.173 376.448C185.6 376.256 186.106 376.16 186.693 376.16C187.312 376.16 187.856 376.272 188.325 376.496C188.805 376.709 189.205 377.035 189.525 377.472L188.405 378.592C188.181 378.315 187.925 378.107 187.637 377.968C187.349 377.829 187.018 377.76 186.645 377.76C186.293 377.76 186.021 377.813 185.829 377.92C185.637 378.027 185.541 378.181 185.541 378.384C185.541 378.597 185.637 378.763 185.829 378.88C186.021 378.997 186.266 379.099 186.565 379.184C186.874 379.269 187.194 379.365 187.525 379.472C187.866 379.568 188.186 379.707 188.485 379.888C188.794 380.059 189.045 380.293 189.237 380.592C189.429 380.88 189.525 381.259 189.525 381.728C189.525 382.475 189.264 383.067 188.741 383.504C188.218 383.941 187.509 384.16 186.613 384.16ZM194.544 384.16C193.776 384.16 193.083 383.989 192.464 383.648C191.856 383.296 191.371 382.816 191.008 382.208C190.656 381.6 190.48 380.917 190.48 380.16C190.48 379.403 190.656 378.725 191.008 378.128C191.36 377.52 191.835 377.04 192.432 376.688C193.04 376.336 193.712 376.16 194.448 376.16C195.163 376.16 195.792 376.325 196.336 376.656C196.891 376.987 197.323 377.44 197.632 378.016C197.952 378.592 198.112 379.248 198.112 379.984C198.112 380.112 198.101 380.245 198.08 380.384C198.069 380.512 198.048 380.656 198.016 380.816H191.712V379.376H197.104L196.448 379.952C196.427 379.483 196.336 379.088 196.176 378.768C196.016 378.448 195.787 378.203 195.488 378.032C195.2 377.861 194.843 377.776 194.416 377.776C193.968 377.776 193.579 377.872 193.248 378.064C192.917 378.256 192.661 378.528 192.48 378.88C192.299 379.221 192.208 379.632 192.208 380.112C192.208 380.592 192.304 381.013 192.496 381.376C192.688 381.739 192.96 382.021 193.312 382.224C193.664 382.416 194.069 382.512 194.528 382.512C194.923 382.512 195.285 382.443 195.616 382.304C195.957 382.165 196.245 381.963 196.48 381.696L197.6 382.832C197.227 383.269 196.773 383.6 196.24 383.824C195.707 384.048 195.141 384.16 194.544 384.16Z" fill="#090C05"/>
<defs>
<clipPath id="clip0_2267_9091">
<rect width="226" height="251.425" fill="white" transform="translate(36 48)"/>
</clipPath>
</defs>
</svg>
