<svg width="298" height="425" viewBox="0 0 298 425" fill="none" xmlns="http://www.w3.org/2000/svg">
<rect x="0.5" y="0.5" width="297" height="424" rx="9.5" fill="white"/>
<rect x="0.5" y="0.5" width="297" height="424" rx="9.5" stroke="#9AB2FF"/>
<path d="M49.4386 277.854C26.9724 259.84 81.3071 250.752 110.575 248.932C110.754 248.92 110.91 249.039 110.961 249.212C119.657 278.949 142.388 290.979 152.762 293.847C128.137 296.301 71.9817 295.929 49.4386 277.854Z" fill="#4873FA"/>
<circle cx="175.101" cy="230.634" r="59.4612" stroke="#4873FA" stroke-width="1.9167"/>
<circle cx="175.102" cy="230.635" r="67.077" stroke="#4873FA" stroke-width="1.9167"/>
<circle cx="175.101" cy="180.877" r="3.04636" fill="#4873FA"/>
<circle cx="175.101" cy="280.392" r="3.04636" fill="#4873FA"/>
<circle cx="224.859" cy="230.635" r="3.04636" fill="#4873FA"/>
<circle cx="125.345" cy="230.635" r="3.04636" fill="#4873FA"/>
<circle cx="175.102" cy="231.142" r="6.65755" stroke="#4873FA" stroke-width="1.9167"/>
<path d="M149.715 231.143H169.008" stroke="#4873FA" stroke-width="1.9167" stroke-linecap="round"/>
<path d="M66.9554 183.163C64.6706 182.824 59.5426 181.843 57.3086 180.624" stroke="#4873FA" stroke-width="1.9167" stroke-linecap="round"/>
<path d="M120.521 191.285C113.667 191.878 98.2322 192.098 85.2344 187.224" stroke="#4873FA" stroke-width="1.9167" stroke-linecap="round"/>
<path d="M107.574 226.827C90.0575 227.25 52.8411 226.37 37 220.48" stroke="#4873FA" stroke-width="1.9167" stroke-linecap="round"/>
<path d="M175.102 225.304V192.048" stroke="#4873FA" stroke-width="1.9167" stroke-linecap="round"/>
<path d="M238.059 209.818C245.929 210.326 262.176 214.642 260.653 204.741C259.861 199.596 254.345 198.693 251.48 198.885C251.343 198.894 251.214 198.836 251.133 198.724C247.895 194.228 239.534 187.261 230.916 194.075" stroke="#4873FA" stroke-width="1.9167" stroke-linecap="round"/>
<path d="M143.369 141.905C145.4 133.612 155.301 119.514 178.656 129.466L186.018 133.151" stroke="#4873FA" stroke-width="1.9167" stroke-linecap="round"/>
<path d="M178.656 129.466C183.649 126.081 195.919 122.459 202.012 135.051" stroke="#4873FA" stroke-width="1.9167" stroke-linecap="round"/>
<path d="M132.961 142.667H151.747" stroke="#4873FA" stroke-width="1.9167" stroke-linecap="round"/>
<path d="M124.217 63.2377C123.52 58.8957 119.276 55.513 114.044 55.513C113.056 55.513 112.067 55.6644 111.195 55.8664C108.521 51.7769 103.464 49 97.6504 49C89.0467 49 82.1289 55.0586 82.1289 62.4804" stroke="#4873FA" stroke-width="1.9167" stroke-miterlimit="10" stroke-linecap="round" stroke-linejoin="round"/>
<path d="M124.218 63.2374C130.438 63.8938 135.263 68.4882 135.263 74.0924C135.263 80.151 129.624 85.0484 122.648 85.0484L88.4076 84.9979H84.9196C77.9436 84.9979 72.3047 80.1005 72.3047 74.0419C72.3047 68.7911 76.5484 64.4492 82.1873 63.3384C84.7452 62.8167 91.4188 61.844 97.6507 62.1267M124.218 63.3384C122.319 63.0187 117.3 63.2879 112.417 66.9231" stroke="#4873FA" stroke-width="1.9167" stroke-miterlimit="10" stroke-linecap="round" stroke-linejoin="round"/>
<path d="M78.384 384.16C77.584 384.16 76.8373 384.011 76.144 383.712C75.4507 383.413 74.8427 383.003 74.32 382.48C73.7973 381.947 73.3867 381.333 73.088 380.64C72.8 379.936 72.656 379.184 72.656 378.384C72.656 377.584 72.8 376.837 73.088 376.144C73.3867 375.451 73.792 374.843 74.304 374.32C74.8267 373.787 75.4293 373.376 76.112 373.088C76.8053 372.789 77.552 372.64 78.352 372.64C79.152 372.64 79.8933 372.789 80.576 373.088C81.2693 373.376 81.8773 373.787 82.4 374.32C82.9227 374.843 83.328 375.456 83.616 376.16C83.9147 376.853 84.064 377.6 84.064 378.4C84.064 379.2 83.9147 379.952 83.616 380.656C83.328 381.349 82.9227 381.957 82.4 382.48C81.888 383.003 81.2853 383.413 80.592 383.712C79.9093 384.011 79.1733 384.16 78.384 384.16ZM78.352 382.4C79.1093 382.4 79.7707 382.229 80.336 381.888C80.912 381.547 81.36 381.077 81.68 380.48C82.0107 379.872 82.176 379.173 82.176 378.384C82.176 377.797 82.08 377.264 81.888 376.784C81.7067 376.293 81.4453 375.872 81.104 375.52C80.7627 375.157 80.3573 374.88 79.888 374.688C79.4293 374.496 78.9173 374.4 78.352 374.4C77.6053 374.4 76.944 374.571 76.368 374.912C75.8027 375.243 75.3547 375.707 75.024 376.304C74.704 376.901 74.544 377.595 74.544 378.384C74.544 378.971 74.6347 379.515 74.816 380.016C75.008 380.507 75.2693 380.928 75.6 381.28C75.9413 381.632 76.3467 381.909 76.816 382.112C77.2853 382.304 77.7973 382.4 78.352 382.4ZM83.504 384.768L78.464 379.728L79.648 378.544L84.688 383.584L83.504 384.768ZM89.253 384.16C88.6023 384.16 88.021 384.016 87.509 383.728C87.0077 383.44 86.613 383.045 86.325 382.544C86.0477 382.032 85.909 381.445 85.909 380.784V376.32H87.669V380.704C87.669 381.077 87.7277 381.397 87.845 381.664C87.973 381.92 88.1543 382.117 88.389 382.256C88.6343 382.395 88.9223 382.464 89.253 382.464C89.765 382.464 90.1543 382.315 90.421 382.016C90.6983 381.707 90.837 381.269 90.837 380.704V376.32H92.597V380.784C92.597 381.456 92.453 382.048 92.165 382.56C91.8877 383.061 91.4983 383.456 90.997 383.744C90.4957 384.021 89.9143 384.16 89.253 384.16ZM94.3826 384V376.32H96.1426V384H94.3826ZM95.2626 374.912C94.964 374.912 94.7133 374.811 94.5106 374.608C94.3186 374.405 94.2226 374.155 94.2226 373.856C94.2226 373.557 94.3186 373.307 94.5106 373.104C94.7133 372.901 94.964 372.8 95.2626 372.8C95.572 372.8 95.8226 372.901 96.0146 373.104C96.2066 373.307 96.3026 373.557 96.3026 373.856C96.3026 374.155 96.2066 374.405 96.0146 374.608C95.8226 374.811 95.572 374.912 95.2626 374.912ZM101.653 384.16C100.895 384.16 100.207 383.984 99.5886 383.632C98.9806 383.28 98.5006 382.8 98.1486 382.192C97.7966 381.584 97.6206 380.907 97.6206 380.16C97.6206 379.403 97.7966 378.725 98.1486 378.128C98.5006 377.52 98.9806 377.04 99.5886 376.688C100.207 376.336 100.895 376.16 101.653 376.16C102.25 376.16 102.805 376.277 103.317 376.512C103.839 376.736 104.282 377.061 104.645 377.488L103.493 378.656C103.269 378.389 102.997 378.192 102.677 378.064C102.367 377.925 102.026 377.856 101.653 377.856C101.215 377.856 100.826 377.957 100.485 378.16C100.154 378.352 99.8926 378.619 99.7006 378.96C99.5193 379.301 99.4286 379.701 99.4286 380.16C99.4286 380.608 99.5193 381.008 99.7006 381.36C99.8926 381.701 100.154 381.973 100.485 382.176C100.826 382.368 101.215 382.464 101.653 382.464C102.026 382.464 102.367 382.4 102.677 382.272C102.997 382.133 103.269 381.931 103.493 381.664L104.645 382.832C104.282 383.259 103.839 383.589 103.317 383.824C102.805 384.048 102.25 384.16 101.653 384.16ZM110.794 384L107.546 380.08L110.778 376.32H112.874L109.161 380.544L109.242 379.536L113.034 384H110.794ZM105.914 384V372.48H107.674V384H105.914ZM120.095 384V373.12H121.935V384H120.095ZM116.447 374.48V372.8H125.583V374.48H116.447ZM128.534 384.16C127.884 384.16 127.302 384.016 126.79 383.728C126.289 383.44 125.894 383.045 125.606 382.544C125.329 382.032 125.19 381.445 125.19 380.784V376.32H126.95V380.704C126.95 381.077 127.009 381.397 127.126 381.664C127.254 381.92 127.436 382.117 127.67 382.256C127.916 382.395 128.204 382.464 128.534 382.464C129.046 382.464 129.436 382.315 129.702 382.016C129.98 381.707 130.118 381.269 130.118 380.704V376.32H131.878V380.784C131.878 381.456 131.734 382.048 131.446 382.56C131.169 383.061 130.78 383.456 130.278 383.744C129.777 384.021 129.196 384.16 128.534 384.16ZM133.648 384V376.32H135.408V384H133.648ZM135.408 379.728L134.8 379.424C134.8 378.453 135.013 377.669 135.44 377.072C135.877 376.464 136.533 376.16 137.408 376.16C137.792 376.16 138.139 376.229 138.448 376.368C138.757 376.507 139.045 376.731 139.312 377.04L138.16 378.224C138.021 378.075 137.867 377.968 137.696 377.904C137.525 377.84 137.328 377.808 137.104 377.808C136.613 377.808 136.208 377.963 135.888 378.272C135.568 378.581 135.408 379.067 135.408 379.728ZM145.428 384V379.568C145.428 379.056 145.262 378.635 144.932 378.304C144.612 377.973 144.196 377.808 143.684 377.808C143.342 377.808 143.038 377.883 142.772 378.032C142.505 378.181 142.297 378.389 142.148 378.656C141.998 378.923 141.924 379.227 141.924 379.568L141.236 379.184C141.236 378.597 141.364 378.08 141.62 377.632C141.876 377.173 142.228 376.816 142.676 376.56C143.134 376.293 143.646 376.16 144.212 376.16C144.788 376.16 145.3 376.309 145.748 376.608C146.196 376.896 146.548 377.275 146.804 377.744C147.06 378.203 147.188 378.683 147.188 379.184V384H145.428ZM140.164 384V376.32H141.924V384H140.164ZM152.192 384.16C151.499 384.16 150.869 383.984 150.304 383.632C149.749 383.28 149.307 382.805 148.976 382.208C148.656 381.6 148.496 380.923 148.496 380.176C148.496 379.419 148.656 378.741 148.976 378.144C149.307 377.536 149.749 377.056 150.304 376.704C150.869 376.341 151.499 376.16 152.192 376.16C152.779 376.16 153.296 376.288 153.744 376.544C154.203 376.789 154.565 377.131 154.832 377.568C155.099 378.005 155.232 378.501 155.232 379.056V381.264C155.232 381.819 155.099 382.315 154.832 382.752C154.576 383.189 154.219 383.536 153.76 383.792C153.301 384.037 152.779 384.16 152.192 384.16ZM152.48 382.496C153.131 382.496 153.653 382.277 154.048 381.84C154.453 381.403 154.656 380.843 154.656 380.16C154.656 379.701 154.565 379.296 154.384 378.944C154.203 378.592 153.947 378.32 153.616 378.128C153.296 377.925 152.917 377.824 152.48 377.824C152.053 377.824 151.675 377.925 151.344 378.128C151.024 378.32 150.768 378.592 150.576 378.944C150.395 379.296 150.304 379.701 150.304 380.16C150.304 380.619 150.395 381.024 150.576 381.376C150.768 381.728 151.024 382.005 151.344 382.208C151.675 382.4 152.053 382.496 152.48 382.496ZM154.544 384V381.936L154.848 380.064L154.544 378.208V376.32H156.304V384H154.544ZM158.257 384V376.32H160.017V384H158.257ZM160.017 379.728L159.409 379.424C159.409 378.453 159.623 377.669 160.049 377.072C160.487 376.464 161.143 376.16 162.017 376.16C162.401 376.16 162.748 376.229 163.057 376.368C163.367 376.507 163.655 376.731 163.921 377.04L162.769 378.224C162.631 378.075 162.476 377.968 162.305 377.904C162.135 377.84 161.937 377.808 161.713 377.808C161.223 377.808 160.817 377.963 160.497 378.272C160.177 378.581 160.017 379.067 160.017 379.728ZM168.059 384.16C167.312 384.16 166.635 383.984 166.027 383.632C165.419 383.269 164.933 382.784 164.571 382.176C164.219 381.568 164.043 380.891 164.043 380.144C164.043 379.397 164.219 378.725 164.571 378.128C164.933 377.531 165.419 377.056 166.027 376.704C166.635 376.341 167.312 376.16 168.059 376.16C168.816 376.16 169.499 376.336 170.107 376.688C170.715 377.04 171.195 377.52 171.547 378.128C171.909 378.725 172.091 379.397 172.091 380.144C172.091 380.891 171.909 381.568 171.547 382.176C171.195 382.784 170.715 383.269 170.107 383.632C169.499 383.984 168.816 384.16 168.059 384.16ZM168.059 382.464C168.496 382.464 168.88 382.368 169.211 382.176C169.552 381.973 169.813 381.696 169.995 381.344C170.187 380.992 170.283 380.592 170.283 380.144C170.283 379.696 170.187 379.301 169.995 378.96C169.803 378.619 169.541 378.352 169.211 378.16C168.88 377.957 168.496 377.856 168.059 377.856C167.632 377.856 167.248 377.957 166.907 378.16C166.576 378.352 166.315 378.619 166.123 378.96C165.941 379.301 165.851 379.696 165.851 380.144C165.851 380.592 165.941 380.992 166.123 381.344C166.315 381.696 166.576 381.973 166.907 382.176C167.248 382.368 167.632 382.464 168.059 382.464ZM176.706 384.16C176.055 384.16 175.474 384.016 174.962 383.728C174.461 383.44 174.066 383.045 173.778 382.544C173.501 382.032 173.362 381.445 173.362 380.784V376.32H175.122V380.704C175.122 381.077 175.181 381.397 175.298 381.664C175.426 381.92 175.607 382.117 175.842 382.256C176.087 382.395 176.375 382.464 176.706 382.464C177.218 382.464 177.607 382.315 177.874 382.016C178.151 381.707 178.29 381.269 178.29 380.704V376.32H180.05V380.784C180.05 381.456 179.906 382.048 179.618 382.56C179.341 383.061 178.951 383.456 178.45 383.744C177.949 384.021 177.367 384.16 176.706 384.16ZM187.084 384V379.568C187.084 379.056 186.918 378.635 186.588 378.304C186.268 377.973 185.852 377.808 185.34 377.808C184.998 377.808 184.694 377.883 184.428 378.032C184.161 378.181 183.953 378.389 183.804 378.656C183.654 378.923 183.58 379.227 183.58 379.568L182.892 379.184C182.892 378.597 183.02 378.08 183.276 377.632C183.532 377.173 183.884 376.816 184.332 376.56C184.79 376.293 185.302 376.16 185.868 376.16C186.444 376.16 186.956 376.309 187.404 376.608C187.852 376.896 188.204 377.275 188.46 377.744C188.716 378.203 188.844 378.683 188.844 379.184V384H187.084ZM181.82 384V376.32H183.58V384H181.82ZM193.848 384.16C193.155 384.16 192.526 383.984 191.96 383.632C191.406 383.28 190.963 382.805 190.632 382.208C190.312 381.6 190.152 380.923 190.152 380.176C190.152 379.419 190.312 378.741 190.632 378.144C190.963 377.536 191.406 377.056 191.96 376.704C192.526 376.341 193.155 376.16 193.848 376.16C194.435 376.16 194.952 376.288 195.4 376.544C195.859 376.789 196.222 377.131 196.488 377.568C196.755 378.005 196.888 378.501 196.888 379.056V381.264C196.888 381.819 196.755 382.315 196.488 382.752C196.232 383.189 195.875 383.536 195.416 383.792C194.958 384.037 194.435 384.16 193.848 384.16ZM194.136 382.496C194.574 382.496 194.952 382.4 195.272 382.208C195.603 382.005 195.859 381.728 196.04 381.376C196.222 381.024 196.312 380.619 196.312 380.16C196.312 379.701 196.222 379.296 196.04 378.944C195.859 378.592 195.603 378.32 195.272 378.128C194.952 377.925 194.574 377.824 194.136 377.824C193.71 377.824 193.331 377.925 193 378.128C192.68 378.32 192.424 378.592 192.232 378.944C192.051 379.296 191.96 379.701 191.96 380.16C191.96 380.619 192.051 381.024 192.232 381.376C192.424 381.728 192.68 382.005 193 382.208C193.331 382.4 193.71 382.496 194.136 382.496ZM197.96 384H196.2V381.936L196.504 380.064L196.2 378.208V372.48H197.96V384ZM205.923 384V373.12H207.763V384H205.923ZM202.275 374.48V372.8H211.411V374.48H202.275ZM212.789 384V376.32H214.549V384H212.789ZM213.669 374.912C213.37 374.912 213.12 374.811 212.917 374.608C212.725 374.405 212.629 374.155 212.629 373.856C212.629 373.557 212.725 373.307 212.917 373.104C213.12 372.901 213.37 372.8 213.669 372.8C213.978 372.8 214.229 372.901 214.421 373.104C214.613 373.307 214.709 373.557 214.709 373.856C214.709 374.155 214.613 374.405 214.421 374.608C214.229 374.811 213.978 374.912 213.669 374.912ZM216.523 384V376.32H218.283V384H216.523ZM221.627 384V379.424C221.627 378.912 221.467 378.517 221.147 378.24C220.827 377.952 220.432 377.808 219.963 377.808C219.643 377.808 219.355 377.872 219.099 378C218.854 378.128 218.656 378.315 218.507 378.56C218.358 378.795 218.283 379.083 218.283 379.424L217.595 379.04C217.595 378.453 217.723 377.947 217.979 377.52C218.235 377.093 218.582 376.763 219.019 376.528C219.456 376.283 219.947 376.16 220.491 376.16C221.035 376.16 221.526 376.277 221.963 376.512C222.4 376.747 222.747 377.077 223.003 377.504C223.259 377.931 223.387 378.443 223.387 379.04V384H221.627ZM226.731 384V379.424C226.731 378.912 226.571 378.517 226.251 378.24C225.931 377.952 225.536 377.808 225.067 377.808C224.758 377.808 224.475 377.872 224.219 378C223.963 378.128 223.76 378.315 223.611 378.56C223.462 378.795 223.387 379.083 223.387 379.424L222.395 379.04C222.448 378.453 222.619 377.947 222.907 377.52C223.195 377.093 223.563 376.763 224.011 376.528C224.47 376.283 224.971 376.16 225.515 376.16C226.07 376.16 226.571 376.277 227.019 376.512C227.467 376.747 227.824 377.077 228.091 377.504C228.358 377.931 228.491 378.443 228.491 379.04V384H226.731ZM233.872 384.16C233.104 384.16 232.411 383.989 231.792 383.648C231.184 383.296 230.699 382.816 230.336 382.208C229.984 381.6 229.808 380.917 229.808 380.16C229.808 379.403 229.984 378.725 230.336 378.128C230.688 377.52 231.163 377.04 231.76 376.688C232.368 376.336 233.04 376.16 233.776 376.16C234.491 376.16 235.12 376.325 235.664 376.656C236.219 376.987 236.651 377.44 236.96 378.016C237.28 378.592 237.44 379.248 237.44 379.984C237.44 380.112 237.429 380.245 237.408 380.384C237.397 380.512 237.376 380.656 237.344 380.816H231.04V379.376H236.432L235.776 379.952C235.755 379.483 235.664 379.088 235.504 378.768C235.344 378.448 235.115 378.203 234.816 378.032C234.528 377.861 234.171 377.776 233.744 377.776C233.296 377.776 232.907 377.872 232.576 378.064C232.245 378.256 231.989 378.528 231.808 378.88C231.627 379.221 231.536 379.632 231.536 380.112C231.536 380.592 231.632 381.013 231.824 381.376C232.016 381.739 232.288 382.021 232.64 382.224C232.992 382.416 233.397 382.512 233.856 382.512C234.251 382.512 234.613 382.443 234.944 382.304C235.285 382.165 235.573 381.963 235.808 381.696L236.928 382.832C236.555 383.269 236.101 383.6 235.568 383.824C235.035 384.048 234.469 384.16 233.872 384.16Z" fill="#090C05"/>
</svg>
