<svg width="298" height="425" viewBox="0 0 298 425" fill="none" xmlns="http://www.w3.org/2000/svg">
<rect x="0.5" y="0.5" width="297" height="424" rx="9.5" fill="white"/>
<rect x="0.5" y="0.5" width="297" height="424" rx="9.5" stroke="#9AB2FF"/>
<path d="M82.032 378V367.12H83.872V378H82.032ZM78.384 368.48V366.8H87.52V368.48H78.384ZM87.2416 378V370.32H89.0016V378H87.2416ZM89.0016 373.728L88.3936 373.424C88.3936 372.453 88.607 371.669 89.0336 371.072C89.471 370.464 90.127 370.16 91.0016 370.16C91.3856 370.16 91.7323 370.229 92.0416 370.368C92.351 370.507 92.639 370.731 92.9056 371.04L91.7536 372.224C91.615 372.075 91.4603 371.968 91.2896 371.904C91.119 371.84 90.9216 371.808 90.6976 371.808C90.207 371.808 89.8016 371.963 89.4816 372.272C89.1616 372.581 89.0016 373.067 89.0016 373.728ZM96.7389 378.16C96.0455 378.16 95.4162 377.984 94.8509 377.632C94.2962 377.28 93.8535 376.805 93.5229 376.208C93.2029 375.6 93.0429 374.923 93.0429 374.176C93.0429 373.419 93.2029 372.741 93.5229 372.144C93.8535 371.536 94.2962 371.056 94.8509 370.704C95.4162 370.341 96.0455 370.16 96.7389 370.16C97.3255 370.16 97.8429 370.288 98.2909 370.544C98.7495 370.789 99.1122 371.131 99.3789 371.568C99.6455 372.005 99.7789 372.501 99.7789 373.056V375.264C99.7789 375.819 99.6455 376.315 99.3789 376.752C99.1229 377.189 98.7655 377.536 98.3069 377.792C97.8482 378.037 97.3255 378.16 96.7389 378.16ZM97.0269 376.496C97.6775 376.496 98.2002 376.277 98.5949 375.84C99.0002 375.403 99.2029 374.843 99.2029 374.16C99.2029 373.701 99.1122 373.296 98.9309 372.944C98.7495 372.592 98.4935 372.32 98.1629 372.128C97.8429 371.925 97.4642 371.824 97.0269 371.824C96.6002 371.824 96.2215 371.925 95.8909 372.128C95.5709 372.32 95.3149 372.592 95.1229 372.944C94.9415 373.296 94.8509 373.701 94.8509 374.16C94.8509 374.619 94.9415 375.024 95.1229 375.376C95.3149 375.728 95.5709 376.005 95.8909 376.208C96.2215 376.4 96.6002 376.496 97.0269 376.496ZM99.0909 378V375.936L99.3949 374.064L99.0909 372.208V370.32H100.851V378H99.0909ZM108.068 378V373.568C108.068 373.056 107.903 372.635 107.572 372.304C107.252 371.973 106.836 371.808 106.324 371.808C105.983 371.808 105.679 371.883 105.412 372.032C105.145 372.181 104.937 372.389 104.788 372.656C104.639 372.923 104.564 373.227 104.564 373.568L103.876 373.184C103.876 372.597 104.004 372.08 104.26 371.632C104.516 371.173 104.868 370.816 105.316 370.56C105.775 370.293 106.287 370.16 106.852 370.16C107.428 370.16 107.94 370.309 108.388 370.608C108.836 370.896 109.188 371.275 109.444 371.744C109.7 372.203 109.828 372.683 109.828 373.184V378H108.068ZM102.804 378V370.32H104.564V378H102.804ZM114.129 378.16C113.702 378.16 113.291 378.107 112.897 378C112.502 377.883 112.139 377.723 111.809 377.52C111.478 377.307 111.19 377.051 110.945 376.752L112.065 375.632C112.331 375.941 112.635 376.176 112.977 376.336C113.329 376.485 113.723 376.56 114.161 376.56C114.555 376.56 114.854 376.501 115.057 376.384C115.259 376.267 115.361 376.096 115.361 375.872C115.361 375.637 115.265 375.456 115.073 375.328C114.881 375.2 114.63 375.093 114.321 375.008C114.022 374.912 113.702 374.816 113.361 374.72C113.03 374.624 112.71 374.496 112.401 374.336C112.102 374.165 111.857 373.936 111.665 373.648C111.473 373.36 111.377 372.987 111.377 372.528C111.377 372.037 111.489 371.616 111.713 371.264C111.947 370.912 112.273 370.64 112.689 370.448C113.115 370.256 113.622 370.16 114.209 370.16C114.827 370.16 115.371 370.272 115.841 370.496C116.321 370.709 116.721 371.035 117.041 371.472L115.921 372.592C115.697 372.315 115.441 372.107 115.153 371.968C114.865 371.829 114.534 371.76 114.161 371.76C113.809 371.76 113.537 371.813 113.345 371.92C113.153 372.027 113.057 372.181 113.057 372.384C113.057 372.597 113.153 372.763 113.345 372.88C113.537 372.997 113.782 373.099 114.081 373.184C114.39 373.269 114.71 373.365 115.041 373.472C115.382 373.568 115.702 373.707 116.001 373.888C116.31 374.059 116.561 374.293 116.753 374.592C116.945 374.88 117.041 375.259 117.041 375.728C117.041 376.475 116.779 377.067 116.257 377.504C115.734 377.941 115.025 378.16 114.129 378.16ZM122.604 378.16C122.017 378.16 121.494 378.037 121.036 377.792C120.577 377.536 120.214 377.189 119.948 376.752C119.692 376.315 119.564 375.819 119.564 375.264V373.056C119.564 372.501 119.697 372.005 119.964 371.568C120.23 371.131 120.593 370.789 121.052 370.544C121.51 370.288 122.028 370.16 122.604 370.16C123.297 370.16 123.921 370.341 124.476 370.704C125.041 371.056 125.484 371.536 125.804 372.144C126.134 372.741 126.3 373.419 126.3 374.176C126.3 374.923 126.134 375.6 125.804 376.208C125.484 376.805 125.041 377.28 124.476 377.632C123.921 377.984 123.297 378.16 122.604 378.16ZM122.316 376.496C122.742 376.496 123.116 376.4 123.436 376.208C123.766 376.005 124.022 375.728 124.204 375.376C124.396 375.024 124.492 374.619 124.492 374.16C124.492 373.701 124.396 373.296 124.204 372.944C124.022 372.592 123.766 372.32 123.436 372.128C123.116 371.925 122.742 371.824 122.316 371.824C121.889 371.824 121.51 371.925 121.18 372.128C120.849 372.32 120.593 372.592 120.412 372.944C120.23 373.296 120.14 373.701 120.14 374.16C120.14 374.619 120.23 375.024 120.412 375.376C120.593 375.728 120.849 376.005 121.18 376.208C121.51 376.4 121.889 376.496 122.316 376.496ZM118.492 381.2V370.32H120.252V372.384L119.948 374.256L120.252 376.112V381.2H118.492ZM130.989 378.16C130.296 378.16 129.666 377.984 129.101 377.632C128.546 377.28 128.104 376.805 127.773 376.208C127.453 375.6 127.293 374.923 127.293 374.176C127.293 373.419 127.453 372.741 127.773 372.144C128.104 371.536 128.546 371.056 129.101 370.704C129.666 370.341 130.296 370.16 130.989 370.16C131.576 370.16 132.093 370.288 132.541 370.544C133 370.789 133.362 371.131 133.629 371.568C133.896 372.005 134.029 372.501 134.029 373.056V375.264C134.029 375.819 133.896 376.315 133.629 376.752C133.373 377.189 133.016 377.536 132.557 377.792C132.098 378.037 131.576 378.16 130.989 378.16ZM131.277 376.496C131.928 376.496 132.45 376.277 132.845 375.84C133.25 375.403 133.453 374.843 133.453 374.16C133.453 373.701 133.362 373.296 133.181 372.944C133 372.592 132.744 372.32 132.413 372.128C132.093 371.925 131.714 371.824 131.277 371.824C130.85 371.824 130.472 371.925 130.141 372.128C129.821 372.32 129.565 372.592 129.373 372.944C129.192 373.296 129.101 373.701 129.101 374.16C129.101 374.619 129.192 375.024 129.373 375.376C129.565 375.728 129.821 376.005 130.141 376.208C130.472 376.4 130.85 376.496 131.277 376.496ZM133.341 378V375.936L133.645 374.064L133.341 372.208V370.32H135.101V378H133.341ZM137.054 378V370.32H138.814V378H137.054ZM138.814 373.728L138.206 373.424C138.206 372.453 138.419 371.669 138.846 371.072C139.283 370.464 139.939 370.16 140.814 370.16C141.198 370.16 141.545 370.229 141.854 370.368C142.163 370.507 142.451 370.731 142.718 371.04L141.566 372.224C141.427 372.075 141.273 371.968 141.102 371.904C140.931 371.84 140.734 371.808 140.51 371.808C140.019 371.808 139.614 371.963 139.294 372.272C138.974 372.581 138.814 373.067 138.814 373.728ZM146.903 378.16C146.135 378.16 145.442 377.989 144.823 377.648C144.215 377.296 143.73 376.816 143.367 376.208C143.015 375.6 142.839 374.917 142.839 374.16C142.839 373.403 143.015 372.725 143.367 372.128C143.719 371.52 144.194 371.04 144.791 370.688C145.399 370.336 146.071 370.16 146.807 370.16C147.522 370.16 148.151 370.325 148.695 370.656C149.25 370.987 149.682 371.44 149.991 372.016C150.311 372.592 150.471 373.248 150.471 373.984C150.471 374.112 150.461 374.245 150.439 374.384C150.429 374.512 150.407 374.656 150.375 374.816H144.071V373.376H149.463L148.807 373.952C148.786 373.483 148.695 373.088 148.535 372.768C148.375 372.448 148.146 372.203 147.847 372.032C147.559 371.861 147.202 371.776 146.775 371.776C146.327 371.776 145.938 371.872 145.607 372.064C145.277 372.256 145.021 372.528 144.839 372.88C144.658 373.221 144.567 373.632 144.567 374.112C144.567 374.592 144.663 375.013 144.855 375.376C145.047 375.739 145.319 376.021 145.671 376.224C146.023 376.416 146.429 376.512 146.887 376.512C147.282 376.512 147.645 376.443 147.975 376.304C148.317 376.165 148.605 375.963 148.839 375.696L149.959 376.832C149.586 377.269 149.133 377.6 148.599 377.824C148.066 378.048 147.501 378.16 146.903 378.16ZM157.146 378V373.568C157.146 373.056 156.981 372.635 156.65 372.304C156.33 371.973 155.914 371.808 155.402 371.808C155.061 371.808 154.757 371.883 154.49 372.032C154.224 372.181 154.016 372.389 153.866 372.656C153.717 372.923 153.642 373.227 153.642 373.568L152.954 373.184C152.954 372.597 153.082 372.08 153.338 371.632C153.594 371.173 153.946 370.816 154.394 370.56C154.853 370.293 155.365 370.16 155.93 370.16C156.506 370.16 157.018 370.309 157.466 370.608C157.914 370.896 158.266 371.275 158.522 371.744C158.778 372.203 158.906 372.683 158.906 373.184V378H157.146ZM151.882 378V370.32H153.642V378H151.882ZM161.769 378V367.12H163.529V378H161.769ZM159.929 371.92V370.32H165.369V371.92H159.929ZM171.355 373.776V372.176H174.155C174.539 372.176 174.875 372.101 175.163 371.952C175.462 371.792 175.696 371.573 175.867 371.296C176.038 371.008 176.123 370.672 176.123 370.288C176.123 369.904 176.038 369.573 175.867 369.296C175.696 369.008 175.462 368.789 175.163 368.64C174.875 368.48 174.539 368.4 174.155 368.4H171.355V366.8H174.251C174.955 366.8 175.584 366.944 176.139 367.232C176.704 367.52 177.147 367.925 177.467 368.448C177.798 368.971 177.963 369.584 177.963 370.288C177.963 370.992 177.798 371.605 177.467 372.128C177.147 372.651 176.704 373.056 176.139 373.344C175.584 373.632 174.955 373.776 174.251 373.776H171.355ZM170.091 378V366.8H171.931V378H170.091ZM179.507 378V370.32H181.267V378H179.507ZM181.267 373.728L180.659 373.424C180.659 372.453 180.873 371.669 181.299 371.072C181.737 370.464 182.393 370.16 183.267 370.16C183.651 370.16 183.998 370.229 184.307 370.368C184.617 370.507 184.905 370.731 185.171 371.04L184.019 372.224C183.881 372.075 183.726 371.968 183.555 371.904C183.385 371.84 183.187 371.808 182.963 371.808C182.473 371.808 182.067 371.963 181.747 372.272C181.427 372.581 181.267 373.067 181.267 373.728ZM186.039 378V370.32H187.799V378H186.039ZM186.919 368.912C186.62 368.912 186.37 368.811 186.167 368.608C185.975 368.405 185.879 368.155 185.879 367.856C185.879 367.557 185.975 367.307 186.167 367.104C186.37 366.901 186.62 366.8 186.919 366.8C187.228 366.8 187.479 366.901 187.671 367.104C187.863 367.307 187.959 367.557 187.959 367.856C187.959 368.155 187.863 368.405 187.671 368.608C187.479 368.811 187.228 368.912 186.919 368.912ZM193.309 378.16C192.552 378.16 191.864 377.984 191.245 377.632C190.637 377.28 190.157 376.8 189.805 376.192C189.453 375.584 189.277 374.907 189.277 374.16C189.277 373.403 189.453 372.725 189.805 372.128C190.157 371.52 190.637 371.04 191.245 370.688C191.864 370.336 192.552 370.16 193.309 370.16C193.906 370.16 194.461 370.277 194.973 370.512C195.496 370.736 195.938 371.061 196.301 371.488L195.149 372.656C194.925 372.389 194.653 372.192 194.333 372.064C194.024 371.925 193.682 371.856 193.309 371.856C192.872 371.856 192.482 371.957 192.141 372.16C191.81 372.352 191.549 372.619 191.357 372.96C191.176 373.301 191.085 373.701 191.085 374.16C191.085 374.608 191.176 375.008 191.357 375.36C191.549 375.701 191.81 375.973 192.141 376.176C192.482 376.368 192.872 376.464 193.309 376.464C193.682 376.464 194.024 376.4 194.333 376.272C194.653 376.133 194.925 375.931 195.149 375.664L196.301 376.832C195.938 377.259 195.496 377.589 194.973 377.824C194.461 378.048 193.906 378.16 193.309 378.16ZM197.586 378V370.32H199.346V378H197.586ZM198.466 368.912C198.167 368.912 197.916 368.811 197.714 368.608C197.522 368.405 197.426 368.155 197.426 367.856C197.426 367.557 197.522 367.307 197.714 367.104C197.916 366.901 198.167 366.8 198.466 366.8C198.775 366.8 199.026 366.901 199.218 367.104C199.41 367.307 199.506 367.557 199.506 367.856C199.506 368.155 199.41 368.405 199.218 368.608C199.026 368.811 198.775 368.912 198.466 368.912ZM206.584 378V373.568C206.584 373.056 206.418 372.635 206.088 372.304C205.768 371.973 205.352 371.808 204.84 371.808C204.498 371.808 204.194 371.883 203.928 372.032C203.661 372.181 203.453 372.389 203.304 372.656C203.154 372.923 203.08 373.227 203.08 373.568L202.392 373.184C202.392 372.597 202.52 372.08 202.776 371.632C203.032 371.173 203.384 370.816 203.832 370.56C204.29 370.293 204.802 370.16 205.368 370.16C205.944 370.16 206.456 370.309 206.904 370.608C207.352 370.896 207.704 371.275 207.96 371.744C208.216 372.203 208.344 372.683 208.344 373.184V378H206.584ZM201.32 378V370.32H203.08V378H201.32ZM213.332 381.36C212.522 381.36 211.812 381.211 211.204 380.912C210.596 380.624 210.106 380.213 209.732 379.68L210.884 378.528C211.194 378.912 211.546 379.2 211.94 379.392C212.335 379.584 212.81 379.68 213.364 379.68C214.058 379.68 214.607 379.499 215.012 379.136C215.418 378.784 215.62 378.299 215.62 377.68V375.792L215.924 374.096L215.62 372.384V370.32H217.38V377.68C217.38 378.416 217.21 379.056 216.868 379.6C216.527 380.155 216.052 380.587 215.444 380.896C214.836 381.205 214.132 381.36 213.332 381.36ZM213.252 377.84C212.57 377.84 211.951 377.675 211.396 377.344C210.852 377.003 210.42 376.539 210.1 375.952C209.791 375.365 209.636 374.709 209.636 373.984C209.636 373.259 209.791 372.608 210.1 372.032C210.42 371.456 210.852 371.003 211.396 370.672C211.951 370.331 212.57 370.16 213.252 370.16C213.86 370.16 214.394 370.283 214.852 370.528C215.311 370.773 215.668 371.115 215.924 371.552C216.18 371.979 216.308 372.48 216.308 373.056V374.944C216.308 375.509 216.175 376.011 215.908 376.448C215.652 376.885 215.295 377.227 214.836 377.472C214.378 377.717 213.85 377.84 213.252 377.84ZM213.604 376.176C214.031 376.176 214.404 376.085 214.724 375.904C215.044 375.723 215.29 375.472 215.46 375.152C215.642 374.821 215.732 374.437 215.732 374C215.732 373.563 215.642 373.184 215.46 372.864C215.29 372.533 215.044 372.277 214.724 372.096C214.404 371.915 214.031 371.824 213.604 371.824C213.178 371.824 212.799 371.915 212.468 372.096C212.148 372.277 211.898 372.533 211.716 372.864C211.535 373.184 211.444 373.563 211.444 374C211.444 374.427 211.535 374.805 211.716 375.136C211.898 375.467 212.148 375.723 212.468 375.904C212.799 376.085 213.178 376.176 213.604 376.176Z" fill="#090C05"/>
<path fill-rule="evenodd" clip-rule="evenodd" d="M190.878 62.3536C188.878 62.7789 185.862 64.4847 184.238 66.1095C180.644 69.7041 179.714 74.5757 181.739 79.1906L182.312 80.4947H174.507H166.701V75.8716C166.701 73.2878 166.561 70.9883 166.385 70.6584C166.011 69.9591 164.535 69.141 163.648 69.141C163.149 69.141 163.019 68.944 163.019 68.19C163.019 67.522 162.736 66.9746 162.067 66.3489L161.114 65.4587H132.431H103.749L102.706 66.502L101.663 67.5453V74.1734V80.8016H78.041H54.4188V94.4527V108.104L53.4218 108.525C52.8733 108.757 52.0373 109.337 51.5639 109.816C50.8731 110.513 50.4672 110.671 49.5057 110.614C48.0933 110.531 45.2556 111.221 43.5281 112.069C42.0197 112.808 39.0132 115.863 38.3613 117.318C38.0965 117.908 37.6631 119.013 37.398 119.772C35.284 125.826 38.1699 133.477 43.5778 136.156C44.5629 136.644 45.6084 137.161 45.9014 137.307C46.8137 137.758 51.4937 137.619 52.4665 137.112C52.9497 136.86 53.5865 136.653 53.882 136.652C54.386 136.65 54.4188 137.576 54.4188 151.821C54.4188 161.604 54.3099 167.06 54.1121 167.182C53.9108 167.306 53.8053 177.777 53.8053 197.595V227.819L52.4248 229.934C51.6655 231.098 51.0442 232.15 51.0442 232.272C51.0442 232.394 50.8562 232.712 50.6261 232.979C50.396 233.245 49.9582 234.154 49.653 234.998C49.3477 235.841 48.991 236.675 48.86 236.851C48.636 237.151 48.3789 238.062 47.6175 241.25C47.2055 242.975 47.4613 250.91 47.9749 252.335C48.547 253.923 50.1641 257.265 50.8703 258.319C52.6183 260.927 55.9935 263.834 59.0107 265.329C60.3612 265.998 63.972 266.758 65.7697 266.752C67.7368 266.744 72.1115 265.985 74.2697 265.276C76.4657 264.555 79.8792 262.755 81.538 261.443C83.0566 260.241 85.3764 257.774 86.1646 256.522C87.1036 255.03 87.7571 254.418 88.2884 254.532C88.7268 254.626 88.7231 254.728 88.2516 255.557C87.5767 256.745 87.4856 262.509 88.1203 263.871C88.3491 264.361 88.7335 265.177 88.975 265.683C89.4618 266.705 91.2832 268.905 91.6421 268.905C91.7685 268.905 92.1766 269.191 92.5493 269.54C93.4175 270.352 96.0208 271.667 96.7617 271.667C97.0752 271.667 97.4173 271.805 97.5216 271.974C97.6293 272.148 99.161 272.281 101.068 272.281C103.101 272.281 104.424 272.16 104.424 271.974C104.424 271.805 104.709 271.667 105.057 271.667C106.253 271.667 109.081 270.115 110.733 268.552C112.599 266.788 114.241 263.773 114.241 262.115C114.241 261.529 114.407 260.884 114.609 260.682C114.863 260.428 116.418 260.312 119.595 260.309C122.134 260.306 124.385 260.194 124.597 260.059C124.809 259.925 125.448 258.678 126.016 257.289C126.584 255.9 127.112 254.701 127.189 254.624C127.267 254.547 131.834 254.479 137.339 254.474C145.561 254.466 147.426 254.387 147.783 254.029C148.159 253.654 148.465 253.724 150.02 254.543C151.652 255.403 152.082 255.492 154.583 255.486C156.444 255.481 157.716 255.316 158.485 254.981C159.112 254.707 159.768 254.483 159.942 254.483C160.155 254.483 160.258 259.58 160.258 270.133V285.783H207.042H253.827V242.209V198.635H235.727C220.547 198.635 217.626 198.703 217.626 199.058C217.626 199.291 217.99 200.275 218.434 201.246C219.076 202.648 219.244 203.492 219.254 205.349C219.267 208.015 218.846 209.549 217.556 211.523C216.654 212.905 213.586 215.512 212.862 215.512C212.65 215.512 211.895 213.897 211.178 211.907C209.765 207.991 208.834 206.529 207.193 205.648C206.268 205.152 205.398 205.079 200.423 205.079H194.715L194.934 203.775C195.18 202.299 195.987 200.307 196.454 200.019C196.625 199.913 196.765 199.558 196.765 199.231C196.765 198.647 196.376 198.635 178.512 198.635H160.258V201.835V205.036L155.477 205.134L150.696 205.232L149.802 206.235C149.203 206.906 148.908 207.564 148.909 208.229C148.911 208.775 149.689 211.293 150.639 213.824C151.589 216.356 152.558 218.98 152.793 219.655C153.027 220.33 153.339 221.158 153.484 221.496C154.206 223.165 155.74 227.416 155.864 228.093C156.001 228.842 155.957 228.862 154.052 228.914C152.294 228.962 150.929 229.4 148.217 230.788C148.09 230.853 147.987 228.754 147.987 226.124C147.987 222.5 147.894 221.344 147.604 221.349C147.393 221.353 146.599 221.638 145.84 221.983C144.999 222.365 143.482 222.679 141.959 222.786C139.604 222.953 139.337 222.907 137.357 221.981C134.867 220.817 133.981 220.024 132.317 217.47C131.381 216.033 130.952 214.944 130.583 213.072C130.131 210.774 130.132 210.401 130.606 208.2C131.405 204.478 132.727 202.292 135.336 200.376C138.339 198.171 141.996 197.707 145.379 199.101C146.392 199.518 147.393 199.86 147.604 199.861C147.906 199.862 147.987 196.467 147.987 183.906V167.949H165.013C174.378 167.949 182.04 168.001 182.04 168.065C182.04 168.129 181.845 168.648 181.607 169.218C179.121 175.168 181.782 181.623 187.98 184.679C191.75 186.538 196.64 186.478 200.627 184.524C202.934 183.394 205.398 180.859 206.522 178.46C207.239 176.931 207.349 176.305 207.349 173.779C207.349 171.428 207.219 170.583 206.677 169.409L206.006 167.954L223.397 167.875L240.788 167.796V124.222V80.6481L223.22 80.569L205.652 80.4898L206.254 79.3099C206.585 78.6612 207.012 77.2325 207.203 76.1349C208.176 70.5458 204.853 65.2408 198.913 62.8983C197.368 62.2891 192.677 61.9712 190.878 62.3536ZM198.259 63.7369C202.275 65.0957 205.009 67.8746 206.131 71.7361C206.819 74.1001 206.589 76.2668 205.375 78.8601C204.858 79.9657 204.435 80.993 204.435 81.1428C204.435 81.2984 212.071 81.4153 222.228 81.4153H240.021V108.879C240.021 123.984 239.956 136.343 239.876 136.343C239.796 136.343 238.726 135.946 237.499 135.462C232.352 133.431 226.322 132.05 219.774 131.404C217.665 131.196 215.912 131.009 215.878 130.989C215.844 130.969 215.59 128.338 215.313 125.142C214.985 121.357 214.917 119.295 215.116 119.229C216.168 118.878 218.465 116.994 219.48 115.648C221.158 113.426 221.991 111.363 222.151 109.037C222.477 104.307 219.11 100.134 214.968 100.134C214.211 100.134 214.004 99.9556 213.663 99.013C213.076 97.3878 211.106 95.4022 209.26 94.5743C207.978 93.9998 207.132 93.8568 205.048 93.8617C201.904 93.8694 199.617 94.6181 197.228 96.4228C193.658 99.1188 192.94 103.864 195.785 105.968L196.701 106.645L196.141 107.916C195.834 108.614 195.418 109.842 195.217 110.643C195.016 111.445 194.707 112.101 194.529 112.101C193.885 112.101 193.084 113.136 193.084 113.969C193.084 114.565 193.36 115.017 194.004 115.476C194.666 115.948 194.925 116.383 194.925 117.025C194.925 117.65 195.166 118.076 195.731 118.446C196.484 118.939 196.66 118.942 198.415 118.477C199.448 118.204 200.534 117.886 200.828 117.771C201.578 117.476 201.899 118.452 201.261 119.089C200.963 119.388 199.957 119.67 198.741 119.796C196.406 120.037 195.992 120.322 196.284 121.484C196.745 123.322 199.611 125.12 202.647 125.477L204.338 125.676L203.812 128.566C203.523 130.156 203.235 131.496 203.171 131.546C203.107 131.595 201.812 131.955 200.293 132.345C192.84 134.263 187.036 137.663 178.06 145.371C175.618 147.468 172.861 149.643 171.932 150.204C170.386 151.139 170.05 151.221 167.936 151.178C164.628 151.111 158.826 149.301 151.132 145.937L147.987 144.562V139.685C147.987 134.172 148.075 134.326 145.606 135.499C143.469 136.514 139.237 136.49 137.145 135.452C135.46 134.615 132.955 132.303 132.244 130.927C131.773 130.018 131.799 129.938 134.005 125.548C135.794 121.986 136.742 120.513 138.729 118.208C140.096 116.621 141.595 114.598 142.058 113.712C143.026 111.863 143.292 111.796 145.601 112.817C146.492 113.211 147.393 113.476 147.604 113.405C147.9 113.306 147.987 110.954 147.987 103.023V92.769H156.391H164.795L165.748 91.8788L166.701 90.9886V86.202V81.4153H175.086C179.698 81.4153 183.562 81.3251 183.672 81.2149C183.782 81.1044 183.599 80.5714 183.265 80.0304C181.442 77.0809 181.146 73.1353 182.517 70.0787C183.84 67.1304 186.894 64.5844 190.46 63.4577C192.561 62.7936 195.816 62.9099 198.259 63.7369ZM161.291 67.0154L162.099 67.6512V77.2475C162.099 86.1728 162.059 86.8792 161.535 87.3542C161.018 87.8225 158.606 87.8651 132.314 87.8691L103.657 87.8734L103.12 87.2186C102.635 86.627 102.583 85.6653 102.583 77.2248V67.8856L103.337 67.1326L104.089 66.3793H132.286C160.347 66.3793 160.486 66.3823 161.291 67.0154ZM149.718 68.5328C147.024 69.3499 145.956 72.4734 147.562 74.8402C148.02 75.5153 148.224 76.0686 148.037 76.1309C147.154 76.4255 145.619 77.7164 144.848 78.8134C143.834 80.2569 143.417 82.7722 143.97 84.1083C144.661 85.7766 145.557 86.0181 151.056 86.0181H156.025L157.068 84.9748C157.901 84.1411 158.108 83.6943 158.097 82.7501C158.068 80.202 156.538 77.6198 154.443 76.5829C153.356 76.045 153.261 75.9182 153.682 75.5687C153.947 75.349 154.361 74.7865 154.603 74.3183C156.203 71.2233 153.072 67.5152 149.718 68.5328ZM152.44 70.0643C154.445 71.304 154.51 73.603 152.578 74.9792C149.652 77.0631 146.045 72.854 148.693 70.446C149.96 69.2944 151.02 69.1864 152.44 70.0643ZM149.521 70.215C149.521 70.2994 149.59 70.3684 149.674 70.3684C149.759 70.3684 149.828 70.2994 149.828 70.215C149.828 70.1306 149.759 70.0615 149.674 70.0615C149.59 70.0615 149.521 70.1306 149.521 70.215ZM109.239 75.1674C109.131 75.2754 109.116 75.4825 109.206 75.6276C109.296 75.7731 115.987 75.8918 124.076 75.8918C136.945 75.8918 138.784 75.8342 138.784 75.4316C138.784 75.029 136.949 74.9713 124.109 74.9713C116.038 74.9713 109.347 75.0596 109.239 75.1674ZM153.356 77.3942C154.031 77.7066 154.965 78.37 155.433 78.8684C156.282 79.7736 156.282 79.7748 155.663 80.3354C155.322 80.6441 155.043 81.0375 155.043 81.2094C155.043 81.3815 155.371 81.214 155.773 80.8369L156.502 80.1513L156.712 81.5546C157.031 83.6787 156.358 85.1936 155.437 84.4286C155.156 84.1957 155.043 84.2006 155.043 84.4464C155.043 84.6557 154.434 84.7907 153.491 84.7907C152.535 84.7907 152.012 84.6729 152.129 84.4839C152.233 84.3151 152.18 84.177 152.011 84.177C151.843 84.177 151.619 84.3151 151.515 84.4839C151.411 84.6526 150.101 84.7907 148.604 84.7907C145.162 84.7907 144.799 84.5149 144.979 82.0324C145.079 80.6411 145.302 80.0571 146.124 79.0338C146.686 78.3347 147.363 77.721 147.629 77.6698C147.899 77.6176 148.93 78.4219 149.967 79.495C150.987 80.5499 151.956 81.4137 152.12 81.4144C152.284 81.4147 151.559 80.5484 150.509 79.4891C149.46 78.4299 148.601 77.4734 148.601 77.3635C148.601 76.686 151.872 76.7069 153.356 77.3942ZM118.613 80.8783C118.711 81.1726 121.076 81.2806 128.762 81.3429C137.542 81.4137 138.784 81.3662 138.784 80.9593C138.784 80.5539 137.492 80.4947 128.634 80.4947C120.651 80.4947 118.512 80.5766 118.613 80.8783ZM154.123 82.1824C154.519 82.6044 154.912 82.9496 154.997 82.9496C155.081 82.9496 154.826 82.6044 154.43 82.1824C154.033 81.7605 153.64 81.4153 153.556 81.4153C153.471 81.4153 153.726 81.7605 154.123 82.1824ZM101.663 84.3068C101.663 86.6325 101.742 86.9854 102.449 87.8252C102.92 88.3862 103.656 88.8382 104.289 88.9569C105.156 89.1196 105.345 89.2914 105.345 89.9186C105.345 90.378 105.76 91.0982 106.388 91.7257L107.431 92.769H127.095H146.76V102.248V111.728L145.01 111.186C143.83 110.821 143.163 110.426 142.961 109.973C142.794 109.6 142.278 109.225 141.796 109.129C141.32 109.034 140.931 108.79 140.931 108.587C140.931 108.385 140.596 107.904 140.186 107.519C139.577 106.947 139.288 106.87 138.605 107.098C138.076 107.274 137.389 107.258 136.742 107.055C135.84 106.773 135.714 106.604 135.699 105.659C135.665 103.552 133.704 100.134 132.528 100.134C131.859 100.134 131.616 101.37 132.008 102.783C132.19 103.435 132.339 105.513 132.339 107.4C132.341 110.149 132.243 110.928 131.846 111.325C131.39 111.781 131.233 111.706 129.879 110.375C128.048 108.576 127.267 108.136 125.881 108.123C123.624 108.1 123.215 109.382 125.106 110.55C127.301 111.908 127.954 113.574 127.398 116.397C126.212 122.41 118.791 128.248 109.639 130.367C106.565 131.078 100.136 131.093 97.1992 130.394C94.636 129.785 91.8682 128.987 91.2225 128.672C90.9638 128.546 90.2782 128.338 89.6987 128.211C89.1192 128.084 88.4335 127.866 88.1749 127.728C87.7558 127.503 86.4048 127.09 81.7224 125.754C80.9631 125.538 79.7896 125.242 79.1147 125.098C77.91 124.841 77.8529 124.766 75.9828 121C73.5052 116.01 73.3147 115.48 73.9921 115.463C74.898 115.44 76.8016 114.648 78.0763 113.764C80.2833 112.235 81.7132 108.916 81.719 105.311C81.7214 103.881 81.8589 103.164 82.1825 102.895C83.1391 102.101 82.5277 100.566 81.0459 100.042C80.7585 99.94 80.2225 99.263 79.8556 98.5376C79.4884 97.8119 78.93 96.8521 78.6144 96.404C78.299 95.956 78.041 95.5387 78.041 95.4764C78.041 95.4144 78.4993 95.1165 79.0595 94.8148C80.4971 94.0403 81.1088 92.8445 81.1088 90.8085C81.1088 89.3574 80.9747 88.9465 80.2296 88.1118C79.4657 87.2572 79.1528 87.128 77.852 87.1308C76.2831 87.1342 75.076 87.6957 72.5732 89.5866C71.467 90.4225 71.1225 90.5265 69.9165 90.3906C66.8699 90.0472 62.4283 91.5373 60.2787 93.6242C57.5971 96.227 56.8559 99.905 58.1312 104.276C59.1307 107.701 59.1497 107.637 57.1032 107.744L55.3392 107.836V94.7789V81.7221H78.5012H101.663V84.3068ZM152.682 82.0588C152.396 82.3441 152.476 82.5534 153.037 82.9947C154.229 83.9324 154.555 83.5516 153.586 82.3546C153.169 81.8394 152.967 81.7734 152.682 82.0588ZM77.5026 96.8659C77.9658 97.3973 78.7251 98.6245 79.1899 99.5926C79.8461 100.959 80.1894 101.354 80.7253 101.357C81.4999 101.362 81.6684 102.119 80.9554 102.393C80.5962 102.53 80.4952 103.143 80.4952 105.184C80.4952 110.248 78.1079 113.581 74.0528 114.177C72.4287 114.415 72.3671 114.459 72.4088 115.334C72.4327 115.834 73.2359 117.97 74.1933 120.079C75.1508 122.189 75.9957 124.053 76.0708 124.222C76.158 124.418 74.6305 124.533 71.832 124.542C69.0514 124.55 67.0275 124.702 66.2784 124.959C65.5013 125.225 64.9963 125.259 64.7963 125.059C64.6294 124.892 64.3423 123.303 64.1582 121.527L63.8235 118.299L64.6353 117.334C65.7259 116.038 66.1244 114.383 66.1492 111.051C66.1606 109.519 66.3112 108.038 66.4839 107.76C66.7165 107.386 66.6646 107.122 66.2839 106.741C65.6102 106.067 65.6348 105.792 66.441 104.986C66.9628 104.464 67.1383 104.412 67.2303 104.756C67.7037 106.521 68.6946 107.045 69.8966 106.166C70.4313 105.775 70.4343 105.672 69.9588 104.095C69.0679 101.14 69.0952 101.03 71.1384 99.3223C72.1508 98.4763 73.2552 97.2706 73.5927 96.6434C74.1811 95.5498 74.2562 95.5111 75.4333 95.7017C76.2724 95.8373 76.9268 96.2052 77.5026 96.8659ZM73.7461 99.7359C72.8717 100.054 71.5986 101.478 71.5986 102.138C71.5986 104.481 77.066 104.329 78.0474 101.959C78.4591 100.965 77.9895 99.9679 76.9826 99.6972C76.2058 99.4886 74.3651 99.5104 73.7461 99.7359ZM74.5489 101.799C74.8437 102.434 74.8072 102.56 74.2894 102.696C73.0601 103.017 72.3846 102.232 73.1938 101.422C73.7516 100.865 74.17 100.981 74.5489 101.799ZM134.327 104.601C134.611 105.576 134.796 107.444 134.796 109.333V112.453L133.121 114.209C131.179 116.245 129.817 118.988 129.243 122.014C128.896 123.847 128.915 124.427 129.399 126.77C129.702 128.238 130.061 129.577 130.197 129.745C130.459 130.069 127.742 134.756 127.01 135.243C126.414 135.641 124.006 134.169 122.803 132.671C121.2 130.676 120.07 130.69 120.07 132.706C120.07 134.261 120.943 135.952 122.45 137.313L123.648 138.395L122.856 138.726C122.42 138.908 120.2 140.051 117.923 141.267C115.072 142.788 113.984 143.25 114.433 142.748C115.634 141.406 115.904 140.552 115.875 138.184C115.847 135.882 115.025 132.667 114.104 131.261C113.685 130.622 113.727 130.563 114.95 130.05C119.369 128.194 122.422 126.104 124.892 123.241C127.16 120.614 128.316 118.378 128.546 116.176C128.824 113.517 128.518 112.374 127.093 110.755C126.013 109.528 125.931 109.339 126.476 109.339C127.074 109.339 128.622 110.499 130.09 112.047C131.133 113.147 132.351 112.865 133.056 111.362C133.527 110.358 133.597 109.61 133.485 106.759C133.411 104.887 133.252 103.01 133.13 102.588C132.92 101.857 132.931 101.848 133.384 102.406C133.646 102.728 134.07 103.716 134.327 104.601ZM207.304 105.489C208.342 106.451 208.357 107.662 207.357 109.576C206.212 111.765 206.081 112.827 206.857 113.603C207.992 114.739 208.891 114.446 210.997 112.254C212.052 111.157 213.17 110.26 213.482 110.26C214.427 110.26 215.172 111.182 215.172 112.351C215.172 113.232 214.924 113.654 213.801 114.685C212.059 116.285 211.532 117.634 212.233 118.704C212.508 119.123 213.005 119.466 213.339 119.466C213.672 119.466 213.945 119.671 213.945 119.921C213.945 121.828 215.358 135.404 215.58 135.626C216.067 136.113 216.336 135.239 216.176 133.689L215.998 131.964L217.809 132.166C223.184 132.763 222.915 132.594 222.1 134.878C220.838 138.414 216.247 142.029 211.031 143.595C208.219 144.439 204.151 144.319 201.981 143.327C199.064 141.996 197.379 139.617 197.379 136.833C197.379 134.122 197.512 134.009 201.935 132.956L202.963 132.711L202.751 134.143C202.634 134.931 202.516 135.714 202.49 135.883C202.463 136.051 202.646 136.189 202.897 136.189C203.233 136.189 203.512 135.356 203.952 133.046C204.406 130.666 204.681 129.862 205.086 129.734C205.38 129.64 205.974 128.959 206.407 128.221C206.891 127.395 207.694 126.601 208.492 126.161C209.274 125.73 209.908 125.109 210.087 124.602C210.56 123.257 210.002 123.023 208.248 123.829C206.13 124.801 202.152 124.813 200.065 123.854C198.681 123.217 197.072 121.824 197.072 121.262C197.072 121.118 197.521 120.999 198.069 120.998C201.527 120.992 203.946 118.524 201.844 117.147C201.146 116.69 200.956 116.702 199.119 117.323C196.513 118.203 196.039 118.091 195.845 116.55C195.725 115.597 195.506 115.24 194.848 114.925C193.729 114.391 193.751 113.477 194.893 113.078C195.633 112.821 195.836 112.517 196.103 111.273C196.279 110.451 196.694 109.147 197.025 108.375C197.555 107.138 197.765 106.949 198.806 106.771C199.456 106.66 200.884 106.161 201.981 105.662C204.512 104.509 206.189 104.455 207.304 105.489ZM77.7342 105.657C77.4811 105.821 76.7565 105.957 76.1236 105.959C74.9069 105.964 73.7461 106.798 73.7461 107.667C73.7461 108.405 74.5888 109.858 75.1404 110.069C78.0026 111.168 81.2459 107.942 79.2681 105.964C78.5769 105.273 78.3877 105.234 77.7342 105.657ZM136.943 108.879C136.943 109.301 136.805 109.646 136.636 109.646C136.467 109.646 136.329 109.301 136.329 108.879C136.329 108.457 136.467 108.112 136.636 108.112C136.805 108.112 136.943 108.457 136.943 108.879ZM139.518 108.597C139.922 109.649 139.722 110.567 139.09 110.567C138.6 110.567 138.477 110.362 138.477 109.544C138.477 108.144 139.12 107.559 139.518 108.597ZM198.299 110.166C196.976 110.849 196.724 111.998 197.703 112.884C198.221 113.353 198.813 113.482 200.447 113.482C202.767 113.482 203.821 112.894 203.821 111.6C203.821 110.012 200.347 109.109 198.299 110.166ZM141.768 110.445C141.667 110.547 141.402 110.558 141.181 110.469C140.936 110.372 141.008 110.299 141.366 110.284C141.689 110.271 141.87 110.343 141.768 110.445ZM202.12 110.923C202.549 111.119 202.901 111.459 202.901 111.679C202.901 112.188 201.929 112.715 200.988 112.715C200.364 112.715 200.263 112.566 200.263 111.641C200.263 110.452 200.709 110.28 202.12 110.923ZM136.736 111.076C136.959 111.299 136.394 112.101 136.014 112.101C135.882 112.101 135.846 111.825 135.934 111.487C136.098 110.86 136.377 110.717 136.736 111.076ZM212.536 111.226C212.416 111.421 212.559 111.757 212.855 111.974C213.151 112.19 213.308 112.505 213.204 112.673C212.937 113.105 213.627 113.463 214.002 113.087C214.424 112.665 214.033 111.556 213.329 111.179C212.928 110.965 212.689 110.979 212.536 111.226ZM49.9638 112.331C49.4652 113.518 49.4701 114.276 49.9852 115.626C50.642 117.346 52.9368 119.507 54.6532 120.021C56.3123 120.518 59.2249 120.48 61.0281 119.937C61.8488 119.69 62.5384 119.517 62.5611 119.554C62.5838 119.59 62.8047 120.931 63.0517 122.534C63.3581 124.523 63.3983 125.483 63.1781 125.555C60.6707 126.375 57.1455 127.819 55.1858 128.83C51.6903 130.634 51.5302 130.734 48.213 133.198C46.5652 134.421 45.0454 135.422 44.8353 135.422C44.0947 135.422 41.315 133.252 40.3701 131.935C38.5638 129.42 38.0349 127.647 38.0202 124.061C38.0076 121.028 38.0671 120.71 38.9988 118.816C40.4054 115.959 42.1519 114.095 44.407 113.045C46.6496 112.001 47.1058 111.876 48.8529 111.83C50.0141 111.799 50.1598 111.865 49.9638 112.331ZM138.784 112.602C138.784 112.709 138.475 113.295 138.098 113.906C137.565 114.769 137.388 114.893 137.305 114.464C137.187 113.851 138.015 112.408 138.484 112.408C138.649 112.408 138.784 112.495 138.784 112.602ZM141.046 112.652C141.227 112.945 139.781 114.863 139.38 114.863C139.226 114.863 139.388 114.31 139.74 113.635C140.364 112.438 140.739 112.156 141.046 112.652ZM136.023 113.942C136.023 114.111 135.885 114.249 135.716 114.249C135.547 114.249 135.409 114.111 135.409 113.942C135.409 113.773 135.547 113.635 135.716 113.635C135.885 113.635 136.023 113.773 136.023 113.942ZM135.492 115.783C135.764 115.783 136.079 115.932 136.191 116.115C136.304 116.298 136.693 116.372 137.056 116.281C137.418 116.19 137.912 116.237 138.152 116.386C138.504 116.603 138.352 116.94 137.383 118.096C135.301 120.578 135.067 120.949 133.092 124.904L131.163 128.766L130.793 127.414C130.271 125.508 130.324 122.375 130.913 120.349C131.189 119.4 131.985 117.771 132.681 116.728C133.848 114.979 133.987 114.869 134.472 115.308C134.761 115.569 135.22 115.783 135.492 115.783ZM74.7449 125.799C76.9335 125.984 77.0725 126.04 77.2243 126.796C77.313 127.237 77.6106 128.564 77.8855 129.745C78.1606 130.927 78.464 132.366 78.5601 132.944L78.7343 133.996L77.544 133.3C73.743 131.079 66.1259 126.371 66.2054 126.292C66.2566 126.241 66.9042 126.08 67.6448 125.934C69.3621 125.597 71.8066 125.55 74.7449 125.799ZM81.0361 126.801C82.1727 127.123 85.1046 128.032 87.5512 128.822C93.9933 130.903 93.8688 130.867 97.2148 131.563L100.283 132.2L101.55 134.767C103.58 138.88 104.395 144.439 103.801 150.119C103.477 153.215 103.132 153.811 101.663 153.817C101.097 153.82 100.776 153.561 100.436 152.83C100.181 152.282 99.5387 151.634 98.9969 151.379C97.6127 150.728 97.3633 149.995 97.9029 148.165C98.4987 146.145 98.2882 143.733 97.4194 142.629C96.5611 141.537 95.2668 140.865 94.3571 141.039C93.8003 141.146 93.4926 140.932 92.941 140.059C91.9805 138.537 91.2982 137.996 90.874 138.42C90.6347 138.659 90.8473 139.127 91.6289 140.081C92.2275 140.811 92.8162 141.822 92.9374 142.328C93.0585 142.833 93.2751 143.397 93.4184 143.581C94.0817 144.43 94.3302 148.728 94.0114 153.832C93.6221 160.064 93.6246 167.388 94.0169 171.171C94.1746 172.69 94.3768 175.176 94.4667 176.695L94.6296 179.456L93.5347 180.67L92.4398 181.883L91.6912 181.076C91.2795 180.632 90.5046 179.464 89.9689 178.481C89.0955 176.878 88.9943 176.426 88.9854 174.086C88.9765 171.732 89.0762 171.274 90.0101 169.385C90.874 167.637 90.9715 167.246 90.6018 167.011C90.3583 166.857 87.6113 166.729 84.4981 166.726L78.8371 166.722L77.9023 165.819C77.1578 165.101 76.3945 164.798 74.1574 164.335C71.2654 163.736 70.839 163.494 70.084 162.032C69.5063 160.912 67.9525 159.974 66.6539 159.959C66.0833 159.953 64.658 159.763 63.4864 159.536C60.371 158.934 60.2477 158.71 60.2477 153.661C60.2477 151.04 60.0835 148.928 59.7915 147.788C59.3335 146.003 59.2298 145.872 56.0294 143.029C55.3867 142.458 55.3392 142.165 55.3392 138.765C55.3392 135.184 55.3263 135.115 54.6489 135.117C54.2694 135.118 53.5445 135.346 53.0383 135.622C51.9566 136.213 46.7493 136.609 46.7493 136.101C46.7493 135.655 50.7795 132.68 53.3583 131.223C57.1734 129.067 62.5789 126.838 64.0054 126.832C64.3006 126.831 67.1996 128.439 70.4478 130.405C79.0718 135.625 79.254 135.729 79.7418 135.729C80.306 135.729 80.3096 134.866 79.7547 132.681C79.516 131.741 79.1018 130.112 78.8343 129.06C78.268 126.832 78.2297 126.216 78.6585 126.216C78.8294 126.216 79.8992 126.479 81.0361 126.801ZM132.495 133.352C135.342 136.988 140.681 138.526 145.08 136.98L146.76 136.389V140.22C146.76 142.327 146.657 143.992 146.53 143.921C144.431 142.744 132.759 137.394 130.884 136.751C129.492 136.273 128.353 135.789 128.353 135.674C128.353 135.315 130.816 131.739 131.047 131.763C131.168 131.775 131.82 132.491 132.495 133.352ZM106.83 133.358C108.184 135.326 108.727 136.824 109.192 139.872C109.548 142.211 109.74 142.743 110.443 143.352C111.079 143.902 111.496 144.028 112.22 143.888C113.109 143.716 113.087 143.753 111.846 144.501C110.749 145.162 110.54 145.437 110.619 146.113C110.744 147.201 112.059 147.339 114.071 146.476C114.887 146.126 115.609 145.893 115.674 145.959C115.74 146.025 114.886 146.669 113.778 147.392C111.302 149.005 110.453 149.993 110.871 150.773C111.26 151.5 110.82 151.657 108.967 151.455C108.022 151.352 107.099 151.469 106.277 151.799C105.588 152.074 104.994 152.299 104.955 152.3C104.916 152.3 104.931 150.014 104.988 147.219C105.083 142.508 105.03 141.899 104.256 138.857C103.797 137.052 103.026 134.831 102.542 133.921C102.059 133.012 101.663 132.218 101.663 132.157C101.663 132.097 102.623 132.047 103.796 132.047H105.929L106.83 133.358ZM122.878 134.004C124.458 135.534 124.865 135.746 128.468 136.908C130.661 137.616 135.123 139.489 138.713 141.21C151.21 147.199 157.881 149.935 163.549 151.397C167.226 152.345 169.178 152.509 170.559 151.984C171.678 151.558 172.282 152.139 173.626 154.934C174.92 157.625 175.782 160.898 176.072 164.216L176.29 166.722H166.292H156.294L153.444 164.387C151.877 163.102 147.307 158.741 143.288 154.694C135.372 146.723 134.484 146.069 131.523 146.03C129.666 146.005 129.455 146.166 125.996 150.228C123.877 152.717 122.831 153.476 122.831 152.524C122.831 152.31 123.171 151.635 123.586 151.024C125.607 148.049 126.649 145.855 126.041 145.855C125.951 145.855 123.544 147.039 120.692 148.486C117.104 150.306 115.248 151.086 114.665 151.018C113.936 150.932 114.373 150.567 117.92 148.303C121.743 145.864 122.848 144.922 121.859 144.944C121.635 144.949 119.518 146.192 117.156 147.706C113.185 150.25 111.787 150.893 111.787 150.177C111.787 150.022 113.734 148.546 116.114 146.897C120.179 144.08 121.018 143.325 120.577 142.884C120.476 142.784 118.788 143.418 116.824 144.293C113.189 145.913 111.473 146.452 111.488 145.97C111.497 145.699 123.78 139.1 124.259 139.11C124.402 139.113 124.85 139.465 125.256 139.893C125.728 140.391 126.256 140.637 126.723 140.578C127.665 140.458 127.789 139.901 126.902 139.774C126.526 139.721 125.945 139.331 125.613 138.908C125.28 138.485 124.467 137.747 123.806 137.268C122.271 136.156 121.306 134.795 121.085 133.431C120.989 132.838 120.97 132.354 121.042 132.354C121.115 132.354 121.941 133.096 122.878 134.004ZM229.994 134.17C231.881 134.649 234.875 135.585 236.647 136.253L239.868 137.465L239.948 152.094L240.027 166.722H237.877H235.727L233.656 165.029C230.751 162.654 226.477 160.527 224.852 160.647C223.768 160.726 223.597 160.84 223.515 161.541C223.447 162.131 223.678 162.559 224.39 163.158C225.591 164.169 225.413 164.743 223.761 165.188C223.068 165.374 222.271 165.796 221.989 166.125C221.506 166.689 221.022 166.722 213.128 166.722C208.535 166.722 204.703 166.843 204.612 166.991C204.52 167.138 204.857 168.083 205.36 169.09C208.223 174.82 205.362 181.687 199.088 184.144L197.576 184.737L196.352 183.324C193.699 180.261 191.088 175.267 189.966 171.105C189.423 169.093 189.315 167.772 189.285 162.733C189.265 159.442 189.365 155.801 189.507 154.643C189.716 152.938 189.688 152.562 189.356 152.673C189.13 152.748 188.807 153.489 188.637 154.319C188.457 155.201 187.868 156.453 187.22 157.332C186.61 158.159 185.872 159.609 185.58 160.554C184.494 164.071 183.171 165.494 180.987 165.494C180.627 165.494 179.637 165.675 178.788 165.895L177.242 166.296L176.897 163.202C176.463 159.32 175.358 155.78 173.778 153.214L172.554 151.225L173.365 150.612C173.811 150.274 176.118 148.342 178.491 146.317C185.023 140.745 187.946 138.662 192.286 136.486C194.463 135.395 196.333 134.502 196.442 134.502C196.552 134.502 196.584 135.4 196.514 136.497C196.027 144.152 205.781 147.62 215.013 143.073C218.774 141.222 222.245 137.629 223.088 134.714L223.609 132.914L225.085 133.107C225.897 133.213 228.106 133.692 229.994 134.17ZM116.389 145.702C116.389 145.786 116.32 145.855 116.235 145.855C116.151 145.855 116.082 145.786 116.082 145.702C116.082 145.618 116.151 145.549 116.235 145.549C116.32 145.549 116.389 145.618 116.389 145.702ZM134.693 147.952C135.819 148.533 137.799 150.34 141.519 154.18L146.76 159.59V163.156V166.722L138.247 166.751C133.565 166.767 125.799 166.756 120.99 166.728C116.182 166.699 112.005 166.77 111.71 166.885C110.98 167.17 111.035 167.743 111.931 169.162C112.662 170.321 113.518 174.133 113.172 174.692C113.082 174.839 112.562 175.057 112.018 175.177C111.474 175.297 110.725 175.594 110.353 175.837C109.696 176.268 109.674 176.243 109.581 174.984C109.333 171.602 104.462 171.474 101.35 174.768C100.55 175.614 99.2089 178.173 99.2089 178.853C99.2089 179.229 99.0472 179.288 98.5186 179.103C98.1388 178.971 97.4725 178.871 97.0378 178.882C96.3209 178.901 96.2132 178.742 95.8865 177.185C95.4603 175.154 94.8879 168.631 94.6946 163.603C94.5372 159.508 94.7636 158.743 96.1337 158.743C96.624 158.743 97.0992 158.623 97.19 158.477C97.2805 158.33 98.0422 158.119 98.8825 158.008C99.7231 157.896 100.494 157.671 100.595 157.507C100.696 157.343 101.061 157.209 101.405 157.209C101.749 157.209 102.535 156.984 103.151 156.71C106.848 155.061 110.263 153.319 111.59 152.406C112.642 151.683 113.213 151.456 113.433 151.675C114.153 152.395 115.82 151.934 120.034 149.852C122.416 148.674 124.365 147.797 124.365 147.901C124.365 148.005 123.813 148.965 123.138 150.034C121.812 152.134 121.644 152.923 122.389 153.542C123.229 154.239 124.318 153.503 126.944 150.459C128.328 148.856 129.782 147.384 130.177 147.187C131.161 146.696 132.803 146.974 134.693 147.952ZM152.129 164.42C153.479 165.57 154.641 166.559 154.711 166.616C154.781 166.674 153.297 166.722 151.413 166.722H147.987V163.749V160.777L148.831 161.553C149.295 161.98 150.779 163.27 152.129 164.42ZM89.0851 168.115C89.0851 168.206 88.7786 168.862 88.4041 169.572C87.8347 170.653 87.7215 171.367 87.7138 173.933C87.7052 176.769 87.7788 177.153 88.6808 178.996C89.6628 181.003 91.2271 182.985 91.829 182.985C92.0072 182.985 92.1538 183.572 92.1548 184.289C92.156 185.006 92.3668 185.996 92.6232 186.489C93.0631 187.332 93.0484 187.429 92.3664 188.176C91.9686 188.612 90.7 190.399 89.5477 192.147C86.4075 196.91 84.7319 197.883 77.5808 199.09C75.8935 199.375 74.1679 199.726 73.7461 199.87C73.3242 200.013 72.5024 200.226 71.9195 200.342C70.0714 200.709 66.0719 203.006 64.2193 204.764C61.7076 207.147 60.7195 209.361 60.7717 212.487C60.8045 214.448 60.9677 215.148 61.7693 216.763C62.663 218.565 62.6906 218.715 62.1779 218.992C61.8755 219.156 60.2397 220.649 58.5429 222.311C56.8461 223.972 55.3653 225.332 55.2524 225.332C54.987 225.332 54.9756 168.415 55.241 168.15C55.4803 167.91 89.0851 167.875 89.0851 168.115ZM146.76 183.139C146.76 191.493 146.708 198.328 146.644 198.328C146.58 198.328 146.063 198.139 145.494 197.907C142.778 196.803 138.645 197.091 135.909 198.575C134.006 199.609 131.638 202.255 130.504 204.619C128.034 209.766 128.996 216.006 132.904 220.197C134.624 222.042 135.934 222.891 138.129 223.584C140.218 224.244 142.762 224.217 144.919 223.512L146.607 222.961L146.692 227.419C146.774 231.738 146.754 231.903 146.051 232.67C144.779 234.059 144.008 235.361 143.226 237.438C142.163 240.263 142.154 244.13 143.204 246.919C144.027 249.107 145.121 250.964 146.107 251.846C147.635 253.213 147.366 253.256 137.25 253.256C132.019 253.256 127.74 253.196 127.74 253.122C127.74 253.049 128.103 252.152 128.547 251.128C129.241 249.526 129.466 249.266 130.162 249.266C131.137 249.266 133.141 248.235 133.942 247.322C134.888 246.242 135.702 244.285 135.709 243.073C135.718 241.624 135.344 240.661 134.364 239.603C133.933 239.137 133.618 238.67 133.665 238.564C133.712 238.459 133.908 238.028 134.101 237.606C134.638 236.43 137.401 229.661 138.025 227.99C138.498 226.725 138.516 226.465 138.145 226.23C137.906 226.079 132.792 225.953 126.78 225.95C117.443 225.946 115.794 225.878 115.468 225.485C115.137 225.086 115.3 225.025 116.701 225.025C120.819 225.025 123.194 221.824 122.234 217.57C121.828 215.772 120.799 214.137 118.426 211.523C117.43 210.426 116.004 208.615 115.258 207.499C114.094 205.759 113.898 205.241 113.887 203.868C113.878 202.661 114.031 202.101 114.508 201.593C114.856 201.222 115.467 200.302 115.865 199.548C116.469 198.407 116.774 198.147 117.69 197.998C119.053 197.777 120.268 197.006 120.524 196.2C120.854 195.16 119.844 193.752 118.306 193.109C117.469 192.758 117.389 191.884 118.194 191.884C118.512 191.884 119.513 191.654 120.418 191.372C123.877 190.296 126.512 187.352 126.512 184.563C126.512 181.816 124.755 179.019 122.71 178.513C121.855 178.302 121.83 178.326 122.038 179.182C122.576 181.392 122.568 181.62 121.913 182.453C121.424 183.074 120.981 183.292 120.208 183.292C118.951 183.292 118.604 182.833 117.426 179.61C116.562 177.246 115.356 175.315 114.742 175.313C114.523 175.312 114.368 174.513 114.322 173.158C114.276 171.787 114.026 170.511 113.632 169.647C113.292 168.9 113.014 168.213 113.014 168.119C113.014 168.026 120.607 167.949 129.887 167.949H146.76V183.139ZM191.745 178.203C192.353 179.399 193.665 181.447 194.661 182.755L196.471 185.133L194.241 185.13C190.607 185.125 187.673 183.969 185.019 181.499C183.315 179.913 181.734 176.976 181.733 175.396C181.733 174.564 181.869 174.375 182.577 174.218C184.134 173.873 187.708 172.902 188.482 172.614C189.211 172.342 189.283 172.42 189.944 174.179C190.327 175.197 191.137 177.008 191.745 178.203ZM105.378 188.046C107.252 189.536 109.317 190.197 110.687 189.745C111.265 189.554 111.897 189.206 112.092 188.971C112.383 188.62 112.679 188.771 113.777 189.831C114.509 190.538 115.426 191.388 115.815 191.72L116.521 192.323L115.611 192.51C113.64 192.914 112.866 193.505 112.768 194.684C112.691 195.607 112.835 195.926 113.635 196.6C114.163 197.044 114.792 197.407 115.032 197.407C115.608 197.407 115.594 197.486 114.718 199.215C113.823 200.982 111.347 203.293 109.376 204.202C108.226 204.732 107.332 204.864 104.731 204.887C101.691 204.914 101.386 204.858 99.3111 203.89C96.9847 202.804 96.4479 202.825 96.4479 203.999C96.4479 204.916 97.5716 206.26 99.5565 207.717C100.893 208.698 101.079 208.962 100.924 209.651C100.39 212.031 99.8421 217.189 100.097 217.444C100.613 217.96 100.989 217.378 101.197 215.742C101.557 212.903 101.524 212.94 102.951 213.741C103.634 214.124 104.451 214.767 104.768 215.17C105.868 216.566 105.33 219.8 103.761 221.227C102.364 222.497 101.609 222.715 98.7487 222.673C96.5531 222.64 95.5846 222.469 94.0194 221.836C89.6812 220.084 85.3694 216.312 83.7198 212.827C82.5037 210.257 82.5829 210.088 85.1151 209.833C86.3063 209.714 87.3426 209.677 87.4178 209.753C87.4932 209.828 87.2091 210.541 86.7861 211.336C85.902 213 85.8173 213.671 86.4922 213.671C86.7965 213.671 87.5543 212.428 88.5983 210.219C89.4953 208.32 91.1264 204.902 92.2232 202.624C95.9671 194.845 95.8619 195.174 94.9784 193.997C93.6218 192.189 93.3736 190.728 94.2832 189.905C94.8563 189.386 94.9275 189.399 96.0846 190.231L97.2891 191.097L96.7151 192.437C96.0174 194.064 96.0021 194.455 96.616 194.965C97.0062 195.289 97.2802 195.269 98.152 194.853C99.4522 194.233 100.352 192.818 100.621 190.974C100.849 189.408 101.753 187.418 102.345 187.18C103.28 186.804 104.118 187.043 105.378 188.046ZM104.177 190.351C102.415 190.76 101.77 192.313 102.82 193.615C104.175 195.295 107.664 195.834 109.362 194.625C112.023 192.73 108.047 189.452 104.177 190.351ZM105.239 191.832C104.96 192.14 104.731 192.624 104.731 192.906C104.731 193.476 104.682 193.498 103.989 193.232C102.889 192.81 103.677 191.27 104.993 191.27C105.703 191.27 105.718 191.302 105.239 191.832ZM108.922 193.495C108.837 193.706 108.768 193.533 108.768 193.111C108.768 192.69 108.837 192.517 108.922 192.728C109.007 192.939 109.007 193.284 108.922 193.495ZM115.162 194.339C114.824 194.676 114.548 195.168 114.548 195.431C114.548 195.694 114.41 195.824 114.241 195.72C113.443 195.226 114.181 193.725 115.223 193.725C115.734 193.725 115.73 193.771 115.162 194.339ZM110.975 195.111C110.877 195.367 110.882 195.92 110.985 196.339C111.089 196.758 111.258 197.446 111.363 197.868C111.519 198.504 111.441 198.635 110.902 198.635C110.451 198.635 110.253 198.828 110.253 199.269C110.253 199.775 110.417 199.884 111.066 199.806C112.264 199.663 112.513 199.017 112.264 196.694C112.105 195.209 111.923 194.646 111.599 194.646C111.355 194.646 111.074 194.855 110.975 195.111ZM119.302 195.257C119.511 195.916 119.29 196.487 118.825 196.487C118.666 196.487 118.536 196.073 118.536 195.566C118.536 194.525 119.009 194.333 119.302 195.257ZM194.772 200.473C194.512 200.978 194.118 202.186 193.897 203.158L193.496 204.925L177.337 205.005L161.179 205.084V202.525C161.179 201.116 161.271 199.872 161.383 199.76C161.496 199.648 169.161 199.555 178.417 199.555H195.247L194.772 200.473ZM252.876 242.285C252.849 280.315 252.796 284.863 252.395 283.634C251.93 282.208 250.476 277.259 249.105 272.434C248.673 270.915 248.109 268.982 247.851 268.138C247.593 267.294 247.026 265.361 246.591 263.842C246.155 262.323 245.328 259.458 244.751 257.475C244.175 255.492 243.231 252.247 242.655 250.264C242.078 248.281 241.254 245.415 240.822 243.896C240.39 242.377 239.826 240.444 239.568 239.6C239.31 238.757 238.759 236.859 238.343 235.383C236.355 228.318 234.157 224.998 230.358 223.319C227.959 222.258 221.858 222.723 217.85 224.271C217.214 224.517 216.509 224.718 216.283 224.718C215.831 224.718 212.927 217.145 213.206 216.694C213.298 216.545 213.814 216.239 214.352 216.015C215.404 215.575 217.974 213.054 218.823 211.629C220.515 208.789 220.911 204.623 219.774 201.63C219.437 200.742 219.161 199.912 219.161 199.786C219.16 199.659 226.753 199.555 236.033 199.555H252.906L252.876 242.285ZM103.966 200.473C103.613 201.044 108.652 202.738 109.374 202.291C110.003 201.903 109.419 201.497 107.216 200.793C105.047 200.1 104.245 200.021 103.966 200.473ZM204.801 215.732C205.28 224.933 205.517 232.137 205.343 232.244C205.132 232.374 204.349 231.663 195.224 223.045C190.755 218.825 190.337 218.464 190.146 218.655C190.044 218.758 189.288 220.803 188.466 223.199C187.645 225.597 186.931 227.599 186.881 227.649C186.831 227.699 185.548 226.778 184.031 225.603C182.514 224.427 180.928 223.234 180.506 222.952C180.084 222.669 179.195 221.983 178.53 221.427C177.865 220.871 177.226 220.521 177.11 220.649C176.885 220.897 176.052 223.62 174.973 227.633C174.611 228.983 174.111 230.778 173.863 231.622C173.616 232.466 173.26 233.678 173.073 234.315C172.886 234.953 172.623 235.436 172.489 235.389C171.989 235.215 165.771 228.921 165.936 228.756C166.03 228.662 167.547 230.019 169.306 231.773C171.452 233.913 172.552 234.816 172.651 234.519C172.942 233.643 175.981 222.386 176.271 221.112C176.593 219.698 176.994 219.511 177.917 220.345C178.244 220.641 179.616 221.708 180.966 222.716C182.316 223.725 184.084 225.091 184.895 225.752C185.854 226.532 186.475 226.848 186.669 226.654C186.834 226.489 187.635 224.377 188.449 221.96L189.93 217.566L192.044 219.509C193.206 220.578 195.618 222.843 197.403 224.543C199.188 226.242 201.574 228.514 202.705 229.592C203.837 230.669 204.835 231.478 204.923 231.389C205.068 231.245 204.775 223.608 204.239 213.518C204.131 211.492 204.15 209.934 204.28 210.055C204.41 210.176 204.645 212.731 204.801 215.732ZM82.0448 211.6C83.491 216.082 88.6111 221.077 93.5334 222.808C97.4044 224.169 99.9712 224.404 102.04 223.587C104.949 222.438 106.265 220.692 106.265 217.979C106.265 217.129 106.385 216.433 106.531 216.433C107.41 216.433 114.661 225.32 114.177 225.805C114.104 225.878 112.466 226 110.538 226.076C108.61 226.151 106.939 226.222 106.826 226.233C106.713 226.244 106.388 226.952 106.104 227.808C105.82 228.664 105.4 229.436 105.171 229.524C104.614 229.738 100.82 228.772 99.9329 228.191C99.1779 227.695 98.6223 227.735 94.1676 228.603C90.1138 229.393 88.6179 230.693 86.4762 235.285C84.5898 239.33 82.447 242.367 79.5783 245.059C75.3251 249.051 71.1396 250.389 69.1456 248.394C68.1089 247.357 67.5304 245.456 67.8132 244.015C68.3357 241.353 70.6009 238.396 73.3537 236.783C74.7305 235.976 74.9692 235.555 74.2139 235.265C73.257 234.898 69.5091 237.843 68.0559 240.105C67.1466 241.52 66.2913 244.774 66.5361 245.888C66.6928 246.602 66.4735 247.024 65.1724 248.51C63.7757 250.107 63.6223 250.427 63.6223 251.742C63.6223 252.986 63.7579 253.315 64.5411 253.974C65.0464 254.4 65.7403 254.837 66.0833 254.945C67.0407 255.25 69.1839 254.029 70.1825 252.611C71.1019 251.306 72.6183 250.19 73.4749 250.188C73.7473 250.188 74.9557 249.694 76.1601 249.091C78.4978 247.921 82.4688 244.307 84.0628 241.897L84.9034 240.627L85.844 241.701C86.8091 242.804 88.3697 243.743 89.2373 243.743C89.6339 243.743 89.6882 243.961 89.525 244.894C89.0247 247.751 87.1619 252.691 85.736 254.943C83.1964 258.954 79.4292 262.04 75.0977 263.657C70.5288 265.364 65.2589 265.951 62.2258 265.092C57.4802 263.748 54.3517 261.402 51.4477 257.009C49.8693 254.621 49.0219 252.114 48.5673 248.489C46.9818 235.841 57.6321 220.851 73.8994 212.836C76.4221 211.593 79.6197 210.509 81.2898 210.331C81.4736 210.311 81.8135 210.883 82.0448 211.6ZM230.72 224.745C233.385 226.035 235.447 229.266 236.971 234.537C237.435 236.141 238.321 239.178 238.941 241.288C240.037 245.02 240.584 246.917 242.305 252.949C242.763 254.552 243.621 257.521 244.214 259.546C244.806 261.571 245.365 263.505 245.457 263.842C245.731 264.854 247.017 269.32 248.815 275.503C250.474 281.207 251.372 284.446 251.372 284.724C251.372 284.8 247.717 284.862 243.249 284.862H235.125L234.985 284.171C234.909 283.792 234.76 282.929 234.656 282.254C234.551 281.579 234.273 279.783 234.038 278.264C233.803 276.746 233.322 273.639 232.968 271.36C232.615 269.082 232.13 265.906 231.892 264.302C231.653 262.699 231.169 259.523 230.816 257.245C229.876 251.193 229.399 248.087 228.686 243.384C228.014 238.959 227.764 233.118 228.185 231.699C228.387 231.019 228.337 230.855 227.932 230.855C227.103 230.855 226.771 232.358 226.88 235.611C226.966 238.173 226.908 238.68 226.526 238.68C225.788 238.68 224.94 236.443 224.508 233.362C223.904 229.045 222.952 228.113 220.212 229.159C218.559 229.791 217.841 230.477 213.535 235.539C210.994 238.525 210.037 239.447 209.477 239.447C208.844 239.447 208.78 239.353 209.008 238.754C209.153 238.373 209.72 237.303 210.267 236.376C210.815 235.449 212.053 233.034 213.018 231.008C213.983 228.983 215.036 227.102 215.356 226.829C216.295 226.029 220.048 224.67 222.535 224.229C225.534 223.698 229.01 223.917 230.72 224.745ZM136.943 227.51C136.943 227.695 136.747 228.282 136.508 228.814C135.606 230.818 133.262 236.558 133.262 236.762C133.262 236.88 132.9 237.739 132.459 238.672C131.684 240.307 131.613 240.368 130.443 240.368C129.479 240.368 128.936 240.12 127.794 239.16C127.005 238.495 125.961 237.802 125.475 237.618C124.443 237.227 123.445 237.458 123.445 238.087C123.445 238.329 123.185 238.526 122.868 238.526C121.864 238.526 121.579 239.216 122.232 240.066C122.935 240.981 122.976 241.288 122.396 241.288C121.621 241.288 121.689 242.024 122.576 243.25C123.054 243.909 123.445 244.555 123.445 244.685C123.445 244.815 123.04 245.011 122.545 245.119C120.301 245.612 120.779 247.106 123.427 247.872C124.365 248.144 125.556 248.5 126.074 248.663C126.592 248.826 127.248 248.96 127.531 248.96C128.201 248.96 128.181 249.302 127.411 251.048C126.198 253.796 125.974 254.337 125.417 255.864C125.109 256.708 124.63 257.812 124.353 258.319L123.85 259.239L109.305 259.122C101.306 259.057 94.7029 258.954 94.6323 258.891C94.5618 258.829 94.6566 258.468 94.8428 258.088C95.1637 257.435 96.1788 254.972 99.3948 247.044C100.166 245.144 100.917 243.313 101.066 242.976C101.214 242.638 101.83 241.119 102.435 239.6C103.039 238.081 103.658 236.563 103.809 236.225C104.346 235.027 105.253 232.834 105.651 231.776C105.873 231.185 106.289 230.149 106.575 229.474C106.861 228.799 107.18 228.005 107.284 227.71C107.46 227.208 108.451 227.173 122.208 227.173C132.711 227.173 136.943 227.27 136.943 227.51ZM96.4991 229.858C96.5552 229.984 97.2568 230.615 98.0585 231.259C98.8601 231.903 99.5157 232.635 99.5157 232.885C99.5157 233.511 97.1688 234.522 95.6963 234.531C94.3108 234.538 94.5335 234.029 95.9849 233.87C97.3292 233.723 97.3667 232.832 96.0518 232.282C94.1574 231.491 93.0733 231.357 93.0733 231.914C93.0733 232.186 93.2803 232.488 93.5334 232.585C94.1774 232.832 94.1065 233.209 93.3801 233.399C92.5309 233.621 92.6125 234.147 93.646 235.113L94.5256 235.935L92.9815 237.614C92.1327 238.538 91.1099 240.036 90.7086 240.943C89.9898 242.568 89.964 242.589 88.8808 242.413C87.6288 242.21 86.8208 241.579 86.1876 240.309C85.7872 239.507 85.8118 239.303 86.4667 237.981C86.8616 237.184 87.6261 235.594 88.166 234.449C89.2364 232.177 90.4488 230.995 92.526 230.196C93.8997 229.668 96.323 229.461 96.4991 229.858ZM157.698 232.85C159.624 237.874 160.899 241.426 161.198 242.603C161.938 245.513 162.798 245.891 168.683 245.891C171.254 245.891 173.107 246.009 173.009 246.166C172.916 246.317 173.089 246.749 173.395 247.126C174.018 247.897 175.848 248.298 178.865 248.327C181.255 248.351 187.156 249.379 189.535 250.188C193.112 251.403 193.274 251.704 197.613 265.223C198.453 267.839 199.446 271.015 199.82 272.281C200.195 273.547 200.684 275.135 200.908 275.81C201.132 276.485 201.62 278.073 201.993 279.338C202.366 280.604 202.861 282.232 203.093 282.955C203.325 283.678 203.515 284.404 203.515 284.568C203.515 284.759 195.928 284.838 182.423 284.787L161.332 284.708L161.253 269.071C161.206 259.873 161.055 253.316 160.885 253.146C160.707 252.968 160.017 253.109 159.061 253.52C158.216 253.884 156.517 254.264 155.287 254.364C152.648 254.58 150.463 253.908 148.212 252.188C145.525 250.136 143.385 245.713 143.385 242.209C143.385 240.089 144.363 237.012 145.654 235.066C147.904 231.676 151.15 229.896 154.844 230.025L156.64 230.088L157.698 232.85ZM222.849 230.721C223.289 231.878 223.221 233.003 222.712 233.003C222.143 233.003 220.387 231.523 220.387 231.042C220.387 229.789 222.395 229.527 222.849 230.721ZM101.918 231.623C101.823 231.718 101.504 231.411 101.208 230.941L100.669 230.088L101.379 230.77C101.77 231.145 102.012 231.529 101.918 231.623ZM104.686 230.726C104.746 230.776 104.746 230.94 104.686 231.091C104.546 231.445 102.583 230.937 102.583 230.547C102.583 230.301 104.356 230.452 104.686 230.726ZM100.129 231.315C100.129 231.4 100.06 231.469 99.9758 231.469C99.8915 231.469 99.8225 231.4 99.8225 231.315C99.8225 231.231 99.8915 231.162 99.9758 231.162C100.06 231.162 100.129 231.231 100.129 231.315ZM221.265 233.394L222.688 234.213L221.308 234.215C220.549 234.216 219.324 233.943 218.587 233.609C217.391 233.066 217.291 232.943 217.652 232.465C218.58 231.236 218.953 231.109 219.411 231.864C219.648 232.255 220.483 232.943 221.265 233.394ZM103.916 232.619C103.993 232.746 103.369 234.507 102.529 236.532C101.688 238.557 100.34 241.802 99.5338 243.743C98.3389 246.619 97.8891 247.376 97.1025 247.838C95.8638 248.565 92.9892 248.823 91.2786 248.36C90.103 248.042 89.9702 247.919 90.1601 247.329C90.2788 246.96 90.5469 245.761 90.7558 244.664C91.5829 240.325 94.0258 237.155 98.0444 235.206C100.478 234.025 102.4 232.918 102.532 232.619C102.589 232.493 102.891 232.389 103.204 232.389C103.518 232.389 103.838 232.493 103.916 232.619ZM223.949 236.296C224.067 236.925 224.418 237.857 224.729 238.367C225.04 238.877 225.294 239.397 225.295 239.524C225.295 239.65 224.46 239.754 223.438 239.754H221.58L221.006 238.45C220.691 237.733 220.34 236.774 220.228 236.32C220.029 235.519 220.068 235.49 221.509 235.378C222.326 235.314 223.161 235.237 223.365 235.206C223.568 235.176 223.831 235.666 223.949 236.296ZM125.285 238.68C125.285 238.764 125.216 238.833 125.132 238.833C125.048 238.833 124.979 238.764 124.979 238.68C124.979 238.595 125.048 238.526 125.132 238.526C125.216 238.526 125.285 238.595 125.285 238.68ZM127.24 240.236L128.304 241.331L131.24 241.233L134.177 241.135L134.47 241.978C134.869 243.127 134.125 245.558 133.041 246.642C132.581 247.102 132.155 247.328 132.094 247.145C132.033 246.961 131.493 246.812 130.894 246.812C128.926 246.812 125.915 246.11 125.389 245.529C124.656 244.719 125.082 244.518 126.423 245.039C129.517 246.242 132.955 246.445 132.955 245.425C132.955 245.097 132.59 244.966 131.651 244.953C130.934 244.943 129.393 244.686 128.228 244.382C126.03 243.81 125.877 243.682 124.37 241.175L123.657 239.988L124.324 240.346C124.691 240.542 125.298 241.17 125.672 241.741C126.49 242.989 127.539 243.522 130.219 244.051C132.419 244.484 133.875 244.298 133.875 243.584C133.875 243.248 133.506 243.129 132.465 243.129C131.012 243.129 127.865 242.358 127.223 241.844C126.677 241.408 125.559 239.14 125.889 239.14C126.047 239.14 126.655 239.633 127.24 240.236ZM176.518 241.902C176.37 242.416 176.37 243.229 176.518 243.743L176.782 244.664H170.534C167.098 244.664 163.932 244.529 163.5 244.364C162.844 244.115 162.713 243.869 162.713 242.891C162.713 242.246 162.878 241.552 163.081 241.35C163.345 241.086 165.339 240.981 170.115 240.981H176.782L176.518 241.902ZM227.277 242.132C227.392 242.765 227.56 243.594 227.651 243.973L227.817 244.664H203.309C181.624 244.664 178.723 244.609 178.12 244.186C177.36 243.654 177.23 242.533 177.819 241.591C178.193 240.991 178.587 240.981 202.634 240.981H227.068L227.277 242.132ZM124.365 243.283C124.365 243.367 124.296 243.436 124.212 243.436C124.127 243.436 124.058 243.367 124.058 243.283C124.058 243.198 124.127 243.129 124.212 243.129C124.296 243.129 124.365 243.198 124.365 243.283ZM188.468 247.148C189.849 247.84 191.056 248.329 191.149 248.235C191.511 247.873 190.917 247.122 189.801 246.534L188.636 245.918L194.837 245.905L201.039 245.891L202.059 246.786C202.619 247.279 203.579 248.694 204.192 249.932C205.365 252.303 207.503 256.924 207.503 257.09C207.503 257.144 208.105 258.478 208.84 260.055C209.576 261.632 210.629 263.957 211.182 265.223C211.734 266.489 212.789 268.81 213.526 270.381C214.263 271.953 214.865 273.286 214.865 273.345C214.865 273.404 215.492 274.791 216.257 276.429C217.022 278.067 218.001 280.255 218.432 281.291C218.864 282.327 219.343 283.306 219.496 283.466C219.649 283.626 219.774 284.006 219.774 284.31C219.774 284.826 219.293 284.862 212.319 284.862H204.865L204.525 283.865C204.339 283.316 203.884 281.832 203.516 280.566C203.148 279.3 202.66 277.712 202.433 277.037C202.205 276.362 201.719 274.774 201.353 273.508C200.987 272.242 200.301 270.033 199.829 268.598C199.357 267.164 198.469 264.333 197.854 262.308C195.089 253.199 193.758 250.718 191.008 249.538C189.206 248.765 185.128 247.812 182.653 247.585C178.97 247.247 175.141 246.778 174.677 246.608C173.538 246.19 175.762 245.933 180.7 245.912L185.957 245.891L188.468 247.148ZM228.315 248.423C228.74 251.336 229.267 254.747 230.2 260.62C230.907 265.074 231.497 268.872 232.201 273.508C232.445 275.112 232.921 278.218 233.258 280.412C233.596 282.607 233.875 284.505 233.879 284.632C233.883 284.759 231.068 284.862 227.624 284.862H221.362L220.748 283.558C220.409 282.841 219.695 281.287 219.16 280.106C218.626 278.924 217.936 277.405 217.628 276.73C217.32 276.055 216.725 274.743 216.307 273.815C215.888 272.887 215.047 271.045 214.438 269.722C213.83 268.399 213.332 267.27 213.332 267.214C213.332 267.158 212.641 265.64 211.798 263.842C210.954 262.044 210.264 260.525 210.264 260.467C210.264 260.408 209.573 258.889 208.73 257.091C207.886 255.293 207.196 253.772 207.196 253.711C207.196 253.225 204.315 247.637 203.668 246.867L202.846 245.891H215.396H227.945L228.315 248.423ZM124.979 246.769C124.979 246.914 124.633 246.967 124.212 246.887C123.79 246.806 123.445 246.687 123.445 246.622C123.445 246.558 123.79 246.505 124.212 246.505C124.633 246.505 124.979 246.624 124.979 246.769ZM127.509 247.628C127.299 247.714 126.954 247.714 126.743 247.628C126.532 247.543 126.704 247.474 127.126 247.474C127.548 247.474 127.721 247.543 127.509 247.628ZM260.576 285.169C260.576 285.394 260.668 285.486 260.78 285.373C260.893 285.261 260.893 285.077 260.78 284.964C260.668 284.852 260.576 284.944 260.576 285.169Z" fill="#4873FA"/>
</svg>
