<svg width="645" height="414" viewBox="0 0 645 414" fill="none" xmlns="http://www.w3.org/2000/svg">
<g clip-path="url(#clip0_1793_50116)">
<path d="M262.792 176.704L210.081 210.111C208.79 209.469 210.257 215.465 211.089 218.048C224.922 240.988 253.473 288.267 257.007 293.867C260.54 299.466 263.943 299.538 265.203 298.874L324.148 263.163L270.64 175.204L268.122 175.019L262.792 176.704Z" fill="#FF9665" stroke="black"/>
<path d="M378.832 113.289L323.287 146.696C321.995 146.053 323.462 152.05 324.294 154.632C338.128 177.572 350.999 196.501 365.999 225.001C367.397 227.656 368.499 228.001 372.999 230.001L444.999 185.501L398.499 106.001L395.999 104.001L378.832 113.289Z" fill="black" stroke="black"/>
<path fill-rule="evenodd" clip-rule="evenodd" d="M613.724 -16.9054C616.036 -16.9745 618.014 -16.3497 618.119 -15.5169C618.252 -14.4813 616.116 -13.8596 611.385 -13.5573C605.955 -13.209 603.006 -12.1856 597.744 -8.82707C580.373 2.26358 572.921 28.4891 575.548 69.2959C577.496 99.5396 577.229 110.039 574.286 119.03C569.23 134.477 561.776 141.69 549.157 143.347C540.612 144.469 536.248 143.358 529.615 138.371C522.646 133.133 517.736 123.694 515.101 110.476C512.336 96.6072 509.316 92.6315 502.229 93.5316C498.393 94.0188 496.204 95.2377 493.429 98.4322L489.734 102.686L492.932 108.553C497.293 116.555 498.597 121.747 496.713 123.595C495.865 124.427 490.5 127.978 484.792 131.485L474.415 137.863L477.304 142.779C482.365 151.391 483.141 155.042 481.254 161.345C479.131 168.435 478.779 168.786 465.902 176.699C457.619 181.79 455.725 183.507 456.438 185.279C457.503 187.931 455.425 191.617 452.666 191.967C451.578 192.106 449.613 191.468 448.299 190.551C446.144 189.046 445.025 189.395 436.965 194.085C432.046 196.945 424.679 201.389 420.591 203.96C416.504 206.531 410.534 210.102 407.324 211.897C404.114 213.692 395.25 218.933 387.627 223.543C370.778 233.734 369.208 233.797 363.611 224.518C361.142 220.424 358.997 218.15 358.095 218.674C357.284 219.144 352.092 222.244 346.557 225.564C335.389 232.26 330.972 232.833 329.022 227.84C328.378 226.188 328.185 224.101 328.594 223.203C329.394 221.447 348.244 209.122 350.585 208.825C353.031 208.514 351.59 204.372 346.032 195.74C343.07 191.139 339.263 184.778 337.571 181.602C335.879 178.427 333.712 175.928 332.756 176.049C331.798 176.171 326.147 179.251 320.198 182.894C308.706 189.93 305.347 190.356 303.214 185.049C302.186 182.49 305.36 175.635 307.712 175.337C308.409 175.248 312.999 172.661 317.91 169.588L326.84 164L323.54 158.383C317.743 148.519 318.756 145.831 330.932 138.772C335.514 136.115 344.279 130.914 350.411 127.211C373.394 113.338 382.817 107.653 388.364 104.32C392.583 101.784 393.804 100.387 393.042 98.9692C392.044 97.1091 394.859 91.5942 396.942 91.3297C397.508 91.2578 399.203 92.2249 400.708 93.4782L403.444 95.756L412.926 89.6554C429.456 79.0181 439.182 79.9424 447.253 92.9138C449.682 96.8178 452.23 99.679 452.915 99.2714C466.382 91.2488 474.804 87.0555 476.902 87.3289C478.337 87.5153 481.283 90.2857 483.449 93.4834L487.387 99.2981L492.184 94.8022C498.213 89.1478 504.972 87.9508 510.441 91.5673C513.802 93.788 514.506 95.3584 516.909 105.995C519.701 118.347 524.639 129.482 529.249 133.812C543.809 147.486 562.868 140.919 570.546 119.584C573.401 111.653 574.094 98.8374 572.652 80.6947C571.215 62.6216 571.349 42.506 572.985 30.6884C574.394 20.5129 579.451 5.97936 583.848 -0.52674C590.418 -10.2508 601.904 -16.5476 613.724 -16.9054ZM284.832 88.3721C284.911 88.8967 286.495 94.6589 288.35 101.174C291.478 112.167 291.866 115.241 289.933 113.743C289.235 113.204 287.87 108.77 283.564 93.0753C282.67 89.8172 282.605 87.6816 283.395 87.5813C284.106 87.491 284.752 87.8476 284.832 88.3721ZM326.681 91.0789C326.816 92.144 318.643 110.664 316.981 113.057C316.755 113.383 316.174 113.342 315.69 112.968C315.205 112.593 317.032 107.544 319.748 101.75C324.719 91.145 326.367 88.6088 326.681 91.0789ZM260.807 115.889C266.003 121.308 270.117 126.429 269.951 127.268C269.664 128.712 249.871 109.146 249.574 107.125C249.196 104.556 252.169 106.875 260.807 115.889ZM436.253 86.6877C439.555 87.788 445.838 96.5066 456.158 114.307C459.24 119.626 465.511 130.189 470.091 137.78C480.153 154.462 481.01 158.548 475.78 164.905C472.443 168.964 457.566 178.368 453.71 178.857C452.896 178.961 451.669 177.803 450.983 176.284C450.299 174.764 446.429 168.102 442.386 161.478C434.961 149.312 433.707 147.229 415.62 116.972C410.103 107.743 405.749 99.5344 405.946 98.7321C406.482 96.5408 424.994 86.4565 429.299 86.0109C431.364 85.7967 434.494 86.1013 436.253 86.6877ZM400.394 98.3535C402.327 101.997 409.771 114.396 421.002 132.673C424.952 139.103 428.219 144.633 428.261 144.963C428.303 145.292 430.471 148.98 433.081 153.16C440.481 165.012 451.454 183.447 452.524 185.821C454.12 189.364 450.72 188.609 448.804 184.996C447.099 181.782 442.547 174.161 429.17 152.125C425.75 146.492 420.198 137.27 416.83 131.63C413.463 125.991 407.475 116.116 403.524 109.685C399.573 103.256 396.265 97.3984 396.172 96.6679C395.83 93.9782 398.677 95.1143 400.394 98.3535ZM479.477 93.7633C480.813 95.7012 484.894 102.323 488.548 108.48L495.191 119.674L492.574 122.225C488.534 126.162 473.525 133.974 472.111 132.876C470.885 131.925 456.472 108.505 454.713 104.607C454.026 103.085 456.26 101.216 464.316 96.5738C470.09 93.2462 475.317 90.4606 475.931 90.3826C476.546 90.3046 478.142 91.8253 479.477 93.7633ZM398.218 107.065C399.927 110.835 417.021 139.435 437.036 172.01C440.532 177.698 443.5 183.209 443.633 184.256C443.777 185.389 440.813 187.897 436.309 190.455C432.148 192.819 423.188 198.142 416.399 202.286C409.609 206.43 398.497 213.208 391.707 217.347C375.453 227.255 371.727 228.999 369.873 227.563C369.061 226.934 364.068 219.144 358.777 210.252C353.486 201.358 345.712 188.387 341.502 181.428C327.73 158.658 323.741 151.356 323.902 149.208C324 147.91 330.344 143.312 340.337 137.298C349.289 131.911 359.466 125.703 362.953 123.502C366.441 121.3 369.562 119.464 369.889 119.423C370.218 119.381 375.911 116.03 382.543 111.976C389.175 107.922 395.133 104.537 395.784 104.454C396.434 104.372 397.529 105.547 398.218 107.065ZM441.513 113.247C444.719 118.728 451.033 129.312 455.545 136.766C460.285 144.598 463.262 150.713 462.599 151.25C461.123 152.442 461.695 153.16 453.809 140.236C450.069 134.108 444.066 124.305 440.467 118.451C436.868 112.597 433.803 106.855 433.655 105.69C433.058 100.983 435.994 103.807 441.513 113.247ZM442.335 131.29C455.329 152.698 458.355 159.189 453.538 155.319C452.506 154.49 449.795 150.544 447.514 146.551C445.233 142.558 439.567 133.058 434.923 125.439C425.218 109.52 425.273 109.637 426.969 108.746C427.671 108.378 434.585 118.522 442.335 131.29ZM246.003 140.472C257.128 144.794 259.962 146.361 257.273 146.703C255.017 146.989 234.124 138.881 233.967 137.658C233.752 135.985 235.522 136.399 246.003 140.472ZM392.789 146.837C396.113 148.674 395.157 153.381 391.198 154.671C387.523 155.87 386.758 155.387 386.273 151.563C385.781 147.688 389.48 145.007 392.789 146.837ZM381.87 148.286C382.908 149.256 383.852 153.145 384.241 158.043C384.882 166.147 384.867 166.187 381.054 166.671L377.222 167.158L375.72 158.381C374.663 152.217 374.67 149.228 375.742 148.34C377.984 146.483 379.923 146.466 381.87 148.286ZM280.108 170.082C281.388 172.239 285.898 179.697 290.133 186.654C294.366 193.611 299.674 202.491 301.927 206.387C304.18 210.284 308.55 217.51 311.637 222.444C314.725 227.379 317.284 231.678 317.324 231.998C317.365 232.317 321.103 238.557 325.632 245.863C334.5 260.172 335.17 263.477 329.596 265.448C327.764 266.096 323.273 268.363 319.617 270.486C308.553 276.912 282.036 292.848 275.004 297.297C270.618 300.073 266.041 301.819 261.389 302.496C256.39 303.222 252.094 304.966 246.404 308.579C234.916 315.874 231.936 316.682 224.596 314.491C219.13 312.859 217.819 311.732 213.983 305.368C211.576 301.374 208.841 298.203 207.907 298.322C206.974 298.44 202.112 301.102 197.103 304.236C192.093 307.371 186.326 310.147 184.285 310.406C181.061 310.816 180.062 310.061 176.664 304.644C172.803 298.487 172.676 298.414 166.484 298.829C157.817 299.409 151.386 297.351 145.983 292.269C139.998 286.64 138.085 281.807 136.296 267.785C134.447 253.293 130.857 247.347 120.904 242.281C115.056 239.305 113.105 238.984 106.198 239.862C99.1159 240.761 97.4672 241.523 91.3161 246.748C84.865 252.226 81.4962 256.785 78.9633 263.46C77.854 266.385 75.2236 299.546 73.6107 330.95C71.5947 370.176 68.3102 383.38 56.2114 400.876C49.6222 410.407 37.6767 423.143 31.0975 427.654C26.481 430.819 25.9336 430.932 25.6591 428.771C25.5417 427.847 27.7183 425.437 30.4944 423.415C39.4132 416.92 51.2198 403.5 57.1502 393.114C67.476 375.033 67.7832 372.956 72.6366 288.026C73.2807 276.757 74.6591 265.171 75.7012 262.278C80.3572 249.339 93.9037 237.53 105.83 236.015C113.58 235.031 126.185 239.771 131.481 245.661C136.803 251.58 138.461 255.922 139.867 267.628C141.408 280.452 144.089 286.698 149.925 291.052C155.394 295.133 160.415 296.567 166.523 295.791L170.9 295.235L168.114 290.073C166.58 287.234 164.769 284.429 164.088 283.836C163.405 283.246 162.642 281.143 162.391 279.166C161.855 274.942 165.211 271.844 177.782 264.955C182.286 262.487 185.907 259.955 185.827 259.328C185.748 258.702 184.52 256.502 183.098 254.44C173.36 240.315 177.174 229.881 195.623 220.178C202.198 216.719 205.317 214.317 205.795 212.344C206.835 208.036 207.963 207.187 230.686 193.579C261.717 174.995 270.442 169.406 270.289 168.204C270.214 167.613 271.869 166.911 273.968 166.644C277.05 166.253 278.227 166.912 280.108 170.082ZM279.501 175.483C281.831 179.13 283.775 182.419 283.822 182.793C283.9 183.408 300.812 211.63 316.771 237.777C327.439 255.255 330.44 260.75 329.783 261.601C328.496 263.262 326.409 261.036 322.272 253.588C319.939 249.392 315.409 241.813 312.204 236.747C308.998 231.682 306.331 227.188 306.277 226.76C306.223 226.333 304.401 223.18 302.228 219.752C297.518 212.32 286.691 194.327 278.91 181.001C272.436 169.913 272.94 165.206 279.501 175.483ZM405.704 157.141C407.431 158.481 407.721 159.525 406.933 161.586C406.039 163.925 404.774 164.373 397.31 164.988C389.358 165.645 388.656 165.475 387.899 162.704C387.449 161.057 387.787 159.126 388.652 158.41C391.423 156.117 403.246 155.238 405.704 157.141ZM371.484 160.296C372.408 160.547 373.377 162.428 373.637 164.476C374.056 167.773 373.665 168.259 370.239 168.694C365.924 169.242 363.599 166.571 365.269 162.984C366.38 160.595 368.774 159.56 371.484 160.296ZM330.675 169.362C331.263 170.46 331.607 171.525 331.439 171.729C329.811 173.689 308.507 185.57 307.467 185.097C304.093 183.561 306.447 180.81 316.573 174.462C328.893 166.737 329.205 166.624 330.675 169.362ZM273.428 179.366C274.847 181.863 279.81 190.138 284.458 197.756C289.106 205.374 295.09 215.363 297.753 219.952C300.417 224.543 304.024 230.509 305.768 233.21C310.945 241.228 323.873 263.284 323.588 263.61C322.372 264.992 267.186 297.621 264.593 298.491C260.756 299.778 259.324 298.093 249.498 280.711C246.486 275.383 243.517 270.505 242.901 269.869C242.284 269.234 239.149 264.084 235.935 258.425C232.721 252.766 226.261 241.907 221.578 234.293C209.807 215.149 209.442 214.438 210.07 211.873C210.375 210.622 213.75 207.704 217.57 205.388C231.93 196.68 245.353 188.548 256.148 182.02C262.281 178.312 268.097 175.177 269.074 175.053C270.049 174.929 272.009 176.87 273.428 179.366ZM405.293 166.409C409.597 167.002 410.648 174.183 406.737 176.282C403.245 178.157 399.513 175.518 399.383 171.082C399.261 166.961 400.75 165.784 405.293 166.409ZM396.68 168.797C397.88 169.725 399.689 183.486 398.987 186.349C398.376 188.846 393.607 189.753 391.14 187.842C389.348 186.454 387.329 174.77 388.238 171.056C388.753 168.951 394.793 167.335 396.68 168.797ZM384.998 171.47C386.402 172.783 386.64 173.911 385.861 175.579C384.323 178.876 369.444 180.765 367.131 177.957C364.221 174.426 367.467 171.641 375.712 170.594C380.86 169.94 383.642 170.202 384.998 171.47ZM387.779 183.857C388.297 187.941 384.282 191.219 381.18 189.245C377.488 186.898 378.655 182.6 383.269 181.557C386.917 180.732 387.414 180.985 387.779 183.857ZM212.932 227.28C215.878 232.437 220.39 240.001 222.96 244.088C225.529 248.175 229.1 254.146 230.895 257.356C232.69 260.566 237.963 269.426 242.611 277.044C247.259 284.662 252.108 292.642 253.388 294.777L255.712 298.66L246.397 304.508C234.546 311.946 231.799 312.837 225.811 311.184C220.726 309.779 216.74 305.027 209.347 291.553C207.475 288.139 203.402 281.331 200.298 276.425C197.193 271.518 194.618 267.231 194.575 266.895C194.532 266.56 191.481 261.359 187.794 255.338C177.634 238.745 178.662 234.89 196.129 224.044C201.35 220.803 206.061 218.095 206.6 218.026C207.137 217.958 209.987 222.123 212.932 227.28ZM255.242 223.573C259.45 225.869 263.474 227.659 264.183 227.551C264.892 227.442 268.353 224.959 271.875 222.032C278.345 216.653 281.949 215.2 283.638 217.291C284.147 217.919 281.415 227.173 277.567 237.853C272.116 252.981 270.01 257.342 268.036 257.593C266.045 257.845 263.136 254.315 254.48 241.145C243.855 224.981 242.579 221.603 246.449 219.901C247.077 219.624 251.034 221.277 255.242 223.573ZM355.532 211.673C357.298 214.963 356.83 215.478 346.589 221.507C335.297 228.155 332.128 229.129 332.35 225.879C332.518 223.394 332.965 223.037 345.312 215.51C352.937 210.862 354.734 210.187 355.532 211.673ZM209.097 244.638C210.338 246.442 213.239 251.185 215.543 255.175C217.847 259.165 223.127 268.059 227.276 274.939C231.426 281.821 234.848 287.664 234.881 287.925C234.914 288.186 234.221 288.481 233.342 288.579C231.983 288.731 204.735 245.401 204.449 242.633C204.217 240.399 207.007 241.603 209.097 244.638ZM201.162 247.229C201.248 247.91 207.226 258.193 214.446 270.08C221.666 281.967 227.616 292.032 227.669 292.448C227.966 294.792 223.912 293.142 222.422 290.314C221.454 288.475 215.741 278.834 209.727 268.891C196.457 246.953 196.284 246.59 198.939 246.252C200.076 246.108 201.075 246.547 201.162 247.229ZM193.358 272.487C202.777 287.427 205.98 293.678 204.919 295.047C203.042 297.471 185.111 307.493 183.402 307.074C182.454 306.841 179.97 303.554 177.88 299.768C175.792 295.982 172.046 289.815 169.555 286.065C167.065 282.312 165.236 278.457 165.491 277.496C165.747 276.535 170.146 273.282 175.266 270.27C180.386 267.256 185.216 264.405 186 263.935C186.867 263.413 189.752 266.768 193.358 272.487ZM405.261 249.985C416.609 251.817 417.73 252.124 416.917 253.172C415.999 254.358 392.454 251.33 392.286 250.006C392.088 248.449 395.707 248.444 405.261 249.985ZM396.748 277.088C407.249 283.99 410.455 286.943 407.714 287.184C406.103 287.327 383.882 271.09 384.523 270.239C384.851 269.801 390.352 272.884 396.748 277.088ZM374.213 298.79C380.966 311.536 381.393 312.627 379.713 312.84C378.361 313.012 367.142 290.406 367.553 288.334C367.72 287.488 370.717 292.192 374.213 298.79ZM343.477 294.869C343.816 297.534 338.791 317.305 337.633 317.861C336.286 318.509 340.613 297.103 342.265 294.95C342.928 294.087 343.374 294.058 343.477 294.869Z" fill="black"/>
<rect width="56.6467" height="50.2096" transform="matrix(-0.992032 0.125986 0.125986 0.992032 408.064 139.23)" fill="black"/>
<path d="M230.559 216.584L284.128 209.781L289.924 255.414L256.588 270.736L230.559 216.584Z" fill="#FF9665"/>
<g clip-path="url(#clip1_1793_50116)">
<path d="M287.892 246.537L266.749 258.745C263.021 260.897 258.256 259.62 256.104 255.892L243.896 234.749C241.744 231.021 243.021 226.256 246.749 224.104L267.892 211.896C268.342 211.636 270.757 210.301 273.806 211.118C275.732 211.634 277.461 212.885 278.537 214.749L290.745 235.892C292.897 239.62 291.62 244.385 287.892 246.537Z" fill="#FF9665"/>
<path d="M273.542 224.686L270.207 246.233C269.906 248.01 268.561 249.357 266.79 249.667C265.761 249.85 264.713 249.652 263.845 249.111L263.832 249.105L263.83 249.106C263.786 249.074 263.747 249.048 263.71 249.024C262.946 248.552 262.4 247.599 262.4 247.599C262.009 246.938 258.012 240.068 252.1 229.759C253.582 228.906 255.066 228.053 256.548 227.2L265.605 242.888L265.676 242.482C265.896 241.207 268.144 227.588 268.365 226.312L273.788 223.103L273.543 224.685L273.542 224.686Z" fill="white"/>
<path d="M284.469 239.769L278.248 243.36L273.701 242.108L273.163 241.959L273.951 236.871L274.689 237.074L278.052 238C280.191 238.587 282.33 239.178 284.471 239.768L284.469 239.769Z" fill="white"/>
</g>
<g clip-path="url(#clip2_1793_50116)">
<path d="M399.84 167.809C393.516 171.645 387.248 175.6 380.851 179.312C378.309 180.786 375.422 182.224 372.392 181.783C370.213 181.466 368.133 180.015 368.127 177.638C368.121 175.479 370.542 174.189 371.953 175.629C373.564 177.275 376.29 175.134 375.137 173.152C373.114 169.679 370.011 164.301 373.449 160.691C374.865 159.204 376.961 158.459 378.973 159.015C380.939 159.558 382.5 161.143 383.034 163.099C383.593 165.15 386.332 164.97 386.97 163.101C388.525 158.54 393.513 154.528 398.26 157.418C403.122 160.378 399.317 166.071 396.916 169.325C396.263 170.21 396.81 171.605 397.684 172.099C398.735 172.694 399.803 172.219 400.458 171.331C403.439 167.293 406.588 161.704 403.375 156.849C400.205 152.058 393.498 151.093 388.832 154.222C386.033 156.1 384.114 158.895 383.035 162.06L386.971 162.062C386.099 158.867 383.664 156.342 380.55 155.25C377.285 154.105 373.759 155.059 371.174 157.245C368.602 159.42 367.56 162.813 367.968 166.091C368.378 169.381 369.971 172.37 371.618 175.198L374.802 172.721C372.319 170.187 367.86 170.53 365.612 173.215C363.192 176.107 363.765 180.558 366.328 183.165C368.986 185.868 373.17 186.393 376.715 185.525C380.973 184.483 384.733 181.733 388.428 179.491L401.885 171.328C404.122 169.971 402.084 166.448 399.84 167.809Z" fill="white"/>
</g>
</g>
<defs>
<clipPath id="clip0_1793_50116">
<rect width="645" height="413.263" fill="white" transform="matrix(-1 0 0 1 645 0)"/>
</clipPath>
<clipPath id="clip1_1793_50116">
<rect width="40" height="40" fill="white" transform="translate(240 228) rotate(-30)"/>
</clipPath>
<clipPath id="clip2_1793_50116">
<rect width="45.5061" height="28.2353" fill="white" transform="translate(356 165.871) rotate(-30.1722)"/>
</clipPath>
</defs>
</svg>
