<svg viewBox="0 0 25 24" fill="none" xmlns="http://www.w3.org/2000/svg">
<mask id="mask0_2797_6860" style="mask-type:alpha" maskUnits="userSpaceOnUse" x="0" y="0" width="25" height="24">
<rect x="0.333008" width="24" height="24"/>
</mask>
<g mask="url(#mask0_2797_6860)">
<path d="M19.333 21C18.683 21 18.0997 20.8125 17.583 20.4375C17.0663 20.0625 16.708 19.5833 16.508 19H11.333C10.233 19 9.29134 18.6083 8.50801 17.825C7.72467 17.0417 7.33301 16.1 7.33301 15C7.33301 13.9 7.72467 12.9583 8.50801 12.175C9.29134 11.3917 10.233 11 11.333 11H13.333C13.883 11 14.3538 10.8042 14.7455 10.4125C15.1372 10.0208 15.333 9.55 15.333 9C15.333 8.45 15.1372 7.97917 14.7455 7.5875C14.3538 7.19583 13.883 7 13.333 7H8.15801C7.94134 7.58333 7.57884 8.0625 7.07051 8.4375C6.56217 8.8125 5.98301 9 5.33301 9C4.49967 9 3.79134 8.70833 3.20801 8.125C2.62467 7.54167 2.33301 6.83333 2.33301 6C2.33301 5.16667 2.62467 4.45833 3.20801 3.875C3.79134 3.29167 4.49967 3 5.33301 3C5.98301 3 6.56217 3.1875 7.07051 3.5625C7.57884 3.9375 7.94134 4.41667 8.15801 5H13.333C14.433 5 15.3747 5.39167 16.158 6.175C16.9413 6.95833 17.333 7.9 17.333 9C17.333 10.1 16.9413 11.0417 16.158 11.825C15.3747 12.6083 14.433 13 13.333 13H11.333C10.783 13 10.3122 13.1958 9.92051 13.5875C9.52884 13.9792 9.33301 14.45 9.33301 15C9.33301 15.55 9.52884 16.0208 9.92051 16.4125C10.3122 16.8042 10.783 17 11.333 17H16.508C16.7247 16.4167 17.0872 15.9375 17.5955 15.5625C18.1038 15.1875 18.683 15 19.333 15C20.1663 15 20.8747 15.2917 21.458 15.875C22.0413 16.4583 22.333 17.1667 22.333 18C22.333 18.8333 22.0413 19.5417 21.458 20.125C20.8747 20.7083 20.1663 21 19.333 21ZM5.33301 7C5.61634 7 5.85384 6.90417 6.04551 6.7125C6.23717 6.52083 6.33301 6.28333 6.33301 6C6.33301 5.71667 6.23717 5.47917 6.04551 5.2875C5.85384 5.09583 5.61634 5 5.33301 5C5.04967 5 4.81217 5.09583 4.62051 5.2875C4.42884 5.47917 4.33301 5.71667 4.33301 6C4.33301 6.28333 4.42884 6.52083 4.62051 6.7125C4.81217 6.90417 5.04967 7 5.33301 7Z"/>
</g>
</svg>
