<svg width="90" height="20" viewBox="0 0 90 20" fill="none" xmlns="http://www.w3.org/2000/svg">
<mask id="mask0_81_10689" style="mask-type:alpha" maskUnits="userSpaceOnUse" x="0" y="2" width="17" height="16">
<rect x="0.333496" y="2" width="16" height="16" fill="#D9D9D9"/>
</mask>
<g mask="url(#mask0_81_10689)">
<path d="M6.3335 13.9997C5.96683 13.9997 5.65294 13.8691 5.39183 13.608C5.13072 13.3469 5.00016 13.033 5.00016 12.6663V4.66634C5.00016 4.29967 5.13072 3.98579 5.39183 3.72467C5.65294 3.46356 5.96683 3.33301 6.3335 3.33301H12.3335C12.7002 3.33301 13.0141 3.46356 13.2752 3.72467C13.5363 3.98579 13.6668 4.29967 13.6668 4.66634V12.6663C13.6668 13.033 13.5363 13.3469 13.2752 13.608C13.0141 13.8691 12.7002 13.9997 12.3335 13.9997H6.3335ZM3.66683 16.6663C3.30016 16.6663 2.98627 16.5358 2.72516 16.2747C2.46405 16.0136 2.3335 15.6997 2.3335 15.333V5.99967H3.66683V15.333H11.0002V16.6663H3.66683Z" fill="#E7436A"/>
</g>
<path d="M30.6855 15.66C29.8855 15.66 29.1442 15.516 28.4615 15.228C27.7788 14.9293 27.1815 14.5187 26.6695 13.996C26.1682 13.4733 25.7788 12.8653 25.5015 12.172C25.2242 11.4787 25.0855 10.7373 25.0855 9.948C25.0855 9.148 25.2242 8.40133 25.5015 7.708C25.7788 7.01467 26.1682 6.412 26.6695 5.9C27.1815 5.37733 27.7735 4.972 28.4455 4.684C29.1282 4.38533 29.8695 4.236 30.6695 4.236C31.5442 4.236 32.3122 4.38533 32.9735 4.684C33.6348 4.98267 34.2215 5.388 34.7335 5.9L33.6935 6.94C33.3415 6.54533 32.9095 6.236 32.3975 6.012C31.8962 5.788 31.3202 5.676 30.6695 5.676C30.0828 5.676 29.5442 5.78267 29.0535 5.996C28.5628 6.19867 28.1362 6.492 27.7735 6.876C27.4108 7.26 27.1282 7.71333 26.9255 8.236C26.7335 8.75867 26.6375 9.32933 26.6375 9.948C26.6375 10.5667 26.7335 11.1373 26.9255 11.66C27.1282 12.1827 27.4108 12.636 27.7735 13.02C28.1362 13.404 28.5628 13.7027 29.0535 13.916C29.5442 14.1187 30.0828 14.22 30.6695 14.22C31.3628 14.22 31.9655 14.108 32.4775 13.884C32.9895 13.6493 33.4215 13.3347 33.7735 12.94L34.8135 13.964C34.3015 14.4973 33.6988 14.9133 33.0055 15.212C32.3228 15.5107 31.5495 15.66 30.6855 15.66ZM39.6115 15.66C38.8648 15.66 38.1928 15.484 37.5955 15.132C36.9982 14.78 36.5235 14.3053 36.1715 13.708C35.8195 13.1 35.6435 12.4227 35.6435 11.676C35.6435 10.94 35.8195 10.2787 36.1715 9.692C36.5235 9.09467 36.9982 8.62 37.5955 8.268C38.1928 7.916 38.8648 7.74 39.6115 7.74C40.3475 7.74 41.0142 7.916 41.6115 8.268C42.2195 8.60933 42.6995 9.07867 43.0515 9.676C43.4035 10.2733 43.5795 10.94 43.5795 11.676C43.5795 12.4227 43.4035 13.1 43.0515 13.708C42.6995 14.3053 42.2195 14.78 41.6115 15.132C41.0142 15.484 40.3475 15.66 39.6115 15.66ZM39.6115 14.268C40.0915 14.268 40.5182 14.156 40.8915 13.932C41.2648 13.708 41.5582 13.404 41.7715 13.02C41.9848 12.6253 42.0915 12.1773 42.0915 11.676C42.0915 11.1853 41.9795 10.748 41.7555 10.364C41.5422 9.98 41.2488 9.68133 40.8755 9.468C40.5128 9.244 40.0915 9.132 39.6115 9.132C39.1315 9.132 38.7048 9.244 38.3315 9.468C37.9582 9.68133 37.6648 9.98 37.4515 10.364C37.2382 10.748 37.1315 11.1853 37.1315 11.676C37.1315 12.1773 37.2382 12.6253 37.4515 13.02C37.6648 13.404 37.9582 13.708 38.3315 13.932C38.7048 14.156 39.1315 14.268 39.6115 14.268ZM49.202 15.66C48.626 15.66 48.1033 15.5427 47.634 15.308C47.1753 15.0627 46.8073 14.7267 46.53 14.3C46.2527 13.8733 46.098 13.388 46.066 12.844V10.556C46.098 10.0013 46.2527 9.516 46.53 9.1C46.818 8.67333 47.1913 8.34267 47.65 8.108C48.1193 7.86267 48.6367 7.74 49.202 7.74C49.8953 7.74 50.5193 7.916 51.074 8.268C51.6393 8.62 52.082 9.09467 52.402 9.692C52.722 10.2893 52.882 10.9613 52.882 11.708C52.882 12.4547 52.722 13.1267 52.402 13.724C52.082 14.3213 51.6393 14.796 51.074 15.148C50.5193 15.4893 49.8953 15.66 49.202 15.66ZM48.962 14.3C49.442 14.3 49.8633 14.188 50.226 13.964C50.5887 13.74 50.8767 13.436 51.09 13.052C51.3033 12.6573 51.41 12.204 51.41 11.692C51.41 11.1907 51.3033 10.7427 51.09 10.348C50.8767 9.95333 50.5887 9.64933 50.226 9.436C49.8633 9.212 49.4473 9.1 48.978 9.1C48.498 9.1 48.0767 9.212 47.714 9.436C47.3513 9.64933 47.0687 9.95333 46.866 10.348C46.6633 10.7427 46.562 11.196 46.562 11.708C46.562 12.2093 46.658 12.6573 46.85 13.052C47.0527 13.436 47.3353 13.74 47.698 13.964C48.0713 14.188 48.4927 14.3 48.962 14.3ZM45.202 18.684V7.9H46.642V9.9L46.37 11.74L46.642 13.596V18.684H45.202ZM56.7136 15.564L53.4176 7.9H55.0176L57.4656 13.9H56.9536L59.5296 7.9H61.1296L57.5776 15.564H56.7136ZM54.5376 18.684L56.7776 14.092L57.5776 15.564L56.1376 18.684H54.5376ZM70.6285 15.5L67.0765 11.612L70.5965 7.9H72.3405L68.4205 11.996L68.4845 11.164L72.4845 15.5H70.6285ZM65.7645 15.5V4.076H67.2045V15.5H65.7645ZM76.8157 15.66C76.0584 15.66 75.3757 15.4893 74.7677 15.148C74.1597 14.796 73.6797 14.3213 73.3277 13.724C72.9757 13.1267 72.7997 12.4493 72.7997 11.692C72.7997 10.9453 72.9704 10.2733 73.3117 9.676C73.6637 9.07867 74.1331 8.60933 74.7197 8.268C75.3171 7.916 75.9837 7.74 76.7197 7.74C77.4237 7.74 78.0424 7.9 78.5757 8.22C79.1197 8.54 79.5411 8.98267 79.8397 9.548C80.1491 10.1133 80.3037 10.7533 80.3037 11.468C80.3037 11.5747 80.2984 11.692 80.2877 11.82C80.2771 11.9373 80.2557 12.076 80.2237 12.236H73.8077V11.036H79.4557L78.9277 11.5C78.9277 10.988 78.8371 10.556 78.6557 10.204C78.4744 9.84133 78.2184 9.564 77.8877 9.372C77.5571 9.16933 77.1571 9.068 76.6877 9.068C76.1971 9.068 75.7651 9.17467 75.3917 9.388C75.0184 9.60133 74.7304 9.9 74.5277 10.284C74.3251 10.668 74.2237 11.1213 74.2237 11.644C74.2237 12.1773 74.3304 12.6467 74.5437 13.052C74.7571 13.4467 75.0611 13.756 75.4557 13.98C75.8504 14.1933 76.3037 14.3 76.8157 14.3C77.2424 14.3 77.6317 14.2253 77.9837 14.076C78.3464 13.9267 78.6557 13.7027 78.9117 13.404L79.8397 14.348C79.4771 14.7747 79.0291 15.1 78.4957 15.324C77.9731 15.548 77.4131 15.66 76.8157 15.66ZM84.2449 15.564L80.9489 7.9H82.5489L84.9969 13.9H84.4849L87.0609 7.9H88.6609L85.1089 15.564H84.2449ZM82.0689 18.684L84.3089 14.092L85.1089 15.564L83.6689 18.684H82.0689Z" fill="#E7436A"/>
</svg>
