<svg width="49" height="48" viewBox="0 0 49 48" fill="none" xmlns="http://www.w3.org/2000/svg">
<path d="M34.0409 17.6826V13.2765C34.6175 13.0044 35.1057 12.5725 35.4487 12.0311C35.7917 11.4897 35.9753 10.8611 35.9783 10.2184V10.1172C35.9783 8.24333 34.4739 6.72425 32.6181 6.72425H32.5179C31.6267 6.72425 30.7721 7.08172 30.1419 7.71802C29.5118 8.35432 29.1577 9.21733 29.1577 10.1172V10.2184C29.1607 10.8611 29.3443 11.4897 29.6873 12.0311C30.0303 12.5725 30.5185 13.0044 31.0952 13.2765V17.6826C29.4379 17.9388 27.8771 18.6327 26.5708 19.6939L14.6036 10.2821C14.689 9.97103 14.7335 9.65122 14.7385 9.33017C14.74 8.57401 14.5193 7.8344 14.1044 7.20489C13.6896 6.57538 13.0991 6.08425 12.4078 5.79362C11.7164 5.503 10.9553 5.42593 10.2206 5.57218C9.48584 5.71843 8.81058 6.08141 8.28019 6.61522C7.74981 7.14903 7.38812 7.82969 7.24089 8.57109C7.09365 9.31249 7.16749 10.0813 7.45304 10.7804C7.7386 11.4794 8.22305 12.0772 8.84512 12.4982C9.46719 12.9191 10.1989 13.1444 10.9478 13.1453C11.6029 13.1422 12.2458 12.9656 12.8122 12.6332L24.5963 21.8925C23.5377 23.5074 22.9854 25.4068 23.0114 27.3432C23.0375 29.2796 23.6406 31.1632 24.7423 32.7484L21.1582 36.3687C20.8685 36.2752 20.5666 36.2255 20.2625 36.2213C19.6478 36.2218 19.047 36.4063 18.5361 36.7514C18.0252 37.0966 17.6271 37.5869 17.3921 38.1604C17.1571 38.734 17.0957 39.365 17.2158 39.9737C17.3358 40.5825 17.6319 41.1416 18.0665 41.5805C18.5012 42.0194 19.0549 42.3183 19.6578 42.4396C20.2607 42.5608 20.8856 42.4988 21.4536 42.2615C22.0216 42.0242 22.5072 41.6222 22.849 41.1063C23.1908 40.5905 23.3735 39.9838 23.374 39.3632C23.37 39.056 23.3208 38.7512 23.228 38.4587L26.7737 34.8771C27.93 35.776 29.2746 36.3956 30.7047 36.6887C32.1347 36.9817 33.6122 36.9403 35.024 36.5677C36.4357 36.1951 37.7443 35.5011 38.8494 34.539C39.9546 33.5768 40.8269 32.372 41.3997 31.0168C41.9725 29.6616 42.2304 28.192 42.1538 26.7206C42.0772 25.2492 41.6681 23.8151 40.9578 22.528C40.2475 21.2409 39.2548 20.1351 38.0559 19.2952C36.857 18.4553 35.4835 17.9037 34.0409 17.6826ZM32.5711 32.1738C31.9158 32.192 31.2636 32.0774 30.6529 31.8367C30.0422 31.5961 29.4855 31.2343 29.0156 30.7727C28.5457 30.3111 28.1722 29.7592 27.9172 29.1494C27.6622 28.5396 27.5308 27.8843 27.5308 27.2224C27.5308 26.5605 27.6622 25.9053 27.9172 25.2955C28.1722 24.6857 28.5457 24.1337 29.0156 23.6721C29.4855 23.2105 30.0422 22.8487 30.6529 22.6081C31.2636 22.3674 31.9158 22.2528 32.5711 22.271C33.8412 22.316 35.0444 22.8568 35.9274 23.7797C36.8104 24.7026 37.3042 25.9355 37.3048 27.2188C37.3055 28.502 36.8129 29.7354 35.9308 30.6592C35.0488 31.583 33.8461 32.1251 32.5761 32.1713" fill="#FF7A59"/>
</svg>
