<svg width="34" height="34" viewBox="0 0 34 34" fill="none" xmlns="http://www.w3.org/2000/svg">
<mask id="mask0_2797_6844" style="mask-type:alpha" maskUnits="userSpaceOnUse" x="0" y="0" width="34" height="34">
<rect width="34" height="34" fill="#D9D9D9"/>
</mask>
<g mask="url(#mask0_2797_6844)">
<path d="M11.3335 31.1663V26.9163L7.0835 18.4163V9.91634H8.50016V5.66634C8.50016 4.88717 8.77759 4.22016 9.33245 3.6653C9.88732 3.11044 10.5543 2.83301 11.3335 2.83301H22.6668C23.446 2.83301 24.113 3.11044 24.6679 3.6653C25.2227 4.22016 25.5002 4.88717 25.5002 5.66634V9.91634H26.9168V18.4163L22.6668 26.9163V31.1663H11.3335ZM11.3335 9.91634H14.1668V7.08301H15.5835V9.91634H18.4168V7.08301H19.8335V9.91634H22.6668V5.66634H11.3335V9.91634Z" fill="#0A2E31"/>
</g>
</svg>
