<svg width="49" height="48" viewBox="0 0 49 48" fill="none" xmlns="http://www.w3.org/2000/svg">
<path fill-rule="evenodd" clip-rule="evenodd" d="M22.0997 5.15039C28.233 5.15039 37.4663 7.05039 41.7997 11.3504C42.8997 12.4504 44.333 14.5837 44.333 17.7504C44.333 23.3504 39.833 31.9171 34.8997 36.9171C32.333 39.4837 28.2663 42.8504 22.7663 42.8504C17.3997 42.8504 13.2997 39.1837 12.133 38.0171C7.59967 33.4504 4.33301 26.5504 4.33301 20.0837C4.33301 16.0171 5.49967 12.4504 8.43301 9.48372C11.1663 6.71706 15.8663 5.15039 22.0997 5.15039ZM29.699 27.4508C31.7657 25.3841 32.3323 22.8174 32.3323 21.4174C32.3323 20.3841 32.0657 18.8841 30.799 17.6174C28.8323 15.6508 26.699 15.1174 24.3323 15.1174C21.3657 15.1174 19.3657 16.0508 18.0323 17.3841C16.999 18.4174 16.099 20.0508 16.099 22.3508C16.099 24.6508 17.299 26.8508 18.6323 28.1841C19.8657 29.4174 21.7657 30.3174 23.7323 30.3174C25.699 30.3174 27.6323 29.5174 29.699 27.4508Z" fill="#5952FF"/>
</svg>
