<svg width="48" height="48" viewBox="0 0 48 48" fill="none" xmlns="http://www.w3.org/2000/svg">
<circle cx="24" cy="24" r="20" fill="#203232"/>
<path d="M27.0772 14C24.7119 14 23.3405 15.0815 22.6846 15.8025C22.6051 15.1616 22.1877 14.3405 20.5578 14.3405H17V18.0657H18.451C18.6895 18.0657 18.769 18.1458 18.769 18.3861V35.43H22.9827V29.0611V28.5804C23.6386 29.1813 24.8908 30.0224 26.8586 30.0224C30.9729 30.0224 33.8549 26.7378 33.8549 22.0112C33.8748 17.2245 31.1319 14 27.0772 14ZM26.2225 26.3172C23.9566 26.3172 22.9231 24.1342 22.9231 22.0913C22.9231 18.8868 24.6523 17.7452 26.2821 17.7452C28.2698 17.7452 29.6213 19.4677 29.6213 22.0513C29.6015 25.0154 27.8921 26.3172 26.2225 26.3172Z" fill="white"/>
</svg>
