<svg width="48" height="48" viewBox="0 0 48 48" fill="none" xmlns="http://www.w3.org/2000/svg">
<g clip-path="url(#clip0_2797_6849)">
<path fill-rule="evenodd" clip-rule="evenodd" d="M20.3844 12.5846C21.7352 11.1784 23.6152 10.3077 25.6921 10.3077C28.4614 10.3077 30.8614 11.8461 32.1537 14.1384C33.3008 13.6256 34.5433 13.3609 35.7998 13.3615C40.7844 13.3615 44.8306 17.4384 44.8306 22.4692C44.8306 27.5 40.7844 31.5769 35.7998 31.5769C35.1906 31.5769 34.5967 31.5156 34.0152 31.4C32.8844 33.4153 30.7229 34.7846 28.2614 34.7846C27.2592 34.7866 26.2698 34.5592 25.369 34.12C24.2229 36.8123 21.5537 38.7046 18.446 38.7046C15.1998 38.7046 12.446 36.6584 11.3844 33.7815C10.912 33.8812 10.4304 33.9313 9.94751 33.931C6.08597 33.931 2.96289 30.7618 2.96289 26.8695C2.96289 24.2541 4.36904 21.9772 6.4552 20.7464C6.01262 19.7269 5.78481 18.6271 5.78597 17.5157C5.78597 13.0233 9.43212 9.39258 13.9244 9.39258C16.5552 9.39258 18.909 10.6464 20.386 12.5926" fill="#00A1E0"/>
<path fill-rule="evenodd" clip-rule="evenodd" d="M9.06127 24.5847C9.03497 24.6533 9.07066 24.6676 9.07912 24.6798C9.15773 24.7367 9.23758 24.7779 9.31758 24.8242C9.74527 25.0504 10.1483 25.1165 10.5699 25.1165C11.4283 25.1165 11.9622 24.6596 11.9622 23.9242V23.9098C11.9622 23.2298 11.3591 22.9821 10.796 22.8051L10.7223 22.7813C10.2962 22.6431 9.9285 22.5228 9.9285 22.2428V22.2285C9.9285 21.9885 10.1439 21.8116 10.4762 21.8116C10.8454 21.8116 11.2854 21.9345 11.567 22.0901C11.567 22.0901 11.6503 22.1439 11.6807 22.0634C11.6971 22.0199 11.8407 21.6358 11.856 21.5927C11.8723 21.5476 11.8437 21.5136 11.8143 21.4961C11.4913 21.2991 11.0451 21.1653 10.5836 21.1653L10.4979 21.1656C9.71173 21.1656 9.1625 21.641 9.1625 22.321V22.3356C9.1625 23.0525 9.76866 23.2864 10.3348 23.4479L10.4259 23.4762C10.8382 23.603 11.1951 23.7131 11.1951 24.0024V24.0168C11.1951 24.283 10.9628 24.4814 10.5905 24.4814C10.4457 24.4814 9.98435 24.479 9.48435 24.163C9.42389 24.1278 9.38943 24.1024 9.34281 24.0739C9.3182 24.059 9.25666 24.0321 9.22989 24.1127L9.06066 24.5834M21.6299 24.5834C21.6036 24.6521 21.6393 24.6664 21.648 24.6785C21.7263 24.7354 21.8065 24.7767 21.8865 24.823C22.3142 25.0491 22.7173 25.1153 23.1388 25.1153C23.9973 25.1153 24.5311 24.6584 24.5311 23.923V23.9085C24.5311 23.2285 23.9296 22.9808 23.365 22.8039L23.2913 22.7801C22.8651 22.6419 22.4974 22.5216 22.4974 22.2416V22.2273C22.4974 21.9873 22.7128 21.8104 23.0451 21.8104C23.4143 21.8104 23.8528 21.9333 24.1359 22.0888C24.1359 22.0888 24.2193 22.1427 24.2497 22.0622C24.266 22.0187 24.4097 21.6345 24.4236 21.5914C24.44 21.5464 24.4113 21.5124 24.382 21.4948C24.059 21.2979 23.6128 21.1641 23.1513 21.1641L23.0654 21.1644C22.2793 21.1644 21.73 21.6398 21.73 22.3198V22.3344C21.73 23.0513 22.3362 23.2851 22.9023 23.4467L22.9933 23.475C23.4071 23.6018 23.7625 23.7119 23.7625 24.0011V24.0156C23.7625 24.2818 23.5302 24.4802 23.1579 24.4802C23.0128 24.4802 22.5502 24.4778 22.0517 24.1618C21.9913 24.1265 21.9559 24.1022 21.91 24.0727C21.8945 24.0628 21.822 24.0345 21.7973 24.1114L21.628 24.5822M30.2127 23.1422C30.2127 23.5576 30.1351 23.8853 29.9834 24.1176C29.832 24.3468 29.6034 24.4591 29.285 24.4591C28.9665 24.4591 28.7388 24.3478 28.5896 24.1191C28.4393 23.8884 28.3634 23.5591 28.3634 23.1438C28.3634 22.7284 28.4397 22.4022 28.5896 22.173C28.7385 21.9453 28.965 21.8361 29.285 21.8361C29.605 21.8361 29.8327 21.9464 29.9834 22.173C30.136 22.4022 30.2127 22.7284 30.2127 23.1438M30.9296 22.373C30.859 22.1345 30.7496 21.9253 30.6034 21.7499C30.4571 21.5745 30.2727 21.433 30.0527 21.3314C29.8342 21.2291 29.5757 21.1776 29.2834 21.1776C28.9911 21.1776 28.7342 21.2294 28.5142 21.3314C28.2957 21.4336 28.1096 21.5745 27.9634 21.7499C27.8176 21.9253 27.708 22.1345 27.6373 22.373C27.5673 22.6099 27.5317 22.8684 27.5317 23.1438C27.5317 23.4191 27.5673 23.6776 27.6373 23.9145C27.7076 24.153 27.8173 24.3622 27.9634 24.5376C28.1097 24.713 28.2957 24.853 28.5142 24.953C28.7342 25.0527 28.9927 25.1034 29.2834 25.1034C29.5742 25.1034 29.8327 25.0527 30.0511 24.953C30.2696 24.8533 30.4557 24.713 30.6019 24.5376C30.7479 24.3622 30.8573 24.153 30.928 23.9145C30.9979 23.6776 31.0334 23.4191 31.0334 23.1438C31.0334 22.8699 30.9979 22.6099 30.928 22.373M36.8203 24.3422C36.7968 24.2725 36.7288 24.2988 36.7288 24.2988C36.6247 24.3387 36.5134 24.3756 36.395 24.3941C36.2756 24.4128 36.1427 24.4222 36.0027 24.4222C35.6565 24.4222 35.3796 24.319 35.1827 24.1145C34.9842 23.9099 34.8734 23.5807 34.875 23.1345C34.876 22.7284 34.9742 22.4238 35.1503 22.1899C35.3242 21.9591 35.5919 21.8391 35.9457 21.8391C36.2411 21.8391 36.4673 21.8734 36.7042 21.9476C36.7042 21.9476 36.7603 21.9721 36.7873 21.8981C36.8502 21.7242 36.8967 21.5996 36.9642 21.4088C36.9833 21.3542 36.9365 21.3311 36.9194 21.3245C36.8265 21.2882 36.6071 21.2287 36.441 21.2036C36.2856 21.1799 36.1056 21.1676 35.9025 21.1676C35.601 21.1676 35.3333 21.2191 35.104 21.3213C34.8748 21.4233 34.681 21.5644 34.5271 21.7398C34.3733 21.9151 34.2563 22.1244 34.1779 22.3628C34.1002 22.5998 34.061 22.8598 34.061 23.1351C34.061 23.729 34.221 24.2105 34.5379 24.5628C34.8548 24.9167 35.3317 25.0951 35.9533 25.0951C36.321 25.0951 36.6979 25.0208 36.9687 24.9136C36.9687 24.9136 37.0203 24.8887 36.9979 24.8284L36.821 24.3422M38.0748 22.7422C38.1091 22.5114 38.1723 22.3191 38.2717 22.1699C38.4205 21.9422 38.6471 21.8176 38.9656 21.8176C39.284 21.8176 39.4948 21.9428 39.6456 22.1699C39.7456 22.3199 39.7893 22.5191 39.8056 22.7422L38.0671 22.7419L38.0748 22.7422ZM40.4902 22.2345C40.4291 22.0053 40.2779 21.773 40.1794 21.6668C40.0225 21.4991 39.8702 21.3807 39.7179 21.3161C39.498 21.2226 39.2614 21.1746 39.0225 21.175C38.7194 21.175 38.444 21.2262 38.221 21.3304C37.9979 21.4353 37.8102 21.5781 37.6625 21.7565C37.515 21.935 37.404 22.1458 37.3333 22.3873C37.2625 22.6258 37.2268 22.8873 37.2268 23.1611C37.2268 23.4411 37.2639 23.7011 37.3368 23.9365C37.4105 24.1734 37.5291 24.3811 37.6891 24.5534C37.8491 24.7273 38.0537 24.8627 38.2999 24.9581C38.5445 25.0527 38.8414 25.1018 39.1814 25.1007C39.883 25.0984 40.2522 24.9422 40.403 24.8576C40.4299 24.8425 40.4553 24.8165 40.4236 24.7416L40.2651 24.297C40.2408 24.2307 40.1737 24.2547 40.1737 24.2547C39.9999 24.3196 39.7537 24.4362 39.1768 24.4347C38.7999 24.4341 38.5214 24.3228 38.346 24.1485C38.1676 23.9701 38.0784 23.7101 38.0645 23.3408L40.4953 23.3427C40.4953 23.3427 40.5593 23.3421 40.5659 23.2796C40.5685 23.2538 40.6491 22.7811 40.4934 22.235L40.4902 22.2345ZM18.644 22.7422C18.6783 22.5114 18.7417 22.3191 18.841 22.1699C18.9899 21.9422 19.2163 21.8176 19.5348 21.8176C19.8533 21.8176 20.064 21.9428 20.2148 22.1699C20.3147 22.3199 20.3583 22.5191 20.3748 22.7422L18.6363 22.7419L18.644 22.7422ZM21.0594 22.2345C20.9985 22.0053 20.8471 21.773 20.7487 21.6668C20.5917 21.4991 20.4394 21.3807 20.2871 21.3161C20.0672 21.2226 19.8307 21.1746 19.5917 21.175C19.2887 21.175 19.0133 21.2262 18.7902 21.3304C18.5671 21.4353 18.3794 21.5781 18.2317 21.7565C18.0845 21.935 17.9733 22.1458 17.9025 22.3873C17.8319 22.6258 17.7963 22.8873 17.7963 23.1611C17.7963 23.4411 17.8331 23.7011 17.9065 23.9365C17.98 24.1734 18.0988 24.3811 18.2573 24.5534C18.4173 24.7273 18.6219 24.8627 18.868 24.9581C19.1127 25.0527 19.408 25.1018 19.7496 25.1007C20.4511 25.0984 20.8203 24.9422 20.9711 24.8576C20.9979 24.8425 21.0234 24.8165 20.9916 24.7416L20.8331 24.297C20.8087 24.2307 20.7416 24.2547 20.7416 24.2547C20.5677 24.3196 20.3216 24.4362 19.7447 24.4347C19.3693 24.4341 19.0893 24.3228 18.9139 24.1485C18.7354 23.9701 18.6462 23.7101 18.6323 23.3408L21.0631 23.3427C21.0631 23.3427 21.1271 23.3421 21.1337 23.2796C21.1363 23.2538 21.217 22.7811 21.0611 22.235L21.0594 22.2345ZM13.3979 24.3268C13.3027 24.2508 13.2894 24.2322 13.2579 24.1828C13.2097 24.1085 13.1851 24.0028 13.1851 23.8674C13.1851 23.6551 13.2559 23.5013 13.402 23.3982C13.4005 23.3985 13.6113 23.2167 14.1067 23.2228C14.3272 23.2268 14.5471 23.2455 14.7651 23.279V24.3821H14.7654C14.7654 24.3821 14.4577 24.4484 14.11 24.4693C13.6162 24.499 13.3977 24.3271 13.3993 24.3276L13.3979 24.3268ZM14.364 22.6191C14.2656 22.6119 14.1379 22.6084 13.9856 22.6084C13.7779 22.6084 13.5763 22.6342 13.3887 22.685C13.1994 22.7361 13.0287 22.8151 12.8825 22.9204C12.7359 23.0249 12.6154 23.1618 12.5302 23.3204C12.4442 23.4804 12.4003 23.6681 12.4003 23.8804C12.4003 24.0958 12.4377 24.2819 12.5116 24.4342C12.5839 24.5853 12.6929 24.7159 12.8285 24.8142C12.9634 24.9124 13.13 24.985 13.3223 25.0281C13.5131 25.0716 13.7285 25.0936 13.9654 25.0936C14.2147 25.0936 14.4623 25.0727 14.7023 25.0322C14.9068 24.997 15.1104 24.9574 15.3131 24.9134C15.394 24.8948 15.4839 24.8704 15.4839 24.8704C15.5439 24.8551 15.5393 24.791 15.5393 24.791L15.5379 22.5756C15.5379 22.0894 15.408 21.7279 15.1517 21.5048C14.8963 21.2818 14.5225 21.1694 14.0379 21.1694C13.8563 21.1694 13.5625 21.1941 13.3871 21.2293C13.3871 21.2293 12.8579 21.3321 12.6394 21.5031C12.6394 21.5031 12.5914 21.5327 12.6176 21.5996L12.7899 22.0611C12.8113 22.121 12.8696 22.1005 12.8696 22.1005C12.8696 22.1005 12.8879 22.0933 12.9094 22.0805C13.3756 21.8267 13.9663 21.8344 13.9663 21.8344C14.2279 21.8344 14.431 21.8874 14.5663 21.9913C14.6988 22.093 14.7663 22.2467 14.7663 22.5698V22.6724C14.5587 22.6422 14.3663 22.6248 14.3663 22.6248L14.364 22.6191ZM33.9025 21.3684C33.906 21.3603 33.9078 21.3515 33.9079 21.3427C33.9079 21.3339 33.9062 21.3251 33.9028 21.3169C33.8994 21.3088 33.8944 21.3014 33.8881 21.2952C33.8818 21.289 33.8743 21.2842 33.866 21.281C33.8247 21.2653 33.6183 21.2218 33.4599 21.2119C33.1553 21.1928 32.986 21.2442 32.8337 21.3125C32.6833 21.3804 32.5168 21.4894 32.4245 21.6156L32.4242 21.3202C32.4242 21.2796 32.3954 21.2468 32.3545 21.2468H31.733C31.6927 21.2468 31.6634 21.2796 31.6634 21.3202V24.9356C31.6635 24.9551 31.6712 24.9739 31.6851 24.9877C31.6989 25.0015 31.7176 25.0092 31.7371 25.0093H32.374C32.3936 25.0092 32.4123 25.0015 32.4261 24.9877C32.4398 24.9738 32.4476 24.9551 32.4476 24.9356V23.1202C32.4476 22.8771 32.4743 22.6356 32.5277 22.4833C32.5803 22.3327 32.6519 22.2125 32.74 22.1264C32.8241 22.0432 32.927 21.9814 33.04 21.9464C33.1461 21.9159 33.2559 21.9005 33.3662 21.9005C33.4931 21.9005 33.6323 21.9331 33.6323 21.9331C33.6791 21.9384 33.7051 21.9098 33.721 21.8676C33.7627 21.7567 33.881 21.4245 33.904 21.3584" fill="#FFFFFE"/>
<path fill-rule="evenodd" clip-rule="evenodd" d="M27.954 19.6998C27.8753 19.676 27.7952 19.657 27.7142 19.6428C27.6052 19.6246 27.4948 19.6161 27.3843 19.6173C26.9454 19.6173 26.5994 19.7413 26.3565 19.9862C26.1153 20.2293 25.9511 20.5996 25.8688 21.0868L25.8391 21.2513H25.2882C25.2882 21.2513 25.2209 21.2485 25.2068 21.3219L25.1163 21.8265C25.11 21.8748 25.1308 21.905 25.1954 21.9047H25.7317L25.1876 24.9421C25.1449 25.1867 25.0962 25.3879 25.0422 25.5404C24.9889 25.6908 24.9369 25.8036 24.8729 25.8854C24.8109 25.9647 24.7522 26.023 24.6508 26.057C24.5671 26.0851 24.4708 26.0981 24.3653 26.0981C24.3065 26.0981 24.2283 26.0882 24.1706 26.0767C24.1129 26.0653 24.0829 26.0524 24.0397 26.0342C24.0397 26.0342 23.9768 26.0102 23.952 26.0733C23.9319 26.1248 23.7889 26.5179 23.772 26.5665C23.7548 26.6145 23.7789 26.6524 23.8094 26.6633C23.8808 26.6888 23.9339 26.7051 24.0311 26.7281C24.1662 26.7599 24.28 26.7619 24.3866 26.7619C24.61 26.7619 24.8136 26.7305 24.9823 26.6696C25.1522 26.6082 25.3 26.5013 25.4308 26.3565C25.5722 26.2004 25.6611 26.0368 25.7462 25.8138C25.8303 25.5927 25.902 25.3182 25.9594 24.9984L26.5062 21.9047H27.3056C27.3056 21.9047 27.3729 21.9071 27.3869 21.8341L27.4774 21.3295C27.4837 21.2811 27.4631 21.251 27.3982 21.2513H26.6223C26.6262 21.2338 26.6614 20.9608 26.7505 20.7039C26.7885 20.5942 26.86 20.5058 26.9206 20.445C26.9772 20.3871 27.0469 20.3437 27.1239 20.3185C27.2082 20.2925 27.2961 20.2798 27.3843 20.281C27.4574 20.281 27.5291 20.2898 27.5837 20.3011C27.6589 20.3171 27.6882 20.3256 27.7079 20.3315C27.7869 20.3556 27.7976 20.3322 27.8131 20.2939L27.9986 19.7844C28.0177 19.7296 27.9713 19.7065 27.954 19.6998ZM17.1119 24.9485C17.1119 24.9891 17.0829 25.0222 17.0423 25.0222H16.3988C16.358 25.0222 16.3291 24.9891 16.3291 24.9485V19.7688C16.3291 19.7284 16.358 19.6956 16.3988 19.6956H17.0423C17.0829 19.6956 17.1119 19.7284 17.1119 19.7688V24.9485Z" fill="#FFFFFE"/>
</g>
<defs>
<clipPath id="clip0_2797_6849">
<rect width="42" height="29.3846" fill="white" transform="translate(3 9.30762)"/>
</clipPath>
</defs>
</svg>
