<svg viewBox="0 0 25 24" fill="none" xmlns="http://www.w3.org/2000/svg">
<mask id="mask0_2797_7028" style="mask-type:alpha" maskUnits="userSpaceOnUse" x="0" y="0" width="25" height="24">
<rect x="0.666016" width="24" height="24"/>
</mask>
<g mask="url(#mask0_2797_7028)">
<path d="M9.91621 22L9.51621 18.8C9.29954 18.7167 9.09538 18.6167 8.90371 18.5C8.71204 18.3833 8.52454 18.2583 8.34121 18.125L5.36621 19.375L2.61621 14.625L5.19121 12.675C5.17454 12.5583 5.16621 12.4458 5.16621 12.3375V11.6625C5.16621 11.5542 5.17454 11.4417 5.19121 11.325L2.61621 9.375L5.36621 4.625L8.34121 5.875C8.52454 5.74167 8.71621 5.61667 8.91621 5.5C9.11621 5.38333 9.31621 5.28333 9.51621 5.2L9.91621 2H15.4162L15.8162 5.2C16.0329 5.28333 16.237 5.38333 16.4287 5.5C16.6204 5.61667 16.8079 5.74167 16.9912 5.875L19.9662 4.625L22.7162 9.375L20.1412 11.325C20.1579 11.4417 20.1662 11.5542 20.1662 11.6625V12.3375C20.1662 12.4458 20.1495 12.5583 20.1162 12.675L22.6912 14.625L19.9412 19.375L16.9912 18.125C16.8079 18.2583 16.6162 18.3833 16.4162 18.5C16.2162 18.6167 16.0162 18.7167 15.8162 18.8L15.4162 22H9.91621ZM12.7162 15.5C13.6829 15.5 14.5079 15.1583 15.1912 14.475C15.8745 13.7917 16.2162 12.9667 16.2162 12C16.2162 11.0333 15.8745 10.2083 15.1912 9.525C14.5079 8.84167 13.6829 8.5 12.7162 8.5C11.7329 8.5 10.9037 8.84167 10.2287 9.525C9.55371 10.2083 9.21621 11.0333 9.21621 12C9.21621 12.9667 9.55371 13.7917 10.2287 14.475C10.9037 15.1583 11.7329 15.5 12.7162 15.5Z"/>
</g>
</svg>
