<svg width="101" height="101" viewBox="0 0 101 101" fill="none" xmlns="http://www.w3.org/2000/svg">
<path fill-rule="evenodd" clip-rule="evenodd" d="M73.0518 51.592C73.1992 51.5883 73.3447 51.6266 73.4713 51.7023C79.8615 55.5234 84.1343 62.5169 84.1343 70.4997C84.1343 70.9301 84.1265 71.3628 84.0931 71.8049C84.0783 72.0008 83.9901 72.1839 83.846 72.3175C83.7019 72.4511 83.5127 72.5253 83.3163 72.5254H41.153C40.954 72.5253 40.7626 72.4492 40.6179 72.3125C40.4733 72.1759 40.3864 71.989 40.3752 71.7903C40.3507 71.3579 40.3428 70.9301 40.3428 70.4997C40.3428 62.5169 44.6154 55.5234 51.0056 51.7023C51.1476 51.6173 51.3131 51.5799 51.4779 51.5953C51.6427 51.6107 51.7983 51.6782 51.9222 51.788C54.6685 54.2225 58.2771 55.7053 62.2346 55.7053C66.2003 55.7053 69.8084 54.2225 72.5546 51.788C72.6921 51.6661 72.8681 51.5967 73.0518 51.592ZM73.145 53.332C70.1847 55.7826 66.3798 57.2634 62.2346 57.2634C58.0965 57.2634 54.2921 55.7826 51.3318 53.332C45.6605 56.9376 41.9009 63.272 41.9009 70.4997C41.9009 70.6578 41.9034 70.8126 41.9061 70.9672H82.5713C82.5743 70.8135 82.5761 70.6582 82.5761 70.4997C82.5761 63.272 78.8163 56.9376 73.145 53.332Z" fill="#FF9665"/>
<path fill-rule="evenodd" clip-rule="evenodd" d="M62.2884 28.3066C68.3961 28.3066 73.3667 33.2688 73.3667 39.3772C73.3667 45.4784 68.3968 50.4478 62.2884 50.4478C56.1872 50.4478 51.2178 45.4784 51.2178 39.3772C51.2178 33.2688 56.1879 28.3066 62.2884 28.3066ZM62.2884 29.8648C57.03 29.8648 52.7759 34.1112 52.7759 39.3772C52.7759 44.6349 57.0307 48.8897 62.2884 48.8897C67.5544 48.8897 71.8086 44.6349 71.8086 39.3772C71.8086 34.1112 67.5551 29.8648 62.2884 29.8648Z" fill="#FF9665"/>
<path fill-rule="evenodd" clip-rule="evenodd" d="M45.0131 47.1428C45.1607 47.1392 45.3064 47.1776 45.433 47.2536C46.0812 47.6425 46.7142 48.0724 47.3101 48.5376C47.3105 48.5379 47.3109 48.5383 47.3113 48.5384C47.5969 48.7605 47.8851 48.9907 48.1661 49.2461C48.244 49.3143 48.3076 49.3974 48.353 49.4904C48.3985 49.5835 48.425 49.6847 48.4309 49.7881C48.4368 49.8914 48.422 49.995 48.3874 50.0926C48.3528 50.1902 48.2991 50.2799 48.2295 50.3566C48.1598 50.4332 48.0756 50.4951 47.9817 50.5388C47.8878 50.5825 47.7861 50.6071 47.6826 50.611C47.5791 50.615 47.4759 50.5982 47.379 50.5618C47.282 50.5254 47.1933 50.47 47.118 50.3989C46.8853 50.1873 46.6285 49.9812 46.3536 49.7674C46.3531 49.7671 46.3527 49.7669 46.3523 49.7667C45.9547 49.4562 45.5351 49.1604 45.1034 48.8829C42.5804 50.9438 39.3522 52.183 35.8393 52.183C32.3261 52.183 29.0975 50.9436 26.5744 48.8825C21.8367 51.9266 18.6919 57.2493 18.6919 63.3083C18.6919 63.3982 18.6932 63.4893 18.6951 63.581H37.8493C37.9527 63.5792 38.0555 63.598 38.1516 63.6364C38.2477 63.6747 38.3351 63.7318 38.4089 63.8043C38.4827 63.8768 38.5413 63.9634 38.5813 64.0588C38.6213 64.1542 38.6419 64.2566 38.6419 64.36C38.6419 64.4635 38.6213 64.5659 38.5813 64.6613C38.5413 64.7567 38.4827 64.8432 38.4089 64.9157C38.3351 64.9882 38.2477 65.0453 38.1516 65.0837C38.0555 65.122 37.9527 65.1409 37.8493 65.1391H17.944C17.7434 65.1391 17.5505 65.0616 17.4055 64.923C17.2605 64.7843 17.1746 64.595 17.1657 64.3946C17.1501 64.0441 17.1338 63.682 17.1338 63.3083C17.1338 56.4933 20.7907 50.5134 26.2465 47.2529C26.3885 47.1681 26.5538 47.1306 26.7185 47.146C26.8832 47.1613 27.0388 47.2287 27.1626 47.3383C29.4724 49.3833 32.5038 50.625 35.8393 50.625C39.1747 50.625 42.2059 49.3833 44.5157 47.3383C44.6532 47.2166 44.8294 47.1473 45.0131 47.1428Z" fill="#FF9665"/>
<path fill-rule="evenodd" clip-rule="evenodd" d="M35.8943 27.2637C41.1379 27.2637 45.4067 31.5325 45.4067 36.7761C45.4067 42.0198 41.1379 46.2886 35.8943 46.2886C30.6506 46.2886 26.3818 42.0198 26.3818 36.7761C26.3818 31.5325 30.6506 27.2637 35.8943 27.2637ZM35.8943 28.8218C31.493 28.8218 27.94 32.3749 27.94 36.7761C27.94 41.1774 31.493 44.7304 35.8943 44.7304C40.2955 44.7304 43.8486 41.1774 43.8486 36.7761C43.8486 32.3749 40.2955 28.8218 35.8943 28.8218Z" fill="#FF9665"/>
</svg>
