<svg width="101" height="101" viewBox="0 0 101 101" fill="none" xmlns="http://www.w3.org/2000/svg">
<path d="M76.7938 27.9287H72.9188V24.1312C72.9188 22.5812 71.6013 21.2637 70.0513 21.2637C68.5013 21.2637 67.1838 22.5812 67.1838 24.1312V27.9287H59.6663V24.1312C59.6663 22.5812 58.3488 21.2637 56.7988 21.2637C55.2488 21.2637 53.9313 22.5812 53.9313 24.1312V27.9287H46.4138V24.1312C46.4138 22.5812 45.0963 21.2637 43.5463 21.2637C41.9963 21.2637 40.6788 22.5812 40.6788 24.1312V27.9287H33.0838V24.1312C33.0838 22.5812 31.7663 21.2637 30.2163 21.2637C28.6663 21.2637 27.3488 22.5812 27.3488 24.1312V27.9287H23.4738C21.0713 27.9287 19.1338 29.8662 19.1338 32.2687V74.2737C19.1338 76.6762 21.0713 78.6137 23.4738 78.6137H76.7938C79.1963 78.6137 81.1338 76.6762 81.1338 74.2737V32.2687C81.1338 29.8662 79.1963 27.9287 76.7938 27.9287ZM70.0513 22.8137C70.7488 22.8137 71.3688 23.4337 71.3688 24.1312V33.2762C71.3688 33.9737 70.7488 34.5937 70.0513 34.5937C69.3538 34.5937 68.7338 34.0512 68.7338 33.2762V28.7037V24.1312C68.7338 23.4337 69.3538 22.8137 70.0513 22.8137ZM55.4813 24.1312C55.4813 23.4337 56.1013 22.8137 56.7988 22.8137C57.4963 22.8137 58.1163 23.4337 58.1163 24.1312V33.2762C58.1163 33.9737 57.4963 34.5937 56.7988 34.5937C56.1013 34.5937 55.4813 33.9737 55.4813 33.2762V24.1312ZM42.1513 24.1312C42.1513 23.4337 42.7713 22.8137 43.4688 22.8137C44.1663 22.8137 44.7863 23.4337 44.7863 24.1312V28.7037V33.2762C44.7863 33.9737 44.1663 34.5937 43.4688 34.5937C42.7713 34.5937 42.1513 33.9737 42.1513 33.2762V24.1312ZM28.8988 24.1312C28.8988 23.4337 29.5188 22.8137 30.2163 22.8137C30.9138 22.8137 31.5338 23.4337 31.5338 24.1312V28.7037V33.2762C31.5338 33.9737 30.9138 34.5937 30.2163 34.5937C29.5188 34.5937 28.8988 33.9737 28.8988 33.2762V24.1312ZM23.4738 29.4787H27.3488V33.2762C27.3488 34.8262 28.6663 36.1437 30.2163 36.1437C31.7663 36.1437 33.0838 34.8262 33.0838 33.2762V29.4787H40.6013V33.2762C40.6013 34.8262 41.9188 36.1437 43.4688 36.1437C45.0188 36.1437 46.3363 34.8262 46.3363 33.2762V29.4787H53.8538V33.2762C53.8538 34.8262 55.1713 36.1437 56.7213 36.1437C58.2713 36.1437 59.5888 34.8262 59.5888 33.2762V29.4787H67.1838V33.2762C67.1838 34.8262 68.5013 36.1437 70.0513 36.1437C71.6013 36.1437 72.9188 34.8262 72.9188 33.2762V29.4787H76.7938C78.3438 29.4787 79.5838 30.7187 79.5838 32.2687V39.0887H20.6838V32.3462C20.6838 30.7187 21.9238 29.4787 23.4738 29.4787ZM76.7938 77.0637H23.4738C21.9238 77.0637 20.6838 75.8237 20.6838 74.2737V40.6387H79.5838V74.2737C79.5838 75.8237 78.3438 77.0637 76.7938 77.0637Z" fill="#FF9665"/>
<path d="M33.2389 45.4434H27.1939C26.7289 45.4434 26.4189 45.7534 26.4189 46.2184V52.2634C26.4189 52.7284 26.7289 53.0384 27.1939 53.0384H33.2389C33.7039 53.0384 34.0139 52.7284 34.0139 52.2634V46.2184C34.0139 45.7534 33.7039 45.4434 33.2389 45.4434ZM32.4639 51.4884H27.9689V46.9934H32.4639V51.4884Z" fill="#FF9665"/>
<path d="M46.4909 45.4434H40.4459C39.9809 45.4434 39.6709 45.7534 39.6709 46.2184V52.2634C39.6709 52.7284 39.9809 53.0384 40.4459 53.0384H46.4909C46.9559 53.0384 47.2659 52.7284 47.2659 52.2634V46.2184C47.2659 45.7534 46.9559 45.4434 46.4909 45.4434ZM45.7159 51.4884H41.2209V46.9934H45.7159V51.4884Z" fill="#FF9665"/>
<path d="M59.821 45.4434H53.776C53.311 45.4434 53.001 45.7534 53.001 46.2184V52.2634C53.001 52.7284 53.311 53.0384 53.776 53.0384H59.821C60.286 53.0384 60.596 52.7284 60.596 52.2634V46.2184C60.596 45.7534 60.2085 45.4434 59.821 45.4434ZM59.046 51.4884H54.551V46.9934H59.046V51.4884Z" fill="#FF9665"/>
<path d="M73.0739 45.4434H67.0289C66.5639 45.4434 66.2539 45.7534 66.2539 46.2184V52.2634C66.2539 52.7284 66.5639 53.0384 67.0289 53.0384H73.0739C73.5389 53.0384 73.8489 52.7284 73.8489 52.2634V46.2184C73.8489 45.7534 73.5389 45.4434 73.0739 45.4434ZM72.2989 51.4884H67.8039V46.9934H72.2989V51.4884Z" fill="#FF9665"/>
<path d="M33.2389 55.0527H27.1939C26.7289 55.0527 26.4189 55.3627 26.4189 55.8277V61.8727C26.4189 62.3377 26.7289 62.6477 27.1939 62.6477H33.2389C33.7039 62.6477 34.0139 62.3377 34.0139 61.8727V55.8277C34.0139 55.3627 33.7039 55.0527 33.2389 55.0527ZM32.4639 61.0977H27.9689V56.6027H32.4639V61.0977Z" fill="#FF9665"/>
<path d="M46.4909 55.0527H40.4459C39.9809 55.0527 39.6709 55.3627 39.6709 55.8277V61.8727C39.6709 62.3377 39.9809 62.6477 40.4459 62.6477H46.4909C46.9559 62.6477 47.2659 62.3377 47.2659 61.8727V55.8277C47.2659 55.3627 46.9559 55.0527 46.4909 55.0527ZM45.7159 61.0977H41.2209V56.6027H45.7159V61.0977Z" fill="#FF9665"/>
<path d="M59.821 55.0527H53.776C53.311 55.0527 53.001 55.3627 53.001 55.8277V61.8727C53.001 62.3377 53.311 62.6477 53.776 62.6477H59.821C60.286 62.6477 60.596 62.3377 60.596 61.8727V55.8277C60.596 55.3627 60.2085 55.0527 59.821 55.0527ZM59.046 61.0977H54.551V56.6027H59.046V61.0977Z" fill="#FF9665"/>
<path d="M73.0739 55.0527H67.0289C66.5639 55.0527 66.2539 55.3627 66.2539 55.8277V61.8727C66.2539 62.3377 66.5639 62.6477 67.0289 62.6477H73.0739C73.5389 62.6477 73.8489 62.3377 73.8489 61.8727V55.8277C73.8489 55.3627 73.5389 55.0527 73.0739 55.0527ZM72.2989 61.0977H67.8039V56.6027H72.2989V61.0977Z" fill="#FF9665"/>
<path d="M33.2389 64.6641H27.1939C26.7289 64.6641 26.4189 64.9741 26.4189 65.4391V71.4841C26.4189 71.9491 26.7289 72.2591 27.1939 72.2591H33.2389C33.7039 72.2591 34.0139 71.9491 34.0139 71.4841V65.4391C34.0139 64.9741 33.7039 64.6641 33.2389 64.6641ZM32.4639 70.7091H27.9689V66.2141H32.4639V70.7091Z" fill="#FF9665"/>
<path d="M46.4909 64.6641H40.4459C39.9809 64.6641 39.6709 64.9741 39.6709 65.4391V71.4841C39.6709 71.9491 39.9809 72.2591 40.4459 72.2591H46.4909C46.9559 72.2591 47.2659 71.9491 47.2659 71.4841V65.4391C47.2659 64.9741 46.9559 64.6641 46.4909 64.6641ZM45.7159 70.7091H41.2209V66.2141H45.7159V70.7091Z" fill="#FF9665"/>
<path d="M59.821 64.6641H53.776C53.311 64.6641 53.001 64.9741 53.001 65.4391V71.4841C53.001 71.9491 53.311 72.2591 53.776 72.2591H59.821C60.286 72.2591 60.596 71.9491 60.596 71.4841V65.4391C60.596 64.9741 60.2085 64.6641 59.821 64.6641ZM59.046 70.7091H54.551V66.2141H59.046V70.7091Z" fill="#FF9665"/>
<path d="M73.0739 64.6641H67.0289C66.5639 64.6641 66.2539 64.9741 66.2539 65.4391V71.4841C66.2539 71.9491 66.5639 72.2591 67.0289 72.2591H73.0739C73.5389 72.2591 73.8489 71.9491 73.8489 71.4841V65.4391C73.8489 64.9741 73.5389 64.6641 73.0739 64.6641ZM72.2989 70.7091H67.8039V66.2141H72.2989V70.7091Z" fill="#FF9665"/>
</svg>
