<svg width="101" height="101" viewBox="0 0 101 101" fill="none" xmlns="http://www.w3.org/2000/svg">
<path d="M36.736 72.3077C37.131 72.6327 37.527 72.9397 37.942 73.2377L37.042 74.4977C36.595 74.1787 36.169 73.8477 35.742 73.4977L36.736 72.3077ZM41.32 76.8927C41.828 77.1017 42.329 77.2997 42.851 77.4747L43.344 76.0077C42.859 75.8427 42.396 75.6617 41.922 75.4667L41.32 76.8927ZM34.12 72.0067C34.2533 72.14 34.389 72.2733 34.527 72.4067L35.599 71.2907L35.221 70.9177L34.12 72.0067ZM38.407 75.3997C38.8687 75.6911 39.3454 75.9581 39.835 76.1997L40.542 74.8227C40.0867 74.5969 39.6432 74.3482 39.213 74.0777L38.407 75.3997ZM30.607 48.7627L29.16 48.2127C28.967 48.7267 28.788 49.2297 28.627 49.7547L30.108 50.2067C30.251 49.7197 30.429 49.2397 30.61 48.7627H30.607ZM31.907 46.0217L30.566 45.2487C30.297 45.7297 30.043 46.2087 29.806 46.7087L31.206 47.3647C31.448 46.9107 31.661 46.4707 31.911 46.0217H31.907ZM44.42 77.9397C44.946 78.0787 45.482 78.1927 46.02 78.2907L46.294 76.7677C45.794 76.6757 45.294 76.5677 44.806 76.4407L44.42 77.9397ZM69.62 49.2117L69.637 49.2597L71.095 48.7387C70.956 48.3467 70.803 47.9617 70.643 47.5797L69.216 48.1797C69.362 48.4817 69.495 48.8927 69.616 49.2137L69.62 49.2117ZM69.948 46.0907C69.706 45.6057 69.429 45.1327 69.148 44.6667L67.826 45.4667C68.088 45.8907 68.349 46.3547 68.571 46.7997L69.948 46.0907ZM62.201 73.1757L63.112 74.4287C63.553 74.1077 63.983 73.7747 64.401 73.4287L63.401 72.2437C63.015 72.5667 62.614 72.8767 62.201 73.1757ZM64.535 71.2177L65.616 72.3267C66.006 71.9453 66.3827 71.5513 66.746 71.1447L65.589 70.1157C65.249 70.4967 64.901 70.8617 64.535 71.2177ZM59.612 74.7717L60.325 76.1457C60.812 75.8837 61.277 75.6267 61.75 75.3377L60.936 74.0217C60.497 74.2907 60.064 74.5287 59.612 74.7717ZM50.843 77.0877L50.907 78.6347C51.449 78.6137 51.998 78.5747 52.537 78.5127L52.364 76.9737C51.859 77.0307 51.35 77.0687 50.843 77.0877ZM47.643 78.5257C48.191 78.5787 48.724 78.6197 49.275 78.6387L49.325 77.0917C48.811 77.0707 48.318 77.0357 47.805 76.9857L47.643 78.5257ZM53.875 76.7497L54.162 78.2707C54.701 78.1781 55.2351 78.0583 55.762 77.9117L55.362 76.4117C54.867 76.5467 54.366 76.6587 53.87 76.7497H53.875ZM56.818 75.9737L57.326 77.4357C57.837 77.2617 58.357 77.0617 58.853 76.8457L58.229 75.4247C57.776 75.6267 57.286 75.8127 56.813 75.9737H56.818ZM76.558 67.9397C76.5581 68.0414 76.5382 68.1422 76.4994 68.2362C76.4605 68.3302 76.4035 68.4156 76.3317 68.4876C76.2598 68.5596 76.1744 68.6167 76.0804 68.6557C75.9865 68.6946 75.8857 68.7147 75.784 68.7147H61.709C61.5971 68.7137 61.4869 68.6881 61.386 68.6397C61.2855 68.6882 61.1756 68.7138 61.064 68.7147H38.996C38.8844 68.7138 38.7745 68.6882 38.674 68.6397C38.5731 68.6881 38.4629 68.7137 38.351 68.7147H24.274C24.1723 68.7147 24.0715 68.6946 23.9776 68.6557C23.8836 68.6167 23.7982 68.5596 23.7263 68.4876C23.6545 68.4156 23.5975 68.3302 23.5586 68.2362C23.5198 68.1422 23.4999 68.0414 23.5 67.9397C23.5025 66.3723 23.976 64.8419 24.859 63.547C25.742 62.252 26.9938 61.2524 28.452 60.6777C27.6745 60.0803 27.1036 59.2544 26.8194 58.3159C26.5353 57.3775 26.5521 56.3736 26.8676 55.4453C27.1831 54.5169 27.7814 53.7106 28.5785 53.1396C29.3756 52.5686 30.3315 52.2616 31.312 52.2616C32.2925 52.2616 33.2484 52.5686 34.0455 53.1396C34.8426 53.7106 35.4409 54.5169 35.7564 55.4453C36.0719 56.3736 36.0887 57.3775 35.8046 58.3159C35.5204 59.2544 34.9495 60.0803 34.172 60.6777C35.1705 61.0734 36.077 61.6698 36.8356 62.4301C37.5942 63.1904 38.1886 64.0983 38.582 65.0977C39.071 63.1393 40.0524 61.3385 41.4329 59.8659C42.8134 58.3933 44.5473 57.2979 46.47 56.6837C45.5997 56.1597 44.8554 55.4506 44.29 54.6067C43.7245 53.7628 43.3517 52.8048 43.198 51.8007L40.403 53.2247C40.2571 53.2991 40.0914 53.3254 39.9297 53.2997C39.768 53.274 39.6186 53.1976 39.503 53.0817L36.335 49.9127C36.219 49.7971 36.1427 49.6477 36.117 49.4859C36.0913 49.3242 36.1176 49.1585 36.192 49.0127L37.792 45.8667C37.3826 45.0971 37.0477 44.2901 36.792 43.4567L33.439 42.3687C33.2836 42.3181 33.1482 42.2196 33.0521 42.0875C32.956 41.9553 32.9042 41.7961 32.904 41.6327V37.1497C32.9042 36.9863 32.956 36.8271 33.0521 36.6949C33.1482 36.5627 33.2836 36.4643 33.439 36.4137L36.798 35.3217C37.0539 34.489 37.3888 33.6827 37.798 32.9137L36.198 29.7647C36.1233 29.6189 36.0968 29.4531 36.1225 29.2913C36.1482 29.1295 36.2248 28.9801 36.341 28.8647L39.509 25.6947C39.6247 25.5788 39.7741 25.5026 39.9358 25.4769C40.0974 25.4512 40.2631 25.4774 40.409 25.5517L43.557 27.1567C44.3271 26.7482 45.134 26.4134 45.967 26.1567L47.057 22.7977C47.108 22.6424 47.2067 22.5072 47.339 22.4113C47.4713 22.3154 47.6306 22.2637 47.794 22.2637H52.277C52.4404 22.2637 52.5997 22.3154 52.732 22.4113C52.8643 22.5072 52.963 22.6424 53.014 22.7977L54.104 26.1567C54.9368 26.4132 55.7434 26.748 56.513 27.1567L59.661 25.5517C59.8071 25.4782 59.9726 25.4524 60.1341 25.4781C60.2956 25.5037 60.4449 25.5795 60.561 25.6947L63.729 28.8647C63.8452 28.9801 63.9218 29.1295 63.9475 29.2913C63.9732 29.4531 63.9467 29.6189 63.872 29.7647L62.272 32.9127C62.6814 33.682 63.0162 34.4886 63.272 35.3217L66.631 36.4137C66.7864 36.4643 66.9218 36.5627 67.0179 36.6949C67.114 36.8271 67.1658 36.9863 67.166 37.1497V41.6327C67.1657 41.7961 67.1138 41.9552 67.0177 42.0873C66.9216 42.2195 66.7863 42.3179 66.631 42.3687L63.272 43.4607C63.0155 44.2931 62.6807 45.0994 62.272 45.8687L63.872 49.0167C63.9464 49.1625 63.9727 49.3282 63.947 49.4899C63.9213 49.6517 63.845 49.8011 63.729 49.9167L60.561 53.0857C60.4894 53.1579 60.4042 53.2153 60.3103 53.2544C60.2164 53.2935 60.1157 53.3137 60.014 53.3137C59.8916 53.3133 59.771 53.2842 59.662 53.2287L56.868 51.8047C56.7144 52.8087 56.3417 53.7666 55.7764 54.6105C55.2111 55.4544 54.467 56.1635 53.597 56.6877C55.5197 57.3019 57.2536 58.3973 58.6341 59.8699C60.0146 61.3425 60.996 63.1433 61.485 65.1017C61.8784 64.1027 62.4725 63.1951 63.2307 62.435C63.9889 61.6749 64.895 61.0785 65.893 60.6827C65.1158 60.0853 64.5452 59.2596 64.2612 58.3214C63.9773 57.3831 63.9942 56.3796 64.3097 55.4515C64.6252 54.5234 65.2233 53.7174 66.0202 53.1466C66.8171 52.5758 67.7728 52.2688 68.753 52.2688C69.7332 52.2688 70.6889 52.5758 71.4858 53.1466C72.2827 53.7174 72.8808 54.5234 73.1963 55.4515C73.5118 56.3796 73.5287 57.3831 73.2448 58.3214C72.9608 59.2596 72.3902 60.0853 71.613 60.6827C73.0691 61.2582 74.3189 62.2575 75.2005 63.5514C76.0822 64.8452 76.5551 66.374 76.558 67.9397ZM68.747 60.1277C69.3688 60.1275 69.9765 59.9429 70.4934 59.5973C71.0103 59.2517 71.4132 58.7606 71.651 58.1861C71.8888 57.6116 71.9509 56.9795 71.8295 56.3697C71.708 55.7599 71.4085 55.1998 70.9688 54.7602C70.5291 54.3206 69.9688 54.0212 69.359 53.9C68.7491 53.7788 68.117 53.8411 67.5426 54.0791C66.9682 54.3171 66.4772 54.7201 66.1318 55.2371C65.7864 55.7541 65.602 56.3619 65.602 56.9837C65.6017 57.8181 65.9329 58.6185 66.5227 59.2089C67.1124 59.7992 67.9125 60.1311 68.747 60.1317V60.1277ZM50.029 43.8507C50.9976 43.8516 51.9551 44.0564 52.8393 44.4518C53.7235 44.8472 54.5146 45.4244 55.161 46.1457C56.5804 45.0706 57.6264 43.577 58.1513 41.8755C58.6762 40.1741 58.6535 38.3507 58.0864 36.6629C57.5194 34.975 56.4366 33.5078 54.9909 32.4684C53.5452 31.429 51.8096 30.8698 50.029 30.8698C48.2484 30.8698 46.5128 31.429 45.0671 32.4684C43.6214 33.5078 42.5386 34.975 41.9715 36.6629C41.4045 38.3507 41.3818 40.1741 41.9067 41.8755C42.4316 43.577 43.4776 45.0706 44.897 46.1457C45.5434 45.4244 46.3345 44.8472 47.2187 44.4518C48.1029 44.0564 49.0604 43.8516 50.029 43.8507ZM43.145 50.0937C43.2376 49.1462 43.5264 48.2284 43.993 47.3987C42.3083 46.1324 41.0644 44.3683 40.4376 42.356C39.8108 40.3438 39.8327 38.1855 40.5002 36.1864C41.1677 34.1873 42.4471 32.4488 44.1571 31.2169C45.8672 29.985 47.9214 29.3222 50.029 29.3222C52.1366 29.3222 54.1908 29.985 55.9009 31.2169C57.611 32.4488 58.8903 34.1873 59.5578 36.1864C60.2253 38.1855 60.2472 40.3438 59.6204 42.356C58.9936 44.3683 57.7497 46.1324 56.065 47.3987C56.5309 48.2283 56.8193 49.1457 56.912 50.0927L59.856 51.5927L62.229 49.2177L60.695 46.2067C60.6369 46.0923 60.608 45.9653 60.6109 45.837C60.6139 45.7088 60.6486 45.5832 60.712 45.4717C61.2188 44.5825 61.6125 43.6335 61.884 42.6467C61.9178 42.523 61.9818 42.4097 62.0703 42.317C62.1589 42.2243 62.2691 42.1551 62.391 42.1157L65.604 41.0697V37.7117L62.391 36.6687C62.2691 36.6288 62.159 36.5593 62.0705 36.4665C61.9821 36.3737 61.918 36.2603 61.884 36.1367C61.6129 35.1493 61.2195 34.1996 60.713 33.3097C60.6492 33.1983 60.6142 33.0728 60.611 32.9444C60.6079 32.8161 60.6367 32.689 60.695 32.5747L62.229 29.5637L59.854 27.1887L56.842 28.7237C56.7278 28.7823 56.6007 28.8115 56.4723 28.8086C56.344 28.8056 56.2184 28.7706 56.107 28.7067C55.2185 28.2011 54.2701 27.809 53.284 27.5397C53.1604 27.5057 53.0472 27.4416 52.9546 27.3531C52.8619 27.2646 52.7926 27.1545 52.753 27.0327L51.709 23.8147H48.35L47.306 27.0277C47.2665 27.1496 47.1973 27.2598 47.1046 27.3483C47.0119 27.4368 46.8986 27.5009 46.775 27.5347C45.7877 27.8057 44.8383 28.1994 43.949 28.7067C43.8375 28.7703 43.712 28.8052 43.5836 28.8081C43.4553 28.8111 43.3283 28.7821 43.214 28.7237L40.202 27.1887L37.829 29.5637L39.364 32.5757C39.4222 32.69 39.4512 32.817 39.4482 32.9453C39.4452 33.0736 39.4105 33.1991 39.347 33.3107C38.8386 34.2006 38.4445 35.1511 38.174 36.1397C38.1399 36.2636 38.0757 36.3771 37.987 36.4701C37.8984 36.5631 37.7881 36.6327 37.666 36.6727L34.453 37.7157V41.0697L37.665 42.1157C37.7869 42.1551 37.8971 42.2243 37.9857 42.317C38.0742 42.4097 38.1382 42.523 38.172 42.6467C38.4428 43.6342 38.8362 44.5839 39.343 45.4737C39.4068 45.5852 39.4418 45.7109 39.445 45.8394C39.4481 45.9679 39.4193 46.0951 39.361 46.2097L37.829 49.2177L40.203 51.5927L43.145 50.0937ZM50.029 56.1397C51.0909 56.1397 52.129 55.8248 53.012 55.2348C53.8949 54.6448 54.5831 53.8062 54.9894 52.8251C55.3957 51.844 55.502 50.7644 55.2948 49.7229C55.0875 48.6814 54.5761 47.7247 53.8251 46.9739C53.0741 46.223 52.1174 45.7118 51.0758 45.5047C50.0343 45.2977 48.9547 45.4041 47.9737 45.8106C46.9926 46.2172 46.1542 46.9055 45.5644 47.7885C44.9745 48.6716 44.6598 49.7097 44.66 50.7717C44.6616 52.195 45.2278 53.5596 46.2344 54.566C47.2409 55.5724 48.6056 56.1383 50.029 56.1397ZM31.311 60.1397C31.9329 60.1399 32.5408 59.9556 33.058 59.6103C33.5751 59.2649 33.9783 58.774 34.2164 58.1995C34.4545 57.625 34.5169 56.9929 34.3957 56.3829C34.2745 55.773 33.9752 55.2127 33.5355 54.7729C33.0958 54.3331 32.5356 54.0335 31.9257 53.9122C31.3158 53.7908 30.6836 53.853 30.1091 54.0909C29.5345 54.3288 29.0434 54.7318 28.6979 55.2489C28.3524 55.7659 28.168 56.3738 28.168 56.9957C28.1709 57.8279 28.5033 58.6251 29.0926 59.2128C29.6818 59.8005 30.4798 60.1309 31.312 60.1317L31.311 60.1397ZM37.529 67.1697C37.3394 65.6544 36.6029 64.2605 35.458 63.25C34.3131 62.2394 32.8386 61.6818 31.3115 61.6818C29.7844 61.6818 28.3099 62.2394 27.165 63.25C26.0201 64.2605 25.2836 65.6544 25.094 67.1697H37.529ZM60.26 67.1697C60.0656 64.5893 58.9033 62.1777 57.0061 60.418C55.1088 58.6583 52.6167 57.6805 50.029 57.6805C47.4413 57.6805 44.9492 58.6583 43.0519 60.418C41.1547 62.1777 39.9924 64.5893 39.798 67.1697H60.26ZM74.96 67.1697C74.7686 65.6563 74.0316 64.2647 72.8873 63.256C71.743 62.2472 70.27 61.6907 68.7445 61.6907C67.219 61.6907 65.746 62.2472 64.6017 63.256C63.4574 64.2647 62.7204 65.6563 62.529 67.1697H74.96Z" fill="#FF9665"/>
</svg>
