<svg width="101" height="101" viewBox="0 0 101 101" fill="none" xmlns="http://www.w3.org/2000/svg">
<path d="M67.0029 75.7031H34.2529C33.8429 75.7031 33.5029 75.3631 33.5029 74.9531C33.5029 74.5431 33.8429 74.2031 34.2529 74.2031H67.0029C67.4129 74.2031 67.7529 74.5431 67.7529 74.9531C67.7529 75.3631 67.4129 75.7031 67.0029 75.7031Z" fill="#FF9665"/>
<path d="M67.0029 70.2637H34.2529C33.8429 70.2637 33.5029 69.9237 33.5029 69.5137C33.5029 69.1037 33.8429 68.7637 34.2529 68.7637H67.0029C67.4129 68.7637 67.7529 69.1037 67.7529 69.5137C67.7529 69.9237 67.4129 70.2637 67.0029 70.2637Z" fill="#FF9665"/>
<path d="M72.8938 66.9637C72.4938 66.9637 72.1738 67.2837 72.1738 67.6837V78.4937C72.1738 79.7737 71.1338 80.8137 69.8538 80.8137H31.4038C30.1238 80.8137 29.0838 79.7737 29.0838 78.4937V29.8337C29.0838 28.5537 30.1238 27.5137 31.4038 27.5137H45.2438V30.7537H41.9738C41.5738 30.7537 41.2538 31.0737 41.2538 31.4737C41.2538 31.8737 41.5738 32.1937 41.9738 32.1937H59.3038C59.7038 32.1937 60.0238 31.8737 60.0238 31.4737C60.0238 31.0737 59.7038 30.7537 59.3038 30.7537H56.0238V27.5137H69.8638C71.1438 27.5137 72.1838 28.5537 72.1838 29.8337V39.6937C72.1838 40.0937 72.5038 40.4137 72.9038 40.4137C73.3038 40.4137 73.6238 40.0937 73.6238 39.6937V29.8337C73.6238 27.7537 71.9338 26.0637 69.8538 26.0637H56.0138V23.6537C56.0138 20.6837 53.6038 18.2637 50.6238 18.2637C47.6438 18.2637 45.2338 20.6837 45.2338 23.6537V26.0737H31.4038C29.3238 26.0737 27.6338 27.7637 27.6338 29.8437V78.5037C27.6338 80.5737 29.3238 82.2637 31.4038 82.2637H69.8538C71.9338 82.2637 73.6238 80.5737 73.6238 78.4937V67.6937C73.6238 67.2937 73.2938 66.9637 72.8938 66.9637ZM46.6938 23.6537C46.6938 21.4837 48.4638 19.7137 50.6338 19.7137C52.8038 19.7137 54.5738 21.4837 54.5738 23.6537V30.7637H46.6938V23.6537Z" fill="#FF9665"/>
<path d="M61.2732 56.7646V38.8646C61.2732 37.6846 60.3132 36.7246 59.1332 36.7246H42.1332C40.9532 36.7246 39.9932 37.6846 39.9932 38.8646V56.7646C39.9932 57.9446 40.9532 58.9046 42.1332 58.9046H59.1332C60.3132 58.9146 61.2732 57.9446 61.2732 56.7646ZM41.4332 56.7646V38.8646C41.4332 38.4846 41.7432 38.1746 42.1232 38.1746H59.1232C59.5032 38.1746 59.8132 38.4846 59.8132 38.8646V56.7646C59.8132 57.1446 59.5032 57.4546 59.1232 57.4546H58.6532C58.3732 54.2746 56.2332 51.6346 53.3332 50.5946C54.3332 49.7946 54.9932 48.5746 54.9932 47.1946C54.9932 44.7846 53.0332 42.8246 50.6232 42.8246C48.2232 42.8246 46.2632 44.7846 46.2632 47.1946C46.2632 48.5746 46.9132 49.7946 47.9132 50.5946C45.0132 51.6346 42.8832 54.2746 42.5932 57.4546H42.1232C41.7432 57.4646 41.4332 57.1546 41.4332 56.7646ZM44.0532 57.4646C44.4132 54.1546 47.2232 51.5746 50.6232 51.5746C54.0232 51.5746 56.8332 54.1546 57.1932 57.4646H44.0532ZM47.7132 47.2046C47.7132 45.5946 49.0132 44.2846 50.6232 44.2846C52.2332 44.2846 53.5432 45.5946 53.5432 47.2046C53.5432 48.8146 52.2332 50.1246 50.6232 50.1246C49.0132 50.1246 47.7132 48.8146 47.7132 47.2046Z" fill="#FF9665"/>
<path d="M44.2542 63.1035C43.8542 63.1035 43.5342 63.4235 43.5342 63.8235C43.5342 64.2235 43.8542 64.5435 44.2542 64.5435H57.0042C57.4042 64.5435 57.7242 64.2235 57.7242 63.8235C57.7242 63.4235 57.4042 63.1035 57.0042 63.1035H44.2542Z" fill="#FF9665"/>
<path d="M50.1939 24.3638H51.0739C51.4739 24.3638 51.7939 24.0438 51.7939 23.6438C51.7939 23.2438 51.4739 22.9238 51.0739 22.9238H50.1939C49.7939 22.9238 49.4739 23.2438 49.4739 23.6438C49.4639 24.0438 49.7939 24.3638 50.1939 24.3638Z" fill="#FF9665"/>
<path d="M75.8632 42.3242C69.7332 42.3242 64.7432 47.3142 64.7432 53.4442C64.7432 59.5742 69.7332 64.5642 75.8632 64.5642C81.9832 64.5642 86.9732 59.5742 86.9732 53.4442C86.9732 47.3142 81.9932 42.3242 75.8632 42.3242ZM75.8632 63.1042C70.5332 63.1042 66.1932 58.7642 66.1932 53.4342C66.1932 48.1042 70.5332 43.7642 75.8632 43.7642C81.1832 43.7642 85.5232 48.1042 85.5232 53.4342C85.5232 58.7642 81.1932 63.1042 75.8632 63.1042Z" fill="#FF9665"/>
<path d="M75.8636 45.2129C71.3336 45.2129 67.6436 48.9029 67.6436 53.4329C67.6436 57.9629 71.3336 61.6529 75.8636 61.6529C80.3936 61.6529 84.0736 57.9629 84.0736 53.4329C84.0736 48.9029 80.3936 45.2129 75.8636 45.2129ZM75.8636 60.2029C72.1336 60.2029 69.0936 57.1629 69.0936 53.4329C69.0936 49.7029 72.1336 46.6629 75.8636 46.6629C79.5936 46.6629 82.6236 49.7029 82.6236 53.4329C82.6236 57.1629 79.5936 60.2029 75.8636 60.2029Z" fill="#FF9665"/>
<path d="M78.7934 50.9235L74.4134 54.3435L73.0034 52.5535C72.7534 52.2435 72.3034 52.1835 71.9834 52.4335C71.6734 52.6835 71.6134 53.1335 71.8634 53.4535L73.7234 55.8135C73.8634 55.9935 74.0734 56.0935 74.2934 56.0935C74.4534 56.0935 74.6034 56.0435 74.7434 55.9435L79.6934 52.0835C80.0034 51.8335 80.0634 51.3835 79.8134 51.0635C79.5634 50.7335 79.1134 50.6735 78.7934 50.9235Z" fill="#FF9665"/>
</svg>
