<svg width="101" height="101" viewBox="0 0 101 101" fill="none" xmlns="http://www.w3.org/2000/svg">
<path d="M67.9041 31.7483H62.6598C62.662 31.6823 62.6657 31.6164 62.6657 31.5504C62.6657 28.7041 60.3505 26.389 57.5042 26.389C54.6578 26.389 52.3427 28.7041 52.3427 31.5504C52.3427 31.6164 52.3463 31.6823 52.3485 31.7483H30.5172C29.5296 31.7483 28.646 32.2589 28.1522 33.1139C27.6584 33.9689 27.6584 34.9902 28.1522 35.8452L43.2117 61.9289V68.785C43.2117 69.0883 43.3736 69.3689 43.6367 69.5205L53.9362 75.4667C54.0673 75.5429 54.2139 75.5802 54.3611 75.5802C54.5084 75.5802 54.6542 75.5421 54.7861 75.4667C55.0491 75.315 55.211 75.0344 55.211 74.7311V61.9281L70.2705 35.8445C70.7643 34.9895 70.7643 33.9682 70.2705 33.1132C69.7767 32.2582 68.8924 31.7475 67.9055 31.7475L67.9041 31.7483ZM54.041 31.5504C54.041 29.6412 55.5942 28.088 57.5034 28.088C59.4127 28.088 60.9659 29.6412 60.9659 31.5504C60.9659 31.6164 60.9637 31.6823 60.9601 31.7483H54.0468C54.0432 31.6823 54.041 31.6164 54.041 31.5504ZM53.6241 61.2761C53.5494 61.405 53.5105 61.5515 53.5105 61.701V73.26L44.91 68.2941V61.7003C44.91 61.5515 44.8704 61.405 44.7964 61.2753L33.2998 41.3628H65.1208L53.6241 61.2761ZM68.7979 34.9946L66.1018 39.6645H32.3188L29.6226 34.9946C29.4277 34.6569 29.4277 34.3001 29.6226 33.9623C29.8175 33.6246 30.1267 33.4458 30.5164 33.4458H67.9033C68.2931 33.4458 68.6023 33.6246 68.7972 33.9623C68.9921 34.3001 68.9928 34.6569 68.7979 34.9946ZM42.9443 29.7752C45.3591 29.7752 47.3241 27.8103 47.3241 25.3955C47.3241 22.9807 45.3591 21.0157 42.9443 21.0157C40.5295 21.0157 38.5646 22.9807 38.5646 25.3955C38.5646 27.8103 40.5295 29.7752 42.9443 29.7752ZM42.9443 22.714C44.4228 22.714 45.6258 23.917 45.6258 25.3955C45.6258 26.874 44.4228 28.077 42.9443 28.077C41.4658 28.077 40.2628 26.874 40.2628 25.3955C40.2628 23.917 41.4658 22.714 42.9443 22.714ZM52.3676 21.2824C54.3025 21.2824 55.877 19.708 55.877 17.773C55.877 15.8381 54.3025 14.2637 52.3676 14.2637C50.4327 14.2637 48.8582 15.8381 48.8582 17.773C48.8582 19.708 50.4327 21.2824 52.3676 21.2824ZM52.3676 15.9619C53.3662 15.9619 54.1787 16.7744 54.1787 17.773C54.1787 18.7716 53.3662 19.5841 52.3676 19.5841C51.369 19.5841 50.5565 18.7716 50.5565 17.773C50.5565 16.7744 51.369 15.9619 52.3676 15.9619ZM49.2106 75.0066C46.3643 75.0066 44.0491 77.3217 44.0491 80.1681C44.0491 83.0144 46.3643 85.3296 49.2106 85.3296C52.057 85.3296 54.3721 83.0137 54.3721 80.1681C54.3721 77.3225 52.057 75.0066 49.2106 75.0066ZM49.2106 83.6313C47.3014 83.6313 45.7481 82.0781 45.7481 80.1681C45.7481 78.2581 47.3014 76.7056 49.2106 76.7056C51.1199 76.7056 52.6731 78.2588 52.6731 80.1681C52.6731 82.0773 51.1199 83.6313 49.2106 83.6313ZM79.9165 26.8205C78.334 26.5707 77.1024 25.3391 76.8526 23.7566C76.7874 23.3433 76.4313 23.0393 76.0137 23.0393H75.9024C75.484 23.0393 75.1287 23.3433 75.0635 23.7566C74.8137 25.3391 73.5821 26.5707 71.9996 26.8205C71.5864 26.8857 71.2823 27.2418 71.2823 27.6594V27.7707C71.2823 28.1891 71.5864 28.5444 71.9996 28.6096C73.5821 28.8594 74.8137 30.091 75.0635 31.6735C75.1287 32.0867 75.4848 32.3908 75.9024 32.3908H76.0137C76.4321 32.3908 76.7874 32.0867 76.8526 31.6735C77.1024 30.091 78.334 28.8594 79.9165 28.6096C80.3297 28.5444 80.6338 28.1883 80.6338 27.7707V27.6594C80.6338 27.241 80.3297 26.8857 79.9165 26.8205ZM75.958 29.3408C75.5397 28.688 74.9851 28.1327 74.3323 27.715C74.9858 27.2967 75.5404 26.7421 75.958 26.0893C76.3757 26.7421 76.931 27.2974 77.5838 27.715C76.931 28.1334 76.3757 28.688 75.958 29.3408ZM31.1311 52.6785C29.0739 52.3539 27.4738 50.7531 27.1492 48.6958C27.084 48.2833 26.7279 47.9785 26.3103 47.9785H26.1719C25.7535 47.9785 25.3982 48.2826 25.333 48.6958C25.0084 50.7531 23.4076 52.3532 21.351 52.6785C20.9378 52.7437 20.6338 53.0997 20.6338 53.5174V53.6558C20.6338 54.0734 20.9378 54.4295 21.351 54.4947C23.4083 54.8193 25.0084 56.4201 25.333 58.4766C25.3982 58.8891 25.7542 59.1939 26.1719 59.1939H26.3103C26.7287 59.1939 27.084 58.8898 27.1492 58.4766C27.4738 56.4194 29.0746 54.8193 31.1311 54.4947C31.5443 54.4295 31.8484 54.0734 31.8484 53.6558V53.5174C31.8484 53.0997 31.5443 52.7437 31.1311 52.6785ZM26.2407 56.0091C25.6663 54.9988 24.8289 54.1614 23.8186 53.587C24.8289 53.0126 25.6663 52.1751 26.2407 51.1648C26.8151 52.1751 27.6525 53.0126 28.6629 53.587C27.6525 54.1614 26.8151 54.9988 26.2407 56.0091Z" fill="#FF9665"/>
</svg>
