<svg width="101" height="101" viewBox="0 0 101 101" fill="none" xmlns="http://www.w3.org/2000/svg">
<path d="M26.5 82.877H67.167L74.5 75.544V18.877H26.5V82.877ZM67.379 80.685V75.756H72.308L67.379 80.685ZM27.9 20.277H73.1V74.356H65.979V81.477H27.9V20.277Z" fill="#FF9665"/>
<path d="M38.2725 41.8828H36.2725V45.7838H38.2725V41.8828Z" fill="#FF9665"/>
<path d="M44.8867 32.8223H42.8867V45.7833H44.8867V32.8223Z" fill="#FF9665"/>
<path d="M51.5 26.2363H49.5V45.7823H51.5V26.2363Z" fill="#FF9665"/>
<path d="M58.1133 32.4102H56.1133V45.7842H58.1133V32.4102Z" fill="#FF9665"/>
<path d="M64.7275 38.7051H62.7275V45.7841H64.7275V38.7051Z" fill="#FF9665"/>
<path d="M36.8953 59.4415L34.9913 57.5896L33.7363 58.9515L37.0423 62.1665L42.8193 55.1465L41.4253 53.9355L36.8953 59.4415Z" fill="#FF9665"/>
<path d="M36.8953 70.1495L34.9913 68.2975L33.7363 69.6605L37.0423 72.8755L42.8193 65.8555L41.4253 64.6445L36.8953 70.1495Z" fill="#FF9665"/>
<path d="M67.264 55.5898H46.376V56.9898H67.264V55.5898Z" fill="#FF9665"/>
<path d="M67.264 59.0977H46.376V60.4977H67.264V59.0977Z" fill="#FF9665"/>
<path d="M67.264 66.2988H46.376V67.6988H67.264V66.2988Z" fill="#FF9665"/>
<path d="M67.264 69.8066H46.376V71.2066H67.264V69.8066Z" fill="#FF9665"/>
</svg>
