<svg width="49" height="48" viewBox="0 0 49 48" fill="none" xmlns="http://www.w3.org/2000/svg">
<path d="M4.33301 8.7336C4.33301 6.08263 6.48204 3.93359 9.13301 3.93359H39.533C42.184 3.93359 44.333 6.08263 44.333 8.73359V39.2674C44.333 41.9183 42.184 44.0674 39.533 44.0674H9.13301C6.48204 44.0674 4.33301 41.9183 4.33301 39.2674V8.7336Z" fill="#FF4F00"/>
<path d="M10.3608 36.4216L10.3549 36.4032L13.961 33.1013V31.5107H8.17521V33.1013H11.6313L11.6371 33.1164L8.06543 36.4216V38.0122H14.0197V36.4216H10.3608Z" fill="#FFFDF9"/>
<path d="M17.5705 31.3592C16.9035 31.3592 16.3596 31.4598 15.9389 31.6609C15.5475 31.8361 15.2173 32.1252 14.9919 32.4906C14.7765 32.8585 14.6408 33.2674 14.5947 33.6906L16.3504 33.937C16.414 33.5633 16.5406 33.2976 16.7317 33.1417C16.9479 32.9783 17.2152 32.8962 17.4859 32.9079C17.8421 32.9079 18.101 33.0035 18.2611 33.1937C18.4203 33.3839 18.5016 33.6479 18.5016 33.9957V34.1692H16.8138C15.9548 34.1692 15.3372 34.3594 14.9617 34.7407C14.5863 35.122 14.3994 35.6248 14.3994 36.25C14.3994 36.8903 14.5871 37.3663 14.9617 37.6788C15.3363 37.9914 15.8073 38.1465 16.3755 38.1448C17.0803 38.1448 17.6217 37.9026 18.0004 37.4182C18.2242 37.1207 18.3843 36.7796 18.4697 36.4168H18.5334L18.7756 38.0074H20.3662V33.9789C20.3662 33.1468 20.1466 32.5015 19.7084 32.0439C19.2692 31.5863 18.5569 31.3584 17.5705 31.3584M18.127 36.3246C17.8747 36.5349 17.5437 36.6397 17.1322 36.6397C16.7928 36.6397 16.5573 36.5802 16.4258 36.4612C16.3612 36.405 16.3101 36.3355 16.2758 36.2575C16.2414 36.1796 16.2246 36.0941 16.2263 36.0095C16.223 35.929 16.2355 35.8486 16.264 35.7732C16.2925 35.6977 16.3361 35.629 16.3914 35.5704C16.4518 35.5134 16.523 35.4698 16.6009 35.4413C16.6789 35.4128 16.7618 35.4011 16.844 35.4053H18.5041V35.515C18.5075 35.6701 18.4748 35.8234 18.4102 35.9634C18.3457 36.1033 18.2485 36.2274 18.127 36.3246Z" fill="#FFFDF9"/>
<path d="M29.9871 31.5107H28.1074V38.013H29.9871V31.5107Z" fill="#FFFDF9"/>
<path d="M41.0841 31.5106C40.5528 31.5106 40.1346 31.6983 39.8287 32.0729C39.6091 32.3419 39.4424 32.74 39.3276 33.2663H39.2723L39.0267 31.5106H37.4219V38.0121H39.3016V34.6775C39.3016 34.2568 39.3996 33.935 39.5966 33.7104C39.7935 33.4858 40.1564 33.3744 40.686 33.3744H41.3992V31.5098H41.0841V31.5106Z" fill="#FFFDF9"/>
<path d="M35.5559 31.7226C35.1177 31.4611 34.5637 31.3312 33.8958 31.332C32.8441 31.332 32.0211 31.6312 31.427 32.2304C30.832 32.8296 30.5353 33.6551 30.5353 34.7076C30.5202 35.3437 30.6593 35.9739 30.9401 36.5454C31.1973 37.0541 31.5979 37.4765 32.0924 37.7597C32.5901 38.0472 33.1826 38.1913 33.869 38.1922C34.4623 38.1922 34.9584 38.1008 35.3573 37.9181C35.7319 37.7539 36.0579 37.4966 36.3043 37.1706C36.539 36.8505 36.7133 36.4901 36.8189 36.1071L35.1998 35.6538C35.1319 35.9027 35.0003 36.1298 34.8185 36.3125C34.6358 36.4952 34.3291 36.5873 33.8992 36.5873C33.388 36.5873 33.0066 36.4407 32.7561 36.1482C32.5742 35.937 32.4594 35.6345 32.4091 35.2431H36.8432C36.8616 35.0604 36.8708 34.9071 36.8708 34.7831V34.3783C36.8817 33.8344 36.7694 33.2947 36.5423 32.8011C36.3294 32.3511 35.9859 31.9756 35.5559 31.7242M33.8413 32.8832C34.6031 32.8832 35.0355 33.2587 35.1378 34.0087H32.4418C32.4846 33.7581 32.5885 33.5227 32.7435 33.3215C32.9907 33.0291 33.3561 32.8824 33.8413 32.8832Z" fill="#FFFDF9"/>
<path d="M29.0687 28.8903C28.9271 28.8853 28.7863 28.9096 28.6547 28.9599C28.5223 29.011 28.4025 29.0872 28.3002 29.1853C28.1997 29.2842 28.1209 29.4032 28.069 29.5347C28.017 29.6663 27.9927 29.8063 27.9977 29.9479C27.9927 30.0895 28.017 30.2311 28.069 30.3636C28.1209 30.496 28.1997 30.6158 28.3002 30.7164C28.4008 30.8169 28.5207 30.8949 28.6531 30.9477C28.7855 30.9996 28.9263 31.0239 29.0687 31.0189C29.2095 31.0239 29.3503 31.0005 29.4819 30.9485C29.6134 30.8965 29.7316 30.8178 29.8313 30.7172C29.9294 30.6158 30.0065 30.4951 30.0568 30.3636C30.1079 30.2311 30.1305 30.0904 30.1255 29.9496C30.1322 29.8088 30.1087 29.6688 30.0584 29.5381C30.0073 29.4074 29.9302 29.2875 29.8313 29.1886C29.7316 29.0889 29.6126 29.0118 29.4819 28.9607C29.3511 28.9096 29.2104 28.8869 29.0704 28.8936H29.0696L29.0687 28.8903Z" fill="#FFFDF9"/>
<path d="M25.1847 31.332C24.5445 31.332 24.0299 31.5332 23.6411 31.9354C23.3536 32.2329 23.1425 32.6779 23.0075 33.2687H22.948L22.7025 31.513H21.0977V39.8808H22.9774V36.434H23.0461C23.1031 36.6636 23.1835 36.8874 23.2866 37.101C23.4458 37.4488 23.7065 37.7405 24.0341 37.9374C24.3744 38.1226 24.7573 38.2156 25.1445 38.2047C25.9314 38.2047 26.5306 37.898 26.9421 37.2854C27.3536 36.6728 27.5597 35.8172 27.5597 34.7202C27.5597 33.6232 27.3603 32.8304 26.9622 32.2312C26.5641 31.632 25.9717 31.332 25.1856 31.332M25.3758 36.0435C25.1562 36.3611 24.8135 36.5195 24.3467 36.5195C24.154 36.5287 23.9629 36.491 23.7869 36.4113C23.6118 36.3309 23.4576 36.2102 23.3386 36.0594C23.0955 35.7535 22.974 35.3362 22.9749 34.8048V34.6808C22.9749 34.142 23.0964 33.7288 23.3386 33.4422C23.5807 33.1556 23.9168 33.014 24.3467 33.0173C24.8219 33.0173 25.1671 33.1682 25.3825 33.4699C25.5979 33.7715 25.7052 34.1922 25.7052 34.7319C25.7068 35.2901 25.5971 35.7275 25.3775 36.0426H25.3758V36.0435Z" fill="#FFFDF9"/>
</svg>
