<svg width="20" height="20" viewBox="0 0 20 20" fill="none" xmlns="http://www.w3.org/2000/svg">
<path d="M16.6673 6.66667H14.3257C13.9507 6.01667 13.434 5.45833 12.809 5.03333L14.1673 3.675L12.9923 2.5L11.184 4.30833C10.8007 4.21667 10.409 4.16667 10.0007 4.16667C9.59232 4.16667 9.20065 4.21667 8.82565 4.30833L7.00898 2.5L5.83398 3.675L7.18398 5.03333C6.56732 5.45833 6.05065 6.01667 5.67565 6.66667H3.33398V8.33333H5.07565C5.03398 8.60833 5.00065 8.88333 5.00065 9.16667V10H3.33398V11.6667H5.00065V12.5C5.00065 12.7833 5.03398 13.0583 5.07565 13.3333H3.33398V15H5.67565C6.54232 16.4917 8.15065 17.5 10.0007 17.5C11.8507 17.5 13.459 16.4917 14.3257 15H16.6673V13.3333H14.9257C14.9673 13.0583 15.0007 12.7833 15.0007 12.5V11.6667H16.6673V10H15.0007V9.16667C15.0007 8.88333 14.9673 8.60833 14.9257 8.33333H16.6673V6.66667ZM11.6673 13.3333H8.33398V11.6667H11.6673V13.3333ZM11.6673 10H8.33398V8.33333H11.6673V10Z" fill="#090C05"/>
</svg>
