<svg width="192" height="32" viewBox="0 0 192 32" fill="none" xmlns="http://www.w3.org/2000/svg">
<g clip-path="url(#clip0_1788_3194)">
<mask id="mask0_1788_3194" style="mask-type:luminance" maskUnits="userSpaceOnUse" x="0" y="0" width="192" height="32">
<path d="M191.223 0H0.735352V32H191.223V0Z"/>
</mask>
<g mask="url(#mask0_1788_3194)">
<mask id="mask1_1788_3194" style="mask-type:luminance" maskUnits="userSpaceOnUse" x="0" y="0" width="192" height="32">
<path d="M0.735352 0V32H191.223V0H0.735352Z"/>
</mask>
<g mask="url(#mask1_1788_3194)">
<path d="M186.749 0.265101L182.275 0.249975V5.05921L186.749 5.03533V31.7429H191.223V0.265101H186.749ZM176.725 7.91641C176.725 3.71619 174.75 0 170.097 0C166.365 0 163.383 3.09125 163.383 6.85441V9.32949H167.856V6.76047C167.856 5.30122 168.731 4.50433 170.051 4.50433C172.244 4.50433 172.244 6.40143 172.244 7.99443C172.244 9.71957 172.244 10.6017 171.456 12.1477L163.383 27.4877V31.7349H176.725V27.2226H168.653L175.234 14.4428C176.639 11.7568 176.725 10.9607 176.725 7.91641ZM134.623 14.3258H132.077V4.51229H134.404C137.699 4.51229 138.222 6.23744 138.222 9.42263C138.222 12.5537 137.746 14.3258 134.623 14.3258ZM142.703 9.50861C142.703 3.40412 140.111 0.265101 134.802 0.265101H127.604V31.7429H132.077V18.3071H134.755L138.925 31.7508H143.663L138.839 17.378C141.688 15.7851 142.703 13.1309 142.703 9.50861ZM107.361 31.7429H120.704V27.2306H111.842V17.995H119.564V13.7478H111.842V4.51229H120.704V0.265101H107.361V31.7429ZM92.3329 22.2414H92.2469L88.6948 0.265101H83.9564L90.3188 31.7429H94.269L100.678 0.265101H95.9401L92.3329 22.2414ZM64.8683 31.7429H78.2101V27.2306H69.3416V17.995H77.063V13.7478H69.3416V4.51229H78.203V0.265101H64.8683V31.7429ZM49.5673 14.3258H47.0221V4.51229H49.3484C52.6434 4.51229 53.1664 6.23744 53.1664 9.42263C53.1585 12.5537 52.6824 14.3258 49.5673 14.3258ZM57.6397 9.50861C57.6397 3.40412 55.0476 0.265101 49.7392 0.265101H42.5409V31.7429H47.0142V18.3071H49.6923L53.8606 31.7508H58.5998L53.7747 17.378C56.6327 15.7851 57.6397 13.1309 57.6397 9.50861ZM30.8701 24.3184C30.8701 26.4886 29.4642 27.5036 27.8409 27.5036C26.2169 27.5036 24.8118 26.4886 24.8118 24.3184V7.68952C24.8118 5.51936 26.2169 4.50433 27.8409 4.50433C29.4642 4.50433 30.8701 5.51936 30.8701 7.68952V24.3184ZM27.8409 0C24.1948 0 20.3385 2.56026 20.3385 7.68952V24.3105C20.3385 29.4397 24.2028 32 27.8409 32C31.4863 32 35.3434 29.4397 35.3434 24.3105V7.68952C35.3434 2.56026 31.4863 0 27.8409 0ZM0.735352 31.7429H5.20863V18.3071H12.93V14.0599H5.20863V4.51229H14.0692V0.265101H0.735352V31.7429Z"/>
</g>
</g>
</g>
<defs>
<clipPath id="clip0_1788_3194">
<rect width="190.487" height="32" fill="white" transform="translate(0.735352)"/>
</clipPath>
</defs>
</svg>
