<svg width="140" height="32" viewBox="0 0 140 32" fill="none" xmlns="http://www.w3.org/2000/svg">
<g clip-path="url(#clip0_1788_3180)">
<path d="M48.791 11.0841C48.791 10.4116 48.2808 9.87827 47.562 9.87827C46.8432 9.87827 46.333 10.4348 46.333 11.0841V20.916C46.333 21.5884 46.8432 22.1217 47.562 22.1217C48.304 22.1217 48.791 21.5652 48.791 20.916V11.0841ZM60.9185 9.87827C60.1997 9.87827 59.7127 10.4348 59.7127 11.0841V15.2812L59.7823 19.0377L58.275 15.5362L56.3272 11.5478C55.7243 10.2957 55.0518 9.90146 54.0779 9.90146C52.6403 9.90146 52.0142 10.8058 52.0142 12.1044V20.9623C52.0142 21.6348 52.5011 22.1681 53.22 22.1681C53.9388 22.1681 54.4258 21.6116 54.4258 20.9623L54.4026 16.8116L54.3562 12.5681L55.9562 16.4638L57.9272 20.5217C58.5533 21.8203 59.2026 22.1913 60.1765 22.1913C61.4519 22.1913 62.1243 21.4029 62.1243 19.942V11.1073C62.1243 10.4116 61.6374 9.87827 60.9185 9.87827ZM71.2142 12.3826L73.9968 12.4522C74.646 12.4754 75.1562 11.9652 75.1562 11.2464C75.1562 10.5275 74.646 10.0406 73.9968 10.0406L65.9272 10.0174C65.3011 10.0174 64.7678 10.5044 64.7678 11.2232C64.7678 11.942 65.3011 12.429 65.9272 12.429L68.733 12.3826V20.916C68.733 21.5884 69.2432 22.1217 69.962 22.1217C70.704 22.1217 71.2142 21.5652 71.2142 20.916V12.3826ZM79.4692 21.9826H85.475C86.1011 21.9826 86.6113 21.4957 86.6113 20.8464C86.6113 20.1739 86.1011 19.687 85.475 19.687L80.2576 19.7102V16.858H84.7794C85.4055 16.858 85.8924 16.3942 85.8924 15.7681C85.8924 15.1189 85.4055 14.6551 84.7794 14.6551L80.2576 14.6783V12.3131H85.475C86.1011 12.3131 86.6113 11.8261 86.6113 11.1536C86.6113 10.4812 86.1011 10.0174 85.475 10.0174L79.4924 10.0406C78.4026 10.0406 77.7765 10.6667 77.7765 11.7565V20.2899C77.7765 21.3797 78.3794 21.9826 79.4692 21.9826ZM96.3736 17.1131C97.9968 16.6957 98.9475 15.4203 98.9475 13.7507C98.9475 11.8957 97.7417 10.0174 94.82 10.0174H91.0634C89.9736 10.0174 89.3475 10.6435 89.3475 11.7333V20.916C89.3475 21.5884 89.8576 22.1217 90.6229 22.1217C91.3649 22.1217 91.8982 21.5652 91.8982 20.916L91.875 17.6928H93.9388L96.049 21.4957C96.3968 22.0754 97.1156 22.3073 97.7649 21.9826C98.4374 21.6348 98.6229 20.916 98.2518 20.3362L96.3736 17.1131ZM91.875 12.2899H94.8432C95.8403 12.2899 96.4895 12.9159 96.4895 13.8667C96.4895 14.7942 95.8866 15.4667 94.8895 15.4667H91.875V12.2899ZM106.507 22.2145C109.011 22.2145 110.611 21.0783 111.145 19.2696C111.446 18.2261 110.82 17.4841 109.892 17.4841C109.336 17.4841 108.942 17.7855 108.733 18.4116C108.385 19.3623 107.55 19.9652 106.368 19.9652C104.466 19.9652 103.655 18.6899 103.655 16.0232C103.655 13.4029 104.49 12.1507 106.368 12.1507C107.55 12.1507 108.223 12.6377 108.663 13.7971C108.895 14.4464 109.29 14.7478 109.869 14.7478C110.75 14.7478 111.4 14.029 111.145 13.0319C110.588 11.0145 109.011 9.87827 106.437 9.87827C102.913 9.87827 101.127 12.0348 101.127 16.0232C101.127 20.0116 102.913 22.2145 106.507 22.2145ZM118.658 22.1681C122.275 22.1681 124.084 19.942 124.084 15.9768C124.084 11.9884 122.229 9.76233 118.658 9.76233C115.063 9.76233 113.278 12.0116 113.255 15.9768C113.255 19.9652 115.087 22.1681 118.658 22.1681ZM118.658 19.8957C116.64 19.8957 115.759 18.6203 115.759 16C115.759 13.3565 116.64 12.0812 118.634 12.0812C120.629 12.0812 121.579 13.3565 121.556 16C121.556 18.6203 120.675 19.8957 118.658 19.8957ZM139.968 12.0116C139.968 10.6667 139.133 9.85508 137.834 9.85508C136.768 9.85508 135.979 10.4348 135.585 11.7797L134.263 16.0696L133.382 19.1536L132.548 16.0696L131.156 11.7797C130.762 10.5275 130.09 9.85508 128.884 9.85508C127.562 9.85508 126.75 10.6435 126.75 12.0116V20.9391C126.75 21.6116 127.237 22.1449 127.933 22.1449C128.629 22.1449 129.116 21.5884 129.116 20.9391L129.092 16.6261L128.976 12.0116L130.321 16.7189L131.759 20.8928C132.061 21.8203 132.64 22.1217 133.405 22.1217C134.101 22.1217 134.681 21.8667 134.959 20.916L136.327 16.7189L137.788 11.9652L137.649 16.6029V20.916C137.649 21.5884 138.136 22.1217 138.832 22.1217C139.527 22.1217 140.014 21.5652 140.014 20.916L139.968 12.0116Z"/>
<path d="M28.5241 17.6002C28.5241 17.8785 28.4082 18.1568 28.2227 18.3655C28.014 18.5742 27.7589 18.6901 27.4806 18.6901C27.2024 18.6901 26.9241 18.5742 26.7386 18.3655C26.5299 18.1568 26.4372 17.9017 26.4372 17.6002V8.00025C26.4372 7.72199 26.5531 7.44373 26.7386 7.23503C26.9473 7.02634 27.2024 6.91039 27.4806 6.91039C27.7589 6.91039 28.0372 7.02634 28.2227 7.23503C28.4314 7.44373 28.5241 7.6988 28.5241 8.00025V17.6002ZM28.1531 24.2553C28.014 24.3945 24.0719 27.7336 16.814 27.7336C9.57919 27.7336 5.63716 24.4176 5.47484 24.2785C5.3589 24.1858 5.28934 24.0698 5.21977 23.9539C5.15021 23.8379 5.12702 23.6988 5.10383 23.5597C5.10383 23.4205 5.10383 23.2814 5.15021 23.1423C5.19658 23.0031 5.26615 22.8872 5.3589 22.7713C5.54441 22.5626 5.79948 22.4234 6.07774 22.4002C6.356 22.3771 6.63426 22.4698 6.84296 22.6553C6.91253 22.7017 10.4372 25.6002 16.7908 25.6002C23.1444 25.6002 26.7154 22.6785 26.7386 22.6553C26.9473 22.4698 27.2256 22.3771 27.5038 22.4002C27.7821 22.4234 28.0372 22.5626 28.2227 22.7713C28.4082 22.98 28.5009 23.2582 28.4777 23.5365C28.5009 23.8147 28.3618 24.0698 28.1531 24.2553ZM5.10383 8.02344C5.12702 7.74518 5.24296 7.46691 5.45166 7.28141C5.66035 7.0959 5.93861 6.97996 6.21687 7.00315C6.47195 7.02634 6.72702 7.14228 6.91253 7.32779C7.09803 7.51329 7.21397 7.76837 7.21397 8.02344V17.6002C7.21397 17.8785 7.09803 18.1568 6.91253 18.3655C6.70383 18.5742 6.44876 18.6901 6.1705 18.6901C5.89224 18.6901 5.61397 18.5742 5.42847 18.3655C5.21977 18.1568 5.12702 17.9017 5.12702 17.6002V8.02344H5.10383ZM10.4372 5.8901C10.4604 5.61184 10.5763 5.33358 10.785 5.14808C10.9937 4.96257 11.2719 4.84662 11.5502 4.86981C11.8053 4.893 12.0604 5.00894 12.2459 5.19445C12.4314 5.37996 12.5473 5.63503 12.5473 5.8901V20.0814C12.5473 20.3597 12.4314 20.6379 12.2459 20.8466C12.0372 21.0553 11.7821 21.1713 11.5038 21.1713C11.2256 21.1713 10.9473 21.0553 10.7618 20.8466C10.5531 20.6379 10.4604 20.3829 10.4604 20.0814V5.8901H10.4372ZM15.7937 5.35677C15.7937 5.07851 15.9096 4.80024 16.0951 4.59155C16.3038 4.38285 16.5589 4.26691 16.8372 4.26691C17.1154 4.26691 17.3937 4.38285 17.5792 4.59155C17.7879 4.80024 17.8806 5.05532 17.8806 5.35677V20.8003C17.8806 21.0785 17.7647 21.3568 17.5792 21.5655C17.3705 21.7742 17.1154 21.8901 16.8372 21.8901C16.5589 21.8901 16.2806 21.7742 16.0951 21.5655C15.8864 21.3568 15.7937 21.1017 15.7937 20.8003V5.35677ZM21.0575 5.8901C21.0575 5.61184 21.1734 5.33358 21.3589 5.12489C21.5676 4.91619 21.8227 4.80025 22.1009 4.80025C22.3792 4.80025 22.6575 4.91619 22.843 5.12489C23.0517 5.33358 23.1444 5.58865 23.1444 5.8901V20.0814C23.1444 20.3597 23.0285 20.6379 22.843 20.8466C22.6343 21.0553 22.3792 21.1713 22.1009 21.1713C21.8227 21.1713 21.5444 21.0553 21.3589 20.8466C21.1502 20.6379 21.0575 20.3829 21.0575 20.0814V5.8901ZM28.8024 0.0234375H4.84876C4.31542 0.0234375 3.80528 0.116188 3.31832 0.324884C2.83137 0.53358 2.39079 0.811843 2.01977 1.18286C1.64876 1.55387 1.34731 1.99445 1.1618 2.48141C0.953105 2.96837 0.860352 3.47851 0.860352 4.01184V27.9655C0.860352 28.4988 0.976294 29.0089 1.1618 29.4959C1.3705 29.9829 1.64876 30.4234 2.01977 30.7944C2.39079 31.1655 2.83137 31.4669 3.31832 31.6524C3.80528 31.8611 4.31542 31.9539 4.84876 31.9539H28.8024C29.3125 31.9539 29.8459 31.8611 30.3328 31.6524C30.8198 31.4437 31.2604 31.1655 31.6314 30.7944C32.0024 30.4234 32.3038 29.9829 32.4893 29.4959C32.698 29.0089 32.7908 28.4988 32.7908 27.9655V4.01184C32.7908 3.47851 32.6748 2.96837 32.4893 2.48141C32.2806 1.99445 32.0024 1.55387 31.6314 1.18286C31.2604 0.811843 30.8198 0.510391 30.3328 0.324884C29.8459 0.116188 29.3357 0.0234375 28.8024 0.0234375Z"/>
</g>
<defs>
<clipPath id="clip0_1788_3180">
<rect width="139.13" height="32" fill="white" transform="translate(0.768555)"/>
</clipPath>
</defs>
</svg>
