<svg width="122" height="32" viewBox="0 0 122 32" fill="none" xmlns="http://www.w3.org/2000/svg">
<path fill-rule="evenodd" clip-rule="evenodd" d="M94.333 0.90564C93.0988 0.90564 92.0519 1.8799 92.0519 3.07882V28.9211C92.0519 30.1215 92.7383 31.0943 93.9726 31.0943H119.778C121.014 31.0943 122.332 30.1215 122.332 28.9211V3.07882C122.332 1.8799 121.374 0.90564 120.138 0.90564H94.333ZM98.5405 4.67922C100.034 4.67922 101.244 5.88533 101.244 7.37464C101.244 8.86395 100.034 10.0701 98.5405 10.0701C97.0467 10.0701 95.8369 8.86395 95.8369 7.37464C95.8369 5.88533 97.0467 4.67922 98.5405 4.67922ZM19.2377 4.78589C17.8059 4.78589 16.6384 5.94568 16.6384 7.37461C16.6384 8.80354 17.8059 9.96333 19.2377 9.96333C20.671 9.96333 21.8315 8.80354 21.8315 7.37461C21.8315 5.94568 20.671 4.78589 19.2377 4.78589ZM1.21094 5.21831V26.7816H14.1882V22.469H5.5367V5.21831H1.21094ZM41.5847 5.21831V26.7816H45.9104V19.5939L51.2444 26.7816H56.3503L50.2362 18.9228L56.0039 12.4061H50.9572L45.9104 18.1563V5.21831H41.5847ZM83.4004 5.21831V14.1188H83.3581C82.4771 13.0579 81.0206 12.2264 78.6775 12.2264C74.8925 12.2264 71.834 15.183 71.834 19.6107C71.834 24.2583 74.9375 26.9613 78.5423 26.9613C81.1868 26.9613 82.7471 26.1068 83.6454 25.0689H83.6876V26.7816H87.7261V5.21831H83.4004ZM33.1303 12.2264C30.8607 12.2264 29.0233 13.3612 28.4018 14.4782H28.3568V12.4061H24.2817V26.7816H28.6074V19.8774C28.6074 17.7168 29.6435 16 31.8179 16C33.6088 16 34.3751 17.4722 34.3751 19.5882V26.7816H38.7009V18.8021C38.7009 14.9811 37.4864 12.2264 33.1303 12.2264ZM63.543 12.2264C58.616 12.2264 56.0039 15.1006 56.0039 19.2738C56.0039 23.9717 58.8872 26.9613 63.4163 26.9613C66.8105 26.9613 68.9122 25.7835 69.9331 24.4653L67.2407 22.2893C66.6582 23.0785 65.3669 24.0862 63.4867 24.0862C61.3324 24.0862 60.394 22.571 60.11 21.3318L60.0875 20.8882H70.3443C70.3443 20.8882 70.4231 20.4042 70.4231 19.9139C70.4231 15.0133 67.7981 12.2264 63.543 12.2264ZM112.436 12.2264C116.792 12.2264 118.006 14.5311 118.006 18.8021V26.7816H113.681V19.5882C113.681 17.6763 112.914 16 111.124 16C108.949 16 107.913 17.4681 107.913 19.8774V26.7816H103.587V12.4061H107.662V14.4782H107.707C108.329 13.3612 110.166 12.2264 112.436 12.2264ZM17.0721 12.4061V26.7816H21.3978V12.4061H17.0721ZM96.3776 12.4061H100.703V26.7816H96.3776V12.4061ZM63.4134 15.1015C65.1726 15.1015 66.2895 16.6397 66.2607 18.1563H60.0875C60.2042 16.7317 61.3198 15.1015 63.4134 15.1015ZM79.7646 15.4609C82.2404 15.4609 83.6876 17.1049 83.6876 19.5574C83.6876 21.9437 82.2404 23.7268 79.7646 23.7268C77.2917 23.7268 75.9035 21.8963 75.9035 19.5574C75.9035 17.2199 77.2917 15.4609 79.7646 15.4609Z"/>
</svg>
