<svg width="88" height="32" viewBox="0 0 88 32" fill="none" xmlns="http://www.w3.org/2000/svg">
<g clip-path="url(#clip0_1788_3185)">
<path d="M40.3045 21.7684V13.4105H40.4518L46.4729 21.7684H48.3676V9.49476H46.2624V17.8316H46.115L40.094 9.49476H38.1992V21.7684H40.3045ZM54.3255 21.9579C57.1045 21.9579 58.8097 20.1474 58.8097 17.1158C58.8097 14.1053 57.1045 12.2737 54.3255 12.2737C51.5676 12.2737 49.8413 14.1053 49.8413 17.1158C49.8624 20.1474 51.5466 21.9579 54.3255 21.9579ZM54.3255 20.1895C52.8518 20.1895 52.0097 19.0737 52.0097 17.1158C52.0097 15.179 52.8518 14.0421 54.3255 14.0421C55.7992 14.0421 56.6413 15.179 56.6413 17.1158C56.6413 19.0737 55.7992 20.1895 54.3255 20.1895ZM60.7255 10.1895V12.5263H59.2519V14.2105H60.7255V19.2842C60.7255 21.0948 61.5676 21.8105 63.715 21.8105C64.115 21.8105 64.515 21.7684 64.8308 21.7053V20.0632C64.5782 20.0842 64.4097 20.1053 64.115 20.1053C63.2308 20.1053 62.8308 19.7053 62.8308 18.779V14.2105H64.8308V12.5263H62.8308V10.1895H60.7255ZM66.094 21.7684H68.1992V12.4632H66.094V21.7684ZM67.1466 10.9263C67.8413 10.9263 68.4097 10.3579 68.4097 9.66318C68.4097 8.94739 67.8413 8.37897 67.1466 8.37897C66.4519 8.37897 65.8834 8.94739 65.8834 9.66318C65.8834 10.3579 66.4519 10.9263 67.1466 10.9263ZM73.9676 21.9579C76.7466 21.9579 78.4518 20.1474 78.4518 17.1158C78.4518 14.1053 76.7466 12.2737 73.9676 12.2737C71.2097 12.2737 69.4834 14.1053 69.4834 17.1158C69.4834 20.1474 71.1676 21.9579 73.9676 21.9579ZM73.9676 20.1895C72.494 20.1895 71.6518 19.0737 71.6518 17.1158C71.6518 15.179 72.494 14.0421 73.9676 14.0421C75.4203 14.0421 76.2834 15.179 76.2834 17.1158C76.2624 19.0737 75.4203 20.1895 73.9676 20.1895ZM79.694 21.7684H81.7992V16.3579C81.7992 14.9895 82.5992 14.1263 83.8413 14.1263C85.1255 14.1263 85.715 14.8421 85.715 16.2527V21.7684H87.8203V15.7474C87.8203 13.5158 86.6834 12.2737 84.6203 12.2737C83.2308 12.2737 82.3045 12.9053 81.8624 13.9579H81.715V12.4632H79.6729C79.694 12.4632 79.694 21.7684 79.694 21.7684Z"/>
<path fill-rule="evenodd" clip-rule="evenodd" d="M5.94718 5.70527C6.93666 6.50527 7.29455 6.44211 9.14718 6.31579L26.5998 5.26316C26.9788 5.26316 26.663 4.88421 26.5367 4.84211L23.6314 2.7579C23.084 2.33684 22.3261 1.83158 20.9156 1.9579L4.03139 3.2C3.42087 3.26316 3.29455 3.57895 3.54718 3.81053L5.94718 5.70527ZM6.99981 9.76842V28.1263C6.99981 29.1158 7.48403 29.4737 8.59982 29.4105L27.7788 28.2947C28.8946 28.2316 29.0209 27.5579 29.0209 26.7579V8.52632C29.0209 7.72632 28.7051 7.28421 28.0314 7.34737L7.98929 8.52632C7.25245 8.58948 6.99981 8.96842 6.99981 9.76842ZM25.9261 10.7579C26.0524 11.3053 25.9261 11.8737 25.3788 11.9368L24.4524 12.1263V25.6842C23.6524 26.1053 22.9156 26.3579 22.284 26.3579C21.2946 26.3579 21.0419 26.0421 20.3051 25.1158L14.263 15.6211V24.8L16.1788 25.2211C16.1788 25.2211 16.1788 26.3368 14.6419 26.3368L10.3893 26.5895C10.263 26.3368 10.3893 25.7263 10.8103 25.6L11.9261 25.2842V13.1579L10.3893 13.0316C10.263 12.4842 10.5788 11.6842 11.4419 11.6211L16.0103 11.3053L22.3051 20.9053V12.4211L20.7051 12.2316C20.5788 11.5579 21.084 11.0526 21.6946 10.9895L25.9261 10.7579ZM2.62087 1.51579L20.1998 0.23158C22.3472 0.0421064 22.9156 0.168423 24.263 1.1579L29.863 5.09474C30.7893 5.76842 31.1051 5.9579 31.1051 6.69474V28.3158C31.1051 29.6632 30.6209 30.4632 28.8945 30.5895L8.49455 31.8316C7.18929 31.8947 6.57876 31.7053 5.90508 30.8421L1.75771 25.4737C1.02087 24.4842 0.705078 23.7474 0.705078 22.8842V3.66316C0.705078 2.54737 1.21034 1.64211 2.62087 1.51579Z"/>
</g>
<defs>
<clipPath id="clip0_1788_3185">
<rect width="87.1579" height="32" fill="white" transform="translate(0.683594)"/>
</clipPath>
</defs>
</svg>
