<svg width="134" height="32" viewBox="0 0 134 32" fill="none" xmlns="http://www.w3.org/2000/svg">
<g clip-path="url(#clip0_1788_3189)">
<path d="M108.598 13.2731V23.7076C108.33 27.8428 102.216 27.8428 101.948 23.7076V13.2731H96.1647V24.8378C96.1647 28.7434 100.238 31.9099 105.251 31.9099C110.265 31.9099 114.338 28.7434 114.338 24.8378V13.2731H108.598ZM127.405 0.870422V31.2378H133.221V0.870422H127.405ZM117.531 31.2378H123.346V0.870422H117.531V31.2378ZM89.0484 15.4418C90.6594 14.0042 91.588 11.9598 91.6145 9.8092C91.6109 7.86997 90.8592 6.00784 89.5145 4.60375C88.1462 3.0872 85.6704 2.23641 82.3517 2.23641H72.4038V31.2378H85.2535C90.1713 31.1625 94.1478 27.4636 94.1478 22.9321C94.1405 19.6341 92.9719 17.2768 89.0484 15.4418ZM84.1762 26.1856H78.6115V7.23686H82.4885C84.23 7.31759 85.5983 8.75613 85.5801 10.4895C85.5801 12.1865 84.1944 13.5607 82.4885 13.557H80.4707V18.7688H84.1762C89.1688 18.7688 89.1688 26.2101 84.1762 26.2101V26.1856ZM21.1181 10.8223C21.0971 8.53301 20.1612 6.34434 18.5137 4.7389C16.8717 3.13437 14.6504 2.24457 12.3461 2.26634H1.70215V31.2378H7.89073V7.23686H11.0954C13.2683 7.16248 15.0828 8.87314 15.1183 11.0355C15.0226 13.1988 13.1935 14.8904 11.0133 14.8214H9.57654V21.7557L15.7341 31.2378H22.9864L14.4342 19.138C18.3294 18.2373 21.0935 14.7979 21.1181 10.8223ZM31.9417 12.523C26.6627 12.6645 22.4591 16.9584 22.4591 22.2056C22.4591 27.4573 26.6627 31.7502 31.9417 31.8935C35.9993 31.8935 39.1611 30.0677 40.7968 27.2133L36.0678 25.04C35.3836 26.416 33.9605 27.2722 32.4216 27.2369C30.3152 27.3285 28.5382 25.7003 28.4597 23.6051V23.4065H41.2803C41.3195 23.0201 41.3368 22.6355 41.3332 22.2446C41.4235 15.9589 37.2582 12.523 31.9417 12.523ZM28.4388 20.1085C28.3494 18.0958 29.9677 16.4169 31.9946 16.4169C34.018 16.4169 35.6354 18.0958 35.5478 20.1085H28.4388ZM64.461 31.2378V0.870422H58.6382V15.2432C57.0911 13.6913 54.9847 12.8142 52.7872 12.8024C47.9979 12.8024 44.0854 17.0409 44.0854 22.2654C44.0854 27.4881 47.9861 31.7684 52.7872 31.7684C55.0075 31.7502 57.1239 30.8432 58.6656 29.2595V31.3003L64.461 31.2378ZM54.4374 26.8006C52.0857 26.8006 50.1681 24.7208 50.1681 22.1557C50.1681 19.5915 52.0857 17.4827 54.4374 17.4827C56.7928 17.4827 58.713 19.5661 58.713 22.1348C58.713 24.7072 56.8001 26.8006 54.4374 26.8006Z"/>
</g>
<defs>
<clipPath id="clip0_1788_3189">
<rect width="132.894" height="32" fill="white" transform="translate(0.84082)"/>
</clipPath>
</defs>
</svg>
