<svg width="153" height="32" viewBox="0 0 153 32" fill="none" xmlns="http://www.w3.org/2000/svg">
<path d="M-0.709371 0.526367C4.57965 0.528401 9.86867 0.526367 15.1577 0.528401C17.8734 0.550778 20.6135 1.52518 22.601 3.40075C24.2507 4.93049 25.3004 7.14578 25.2292 9.41599C25.2943 11.4746 24.6474 13.578 23.317 15.1668C22.2572 16.4707 20.7722 17.3638 19.2018 17.9171C20.8434 18.3849 22.424 19.2922 23.3943 20.7325C24.1592 21.8147 24.4481 23.1552 24.4603 24.4633C24.4623 26.8759 24.4643 29.2885 24.4582 31.7011C22.2226 31.697 19.987 31.7011 17.7513 31.699C17.7473 29.7624 17.7554 27.8258 17.7493 25.8893C17.7025 24.506 17.3872 23.0311 16.3864 22.014C15.3265 20.9542 13.7663 20.6348 12.322 20.5697C10.8085 20.5514 9.29705 20.5677 7.78358 20.5636C7.78968 18.7633 7.7673 16.965 7.79578 15.1647C9.97648 15.1851 12.1572 15.1668 14.3379 15.1749C15.8615 15.1729 17.3323 14.231 17.9792 12.8498C18.8641 11.0312 18.5976 8.53516 16.9926 7.19257C16.0833 6.44804 14.881 6.16324 13.7256 6.16934C11.0302 6.17545 8.33689 6.16731 5.64356 6.17341C5.64559 12.8172 5.64356 19.4611 5.64356 26.1069C3.52591 26.1069 1.40624 26.1069 -0.711406 26.1069C-0.711406 17.5794 -0.71344 9.05389 -0.709371 0.526367Z" />
<path d="M79.6422 0.526367C81.827 0.528401 84.0117 0.528401 86.1985 0.526367C86.1985 7.23935 86.2006 13.9523 86.1985 20.6653C87.8768 20.6674 89.555 20.6653 91.2353 20.6674C93.3814 20.6979 95.314 18.863 95.5194 16.7494C95.8734 14.5219 94.3416 12.091 92.0714 11.6923C90.8692 11.5214 89.6486 11.6516 88.4403 11.613C88.4382 9.79842 88.4403 7.98592 88.4382 6.17341C89.8459 6.16731 91.2536 6.17545 92.6613 6.16934C95.613 6.10832 98.4976 7.6523 100.227 10.0222C101.964 12.3738 102.544 15.4841 101.976 18.3321C101.175 21.8899 98.1253 24.5955 94.7139 25.6289C92.999 26.1883 91.1743 26.1659 89.3923 26.1557C86.1416 26.1557 82.8909 26.1557 79.6402 26.1557C79.6402 17.6119 79.6381 9.07017 79.6422 0.526367Z"/>
<path d="M131.157 0.528381C133.36 0.526347 135.563 0.526347 137.769 0.528381C137.769 4.59482 137.766 8.6633 137.769 12.7318C139.148 12.683 140.547 12.8538 141.914 12.6016C143.196 12.3371 144.233 11.3505 144.677 10.1361C145.206 8.86469 145.167 7.46106 145.212 6.11236C147.376 6.13474 149.541 6.1144 151.707 6.12254C151.652 8.23001 151.67 10.4799 150.57 12.3575C149.628 13.9971 147.85 14.9043 146.113 15.4638C148.17 16.0415 150.171 17.2824 151.091 19.282C152.161 21.4017 151.793 23.8245 151.856 26.1069C149.669 26.1069 147.482 26.1069 145.297 26.1069C145.171 24.2171 145.686 22.1503 144.669 20.4293C143.883 19.0074 142.242 18.2913 140.677 18.1896C139.709 18.149 138.737 18.1856 137.769 18.1734C137.766 20.8179 137.766 23.4624 137.769 26.1049C135.563 26.1069 133.36 26.1069 131.157 26.1049C131.159 17.5794 131.157 9.05387 131.157 0.528381Z"/>
<path d="M113.525 6.10429C116.766 5.5347 120.259 5.8195 123.196 7.38383C125.438 8.57589 127.191 10.6589 127.911 13.1C128.798 16.1168 128.438 19.5771 126.603 22.1788C125.057 24.4145 122.563 25.8629 119.941 26.4507C116.884 27.1281 113.58 26.9146 110.726 25.574C107.988 24.3026 105.754 21.8534 105.008 18.8976C104.241 15.8524 104.817 12.4145 106.792 9.93273C108.446 7.85577 110.94 6.5742 113.525 6.10429ZM115.14 11.1756C112.781 11.7656 111.027 14.1395 111.196 16.5725C111.292 18.3057 112.288 19.9697 113.79 20.8485C115.279 21.7781 117.23 21.8635 118.804 21.0905C121.227 19.9717 122.494 16.898 121.477 14.4121C120.586 11.9283 117.677 10.4291 115.14 11.1756Z"/>
<path d="M28.9769 10.8175C30.6979 8.04688 33.8448 6.23031 37.1118 6.17742C41.3552 6.16318 45.5966 6.17538 49.838 6.17131C49.8075 8.11808 49.9011 10.0791 49.7933 12.0136C48.412 14.2106 46.9982 16.3893 45.6068 18.5802C43.4993 18.5741 41.3939 18.5903 39.2885 18.572C40.6819 16.255 42.0815 13.9401 43.4566 11.6129C41.756 11.6088 40.0554 11.617 38.3527 11.6088C36.8148 11.558 35.3237 12.449 34.5304 13.7489C33.5783 15.2583 33.6353 17.3393 34.6931 18.7836C35.5454 20.0245 37.0447 20.7446 38.5398 20.7182C42.3052 20.7182 46.0726 20.7161 49.838 20.7182C49.838 22.5307 49.84 24.3432 49.838 26.1557C46.211 26.1577 42.5839 26.1557 38.9569 26.1577C37.4678 26.1597 35.9442 26.174 34.508 25.7224C31.6662 24.8924 29.278 22.6914 28.1835 19.9451C26.9793 17.0077 27.2681 13.5007 28.9769 10.8175Z"/>
<path d="M56.9599 8.10193C58.6198 6.85291 60.6866 6.19381 62.7574 6.17144C66.9276 6.1694 71.0978 6.17144 75.266 6.17144C75.27 8.11617 75.2599 10.0609 75.2721 12.0056C73.8705 14.1965 72.473 16.3914 71.0673 18.5803C68.9639 18.5783 66.8625 18.5803 64.7591 18.5803C66.1322 16.2491 67.542 13.9402 68.9252 11.613C67.068 11.6171 65.2107 11.5988 63.3535 11.6191C60.8859 11.8185 58.9432 14.343 59.3542 16.78C59.6247 18.8895 61.5247 20.6491 63.6606 20.7061C67.546 20.7325 71.4314 20.7122 75.3148 20.7162C75.3209 22.5287 75.3148 24.3413 75.3189 26.1558C71.1405 26.1456 66.9622 26.1802 62.7839 26.1395C60.2126 26.1375 57.6495 25.0939 55.8512 23.2489C53.7112 21.1719 52.6391 18.0799 52.9646 15.1241C53.227 12.3596 54.7161 9.73746 56.9599 8.10193Z"/>
</svg>
