<svg width="137" height="32" viewBox="0 0 137 32" fill="none" xmlns="http://www.w3.org/2000/svg">
<g clip-path="url(#clip0_1788_3183)">
<path d="M88.8566 11.4112C86.5713 9.34784 83.8121 8.3392 80.6224 8.3392C77.4764 8.3392 74.7171 9.34912 72.4306 11.4112C70.1453 13.4298 68.9835 16.2394 68.9835 19.8387C68.9835 23.4381 70.1453 26.2451 72.4306 28.3085C74.7159 30.327 77.4764 31.337 80.6224 31.337C83.8121 31.337 86.5713 30.327 88.8566 28.3085C91.1854 26.2451 92.3473 23.4368 92.3473 19.8387C92.3473 16.2406 91.1841 13.4298 88.8566 11.4112ZM76.3132 24.4454C75.1078 23.2614 74.5006 21.7242 74.5006 19.8374C74.5006 17.9507 75.1027 16.4147 76.3132 15.273C76.8745 14.7036 77.5459 14.2544 78.2865 13.9527C79.0272 13.651 79.8215 13.5031 80.6212 13.5181C81.4275 13.503 82.2287 13.6506 82.9766 13.9522C83.7245 14.2537 84.4038 14.7029 84.9739 15.273C86.2216 16.4147 86.8288 17.9494 86.8288 19.8374C86.8288 21.7254 86.2267 23.2602 84.9739 24.4454C83.7685 25.5859 82.3018 26.1568 80.6212 26.1568C79.8256 26.1695 79.0355 26.0248 78.2961 25.7311C77.5568 25.4374 76.8829 25.0004 76.3132 24.4454ZM100.499 30.7213V0.60544H95.0681V30.7213H100.499ZM118.03 8.9536V20.9702C118.03 23.8656 116.492 25.7856 113.567 25.7856C110.591 25.7856 109.095 23.8682 109.095 20.9702V8.9536H103.653V21.8918C103.653 26.9043 106.757 31.3357 113.567 31.3357H113.609C120.376 31.3357 123.475 26.8058 123.475 21.8918V8.9536H118.03ZM63.2037 8.9536L57.7723 23.6992L52.341 8.9536H46.565L55.2322 30.7226H60.3202L68.986 8.9536H63.2037ZM46.5907 19.223C46.5907 16.064 45.6005 13.4746 43.6598 11.4112C41.7191 9.34784 39.2225 8.3392 36.1609 8.3392C33.0149 8.3392 30.3402 9.43744 28.142 11.5866C25.9848 13.7382 24.9101 16.4582 24.9101 19.8374C24.9101 23.2166 25.9874 25.9827 28.0997 28.1318C30.2569 30.2835 32.8432 31.3357 35.9035 31.3357C40.6047 31.3357 43.9224 29.2288 45.9451 24.9715L41.8946 22.601C40.5611 25.2774 38.6179 26.5946 35.9893 26.5946C32.7574 26.5946 30.4721 24.4877 30.1262 21.1533H46.5894V19.2218L46.5907 19.223ZM35.9854 12.5517C39.0457 12.5517 41.0735 14.3066 41.5897 17.1162H30.1237C30.9448 14.5267 33.1839 12.5517 35.9867 12.5517H35.9854ZM24.9088 30.7213L17.6213 17.7318C22.2316 16.0205 24.5168 13.0368 24.5168 8.6912C24.522 3.38048 20.3805 0 13.7861 0H0.899414V30.7213H6.58952V18.2579H11.4188L18.4002 30.7226L24.9088 30.7213ZM13.7861 5.09056C17.1486 5.09056 18.8306 6.4512 18.8306 9.12768C18.8306 11.8042 17.1474 13.1648 13.7861 13.1648H6.58952V5.09056H13.7861ZM132.683 31.3357C129.187 31.3357 126.352 28.448 126.352 24.8845V3.072H131.783V8.96128H136.441V13.4374H131.783V24.5286C131.783 25.5731 132.615 26.4192 133.642 26.4192H136.441V31.3357H132.683Z"/>
</g>
<defs>
<clipPath id="clip0_1788_3183">
<rect width="135.784" height="32" fill="white" transform="translate(0.899414)"/>
</clipPath>
</defs>
</svg>
