<svg width="161" height="32" viewBox="0 0 161 32" fill="none" xmlns="http://www.w3.org/2000/svg">
<g clip-path="url(#clip0_1788_3175)">
<path d="M26.6225 21.3779C26.6225 25.3194 24.3511 27.7244 20.7436 28.4593C19.7415 28.6597 18.0713 28.6597 16.9356 28.6597L8.18405 28.5929V31.9332L0.43457 25.5867L8.18405 19.2401V22.5804L18.0045 22.6472C18.9398 22.6472 19.3406 22.1128 19.3406 21.5783C19.3406 20.5762 18.4053 20.2422 15.5995 18.9061C11.1235 16.7683 7.6496 15.2317 7.6496 10.3549C7.6496 6.54699 10.3886 3.94156 14.397 3.40711C15.1987 3.2735 16.7352 3.2735 17.6705 3.2735C19.6747 3.2735 25.2864 3.40711 25.2864 3.40711V9.48644L16.0671 9.35283C15.2655 9.35283 14.8646 9.88728 14.8646 10.4217C14.8646 11.2234 15.5327 11.5574 18.1381 12.7599C23.6162 15.2986 26.6225 16.7015 26.6225 21.3779ZM41.1193 20.9102C41.1193 22.0459 40.1172 22.9812 38.3135 22.9812C36.3761 22.9812 35.5076 22.0459 35.5076 20.9102V3.3403H27.9586V21.5115C27.9586 25.5198 31.2989 29.3278 38.2467 29.3278C44.8605 29.3278 48.5348 25.5867 48.5348 21.5115V3.3403H41.1193V20.9102ZM71.7164 21.0439C71.7164 26.0543 68.3093 28.7933 63.3657 28.7933H50.873V3.3403H62.898C68.3093 3.3403 71.0484 6.34657 71.0484 10.2881C71.0484 12.2923 70.1131 14.0292 68.2425 15.2986C70.4471 16.5011 71.7164 18.3716 71.7164 21.0439ZM58.2884 13.428H61.7623C63.0985 13.428 63.6997 12.4927 63.6997 11.1566C63.6997 9.75367 63.0985 8.88519 61.7623 8.88519H58.2884V13.428ZM64.1674 20.7098C64.1674 19.1733 63.4325 18.3048 62.0964 18.3048H58.2884V23.1148H62.0964C63.4993 23.1148 64.1674 22.1796 64.1674 20.7098Z"/>
<path d="M96.7025 3.34029H104.118V21.2443C104.118 25.3862 101.179 29.1274 94.9656 29.1274C92.2934 29.1274 90.2224 28.3257 88.7526 27.1232C87.2829 28.3257 85.2787 29.1274 82.8069 29.1274C76.1931 29.1274 73.4541 25.3862 73.4541 21.2443V3.34029H80.8696V21.1107C80.8696 21.8455 81.2704 22.7808 82.9405 22.7808C84.6107 22.7808 85.0783 21.9123 85.0783 21.1107V3.34029H92.4938V21.1107C92.4938 21.8455 92.8946 22.7808 94.5647 22.7808C96.2349 22.7808 96.7025 21.9123 96.7025 21.1107V3.34029ZM136.051 13.3612V3.34029H128.703V14.0292C128.703 17.5699 131.108 20.2422 135.183 21.3779V28.7265H142.732V21.3779C146.874 20.2422 149.145 17.5699 149.145 14.0292V10.0877C149.145 9.68685 149.346 9.48643 149.746 9.48643H153.02V12.6931L160.769 6.34656L153.02 0V3.20668H147.876C143.533 3.20668 141.73 5.7453 141.73 9.35282V13.3612C141.73 14.2965 141.062 15.4322 138.857 15.4322C136.719 15.4322 136.051 14.2965 136.051 13.3612ZM126.832 10.6221V28.7933H119.417V21.3779H113.805V28.7265H106.389V10.6221C106.389 6.07933 110.131 2.60543 116.611 2.60543C123.024 2.60543 126.832 6.01253 126.832 10.6221ZM119.417 15.5658V11.023C119.417 9.82046 118.548 8.95198 116.611 8.95198C114.606 8.95198 113.805 9.82046 113.805 11.023V15.5658H119.417Z"/>
</g>
<defs>
<clipPath id="clip0_1788_3175">
<rect width="160.334" height="32" fill="white" transform="translate(0.43457)"/>
</clipPath>
</defs>
</svg>
