<svg width="24" height="24" viewBox="0 0 24 24" fill="none" xmlns="http://www.w3.org/2000/svg">
<path fill-rule="evenodd" clip-rule="evenodd" d="M7.42585 13.5266H6.66585C6.46432 13.5281 6.27103 13.6068 6.12585 13.7466C5.98487 13.891 5.90592 14.0848 5.90585 14.2866V15.62H8.19252V14.2866C8.19252 14.1863 8.17265 14.0869 8.13404 13.9943C8.09543 13.9016 8.03885 13.8175 7.96757 13.7469C7.89629 13.6762 7.81172 13.6204 7.71874 13.5826C7.62576 13.5448 7.52622 13.5258 7.42585 13.5266Z" fill="#0A2E31"/>
<path fill-rule="evenodd" clip-rule="evenodd" d="M1.33252 8.1933V19.62C1.33428 20.4275 1.65583 21.2014 2.22681 21.7723C2.79779 22.3433 3.5717 22.6649 4.37919 22.6666H19.6192C20.4267 22.6649 21.2006 22.3433 21.7716 21.7723C22.3425 21.2014 22.6641 20.4275 22.6659 19.62V8.1933H1.33252ZM9.71252 18.0933C9.71252 18.2949 9.63245 18.4882 9.48992 18.6307C9.34739 18.7732 9.15408 18.8533 8.95252 18.8533C8.75096 18.8533 8.55765 18.7732 8.41512 18.6307C8.27259 18.4882 8.19252 18.2949 8.19252 18.0933V17.1733H5.90585V18.0933C5.91579 18.1995 5.90345 18.3067 5.8696 18.4079C5.83576 18.5091 5.78117 18.6021 5.70932 18.681C5.63747 18.7598 5.54995 18.8229 5.45235 18.866C5.35475 18.9091 5.24922 18.9314 5.14252 18.9314C5.03582 18.9314 4.93029 18.9091 4.83269 18.866C4.73509 18.8229 4.64757 18.7598 4.57572 18.681C4.50387 18.6021 4.44928 18.5091 4.41543 18.4079C4.38159 18.3067 4.36925 18.1995 4.37919 18.0933V14.2866C4.37919 13.6802 4.6201 13.0985 5.04894 12.6697C5.47777 12.2409 6.05939 12 6.66585 12H7.42585C7.72664 11.9982 8.02478 12.0561 8.30301 12.1704C8.58124 12.2847 8.83402 12.4531 9.04671 12.6658C9.25941 12.8785 9.42777 13.1312 9.54206 13.4095C9.65635 13.6877 9.71429 13.9858 9.71252 14.2866V18.0933ZM16.6659 14.8866C16.6659 15.4931 16.4249 16.0747 15.9961 16.5035C15.5673 16.9324 14.9856 17.1733 14.3792 17.1733H12.7592V18.0933C12.7592 18.2949 12.6791 18.4882 12.5366 18.6307C12.3941 18.7732 12.2008 18.8533 11.9992 18.8533C11.7976 18.8533 11.6043 18.7732 11.4618 18.6307C11.3193 18.4882 11.2392 18.2949 11.2392 18.0933V12.76C11.2392 12.5584 11.3193 12.3651 11.4618 12.2226C11.6043 12.08 11.7976 12 11.9992 12H14.3925C14.6922 12 14.9889 12.0592 15.2656 12.1743C15.5423 12.2894 15.7935 12.458 16.0047 12.6705C16.216 12.883 16.3832 13.1352 16.4966 13.4126C16.6101 13.6899 16.6676 13.987 16.6659 14.2866V14.8866ZM19.6059 18.0933C19.6158 18.1995 19.6034 18.3067 19.5696 18.4079C19.5358 18.5091 19.4812 18.6021 19.4093 18.681C19.3375 18.7598 19.2499 18.8229 19.1523 18.866C19.0547 18.9091 18.9492 18.9314 18.8425 18.9314C18.7358 18.9314 18.6303 18.9091 18.5327 18.866C18.4351 18.8229 18.3476 18.7598 18.2757 18.681C18.2039 18.6021 18.1493 18.5091 18.1154 18.4079C18.0816 18.3067 18.0692 18.1995 18.0792 18.0933V12.76C18.097 12.5698 18.1851 12.3932 18.3263 12.2646C18.4675 12.136 18.6516 12.0647 18.8425 12.0647C19.0335 12.0647 19.2176 12.136 19.3588 12.2646C19.5 12.3932 19.5881 12.5698 19.6059 12.76V18.0933Z" fill="#0A2E31"/>
<path fill-rule="evenodd" clip-rule="evenodd" d="M22.6659 6.66665V4.37998C22.6641 3.57249 22.3425 2.79859 21.7716 2.22761C21.2006 1.65663 20.4267 1.33507 19.6192 1.33331H4.37919C3.5717 1.33507 2.79779 1.65663 2.22681 2.22761C1.65583 2.79859 1.33428 3.57249 1.33252 4.37998V6.66665H22.6659ZM8.19252 3.61998C8.34254 3.6213 8.48882 3.66699 8.61292 3.75129C8.73702 3.8356 8.8334 3.95475 8.8899 4.09373C8.9464 4.23271 8.9605 4.38531 8.93043 4.53229C8.90035 4.67928 8.82745 4.81407 8.7209 4.91969C8.61435 5.02532 8.47893 5.09704 8.33169 5.12583C8.18445 5.15462 8.03198 5.13918 7.89349 5.08147C7.75501 5.02375 7.63671 4.92634 7.55349 4.80151C7.47027 4.67668 7.42586 4.53001 7.42585 4.37998C7.42585 4.27961 7.44573 4.18024 7.48434 4.08759C7.52295 3.99495 7.57952 3.91087 7.6508 3.84021C7.72208 3.76955 7.80665 3.71371 7.89963 3.67591C7.99261 3.63811 8.09216 3.6191 8.19252 3.61998ZM5.13919 3.61998C5.2895 3.61998 5.43644 3.66455 5.56142 3.74806C5.6864 3.83157 5.78381 3.95027 5.84133 4.08914C5.89886 4.22801 5.91391 4.38082 5.88458 4.52825C5.85526 4.67567 5.78288 4.81109 5.67659 4.91738C5.5703 5.02367 5.43488 5.09605 5.28746 5.12538C5.14003 5.1547 4.98722 5.13965 4.84835 5.08213C4.70948 5.02461 4.59078 4.92719 4.50727 4.80221C4.42376 4.67723 4.37919 4.53029 4.37919 4.37998C4.37919 4.17842 4.45926 3.98511 4.60179 3.84258C4.74431 3.70005 4.93762 3.61998 5.13919 3.61998Z" fill="#0A2E31"/>
<path fill-rule="evenodd" clip-rule="evenodd" d="M14.3925 13.5266H12.7592V15.6466H14.3925C14.5941 15.6466 14.7874 15.5666 14.9299 15.424C15.0724 15.2815 15.1525 15.0882 15.1525 14.8866V14.2866C15.1534 14.1866 15.1344 14.0874 15.0965 13.9948C15.0586 13.9021 15.0027 13.818 14.9319 13.7473C14.8612 13.6765 14.777 13.6206 14.6844 13.5827C14.5918 13.5448 14.4926 13.5258 14.3925 13.5266Z" fill="#0A2E31"/>
</svg>
