<svg width="24" height="24" viewBox="0 0 24 24" fill="none" xmlns="http://www.w3.org/2000/svg">
<g clip-path="url(#clip0_3501_7308)">
<path d="M11.9994 15.9844C14.1999 15.9844 15.9838 14.2005 15.9838 12C15.9838 9.79949 14.1999 8.01562 11.9994 8.01562C9.79888 8.01562 8.01501 9.79949 8.01501 12C8.01501 14.2005 9.79888 15.9844 11.9994 15.9844Z" fill="#0A2E31"/>
<path d="M6.73323 10.8474C7.26254 8.42705 9.42249 6.60937 11.9994 6.60937H22.7273C22.1581 5.47936 21.4054 4.43541 20.4847 3.51469C18.2182 1.24823 15.2047 0 11.9994 0C8.79409 0 5.78063 1.24823 3.51409 3.51469C3.29612 3.73266 3.08781 3.95766 2.88892 4.18894L6.73323 10.8474Z" fill="#0A2E31"/>
<path d="M13.6344 17.1369C13.1185 17.3015 12.5692 17.3906 11.9994 17.3906C9.99698 17.3906 8.2462 16.2931 7.31667 14.668C7.31001 14.6578 7.3034 14.6475 7.29722 14.6369L1.96866 5.4075C0.687562 7.34813 -0.000610352 9.62109 -0.000610352 12C-0.000610352 15.2053 1.24762 18.2188 3.51408 20.4853C5.25047 22.2217 7.42547 23.3595 9.78904 23.7972L13.6344 17.1369Z" fill="#0A2E31"/>
<path d="M15.6261 8.01562C16.7089 9.00225 17.3896 10.4231 17.3896 12C17.3896 12.9918 17.12 13.9216 16.6508 14.7208C16.646 14.73 16.6419 14.7393 16.6367 14.7484L11.307 23.9797C11.5366 23.9927 11.7672 24 11.9989 24C15.2042 24 18.2177 22.7518 20.4842 20.4853C22.7507 18.2188 23.9989 15.2053 23.9989 12C23.9989 10.6216 23.7675 9.27891 23.3241 8.01562H15.6261Z" fill="#0A2E31"/>
</g>
<defs>
<clipPath id="clip0_3501_7308">
<rect width="24" height="24" fill="white" transform="translate(-0.000610352)"/>
</clipPath>
</defs>
</svg>
