<svg width="24" height="25" viewBox="0 0 24 25" fill="none" xmlns="http://www.w3.org/2000/svg">
<g clip-path="url(#clip0_690_1525)">
<path d="M12.5062 12.0165C12.5023 12.0124 12.5012 12.0069 12.4971 12.0029L8.48446 7.99016V5.4688C8.48446 5.28201 8.41031 5.10351 8.27849 4.97165L4.05974 0.70607C3.85926 0.505633 3.55645 0.444508 3.29343 0.55368C3.03046 0.662149 2.85946 0.918977 2.85946 1.20323V3.3126H0.703211C0.419007 3.31255 0.162179 3.48351 0.0537106 3.74652C-0.0554613 4.00949 0.00496054 4.31165 0.206148 4.51284L4.47177 8.77841C4.60363 8.91027 4.78213 8.98443 4.96888 8.98443H7.49024L11.5029 12.9971C11.507 13.0011 11.5124 13.0023 11.5166 13.0062C11.7903 13.2675 12.2061 13.271 12.4836 13.0062C12.7757 12.7274 12.7691 12.2919 12.5062 12.0165Z" fill="#104347"/>
<path d="M12.0001 0.500122C10.201 0.500122 8.49999 0.957856 6.96821 1.67284L9.12512 3.82975C10.0304 3.52872 10.9952 3.3595 12.0002 3.3595C17.0401 3.35945 21.1407 7.46008 21.1407 12.5C21.1407 17.54 17.0401 21.6406 12.0001 21.6406C6.96015 21.6406 2.85957 17.54 2.85957 12.5C2.85957 11.495 3.02884 10.5302 3.32982 9.62495L1.17292 7.46804C0.458025 8.99987 0.000244141 10.7009 0.000244141 12.5C0.000244141 19.0911 5.4091 24.5 12.0001 24.5C18.5912 24.5 24.0001 19.0911 24.0001 12.5C24.0001 5.90898 18.5913 0.500122 12.0001 0.500122Z" fill="#104347"/>
<path d="M12 6.17188C11.2568 6.17188 10.5536 6.32422 9.89058 6.56061V7.40783L11.5161 9.03331C11.6757 9.011 11.8343 8.98438 12 8.98438C13.9384 8.98438 15.5156 10.5616 15.5156 12.5C15.5156 14.4384 13.9384 16.0156 12 16.0156C10.0615 16.0156 8.48433 14.4384 8.48433 12.5C8.48433 12.3342 8.51095 12.1757 8.53327 12.0161L6.90783 10.3906H6.06061C5.82422 11.0536 5.67188 11.7567 5.67188 12.5C5.67188 15.9895 8.51048 18.828 12 18.828C15.4894 18.828 18.3281 15.9895 18.3281 12.5C18.3281 9.01044 15.4895 6.17188 12 6.17188Z" fill="#104347"/>
</g>
<defs>
<clipPath id="clip0_690_1525">
<rect width="24" height="24" fill="white" transform="translate(0 0.5)"/>
</clipPath>
</defs>
</svg>
