<svg width="24" height="25" viewBox="0 0 24 25" fill="none" xmlns="http://www.w3.org/2000/svg">
<path fill-rule="evenodd" clip-rule="evenodd" d="M6.01096 2.75073C5.04097 2.75073 4.21206 3.38432 3.8968 4.25309H20.1426C19.8269 3.38432 18.9969 2.75073 18.0269 2.75073H6.01096ZM3.00624 5.75692C1.77076 5.75692 0.748291 6.77794 0.748291 8.0134V20.0294C0.748291 21.2648 1.77076 22.2873 3.00624 22.2873H21.0331C22.2686 22.2873 23.2837 21.2648 23.2837 20.0294V8.0134C23.2837 6.77794 22.2686 5.75692 21.0331 5.75692H3.00624ZM12.0321 8.75138C12.2261 8.75486 12.4111 8.83319 12.5486 8.96998L15.5548 11.9762C15.6334 12.0435 15.6973 12.1264 15.7423 12.2196C15.7874 12.3128 15.8127 12.4143 15.8167 12.5178C15.8207 12.6212 15.8033 12.7244 15.7655 12.8208C15.7277 12.9172 15.6705 13.0047 15.5973 13.0779C15.524 13.1511 15.4365 13.2084 15.3401 13.2462C15.2437 13.284 15.1405 13.3014 15.0371 13.2974C14.9336 13.2934 14.8321 13.2681 14.7389 13.223C14.6457 13.1779 14.5628 13.1141 14.4955 13.0355L12.7701 11.3145V18.5138C12.7781 18.9397 12.4316 19.2862 12.0057 19.2782C11.5907 19.2697 11.26 18.9288 11.2678 18.5138V11.3101L9.54386 13.0355C9.46571 13.1167 9.37027 13.1794 9.26462 13.2187C9.15896 13.2581 9.0458 13.2732 8.93352 13.2629C8.79101 13.2487 8.65552 13.1941 8.543 13.1055C8.43049 13.0169 8.34564 12.898 8.29846 12.7628C8.25128 12.6276 8.24373 12.4817 8.27671 12.3423C8.30968 12.2029 8.3818 12.0759 8.48458 11.9762L11.4893 8.96998C11.5606 8.89908 11.6453 8.8432 11.7386 8.80565C11.8318 8.7681 11.9316 8.74965 12.0321 8.75138Z" fill="#104347"/>
</svg>
