<svg width="24" height="24" viewBox="0 0 24 24" fill="none" xmlns="http://www.w3.org/2000/svg">
<g clip-path="url(#clip0_702_426)">
<path d="M3.99994 8.00011C1.79169 8.00011 0 6.20911 0 3.99994C0 1.79077 1.79169 0 3.99994 0C6.20888 0 7.99988 1.791 7.99988 3.99994C7.99988 6.20888 9.79111 8.00011 12 8.00011C14.209 8.00011 16 6.20911 16 4.00017C16 1.79123 17.7912 0 20.0002 0C22.2091 0 24.0001 1.791 24.0001 3.99994C24.0001 6.20888 22.2091 7.99988 20.0002 7.99988C13.372 7.99988 8.00011 13.374 8.00011 19.9997C8.00011 22.2075 6.20911 23.9996 4.00017 23.9996C1.79123 23.9996 0 22.2091 0 20.0002C0 17.7912 1.791 16 3.99994 16C6.20888 16 7.99942 14.209 7.99942 12C7.99942 9.79111 6.20911 8.00011 3.99994 8.00011Z" fill="white"/>
<path d="M11 17.4998C11 13.908 13.9095 10.9998 17.5002 10.9998C21.0909 11 24 13.908 24 17.4998C24 21.0901 21.0909 24.0001 17.4998 24.0001C13.9091 24.0001 11 21.0901 11 17.4998Z" fill="white"/>
</g>
<defs>
<clipPath id="clip0_702_426">
<rect width="24" height="24" fill="white"/>
</clipPath>
</defs>
</svg>
