<svg width="160" height="160" viewBox="0 0 160 160" fill="none" xmlns="http://www.w3.org/2000/svg">
<g clip-path="url(#clip0_944_1404)">
<path d="M144.721 113.448L76.5274 119.082L15.2798 113.448V37.5451C15.2798 32.5978 19.2905 28.5874 24.2375 28.5874H135.763C140.71 28.5874 144.72 32.5981 144.72 37.5451V113.448H144.721Z" fill="#397277"/>
<path d="M25.1392 100.69V41.0548C25.1392 39.614 26.3073 38.4458 27.7482 38.4458H132.253C133.694 38.4458 134.862 39.614 134.862 41.0548V100.69C134.862 102.131 133.694 103.299 132.253 103.299H27.7482C26.3073 103.299 25.1392 102.131 25.1392 100.69Z" fill="white"/>
<path d="M132.253 38.4458H126.411V92.239C126.411 93.6799 125.243 94.8481 123.802 94.8481H25.1392V100.69C25.1392 102.131 26.3073 103.299 27.7482 103.299H132.253C133.694 103.299 134.862 102.131 134.862 100.69V41.0548C134.862 39.614 133.694 38.4458 132.253 38.4458Z" fill="#F3F3F3"/>
<path d="M148.17 113.448H107.638L77.9023 119.082L48.1662 113.448H11.8296C10.8192 113.448 10 114.267 10 115.277V121.88C10 127.144 14.2676 131.412 19.5318 131.412H140.468C145.732 131.412 150 127.144 150 121.88V115.277C150 114.267 149.181 113.448 148.17 113.448Z" fill="#397277"/>
<path d="M148.171 113.448H141.549C141.54 118.704 137.276 122.962 132.018 122.962H11.0818C10.7353 122.962 10.3933 122.942 10.0562 122.906C10.5677 127.688 14.6147 131.413 19.5325 131.413H140.469C145.733 131.413 150 127.145 150 121.881V115.278C150.001 114.267 149.182 113.448 148.171 113.448Z" fill="#104347"/>
<path d="M102.655 122.43H53.15C50.3976 122.43 48.166 120.199 48.166 117.446V113.448H107.638V117.446C107.638 120.198 105.407 122.43 102.655 122.43Z" fill="#042628"/>
<path d="M94.6522 62.5357C94.4277 61.4351 93.4874 60.6222 92.3657 60.5591C91.2463 60.492 90.2189 61.198 89.8719 62.2664C89.864 62.2906 89.8567 62.3149 89.8497 62.3394L87.0719 72.0833L84.1908 62.3182C84.1835 62.2929 84.1756 62.2678 84.1671 62.243C83.8091 61.1777 82.7764 60.4873 81.655 60.5616C80.5339 60.6368 79.6023 61.4599 79.3851 62.5878L76.562 78.2284C76.3547 79.3765 77.1178 80.4754 78.266 80.6827C79.4139 80.8887 80.5133 80.1273 80.7204 78.9788L82.2311 70.6081L84.7302 79.0796C84.7375 79.1047 84.7454 79.1295 84.7536 79.1543C85.093 80.165 86.0347 80.8419 87.1001 80.8419H87.1128C88.1832 80.8363 89.1246 80.1487 89.455 79.1304C89.4629 79.1061 89.4702 79.0819 89.4773 79.0574L91.8899 70.5937L93.4964 79.0002C93.7153 80.1464 94.8226 80.8988 95.968 80.6788C97.1142 80.4599 97.8654 79.3532 97.6466 78.2073L94.6522 62.5357Z" fill="#E7436A"/>
<path d="M47.227 60.7925H42.8126C42.2515 60.7925 41.7138 61.0156 41.3174 61.4128C40.9211 61.8099 40.6988 62.3483 40.7 62.9091L40.7315 78.4987C40.7335 79.0592 40.9583 79.5956 41.3557 79.9905C41.7515 80.3835 42.2867 80.6037 42.8442 80.6037H42.8521C42.9856 80.6032 46.134 80.5911 47.3929 80.5691C52.1678 80.4857 55.6335 76.3342 55.6335 70.6978C55.6335 64.7733 52.2552 60.7925 47.227 60.7925ZM47.3191 76.3443C46.7715 76.3539 45.8293 76.3618 44.9495 76.3674C44.9436 74.535 44.9321 66.9254 44.929 65.0175H47.2267C51.1064 65.0175 51.4081 69.3654 51.4081 70.6978C51.4081 74.5491 49.3546 76.3088 47.3191 76.3443Z" fill="#E7436A"/>
<path d="M111.131 60.5557C105.538 60.5557 100.988 65.1058 100.988 70.6988C100.988 76.2917 105.538 80.8421 111.131 80.8421C116.724 80.8421 121.274 76.292 121.274 70.6988C121.274 65.1058 116.724 60.5557 111.131 60.5557ZM111.131 76.6168C107.868 76.6168 105.213 73.9621 105.213 70.6988C105.213 67.4357 107.868 64.781 111.131 64.781C114.394 64.781 117.048 67.4357 117.048 70.6988C117.048 73.9619 114.394 76.6168 111.131 76.6168Z" fill="#E7436A"/>
<path d="M69.051 64.8533C70.2177 64.8533 71.1637 63.9074 71.1637 62.7406C71.1637 61.5738 70.2177 60.6279 69.051 60.6279H62.3453C61.1786 60.6279 60.2327 61.5738 60.2327 62.7406V78.6553C60.2327 79.822 61.1786 80.7679 62.3453 80.7679H69.051C70.2177 80.7679 71.1637 79.822 71.1637 78.6553C71.1637 77.4885 70.2177 76.5426 69.051 76.5426H64.458V72.8105H68.5566C69.7234 72.8105 70.6693 71.8645 70.6693 70.6978C70.6693 69.531 69.7234 68.5851 68.5566 68.5851H64.458V64.8533H69.051Z" fill="#E7436A"/>
</g>
<path d="M114.69 142C116.168 142 117.38 143.212 117.38 144.69C117.38 146.168 116.168 147.38 114.69 147.38C113.212 147.38 112 146.168 112 144.69C112 143.212 113.212 142 114.69 142Z" fill="#104347"/>
<path d="M95.6756 146C98.6612 146 101.351 148.394 101.351 151.676C101.351 154.661 98.9568 157.351 95.6756 157.351C92.3944 157.351 90 154.957 90 151.676C90.2956 148.394 92.69 146 95.6756 146Z" fill="#104347"/>
<path d="M60.69 140C62.168 140 63.38 141.212 63.38 142.69C63.38 144.168 62.168 145.38 60.69 145.38C59.212 145.38 58 144.168 58 142.69C58 141.212 59.212 140 60.69 140Z" fill="#104347"/>
<path d="M30.69 0C32.168 0 33.38 1.21197 33.38 2.68999C33.38 4.16802 32.168 5.38001 30.69 5.38001C29.212 5.38001 28 4.16802 28 2.68999C28 1.21197 29.212 0 30.69 0Z" fill="#104347"/>
<path d="M131.676 0C134.661 0 137.351 2.39439 137.351 5.67561C137.351 8.66121 134.957 11.3512 131.676 11.3512C128.394 11.3512 126 8.95682 126 5.67561C126.296 2.39439 128.69 0 131.676 0Z" fill="#104347"/>
<path d="M157.037 13.124C158.515 13.124 159.727 14.336 159.727 15.814C159.727 17.292 158.515 18.504 157.037 18.504C155.559 18.504 154.347 17.292 154.347 15.814C154.347 14.336 155.559 13.124 157.037 13.124Z" fill="#104347"/>
<path d="M15.2524 4C20.3368 4 24.5049 8.16803 24.5049 13.2524C24.5049 18.3368 20.3368 22.5049 15.2524 22.5049C10.168 22.5049 6 18.3368 6 13.2524C6 8.16803 10.168 4 15.2524 4Z" fill="#104347"/>
<defs>
<clipPath id="clip0_944_1404">
<rect width="140" height="140" fill="white" transform="translate(10 10)"/>
</clipPath>
</defs>
</svg>
