<svg width="168" height="160" viewBox="0 0 168 160" fill="none" xmlns="http://www.w3.org/2000/svg">
<path d="M19.4952 139.37C22.8237 139.37 25.8226 142.04 25.8226 145.698C25.8226 149.026 23.1532 152.025 19.4952 152.025C15.8371 152.025 13.1677 149.356 13.1677 145.698C13.4973 142.04 16.1667 139.37 19.4952 139.37Z" fill="#104347"/>
<path d="M156.845 33.2549C162.513 33.2549 167.16 37.9016 167.16 43.5699C167.16 49.2383 162.513 53.885 156.845 53.885C151.176 53.885 146.53 49.2383 146.53 43.5699C146.53 37.9016 151.176 33.2549 156.845 33.2549Z" fill="#104347"/>
<path d="M158.518 128.38L135.322 105.155L127.475 97.3373L118.479 88.3406C131.528 66.0071 128.625 36.9763 109.482 17.8332C87.1485 -4.50032 50.587 -4.78775 27.966 17.2584C5.05759 39.5919 4.77015 77.0158 27.3911 99.6655C46.5342 118.809 75.8524 121.999 97.8985 108.662L106.895 117.659L114.742 125.477L137.967 148.702C143.773 154.508 152.77 154.508 158.576 148.702C161.479 145.799 162.916 142.033 162.916 138.555C162.628 135.077 161.163 131.312 158.576 128.409L158.518 128.38Z" fill="#E7436A"/>
<path d="M96.7185 30.8831C81.0533 15.218 55.8167 15.218 40.439 30.8831C24.7739 46.5482 24.7739 71.7849 40.439 87.1626C56.1041 102.828 81.3408 102.828 96.7185 87.1626C112.096 71.4974 112.384 46.5482 96.7185 30.8831Z" fill="white"/>
<path d="M68.5805 39.3027C54.9561 39.3027 43.3438 47.4371 37.2502 59.3081C43.0564 71.2078 54.9561 79.3135 68.5805 79.3135C82.2048 79.3135 93.8171 71.1791 99.9107 59.3081C94.1045 47.4084 82.2048 39.3027 68.5805 39.3027Z" fill="#104347"/>
<path d="M68.8729 46.2642C75.915 46.2642 81.6349 51.9841 81.6349 59.0262C81.6349 66.0683 75.915 71.7882 68.8729 71.7882C61.8308 71.7882 56.1108 66.0683 56.1108 59.0262C56.1108 51.9841 61.8308 46.2642 68.8729 46.2642Z" fill="#D8F2F1"/>
<path d="M71.7727 54.3941C69.157 52.9569 65.9665 53.5318 64.2419 56.1474C61.9137 59.6254 64.5293 64.5692 68.8983 64.5692C71.8014 64.5692 74.4171 62.241 74.4171 59.0505C74.4171 57.2972 73.2673 55.5726 71.8014 54.4228L71.7727 54.3941Z" fill="#A8D2D6"/>
<path d="M127.47 97.6206L135.317 105.151L114.708 125.76L107.177 118.23L127.47 97.6206Z" fill="#C93B5C"/>
<path d="M149.529 81.1694C151.176 81.1694 152.528 82.5206 152.528 84.1684C152.528 85.8161 151.176 87.1673 149.529 87.1673C147.881 87.1673 146.53 85.8161 146.53 84.1684C146.53 82.5206 147.881 81.1694 149.529 81.1694Z" fill="#104347"/>
<path d="M141.232 6.32861C142.88 6.32861 144.231 7.67979 144.231 9.32756C144.231 10.9753 142.88 12.3265 141.232 12.3265C139.584 12.3265 138.233 10.9753 138.233 9.32756C138.233 7.67979 139.584 6.32861 141.232 6.32861Z" fill="#104347"/>
<path d="M95.3193 141.38C96.967 141.38 98.3182 142.731 98.3182 144.379C98.3182 146.027 96.967 147.378 95.3193 147.378C93.6715 147.378 92.3203 146.027 92.3203 144.379C92.3203 142.731 93.6715 141.38 95.3193 141.38Z" fill="#104347"/>
<path d="M69.3878 59.2187C69.3878 60.8664 68.0696 62.2176 66.3888 62.2176C64.7081 62.2176 63.3899 60.8994 63.3899 59.2187C63.3899 57.5379 64.7081 56.2197 66.0593 56.2197C67.0479 56.2197 68.0696 56.5493 68.7287 57.2084C69.0582 57.5379 69.3878 58.1971 69.3878 59.2187Z" fill="white"/>
<path d="M47.7707 154.002C49.4184 154.002 50.7696 155.353 50.7696 157.001C50.7696 158.649 49.4184 160 47.7707 160C46.1229 160 44.7717 158.649 44.7717 157.001C44.7717 155.353 46.1229 154.002 47.7707 154.002Z" fill="#104347"/>
<path d="M8.15739 0C9.80516 0 11.1563 1.35117 11.1563 2.99894C11.1563 4.64671 9.80516 5.99789 8.15739 5.99789C6.50962 5.99789 5.15845 4.64671 5.15845 2.99894C5.15845 1.35117 6.50962 0 8.15739 0Z" fill="#104347"/>
<path d="M3.83903 118.738C5.4868 118.738 6.83797 120.089 6.83797 121.737C6.83797 123.385 5.4868 124.736 3.83903 124.736C2.19126 124.736 0.840088 123.385 0.840088 121.737C0.840088 120.089 2.19126 118.738 3.83903 118.738Z" fill="#104347"/>
</svg>
