<svg width="160" height="160" viewBox="0 0 160 160" fill="none" xmlns="http://www.w3.org/2000/svg">
<path d="M148 32.4726L147.066 24.5586L83.9844 32.0033V24H76.0156V32.9412L12 40.4961L12.9339 48.4101L36.1719 45.6524V60.3906H44.1406V44.7153L76.0156 40.9655V148.047H83.9844V40.0275L115.859 36.2777V52.4219H123.828V35.3403L148 32.4726Z" fill="#104347"/>
<path d="M83.9844 32.0033V24H80V148.047H83.9844V40.0275L115.859 36.2777V52.4219H123.828V35.3403L148 32.4726L147.066 24.5586L83.9844 32.0033Z" fill="#042628"/>
<path d="M68.0469 128.125H12V56.4062H68.0469V128.125Z" fill="#397277"/>
<path d="M148 120.156H91.9531V48.4375H148V120.156Z" fill="#E7436A"/>
<path d="M131.11 70.6942L125.476 65.0601L119.841 70.6942L114.207 65.0601L108.573 70.6942L114.207 76.3284L108.573 81.9626L114.207 87.5967L119.841 81.9626L125.476 87.5967L131.11 81.9626L125.476 76.3284L131.11 70.6942Z" fill="white"/>
<path d="M36.1697 97.8998L25.384 87.1139L31.0179 81.48L36.1697 86.6315L49.2903 73.5112L54.9242 79.1451L36.1697 97.8998Z" fill="white"/>
<path d="M28.2029 104.219H52.1091V112.188H28.2029V104.219Z" fill="white"/>
<path d="M107.89 96.25H131.797V104.219H107.89V96.25Z" fill="white"/>
<path d="M52.1094 160C52.1094 151.21 59.2611 144.062 68.0469 144.062H91.9531C100.739 144.062 107.891 151.21 107.891 160H52.1094Z" fill="#104347"/>
<path d="M80 144.062V160H107.891C107.891 151.21 100.739 144.062 91.9531 144.062H80Z" fill="#042628"/>
<path d="M16.7349 148.507C19.7205 148.507 22.4105 150.901 22.4105 154.182C22.4105 157.168 20.0161 159.858 16.7349 159.858C13.4537 159.858 11.0593 157.464 11.0593 154.182C11.3549 150.901 13.7493 148.507 16.7349 148.507Z" fill="#104347"/>
<path d="M2.69 130C4.16803 130 5.38001 131.212 5.38001 132.69C5.38001 134.168 4.16803 135.38 2.69 135.38C1.21198 135.38 0 134.168 0 132.69C0 131.212 1.21198 130 2.69 130Z" fill="#104347"/>
<path d="M117.252 0C122.337 0 126.505 4.16803 126.505 9.25243C126.505 14.3368 122.337 18.5049 117.252 18.5049C112.168 18.5049 108 14.3368 108 9.25243C108 4.16803 112.168 0 117.252 0Z" fill="#104347"/>
<path d="M90.69 0C92.168 0 93.38 1.21198 93.38 2.69C93.38 4.16803 92.168 5.38001 90.69 5.38001C89.212 5.38001 88 4.16803 88 2.69C88 1.21198 89.212 0 90.69 0Z" fill="#104347"/>
<path d="M22.69 18C24.168 18 25.38 19.212 25.38 20.69C25.38 22.168 24.168 23.38 22.69 23.38C21.212 23.38 20 22.168 20 20.69C20 19.212 21.212 18 22.69 18Z" fill="#104347"/>
</svg>
