<svg width="172" height="160" viewBox="0 0 172 160" fill="none" xmlns="http://www.w3.org/2000/svg">
<path d="M157.992 25.1341C154.925 24.3613 152.821 21.3523 153.724 18.1829C154.546 15.299 157.745 13.3204 161.116 14.1696C164.486 15.0189 166.286 17.9514 165.383 21.1208C164.177 24.2137 161.058 25.9068 157.992 25.1341Z" fill="#104347"/>
<path d="M148.329 79.9985C149.9 79.9985 151.189 81.2105 151.189 82.6885C151.189 84.1666 149.9 85.3785 148.329 85.3785C146.757 85.3785 145.468 84.1666 145.468 82.6885C145.468 81.2105 146.757 79.9985 148.329 79.9985Z" fill="#104347"/>
<path d="M29.6493 158.424C28.1312 158.042 27.2199 156.557 27.6267 155.13C28.0334 153.702 29.6119 152.845 31.13 153.228C32.6482 153.61 33.5595 155.095 33.1527 156.522C32.7459 157.95 31.1675 158.807 29.6493 158.424Z" fill="#104347"/>
<path d="M135.552 5.89118C134.034 5.50864 133.122 4.02428 133.529 2.59662C133.936 1.16896 135.514 0.311952 137.033 0.694492C138.551 1.07703 139.462 2.56141 139.055 3.98907C138.649 5.41673 137.07 6.27372 135.552 5.89118Z" fill="#104347"/>
<path d="M13.4818 7.19092C15.0535 7.19092 16.3423 8.4029 16.3423 9.88092C16.3423 11.3589 15.0535 12.5709 13.4818 12.5709C11.9101 12.5709 10.6213 11.3589 10.6213 9.88092C10.6213 8.4029 11.9101 7.19092 13.4818 7.19092Z" fill="#104347"/>
<path d="M167.322 46.6446C165.804 46.2621 164.893 44.7777 165.3 43.35C165.706 41.9224 167.285 41.0654 168.803 41.4479C170.321 41.8305 171.232 43.3148 170.826 44.7425C170.419 46.1701 168.84 47.0271 167.322 46.6446Z" fill="#104347"/>
<g clip-path="url(#clip0_944_1507)">
<path d="M142.178 95.9912C140.973 95.9912 139.996 96.91 139.996 98.0434V126.888C139.996 134.108 133.728 139.982 126.024 139.982H107.73C106.525 139.982 105.548 140.9 105.548 142.034C105.548 143.167 106.525 144.086 107.73 144.086H126.024C136.135 144.086 144.361 136.371 144.361 126.888V98.0437C144.361 96.91 143.383 95.9912 142.178 95.9912Z" fill="#104347"/>
<path d="M101.845 148H113.433C116.893 148 119.699 145.361 119.699 142.107C119.699 138.853 116.893 136.214 113.433 136.214H101.845C98.384 136.214 95.5786 138.853 95.5786 142.107C95.5786 145.361 98.384 148 101.845 148Z" fill="#397277"/>
<path d="M152.071 112.546H142.376V74.1565C142.376 44.9141 117.096 21.1237 86.0219 21.1237C54.9481 21.1237 29.6673 44.9141 29.6673 74.1565V112.546H19.9722V74.1565C19.9722 39.8835 49.602 12 86.0216 12C122.441 12 152.071 39.8835 152.071 74.1565V112.546Z" fill="#104347"/>
<path d="M35.8842 73.1392H26.0289C19.2145 73.1392 13.6902 78.3343 13.6902 84.7425V104.574C13.6902 110.982 19.2145 116.177 26.0289 116.177H35.8842V73.1392Z" fill="#397277"/>
<path d="M35.885 67.0801C39.2336 67.0801 41.948 69.6327 41.948 72.7817V115.83C41.948 118.979 39.2336 121.532 35.885 121.532C32.5365 121.532 29.822 118.979 29.822 115.83V72.7817C29.822 69.633 32.5365 67.0801 35.885 67.0801Z" fill="#104347"/>
<path d="M136.115 115.473H145.971C152.785 115.473 158.309 110.278 158.309 103.869V84.0379C158.309 77.6297 152.785 72.4346 145.971 72.4346H136.115V115.473Z" fill="#397277"/>
<path d="M136.115 121.532C132.767 121.532 130.052 118.979 130.052 115.83V72.7817C130.052 69.6327 132.767 67.0801 136.115 67.0801C139.464 67.0801 142.178 69.6327 142.178 72.7817V115.83C142.178 118.979 139.464 121.532 136.115 121.532Z" fill="#104347"/>
<path d="M86.504 56C70.0569 56 56.7239 68.5359 56.7239 84C56.7239 92.1538 60.4318 99.4924 66.3476 104.61V111.992L73.4487 109.171C77.3909 110.982 81.8209 112 86.504 112C102.951 112 116.284 99.4638 116.284 84C116.284 68.5359 102.951 56 86.504 56Z" fill="#E7436A"/>
<path d="M97.1554 75.5773C96.8674 70.3563 92.2846 66.184 86.722 66.0785C81.3117 65.9813 76.6845 69.6876 75.9392 74.7111C75.871 75.1706 75.8364 75.6405 75.8364 76.1077C75.8364 77.4047 76.9544 78.456 78.3336 78.456C79.7128 78.456 80.8308 77.4047 80.8308 76.1077C80.8308 75.8573 80.8492 75.6059 80.8857 75.3606C81.2816 72.6916 83.7546 70.7156 86.6212 70.7743C89.578 70.8305 92.0144 73.0469 92.1672 75.8205C92.249 77.3013 91.6983 78.7068 90.6161 79.7785C89.5334 80.8512 88.0724 81.4418 86.5029 81.4418C85.1237 81.4418 84.0057 82.4931 84.0057 83.7901V91.8238C84.0057 93.1208 85.1237 94.1721 86.5029 94.1721C87.882 94.1721 89 93.1208 89 91.8238V85.8573C90.9833 85.405 92.8156 84.422 94.2381 83.0129C96.273 80.9977 97.309 78.3569 97.1554 75.5773Z" fill="white"/>
<path d="M86.5032 97.5376C83.2894 97.5376 83.284 102.235 86.5032 102.235C89.7169 102.235 89.7224 97.5376 86.5032 97.5376Z" fill="white"/>
</g>
<path d="M10.4339 148.269C5.21149 146.953 2.07744 141.849 3.47678 136.937C4.87612 132.026 10.3044 129.079 15.5269 130.395C20.7493 131.711 23.8833 136.816 22.484 141.727C21.0846 146.638 15.6563 149.585 10.4339 148.269Z" fill="#104347"/>
<defs>
<clipPath id="clip0_944_1507">
<rect width="144.62" height="136" fill="white" transform="translate(13.6902 12)"/>
</clipPath>
</defs>
</svg>
