<svg width="1680" height="470" viewBox="0 0 1680 470" fill="none" xmlns="http://www.w3.org/2000/svg">
<g opacity="0.1">
<path fill-rule="evenodd" clip-rule="evenodd" d="M1694.19 341.599C1723.71 384.438 1741.33 439.995 1728.11 495.722L1728.11 495.725C1716.13 546.142 1678.77 595.36 1625.52 618.223C1580.22 637.675 1543.48 629.207 1509.23 618.35C1503.59 616.564 1497.98 614.704 1492.29 612.82C1464.07 603.476 1434.07 593.542 1391.18 589.064C1371.25 586.983 1327.84 584.023 1281.41 591.441C1234.42 598.948 1189.76 616.193 1160.84 649.869L1160.84 649.875C1151.59 660.643 1131.79 685.668 1132.8 717.05C1133.44 736.848 1142.35 756.445 1157.06 773.635C1171.91 790.985 1190.6 803.391 1205.91 809.054C1232.4 818.846 1269.74 815.675 1311.11 792.86C1352 770.312 1393.74 729.957 1425.62 672.368L1492.83 709.588C1454.76 778.368 1403.15 829.846 1348.2 860.15C1293.73 890.188 1232.73 900.889 1179.28 881.128L1179.28 881.127C1150.94 870.649 1121.53 850.29 1098.69 823.595C1075.71 796.738 1057.36 761.007 1056.01 719.536L1056.01 719.534C1054.85 683.629 1066.82 653.617 1079.21 632.255C1051.02 639.42 1024.5 640.317 998.846 635.547L1004.14 607.075C998.845 635.547 998.835 635.546 998.825 635.544L998.648 635.51C998.572 635.496 998.486 635.479 998.39 635.461C998.199 635.423 997.969 635.377 997.701 635.322C997.166 635.213 996.482 635.067 995.658 634.881C994.011 634.509 991.802 633.976 989.122 633.246C983.775 631.791 976.471 629.537 967.963 626.201C951.105 619.592 928.609 608.383 907.268 589.967C858.092 547.529 838.48 489.153 831.653 437.657C820.982 441.287 810.572 446.279 799.325 453.461L799.324 453.462C760.037 478.549 736.683 515.499 722.371 546.138L652.766 513.613C670.195 476.301 701.483 424.773 757.98 388.696C782.305 373.162 805.928 364.252 829.361 358.715C831.223 329.332 835.495 305.739 838.045 293.493C856.678 204.021 908.466 118.313 974.555 56.9C1040.16 -4.0609 1125.2 -45.7093 1211.28 -35.8221C1241.27 -32.378 1275.99 -22.0658 1306.44 -4.20993C1336.72 13.5461 1366.38 40.9947 1379.07 80.2622C1379.07 80.2631 1379.07 80.264 1379.07 80.2649C1397.6 137.625 1371.48 192.733 1347.25 228.817C1321.93 266.518 1291.26 294.548 1282.5 302.336C1177.56 395.652 1027.07 412.598 946.588 421.661C945.547 421.778 944.519 421.894 943.502 422.009C943.501 422.009 943.501 422.009 943.5 422.009C930.202 423.51 918.332 424.633 907.56 425.626C912.722 467.043 927.2 505.68 957.456 531.79C970.431 542.986 984.686 550.225 996 554.661C1001.58 556.848 1006.22 558.265 1009.29 559.101C1010.82 559.517 1011.94 559.784 1012.57 559.926C1012.82 559.982 1012.99 560.018 1013.08 560.037C1032.41 563.593 1055.29 561.957 1085.98 548.999C1132.13 529.512 1159.05 502.881 1190.74 466.901C1194.75 462.347 1198.84 457.636 1203.05 452.786C1232.43 418.945 1267.7 378.324 1323.11 336.626L1323.11 336.625L1324.38 335.675C1353 314.134 1389.37 286.762 1429.35 267.929C1470.38 248.599 1519.22 236.294 1571.22 250.487M907.296 348.316C916.427 347.525 925.614 346.7 934.887 345.653L934.889 345.653C1018.7 336.2 1146.21 320.708 1231.45 244.908L1231.45 244.907C1238.61 238.542 1263.57 215.602 1283.47 185.97C1304.46 154.722 1313.15 126.135 1305.96 103.892L1305.96 103.889C1301.03 88.6255 1288.1 74.1059 1267.59 62.0783C1247.24 50.1503 1222.96 42.8639 1202.52 40.5163C1146.71 34.1064 1082.97 61.0429 1026.85 113.194C971.211 164.894 928.322 236.825 913.258 309.164L913.257 309.165C911.591 317.165 909.061 331.012 907.296 348.316ZM1246.44 519.897C1254.19 518.184 1261.83 516.754 1269.29 515.563C1325.15 506.638 1376.08 510.231 1399.15 512.639C1450.98 518.05 1489.22 530.784 1517.7 540.267C1522.94 542.01 1527.84 543.643 1532.44 545.101C1561.39 554.279 1575.8 555.951 1595.22 547.615C1624.56 535.015 1646.6 506.434 1653.36 477.973C1653.36 477.972 1653.36 477.971 1653.36 477.97C1660.22 449.048 1651.84 415.55 1630.93 385.201C1609.96 354.763 1579.63 332.432 1551 324.617L1551 324.617C1523.09 316.999 1493.84 322.484 1462.09 337.444C1429.86 352.624 1399.22 375.514 1369.3 398.028C1320.74 434.575 1290.63 469.19 1261.33 502.877C1257.01 507.834 1252.72 512.772 1248.39 517.692C1247.74 518.428 1247.09 519.163 1246.44 519.897ZM1694.19 341.599C1664.73 298.848 1620.2 263.855 1571.22 250.488L1694.19 341.599Z" fill="#BDDBD7"/>
<path fill-rule="evenodd" clip-rule="evenodd" d="M-318.684 717.816C-348.201 674.977 -365.826 619.42 -352.6 563.693L-352.599 563.69C-340.628 513.273 -303.264 464.055 -250.018 441.192C-204.717 421.74 -167.97 430.208 -133.721 441.065C-128.086 442.851 -122.469 444.711 -116.78 446.595C-88.5631 455.939 -58.5619 465.873 -15.672 470.351C4.25686 472.432 47.669 475.392 94.0979 467.974C141.087 460.467 185.751 443.222 214.663 409.546L214.668 409.54C223.918 398.772 243.72 373.747 242.707 342.365C242.066 322.567 233.153 302.97 218.445 285.78C203.601 268.43 184.907 256.024 169.592 250.361C143.105 240.569 105.77 243.74 64.3993 266.555C23.5111 289.103 -18.231 329.458 -50.11 387.047L-117.323 349.827C-79.2492 281.047 -27.6481 229.569 27.3035 199.265C81.7723 169.227 142.774 158.526 196.227 178.287L196.229 178.288C224.568 188.766 253.976 209.125 276.817 235.821C299.795 262.677 318.151 298.408 319.493 339.879L319.494 339.881C320.654 375.786 308.685 405.798 296.295 427.16C324.489 419.995 351.006 419.098 376.661 423.868L371.37 452.34C376.662 423.868 376.672 423.869 376.681 423.871L376.859 423.905C376.935 423.919 377.021 423.936 377.117 423.955C377.308 423.992 377.538 424.038 377.805 424.093C378.34 424.202 379.025 424.348 379.849 424.534C381.495 424.906 383.704 425.44 386.385 426.169C391.731 427.624 399.036 429.879 407.543 433.214C424.401 439.823 446.897 451.032 468.238 469.448C517.415 511.886 537.026 570.262 543.853 621.758C554.524 618.129 564.935 613.136 576.182 605.954L576.183 605.953C615.469 580.866 638.824 543.916 653.135 513.277L722.741 545.802C705.312 583.114 674.023 634.642 617.526 670.719C593.201 686.253 569.579 695.163 546.146 700.7C544.284 730.083 540.012 753.676 537.462 765.922C518.829 855.394 467.041 941.102 400.951 1002.52C335.348 1063.48 250.31 1105.12 164.224 1095.24C134.234 1091.79 99.5184 1081.48 69.0661 1063.62C38.7841 1045.87 9.12628 1018.42 -3.56032 979.153C-3.56061 979.152 -3.56088 979.151 -3.56116 979.15C-22.0948 921.791 4.02417 866.682 28.2579 830.598C53.578 792.897 84.2492 764.867 93.0084 757.079C197.949 663.763 348.439 646.817 428.919 637.754C429.959 637.637 430.988 637.521 432.004 637.406C432.005 637.406 432.006 637.406 432.007 637.406C445.304 635.905 457.175 634.782 467.946 633.789C462.785 592.372 448.307 553.736 418.051 527.626C405.076 516.429 390.821 509.19 379.507 504.754C373.928 502.567 369.291 501.15 366.218 500.314C364.688 499.898 363.567 499.631 362.937 499.489C362.691 499.433 362.521 499.397 362.431 499.378C343.093 495.822 320.214 497.458 289.528 510.416C243.379 529.903 216.458 556.534 184.771 592.514C180.76 597.068 176.67 601.779 172.459 606.629C143.075 640.47 107.805 681.091 52.394 722.789L52.3928 722.79L51.1303 723.74C22.5055 745.281 -13.8661 772.653 -53.8425 791.486C-94.8755 810.816 -143.715 823.121 -195.714 808.928M468.21 711.099C459.079 711.89 449.892 712.715 440.62 713.762L440.617 713.762C356.809 723.215 229.296 738.707 144.054 814.507L144.052 814.509C136.893 820.873 111.934 843.813 92.0331 873.445C71.0466 904.693 62.3557 933.28 69.5434 955.523L69.5442 955.526C74.4752 970.79 87.4081 985.309 107.92 997.337C128.263 1009.26 152.546 1016.55 172.987 1018.9C228.797 1025.31 292.536 998.372 348.659 946.221C404.295 894.522 447.184 822.59 462.249 750.251L462.249 750.25C463.916 742.25 466.446 728.403 468.21 711.099ZM129.066 539.518C121.313 541.231 113.672 542.661 106.218 543.852C50.3566 552.777 -0.577523 549.184 -23.6473 546.776C-75.4723 541.365 -113.716 528.631 -142.195 519.148C-147.429 517.405 -152.333 515.772 -156.931 514.314C-185.884 505.136 -200.295 503.464 -219.709 511.8C-249.053 524.4 -271.091 552.981 -277.85 581.442C-277.85 581.443 -277.851 581.444 -277.851 581.445C-284.714 610.367 -276.335 643.865 -255.424 674.214C-234.451 704.652 -204.126 726.983 -175.491 734.798L-175.49 734.798C-147.58 742.416 -118.337 736.931 -86.5807 721.971C-54.3579 706.791 -23.7169 683.901 6.20355 661.387C54.7697 624.84 84.8789 590.225 114.18 556.538C118.492 551.581 122.787 546.643 127.12 541.723C127.768 540.987 128.417 540.252 129.066 539.518ZM-318.684 717.816C-289.227 760.567 -244.696 795.56 -195.716 808.927L-318.684 717.816Z" fill="#BDDBD7"/>
</g>
</svg>
