<svg width="24" height="24" viewBox="0 0 24 24" fill="none" xmlns="http://www.w3.org/2000/svg">
<path d="M21.2677 13.9569C21.2554 13.5508 21.2062 13.1446 21.1323 12.7508C20.7508 10.7692 20.2708 8.78771 19.7415 6.83079C19.2492 5.04617 17.4154 4.25848 15.7169 5.05848C15.5569 5.13232 15.3723 5.31694 15.3477 5.47694C15.2246 6.16617 15.7292 6.59694 16.3815 6.40002C16.4554 6.3754 16.5169 6.36309 16.5908 6.35079C17.4892 6.11694 18.1169 6.48617 18.3508 7.37233C18.5846 8.27079 18.8061 9.18156 19.04 10.0923C19.1138 10.4 19.1877 10.6954 19.2738 11.0769C18.5969 10.6462 17.7846 10.4 16.9231 10.4C15.2985 10.4 13.8831 11.2739 13.12 12.5662C13.0708 12.64 13.0092 12.7016 12.9354 12.7508C12.5908 12.9723 12.2215 13.0462 11.7908 13.0339C11.6431 13.0216 11.5077 12.9969 11.4092 12.9846C11.2 12.9354 11.0154 12.8 10.9046 12.6154C10.1415 11.2862 8.71384 10.4 7.07692 10.4C6.2523 10.4 5.47692 10.6216 4.8123 11.0154C4.79999 10.9785 4.77538 10.9416 4.77538 10.9292C5.09538 9.64925 5.40307 8.35694 5.74769 7.08925C5.89538 6.5354 6.39999 6.22771 6.96615 6.26463C7.24923 6.27694 7.5323 6.36309 7.79076 6.46156C8.18461 6.59694 8.39384 6.44925 8.52923 6.10463C8.76307 5.50156 8.72615 5.26771 8.3323 5.07079C6.62153 4.23386 4.68923 5.12002 4.22153 6.96617C3.91384 8.19694 3.64307 9.42771 3.32307 10.6462C3.03999 11.7169 2.81846 12.7754 2.74461 13.8708C2.68307 14.1785 2.64615 14.4862 2.64615 14.8062C2.64615 17.1077 4.44307 19.0523 6.7323 19.2246C9.24307 19.4092 11.3477 17.5139 11.4831 15.0769H12.5046C12.64 17.3785 14.5354 19.2123 16.8738 19.2369C19.2 19.2616 21.1692 17.4523 21.3292 15.1385C21.3661 14.7446 21.3415 14.3385 21.2677 13.9569ZM14.56 14.8308C14.56 13.5139 15.5938 12.48 16.9231 12.48C18.2523 12.48 19.2861 13.5016 19.2985 14.8185C19.2985 16.1354 18.2646 17.1692 16.9354 17.1692C15.6062 17.1692 14.5723 16.1477 14.56 14.8308ZM7.08923 12.48C8.41846 12.48 9.4523 13.5139 9.4523 14.8185C9.4523 16.1354 8.41846 17.1569 7.08923 17.1569C5.75999 17.1569 4.72615 16.1231 4.72615 14.8185C4.72615 13.5139 5.75999 12.48 7.08923 12.48Z"/>
</svg>
