<svg xmlns="http://www.w3.org/2000/svg" width="125" height="33" viewBox="0 0 125 33" fill="none">
<path fill-rule="evenodd" clip-rule="evenodd" d="M95.0742 1.40576C93.8399 1.40576 92.793 2.38002 92.793 3.57894V29.4212C92.793 30.6216 93.4794 31.5944 94.7137 31.5944H120.519C121.755 31.5944 123.073 30.6216 123.073 29.4212V3.57894C123.073 2.38002 122.115 1.40576 120.88 1.40576H95.0742ZM99.2817 5.17935C100.776 5.17935 101.985 6.38545 101.985 7.87476C101.985 9.36407 100.776 10.5702 99.2817 10.5702C97.7878 10.5702 96.5781 9.36407 96.5781 7.87476C96.5781 6.38545 97.7878 5.17935 99.2817 5.17935ZM19.9789 5.28601C18.5471 5.28601 17.3795 6.4458 17.3795 7.87473C17.3795 9.30366 18.5471 10.4635 19.9789 10.4635C21.4122 10.4635 22.5727 9.30366 22.5727 7.87473C22.5727 6.4458 21.4122 5.28601 19.9789 5.28601ZM1.95209 5.71843V27.2818H14.9294V22.9691H6.27785V5.71843H1.95209ZM42.3258 5.71843V27.2818H46.6516V20.094L51.9856 27.2818H57.0914L50.9774 19.4229L56.745 12.9062H51.6983L46.6516 18.6564V5.71843H42.3258ZM84.1415 5.71843V14.6189H84.0993C83.2183 13.558 81.7618 12.7265 79.4187 12.7265C75.6336 12.7265 72.5752 15.6832 72.5752 20.1108C72.5752 24.7584 75.6787 27.4615 79.2835 27.4615C81.928 27.4615 83.4882 26.607 84.3865 25.569H84.4288V27.2818H88.4673V5.71843H84.1415ZM33.8715 12.7265C31.6019 12.7265 29.7644 13.8613 29.143 14.9783H29.098V12.9062H25.0228V27.2818H29.3486V20.3776C29.3486 18.2169 30.3847 16.5001 32.5591 16.5001C34.3499 16.5001 35.1162 17.9723 35.1162 20.0884V27.2818H39.442V19.3022C39.442 15.4812 38.2275 12.7265 33.8715 12.7265ZM64.2841 12.7265C59.3571 12.7265 56.745 15.6007 56.745 19.7739C56.745 24.4718 59.6283 27.4615 64.1574 27.4615C67.5517 27.4615 69.6533 26.2836 70.6742 24.9654L67.9819 22.7894C67.3993 23.5786 66.1081 24.5863 64.2278 24.5863C62.0736 24.5863 61.1352 23.0711 60.8511 21.832L60.8286 21.3883H71.0854C71.0854 21.3883 71.1643 20.9043 71.1643 20.4141C71.1643 15.5134 68.5393 12.7265 64.2841 12.7265ZM113.177 12.7265C117.533 12.7265 118.748 15.0312 118.748 19.3022V27.2818H114.422V20.0884C114.422 18.1764 113.656 16.5001 111.865 16.5001C109.69 16.5001 108.654 17.9682 108.654 20.3776V27.2818H104.328V12.9062H108.404V14.9783H108.448C109.07 13.8613 110.907 12.7265 113.177 12.7265ZM17.8132 12.9062V27.2818H22.139V12.9062H17.8132ZM97.1188 12.9062H101.445V27.2818H97.1188V12.9062ZM64.1546 15.6016C65.9137 15.6016 67.0307 17.1398 67.0018 18.6564H60.8286C60.9454 17.2318 62.0609 15.6016 64.1546 15.6016ZM80.5057 15.961C82.9815 15.961 84.4288 17.605 84.4288 20.0575C84.4288 22.4438 82.9815 24.227 80.5057 24.227C78.0329 24.227 76.6447 22.3964 76.6447 20.0575C76.6447 17.72 78.0329 15.961 80.5057 15.961Z" fill="#090C05"/>
</svg>