<svg width="24" height="24" viewBox="0 0 24 24" fill="none" xmlns="http://www.w3.org/2000/svg">
<path d="M11.0579 4.8177L11.3706 4.70613C11.559 4.18166 11.7487 3.65719 11.9371 3.13272L11.9973 2.96474L12.0575 3.13272L13.1175 6.10387L13.625 7.52212L14.3325 9.51101L14.84 10.928L15.2001 11.9359C15.2091 11.9577 15.2168 11.9782 15.2245 12H17.4558C17.4648 11.8525 17.4417 11.7205 17.3956 11.5576V11.555C17.3879 11.5255 17.3776 11.4922 17.3674 11.4601C17.3597 11.4371 17.3507 11.4114 17.3405 11.3845L16.8573 10.0316L16.7202 9.64565L16.1485 8.04018L15.6423 6.62449L13.707 1.2041C13.6096 0.932251 13.4584 0.696303 13.2572 0.502672C13.2443 0.489848 13.229 0.475743 13.2136 0.460355H13.2123L13.2072 0.456508C12.8791 0.161573 12.4497 0 11.9999 0C11.2245 0 10.5542 0.471896 10.294 1.20282L8.68555 5.65634L9.07132 5.51913L11.0579 4.8177Z" fill="white"/>
<path d="M12.9933 19.1515L12.6845 19.2605C12.6742 19.2887 12.664 19.3144 12.6537 19.34L12.0693 20.8839L12.0078 21.0468L11.9488 20.8827L10.8825 17.8948L10.3749 16.4779L9.6662 14.489L9.15995 13.0707C9.03179 12.7143 8.90491 12.3565 8.77674 12H6.50952C6.51465 12.1667 6.56079 12.3103 6.61077 12.4668L6.63128 12.5309L6.63384 12.5399C6.64281 12.5642 6.64922 12.5886 6.65819 12.6117L6.76585 12.9143L6.77482 12.9387L6.79148 12.9861L7.14137 13.9684L7.85268 15.9585L8.35765 17.3742L10.2942 22.7959C10.4211 23.1537 10.6492 23.4563 10.9543 23.6717C11.2593 23.8872 11.6207 24 12.0001 24C12.7755 24 13.447 23.5268 13.7072 22.7959L15.3746 18.309L14.9863 18.4463L12.9933 19.1515Z" fill="white"/>
<path d="M6.1083 10.8803L7.52451 10.3751L9.51362 9.66341L10.9285 9.15818L11.9359 8.79784V8.79271C11.959 8.78887 11.9795 8.78117 12 8.77348V6.54736C11.8142 6.54736 11.6322 6.57557 11.4591 6.632L11.4425 6.63584C11.4245 6.64226 11.4066 6.64867 11.3874 6.65508L10.8555 6.84486L10.7709 6.87564L10.034 7.13851L8.04358 7.84892L6.62736 8.35672L1.2009 10.2943C0.471644 10.5546 0 11.224 0 11.9985C0 12.7731 0.471644 13.4437 1.2009 13.704L5.64435 15.2774L5.50849 14.8953L4.80743 12.9077L4.7049 12.6179C4.68055 12.6012 4.65364 12.5884 4.62288 12.5794V12.5769L3.15155 12.0575L2.98238 11.9972L3.15155 11.937L6.1083 10.8803Z" fill="white"/>
<path d="M22.8005 10.2945L18.3058 8.59668L18.4429 8.98651L19.1478 10.9818L19.2581 11.296C19.8027 11.5076 20.3462 11.7179 20.8896 11.9282L21.0498 11.991L20.8883 12.0487L17.8918 13.1194L16.4769 13.6247L14.4878 14.3351L13.0716 14.8403C12.7153 14.9686 12.359 15.0955 12.0027 15.2225V17.4511C12.1347 17.4511 12.2667 17.437 12.3936 17.4075C12.3987 17.4075 12.4026 17.4075 12.4077 17.405H12.4141C12.4564 17.3921 12.4987 17.3819 12.5397 17.3678L12.5769 17.3562C12.5871 17.3537 12.5974 17.3498 12.6076 17.346L12.9549 17.2229L12.9947 17.2075L13.9674 16.86L15.308 16.3817L15.3516 16.365L15.9565 16.1496L16.3154 16.0213L16.3949 15.9931L17.3728 15.6431L22.8005 13.7042C23.5285 13.4439 24.0001 12.7745 24.0001 12C24.0001 11.2254 23.5285 10.5561 22.8005 10.2945Z" fill="white"/>
</svg>
