<svg xmlns="http://www.w3.org/2000/svg" width="114" height="43" viewBox="0 0 114 43" fill="none">
<g clip-path="url(#clip0_3036_4627)">
<path d="M51.4305 29.071V18.1013H51.6216L59.4279 29.071H61.8844V12.9618H59.1549V23.9039H58.9639L51.1576 12.9618H48.7011V29.071H51.4305ZM69.6088 29.3197C73.2117 29.3197 75.4226 26.9434 75.4226 22.9644C75.4226 19.0131 73.2117 16.6092 69.6088 16.6092C66.0332 16.6092 63.795 19.0131 63.795 22.9644C63.8223 26.9434 66.0059 29.3197 69.6088 29.3197ZM69.6088 26.9986C67.6982 26.9986 66.6064 25.5342 66.6064 22.9644C66.6064 20.4223 67.6982 18.9302 69.6088 18.9302C71.5194 18.9302 72.6112 20.4223 72.6112 22.9644C72.6112 25.5342 71.5194 26.9986 69.6088 26.9986ZM77.9064 13.8736V16.9407H75.9958V19.1513H77.9064V25.8105C77.9064 28.1868 78.9982 29.1263 81.7822 29.1263C82.3008 29.1263 82.8194 29.071 83.2289 28.9881V26.8328C82.9013 26.8605 82.683 26.8881 82.3008 26.8881C81.1545 26.8881 80.6359 26.3631 80.6359 25.1473V19.1513H83.2289V16.9407H80.6359V13.8736H77.9064ZM84.8665 29.071H87.596V16.8578H84.8665V29.071ZM86.2313 14.8407C87.132 14.8407 87.869 14.0947 87.869 13.1828C87.869 12.2434 87.132 11.4973 86.2313 11.4973C85.3306 11.4973 84.5936 12.2434 84.5936 13.1828C84.5936 14.0947 85.3306 14.8407 86.2313 14.8407ZM95.0748 29.3197C98.6777 29.3197 100.889 26.9434 100.889 22.9644C100.889 19.0131 98.6777 16.6092 95.0748 16.6092C91.4991 16.6092 89.261 19.0131 89.261 22.9644C89.261 26.9434 91.4446 29.3197 95.0748 29.3197ZM95.0748 26.9986C93.1641 26.9986 92.0723 25.5342 92.0723 22.9644C92.0723 20.4223 93.1641 18.9302 95.0748 18.9302C96.9581 18.9302 98.0772 20.4223 98.0772 22.9644C98.0499 25.5342 96.9581 26.9986 95.0748 26.9986ZM102.499 29.071H105.228V21.9697C105.228 20.1736 106.266 19.0407 107.876 19.0407C109.541 19.0407 110.305 19.9802 110.305 21.8315V29.071H113.035V21.1684C113.035 18.2394 111.561 16.6092 108.886 16.6092C107.084 16.6092 105.883 17.4381 105.31 18.8197H105.119V16.8578H102.472C102.499 16.8578 102.499 29.071 102.499 29.071Z" fill="#090C05"/>
<path fill-rule="evenodd" clip-rule="evenodd" d="M6.88618 7.9881C8.16903 9.0381 8.63303 8.9552 11.035 8.78942L33.6623 7.40784C34.1536 7.40784 33.7441 6.91047 33.5804 6.8552L29.8137 4.11968C29.104 3.56705 28.1214 2.90389 26.2927 3.06968L4.40236 4.69994C3.61081 4.78284 3.44704 5.19731 3.77458 5.50126L6.88618 7.9881ZM8.25091 13.321V37.4157C8.25091 38.7144 8.87869 39.1842 10.3253 39.1013L35.1908 37.6368C36.6374 37.5539 36.8012 36.6697 36.8012 35.6197V11.6907C36.8012 10.6407 36.3917 10.0605 35.5183 10.1434L9.53376 11.6907C8.57845 11.7736 8.25091 12.271 8.25091 13.321ZM32.7888 14.6197C32.9526 15.3381 32.7888 16.0842 32.0792 16.167L30.8782 16.4157V34.2105C29.841 34.7631 28.8857 35.0947 28.0669 35.0947C26.784 35.0947 26.4565 34.6802 25.5012 33.4644L17.6676 21.0026V33.0499L20.1514 33.6026C20.1514 33.6026 20.1514 35.0671 18.1589 35.0671L12.6454 35.3986C12.4816 35.0671 12.6454 34.2657 13.1912 34.0999L14.6379 33.6855V17.7697L12.6454 17.6039C12.4816 16.8855 12.891 15.8355 14.0101 15.7526L19.933 15.3381L28.0941 27.9381V16.8026L26.0198 16.5539C25.856 15.6697 26.5111 15.0065 27.3026 14.9236L32.7888 14.6197ZM2.57361 2.48941L25.3647 0.803888C28.1487 0.555204 28.8857 0.720994 30.6326 2.01968L37.8929 7.18678C39.0939 8.07099 39.5033 8.31968 39.5033 9.28678V37.6644C39.5033 39.4328 38.8755 40.4828 36.6374 40.6486L10.1888 42.2789C8.49656 42.3618 7.70502 42.1131 6.83159 40.9802L1.45453 33.9342C0.499218 32.6355 0.089798 31.6684 0.089798 30.5355V5.30783C0.089798 3.84336 0.74487 2.6552 2.57361 2.48941Z" fill="#090C05"/>
</g>
<defs>
<clipPath id="clip0_3036_4627">
<rect width="113" height="42" fill="white" transform="translate(0.0619507 0.5)"/>
</clipPath>
</defs>
</svg>