<svg width="25" height="24" viewBox="0 0 25 24" fill="none" xmlns="http://www.w3.org/2000/svg">
<path d="M12.5 3C12.1761 3 11.9141 3.26207 11.9141 3.58594V5.34375C11.9141 5.66762 12.1761 5.92969 12.5 5.92969C12.8239 5.92969 13.0859 5.66762 13.0859 5.34375V3.58594C13.0859 3.26207 12.8239 3 12.5 3Z"/>
<path d="M9.39864 6.68728L8.22677 5.5154C7.99786 5.28653 7.62708 5.28653 7.39821 5.5154C7.16935 5.74427 7.16935 6.11509 7.39821 6.34396L8.57009 7.51583C8.79896 7.7447 9.16978 7.7447 9.39864 7.51583C9.62751 7.28696 9.62751 6.91614 9.39864 6.68728Z"/>
<path d="M17.6018 5.5154C17.3729 5.28653 17.0021 5.28653 16.7732 5.5154L15.6013 6.68728C15.3725 6.91614 15.3725 7.28696 15.6013 7.51583C15.8302 7.7447 16.201 7.7447 16.4299 7.51583L17.6018 6.34396C17.8306 6.11509 17.8306 5.74427 17.6018 5.5154Z"/>
<path d="M21.9141 11.2031H20.1172V19.4062H21.9141C22.2379 19.4062 22.5 19.1442 22.5 18.8203V11.7891C22.5 11.4652 22.2379 11.2031 21.9141 11.2031Z"/>
<path d="M3.08594 11.2031C2.76207 11.2031 2.5 11.4652 2.5 11.7891V18.8203C2.5 19.1442 2.76207 19.4062 3.08594 19.4062H4.88281V11.2031H3.08594Z"/>
<path d="M12.0524 11.7891C11.6055 11.7891 11.2039 12.0374 11.0042 12.4368L9.22061 16.005C9.51928 16.1361 9.83514 16.2025 10.1579 16.2025C11.0499 16.2025 11.8528 15.7052 12.2527 14.9041L12.6384 14.1328H13.7725C14.0809 14.1328 14.383 14.2581 14.601 14.4761L18.9452 18.8203V11.7891H12.0524Z"/>
<path d="M13.7726 15.3046H13.3629L13.3291 15.3723C12.7756 16.4792 11.6962 17.2607 10.4627 17.3615C9.55516 17.4358 8.92621 17.1747 8.18043 16.8355C7.87715 16.6976 7.7452 16.3352 7.89418 16.0372L9.9557 11.9131C10.3527 11.1188 11.1646 10.6171 12.0525 10.6171H14.5812C14.7435 10.2576 14.8438 9.86511 14.8438 9.44519C14.8438 9.12132 14.5817 8.85925 14.2578 8.85925H9.70879C9.04281 8.85925 8.43406 9.23546 8.13621 9.83113L7.6123 10.879C7.51301 11.0775 7.31012 11.203 7.08809 11.203H6.05469V19.4061H8.74176L10.4017 21.0661C10.8829 21.5473 11.5759 21.6992 12.1738 21.4992L17.1778 19.9262C17.4768 19.8421 17.7289 19.6775 17.9346 19.4666L13.7726 15.3046Z"/>
</svg>
