<svg width="41" height="36" viewBox="0 0 41 36" fill="none" xmlns="http://www.w3.org/2000/svg">
<g clip-path="url(#clip0_1788_3216)">
<path d="M16.2104 2.8465C10.3516 6.00105 5.76099 11.4424 3.6317 17.739C2.77135 20.2744 2.30588 23.0237 2.84207 25.6567C3.39148 28.2783 5.06786 30.7675 7.55585 31.7736C10.2373 32.8552 13.5795 31.9464 15.3422 29.648C17.0927 27.3487 17.099 23.8842 15.3478 21.576C14.4837 20.4352 13.2512 19.5914 12.44 18.4046C11.0096 16.3051 11.1227 13.4442 12.0936 11.1029C13.0655 8.74913 14.7785 6.80737 16.1849 2.85713L16.2104 2.8465Z" fill="#E7436A"/>
<path d="M16.2104 2.8465C10.3516 6.00105 5.76099 11.4424 3.6317 17.739C2.77135 20.2744 2.30588 23.0237 2.84207 25.6567C3.39148 28.2783 5.06786 30.7675 7.55585 31.7736C10.2373 32.8552 13.5795 31.9464 15.3422 29.648C17.0927 27.3487 17.099 23.8842 15.3478 21.576C14.4838 20.4352 13.2512 19.5914 12.44 18.4046C11.0096 16.3051 11.1227 13.4442 12.0936 11.1029C13.0655 8.74913 14.7785 6.80737 16.1849 2.85713L16.2104 2.8465Z" stroke="white" stroke-width="2" stroke-linecap="round" stroke-linejoin="round"/>
<path d="M36.6353 4.87087C30.7825 7.9389 26.4086 13.6562 24.9636 20.1124C24.3648 22.8151 24.2738 25.7148 25.3236 28.2844C26.3743 30.8417 28.7466 32.9697 31.514 33.1757C33.5903 33.3209 35.7205 32.3397 36.9449 30.637C38.1684 28.9466 38.4314 26.6054 37.6218 24.686C36.844 22.8433 35.2258 21.4758 34.2946 19.6968C33.1128 17.4161 33.2067 14.6532 33.9736 12.2106C34.7405 9.76804 36.1363 7.56813 36.6345 4.88322L36.6353 4.87087Z" fill="#E7436A"/>
<path d="M36.6353 4.87087C30.7825 7.9389 26.4086 13.6562 24.9636 20.1124C24.3648 22.8151 24.2738 25.7148 25.3236 28.2844C26.3743 30.8417 28.7466 32.9697 31.514 33.1757C33.5903 33.3209 35.7205 32.3397 36.9449 30.637C38.1684 28.9466 38.4314 26.6054 37.6218 24.686C36.844 22.8433 35.2258 21.4758 34.2946 19.6968C33.1128 17.4161 33.2067 14.6532 33.9736 12.2106C34.7405 9.76804 36.1363 7.56813 36.6345 4.88322L36.6353 4.87087Z" stroke="white" stroke-width="2" stroke-linecap="round" stroke-linejoin="round"/>
</g>
<defs>
<clipPath id="clip0_1788_3216">
<rect width="37.9099" height="32" fill="white" transform="translate(3.04004 0.807831) rotate(4)"/>
</clipPath>
</defs>
</svg>
