<svg xmlns="http://www.w3.org/2000/svg" width="152" height="32" viewBox="0 0 152 32" fill="none">
    <path d="M-0.709615 0.526367C4.57941 0.528401 9.86843 0.526367 15.1574 0.528401C17.8732 0.550778 20.6133 1.52518 22.6007 3.40075C24.2505 4.93049 25.3002 7.14578 25.229 9.41599C25.2941 11.4746 24.6472 13.578 23.3168 15.1668C22.2569 16.4707 20.7719 17.3638 19.2015 17.9171C20.8431 18.3849 22.4237 19.2922 23.3941 20.7325C24.159 21.8147 24.4478 23.1552 24.46 24.4633C24.4621 26.8759 24.4641 29.2885 24.458 31.7011C22.2224 31.697 19.9867 31.7011 17.7511 31.699C17.747 29.7624 17.7552 27.8258 17.7491 25.8893C17.7023 24.506 17.387 23.0311 16.3861 22.014C15.3263 20.9542 13.766 20.6348 12.3217 20.5697C10.8082 20.5514 9.2968 20.5677 7.78333 20.5636C7.78943 18.7633 7.76706 16.965 7.79554 15.1647C9.97624 15.1851 12.1569 15.1668 14.3376 15.1749C15.8613 15.1729 17.332 14.231 17.9789 12.8498C18.8638 11.0312 18.5973 8.53516 16.9923 7.19257C16.083 6.44804 14.8808 6.16324 13.7253 6.16934C11.03 6.17545 8.33664 6.16731 5.64331 6.17341C5.64535 12.8172 5.64331 19.4611 5.64331 26.1069C3.52567 26.1069 1.40599 26.1069 -0.71165 26.1069C-0.71165 17.5794 -0.713684 9.05389 -0.709615 0.526367Z" fill="#090C05" />
    <path d="M79.6429 0.526367C81.8277 0.528401 84.0125 0.528401 86.1993 0.526367C86.1993 7.23935 86.2013 13.9523 86.1993 20.6653C87.8775 20.6674 89.5558 20.6653 91.2361 20.6674C93.3822 20.6979 95.3147 18.863 95.5202 16.7494C95.8741 14.5219 94.3423 12.091 92.0721 11.6923C90.8699 11.5214 89.6493 11.6516 88.441 11.613C88.439 9.79842 88.441 7.98592 88.439 6.17341C89.8467 6.16731 91.2544 6.17545 92.6621 6.16934C95.6137 6.10832 98.4983 7.6523 100.227 10.0222C101.965 12.3738 102.544 15.4841 101.977 18.3321C101.175 21.8899 98.126 24.5955 94.7146 25.6289C92.9997 26.1883 91.175 26.1659 89.393 26.1557C86.1423 26.1557 82.8916 26.1557 79.6409 26.1557C79.6409 17.6119 79.6389 9.07017 79.6429 0.526367Z" fill="#090C05" />
    <path d="M131.158 0.528381C133.361 0.526347 135.564 0.526347 137.769 0.528381C137.769 4.59482 137.767 8.6633 137.769 12.7318C139.148 12.683 140.548 12.8538 141.915 12.6016C143.197 12.3371 144.234 11.3505 144.678 10.1361C145.206 8.86469 145.168 7.46106 145.213 6.11236C147.377 6.13474 149.541 6.1144 151.708 6.12254C151.653 8.23001 151.671 10.4799 150.571 12.3575C149.629 13.9971 147.851 14.9043 146.114 15.4638C148.17 16.0415 150.172 17.2824 151.091 19.282C152.161 21.4017 151.793 23.8245 151.856 26.1069C149.67 26.1069 147.483 26.1069 145.298 26.1069C145.172 24.2171 145.686 22.1503 144.669 20.4293C143.884 19.0074 142.243 18.2913 140.678 18.1896C139.71 18.149 138.738 18.1856 137.769 18.1734C137.767 20.8179 137.767 23.4624 137.769 26.1049C135.564 26.1069 133.361 26.1069 131.158 26.1049C131.16 17.5794 131.158 9.05387 131.158 0.528381Z" fill="#090C05" />
    <path d="M113.525 6.10423C116.766 5.53464 120.258 5.81944 123.196 7.38376C125.438 8.57583 127.191 10.6589 127.911 13.1C128.798 16.1168 128.438 19.577 126.603 22.1788C125.057 24.4144 122.563 25.8628 119.941 26.4507C116.884 27.1281 113.58 26.9145 110.726 25.5739C107.988 24.3025 105.754 21.8533 105.008 18.8976C104.241 15.8523 104.816 12.4144 106.792 9.93267C108.446 7.85571 110.939 6.57414 113.525 6.10423ZM115.14 11.1756C112.78 11.7655 111.027 14.1395 111.196 16.5724C111.291 18.3056 112.288 19.9696 113.789 20.8484C115.279 21.778 117.229 21.8635 118.804 21.0905C121.227 19.9716 122.494 16.8979 121.477 14.4121C120.586 11.9283 117.677 10.429 115.14 11.1756Z" fill="#090C05" />
    <path d="M28.9757 10.8176C30.6966 8.047 33.8436 6.23043 37.1106 6.17754C41.354 6.1633 45.5954 6.1755 49.8368 6.17144C49.8063 8.1182 49.8999 10.0792 49.792 12.0138C48.4108 14.2107 46.997 16.3894 45.6056 18.5803C43.4981 18.5742 41.3927 18.5905 39.2872 18.5722C40.6807 16.2552 42.0802 13.9402 43.4554 11.613C41.7548 11.609 40.0541 11.6171 38.3515 11.609C36.8136 11.5581 35.3225 12.4491 34.5291 13.749C33.5771 15.2584 33.6341 17.3394 34.6919 18.7837C35.5442 20.0246 37.0435 20.7447 38.5386 20.7183C42.304 20.7183 46.0714 20.7162 49.8368 20.7183C49.8368 22.5308 49.8388 24.3433 49.8368 26.1558C46.2097 26.1578 42.5827 26.1558 38.9556 26.1578C37.4666 26.1599 35.9429 26.1741 34.5068 25.7225C31.6649 24.8925 29.2767 22.6915 28.1823 19.9453C26.978 17.0078 27.2669 13.5008 28.9757 10.8176Z" fill="#090C05" />
    <path d="M56.9586 8.10181C58.6186 6.85278 60.6854 6.19369 62.7562 6.17131C66.9264 6.16928 71.0966 6.17131 75.2647 6.17131C75.2688 8.11605 75.2586 10.0608 75.2708 12.0055C73.8693 14.1964 72.4717 16.3913 71.0661 18.5802C68.9627 18.5781 66.8613 18.5802 64.7579 18.5802C66.131 16.2489 67.5407 13.9401 68.924 11.6129C67.0668 11.617 65.2095 11.5987 63.3522 11.619C60.8847 11.8184 58.942 14.3428 59.3529 16.7799C59.6235 18.8894 61.5235 20.649 63.6594 20.7059C67.5448 20.7324 71.4302 20.712 75.3136 20.7161C75.3197 22.5286 75.3136 24.3411 75.3176 26.1557C71.1393 26.1455 66.961 26.1801 62.7827 26.1394C60.2114 26.1374 57.6482 25.0938 55.85 23.2487C53.71 21.1718 52.6379 18.0797 52.9634 15.124C53.2258 12.3595 54.7149 9.73733 56.9586 8.10181Z" fill="#090C05" />
</svg>