<svg width="24" height="24" viewBox="0 0 24 24" fill="none" xmlns="http://www.w3.org/2000/svg">
<g clip-path="url(#clip0_690_1511)">
<path d="M23.7014 20.1244L23.6587 20.0667C22.7794 19.0486 21.6989 18.3028 20.654 17.5823C20.2275 17.288 19.4695 16.8136 18.9333 16.432C20.1778 14.6747 20.8444 12.5736 20.8406 10.4203C20.8406 4.66547 16.1751 0 10.4198 0C4.66451 0 -0.000488281 4.66547 -0.000488281 10.4203C-0.000488281 16.1752 4.66498 20.8411 10.4198 20.8411C12.5705 20.8443 14.6689 20.1791 16.425 18.9375C16.807 19.4733 17.2809 20.2298 17.5758 20.6564C18.2981 21.7031 19.0448 22.7812 20.062 23.6597L20.1197 23.7019C20.4441 23.9002 20.8176 24.0035 21.1978 24C21.7725 23.9982 22.3261 23.7835 22.7517 23.3972L23.3808 22.7695L23.3958 22.7541C24.0656 22.0209 24.194 20.9152 23.7014 20.1244ZM10.4198 18.1223C8.63766 18.1225 6.91057 17.5048 5.53284 16.3743C4.1551 15.2438 3.21197 13.6706 2.86415 11.9227C2.51633 10.1749 2.78535 8.36043 3.62535 6.78865C4.46536 5.21687 5.82438 3.98499 7.47085 3.3029C9.11732 2.62082 10.9494 2.53074 12.6548 3.04802C14.3602 3.56529 15.8335 4.65792 16.8237 6.13971C17.8138 7.6215 18.2595 9.40078 18.0849 11.1744C17.9102 12.9479 17.126 14.6061 15.8658 15.8663C15.1523 16.5837 14.3036 17.1525 13.3688 17.5398C12.434 17.9271 11.4317 18.1251 10.4198 18.1223Z" fill="#104347"/>
<path d="M10.4194 11.3817C12.1086 11.3817 13.478 10.0123 13.478 8.32312C13.478 6.63391 12.1086 5.26453 10.4194 5.26453C8.73022 5.26453 7.36084 6.63391 7.36084 8.32312C7.36084 10.0123 8.73022 11.3817 10.4194 11.3817Z" fill="#104347"/>
<path d="M15.4583 13.9036C15.4124 13.4746 15.2204 13.0744 14.9146 12.7701C14.6075 12.4623 14.2047 12.2683 13.7727 12.2198C13.1403 12.1528 11.5696 12.1162 10.5913 12.1162C9.61299 12.1162 7.68783 12.1528 7.05502 12.2198C6.62306 12.2683 6.22041 12.4622 5.91314 12.7696C5.60742 13.074 5.41561 13.4741 5.36986 13.9031V13.9162C5.35486 14.0615 5.34596 14.1876 5.34033 14.2954C5.51352 14.5219 5.70142 14.7368 5.90283 14.9386C7.10116 16.1367 8.72632 16.8098 10.4209 16.8098C12.1154 16.8098 13.7406 16.1367 14.9389 14.9386C15.1372 14.7399 15.3224 14.5287 15.4935 14.3062C15.4864 14.1961 15.4761 14.0667 15.4606 13.9167L15.4583 13.9036Z" fill="#104347"/>
</g>
<defs>
<clipPath id="clip0_690_1511">
<rect width="24" height="24" fill="white" transform="translate(-0.000488281)"/>
</clipPath>
</defs>
</svg>
