<svg width="20" height="20" viewBox="0 0 20 20" fill="none" xmlns="http://www.w3.org/2000/svg">
<path d="M11.875 0H2.29167C1.025 0 0 1.025 0 2.29167V15.2083C0 16.475 1.025 17.5 2.29167 17.5H9.075C8.34166 16.5 7.91666 15.2833 7.91666 13.9583C7.91666 10.625 10.625 7.91666 13.9583 7.91666C14.025 7.91666 14.1 7.91666 14.1667 7.925V2.29167C14.1667 1.025 13.1417 0 11.875 0ZM3.33333 3.33333H6.66666C7.125 3.33333 7.5 3.70833 7.5 4.16667C7.5 4.625 7.125 5 6.66666 5H3.33333C2.875 5 2.5 4.625 2.5 4.16667C2.5 3.70833 2.875 3.33333 3.33333 3.33333ZM7.5 11.6667H3.33333C2.875 11.6667 2.5 11.2917 2.5 10.8333C2.5 10.375 2.875 10 3.33333 10H7.5C7.95833 10 8.33333 10.375 8.33333 10.8333C8.33333 11.2917 7.95833 11.6667 7.5 11.6667ZM10.8333 8.33333H3.33333C2.875 8.33333 2.5 7.95833 2.5 7.5C2.5 7.04166 2.875 6.66666 3.33333 6.66666H10.8333C11.2917 6.66666 11.6667 7.04166 11.6667 7.5C11.6667 7.95833 11.2917 8.33333 10.8333 8.33333Z" fill="#0A2E31"/>
<path d="M13.9574 18.3334C11.5449 18.3334 9.5824 16.3709 9.5824 13.9584C9.5824 11.5459 11.5449 9.58344 13.9574 9.58344C16.3699 9.58344 18.3324 11.5459 18.3324 13.9584C18.3324 16.3709 16.3699 18.3334 13.9574 18.3334ZM13.9574 11.2501C12.4641 11.2501 11.2491 12.4651 11.2491 13.9584C11.2491 15.4518 12.4641 16.6668 13.9574 16.6668C15.4507 16.6668 16.6657 15.4518 16.6657 13.9584C16.6657 12.4651 15.4507 11.2501 13.9574 11.2501Z" fill="#0A2E31"/>
<path d="M19.1669 20C18.9535 20 18.7402 19.9183 18.5777 19.7558L15.8694 17.0475C15.5435 16.7216 15.5435 16.195 15.8694 15.8691C16.1952 15.5433 16.7219 15.5433 17.0477 15.8691L19.756 18.5775C20.0819 18.9033 20.0819 19.43 19.756 19.7558C19.5935 19.9183 19.3802 20 19.1669 20Z" fill="#0A2E31"/>
</svg>
