<svg xmlns="http://www.w3.org/2000/svg" width="1262" height="617" viewBox="0 0 1262 617" fill="none">
<g clip-path="url(#clip0_812_5283)">
<path d="M306.776 147.47C308.859 160.498 318.755 139.654 306.776 147.47V147.47ZM297.401 147.991C300.526 147.991 302.609 145.907 301.567 143.823C300.526 143.823 291.671 147.991 297.401 147.991ZM316.672 83.3754C316.672 83.3754 320.839 80.7699 323.443 80.2488C319.276 76.08 313.026 76.6011 307.297 77.1222C307.297 82.8543 310.943 84.9387 316.672 83.3754ZM872.41 366.331C870.327 368.936 871.889 383.527 877.098 378.316C880.223 375.71 873.452 367.373 872.41 366.331ZM1098.98 553.404C1100.54 557.573 1103.66 562.784 1107.83 564.347C1107.83 563.305 1107.83 562.784 1107.83 561.742H1110.96C1110.96 558.094 1112 557.573 1112 553.925C1109.39 554.446 1098.46 551.841 1098.98 553.925V553.404ZM1110.43 548.193C1110.43 548.193 1112 551.32 1113.56 551.841C1113.56 549.235 1112.52 548.193 1110.43 548.193ZM1096.89 547.151C1096.89 547.151 1096.37 549.756 1097.41 550.277C1097.41 550.277 1097.41 546.63 1096.89 547.151ZM1184.92 577.374C1190.64 577.374 1192.21 566.431 1199.5 564.868C1196.37 558.094 1208.35 559.136 1199.5 553.925C1192.73 549.756 1195.33 557.052 1191.17 561.22C1187.52 565.389 1180.75 566.431 1178.14 570.6C1176.06 574.248 1176.58 577.895 1184.39 576.853L1184.92 577.374ZM1180.23 579.459C1180.23 579.459 1179.19 579.98 1178.67 581.022H1181.79C1181.79 581.022 1181.79 578.417 1180.23 579.459ZM1203.67 538.292C1203.67 538.292 1203.67 544.545 1203.67 545.066C1203.67 545.066 1200.54 545.066 1200.54 547.151C1200.54 549.756 1202.62 547.151 1203.14 548.714C1203.14 548.714 1206.27 555.488 1207.83 554.967C1208.35 554.967 1210.44 551.32 1211.48 550.277C1217.21 545.066 1220.85 538.813 1209.39 540.898C1209.39 537.771 1208.35 533.081 1206.27 537.771C1204.19 536.208 1203.67 531.518 1201.06 528.912C1196.37 524.223 1203.14 536.208 1203.14 538.292H1203.67ZM1167.21 473.155C1169.81 477.324 1172.42 480.972 1178.67 481.493C1178.67 478.887 1169.81 473.155 1167.21 473.155ZM1048.45 440.326C1043.77 441.368 1051.06 441.889 1052.62 441.889V440.326C1052.62 440.326 1047.41 440.326 1048.45 440.326ZM1090.12 442.411C1084.91 449.185 1092.21 465.86 1079.71 462.212C1079.71 462.212 1068.77 454.917 1068.25 454.396C1066.16 449.706 1070.33 447.622 1071.89 443.453C1065.64 442.932 1059.39 439.284 1053.66 439.284C1054.7 440.326 1054.7 440.847 1056.79 442.411C1055.75 441.889 1049.5 446.058 1047.93 447.1C1043.25 450.227 1050.54 450.748 1042.2 452.311C1039.6 452.311 1038.04 449.185 1033.87 450.748C1030.23 452.311 1029.7 457.001 1025.54 457.001C1026.06 458.565 1026.58 460.649 1027.1 461.691H1023.98V459.086C1019.29 459.086 1017.73 468.986 1012 471.592C1007.83 473.676 1001.06 474.197 996.891 475.761C994.808 476.282 993.766 483.056 991.162 477.845C989.079 484.098 988.558 487.746 992.204 493.478C984.912 490.351 992.725 501.294 994.287 505.463C997.412 513.801 1000.54 519.012 994.287 524.223C998.454 524.223 1001.06 528.912 1006.27 527.87C1009.39 527.87 1010.95 523.702 1014.6 523.18C1017.2 522.659 1020.33 525.265 1022.41 524.744C1025.02 524.223 1025.02 522.138 1027.1 521.096C1029.18 520.575 1031.27 517.969 1033.35 516.927C1034.91 516.406 1036.48 518.491 1038.04 517.969C1044.29 515.364 1052.1 511.716 1059.91 515.885C1064.6 518.491 1068.77 535.687 1073.98 520.054C1077.62 521.096 1073.98 523.702 1073.98 526.828C1078.14 524.223 1076.58 527.87 1076.58 531.518C1083.87 529.955 1080.75 536.208 1085.96 540.898C1086.48 540.898 1093.25 543.503 1094.29 543.503C1097.93 543.503 1096.89 539.855 1098.98 539.855C1101.06 539.855 1101.06 544.024 1102.62 544.024C1109.91 542.461 1117.73 539.855 1120.33 533.081C1121.89 528.391 1122.41 524.223 1125.54 519.533C1131.27 510.153 1132.31 499.731 1127.1 489.83C1126.06 487.225 1124.5 486.704 1122.94 484.619C1121.89 483.577 1121.89 480.972 1120.85 479.929C1120.85 479.929 1116.68 478.366 1116.16 477.845C1115.12 476.803 1115.12 474.197 1113.56 472.634C1112 471.071 1107.31 469.508 1106.27 467.944C1103.14 463.775 1102.1 455.959 1099.5 451.79C1098.98 450.748 1096.37 449.706 1095.33 447.622C1093.77 445.537 1094.81 439.805 1091.16 438.763C1091.16 439.284 1091.16 440.326 1091.16 440.847L1090.12 442.411ZM1152.1 435.115C1152.1 435.115 1154.19 436.157 1155.75 435.636C1155.23 434.073 1151.06 432.51 1152.1 435.115ZM1133.87 422.609C1133.87 422.609 1137.52 426.257 1138.56 425.735C1137.52 423.651 1134.91 422.088 1134.91 420.003C1134.91 420.003 1133.87 420.003 1133.35 420.003C1133.35 421.046 1133.35 421.567 1133.35 422.609H1133.87ZM1112.52 420.524C1112.52 425.214 1126.58 423.13 1125.02 415.835C1124.5 415.835 1112.52 422.609 1112.52 420.524ZM1051.06 429.904C1051.06 429.904 1056.27 431.468 1053.66 426.257C1051.58 426.257 1050.54 427.82 1051.06 429.904ZM1032.31 427.82C1032.31 427.82 1034.39 429.383 1036.48 428.341C1034.91 427.299 1034.39 428.341 1032.31 427.82ZM1063.56 420.524C1063.56 420.524 1061.48 423.13 1061.48 424.693C1061.48 427.82 1068.25 417.398 1063.56 420.524ZM1058.35 414.792C1061.48 413.229 1066.16 416.356 1069.29 417.919C1071.89 419.482 1075.02 418.44 1076.58 421.567C1079.18 426.257 1076.58 424.693 1076.58 427.299C1076.58 427.82 1072.93 427.82 1074.5 430.946C1075.02 432.51 1079.18 429.383 1080.75 429.383C1085.43 430.425 1087 434.594 1092.73 433.031C1096.37 431.989 1095.85 426.778 1102.1 428.862C1104.18 429.904 1104.71 432.51 1106.79 433.552C1110.43 435.636 1108.87 435.115 1114.08 436.157C1121.89 438.242 1119.29 438.763 1115.64 433.031C1115.12 431.989 1110.96 433.031 1110.43 431.989C1110.43 431.989 1108.35 425.735 1108.87 427.299C1108.87 426.778 1103.66 423.13 1109.91 423.651C1108.87 421.567 1103.14 417.398 1100.02 415.835C1094.81 412.708 1090.64 411.666 1084.39 409.581C1076.06 406.976 1076.58 408.539 1069.81 409.581C1065.64 410.103 1060.95 408.018 1055.23 409.581C1055.75 411.666 1056.79 414.271 1057.83 413.229L1058.35 414.792ZM1029.18 406.976C1026.06 407.497 1032.31 408.539 1033.35 408.018C1033.35 405.934 1031.27 406.455 1029.18 406.976ZM1067.2 404.371C1067.2 404.371 1067.2 406.455 1067.2 408.539H1070.85C1070.85 408.539 1069.29 407.497 1069.29 404.371H1066.68H1067.2ZM1051.58 404.371C1051.58 404.371 1050.02 404.371 1048.98 404.892C1052.62 406.976 1056.79 410.103 1062 408.018C1057.83 400.202 1055.23 405.413 1051.58 404.371ZM1050.54 403.328C1042.2 401.765 1055.75 398.117 1050.54 403.328V403.328ZM1046.89 408.018C1046.89 408.018 1048.98 412.187 1049.5 408.018C1047.41 408.018 1047.41 408.018 1046.89 408.018ZM1040.12 412.187C1040.12 412.187 1047.93 414.792 1050.02 414.792C1050.02 410.624 1040.64 411.666 1040.12 412.187ZM1037 412.187C1037 412.187 1034.91 412.187 1033.87 411.666C1035.43 415.835 1037.52 412.708 1037 412.187ZM1041.68 392.385C1039.08 396.033 1037 396.554 1037.52 401.765C1037.52 409.06 1039.6 400.202 1043.77 400.723C1043.77 398.117 1042.73 396.033 1040.64 396.554C1040.64 394.991 1041.68 393.949 1041.68 392.385ZM1007.31 412.187C1007.31 412.187 1010.95 416.877 1010.43 416.356C1010.43 416.356 1010.95 420.524 1010.95 421.046C1013.56 419.482 1013.04 414.271 1013.04 411.145H1015.12C1015.12 411.145 1019.29 421.046 1020.85 420.524C1023.45 419.482 1018.77 409.581 1016.68 407.497C1033.87 407.497 1006.79 397.596 1006.79 412.187H1007.31ZM1028.66 396.554C1025.54 397.596 1009.39 395.512 1010.43 402.286C1015.64 399.681 1017.2 400.202 1022.93 399.16C1024.5 399.16 1025.02 400.723 1027.62 399.681C1028.66 399.681 1032.83 394.991 1029.18 396.554H1028.66ZM1025.02 436.157C1025.02 439.284 1037.52 433.552 1038.56 431.989C1033.87 429.383 1025.54 434.594 1025.02 436.157ZM1023.45 439.284C1023.45 439.284 1021.37 439.805 1022.41 441.368H1024.5C1024.5 441.368 1024.5 439.284 1023.45 439.284ZM1012 431.989C1015.12 435.115 1025.02 432.51 1029.18 430.946C1026.06 430.425 1013.56 430.425 1012 431.989ZM1010.43 434.594C1005.75 436.157 1014.08 438.242 1015.64 438.242C1015.12 437.721 1012 434.073 1010.43 434.594ZM1001.06 431.468C998.454 431.468 1007.83 431.989 1009.39 431.989C1009.39 431.989 1008.87 431.989 1009.39 430.946C1006.27 430.946 1004.18 430.946 1001.06 430.946V431.468ZM960.953 425.214C965.12 428.341 971.37 429.383 978.141 430.425C983.87 430.946 991.162 434.073 996.891 433.031C995.329 429.383 991.683 428.862 987.516 429.383C987.516 426.778 989.6 427.82 991.683 426.778C981.266 425.214 971.37 424.693 960.432 425.214H960.953ZM975.537 394.991C970.849 398.638 973.453 404.371 976.578 408.018C980.745 413.229 982.308 412.708 989.6 414.271C997.412 415.835 994.808 417.398 998.975 411.145C998.975 411.145 1000.02 405.934 1001.06 404.371C1002.1 402.286 1006.27 401.765 1007.83 398.638C1003.14 395.512 1004.18 394.47 1003.14 387.695C1006.79 387.695 1005.75 385.611 1009.39 384.048C1009.39 385.09 1000.54 377.795 1001.06 377.795C997.933 377.795 995.85 383.006 993.766 385.09C988.558 389.78 979.704 398.638 975.537 394.991ZM936.474 405.934C936.474 405.934 940.64 414.271 943.245 414.792C943.245 411.666 936.474 405.934 936.474 405.934ZM930.744 397.596C930.744 397.596 933.349 399.681 934.39 401.765C934.39 399.681 933.869 398.117 931.265 397.075C930.744 398.638 931.265 398.117 930.744 397.596ZM928.14 392.906C928.14 392.906 927.099 390.822 927.099 392.906C927.099 394.47 928.14 394.991 929.182 394.991C929.182 393.949 929.182 393.428 928.14 392.906ZM929.182 384.569C929.182 384.569 926.057 382.485 923.973 382.485C925.015 386.653 931.786 390.822 933.87 393.949C937.515 398.117 940.64 404.892 944.286 409.581C946.891 412.708 953.141 421.567 956.266 422.088C964.078 422.088 959.391 414.792 965.641 413.229C965.12 408.539 960.432 406.455 956.787 409.581C956.787 404.371 936.474 385.611 929.182 384.569ZM1024.5 372.063C1020.33 372.063 1017.2 375.189 1019.29 379.358C1022.41 371.541 1027.1 380.4 1032.31 382.485C1030.23 378.837 1033.87 377.795 1033.87 377.795C1033.87 377.274 1035.43 367.373 1032.31 367.373C1029.18 367.373 1028.66 373.626 1025.02 371.541L1024.5 372.063ZM1013.56 354.866C1013.56 354.866 1017.73 366.852 1020.85 365.809C1019.29 369.457 1025.02 371.541 1023.45 364.767C1022.93 362.162 1016.68 354.866 1013.56 354.345V354.866ZM1018.77 354.345C1023.45 357.472 1026.58 363.725 1031.27 364.767C1031.27 359.035 1026.06 357.993 1026.06 352.782C1022.93 352.782 1021.37 354.345 1018.77 354.345ZM1012 357.472C1009.39 362.683 1002.1 367.894 1001.06 372.584C1007.31 372.584 1012 363.725 1012 357.472ZM1014.6 336.107C1009.39 339.234 1010.43 350.177 1016.68 352.261C1016.68 348.613 1024.5 336.107 1014.6 336.107ZM1018.25 312.658C1018.25 312.658 1010.95 316.826 1012 323.601H1014.08C1014.08 318.911 1018.25 316.826 1018.25 312.658ZM1112 230.324C1108.35 230.846 1105.75 233.972 1101.06 234.493C1095.85 234.493 1093.25 233.972 1088.04 230.846C1088.04 232.409 1085.43 244.915 1083.35 240.225C1082.31 241.789 1079.18 250.126 1084.39 247.521V249.605C1081.27 250.126 1079.71 260.548 1076.06 264.717C1076.06 263.675 1076.06 263.153 1076.06 261.59C1073.98 263.675 1073.46 264.196 1072.41 267.322C1071.37 266.28 1070.33 267.843 1070.85 264.717C1068.25 266.28 1067.73 268.886 1067.2 272.012C1059.91 268.886 1046.37 274.618 1044.81 282.955C1046.37 282.955 1047.93 282.955 1048.98 282.955C1048.98 286.603 1044.81 288.166 1050.54 289.729C1050.54 286.082 1056.79 280.35 1050.54 279.829C1052.1 276.181 1060.95 276.181 1065.12 275.139C1060.95 277.744 1054.18 275.139 1055.75 282.434C1059.39 280.871 1062.52 279.307 1064.6 277.223C1066.16 281.392 1070.85 278.265 1070.33 274.618C1084.91 273.054 1082.31 272.012 1085.43 260.027C1087.52 253.253 1089.6 248.042 1083.35 242.831C1087.52 242.31 1094.81 245.957 1094.81 241.267C1097.93 241.789 1112.52 233.972 1112.52 229.803L1112 230.324ZM1118.77 226.677C1118.77 226.677 1116.68 228.24 1115.12 228.761C1117.21 230.324 1118.25 228.761 1118.77 226.677ZM1137 206.875C1137 206.875 1135.44 210.002 1134.91 211.044C1138.04 210.002 1137 207.396 1137 206.875ZM1180.75 187.595C1180.75 187.595 1179.71 185.51 1178.67 186.552C1178.67 187.073 1178.67 188.116 1178.67 188.637C1179.19 188.637 1181.79 188.637 1180.75 187.595ZM1176.06 188.116C1176.06 188.116 1176.06 184.989 1173.46 183.426C1173.46 185.51 1173.46 187.073 1173.46 189.158C1175.02 189.158 1175.54 189.158 1175.54 188.116H1176.06ZM1166.69 168.314C1166.69 168.314 1168.77 166.751 1169.29 165.709C1166.17 164.666 1165.64 166.23 1164.6 168.314C1165.64 168.314 1166.16 168.314 1166.69 168.314ZM1251.58 142.78C1254.71 142.78 1258.87 144.865 1262 144.344C1259.4 139.133 1253.67 143.301 1251.58 142.78ZM1219.29 97.445C1223.46 98.4871 1228.15 96.4028 1232.31 96.4028C1231.27 94.8395 1227.62 92.234 1225.02 92.7551C1223.98 92.7551 1216.17 96.9239 1219.29 97.445ZM1104.18 69.3058C1107.83 70.8691 1119.81 75.0378 1119.81 68.2636C1114.6 68.2636 1106.79 68.2636 1104.71 65.137C1104.71 65.137 1103.14 68.7847 1104.71 69.3058H1104.18ZM1082.31 81.291C1087 81.8121 1090.64 81.291 1094.81 82.3332C1093.25 76.08 1086.48 77.6433 1082.31 81.291ZM1085.96 76.6011C1085.96 76.6011 1083.87 74.5167 1082.31 74.5167C1082.31 76.6011 1083.87 76.6011 1085.96 76.6011ZM1072.41 68.2636C1076.58 73.9956 1098.98 72.4323 1100.54 65.137C1096.89 64.6159 1092.73 62.5315 1092.73 68.2636C1092.21 68.2636 1091.16 68.2636 1090.64 68.2636C1094.81 59.926 1085.96 64.6159 1083.35 64.6159C1077.62 64.6159 1076.06 61.4893 1072.93 68.2636H1072.41ZM1068.77 66.7003C1068.77 66.7003 1068.77 65.137 1068.77 64.6159C1064.6 64.0948 1066.68 68.2636 1068.77 66.7003ZM1066.68 74.5167C1067.73 77.6433 1067.73 79.2066 1071.37 78.6855C1070.33 77.1222 1067.73 75.0378 1066.68 74.5167ZM968.766 47.4197C968.766 47.4197 964.599 44.8143 962.516 45.8564C962.516 46.3775 969.808 49.5041 968.766 47.4197ZM926.057 56.2784C926.057 56.2784 928.661 56.2784 929.703 56.2784C929.703 51.5885 927.099 55.2362 926.057 56.2784ZM942.203 49.5041C942.203 49.5041 960.432 45.8564 960.953 45.3354C965.12 39.6033 952.099 40.1244 951.578 39.6033C952.62 38.5611 952.62 38.5611 953.141 37.5189C945.328 35.9556 941.682 49.5041 942.724 49.5041H942.203ZM930.224 31.2658C917.203 33.3501 919.286 40.1244 931.265 41.6877C940.12 42.7299 940.64 42.7299 940.12 37.5189C939.599 30.2236 940.12 33.8712 933.349 33.8712C933.869 32.829 933.87 32.829 934.39 31.7869C932.828 31.7869 931.786 31.7869 930.224 31.7869V31.2658ZM919.286 31.7869C924.494 34.3923 931.786 27.6181 934.39 25.5337C927.619 22.4071 918.765 21.886 913.036 29.1814C913.036 29.7025 917.723 31.2658 918.765 31.7869H919.286ZM917.723 33.3501C917.723 33.3501 913.557 31.7869 910.952 32.308C910.952 39.6033 920.848 33.3501 917.723 33.3501ZM910.432 21.3649C904.702 21.3649 909.39 23.4493 908.869 24.4915C907.827 26.0548 916.161 21.3649 910.432 21.3649ZM767.2 107.867C764.075 107.346 758.867 103.698 760.95 110.993C763.033 110.993 766.679 109.951 767.2 107.867ZM781.263 81.291C778.138 81.291 771.367 89.6285 771.367 93.7973C773.45 93.7973 774.492 92.234 775.534 94.3184C776.054 94.3184 776.575 93.2762 776.054 92.7551C780.221 94.8395 777.096 97.445 779.7 98.4871C782.825 99.5293 788.555 99.5293 791.68 99.5293C791.68 94.8395 786.471 93.7973 785.95 89.6285C785.95 84.4176 789.596 81.291 792.721 78.1644C800.013 70.8691 806.784 66.7003 817.722 64.0948C820.847 63.5737 834.389 60.4471 832.826 57.3206C830.743 52.1096 822.93 57.8417 820.326 58.8838C813.555 60.9682 791.68 61.4893 791.68 69.8269C790.117 69.8269 789.075 69.8269 787.513 69.8269C791.159 75.5589 778.659 75.5589 780.221 79.2066C781.263 79.2066 781.784 78.6855 783.346 78.6855C782.825 80.2488 784.388 81.291 781.263 81.291ZM836.472 82.8543C839.076 82.8543 841.16 80.7699 841.68 80.7699C843.243 79.7277 831.784 82.8543 836.472 82.8543ZM810.43 24.4915C814.597 30.7447 817.201 24.4915 821.888 23.9704C817.722 21.3649 814.597 26.0548 810.43 24.4915ZM801.576 24.4915C801.576 24.4915 800.013 26.0548 798.971 27.6181C802.097 28.6603 805.742 28.6603 809.388 27.6181C806.263 23.9704 806.784 20.8438 801.576 23.9704V24.4915ZM800.013 31.2658C800.013 31.2658 797.93 31.7869 796.888 31.7869C797.409 34.3923 798.971 32.829 801.055 32.308C801.055 31.2658 801.055 30.7447 799.492 31.2658H800.013ZM786.992 30.2236C786.992 30.2236 789.075 33.8712 791.68 30.2236C791.68 34.3923 796.888 30.2236 797.93 30.2236C797.93 30.2236 797.93 29.1814 797.93 28.6603C794.805 28.1392 789.596 29.7025 787.513 30.2236H786.992ZM776.575 30.2236C779.7 27.097 785.95 26.0548 790.638 27.097C789.596 20.3227 796.888 29.1814 797.409 23.4493C795.846 23.4493 794.284 23.4493 792.721 23.4493C793.242 22.4071 794.805 20.3227 794.805 19.8016C792.201 19.8016 790.638 21.3649 789.075 21.886C790.117 21.886 784.388 22.9282 783.867 23.4493C782.305 24.4915 781.784 26.0548 780.221 27.6181C777.617 29.7025 776.575 27.6181 775.534 30.7447L776.575 30.2236ZM761.992 25.5337C756.783 25.5337 755.221 27.6181 750.012 26.5759C750.012 30.7447 757.304 27.6181 759.908 27.6181C753.658 32.3079 764.075 33.3501 767.2 29.1814C772.409 22.4071 767.2 25.5337 761.471 25.5337H761.992ZM656.782 31.7869C657.823 34.9134 664.594 30.7447 666.157 34.3923C664.073 34.3923 662.511 34.3923 660.428 34.3923C663.553 43.7721 682.303 35.4345 686.47 32.829C682.303 28.1392 676.574 31.7869 672.928 30.7447C673.449 29.1814 674.49 29.7025 673.969 28.1392C669.803 29.7025 670.844 28.1392 668.24 32.829C666.678 28.6603 654.698 27.6181 656.782 31.7869ZM649.49 45.8564C649.49 45.8564 639.594 45.8564 638.552 50.0252C641.156 50.0252 648.448 47.9408 649.49 48.983C647.927 50.0252 640.115 51.0674 640.115 52.1096C640.115 53.1518 646.886 56.7995 648.448 58.8838C653.136 55.2362 657.823 48.4619 657.823 43.251C659.386 43.251 661.469 43.251 663.032 43.251C662.511 47.9408 663.032 44.8143 665.636 46.8986C667.198 48.983 664.073 50.5463 664.073 52.1096C669.282 48.983 669.803 53.1518 671.886 52.6307C673.969 52.6307 677.615 50.0252 679.699 49.5041C677.615 46.3775 675.011 49.5041 675.011 45.8564C672.928 45.8564 658.344 37.5189 657.823 35.9556C657.302 35.9556 656.261 36.4767 654.698 35.9556C654.698 34.9134 655.74 33.8712 655.74 32.829C650.011 30.2236 650.011 32.829 647.406 33.8712C648.448 33.8712 645.323 36.9978 645.323 36.9978C646.365 36.9978 643.761 32.829 643.761 32.308L637.51 34.9134C638.031 33.8712 638.552 32.829 639.073 31.7869C635.948 32.308 621.885 35.9556 632.823 37.5189C632.823 39.0822 632.823 42.2088 632.823 43.7721C630.74 42.7299 631.26 41.1666 628.656 40.6455C629.698 42.7299 633.344 48.983 633.344 43.251C635.948 43.251 635.948 46.8986 639.073 45.8564C640.115 45.8564 641.156 43.251 642.198 42.7299C642.198 42.7299 648.969 42.2088 649.49 44.8143V45.8564ZM1104.18 165.187C1113.56 165.187 1115.12 161.019 1121.37 162.582C1125.02 163.103 1120.85 165.709 1124.5 166.751C1129.71 167.793 1128.14 162.582 1132.83 166.751C1132.83 164.145 1134.91 166.751 1137 166.23C1135.96 161.54 1133.87 166.23 1135.96 161.019C1137 158.934 1141.69 154.244 1143.25 153.202C1148.98 150.076 1154.19 151.118 1154.19 157.892C1162 156.329 1164.08 145.386 1171.89 146.949C1166.69 151.118 1165.12 157.371 1159.39 162.061C1152.1 167.793 1143.25 171.441 1140.64 178.736C1138.56 184.468 1139.08 192.284 1140.12 197.495C1141.69 204.791 1140.64 205.833 1146.37 202.706C1152.1 199.58 1152.62 187.073 1161.48 189.158C1159.39 184.468 1161.48 178.736 1166.16 181.863C1164.6 178.215 1166.16 174.567 1165.64 172.483C1165.64 171.441 1163.04 172.483 1162.52 172.483C1162.52 170.919 1165.64 163.624 1166.69 162.582C1169.81 159.976 1170.33 161.54 1173.98 160.498C1176.06 160.498 1175.02 162.061 1176.58 162.061C1178.67 162.061 1179.19 158.934 1180.75 158.934C1182.83 158.934 1184.39 159.455 1186.48 158.934C1191.17 158.934 1187.52 161.54 1191.17 162.582C1191.17 153.723 1212 148.512 1217.73 146.949C1222.94 145.386 1223.46 151.639 1221.9 143.823C1220.33 136.527 1216.69 139.654 1212 136.527C1209.39 134.443 1222.94 134.964 1222.94 134.964C1226.58 133.401 1228.15 131.316 1226.06 127.147C1228.67 127.147 1229.19 129.753 1230.23 129.753C1230.23 129.753 1236.48 130.795 1237 131.316C1240.65 132.879 1239.6 134.443 1244.81 135.485C1251.06 137.048 1246.37 136.527 1250.02 135.485C1252.62 134.443 1250.02 131.837 1252.1 130.274C1253.67 128.711 1263.56 132.88 1259.4 126.105C1257.83 123.5 1247.42 121.936 1245.33 122.979C1247.42 124.542 1247.94 128.19 1244.29 125.584C1242.73 124.542 1244.81 120.894 1243.25 119.331C1242.21 118.81 1240.65 119.331 1239.6 118.289C1238.04 117.247 1234.4 114.641 1232.83 114.12C1229.19 112.036 1226.58 110.472 1222.42 108.909C1214.08 104.74 1196.37 101.614 1191.17 107.346C1200.54 110.993 1176.58 114.641 1189.08 106.304C1185.44 103.177 1181.79 107.346 1178.14 107.867C1173.46 108.388 1165.12 108.909 1161.48 106.825C1161.48 108.388 1161.48 109.43 1161.48 110.993C1155.75 104.74 1155.75 96.9239 1143.77 97.966C1139.08 97.966 1134.91 99.5293 1130.23 98.4871C1124.5 97.445 1122.94 94.3184 1117.73 93.7973C1118.77 92.234 1116.68 92.7551 1119.29 91.7129C1111.48 87.5441 1102.62 98.4871 1105.75 89.1074C1102.1 89.1074 1097.93 87.023 1093.77 87.023C1085.96 87.023 1087.52 88.0652 1080.75 89.1074C1080.75 92.234 1084.39 92.234 1084.39 95.3606C1081.27 94.8395 1078.66 94.3184 1075.54 93.7973C1076.06 94.8395 1078.14 96.4028 1077.62 97.966C1073.98 97.445 1073.46 94.3184 1070.33 93.7973C1070.33 93.7973 1061.48 93.7973 1060.95 93.7973C1056.27 94.8395 1056.79 100.05 1053.14 100.05C1053.14 100.05 1046.37 93.7973 1045.85 92.7551C1045.33 91.1918 1047.93 85.9808 1045.85 83.3754C1042.73 79.7277 1040.12 83.3754 1037 82.8543C1029.7 80.7699 1027.62 76.08 1027.62 85.9808C1021.89 85.9808 1018.77 86.5019 1013.56 84.4175C1011.47 83.8965 1010.43 81.291 1008.35 80.7699C1003.66 79.7277 995.85 81.8121 991.162 81.8121V79.2066C991.162 79.2066 986.474 81.291 984.912 79.7277C984.912 79.7277 993.245 76.08 989.6 75.0378C985.433 73.9956 983.349 80.2488 977.62 79.2066C978.141 83.8965 970.328 83.3754 966.162 83.3754C970.849 83.3754 991.162 70.348 991.683 67.7425C993.766 56.7995 972.412 57.8417 967.724 59.4049C968.766 58.3628 969.287 57.8417 969.287 56.2784C966.683 56.2784 964.078 55.7573 960.953 55.7573C960.953 54.7151 963.557 52.1096 964.078 51.5885C953.661 50.5463 953.141 54.194 946.37 57.8417C947.411 58.8838 946.891 58.3628 947.411 59.926C940.12 58.3628 939.599 63.0526 933.349 64.0948C931.265 64.0948 927.099 61.4893 923.973 62.0104C923.453 62.0104 916.682 66.1792 913.557 67.2214C910.432 67.7425 907.827 68.2636 904.182 69.8269C903.14 69.8269 896.369 72.4323 895.848 73.4745C892.723 78.1644 901.577 75.0378 895.848 78.6855C890.119 82.8543 878.66 77.6433 872.931 82.8543C874.494 86.5019 885.431 92.7551 879.181 93.2762C877.619 93.2762 875.014 90.1496 873.973 89.6285C869.285 88.0652 866.16 88.0652 861.472 89.1074C863.035 90.1496 865.118 89.6285 865.118 92.234C851.576 91.1918 867.202 94.3184 866.681 99.0082C864.597 95.3606 858.347 97.966 855.743 94.3184C854.702 93.2762 855.743 87.5441 854.701 84.9387C854.701 84.9387 853.66 84.9387 853.139 84.9387C853.139 91.7129 848.972 89.1074 848.451 93.2762C848.451 93.2762 849.493 104.74 850.014 104.74C854.181 110.993 852.618 105.261 857.827 107.346C864.077 109.43 863.556 112.557 863.556 116.726C863.556 118.289 868.243 118.81 868.764 118.81C860.952 124.021 862.514 104.74 852.097 113.078C852.097 113.078 852.097 118.289 852.097 119.331C850.535 121.415 848.972 122.458 846.889 123.5C841.16 126.626 841.16 125.584 834.389 125.063C835.951 122.979 841.68 122.979 844.805 120.894C847.41 118.289 849.493 115.683 849.493 112.036C845.326 112.036 843.764 95.3606 844.285 90.6707H846.889C847.931 84.4176 838.035 82.8543 833.868 86.5019C833.347 86.5019 826.055 97.966 826.055 98.4871C827.097 95.3606 827.097 106.304 826.055 104.219C827.097 106.304 828.659 105.782 830.222 108.388C831.264 109.951 834.91 109.951 834.389 112.557C833.347 117.247 828.139 110.993 828.139 110.472C822.93 108.909 818.763 106.825 813.555 105.261C810.951 104.219 801.055 99.5293 799.492 99.5293C792.721 100.572 812.513 108.388 799.492 113.599C799.492 103.177 778.138 120.894 782.305 109.43C776.575 112.557 770.325 113.078 764.596 116.726C763.554 117.247 751.575 128.711 752.096 117.247C761.471 117.247 750.533 111.515 745.325 111.515C747.408 113.599 749.492 125.584 746.887 127.147C746.887 127.147 741.158 125.584 739.595 125.584C738.033 125.584 734.387 130.274 731.783 130.274C732.304 131.316 734.387 134.443 734.387 136.006C730.741 133.922 726.054 136.006 722.929 131.837C715.116 136.006 726.574 136.527 726.574 138.612C726.574 140.696 720.845 139.654 720.324 139.133C714.595 136.527 717.72 137.048 715.116 132.879C713.033 129.232 708.345 124.542 705.22 120.373C708.345 120.894 740.637 133.922 736.47 118.81C735.429 115.162 726.574 112.036 723.449 110.472C718.241 108.388 710.428 109.951 707.824 108.388C710.428 102.656 699.491 104.74 697.407 102.135C701.574 102.135 699.491 100.05 697.407 99.0082C692.199 96.4028 694.282 99.5293 690.636 99.5293C690.636 99.0082 691.678 96.9239 691.678 95.8817C690.636 95.8817 687.511 95.8817 686.47 95.8817C686.47 97.966 686.47 98.4871 686.47 100.572C685.428 98.4871 684.907 98.4871 682.824 96.9239C682.303 101.093 680.22 102.656 680.22 97.445C680.74 97.445 682.303 97.445 682.824 97.445V95.3606C682.824 95.3606 671.365 101.093 675.011 96.9239C667.198 96.4028 668.24 100.572 671.886 102.656C669.803 101.614 666.678 102.656 664.594 101.614C664.594 103.698 664.594 104.219 663.553 105.261C663.553 102.656 659.907 100.05 657.302 100.572C658.344 104.219 654.698 109.951 654.177 104.74C649.49 109.43 654.177 105.783 652.094 110.993C648.448 109.43 648.969 110.993 647.927 106.825C646.365 106.825 645.323 108.909 643.24 109.951C643.761 110.993 643.761 110.472 643.761 112.036C640.115 112.036 638.031 113.599 636.469 116.204C640.115 115.162 645.844 111.515 650.011 113.599C644.802 114.641 636.469 124.021 635.427 130.795C633.865 130.795 630.74 132.879 629.177 134.443C630.219 134.443 631.26 134.443 632.302 134.443C632.302 138.09 623.448 141.738 620.844 141.217C620.844 142.78 620.844 142.259 620.844 143.823C610.948 145.907 609.385 151.639 607.823 158.934C616.156 158.934 604.697 164.145 612.51 164.666C612.51 166.751 611.468 167.272 611.468 168.835C619.802 168.835 622.406 169.877 628.135 163.103C631.781 163.624 634.385 176.652 637.51 179.778C638.552 180.82 635.427 182.384 637.51 183.426C642.719 185.51 640.636 181.863 642.719 180.82C646.886 179.257 648.969 178.215 652.094 177.173C652.094 176.652 652.094 176.13 652.094 175.088C650.011 175.088 649.49 175.088 648.448 174.567C649.49 173.004 654.177 166.751 654.698 165.709C655.74 162.582 660.428 159.976 653.657 159.976C653.657 155.287 649.49 150.597 654.698 144.865C657.302 141.738 661.99 141.738 664.073 138.612C665.636 136.527 665.636 130.795 669.282 128.711C671.886 127.147 678.657 129.753 679.178 133.401C680.219 140.696 657.302 144.344 667.719 156.85C675.011 165.709 688.032 154.766 696.886 159.976C692.199 165.187 684.907 162.582 679.178 163.624C677.094 163.624 668.761 166.751 668.761 166.751C669.803 166.751 670.324 167.272 670.844 167.793C669.282 167.793 667.719 168.314 666.157 168.835C668.24 174.046 671.886 167.793 673.449 168.835C676.053 169.877 676.053 171.441 678.136 173.004C671.886 180.82 672.407 171.441 668.761 173.004C664.594 174.567 664.594 183.947 664.594 186.552C660.948 186.552 655.74 184.468 658.865 189.679C653.136 183.947 650.011 189.679 643.761 190.721C641.677 190.721 632.302 185.51 631.781 191.242C629.177 191.242 627.094 190.2 626.052 189.158C626.573 182.905 635.948 191.763 634.906 180.299C633.344 180.82 629.177 182.384 628.135 182.384C628.135 181.341 628.656 179.778 629.177 178.736C628.656 178.736 627.615 178.736 627.094 178.736C628.135 172.483 626.573 171.441 621.885 176.652C618.76 179.778 620.844 183.426 620.844 186.552C620.844 194.89 622.927 190.2 616.677 193.848C613.552 195.932 607.823 197.495 604.177 197.495C608.864 203.749 599.489 202.706 596.364 205.312C596.364 205.312 593.239 212.086 592.197 212.607C588.551 213.649 586.468 210.523 584.385 210.523C589.593 219.903 579.176 213.128 576.051 215.734C572.405 218.86 577.093 217.818 578.135 219.381C579.697 221.987 581.78 223.029 583.864 226.677C594.281 247.521 568.759 234.493 558.863 239.183C560.947 245.957 557.822 253.774 559.384 260.027C560.947 265.759 559.384 262.111 564.072 265.759C567.197 267.843 568.759 265.759 571.884 269.407C572.405 268.886 571.884 268.364 571.884 268.364C577.093 266.28 583.864 264.196 588.031 260.548C589.593 258.985 590.635 260.548 591.676 258.985C592.197 257.943 590.114 255.858 590.114 255.858C590.635 254.816 591.156 251.168 592.718 249.605C594.281 247.521 602.093 245.436 603.135 244.394C604.697 243.352 602.093 240.225 604.697 238.662C607.302 237.099 611.468 240.746 614.073 240.225C615.114 240.225 619.802 233.972 622.406 234.493C626.052 235.014 629.698 241.789 632.302 244.394C641.156 251.168 656.782 260.548 634.906 260.548C640.635 270.97 650.011 260.548 652.615 253.774H649.49C649.49 253.774 649.49 252.732 649.49 251.689C651.052 251.689 654.698 252.732 656.261 252.732C654.177 248.563 647.406 243.352 642.198 242.31C642.719 238.662 636.99 234.493 634.385 234.493C634.906 223.029 642.719 233.451 648.448 237.099C652.094 239.704 657.302 241.789 659.386 245.957C660.948 248.563 662.511 254.816 664.073 257.943C662.511 257.943 661.99 257.421 660.948 257.421C661.99 260.548 663.553 262.111 666.157 259.506C668.24 270.97 676.053 258.464 680.22 257.943C679.699 256.9 678.657 255.858 677.094 255.858C677.094 256.379 677.094 257.421 677.094 257.943C675.011 257.943 670.324 251.168 670.844 249.605C672.928 250.647 674.49 251.689 676.574 250.647C676.574 250.126 676.053 249.605 675.011 249.605C683.345 237.099 688.032 269.407 689.074 269.407C690.115 269.407 690.116 265.238 690.116 264.717C693.241 267.322 695.845 266.801 698.449 267.322C695.845 267.322 702.616 265.759 702.616 265.759C705.22 265.759 706.262 268.886 710.949 267.843C710.949 266.801 710.949 265.759 710.949 264.717C719.283 266.28 719.804 268.886 716.678 277.744C715.637 280.871 711.991 285.561 709.387 286.603C706.262 288.166 703.137 284.518 700.532 286.603C705.22 288.687 708.345 302.757 713.553 297.025C721.366 305.362 723.449 316.305 728.658 325.164C731.783 330.375 738.554 334.544 741.158 340.797C744.804 349.134 740.116 354.345 750.533 354.345C755.221 354.345 760.95 349.655 765.638 348.092C770.846 346.008 773.45 343.402 778.138 341.839C783.867 339.234 786.992 340.276 790.638 336.107C792.201 334.023 796.367 329.333 798.451 329.854C798.451 324.643 798.451 324.643 802.096 323.08C802.096 320.474 797.409 317.869 795.846 316.305C792.721 313.7 795.846 310.573 791.159 315.263C791.159 313.179 790.117 307.968 788.034 306.926C785.95 309.531 785.43 309.531 784.909 313.7C777.617 313.179 766.158 313.7 779.7 311.094C779.7 310.052 769.284 307.447 768.763 306.926C767.2 305.883 762.513 300.151 761.992 298.067C760.429 289.729 764.596 292.335 769.804 295.983C776.054 300.151 778.138 302.236 785.43 304.841C786.471 304.841 789.596 304.841 791.159 304.841C792.721 304.841 792.721 307.968 794.284 309.01C797.409 310.573 805.742 311.094 809.388 311.615C818.243 311.615 820.847 311.615 827.618 315.263C831.264 317.347 831.784 319.953 837.514 320.995C827.618 320.995 839.076 326.206 841.16 327.248C844.805 328.291 842.722 322.037 846.889 327.248C848.972 329.854 846.889 333.501 847.931 336.628C848.972 342.36 851.056 347.05 853.139 352.782C854.701 356.43 857.306 368.936 860.952 371.02C864.598 373.105 868.764 369.457 870.848 364.767C872.41 361.641 872.41 358.514 872.931 354.866C872.931 353.303 872.931 350.177 872.931 348.613C875.014 343.923 874.494 348.613 878.139 344.966C884.91 338.191 893.244 328.291 899.494 324.643C902.098 323.08 912.515 320.995 913.036 320.995C915.119 322.558 919.807 332.98 919.807 335.586C926.057 335.586 918.765 340.797 923.453 344.445C926.578 347.05 930.224 341.839 930.744 341.839C935.953 343.402 939.078 355.909 939.078 361.641C939.078 364.246 934.911 367.373 936.474 372.584C937.515 375.71 942.203 378.316 943.766 381.963C945.849 386.653 949.495 402.286 958.349 398.117C955.224 392.906 955.745 384.048 952.62 380.4C948.453 375.189 943.245 375.71 942.203 367.894C942.203 366.331 940.12 358.514 943.245 356.43C947.932 352.782 944.286 355.387 948.453 357.993C952.099 360.077 952.099 360.077 955.224 364.246C955.745 365.288 958.87 365.809 959.391 366.852C960.432 368.936 959.391 370.499 960.953 373.626C964.599 368.415 970.328 366.852 972.933 363.204C978.141 355.909 975.016 349.655 970.328 343.923C963.557 335.065 961.995 324.643 977.099 324.643C978.141 329.333 971.37 334.023 973.974 336.107C980.224 341.839 981.787 325.164 981.266 325.164C983.87 322.558 990.12 322.558 993.245 321.516C997.933 319.953 999.496 318.911 1003.14 316.305C1008.35 312.137 1018.25 303.278 1019.29 296.504C1020.33 291.293 1017.2 294.419 1016.68 290.772C1016.68 288.687 1018.25 289.208 1017.73 285.561C1016.68 281.392 1010.95 276.181 1010.95 273.054C1010.95 267.322 1017.2 268.886 1019.29 266.28C1021.37 263.675 1021.37 263.675 1015.64 261.59C1013.56 260.548 1014.08 264.196 1010.95 264.196C1012 257.421 1002.62 262.111 1006.79 255.858C1006.79 255.858 1014.08 253.253 1014.6 252.732C1022.93 249.605 1020.33 248.563 1017.2 257.421C1019.29 255.858 1026.06 252.732 1028.66 253.774C1034.39 256.379 1029.7 257.421 1030.23 262.111C1039.08 258.464 1036.48 272.012 1035.43 276.702C1041.68 277.223 1048.45 273.054 1048.45 267.322C1048.45 262.111 1041.68 261.59 1042.73 253.774C1042.73 252.21 1045.85 253.774 1045.85 252.732C1045.85 252.732 1046.89 246.478 1047.41 245.957C1048.45 244.394 1050.54 240.746 1053.14 239.704C1054.7 239.183 1059.39 239.704 1062 239.704C1065.12 238.662 1066.16 238.141 1068.77 235.535C1072.93 231.888 1078.14 225.113 1081.27 220.945C1084.39 215.734 1083.87 212.086 1085.96 206.875C1093.25 190.2 1090.12 223.029 1090.12 227.719C1091.68 226.156 1092.21 227.198 1093.77 224.592C1095.33 226.156 1093.77 227.198 1097.41 227.719C1096.37 220.945 1089.08 215.213 1099.5 215.213C1099.5 215.213 1094.81 192.284 1094.81 189.679H1093.25C1093.25 194.89 1091.68 194.89 1091.68 199.58C1087.52 196.974 1088.56 191.763 1080.75 189.679C1079.71 195.411 1077.1 193.327 1075.02 189.679C1075.02 190.721 1075.02 191.763 1075.02 192.806C1071.89 192.806 1075.02 190.2 1072.41 188.116C1067.2 193.327 1072.41 185.51 1074.5 183.426C1077.62 180.299 1080.23 178.215 1083.35 174.046C1090.12 165.709 1095.85 165.187 1105.75 165.187H1104.18ZM568.239 168.835C568.239 168.835 564.593 171.441 564.593 173.004C566.155 173.004 571.364 168.314 568.239 168.835ZM571.884 210.002C575.53 210.002 578.655 207.396 580.739 206.875C583.864 206.875 588.551 207.917 591.156 206.875C595.843 204.791 597.406 200.101 596.364 195.932C595.322 193.327 593.76 197.495 593.239 197.495C592.197 196.453 592.197 194.369 591.156 193.327C589.593 191.763 586.989 188.637 584.905 186.031C581.78 181.863 581.26 182.905 580.739 179.778C580.739 177.694 589.072 169.877 576.572 173.525C577.614 171.441 577.614 170.398 579.697 169.356C575.53 165.187 573.968 171.441 572.405 173.004C572.405 173.004 563.551 176.13 570.322 177.173C569.801 179.257 567.718 181.863 567.718 182.905C569.801 182.905 572.405 184.989 573.447 182.905C572.926 190.2 576.572 186.031 579.176 191.763C582.301 198.538 576.051 193.848 572.926 198.016C573.968 198.016 575.009 198.016 576.572 198.016C576.572 200.101 571.364 200.622 573.447 202.706C574.489 203.749 579.697 202.706 581.26 203.749C580.739 204.27 570.322 210.002 572.405 210.002H571.884ZM568.759 191.242C577.093 190.2 555.738 179.778 560.426 189.158C556.259 189.679 551.051 195.411 557.822 194.89C549.488 206.875 560.947 199.059 568.239 200.622C568.239 197.495 568.759 194.369 568.759 191.242ZM765.638 471.592C765.638 464.297 770.846 449.706 762.513 446.579C762.513 449.185 759.388 454.917 757.825 456.48C754.7 459.086 750.012 458.043 746.887 461.17C744.283 463.775 746.887 471.071 746.887 473.155C746.366 476.803 744.804 477.324 743.762 482.014C742.721 488.267 743.762 497.126 752.096 495.041C759.908 493.478 757.304 490.872 758.867 484.098C758.867 483.056 760.95 475.24 760.95 475.24C761.471 474.197 765.638 473.155 765.638 472.113V471.592ZM704.699 295.983C701.053 287.645 698.97 290.772 691.678 289.729C680.74 288.166 671.886 285.04 661.469 282.434C661.469 292.335 661.469 290.772 654.698 290.772C656.261 290.772 648.448 288.687 649.49 288.687H644.281C644.281 288.687 643.24 286.603 643.24 285.561C640.115 284.518 630.219 282.955 628.135 280.35C624.489 275.139 632.302 274.097 625.531 269.928C627.094 268.364 627.094 268.364 629.698 267.843C626.052 262.111 616.677 267.843 611.468 267.843C606.26 267.843 600.531 265.759 593.239 268.364C588.551 270.449 585.426 273.054 579.176 273.054C571.884 273.054 567.718 267.843 567.718 277.223H561.988C564.593 286.082 557.822 280.35 556.259 283.476C554.176 288.166 554.697 293.898 552.613 296.504C551.572 298.067 546.363 300.672 544.28 303.278C542.196 305.883 539.592 310.052 537.509 313.7C535.425 317.347 526.05 325.685 527.092 330.896C527.092 332.459 532.821 330.375 533.342 331.938C533.863 333.501 532.3 334.023 532.821 335.065C534.384 338.712 531.78 345.487 531.78 349.134C531.78 353.824 530.738 357.993 536.467 363.204C542.196 368.936 546.884 373.626 553.134 379.358C555.217 381.442 556.259 385.611 560.947 386.132C566.155 387.174 566.676 385.09 571.884 384.048C576.051 384.048 579.176 385.611 582.301 385.09C588.551 385.09 588.031 382.484 592.718 380.921C596.885 379.358 605.218 379.879 607.823 380.921C611.468 382.484 610.427 385.09 616.156 386.653C625.531 388.738 625.01 384.048 625.01 393.949C625.01 398.638 623.448 404.371 620.844 406.976C632.823 410.624 640.115 434.594 638.552 446.579C636.469 458.043 629.698 458.564 635.427 471.071C639.073 478.887 640.115 483.056 642.198 491.915C644.281 500.773 651.052 506.505 653.657 514.322C655.74 521.096 652.615 523.18 655.74 526.828C664.594 536.729 688.032 525.265 695.324 517.448C697.928 514.843 702.616 509.632 704.178 505.984C705.741 502.337 704.178 497.647 704.178 495.562C704.699 493.999 710.949 492.957 712.512 490.351C717.72 483.577 709.907 480.972 711.47 474.197C712.512 468.465 722.929 465.86 726.054 463.254C733.345 457.001 733.866 449.185 731.783 439.805C730.741 434.073 725.533 426.257 727.616 419.482C730.22 410.624 742.2 401.765 748.971 395.512C754.179 390.822 759.388 385.611 762.513 379.879C764.596 375.71 766.158 375.189 766.679 369.978C767.721 361.641 768.763 363.204 761.471 363.204C751.054 363.204 747.929 366.852 740.637 359.035C736.47 354.345 729.699 350.177 726.054 344.966C722.408 339.755 718.241 328.291 715.637 322.558C711.991 313.7 709.908 304.32 703.657 295.983H704.699ZM330.735 577.895C330.735 577.895 329.172 575.29 328.13 575.29L325.005 579.459C325.005 579.98 331.776 585.191 332.297 585.712C332.297 585.712 332.297 586.754 332.297 587.275C320.318 587.275 329.693 597.697 328.13 601.866C329.172 601.866 330.214 601.866 331.255 601.866C331.255 602.908 330.735 603.429 329.693 603.429C331.776 605.514 330.735 604.471 332.297 604.471C331.776 604.471 340.11 614.893 341.672 615.936C348.443 620.104 355.214 618.02 361.985 617.499C361.985 615.414 353.131 612.809 351.568 608.64C350.006 604.471 346.36 594.049 352.61 594.571C352.61 590.402 360.943 585.712 360.423 582.585C359.902 578.938 351.047 581.022 354.172 573.727C355.214 571.642 359.902 572.685 360.943 571.642C361.985 570.6 360.943 568.516 361.985 567.474C360.943 568.516 366.152 559.136 365.631 562.784C366.673 557.052 361.464 562.784 362.506 554.446C371.36 558.094 372.923 554.446 371.36 546.63C378.652 546.63 386.986 546.63 390.631 540.377C394.277 533.081 387.506 534.645 385.944 528.391C393.756 529.434 396.881 532.039 403.132 526.828C406.257 524.223 408.34 513.801 411.465 514.322C411.465 515.885 410.944 515.885 411.465 517.448C420.84 512.759 418.236 499.21 423.444 492.957C426.57 488.788 431.257 486.704 436.466 485.661C444.278 483.577 445.841 484.098 450.528 476.803C455.737 467.944 453.653 454.917 457.299 447.622C460.424 442.411 466.674 439.284 468.237 433.552C469.279 429.383 469.279 429.904 468.237 426.257C466.153 418.44 466.153 423.651 461.466 419.482C456.257 415.314 454.174 414.271 447.403 413.229C443.757 412.708 431.257 413.229 436.466 410.624C434.382 409.06 431.257 407.497 428.653 406.976C422.403 405.934 423.444 406.976 419.278 409.06C419.278 408.539 421.882 404.371 421.882 403.849C420.319 403.849 417.715 402.807 416.153 402.286C414.59 402.286 415.632 405.934 411.986 405.413C412.507 403.849 419.278 395.512 413.028 395.512C414.069 384.569 403.652 383.527 396.882 381.963C391.152 380.4 379.173 374.668 379.173 368.415C376.048 369.457 370.319 368.415 375.527 365.809C372.402 361.641 365.631 367.373 363.548 367.373C356.777 367.373 353.131 361.12 346.36 360.077C346.36 363.725 343.756 362.683 341.672 364.767C341.672 364.767 342.193 369.978 341.672 371.02C338.026 367.894 339.068 361.12 342.714 359.035C336.464 357.472 319.276 368.936 318.234 376.752C317.714 380.921 322.401 385.611 319.276 391.864C317.714 394.991 310.943 402.286 307.297 403.328C307.818 409.06 305.734 410.103 311.463 410.103C308.859 414.271 303.651 416.877 306.776 423.651C307.818 425.214 310.943 425.735 312.505 427.82C314.068 429.904 315.63 433.031 316.672 435.115C318.755 439.805 320.839 448.143 323.964 452.311C328.13 457.522 333.86 458.565 339.068 463.254C348.443 470.55 344.797 486.183 343.235 497.647C342.193 503.9 340.11 509.632 339.589 515.364C338.547 522.138 339.589 529.434 336.985 535.687C333.86 542.982 334.38 547.151 332.297 554.967C332.297 554.967 332.297 560.178 332.297 558.615C332.297 559.657 329.693 561.22 330.214 562.784C332.818 570.6 334.901 559.136 337.506 558.615C335.422 563.826 334.901 568.516 334.38 574.769C332.818 572.163 332.818 573.727 332.297 570.6C330.735 571.642 333.339 576.332 332.818 577.895H330.735ZM340.11 340.276C346.36 338.712 355.735 340.276 361.985 337.67C359.381 334.023 350.527 335.065 345.318 334.544C341.672 334.544 334.901 329.854 334.38 335.586C334.38 339.234 336.985 340.797 340.11 340.276ZM322.922 339.234C322.922 339.234 318.234 336.107 315.109 336.628C317.193 339.234 320.839 341.318 322.922 339.234ZM329.693 330.896C327.089 326.206 315.63 323.601 310.422 322.037C307.297 320.995 300.005 317.869 296.359 319.953C292.192 322.558 293.234 323.08 297.922 325.164C300.005 326.206 301.047 323.08 303.13 323.08C305.734 323.08 307.297 325.685 308.859 326.206C316.672 328.812 321.359 330.375 329.693 330.375V330.896ZM507.3 131.316C510.946 130.795 511.988 131.316 513.029 134.443C510.425 134.443 508.342 134.443 505.737 134.443C505.737 134.964 505.737 136.006 505.737 136.527C513.029 135.485 507.3 139.654 511.467 140.696C512.508 140.696 520.842 141.738 521.363 141.738C528.134 141.738 528.655 140.175 534.384 137.048C539.071 134.443 541.155 138.09 542.717 132.879C543.238 130.795 539.592 130.795 539.071 130.795C540.634 121.415 528.134 129.753 521.884 129.232C520.842 129.232 515.633 128.19 516.675 128.711C514.071 128.711 516.675 124.542 514.071 128.19C507.3 126.105 505.737 132.358 507.3 131.837V131.316ZM394.277 204.791C394.277 204.791 384.381 219.381 384.902 220.424C385.944 222.508 390.631 220.424 393.236 221.466C396.882 222.508 397.923 224.071 401.569 225.635C407.298 216.776 401.569 214.17 393.756 211.565C393.756 211.565 398.965 202.185 394.277 204.791ZM374.485 213.128C370.839 212.086 369.277 210.523 365.631 211.044C368.756 213.128 371.36 217.818 374.485 213.128ZM478.133 114.12C478.133 114.12 480.216 115.162 481.258 115.683C487.508 117.768 487.508 115.683 493.237 113.078C497.925 110.993 509.904 108.909 511.467 104.219C505.217 109.43 490.112 97.445 506.258 97.966C505.737 97.966 513.55 106.304 515.113 99.0082C515.633 96.4028 509.383 90.1496 507.3 89.1074C508.342 88.0652 515.633 93.2762 513.55 86.5019C512.508 83.3754 510.425 83.3754 506.258 84.4175C507.3 83.3754 507.821 83.3754 508.342 81.8121C507.821 81.8121 506.779 81.8121 506.258 80.7699C508.863 80.7699 515.113 83.8965 518.238 81.8121C525.529 77.1222 513.55 78.6855 513.55 76.6011C513.55 76.08 524.488 75.5589 525.009 73.9956C522.925 71.9112 516.675 67.7425 523.967 67.2214C523.967 61.4893 515.113 61.4893 516.154 57.8417C516.154 56.2784 520.842 55.7573 521.884 56.2784C526.571 58.3628 522.925 58.3628 525.009 62.5315C526.05 54.7151 529.175 53.1518 519.8 53.1518C522.404 50.5463 519.8 52.6307 523.967 50.5463C521.363 46.3775 515.113 50.5463 515.113 50.5463C508.342 45.3354 531.78 30.7447 533.863 28.1392C530.738 28.1392 528.134 28.1392 525.009 28.1392C530.738 27.097 534.384 27.097 539.592 23.9704C541.155 22.9282 548.447 23.9704 545.321 19.2805C544.801 18.2384 536.988 19.2805 536.467 19.2805C531.259 19.8016 526.05 20.8438 521.884 21.886C519.279 22.9282 507.3 28.6603 505.737 28.6603C512.508 20.3227 516.154 19.2806 503.654 17.1962C503.654 21.886 500.008 21.3649 495.321 22.4071C495.841 18.2384 498.967 20.3227 501.571 18.7595C494.8 13.5485 482.3 21.3649 474.487 20.3227C476.57 14.0696 507.3 14.0696 514.071 13.0274V11.4641C507.3 11.4641 503.654 10.4219 498.446 9.37973C490.112 7.81644 482.3 9.90082 474.487 9.37973C480.216 5.21096 492.196 7.29534 500.529 7.29534C499.487 1.04219 463.028 3.64767 458.341 5.21096C453.132 6.77424 458.341 8.33753 451.57 9.37973C447.924 9.37973 444.799 7.81644 441.153 7.29534C437.507 7.29534 430.736 7.29534 426.569 9.37973C427.611 11.4641 430.736 10.943 430.736 14.0696C429.174 13.0274 422.403 9.90082 425.007 14.0696C424.486 13.0274 436.465 20.3227 433.34 20.3227C425.528 20.3227 419.799 14.0696 411.465 14.0696C411.465 15.6329 416.673 18.7595 417.194 21.3649C411.986 19.8016 408.861 15.6329 403.652 15.1118C405.215 17.7173 405.215 24.4915 401.048 21.886C401.048 21.886 403.132 16.6751 400.007 15.1118C396.361 13.0274 385.423 19.8016 383.34 18.7595C385.944 19.8016 390.111 21.3649 392.194 23.4493C388.548 23.4493 385.944 20.8438 382.298 20.3227C380.215 20.3227 380.735 18.2384 377.61 19.8016C374.485 21.3649 377.089 23.4493 376.048 23.9704C372.923 25.5337 367.194 26.5759 361.464 29.1814C359.381 30.2236 354.172 30.2236 354.172 33.8712C357.298 34.9134 358.86 33.8712 361.985 33.8712C364.068 33.8712 361.985 40.6455 361.464 41.1666C360.423 42.2088 355.735 41.6877 354.693 42.2088C351.047 43.251 344.276 42.7299 340.11 44.8143C327.61 52.1096 350.527 52.6307 357.298 52.6307C355.735 58.3628 342.193 54.194 342.193 57.3206C342.193 58.8838 348.443 60.4471 349.485 60.9682C348.443 60.9682 348.443 60.9682 347.922 61.4893C350.006 63.0526 353.131 66.1792 356.256 65.137C356.256 65.137 354.693 63.5737 355.735 63.0526C359.902 60.4471 377.61 62.5315 382.298 65.6581C389.59 70.348 394.798 79.7277 395.319 88.0652H396.882C389.59 100.572 406.777 90.1496 411.465 101.614C406.777 101.614 402.611 98.4871 398.444 100.572C399.486 103.698 395.84 108.909 402.09 108.909C407.819 108.909 409.382 105.261 403.132 104.219C412.507 103.177 409.903 106.825 412.507 113.078C408.34 113.078 405.215 113.078 405.215 117.768C395.84 116.726 405.215 128.711 406.257 130.795C406.257 130.795 408.861 129.753 409.382 130.795C409.382 131.837 406.257 132.879 407.298 133.922C405.736 132.358 408.861 139.133 408.34 138.09C408.34 138.09 411.986 136.006 412.507 136.006C409.903 141.738 412.507 151.639 418.757 156.329C421.361 158.413 435.424 163.624 437.507 162.582C440.632 161.019 439.591 154.766 441.153 151.639C441.674 150.076 439.07 149.555 440.111 147.47C440.632 146.428 443.236 147.47 444.278 145.386C447.924 138.612 445.841 131.837 455.216 131.316C455.216 127.147 455.216 130.274 457.82 128.711C457.299 140.175 477.091 115.683 477.091 115.683L478.133 114.12ZM277.609 57.3206C281.775 63.5737 298.963 60.9682 305.734 59.926C307.297 64.0948 317.714 61.4893 317.714 55.7573C316.672 55.7573 315.63 56.7995 314.588 56.7995C314.588 55.7573 314.068 54.7151 313.547 54.194C317.714 53.6729 317.714 52.1096 316.672 48.4619C321.88 50.0252 326.568 48.983 322.922 44.2932C322.401 43.7721 328.651 44.2932 328.651 43.251C328.651 38.04 319.276 39.6033 316.672 41.6877C316.672 41.1666 316.672 40.6455 316.151 39.6033C322.401 35.4345 328.651 41.1666 334.38 35.9556C333.339 35.4345 332.297 34.3923 331.255 33.8712C334.901 34.9134 338.547 35.9556 342.714 33.8712C341.151 32.308 341.151 31.2658 339.068 30.2236C347.922 32.308 357.818 22.9282 366.152 20.8438C363.548 18.2384 356.777 20.8438 352.089 20.3227C355.735 15.6329 376.048 20.3227 377.089 13.5485C378.131 9.37972 359.381 8.33753 355.214 9.37973C353.652 7.81644 346.36 5.73205 342.193 5.21096C340.631 11.4641 320.839 2.60548 322.401 9.37973C316.672 7.29534 304.692 6.25315 300.526 11.9852C305.213 11.9852 310.422 12.5063 312.505 16.154C307.818 15.1118 301.567 11.9852 297.401 10.943C293.234 9.90082 289.588 12.5063 288.546 12.5063C283.859 13.0274 275.004 15.6329 269.796 16.6751C269.796 17.1962 269.796 17.7173 269.796 18.2384C274.484 19.8016 274.484 22.4071 279.692 23.9704C286.984 26.0548 286.984 22.4071 293.755 21.3649C281.255 28.6603 300.526 26.0548 304.172 25.5337C311.463 23.9704 316.151 19.8016 323.443 19.8016C320.318 19.8016 317.714 21.3649 315.109 23.4493C317.714 23.4493 320.318 23.4493 322.922 23.4493C319.276 26.0548 307.297 27.097 302.088 27.6181V29.7025C305.734 31.2658 307.818 33.8712 311.984 33.8712C305.734 35.4345 296.359 29.1814 289.588 28.6603C290.109 34.9134 301.047 39.6033 306.776 39.0822C305.213 40.6455 304.692 42.2088 303.651 43.251C293.234 32.829 277.609 48.983 296.88 45.3354C295.838 45.8564 294.796 46.3775 293.755 46.8986C295.838 50.5463 300.005 49.5041 303.13 46.3775C299.484 55.7573 289.067 46.3775 282.296 47.9408C284.9 52.1096 282.296 53.6729 278.65 55.2362L277.609 57.3206ZM279.171 45.3354C279.171 45.3354 282.296 45.3354 281.775 41.6877C293.755 43.251 290.63 36.4767 283.338 31.7869C283.338 31.7869 259.379 19.8016 260.421 23.4493C261.983 23.4493 263.546 22.4071 264.067 25.0126C264.067 25.0126 257.817 26.0548 256.775 26.0548C258.338 27.097 258.858 28.6603 259.379 29.1814C257.817 29.1814 256.254 29.1814 254.171 29.1814C253.65 30.2236 253.129 33.3501 253.129 34.9134C257.296 39.0822 264.067 35.4345 268.754 39.6033C265.629 39.6033 263.025 41.1666 260.421 41.6877C265.629 46.3775 272.921 48.4619 279.692 45.8564L279.171 45.3354ZM269.796 51.5885C269.796 51.5885 268.754 53.1518 268.234 54.194C271.359 55.2362 273.442 54.7151 276.567 53.6729C275.004 50.5463 272.921 51.0674 269.796 51.5885ZM272.921 73.9956C276.567 73.4745 317.193 76.6011 310.943 67.2214C307.297 61.4893 291.151 67.2214 286.463 67.2214C276.046 67.2214 274.484 56.2784 265.629 58.8838C269.275 64.6159 265.629 70.8691 272.921 73.4745V73.9956ZM247.4 74.5167H250.004C248.962 71.9112 248.962 73.9956 247.4 74.5167ZM253.129 69.8269C253.129 69.8269 265.108 76.08 264.067 69.8269C263.025 64.6159 254.692 67.2214 253.129 69.8269ZM261.983 62.0104C266.15 57.8417 259.9 54.7151 255.733 55.2362C246.879 56.7995 257.817 62.0104 261.983 62.0104ZM254.692 53.1518C257.817 53.1518 261.463 53.1518 264.588 52.1096V50.0252C260.421 49.5041 256.254 48.983 254.692 53.1518ZM255.212 48.4619C264.588 46.3775 248.962 42.2088 246.358 42.7299C247.4 46.8986 250.525 50.0252 255.212 48.4619ZM244.796 34.9134C244.796 34.9134 242.712 30.7447 239.066 31.7869V33.8712C239.066 33.8712 242.191 35.4345 244.796 34.9134ZM242.191 50.5463C244.796 41.1666 226.566 36.9978 219.795 39.6033C222.399 40.6455 223.962 42.7299 225.525 44.2932H222.399C225.004 47.9408 236.462 48.4619 241.671 50.5463H242.191ZM235.421 50.5463C235.421 50.5463 232.295 48.4619 229.691 48.983C230.733 52.1096 232.816 51.0674 235.421 50.5463ZM233.858 66.7003C237.504 64.6159 240.108 66.7003 240.629 70.348C245.316 70.348 249.483 68.2636 248.442 63.0526C247.921 57.3206 242.191 59.926 236.983 57.8417C238.546 58.8838 240.629 60.9682 241.671 63.0526C241.671 63.0526 234.379 59.926 232.816 59.926C232.816 61.4893 232.816 63.0526 233.858 64.6159C230.212 62.0104 229.17 57.8417 223.962 57.3206C223.441 63.0526 228.65 65.6581 233.337 66.7003H233.858ZM222.92 68.2636C222.92 68.2636 227.087 72.9534 227.087 68.2636C227.087 65.6581 223.441 68.2636 222.92 68.2636ZM223.962 54.7151C223.962 54.7151 220.837 51.0674 218.754 50.0252C218.754 53.6729 220.837 55.7573 223.962 54.7151ZM319.797 120.894C322.401 121.415 329.693 120.894 327.089 116.726C325.005 113.078 316.672 115.683 319.797 120.894ZM260.421 89.6285C260.421 89.6285 263.546 88.5863 263.025 85.4597C268.234 87.5441 270.317 82.8543 272.921 79.2066C269.275 77.6433 260.942 75.0378 257.817 77.6433C254.692 79.7277 253.65 91.7129 260.421 90.1496V89.6285ZM244.275 95.3606C252.608 95.3606 254.171 87.5441 246.358 83.8965C252.608 81.8121 247.921 78.1644 244.275 77.1222C243.754 77.1222 238.546 79.7277 235.941 79.2066C241.15 84.4175 236.983 88.0652 231.254 84.9387C231.254 88.5863 241.15 93.7973 244.275 95.8817V95.3606ZM223.441 83.8965C225.004 78.6855 218.754 77.6433 215.629 80.7699C218.754 83.3754 220.316 85.4597 223.441 83.8965ZM193.753 46.3775H206.774C204.691 41.6877 197.399 42.7299 193.753 46.3775ZM197.399 54.7151C201.045 54.7151 205.733 54.7151 202.607 50.5463C204.17 50.0252 204.691 50.5463 205.733 48.4619C201.566 48.4619 197.399 48.4619 193.753 50.5463C194.274 53.1518 195.837 53.1518 197.399 54.194V54.7151ZM191.149 51.5885C191.149 51.5885 189.586 47.4197 186.461 48.4619C187.503 51.5885 188.545 51.0674 191.149 51.5885ZM187.503 60.9682C182.295 62.5315 177.086 67.7425 180.732 70.8691C183.857 73.4745 195.837 70.8691 200.003 70.8691C198.441 72.4323 190.107 70.8691 190.628 73.9956C191.149 77.6433 197.92 75.5589 200.003 75.0378C204.691 73.9956 221.358 71.9112 220.316 65.6581C220.316 68.2636 209.378 59.4049 210.42 59.4049C205.212 57.8417 203.128 60.9682 205.733 65.6581C206.774 65.6581 208.337 65.6581 208.858 66.7003C209.378 68.7847 190.628 61.4893 188.024 60.4471L187.503 60.9682ZM188.545 57.3206C188.545 57.3206 190.107 59.926 192.711 59.4049C192.711 58.8838 192.711 58.3628 192.711 57.3206C191.149 57.3206 190.107 57.3206 188.545 57.3206ZM173.961 65.137C173.961 65.137 172.919 66.7003 171.878 67.2214C176.045 67.2214 175.003 67.7425 177.086 64.0948C176.045 64.0948 175.003 64.6159 173.44 65.137H173.961ZM179.69 60.4471C182.815 59.4049 184.378 56.7995 184.899 53.6729C173.961 51.0674 170.315 60.9682 159.898 62.5315C164.586 69.8269 171.878 63.0526 176.045 59.4049C177.086 62.5315 178.128 60.4471 179.69 60.9682V60.4471ZM182.295 108.388C190.107 107.867 190.628 112.036 196.878 113.599C203.128 115.162 207.816 110.993 213.024 109.951C216.149 109.43 238.025 113.078 230.733 106.825C233.858 106.825 234.9 105.261 236.462 104.219C229.691 99.5293 227.087 99.5293 223.441 93.2762C221.879 90.6707 216.149 78.6855 211.983 84.4175C209.899 87.023 217.712 93.2762 211.983 93.2762C208.858 93.2762 209.378 84.9387 203.649 84.9387C204.17 85.9808 204.691 87.5441 205.733 88.5863C203.649 89.6285 202.087 90.1496 200.003 90.6707C200.524 89.6285 201.045 88.0652 201.045 87.023C196.878 85.4597 193.232 86.5019 190.628 87.5441C192.191 80.7699 185.941 83.8965 182.295 85.4597C176.045 88.0652 176.045 89.6285 173.44 94.3184C177.607 95.8817 181.774 93.2762 185.42 96.4028C182.295 96.4028 179.69 97.966 177.086 99.5293C181.253 101.614 194.274 98.4871 196.357 102.135C197.399 103.698 181.774 104.219 179.69 105.782C180.732 106.825 181.253 108.388 182.295 109.43V108.388ZM213.024 115.683C216.149 114.641 218.233 114.12 219.274 111.515C215.629 112.036 212.503 113.599 209.378 115.162C210.42 115.162 211.983 115.162 213.024 115.683ZM161.461 95.8817C167.711 96.9239 170.836 88.0652 176.045 85.4597C185.42 80.7699 187.503 79.2066 176.045 77.1222C172.919 76.6011 157.815 72.9534 154.69 75.5589C153.128 77.1222 152.607 88.0652 148.44 92.234C152.607 92.234 156.773 94.8395 158.336 99.0082C159.378 97.966 160.419 97.445 161.461 96.4028V95.8817ZM6.77092 159.976C-1.04171 160.498 3.12503 154.766 6.77092 159.976V159.976ZM68.7511 155.808C69.7928 150.076 77.6054 157.371 81.2513 158.413C86.4597 159.976 91.6682 158.413 96.3557 160.498C105.21 163.624 111.46 171.441 120.314 173.004C121.356 174.567 121.877 176.652 123.439 178.215C123.439 178.215 127.606 180.299 128.127 181.341C131.252 186.031 132.815 190.721 135.94 194.369C140.627 200.622 142.711 201.143 149.482 205.312C154.169 208.438 159.898 213.128 159.378 219.903C153.648 213.128 147.919 203.749 138.544 204.791C142.711 210.002 149.482 212.086 152.086 218.339C154.69 225.113 151.044 231.888 151.044 237.62C151.044 248.042 156.253 263.153 163.544 270.97C167.711 275.66 174.482 275.66 178.128 281.913C181.253 286.603 183.857 292.856 186.982 297.546C188.024 299.109 185.941 299.63 188.024 303.278C189.586 305.362 193.232 306.926 194.795 309.01C195.837 310.052 202.087 317.347 202.607 319.953C208.337 314.221 185.941 293.898 185.42 285.561C191.67 285.04 198.962 299.109 203.128 303.799C208.858 310.052 214.066 318.39 220.316 325.685C211.462 331.417 246.358 344.444 251.567 345.487C253.129 345.487 255.212 343.402 258.338 344.445C261.983 345.487 263.546 349.134 266.671 351.219C269.796 352.782 279.171 354.345 279.171 354.345C284.38 357.993 286.463 364.767 289.588 367.373C293.234 371.02 302.088 373.626 307.297 376.231C305.734 366.852 316.151 375.189 316.151 372.063C317.193 365.809 303.13 369.978 299.484 367.373C290.63 361.12 300.005 354.345 295.317 347.571C291.151 341.839 281.255 346.529 276.046 344.445C280.213 339.755 286.984 324.643 277.609 325.164C269.275 325.685 273.442 331.417 268.234 335.586C263.546 339.234 255.733 337.149 252.087 333.501C243.754 326.206 244.275 306.404 248.962 298.588C255.733 288.687 266.671 298.588 273.963 295.983C272.4 289.729 279.171 290.772 283.859 290.772C283.859 290.772 294.276 292.856 292.713 291.814C295.838 293.898 301.567 311.615 304.692 311.094C308.859 311.094 301.567 287.645 307.297 281.392C310.943 277.223 318.755 276.181 320.839 270.97C322.922 266.801 319.797 264.717 318.755 259.506C321.88 260.027 320.318 257.943 323.443 261.069C324.484 258.464 327.089 251.689 329.172 249.605C331.255 247.521 337.506 247 341.151 245.957C335.422 235.535 356.777 227.719 365.11 229.282C364.068 229.282 357.298 231.367 356.256 233.451C353.652 239.183 361.464 234.493 361.464 233.972C368.235 233.451 375.527 228.24 377.61 221.987C372.402 224.592 370.839 228.761 364.589 225.113C356.256 220.424 364.589 216.255 362.506 213.128C357.298 204.791 343.235 219.903 337.506 223.55C339.068 220.945 341.151 218.339 343.235 216.255C341.672 216.255 340.631 215.734 339.068 215.213C346.36 216.776 350.527 207.917 356.777 205.833C360.943 204.791 366.673 205.833 370.839 205.833C377.09 205.312 376.569 204.27 382.298 202.185C387.506 200.101 395.319 199.58 392.715 192.806C390.111 186.031 381.777 190.721 376.569 191.242C379.173 187.073 383.86 188.116 388.027 184.989C381.777 183.947 375.527 181.341 371.881 175.609C376.048 173.004 364.589 161.019 362.506 156.329C359.381 159.976 359.381 165.709 354.172 166.751C348.964 167.793 350.006 162.582 344.276 164.145C347.922 151.639 338.026 147.47 328.13 145.386C317.193 142.78 309.901 147.991 317.714 159.455H315.109C315.109 159.455 315.109 162.582 313.547 164.666C323.964 168.835 321.359 184.468 309.901 183.947C313.026 187.595 316.151 201.143 308.859 201.664C301.567 202.185 300.005 188.116 300.526 182.905C292.192 181.341 286.984 180.299 279.692 176.652C276.567 175.088 272.921 174.046 269.796 172.483C267.192 171.441 266.671 173.525 264.588 172.483C263.025 171.441 262.504 167.793 261.463 166.23C257.817 161.54 255.733 164.145 256.775 156.85C256.775 153.723 259.9 149.033 262.504 146.428C265.108 144.344 270.317 143.301 269.796 140.175C269.796 138.09 260.421 136.527 258.338 136.006C263.025 136.006 271.879 140.696 273.442 134.964C279.171 138.09 281.775 134.964 283.338 129.753C278.13 129.753 274.484 127.669 270.317 125.584C273.442 125.584 292.713 130.274 284.9 121.936C293.234 121.415 287.505 134.964 283.859 136.527C286.984 139.654 288.026 140.696 292.713 140.696C292.713 140.696 296.88 138.612 298.442 138.09C300.005 138.09 302.088 139.654 303.13 139.654C313.547 138.09 292.713 130.795 291.151 126.626C295.838 126.626 293.234 126.626 294.796 124.021C302.088 123.5 305.213 117.247 300.526 111.515C310.422 109.951 298.442 103.177 294.796 101.614C301.047 100.572 307.297 103.698 313.547 101.614C312.505 100.572 311.463 99.5293 310.422 99.0082C317.193 101.093 321.88 105.261 327.61 109.43C330.214 111.515 334.901 114.12 334.901 117.768C334.901 122.979 325.526 122.458 329.693 128.711C326.047 129.753 313.547 126.626 314.068 132.879C314.588 139.133 323.964 132.879 326.047 132.879C333.339 133.922 333.86 139.133 338.547 142.78C343.235 146.428 350.527 145.907 356.256 149.033C356.256 144.344 349.485 142.259 346.881 138.09C351.568 140.175 356.777 142.78 361.464 145.386C361.985 144.344 363.027 140.696 363.548 139.133C358.86 134.964 353.652 130.795 349.485 125.063C352.61 120.373 354.172 123.5 358.339 125.584C364.589 128.711 361.985 130.795 367.194 129.232L373.444 124.021C375.527 119.852 376.048 122.979 373.444 119.331C370.839 115.683 342.714 107.867 356.777 104.74C355.214 104.74 354.172 104.219 352.61 103.698C353.652 102.656 353.652 102.656 355.214 102.135C353.131 101.093 352.089 99.5293 349.485 99.0082C349.485 98.4871 350.527 97.445 350.527 96.9239C345.318 95.8817 342.714 94.8395 338.026 93.2762C339.068 92.7551 339.589 92.234 340.631 91.7129C331.255 91.7129 330.735 85.9808 324.484 84.4175C319.797 82.8543 309.901 88.5863 307.818 87.023C304.692 85.4597 308.859 83.3754 306.776 80.7699C303.13 75.5589 303.651 76.08 297.922 77.1222C289.067 78.6855 289.588 85.9808 293.755 91.7129C284.38 92.7551 285.942 79.2066 292.713 75.5589C285.421 75.5589 279.171 75.5589 276.046 83.3754C272.4 93.7973 279.692 89.1074 283.859 94.3184C281.255 93.7973 279.692 94.3184 277.088 94.3184C279.171 97.445 289.588 98.4871 293.755 100.05C291.151 101.093 289.588 119.331 282.296 115.683C279.171 114.12 282.296 108.909 282.296 108.909C279.692 105.782 277.088 106.825 276.046 106.304C275.004 105.782 269.275 103.698 267.192 100.572C264.067 96.4028 263.546 84.4176 254.692 90.6707C246.358 96.4028 263.546 107.346 253.65 105.261C255.212 109.43 258.338 109.43 261.983 105.782C261.983 112.036 253.65 109.951 256.254 117.247C252.087 114.641 253.129 115.683 253.129 111.515C249.483 110.472 252.608 111.515 250.525 108.388H253.129C253.129 104.219 250.525 101.614 246.358 101.093C245.316 102.135 242.712 104.74 242.191 105.782C244.275 106.304 245.837 108.388 247.4 109.43C243.233 117.247 234.379 113.599 227.087 112.036C222.399 110.993 221.879 108.909 217.191 110.993C210.42 113.599 213.545 114.12 212.503 120.894C209.378 109.951 195.316 113.599 186.982 113.078C187.503 113.078 188.545 110.993 191.149 109.951C186.982 106.304 172.399 102.656 167.711 101.614C161.461 100.572 155.211 106.825 153.128 99.5293C151.044 105.782 150.002 101.614 147.398 101.614C146.357 101.614 145.315 97.445 143.232 97.445C140.106 97.445 142.19 99.5293 140.627 99.5293C137.502 100.05 128.648 105.261 124.481 107.346C127.606 103.177 133.335 103.698 136.461 99.5293C130.21 99.5293 122.919 103.177 116.669 104.219C106.252 106.304 102.085 102.135 91.1473 101.093C83.3347 100.05 75.522 98.4871 67.1886 97.966C58.3343 97.445 53.6467 94.3184 44.7924 95.3606C44.7924 94.8395 45.3132 93.7973 45.8341 93.2762C40.1048 92.234 32.813 95.8817 27.6046 97.445C20.8336 99.5293 20.3128 103.698 15.6252 106.304C8.85429 110.472 4.16671 106.304 9.37513 113.078C13.021 117.768 20.3128 118.289 22.917 124.021C19.2711 125.063 15.1044 125.063 14.5835 120.894C10.4168 124.021 5.20839 122.979 1.5625 127.147C6.25008 129.232 6.25008 132.879 10.4168 133.922C15.1044 134.964 21.3545 131.837 25.5212 131.316C26.0421 144.865 10.4168 135.485 8.33344 146.949C7.8126 150.076 15.1044 163.624 19.792 155.808C22.3962 158.413 22.917 161.019 21.8753 164.666C26.5629 163.624 31.7713 165.187 33.8547 162.582C35.4172 162.582 36.9798 162.582 39.0631 162.582C35.4172 178.215 18.2294 175.609 9.89597 184.989C21.8753 188.116 41.6673 169.877 51.5633 164.145C50.5216 162.582 49.48 161.54 48.9591 159.976C55.2092 157.892 57.8134 147.47 64.5844 152.16C59.376 152.681 56.7717 155.808 58.3343 160.498C61.9802 158.413 66.1469 156.329 70.8345 156.329C70.8345 155.808 70.3136 154.766 69.7928 154.244L68.7511 155.808ZM53.6467 170.919V167.793C50.0008 170.398 44.2715 171.441 47.3966 176.13C50.0008 175.088 52.0842 173.525 53.6467 171.441V170.919Z" fill="#28656A"/>
</g>
<defs>
<clipPath id="clip0_812_5283">
<rect width="1262" height="616.978" fill="white"/>
</clipPath>
</defs>
</svg>