<svg width="15" height="15" viewBox="0 0 20 20" fill="none" xmlns="http://www.w3.org/2000/svg">
<path d="M11.6673 1.66699H3.33398V18.3337H16.6673V6.66699L11.6673 1.66699ZM10.0007 8.33366C10.9173 8.33366 11.6673 9.08366 11.6673 10.0003C11.6673 10.917 10.9173 11.667 10.0007 11.667C9.08398 11.667 8.33398 10.917 8.33398 10.0003C8.33398 9.08366 9.08398 8.33366 10.0007 8.33366ZM13.334 15.0003H6.66732V14.5253C6.66732 13.8503 7.06732 13.2503 7.68398 12.9837C8.39232 12.6753 9.17565 12.5003 10.0007 12.5003C10.8257 12.5003 11.609 12.6753 12.3173 12.9837C12.934 13.2503 13.334 13.8503 13.334 14.5253V15.0003Z" fill="#1C1B1F"/>
</svg>
