<svg width="20" height="20" viewBox="0 0 20 20" fill="none" xmlns="http://www.w3.org/2000/svg">
<path d="M12.8257 12.133C11.4257 11.4163 9.60898 10.833 7.50065 10.833C5.39232 10.833 3.57565 11.4163 2.17565 12.133C1.34232 12.558 0.833984 13.4163 0.833984 14.3497V16.6663H14.1673V14.3497C14.1673 13.4163 13.659 12.558 12.8257 12.133ZM7.50065 9.99967C9.34232 9.99967 10.834 8.50801 10.834 6.66634C10.834 4.82467 9.34232 3.33301 7.50065 3.33301C5.65898 3.33301 4.16732 4.82467 4.16732 6.66634C4.16732 8.50801 5.65898 9.99967 7.50065 9.99967ZM16.6673 7.49967V4.99967H15.0006V7.49967H12.5007V9.16634H15.0006V11.6663H16.6673V9.16634H19.1673V7.49967H16.6673Z" fill="#1C1B1F"/>
</svg>
