<svg width="16" height="16" viewBox="0 0 16 16" fill="none" xmlns="http://www.w3.org/2000/svg">
<mask id="mask0_2776_12538" style="mask-type:alpha" maskUnits="userSpaceOnUse" x="0" y="0" width="16" height="16">
<rect width="16" height="16" fill="#D9D9D9"/>
</mask>
<g mask="url(#mask0_2776_12538)">
<path d="M0.666504 13.3337V10.667C0.666504 10.2892 0.797059 9.97255 1.05817 9.71699C1.31928 9.46144 1.63317 9.33366 1.99984 9.33366H4.18317C4.40539 9.33366 4.6165 9.38921 4.8165 9.50033C5.0165 9.61144 5.17762 9.76144 5.29984 9.95033C5.62206 10.3837 6.01928 10.7225 6.4915 10.967C6.96373 11.2114 7.4665 11.3337 7.99984 11.3337C8.54428 11.3337 9.05262 11.2114 9.52484 10.967C9.99706 10.7225 10.3887 10.3837 10.6998 9.95033C10.8443 9.76144 11.0137 9.61144 11.2082 9.50033C11.4026 9.38921 11.6054 9.33366 11.8165 9.33366H13.9998C14.3776 9.33366 14.6943 9.46144 14.9498 9.71699C15.2054 9.97255 15.3332 10.2892 15.3332 10.667V13.3337H10.6665V11.817C10.2776 12.0948 9.85817 12.3059 9.40817 12.4503C8.95817 12.5948 8.48873 12.667 7.99984 12.667C7.52206 12.667 7.05539 12.592 6.59984 12.442C6.14428 12.292 5.72206 12.0781 5.33317 11.8003V13.3337H0.666504ZM7.99984 10.667C7.57761 10.667 7.17761 10.5698 6.79984 10.3753C6.42206 10.1809 6.10539 9.91144 5.84984 9.56699C5.66095 9.28921 5.42484 9.06977 5.1415 8.90866C4.85817 8.74755 4.54984 8.66699 4.2165 8.66699C4.46095 8.25588 4.97761 7.93088 5.7665 7.69199C6.55539 7.4531 7.29984 7.33366 7.99984 7.33366C8.69984 7.33366 9.44428 7.4531 10.2332 7.69199C11.0221 7.93088 11.5387 8.25588 11.7832 8.66699C11.4609 8.66699 11.1554 8.74755 10.8665 8.90866C10.5776 9.06977 10.3387 9.28921 10.1498 9.56699C9.90539 9.92255 9.59428 10.1948 9.2165 10.3837C8.83873 10.5725 8.43317 10.667 7.99984 10.667ZM2.6665 8.66699C2.11095 8.66699 1.63873 8.47255 1.24984 8.08366C0.860948 7.69477 0.666504 7.22255 0.666504 6.66699C0.666504 6.10033 0.860948 5.62533 1.24984 5.24199C1.63873 4.85866 2.11095 4.66699 2.6665 4.66699C3.23317 4.66699 3.70817 4.85866 4.0915 5.24199C4.47484 5.62533 4.6665 6.10033 4.6665 6.66699C4.6665 7.22255 4.47484 7.69477 4.0915 8.08366C3.70817 8.47255 3.23317 8.66699 2.6665 8.66699ZM13.3332 8.66699C12.7776 8.66699 12.3054 8.47255 11.9165 8.08366C11.5276 7.69477 11.3332 7.22255 11.3332 6.66699C11.3332 6.10033 11.5276 5.62533 11.9165 5.24199C12.3054 4.85866 12.7776 4.66699 13.3332 4.66699C13.8998 4.66699 14.3748 4.85866 14.7582 5.24199C15.1415 5.62533 15.3332 6.10033 15.3332 6.66699C15.3332 7.22255 15.1415 7.69477 14.7582 8.08366C14.3748 8.47255 13.8998 8.66699 13.3332 8.66699ZM7.99984 6.66699C7.44428 6.66699 6.97206 6.47255 6.58317 6.08366C6.19428 5.69477 5.99984 5.22255 5.99984 4.66699C5.99984 4.10033 6.19428 3.62533 6.58317 3.24199C6.97206 2.85866 7.44428 2.66699 7.99984 2.66699C8.5665 2.66699 9.0415 2.85866 9.42484 3.24199C9.80817 3.62533 9.99984 4.10033 9.99984 4.66699C9.99984 5.22255 9.80817 5.69477 9.42484 6.08366C9.0415 6.47255 8.5665 6.66699 7.99984 6.66699Z" fill="#090C05"/>
</g>
</svg>
