<svg width="34" height="34" viewBox="0 0 34 34" fill="none" xmlns="http://www.w3.org/2000/svg">
<mask id="mask0_2776_12421" style="mask-type:alpha" maskUnits="userSpaceOnUse" x="0" y="0" width="34" height="34">
<rect width="34" height="34" fill="#D9D9D9"/>
</mask>
<g mask="url(#mask0_2776_12421)">
<path d="M1.4165 28.3337V22.667C1.4165 21.8642 1.69393 21.1913 2.2488 20.6482C2.80366 20.1052 3.47067 19.8337 4.24984 19.8337H8.88942C9.36164 19.8337 9.81025 19.9517 10.2353 20.1878C10.6603 20.4239 11.0026 20.7427 11.2623 21.1441C11.9471 22.0649 12.7912 22.785 13.7946 23.3045C14.7981 23.8239 15.8665 24.0837 16.9998 24.0837C18.1568 24.0837 19.237 23.8239 20.2405 23.3045C21.2439 22.785 22.0762 22.0649 22.7373 21.1441C23.0443 20.7427 23.4044 20.4239 23.8175 20.1878C24.2307 19.9517 24.6616 19.8337 25.1103 19.8337H29.7498C30.5526 19.8337 31.2255 20.1052 31.7686 20.6482C32.3116 21.1913 32.5832 21.8642 32.5832 22.667V28.3337H22.6665V25.1107C21.8401 25.701 20.9488 26.1496 19.9925 26.4566C19.0363 26.7635 18.0387 26.917 16.9998 26.917C15.9846 26.917 14.9929 26.7576 14.0248 26.4389C13.0568 26.1201 12.1596 25.6656 11.3332 25.0753V28.3337H1.4165ZM16.9998 22.667C16.1026 22.667 15.2526 22.4604 14.4498 22.0472C13.6471 21.634 12.9741 21.0614 12.4311 20.3295C12.0297 19.7392 11.528 19.2729 10.9259 18.9305C10.3238 18.5882 9.66859 18.417 8.96025 18.417C9.4797 17.5434 10.5776 16.8528 12.254 16.3451C13.9304 15.8375 15.5123 15.5837 16.9998 15.5837C18.4873 15.5837 20.0693 15.8375 21.7457 16.3451C23.4221 16.8528 24.52 17.5434 25.0394 18.417C24.3547 18.417 23.7054 18.5882 23.0915 18.9305C22.4776 19.2729 21.97 19.7392 21.5686 20.3295C21.0491 21.085 20.388 21.6635 19.5853 22.0649C18.7825 22.4663 17.9207 22.667 16.9998 22.667ZM5.6665 18.417C4.48595 18.417 3.48248 18.0038 2.65609 17.1774C1.8297 16.351 1.4165 15.3475 1.4165 14.167C1.4165 12.9628 1.8297 11.9535 2.65609 11.1389C3.48248 10.3243 4.48595 9.91699 5.6665 9.91699C6.87067 9.91699 7.88005 10.3243 8.69463 11.1389C9.50921 11.9535 9.9165 12.9628 9.9165 14.167C9.9165 15.3475 9.50921 16.351 8.69463 17.1774C7.88005 18.0038 6.87067 18.417 5.6665 18.417ZM28.3332 18.417C27.1526 18.417 26.1491 18.0038 25.3228 17.1774C24.4964 16.351 24.0832 15.3475 24.0832 14.167C24.0832 12.9628 24.4964 11.9535 25.3228 11.1389C26.1491 10.3243 27.1526 9.91699 28.3332 9.91699C29.5373 9.91699 30.5467 10.3243 31.3613 11.1389C32.1759 11.9535 32.5832 12.9628 32.5832 14.167C32.5832 15.3475 32.1759 16.351 31.3613 17.1774C30.5467 18.0038 29.5373 18.417 28.3332 18.417ZM16.9998 14.167C15.8193 14.167 14.8158 13.7538 13.9894 12.9274C13.163 12.101 12.7498 11.0975 12.7498 9.91699C12.7498 8.71283 13.163 7.70345 13.9894 6.88887C14.8158 6.07428 15.8193 5.66699 16.9998 5.66699C18.204 5.66699 19.2134 6.07428 20.028 6.88887C20.8425 7.70345 21.2498 8.71283 21.2498 9.91699C21.2498 11.0975 20.8425 12.101 20.028 12.9274C19.2134 13.7538 18.204 14.167 16.9998 14.167Z" fill="#0A2E31"/>
</g>
</svg>
