<svg width="104" height="95" viewBox="0 0 104 95" fill="none" xmlns="http://www.w3.org/2000/svg">
<path d="M54.1042 1.2008C52.2278 1.84501 51.6309 2.4549 50.6699 3.26642C46.4236 2.37043 41.6967 5.60282 40.4574 11.568C39.9957 13.7878 40.4869 15.9365 41.7605 17.3655C42.1101 20.4322 43.0969 24.3334 44.9699 27.007C47.634 30.8426 52.3726 33.0285 56.6167 31.8039C59.5558 30.9492 62.0652 28.5336 63.498 25.1774C64.6005 22.599 64.7965 18.8617 64.9662 16.028C71.2463 10.0842 64.2102 -2.25891 54.1042 1.2008ZM48.8824 5.52892C49.0136 5.52892 49.1605 5.52424 49.148 5.51799C51.3083 5.55133 50.6059 6.47444 52.6761 4.71017C54.3095 3.32726 56.6392 2.81707 58.6214 3.07736C63.1562 3.66 66.6861 9.4302 63.9827 13.4909C61.8046 11.0324 62.2166 9.82265 61.087 9.56486C60.7074 9.47736 60.3136 9.58205 60.023 9.8383C58.4667 11.2211 57.023 12.6836 55.7136 14.2024C55.1777 13.3086 54.8089 12.3414 54.6308 11.3524C54.4573 10.3897 53.2621 10.0334 52.5855 10.7336C51.0183 12.357 49.5308 14.043 48.1511 15.7586C47.0855 14.8289 46.2214 13.7242 45.623 12.518C45.1747 11.6143 43.9268 11.6858 43.4964 12.4742L42.7447 13.8329C42.3491 10.6656 45.0354 5.82145 48.8824 5.52892ZM61.2917 24.2336C60.1589 26.8867 58.1605 28.8555 55.948 29.4992C52.4902 30.4992 48.798 28.3133 46.9386 25.6336C45.1754 23.1154 44.2966 19.107 44.0726 16.389L44.6027 15.432C45.4355 16.5617 46.4683 17.5758 47.6542 18.4195C48.1802 18.7936 48.9046 18.6828 49.298 18.1774C50.4183 16.7336 51.623 15.3055 52.8933 13.9133C53.3324 14.9914 53.9495 16.0133 54.723 16.9367C55.2976 17.6201 56.179 17.4171 56.5808 16.9149C57.7449 15.4586 59.0433 14.0461 60.4542 12.7008C61.0319 13.7088 61.7556 14.6485 62.5925 15.5224C62.4362 18.1341 62.2728 21.9399 61.2917 24.2336Z" fill="black"/>
<path d="M25.114 71.0151C29.9514 69.3097 32.3548 64.3145 30.482 59.858C28.6092 55.4015 23.1696 53.1713 18.3322 54.8767C13.4947 56.5821 11.0914 61.5773 12.9641 66.0338C14.8321 70.4791 20.2649 72.7246 25.114 71.0151Z" fill="#4CD66E"/>
<path d="M2.81886 94.9919L40.2491 94.9511L41.9623 92.417L41.8264 92.4173C42.1122 91.5944 41.4992 90.6392 41.2734 90.0883C39.6853 86.102 38.1934 82.7017 34.85 79.8633C31.2004 76.7673 26.3986 75.1055 21.9156 75.1055C17.4359 75.1055 13.3 76.693 8.91564 80.093C5.7172 82.5742 1.90626 86.1445 0.817197 91.7742C0.768662 92.0225 0.82667 92.2658 0.929697 92.4913L0.845615 92.4915C1.22977 92.8911 2.274 94.4257 2.81886 94.9919ZM10.3875 81.9898C14.2874 78.9643 18.2938 77.1419 23.2735 77.5633C27.5735 77.942 31.5309 79.8454 34.2219 82.5508C36.5482 84.8978 37.7531 87.7423 38.9844 90.8242L3.52657 90.8039C4.49845 87.6164 6.62032 84.9117 10.3875 81.9898Z" fill="#4CD66E"/>
<path d="M79.6163 54.8767C74.7789 56.5821 72.3756 61.5773 74.2483 66.0338C76.1163 70.479 81.5495 72.7246 86.3981 71.0151C91.2355 69.3097 93.6388 64.3145 91.7661 59.858C89.8933 55.4015 84.4537 53.1713 79.6163 54.8767Z" fill="#4CD66E"/>
<path d="M103.11 92.4163C103.401 91.5768 102.751 90.5566 102.557 90.0873C101.193 86.6642 99.8754 83.5543 97.2129 80.8623C94.2437 77.8519 89.74 75.6086 84.7645 75.1717C79.2719 74.6909 74.595 76.6829 70.2004 80.092C67.002 82.5748 63.1895 86.1451 62.1004 91.7733C62.0519 92.0215 62.1099 92.2649 62.2129 92.4904L62.1293 92.4906C62.4824 92.8574 63.5784 94.4463 64.1025 94.991L101.533 94.9501L103.246 92.416L103.11 92.4163ZM71.6723 81.9889C75.5724 78.9619 79.5785 77.1411 84.5567 77.5623C88.8666 77.9419 92.8247 79.8535 95.5066 82.5498C97.835 84.902 99.0397 87.7518 100.268 90.8233L64.8098 90.803C65.7817 87.6155 67.9051 84.9108 71.6723 81.9889Z" fill="#4CD66E"/>
<path d="M76.7578 49.0316C77.5632 48.8717 77.9017 48.1202 77.6585 47.4679C76.6116 44.6601 75.2054 41.9898 73.4804 39.5335C71.4398 36.6242 68.2101 34.3101 63.8835 32.6523C63.4968 32.5028 62.9282 32.6337 62.6554 32.8757C60.6475 34.663 57.2329 36.1476 54.5226 36.1476C51.8319 36.1242 48.3444 34.796 46.4116 33.0585C46.1495 32.8217 45.5836 32.6853 45.1991 32.8226C37.8989 35.484 32.1024 40.8192 28.4804 47.3007C28.1446 47.9016 28.3404 48.7731 29.2339 49.0087C29.7275 49.7732 30.2213 50.5375 30.7149 51.3019L75.1754 51.4053L76.7578 49.0316ZM45.4027 35.3192C47.8795 37.2535 51.5578 38.5476 54.5819 38.5476C57.4364 38.5476 61.1063 37.1492 63.6496 35.152C68.8054 37.2698 71.8568 40.0211 74.7554 46.6867H31.6507C34.7855 41.8549 39.5478 37.5731 45.4027 35.3192Z" fill="black"/>
<path d="M39.9673 76.2244L52.086 67.3994C62.8829 78.0457 62.3286 78.1072 63.2532 78.1072C64.3116 78.1072 64.859 76.8186 64.1032 76.0604L53.3598 65.2775C53.4703 64.7815 53.3755 66.2568 53.411 54.2088C53.411 53.5463 52.8735 53.0088 52.211 53.0088C51.5485 53.0088 51.011 53.5463 51.011 54.2088C51.0172 56.8798 50.9849 64.7772 51.0443 65.1894L38.5548 74.2838C38.0188 74.6744 37.9001 75.4244 38.2907 75.9604C38.6782 76.4947 39.4298 76.6135 39.9673 76.2244Z" fill="black"/>
</svg>
