<svg width="76" height="104" viewBox="0 0 76 104" fill="none" xmlns="http://www.w3.org/2000/svg">
<path d="M16.2438 57.665C19.4918 57.665 22.1318 55.025 22.1318 51.777C22.1318 51.169 21.6358 50.673 21.0278 50.673C20.4198 50.673 19.9238 51.169 19.9238 51.777C19.9238 53.809 18.2598 55.473 16.2278 55.473C14.1958 55.473 12.5318 53.809 12.5318 51.777C12.5318 49.745 14.1958 48.081 16.2278 48.081C16.8358 48.081 17.3318 47.585 17.3318 46.977C17.3318 46.369 16.8358 45.873 16.2278 45.873C12.9798 45.873 10.3398 48.513 10.3398 51.761C10.3398 55.025 12.9958 57.665 16.2438 57.665Z" fill="black"/>
<path d="M15.1234 49.9047C14.9314 49.7127 14.6594 49.6007 14.3714 49.6007C14.0834 49.6007 13.8274 49.7127 13.6194 49.9047C13.4274 50.0967 13.3154 50.3687 13.3154 50.6567C13.3154 50.9447 13.4274 51.2007 13.6194 51.4087L15.4434 53.2327C15.6354 53.4247 15.9074 53.5367 16.1954 53.5367C16.4834 53.5367 16.7394 53.4247 16.9474 53.2327L22.4834 47.6967C22.6754 47.4887 22.7874 47.2327 22.7874 46.9447C22.7874 46.6567 22.6754 46.4007 22.4834 46.1927C22.2914 46.0007 22.0194 45.8887 21.7314 45.8887C21.4434 45.8887 21.1874 46.0007 20.9794 46.1927L16.1954 50.9767L15.1234 49.9047Z" fill="black"/>
<path d="M26.0679 52.4014H46.1159C46.7239 52.4014 47.2199 51.9054 47.2199 51.2974C47.2199 50.6894 46.7239 50.1934 46.1159 50.1934H26.0679C25.4599 50.1934 24.9639 50.6894 24.9639 51.2974C24.9639 51.9054 25.4599 52.4014 26.0679 52.4014Z" fill="black"/>
<path d="M24.9639 55.0893C24.9639 55.6973 25.4599 56.1933 26.0679 56.1933H52.8679C53.4759 56.1933 53.9719 55.6973 53.9719 55.0893C53.9719 54.4813 53.4759 53.9854 52.8679 53.9854H26.0679C25.4599 53.9854 24.9639 54.4813 24.9639 55.0893Z" fill="black"/>
<path d="M16.2438 77.6651C19.4918 77.6651 22.1318 75.0251 22.1318 71.7771C22.1318 71.1691 21.6358 70.673 21.0278 70.673C20.4198 70.673 19.9238 71.1691 19.9238 71.7771C19.9238 73.8091 18.2598 75.473 16.2278 75.473C14.1958 75.473 12.5318 73.8091 12.5318 71.7771C12.5318 69.7451 14.1958 68.081 16.2278 68.081C16.8358 68.081 17.3318 67.5851 17.3318 66.9771C17.3318 66.3691 16.8358 65.873 16.2278 65.873C12.9798 65.873 10.3398 68.513 10.3398 71.761C10.3398 75.025 12.9958 77.6651 16.2438 77.6651Z" fill="black"/>
<path d="M22.1312 66.4657C21.9552 66.2897 21.6992 66.1777 21.4432 66.1777C21.1872 66.1777 20.9472 66.2737 20.7552 66.4657L16.3552 70.8657L15.3632 69.8737C15.1712 69.6977 14.9312 69.6017 14.6752 69.6017C14.4192 69.6017 14.1792 69.6977 13.9872 69.8897C13.8112 70.0657 13.6992 70.3217 13.6992 70.5777C13.6992 70.8337 13.7952 71.0737 13.9872 71.2657L15.6672 72.9457C15.8432 73.1377 16.0992 73.2337 16.3552 73.2337C16.6112 73.2337 16.8672 73.1377 17.0432 72.9457L22.1312 67.8577C22.4992 67.4577 22.4992 66.8497 22.1312 66.4657Z" fill="black"/>
<path d="M26.0679 72.4014H46.1159C46.7239 72.4014 47.2199 71.9054 47.2199 71.2974C47.2199 70.6894 46.7239 70.1934 46.1159 70.1934H26.0679C25.4599 70.1934 24.9639 70.6894 24.9639 71.2974C24.9639 71.9054 25.4599 72.4014 26.0679 72.4014Z" fill="black"/>
<path d="M52.8679 73.9854H26.0679C25.4599 73.9854 24.9639 74.4813 24.9639 75.0893C24.9639 75.6973 25.4599 76.1933 26.0679 76.1933H52.8679C53.4759 76.1933 53.9719 75.6973 53.9719 75.0893C53.9719 74.4813 53.4759 73.9854 52.8679 73.9854Z" fill="black"/>
<path d="M16.2438 97.6651C19.4918 97.6651 22.1318 95.0251 22.1318 91.7771C22.1318 91.1691 21.6358 90.673 21.0278 90.673C20.4198 90.673 19.9238 91.1691 19.9238 91.7771C19.9238 93.8091 18.2598 95.473 16.2278 95.473C14.1958 95.473 12.5318 93.8251 12.5318 91.7771C12.5318 89.7451 14.1958 88.081 16.2278 88.081C16.8358 88.081 17.3318 87.5851 17.3318 86.9771C17.3318 86.3691 16.8358 85.873 16.2278 85.873C12.9798 85.873 10.3398 88.513 10.3398 91.761C10.3398 95.025 12.9958 97.6651 16.2438 97.6651Z" fill="black"/>
<path d="M21.4921 86.1445C21.2361 86.1445 20.9801 86.2405 20.7881 86.4325L16.3241 90.8965L15.3161 89.8885C15.1241 89.6965 14.8841 89.6005 14.6121 89.6005C14.3401 89.6005 14.1001 89.6965 13.9081 89.8885C13.5241 90.2725 13.5241 90.8965 13.9081 91.2805L15.6041 92.9765C15.7961 93.1685 16.0361 93.2645 16.2921 93.2645C16.5481 93.2645 16.8041 93.1685 16.9961 92.9765L22.1641 87.8085C22.5481 87.4245 22.5481 86.8005 22.1641 86.4165C22.0041 86.2405 21.7481 86.1445 21.4921 86.1445Z" fill="black"/>
<path d="M26.0679 92.4014H46.1159C46.7239 92.4014 47.2199 91.9054 47.2199 91.2974C47.2199 90.6894 46.7239 90.1934 46.1159 90.1934H26.0679C25.4599 90.1934 24.9639 90.6894 24.9639 91.2974C24.9639 91.9054 25.4599 92.4014 26.0679 92.4014Z" fill="black"/>
<path d="M52.8679 93.9854H26.0679C25.4599 93.9854 24.9639 94.4813 24.9639 95.0893C24.9639 95.6973 25.4599 96.1933 26.0679 96.1933H52.8679C53.4759 96.1933 53.9719 95.6973 53.9719 95.0893C53.9719 94.4813 53.4759 93.9854 52.8679 93.9854Z" fill="black"/>
<path d="M73.6996 0.800781H9.05961C7.82761 0.800781 6.83561 1.79278 6.83561 3.02478V7.66478H2.88361C1.34761 7.66478 0.0996094 8.92878 0.0996094 10.4808V100.417C0.0996094 101.953 1.34761 103.201 2.88361 103.201H66.2916C67.8276 103.201 69.0916 101.953 69.0916 100.417V96.3688H73.6996C74.9316 96.3688 75.9236 95.3768 75.9236 94.1448V3.02478C75.9236 1.79278 74.9156 0.800781 73.6996 0.800781ZM56.5476 8.06478C56.3876 7.87278 56.1636 7.74478 55.9236 7.71278L55.7636 7.66478H9.04361V3.02478C9.04361 3.00878 9.04361 2.99278 9.05961 2.99278L73.7316 3.02478L73.6996 94.1608H69.0916L69.0756 21.2968L69.0276 21.0248C69.0116 20.9768 68.9476 20.8328 68.7876 20.6088L56.5476 8.06478ZM2.27561 10.4808C2.27561 10.1448 2.53161 9.85678 2.86761 9.85678H54.6116V19.3128C54.6116 21.0408 56.0196 22.4488 57.7476 22.4488H66.8676V100.417C66.8676 100.737 66.6116 101.009 66.2756 101.009H2.86761C2.54761 101.009 2.27561 100.753 2.27561 100.417V10.4808Z" fill="black"/>
<path d="M24.4844 41.968H46.5804C47.9724 41.968 49.0924 40.848 49.0924 39.488V37.488C49.0924 34.928 47.5244 32.608 45.1084 31.6L39.3964 29.2L39.3164 27.712C40.9164 26.56 41.8764 24.704 41.8764 22.72V19.12C41.8764 19.04 41.8604 18.976 41.8604 18.752C41.8764 18.592 41.8604 18.4 41.7964 18.304C41.3964 15.248 38.7724 12.96 35.7164 12.96H35.4444C32.1164 12.96 29.4124 15.568 29.3004 18.848L29.2684 19.12V22.72C29.2684 24.656 30.1964 26.48 31.7484 27.648L31.6524 29.2L29.6524 30.048L25.9244 31.6C23.5084 32.624 21.9404 34.928 21.9404 37.488V39.488C21.9564 40.848 23.0924 41.968 24.4844 41.968ZM29.4924 32.48L30.6924 35.216C30.8204 35.52 31.0764 35.744 31.4124 35.84C31.5244 35.872 31.6204 35.888 31.7004 35.888C31.9564 35.888 32.1964 35.808 32.3564 35.664L35.4284 33.424L38.4844 35.664C38.6764 35.808 38.9004 35.888 39.1404 35.888C39.2524 35.888 39.3484 35.872 39.4284 35.84C39.7644 35.744 40.0364 35.52 40.1644 35.216L41.3804 32.4L44.2924 33.632C45.8924 34.304 46.9324 35.808 46.9324 37.488V39.488C46.9324 39.632 46.7884 39.76 46.6124 39.76H24.4844C24.3084 39.76 24.1484 39.632 24.1484 39.488V37.488C24.1484 35.808 25.1884 34.304 26.7884 33.632L29.4924 32.48ZM37.1724 28.688L37.2044 29.392L35.4444 30.672L33.8444 29.408L33.8924 28.656C34.4204 28.8 34.9484 28.864 35.4444 28.864H35.7164C36.1964 28.88 36.6924 28.816 37.1724 28.688ZM31.4604 20.144C34.1484 20.144 35.8444 19.584 37.3964 18.144C37.8764 18.56 38.6604 19.136 39.6844 19.456V22.704C39.6844 24.064 38.9964 25.312 37.9244 26.016C37.7484 26.048 37.5884 26.128 37.4924 26.224C36.9324 26.528 36.3084 26.672 35.7004 26.672H35.4444C33.2524 26.672 31.4764 24.896 31.4764 22.704V20.144H31.4604Z" fill="#4CD66E"/>
</svg>
