<svg width="97" height="96" viewBox="0 0 97 96" fill="none" xmlns="http://www.w3.org/2000/svg">
<path d="M91.701 83.2005V36.7525C92.1479 36.8112 92.6021 36.7781 93.0357 36.6551C93.4693 36.5321 93.8733 36.3218 94.2228 36.0372C94.5723 35.7525 94.8599 35.3995 95.0682 34.9998C95.2764 34.6001 95.4009 34.162 95.4338 33.7125L96.4898 21.1669V21.1525C96.528 20.6776 96.463 20.2 96.2992 19.7526C96.1354 19.3052 95.8768 18.8985 95.541 18.5605C95.2032 18.2208 94.7946 17.9596 94.3444 17.7957C93.8942 17.6317 93.4134 17.5689 92.9362 17.6117L80.405 18.6661C79.7592 18.7124 79.141 18.9459 78.6258 19.3381C78.1106 19.7302 77.7209 20.264 77.5042 20.8741C77.2807 21.4624 77.2332 22.103 77.3675 22.7179C77.5019 23.3327 77.8124 23.8951 78.261 24.3365L80.5282 26.6037C61.0249 44.5089 37.1235 56.9237 11.2594 62.5829L4.27543 64.1173C3.65924 64.25 3.07535 64.5032 2.55736 64.8624C2.03937 65.2216 1.59749 65.6796 1.25713 66.2101C0.916772 66.7407 0.684649 67.3333 0.574111 67.9538C0.463573 68.5744 0.4768 69.2107 0.613033 69.8261C0.849082 70.8944 1.44207 71.8504 2.29426 72.5365C3.14645 73.2226 4.20697 73.5979 5.30103 73.6005V83.2005C4.02799 83.2005 2.80709 83.7062 1.90692 84.6064C1.00675 85.5066 0.501033 86.7275 0.501033 88.0005V91.2005C0.501033 92.4735 1.00675 93.6944 1.90692 94.5946C2.80709 95.4948 4.02799 96.0005 5.30103 96.0005H91.701C92.9741 96.0005 94.195 95.4948 95.0951 94.5946C95.9953 93.6944 96.501 92.4735 96.501 91.2005V88.0005C96.501 86.7275 95.9953 85.5066 95.0951 84.6064C94.195 83.7062 92.9741 83.2005 91.701 83.2005ZM69.301 83.2005V47.7253C70.3762 46.9882 71.4429 46.2373 72.501 45.4725V83.2005H69.301ZM46.901 83.2005V60.5509C47.9741 60.0474 49.0408 59.5306 50.101 59.0005V83.2005H46.901ZM24.501 83.2005V69.0725C25.5677 68.7525 26.6344 68.424 27.701 68.0869V83.2005H24.501ZM30.901 67.0181C35.2424 65.5301 39.509 63.8645 43.701 62.0213V83.2005H30.901V67.0181ZM53.301 57.3813C57.6808 55.0805 61.9474 52.5792 66.101 49.8773V83.2005H53.301V57.3813ZM75.701 43.1093C79.7106 40.0565 83.5789 36.8122 87.3058 33.3765L88.501 34.5733V83.2005H75.701V43.1093ZM3.73943 69.1445C3.69328 68.9382 3.68846 68.7248 3.72526 68.5166C3.76206 68.3085 3.83975 68.1097 3.95383 67.9317C4.0665 67.7564 4.21294 67.6052 4.38464 67.4871C4.55633 67.369 4.74982 67.2862 4.95383 67.2437L11.9442 65.7093C38.92 59.8056 63.7945 46.7093 83.9282 27.8101C84.0846 27.6633 84.2099 27.4865 84.2967 27.2903C84.3834 27.0941 84.4298 26.8825 84.4331 26.668C84.4364 26.4535 84.3965 26.2405 84.3158 26.0417C84.2351 25.8429 84.1153 25.6624 83.9634 25.5109L80.509 21.9701C80.5184 21.9352 80.5393 21.9045 80.5684 21.883C80.5974 21.8615 80.6329 21.8505 80.669 21.8517L93.285 20.8213C93.2948 20.8319 93.302 20.8447 93.3059 20.8586C93.3098 20.8725 93.3103 20.8871 93.3074 20.9013L92.2514 33.4485C92.2514 33.4741 92.2434 33.5509 92.0338 33.5765L88.4818 30.0229C88.1877 29.7285 87.7904 29.5604 87.3742 29.5541C86.9581 29.5478 86.556 29.7039 86.253 29.9893C65.6922 49.3676 40.2528 62.7957 12.653 68.8389C12.333 68.9093 11.7794 69.0405 11.117 69.1973C9.20073 69.6998 7.2594 70.1014 5.30103 70.4005C4.93662 70.4003 4.5832 70.2757 4.29924 70.0473C4.01527 69.8189 3.81778 69.5004 3.73943 69.1445ZM8.50103 73.0853C9.49943 72.8677 10.6338 72.6053 11.8482 72.3109C12.4882 72.1509 13.0034 72.0341 13.3202 71.9653C16.0034 71.3765 18.6594 70.6997 21.301 69.9765V83.2005H8.50103V73.0853ZM93.301 91.2005C93.301 91.6248 93.1325 92.0318 92.8324 92.3319C92.5323 92.6319 92.1254 92.8005 91.701 92.8005H5.30103C4.87669 92.8005 4.46972 92.6319 4.16966 92.3319C3.8696 92.0318 3.70103 91.6248 3.70103 91.2005V88.0005C3.70103 87.5761 3.8696 87.1692 4.16966 86.8691C4.46972 86.5691 4.87669 86.4005 5.30103 86.4005H91.701C92.1254 86.4005 92.5323 86.5691 92.8324 86.8691C93.1325 87.1692 93.301 87.5761 93.301 88.0005V91.2005Z" fill="black"/>
<path d="M26.1006 30.4004C27.0898 30.3963 28.0536 30.0867 28.8601 29.5138C29.6666 28.941 30.2765 28.133 30.6062 27.2004H32.5006C32.925 27.2004 33.3319 27.0318 33.632 26.7318C33.932 26.4317 34.1006 26.0247 34.1006 25.6004C34.1006 25.176 33.932 24.7691 33.632 24.469C33.3319 24.169 32.925 24.0004 32.5006 24.0004H30.6062C30.367 23.3315 29.9822 22.724 29.4798 22.2218C28.9773 21.7197 28.3696 21.3353 27.7006 21.0964V16.0004C27.7006 15.576 27.532 15.1691 27.232 14.869C26.9319 14.569 26.525 14.4004 26.1006 14.4004C25.6763 14.4004 25.2693 14.569 24.9692 14.869C24.6692 15.1691 24.5006 15.576 24.5006 16.0004V21.0948C23.4339 21.4705 22.5346 22.2116 21.962 23.1868C21.3894 24.1621 21.1804 25.3085 21.372 26.4231C21.5636 27.5376 22.1436 28.5484 23.009 29.2764C23.8745 30.0044 24.9697 30.4025 26.1006 30.4004ZM26.1006 24.0004C26.4171 24.0004 26.7264 24.0942 26.9895 24.27C27.2526 24.4458 27.4577 24.6957 27.5788 24.9881C27.6999 25.2805 27.7316 25.6022 27.6699 25.9125C27.6081 26.2229 27.4558 26.508 27.232 26.7318C27.0082 26.9555 26.7231 27.1079 26.4128 27.1696C26.1024 27.2314 25.7807 27.1997 25.4883 27.0786C25.196 26.9575 24.9461 26.7524 24.7703 26.4893C24.5945 26.2262 24.5006 25.9168 24.5006 25.6004C24.5006 25.176 24.6692 24.7691 24.9692 24.469C25.2693 24.169 25.6763 24.0004 26.1006 24.0004Z" fill="#4CD66E"/>
<path d="M26.102 51.2C31.1652 51.2 36.1147 49.6986 40.3246 46.8856C44.5345 44.0727 47.8157 40.0745 49.7533 35.3967C51.6909 30.7189 52.1978 25.5716 51.2101 20.6057C50.2223 15.6398 47.7841 11.0783 44.2039 7.49808C40.6237 3.91785 36.0622 1.47969 31.0963 0.491908C26.1304 -0.495873 20.983 0.011092 16.3053 1.9487C11.6275 3.8863 7.6293 7.16751 4.81633 11.3774C2.00337 15.5873 0.501953 20.5368 0.501953 25.6C0.509998 32.3871 3.20972 38.8939 8.00891 43.6931C12.8081 48.4922 19.3149 51.192 26.102 51.2ZM26.102 3.20001C30.5323 3.20001 34.8631 4.51375 38.5467 6.97509C42.2304 9.43644 45.1015 12.9348 46.7969 17.0279C48.4923 21.121 48.9359 25.6249 48.0715 29.97C47.2072 34.3152 45.0738 38.3065 41.9411 41.4392C38.8084 44.5719 34.8172 46.7053 30.472 47.5696C26.1268 48.4339 21.6229 47.9903 17.5298 46.2949C13.4368 44.5995 9.93838 41.7284 7.47703 38.0448C5.01569 34.3611 3.70195 30.0303 3.70195 25.6C3.70831 19.6611 6.07034 13.9673 10.2698 9.76784C14.4692 5.5684 20.1631 3.20636 26.102 3.20001Z" fill="#4CD66E"/>
<path d="M26.102 11.2004C26.5263 11.2004 26.9333 11.0318 27.2333 10.7318C27.5334 10.4317 27.702 10.0247 27.702 9.60039V8.00039C27.702 7.57604 27.5334 7.16908 27.2333 6.86902C26.9333 6.56896 26.5263 6.40039 26.102 6.40039C25.6776 6.40039 25.2706 6.56896 24.9706 6.86902C24.6705 7.16908 24.502 7.57604 24.502 8.00039V9.60039C24.502 10.0247 24.6705 10.4317 24.9706 10.7318C25.2706 11.0318 25.6776 11.2004 26.102 11.2004Z" fill="black"/>
<path d="M13.6568 15.4192C13.9585 15.7106 14.3627 15.8719 14.7822 15.8682C15.2017 15.8646 15.603 15.6963 15.8997 15.3997C16.1963 15.103 16.3646 14.7017 16.3682 14.2822C16.3719 13.8627 16.2106 13.4585 15.9192 13.1568L14.788 12.0256C14.6404 11.8728 14.4638 11.7509 14.2686 11.667C14.0734 11.5832 13.8635 11.539 13.651 11.5372C13.4386 11.5353 13.2279 11.5758 13.0312 11.6563C12.8346 11.7367 12.656 11.8555 12.5057 12.0057C12.3555 12.156 12.2367 12.3346 12.1563 12.5312C12.0758 12.7279 12.0353 12.9386 12.0372 13.151C12.039 13.3635 12.0832 13.5734 12.167 13.7686C12.2509 13.9638 12.3728 14.1404 12.5256 14.288L13.6568 15.4192Z" fill="black"/>
<path d="M11.7014 25.6C11.7014 25.1757 11.5328 24.7687 11.2327 24.4686C10.9327 24.1686 10.5257 24 10.1014 24H8.50137C8.07702 24 7.67005 24.1686 7.37 24.4686C7.06994 24.7687 6.90137 25.1757 6.90137 25.6C6.90137 26.0243 7.06994 26.4313 7.37 26.7314C7.67005 27.0314 8.07702 27.2 8.50137 27.2H10.1014C10.5257 27.2 10.9327 27.0314 11.2327 26.7314C11.5328 26.4313 11.7014 26.0243 11.7014 25.6Z" fill="black"/>
<path d="M13.6573 39.6455C14.0816 39.6454 14.4885 39.4768 14.7885 39.1767L15.9197 38.0455C16.2111 37.7438 16.3724 37.3396 16.3688 36.9201C16.3651 36.5006 16.1968 36.0993 15.9002 35.8026C15.6035 35.506 15.2022 35.3377 14.7827 35.334C14.3632 35.3304 13.959 35.4917 13.6573 35.7831L12.5261 36.9143C12.3024 37.1381 12.1501 37.4231 12.0883 37.7335C12.0266 38.0438 12.0583 38.3655 12.1794 38.6578C12.3005 38.9501 12.5055 39.2 12.7685 39.3758C13.0316 39.5516 13.3409 39.6455 13.6573 39.6455Z" fill="black"/>
<path d="M26.102 40C25.6776 40 25.2706 40.1686 24.9706 40.4686C24.6705 40.7687 24.502 41.1757 24.502 41.6V43.2C24.502 43.6243 24.6705 44.0313 24.9706 44.3314C25.2706 44.6314 25.6776 44.8 26.102 44.8C26.5263 44.8 26.9333 44.6314 27.2333 44.3314C27.5334 44.0313 27.702 43.6243 27.702 43.2V41.6C27.702 41.1757 27.5334 40.7687 27.2333 40.4686C26.9333 40.1686 26.5263 40 26.102 40Z" fill="black"/>
<path d="M37.4146 39.177C37.7163 39.4684 38.1205 39.6297 38.54 39.6261C38.9595 39.6224 39.3608 39.4541 39.6575 39.1575C39.9541 38.8608 40.1224 38.4595 40.1261 38.04C40.1297 37.6205 39.9684 37.2163 39.677 36.9146L38.5458 35.7834C38.3982 35.6306 38.2216 35.5087 38.0264 35.4248C37.8312 35.341 37.6213 35.2968 37.4088 35.295C37.1964 35.2931 36.9857 35.3336 36.7891 35.4141C36.5924 35.4945 36.4138 35.6133 36.2635 35.7636C36.1133 35.9138 35.9945 36.0924 35.9141 36.2891C35.8336 36.4857 35.7931 36.6964 35.795 36.9088C35.7968 37.1213 35.841 37.3312 35.9248 37.5264C36.0087 37.7216 36.1306 37.8982 36.2834 38.0458L37.4146 39.177Z" fill="black"/>
<path d="M42.102 27.2H43.702C44.1263 27.2 44.5333 27.0314 44.8333 26.7314C45.1334 26.4313 45.302 26.0243 45.302 25.6C45.302 25.1757 45.1334 24.7687 44.8333 24.4686C44.5333 24.1686 44.1263 24 43.702 24H42.102C41.6776 24 41.2706 24.1686 40.9706 24.4686C40.6705 24.7687 40.502 25.1757 40.502 25.6C40.502 26.0243 40.6705 26.4313 40.9706 26.7314C41.2706 27.0314 41.6776 27.2 42.102 27.2Z" fill="black"/>
<path d="M37.4151 15.8877C37.8394 15.8876 38.2463 15.719 38.5463 15.4189L39.6775 14.2877C39.9689 13.9859 40.1302 13.5818 40.1266 13.1623C40.1229 12.7428 39.9547 12.3415 39.658 12.0448C39.3613 11.7481 38.96 11.5799 38.5405 11.5762C38.121 11.5726 37.7169 11.7339 37.4151 12.0253L36.2839 13.1565C36.0602 13.3803 35.9079 13.6653 35.8462 13.9757C35.7844 14.286 35.8161 14.6076 35.9372 14.9C36.0583 15.1923 36.2633 15.4421 36.5264 15.618C36.7894 15.7938 37.0987 15.8876 37.4151 15.8877Z" fill="black"/>
</svg>
